ISO-10303-21;
HEADER;
/* Generated by software containing ST-Developer
 * from STEP Tools, Inc. (www.steptools.com) 
 */

FILE_DESCRIPTION(
/* description */ (''),
/* implementation_level */ '2;1');

FILE_NAME(
/* name */ '10. Handguard Rail Bottom Short.step',
/* time_stamp */ '2025-10-08T23:20:59+01:00',
/* author */ (''),
/* organization */ (''),
/* preprocessor_version */ 'ST-DEVELOPER v20.1',
/* originating_system */ 'Autodesk Translation Framework v14.10.0.0',
/* authorisation */ '');

FILE_SCHEMA (('AUTOMOTIVE_DESIGN { 1 0 10303 214 3 1 1 }'));
ENDSEC;

DATA;
#10=MECHANICAL_DESIGN_GEOMETRIC_PRESENTATION_REPRESENTATION('',(#13),#1508);
#11=SHAPE_REPRESENTATION_RELATIONSHIP('SRR','None',#1515,#12);
#12=ADVANCED_BREP_SHAPE_REPRESENTATION('',(#14),#1507);
#13=STYLED_ITEM('',(#1525),#14);
#14=MANIFOLD_SOLID_BREP('10. Handguard Rail Bottom Short',#936);
#15=FACE_BOUND('',#121,.T.);
#16=FACE_BOUND('',#122,.T.);
#17=FACE_BOUND('',#129,.T.);
#18=FACE_BOUND('',#133,.T.);
#19=FACE_BOUND('',#136,.T.);
#20=FACE_BOUND('',#153,.T.);
#21=PLANE('',#953);
#22=PLANE('',#954);
#23=PLANE('',#955);
#24=PLANE('',#956);
#25=PLANE('',#957);
#26=PLANE('',#958);
#27=PLANE('',#959);
#28=PLANE('',#960);
#29=PLANE('',#961);
#30=PLANE('',#962);
#31=PLANE('',#965);
#32=PLANE('',#966);
#33=PLANE('',#967);
#34=PLANE('',#968);
#35=PLANE('',#969);
#36=PLANE('',#970);
#37=PLANE('',#972);
#38=PLANE('',#973);
#39=PLANE('',#974);
#40=PLANE('',#978);
#41=PLANE('',#981);
#42=PLANE('',#982);
#43=PLANE('',#985);
#44=PLANE('',#986);
#45=PLANE('',#987);
#46=PLANE('',#988);
#47=PLANE('',#989);
#48=PLANE('',#990);
#49=PLANE('',#991);
#50=PLANE('',#992);
#51=PLANE('',#993);
#52=PLANE('',#994);
#53=PLANE('',#995);
#54=PLANE('',#996);
#55=PLANE('',#999);
#56=PLANE('',#1000);
#57=PLANE('',#1001);
#58=PLANE('',#1002);
#59=PLANE('',#1003);
#60=PLANE('',#1004);
#61=PLANE('',#1005);
#62=PLANE('',#1006);
#63=FACE_OUTER_BOUND('',#110,.T.);
#64=FACE_OUTER_BOUND('',#111,.T.);
#65=FACE_OUTER_BOUND('',#112,.T.);
#66=FACE_OUTER_BOUND('',#113,.T.);
#67=FACE_OUTER_BOUND('',#114,.T.);
#68=FACE_OUTER_BOUND('',#115,.T.);
#69=FACE_OUTER_BOUND('',#116,.T.);
#70=FACE_OUTER_BOUND('',#117,.T.);
#71=FACE_OUTER_BOUND('',#118,.T.);
#72=FACE_OUTER_BOUND('',#119,.T.);
#73=FACE_OUTER_BOUND('',#120,.T.);
#74=FACE_OUTER_BOUND('',#123,.T.);
#75=FACE_OUTER_BOUND('',#124,.T.);
#76=FACE_OUTER_BOUND('',#125,.T.);
#77=FACE_OUTER_BOUND('',#126,.T.);
#78=FACE_OUTER_BOUND('',#127,.T.);
#79=FACE_OUTER_BOUND('',#128,.T.);
#80=FACE_OUTER_BOUND('',#130,.T.);
#81=FACE_OUTER_BOUND('',#131,.T.);
#82=FACE_OUTER_BOUND('',#132,.T.);
#83=FACE_OUTER_BOUND('',#134,.T.);
#84=FACE_OUTER_BOUND('',#135,.T.);
#85=FACE_OUTER_BOUND('',#137,.T.);
#86=FACE_OUTER_BOUND('',#138,.T.);
#87=FACE_OUTER_BOUND('',#139,.T.);
#88=FACE_OUTER_BOUND('',#140,.T.);
#89=FACE_OUTER_BOUND('',#141,.T.);
#90=FACE_OUTER_BOUND('',#142,.T.);
#91=FACE_OUTER_BOUND('',#143,.T.);
#92=FACE_OUTER_BOUND('',#144,.T.);
#93=FACE_OUTER_BOUND('',#145,.T.);
#94=FACE_OUTER_BOUND('',#146,.T.);
#95=FACE_OUTER_BOUND('',#147,.T.);
#96=FACE_OUTER_BOUND('',#148,.T.);
#97=FACE_OUTER_BOUND('',#149,.T.);
#98=FACE_OUTER_BOUND('',#150,.T.);
#99=FACE_OUTER_BOUND('',#151,.T.);
#100=FACE_OUTER_BOUND('',#152,.T.);
#101=FACE_OUTER_BOUND('',#154,.T.);
#102=FACE_OUTER_BOUND('',#155,.T.);
#103=FACE_OUTER_BOUND('',#156,.T.);
#104=FACE_OUTER_BOUND('',#157,.T.);
#105=FACE_OUTER_BOUND('',#158,.T.);
#106=FACE_OUTER_BOUND('',#159,.T.);
#107=FACE_OUTER_BOUND('',#160,.T.);
#108=FACE_OUTER_BOUND('',#161,.T.);
#109=FACE_OUTER_BOUND('',#162,.T.);
#110=EDGE_LOOP('',(#626,#627,#628,#629));
#111=EDGE_LOOP('',(#630,#631,#632,#633,#634));
#112=EDGE_LOOP('',(#635,#636,#637,#638,#639,#640,#641,#642));
#113=EDGE_LOOP('',(#643,#644,#645,#646,#647,#648));
#114=EDGE_LOOP('',(#649,#650,#651,#652));
#115=EDGE_LOOP('',(#653,#654,#655,#656,#657,#658));
#116=EDGE_LOOP('',(#659,#660,#661,#662));
#117=EDGE_LOOP('',(#663,#664,#665,#666));
#118=EDGE_LOOP('',(#667,#668,#669,#670));
#119=EDGE_LOOP('',(#671,#672,#673,#674,#675,#676,#677,#678,#679,#680,#681,
#682,#683,#684,#685,#686,#687,#688,#689,#690,#691,#692,#693,#694));
#120=EDGE_LOOP('',(#695,#696,#697,#698));
#121=EDGE_LOOP('',(#699));
#122=EDGE_LOOP('',(#700));
#123=EDGE_LOOP('',(#701,#702,#703,#704,#705,#706,#707,#708,#709,#710,#711,
#712,#713,#714,#715,#716,#717,#718,#719,#720,#721,#722,#723,#724));
#124=EDGE_LOOP('',(#725,#726,#727,#728,#729,#730));
#125=EDGE_LOOP('',(#731,#732,#733,#734));
#126=EDGE_LOOP('',(#735,#736,#737,#738,#739,#740));
#127=EDGE_LOOP('',(#741,#742,#743,#744));
#128=EDGE_LOOP('',(#745,#746,#747,#748));
#129=EDGE_LOOP('',(#749));
#130=EDGE_LOOP('',(#750,#751,#752,#753));
#131=EDGE_LOOP('',(#754,#755,#756,#757,#758,#759));
#132=EDGE_LOOP('',(#760));
#133=EDGE_LOOP('',(#761));
#134=EDGE_LOOP('',(#762,#763,#764,#765));
#135=EDGE_LOOP('',(#766,#767,#768,#769));
#136=EDGE_LOOP('',(#770));
#137=EDGE_LOOP('',(#771,#772,#773,#774));
#138=EDGE_LOOP('',(#775,#776,#777,#778,#779));
#139=EDGE_LOOP('',(#780,#781,#782,#783,#784,#785,#786,#787));
#140=EDGE_LOOP('',(#788,#789,#790,#791));
#141=EDGE_LOOP('',(#792,#793,#794,#795));
#142=EDGE_LOOP('',(#796,#797,#798,#799,#800,#801));
#143=EDGE_LOOP('',(#802,#803,#804,#805));
#144=EDGE_LOOP('',(#806,#807,#808,#809,#810,#811));
#145=EDGE_LOOP('',(#812,#813,#814,#815));
#146=EDGE_LOOP('',(#816,#817,#818,#819,#820,#821));
#147=EDGE_LOOP('',(#822,#823,#824,#825));
#148=EDGE_LOOP('',(#826,#827,#828,#829,#830,#831));
#149=EDGE_LOOP('',(#832,#833,#834,#835));
#150=EDGE_LOOP('',(#836,#837,#838,#839,#840,#841));
#151=EDGE_LOOP('',(#842,#843,#844,#845));
#152=EDGE_LOOP('',(#846));
#153=EDGE_LOOP('',(#847));
#154=EDGE_LOOP('',(#848,#849,#850,#851));
#155=EDGE_LOOP('',(#852,#853,#854,#855));
#156=EDGE_LOOP('',(#856,#857,#858,#859));
#157=EDGE_LOOP('',(#860,#861,#862,#863));
#158=EDGE_LOOP('',(#864,#865,#866,#867));
#159=EDGE_LOOP('',(#868,#869,#870,#871));
#160=EDGE_LOOP('',(#872,#873,#874,#875));
#161=EDGE_LOOP('',(#876,#877,#878,#879));
#162=EDGE_LOOP('',(#880,#881,#882,#883));
#163=LINE('',#1248,#282);
#164=LINE('',#1251,#283);
#165=LINE('',#1254,#284);
#166=LINE('',#1256,#285);
#167=LINE('',#1258,#286);
#168=LINE('',#1259,#287);
#169=LINE('',#1262,#288);
#170=LINE('',#1264,#289);
#171=LINE('',#1266,#290);
#172=LINE('',#1268,#291);
#173=LINE('',#1270,#292);
#174=LINE('',#1271,#293);
#175=LINE('',#1275,#294);
#176=LINE('',#1277,#295);
#177=LINE('',#1279,#296);
#178=LINE('',#1281,#297);
#179=LINE('',#1283,#298);
#180=LINE('',#1284,#299);
#181=LINE('',#1287,#300);
#182=LINE('',#1289,#301);
#183=LINE('',#1290,#302);
#184=LINE('',#1294,#303);
#185=LINE('',#1296,#304);
#186=LINE('',#1298,#305);
#187=LINE('',#1299,#306);
#188=LINE('',#1300,#307);
#189=LINE('',#1302,#308);
#190=LINE('',#1303,#309);
#191=LINE('',#1307,#310);
#192=LINE('',#1309,#311);
#193=LINE('',#1310,#312);
#194=LINE('',#1313,#313);
#195=LINE('',#1315,#314);
#196=LINE('',#1317,#315);
#197=LINE('',#1319,#316);
#198=LINE('',#1321,#317);
#199=LINE('',#1323,#318);
#200=LINE('',#1325,#319);
#201=LINE('',#1327,#320);
#202=LINE('',#1329,#321);
#203=LINE('',#1331,#322);
#204=LINE('',#1333,#323);
#205=LINE('',#1335,#324);
#206=LINE('',#1337,#325);
#207=LINE('',#1338,#326);
#208=LINE('',#1340,#327);
#209=LINE('',#1342,#328);
#210=LINE('',#1344,#329);
#211=LINE('',#1345,#330);
#212=LINE('',#1348,#331);
#213=LINE('',#1349,#332);
#214=LINE('',#1356,#333);
#215=LINE('',#1358,#334);
#216=LINE('',#1360,#335);
#217=LINE('',#1362,#336);
#218=LINE('',#1364,#337);
#219=LINE('',#1366,#338);
#220=LINE('',#1368,#339);
#221=LINE('',#1370,#340);
#222=LINE('',#1372,#341);
#223=LINE('',#1374,#342);
#224=LINE('',#1376,#343);
#225=LINE('',#1378,#344);
#226=LINE('',#1380,#345);
#227=LINE('',#1381,#346);
#228=LINE('',#1383,#347);
#229=LINE('',#1385,#348);
#230=LINE('',#1387,#349);
#231=LINE('',#1389,#350);
#232=LINE('',#1390,#351);
#233=LINE('',#1392,#352);
#234=LINE('',#1394,#353);
#235=LINE('',#1396,#354);
#236=LINE('',#1397,#355);
#237=LINE('',#1401,#356);
#238=LINE('',#1403,#357);
#239=LINE('',#1404,#358);
#240=LINE('',#1407,#359);
#241=LINE('',#1408,#360);
#242=LINE('',#1411,#361);
#243=LINE('',#1412,#362);
#244=LINE('',#1416,#363);
#245=LINE('',#1420,#364);
#246=LINE('',#1421,#365);
#247=LINE('',#1422,#366);
#248=LINE('',#1423,#367);
#249=LINE('',#1430,#368);
#250=LINE('',#1432,#369);
#251=LINE('',#1433,#370);
#252=LINE('',#1437,#371);
#253=LINE('',#1439,#372);
#254=LINE('',#1444,#373);
#255=LINE('',#1447,#374);
#256=LINE('',#1448,#375);
#257=LINE('',#1450,#376);
#258=LINE('',#1452,#377);
#259=LINE('',#1453,#378);
#260=LINE('',#1455,#379);
#261=LINE('',#1458,#380);
#262=LINE('',#1460,#381);
#263=LINE('',#1461,#382);
#264=LINE('',#1464,#383);
#265=LINE('',#1466,#384);
#266=LINE('',#1467,#385);
#267=LINE('',#1469,#386);
#268=LINE('',#1470,#387);
#269=LINE('',#1471,#388);
#270=LINE('',#1473,#389);
#271=LINE('',#1476,#390);
#272=LINE('',#1478,#391);
#273=LINE('',#1479,#392);
#274=LINE('',#1482,#393);
#275=LINE('',#1484,#394);
#276=LINE('',#1485,#395);
#277=LINE('',#1487,#396);
#278=LINE('',#1488,#397);
#279=LINE('',#1489,#398);
#280=LINE('',#1495,#399);
#281=LINE('',#1500,#400);
#282=VECTOR('',#1013,10.);
#283=VECTOR('',#1016,10.);
#284=VECTOR('',#1019,10.);
#285=VECTOR('',#1020,10.);
#286=VECTOR('',#1021,10.);
#287=VECTOR('',#1022,10.);
#288=VECTOR('',#1025,10.);
#289=VECTOR('',#1026,10.);
#290=VECTOR('',#1027,10.);
#291=VECTOR('',#1028,10.);
#292=VECTOR('',#1029,10.);
#293=VECTOR('',#1030,10.);
#294=VECTOR('',#1033,10.);
#295=VECTOR('',#1034,10.);
#296=VECTOR('',#1035,10.);
#297=VECTOR('',#1036,10.);
#298=VECTOR('',#1037,10.);
#299=VECTOR('',#1038,10.);
#300=VECTOR('',#1041,10.);
#301=VECTOR('',#1042,10.);
#302=VECTOR('',#1043,10.);
#303=VECTOR('',#1046,10.);
#304=VECTOR('',#1047,10.);
#305=VECTOR('',#1048,10.);
#306=VECTOR('',#1049,10.);
#307=VECTOR('',#1050,10.);
#308=VECTOR('',#1053,10.);
#309=VECTOR('',#1054,10.);
#310=VECTOR('',#1059,10.);
#311=VECTOR('',#1060,10.);
#312=VECTOR('',#1061,10.);
#313=VECTOR('',#1064,10.);
#314=VECTOR('',#1065,10.);
#315=VECTOR('',#1066,10.);
#316=VECTOR('',#1067,10.);
#317=VECTOR('',#1068,10.);
#318=VECTOR('',#1069,10.);
#319=VECTOR('',#1070,10.);
#320=VECTOR('',#1071,10.);
#321=VECTOR('',#1072,10.);
#322=VECTOR('',#1073,10.);
#323=VECTOR('',#1074,10.);
#324=VECTOR('',#1075,10.);
#325=VECTOR('',#1076,10.);
#326=VECTOR('',#1077,10.);
#327=VECTOR('',#1078,10.);
#328=VECTOR('',#1079,10.);
#329=VECTOR('',#1080,10.);
#330=VECTOR('',#1081,10.);
#331=VECTOR('',#1084,10.);
#332=VECTOR('',#1085,10.);
#333=VECTOR('',#1092,10.);
#334=VECTOR('',#1093,10.);
#335=VECTOR('',#1094,10.);
#336=VECTOR('',#1095,10.);
#337=VECTOR('',#1096,10.);
#338=VECTOR('',#1097,10.);
#339=VECTOR('',#1098,10.);
#340=VECTOR('',#1099,10.);
#341=VECTOR('',#1100,10.);
#342=VECTOR('',#1101,10.);
#343=VECTOR('',#1102,10.);
#344=VECTOR('',#1103,10.);
#345=VECTOR('',#1104,10.);
#346=VECTOR('',#1105,10.);
#347=VECTOR('',#1106,10.);
#348=VECTOR('',#1107,10.);
#349=VECTOR('',#1108,10.);
#350=VECTOR('',#1109,10.);
#351=VECTOR('',#1110,10.);
#352=VECTOR('',#1113,10.);
#353=VECTOR('',#1114,10.);
#354=VECTOR('',#1115,10.);
#355=VECTOR('',#1116,10.);
#356=VECTOR('',#1121,10.);
#357=VECTOR('',#1122,10.);
#358=VECTOR('',#1123,10.);
#359=VECTOR('',#1126,10.);
#360=VECTOR('',#1127,10.);
#361=VECTOR('',#1130,10.);
#362=VECTOR('',#1131,10.);
#363=VECTOR('',#1136,10.);
#364=VECTOR('',#1139,10.);
#365=VECTOR('',#1140,10.);
#366=VECTOR('',#1141,10.);
#367=VECTOR('',#1142,10.);
#368=VECTOR('',#1151,1.5);
#369=VECTOR('',#1154,10.);
#370=VECTOR('',#1155,10.);
#371=VECTOR('',#1160,2.80000000000001);
#372=VECTOR('',#1163,10.);
#373=VECTOR('',#1170,1.64999999999999);
#374=VECTOR('',#1173,10.);
#375=VECTOR('',#1174,10.);
#376=VECTOR('',#1177,10.);
#377=VECTOR('',#1178,10.);
#378=VECTOR('',#1179,10.);
#379=VECTOR('',#1182,10.);
#380=VECTOR('',#1185,10.);
#381=VECTOR('',#1186,10.);
#382=VECTOR('',#1187,10.);
#383=VECTOR('',#1190,10.);
#384=VECTOR('',#1191,10.);
#385=VECTOR('',#1192,10.);
#386=VECTOR('',#1195,10.);
#387=VECTOR('',#1196,10.);
#388=VECTOR('',#1197,10.);
#389=VECTOR('',#1200,10.);
#390=VECTOR('',#1203,10.);
#391=VECTOR('',#1204,10.);
#392=VECTOR('',#1205,10.);
#393=VECTOR('',#1208,10.);
#394=VECTOR('',#1209,10.);
#395=VECTOR('',#1210,10.);
#396=VECTOR('',#1213,10.);
#397=VECTOR('',#1214,10.);
#398=VECTOR('',#1215,10.);
#399=VECTOR('',#1224,2.79999999999998);
#400=VECTOR('',#1233,10.);
#401=CIRCLE('',#951,3.);
#402=CIRCLE('',#952,3.);
#403=CIRCLE('',#963,1.64999999999999);
#404=CIRCLE('',#964,1.5);
#405=CIRCLE('',#971,2.79999999999998);
#406=CIRCLE('',#975,2.80000000000001);
#407=CIRCLE('',#976,1.5);
#408=CIRCLE('',#979,2.80000000000001);
#409=CIRCLE('',#984,1.64999999999999);
#410=CIRCLE('',#997,2.79999999999998);
#411=VERTEX_POINT('',#1244);
#412=VERTEX_POINT('',#1245);
#413=VERTEX_POINT('',#1247);
#414=VERTEX_POINT('',#1249);
#415=VERTEX_POINT('',#1253);
#416=VERTEX_POINT('',#1255);
#417=VERTEX_POINT('',#1257);
#418=VERTEX_POINT('',#1261);
#419=VERTEX_POINT('',#1263);
#420=VERTEX_POINT('',#1265);
#421=VERTEX_POINT('',#1267);
#422=VERTEX_POINT('',#1269);
#423=VERTEX_POINT('',#1273);
#424=VERTEX_POINT('',#1274);
#425=VERTEX_POINT('',#1276);
#426=VERTEX_POINT('',#1278);
#427=VERTEX_POINT('',#1280);
#428=VERTEX_POINT('',#1282);
#429=VERTEX_POINT('',#1286);
#430=VERTEX_POINT('',#1288);
#431=VERTEX_POINT('',#1292);
#432=VERTEX_POINT('',#1293);
#433=VERTEX_POINT('',#1295);
#434=VERTEX_POINT('',#1297);
#435=VERTEX_POINT('',#1306);
#436=VERTEX_POINT('',#1308);
#437=VERTEX_POINT('',#1312);
#438=VERTEX_POINT('',#1314);
#439=VERTEX_POINT('',#1316);
#440=VERTEX_POINT('',#1318);
#441=VERTEX_POINT('',#1320);
#442=VERTEX_POINT('',#1322);
#443=VERTEX_POINT('',#1324);
#444=VERTEX_POINT('',#1326);
#445=VERTEX_POINT('',#1328);
#446=VERTEX_POINT('',#1330);
#447=VERTEX_POINT('',#1332);
#448=VERTEX_POINT('',#1334);
#449=VERTEX_POINT('',#1336);
#450=VERTEX_POINT('',#1339);
#451=VERTEX_POINT('',#1341);
#452=VERTEX_POINT('',#1343);
#453=VERTEX_POINT('',#1347);
#454=VERTEX_POINT('',#1350);
#455=VERTEX_POINT('',#1352);
#456=VERTEX_POINT('',#1355);
#457=VERTEX_POINT('',#1357);
#458=VERTEX_POINT('',#1359);
#459=VERTEX_POINT('',#1361);
#460=VERTEX_POINT('',#1363);
#461=VERTEX_POINT('',#1365);
#462=VERTEX_POINT('',#1367);
#463=VERTEX_POINT('',#1369);
#464=VERTEX_POINT('',#1371);
#465=VERTEX_POINT('',#1373);
#466=VERTEX_POINT('',#1375);
#467=VERTEX_POINT('',#1377);
#468=VERTEX_POINT('',#1379);
#469=VERTEX_POINT('',#1382);
#470=VERTEX_POINT('',#1384);
#471=VERTEX_POINT('',#1386);
#472=VERTEX_POINT('',#1388);
#473=VERTEX_POINT('',#1393);
#474=VERTEX_POINT('',#1395);
#475=VERTEX_POINT('',#1400);
#476=VERTEX_POINT('',#1402);
#477=VERTEX_POINT('',#1406);
#478=VERTEX_POINT('',#1410);
#479=VERTEX_POINT('',#1413);
#480=VERTEX_POINT('',#1418);
#481=VERTEX_POINT('',#1419);
#482=VERTEX_POINT('',#1425);
#483=VERTEX_POINT('',#1427);
#484=VERTEX_POINT('',#1434);
#485=VERTEX_POINT('',#1442);
#486=VERTEX_POINT('',#1446);
#487=VERTEX_POINT('',#1451);
#488=VERTEX_POINT('',#1457);
#489=VERTEX_POINT('',#1459);
#490=VERTEX_POINT('',#1463);
#491=VERTEX_POINT('',#1465);
#492=VERTEX_POINT('',#1475);
#493=VERTEX_POINT('',#1477);
#494=VERTEX_POINT('',#1481);
#495=VERTEX_POINT('',#1483);
#496=VERTEX_POINT('',#1492);
#497=EDGE_CURVE('',#411,#412,#401,.T.);
#498=EDGE_CURVE('',#412,#413,#163,.T.);
#499=EDGE_CURVE('',#413,#414,#402,.T.);
#500=EDGE_CURVE('',#414,#411,#164,.T.);
#501=EDGE_CURVE('',#411,#415,#165,.T.);
#502=EDGE_CURVE('',#415,#416,#166,.T.);
#503=EDGE_CURVE('',#416,#417,#167,.T.);
#504=EDGE_CURVE('',#417,#412,#168,.T.);
#505=EDGE_CURVE('',#418,#414,#169,.T.);
#506=EDGE_CURVE('',#419,#418,#170,.T.);
#507=EDGE_CURVE('',#420,#419,#171,.T.);
#508=EDGE_CURVE('',#420,#421,#172,.F.);
#509=EDGE_CURVE('',#422,#421,#173,.T.);
#510=EDGE_CURVE('',#415,#422,#174,.T.);
#511=EDGE_CURVE('',#423,#424,#175,.T.);
#512=EDGE_CURVE('',#423,#425,#176,.T.);
#513=EDGE_CURVE('',#425,#426,#177,.T.);
#514=EDGE_CURVE('',#426,#427,#178,.T.);
#515=EDGE_CURVE('',#427,#428,#179,.T.);
#516=EDGE_CURVE('',#428,#424,#180,.T.);
#517=EDGE_CURVE('',#425,#429,#181,.T.);
#518=EDGE_CURVE('',#430,#429,#182,.T.);
#519=EDGE_CURVE('',#430,#426,#183,.T.);
#520=EDGE_CURVE('',#431,#432,#184,.T.);
#521=EDGE_CURVE('',#431,#433,#185,.T.);
#522=EDGE_CURVE('',#433,#434,#186,.T.);
#523=EDGE_CURVE('',#434,#430,#187,.T.);
#524=EDGE_CURVE('',#429,#432,#188,.T.);
#525=EDGE_CURVE('',#434,#427,#189,.T.);
#526=EDGE_CURVE('',#433,#428,#190,.T.);
#527=EDGE_CURVE('',#432,#435,#191,.T.);
#528=EDGE_CURVE('',#436,#435,#192,.T.);
#529=EDGE_CURVE('',#436,#431,#193,.T.);
#530=EDGE_CURVE('',#437,#422,#194,.T.);
#531=EDGE_CURVE('',#438,#437,#195,.T.);
#532=EDGE_CURVE('',#439,#438,#196,.T.);
#533=EDGE_CURVE('',#440,#439,#197,.T.);
#534=EDGE_CURVE('',#441,#440,#198,.T.);
#535=EDGE_CURVE('',#442,#441,#199,.T.);
#536=EDGE_CURVE('',#443,#442,#200,.T.);
#537=EDGE_CURVE('',#444,#443,#201,.T.);
#538=EDGE_CURVE('',#445,#444,#202,.T.);
#539=EDGE_CURVE('',#446,#445,#203,.T.);
#540=EDGE_CURVE('',#447,#446,#204,.T.);
#541=EDGE_CURVE('',#448,#447,#205,.T.);
#542=EDGE_CURVE('',#449,#448,#206,.T.);
#543=EDGE_CURVE('',#435,#449,#207,.T.);
#544=EDGE_CURVE('',#450,#423,#208,.T.);
#545=EDGE_CURVE('',#451,#450,#209,.T.);
#546=EDGE_CURVE('',#452,#451,#210,.T.);
#547=EDGE_CURVE('',#452,#416,#211,.T.);
#548=EDGE_CURVE('',#417,#453,#212,.T.);
#549=EDGE_CURVE('',#453,#413,#213,.T.);
#550=EDGE_CURVE('',#454,#454,#403,.T.);
#551=EDGE_CURVE('',#455,#455,#404,.T.);
#552=EDGE_CURVE('',#456,#436,#214,.T.);
#553=EDGE_CURVE('',#457,#456,#215,.T.);
#554=EDGE_CURVE('',#458,#457,#216,.T.);
#555=EDGE_CURVE('',#459,#458,#217,.T.);
#556=EDGE_CURVE('',#460,#459,#218,.T.);
#557=EDGE_CURVE('',#461,#460,#219,.T.);
#558=EDGE_CURVE('',#462,#461,#220,.T.);
#559=EDGE_CURVE('',#463,#462,#221,.T.);
#560=EDGE_CURVE('',#464,#463,#222,.T.);
#561=EDGE_CURVE('',#465,#464,#223,.T.);
#562=EDGE_CURVE('',#466,#465,#224,.T.);
#563=EDGE_CURVE('',#467,#466,#225,.T.);
#564=EDGE_CURVE('',#468,#467,#226,.T.);
#565=EDGE_CURVE('',#419,#468,#227,.T.);
#566=EDGE_CURVE('',#418,#469,#228,.T.);
#567=EDGE_CURVE('',#469,#470,#229,.T.);
#568=EDGE_CURVE('',#471,#470,#230,.T.);
#569=EDGE_CURVE('',#472,#471,#231,.T.);
#570=EDGE_CURVE('',#424,#472,#232,.T.);
#571=EDGE_CURVE('',#450,#472,#233,.T.);
#572=EDGE_CURVE('',#471,#473,#234,.T.);
#573=EDGE_CURVE('',#473,#474,#235,.T.);
#574=EDGE_CURVE('',#474,#451,#236,.T.);
#575=EDGE_CURVE('',#449,#475,#237,.T.);
#576=EDGE_CURVE('',#475,#476,#238,.T.);
#577=EDGE_CURVE('',#476,#456,#239,.T.);
#578=EDGE_CURVE('',#474,#477,#240,.T.);
#579=EDGE_CURVE('',#477,#452,#241,.T.);
#580=EDGE_CURVE('',#473,#478,#242,.T.);
#581=EDGE_CURVE('',#478,#477,#243,.T.);
#582=EDGE_CURVE('',#479,#479,#405,.T.);
#583=EDGE_CURVE('',#470,#478,#244,.T.);
#584=EDGE_CURVE('',#480,#481,#245,.T.);
#585=EDGE_CURVE('',#481,#468,#246,.T.);
#586=EDGE_CURVE('',#467,#438,#247,.T.);
#587=EDGE_CURVE('',#437,#480,#248,.T.);
#588=EDGE_CURVE('',#482,#482,#406,.T.);
#589=EDGE_CURVE('',#483,#483,#407,.T.);
#590=EDGE_CURVE('',#483,#455,#249,.T.);
#591=EDGE_CURVE('',#421,#480,#250,.T.);
#592=EDGE_CURVE('',#420,#481,#251,.T.);
#593=EDGE_CURVE('',#484,#484,#408,.T.);
#594=EDGE_CURVE('',#484,#482,#252,.T.);
#595=EDGE_CURVE('',#453,#469,#253,.T.);
#596=EDGE_CURVE('',#485,#485,#409,.T.);
#597=EDGE_CURVE('',#485,#454,#254,.T.);
#598=EDGE_CURVE('',#486,#448,#255,.T.);
#599=EDGE_CURVE('',#486,#475,#256,.T.);
#600=EDGE_CURVE('',#447,#458,#257,.T.);
#601=EDGE_CURVE('',#457,#487,#258,.T.);
#602=EDGE_CURVE('',#487,#486,#259,.T.);
#603=EDGE_CURVE('',#459,#446,#260,.T.);
#604=EDGE_CURVE('',#445,#488,#261,.T.);
#605=EDGE_CURVE('',#488,#489,#262,.T.);
#606=EDGE_CURVE('',#489,#460,#263,.T.);
#607=EDGE_CURVE('',#490,#488,#264,.T.);
#608=EDGE_CURVE('',#491,#490,#265,.T.);
#609=EDGE_CURVE('',#491,#489,#266,.T.);
#610=EDGE_CURVE('',#490,#444,#267,.T.);
#611=EDGE_CURVE('',#443,#462,#268,.T.);
#612=EDGE_CURVE('',#461,#491,#269,.T.);
#613=EDGE_CURVE('',#463,#442,#270,.T.);
#614=EDGE_CURVE('',#441,#492,#271,.T.);
#615=EDGE_CURVE('',#492,#493,#272,.T.);
#616=EDGE_CURVE('',#493,#464,#273,.T.);
#617=EDGE_CURVE('',#494,#492,#274,.T.);
#618=EDGE_CURVE('',#495,#494,#275,.T.);
#619=EDGE_CURVE('',#495,#493,#276,.T.);
#620=EDGE_CURVE('',#494,#440,#277,.T.);
#621=EDGE_CURVE('',#439,#466,#278,.T.);
#622=EDGE_CURVE('',#465,#495,#279,.T.);
#623=EDGE_CURVE('',#496,#496,#410,.T.);
#624=EDGE_CURVE('',#479,#496,#280,.T.);
#625=EDGE_CURVE('',#487,#476,#281,.T.);
#626=ORIENTED_EDGE('',*,*,#497,.T.);
#627=ORIENTED_EDGE('',*,*,#498,.T.);
#628=ORIENTED_EDGE('',*,*,#499,.T.);
#629=ORIENTED_EDGE('',*,*,#500,.T.);
#630=ORIENTED_EDGE('',*,*,#497,.F.);
#631=ORIENTED_EDGE('',*,*,#501,.T.);
#632=ORIENTED_EDGE('',*,*,#502,.T.);
#633=ORIENTED_EDGE('',*,*,#503,.T.);
#634=ORIENTED_EDGE('',*,*,#504,.T.);
#635=ORIENTED_EDGE('',*,*,#500,.F.);
#636=ORIENTED_EDGE('',*,*,#505,.F.);
#637=ORIENTED_EDGE('',*,*,#506,.F.);
#638=ORIENTED_EDGE('',*,*,#507,.F.);
#639=ORIENTED_EDGE('',*,*,#508,.T.);
#640=ORIENTED_EDGE('',*,*,#509,.F.);
#641=ORIENTED_EDGE('',*,*,#510,.F.);
#642=ORIENTED_EDGE('',*,*,#501,.F.);
#643=ORIENTED_EDGE('',*,*,#511,.F.);
#644=ORIENTED_EDGE('',*,*,#512,.T.);
#645=ORIENTED_EDGE('',*,*,#513,.T.);
#646=ORIENTED_EDGE('',*,*,#514,.T.);
#647=ORIENTED_EDGE('',*,*,#515,.T.);
#648=ORIENTED_EDGE('',*,*,#516,.T.);
#649=ORIENTED_EDGE('',*,*,#513,.F.);
#650=ORIENTED_EDGE('',*,*,#517,.T.);
#651=ORIENTED_EDGE('',*,*,#518,.F.);
#652=ORIENTED_EDGE('',*,*,#519,.T.);
#653=ORIENTED_EDGE('',*,*,#520,.F.);
#654=ORIENTED_EDGE('',*,*,#521,.T.);
#655=ORIENTED_EDGE('',*,*,#522,.T.);
#656=ORIENTED_EDGE('',*,*,#523,.T.);
#657=ORIENTED_EDGE('',*,*,#518,.T.);
#658=ORIENTED_EDGE('',*,*,#524,.T.);
#659=ORIENTED_EDGE('',*,*,#515,.F.);
#660=ORIENTED_EDGE('',*,*,#525,.F.);
#661=ORIENTED_EDGE('',*,*,#522,.F.);
#662=ORIENTED_EDGE('',*,*,#526,.T.);
#663=ORIENTED_EDGE('',*,*,#514,.F.);
#664=ORIENTED_EDGE('',*,*,#519,.F.);
#665=ORIENTED_EDGE('',*,*,#523,.F.);
#666=ORIENTED_EDGE('',*,*,#525,.T.);
#667=ORIENTED_EDGE('',*,*,#520,.T.);
#668=ORIENTED_EDGE('',*,*,#527,.T.);
#669=ORIENTED_EDGE('',*,*,#528,.F.);
#670=ORIENTED_EDGE('',*,*,#529,.T.);
#671=ORIENTED_EDGE('',*,*,#502,.F.);
#672=ORIENTED_EDGE('',*,*,#510,.T.);
#673=ORIENTED_EDGE('',*,*,#530,.F.);
#674=ORIENTED_EDGE('',*,*,#531,.F.);
#675=ORIENTED_EDGE('',*,*,#532,.F.);
#676=ORIENTED_EDGE('',*,*,#533,.F.);
#677=ORIENTED_EDGE('',*,*,#534,.F.);
#678=ORIENTED_EDGE('',*,*,#535,.F.);
#679=ORIENTED_EDGE('',*,*,#536,.F.);
#680=ORIENTED_EDGE('',*,*,#537,.F.);
#681=ORIENTED_EDGE('',*,*,#538,.F.);
#682=ORIENTED_EDGE('',*,*,#539,.F.);
#683=ORIENTED_EDGE('',*,*,#540,.F.);
#684=ORIENTED_EDGE('',*,*,#541,.F.);
#685=ORIENTED_EDGE('',*,*,#542,.F.);
#686=ORIENTED_EDGE('',*,*,#543,.F.);
#687=ORIENTED_EDGE('',*,*,#527,.F.);
#688=ORIENTED_EDGE('',*,*,#524,.F.);
#689=ORIENTED_EDGE('',*,*,#517,.F.);
#690=ORIENTED_EDGE('',*,*,#512,.F.);
#691=ORIENTED_EDGE('',*,*,#544,.F.);
#692=ORIENTED_EDGE('',*,*,#545,.F.);
#693=ORIENTED_EDGE('',*,*,#546,.F.);
#694=ORIENTED_EDGE('',*,*,#547,.T.);
#695=ORIENTED_EDGE('',*,*,#498,.F.);
#696=ORIENTED_EDGE('',*,*,#504,.F.);
#697=ORIENTED_EDGE('',*,*,#548,.T.);
#698=ORIENTED_EDGE('',*,*,#549,.T.);
#699=ORIENTED_EDGE('',*,*,#550,.T.);
#700=ORIENTED_EDGE('',*,*,#551,.T.);
#701=ORIENTED_EDGE('',*,*,#552,.F.);
#702=ORIENTED_EDGE('',*,*,#553,.F.);
#703=ORIENTED_EDGE('',*,*,#554,.F.);
#704=ORIENTED_EDGE('',*,*,#555,.F.);
#705=ORIENTED_EDGE('',*,*,#556,.F.);
#706=ORIENTED_EDGE('',*,*,#557,.F.);
#707=ORIENTED_EDGE('',*,*,#558,.F.);
#708=ORIENTED_EDGE('',*,*,#559,.F.);
#709=ORIENTED_EDGE('',*,*,#560,.F.);
#710=ORIENTED_EDGE('',*,*,#561,.F.);
#711=ORIENTED_EDGE('',*,*,#562,.F.);
#712=ORIENTED_EDGE('',*,*,#563,.F.);
#713=ORIENTED_EDGE('',*,*,#564,.F.);
#714=ORIENTED_EDGE('',*,*,#565,.F.);
#715=ORIENTED_EDGE('',*,*,#506,.T.);
#716=ORIENTED_EDGE('',*,*,#566,.T.);
#717=ORIENTED_EDGE('',*,*,#567,.T.);
#718=ORIENTED_EDGE('',*,*,#568,.F.);
#719=ORIENTED_EDGE('',*,*,#569,.F.);
#720=ORIENTED_EDGE('',*,*,#570,.F.);
#721=ORIENTED_EDGE('',*,*,#516,.F.);
#722=ORIENTED_EDGE('',*,*,#526,.F.);
#723=ORIENTED_EDGE('',*,*,#521,.F.);
#724=ORIENTED_EDGE('',*,*,#529,.F.);
#725=ORIENTED_EDGE('',*,*,#571,.T.);
#726=ORIENTED_EDGE('',*,*,#569,.T.);
#727=ORIENTED_EDGE('',*,*,#572,.T.);
#728=ORIENTED_EDGE('',*,*,#573,.T.);
#729=ORIENTED_EDGE('',*,*,#574,.T.);
#730=ORIENTED_EDGE('',*,*,#545,.T.);
#731=ORIENTED_EDGE('',*,*,#511,.T.);
#732=ORIENTED_EDGE('',*,*,#570,.T.);
#733=ORIENTED_EDGE('',*,*,#571,.F.);
#734=ORIENTED_EDGE('',*,*,#544,.T.);
#735=ORIENTED_EDGE('',*,*,#528,.T.);
#736=ORIENTED_EDGE('',*,*,#543,.T.);
#737=ORIENTED_EDGE('',*,*,#575,.T.);
#738=ORIENTED_EDGE('',*,*,#576,.T.);
#739=ORIENTED_EDGE('',*,*,#577,.T.);
#740=ORIENTED_EDGE('',*,*,#552,.T.);
#741=ORIENTED_EDGE('',*,*,#574,.F.);
#742=ORIENTED_EDGE('',*,*,#578,.T.);
#743=ORIENTED_EDGE('',*,*,#579,.T.);
#744=ORIENTED_EDGE('',*,*,#546,.T.);
#745=ORIENTED_EDGE('',*,*,#573,.F.);
#746=ORIENTED_EDGE('',*,*,#580,.T.);
#747=ORIENTED_EDGE('',*,*,#581,.T.);
#748=ORIENTED_EDGE('',*,*,#578,.F.);
#749=ORIENTED_EDGE('',*,*,#582,.T.);
#750=ORIENTED_EDGE('',*,*,#572,.F.);
#751=ORIENTED_EDGE('',*,*,#568,.T.);
#752=ORIENTED_EDGE('',*,*,#583,.T.);
#753=ORIENTED_EDGE('',*,*,#580,.F.);
#754=ORIENTED_EDGE('',*,*,#584,.T.);
#755=ORIENTED_EDGE('',*,*,#585,.T.);
#756=ORIENTED_EDGE('',*,*,#564,.T.);
#757=ORIENTED_EDGE('',*,*,#586,.T.);
#758=ORIENTED_EDGE('',*,*,#531,.T.);
#759=ORIENTED_EDGE('',*,*,#587,.T.);
#760=ORIENTED_EDGE('',*,*,#588,.F.);
#761=ORIENTED_EDGE('',*,*,#589,.T.);
#762=ORIENTED_EDGE('',*,*,#589,.F.);
#763=ORIENTED_EDGE('',*,*,#590,.T.);
#764=ORIENTED_EDGE('',*,*,#551,.F.);
#765=ORIENTED_EDGE('',*,*,#590,.F.);
#766=ORIENTED_EDGE('',*,*,#584,.F.);
#767=ORIENTED_EDGE('',*,*,#591,.F.);
#768=ORIENTED_EDGE('',*,*,#508,.F.);
#769=ORIENTED_EDGE('',*,*,#592,.T.);
#770=ORIENTED_EDGE('',*,*,#593,.T.);
#771=ORIENTED_EDGE('',*,*,#593,.F.);
#772=ORIENTED_EDGE('',*,*,#594,.T.);
#773=ORIENTED_EDGE('',*,*,#588,.T.);
#774=ORIENTED_EDGE('',*,*,#594,.F.);
#775=ORIENTED_EDGE('',*,*,#499,.F.);
#776=ORIENTED_EDGE('',*,*,#549,.F.);
#777=ORIENTED_EDGE('',*,*,#595,.T.);
#778=ORIENTED_EDGE('',*,*,#566,.F.);
#779=ORIENTED_EDGE('',*,*,#505,.T.);
#780=ORIENTED_EDGE('',*,*,#567,.F.);
#781=ORIENTED_EDGE('',*,*,#595,.F.);
#782=ORIENTED_EDGE('',*,*,#548,.F.);
#783=ORIENTED_EDGE('',*,*,#503,.F.);
#784=ORIENTED_EDGE('',*,*,#547,.F.);
#785=ORIENTED_EDGE('',*,*,#579,.F.);
#786=ORIENTED_EDGE('',*,*,#581,.F.);
#787=ORIENTED_EDGE('',*,*,#583,.F.);
#788=ORIENTED_EDGE('',*,*,#596,.F.);
#789=ORIENTED_EDGE('',*,*,#597,.T.);
#790=ORIENTED_EDGE('',*,*,#550,.F.);
#791=ORIENTED_EDGE('',*,*,#597,.F.);
#792=ORIENTED_EDGE('',*,*,#575,.F.);
#793=ORIENTED_EDGE('',*,*,#542,.T.);
#794=ORIENTED_EDGE('',*,*,#598,.F.);
#795=ORIENTED_EDGE('',*,*,#599,.T.);
#796=ORIENTED_EDGE('',*,*,#600,.T.);
#797=ORIENTED_EDGE('',*,*,#554,.T.);
#798=ORIENTED_EDGE('',*,*,#601,.T.);
#799=ORIENTED_EDGE('',*,*,#602,.T.);
#800=ORIENTED_EDGE('',*,*,#598,.T.);
#801=ORIENTED_EDGE('',*,*,#541,.T.);
#802=ORIENTED_EDGE('',*,*,#600,.F.);
#803=ORIENTED_EDGE('',*,*,#540,.T.);
#804=ORIENTED_EDGE('',*,*,#603,.F.);
#805=ORIENTED_EDGE('',*,*,#555,.T.);
#806=ORIENTED_EDGE('',*,*,#603,.T.);
#807=ORIENTED_EDGE('',*,*,#539,.T.);
#808=ORIENTED_EDGE('',*,*,#604,.T.);
#809=ORIENTED_EDGE('',*,*,#605,.T.);
#810=ORIENTED_EDGE('',*,*,#606,.T.);
#811=ORIENTED_EDGE('',*,*,#556,.T.);
#812=ORIENTED_EDGE('',*,*,#605,.F.);
#813=ORIENTED_EDGE('',*,*,#607,.F.);
#814=ORIENTED_EDGE('',*,*,#608,.F.);
#815=ORIENTED_EDGE('',*,*,#609,.T.);
#816=ORIENTED_EDGE('',*,*,#608,.T.);
#817=ORIENTED_EDGE('',*,*,#610,.T.);
#818=ORIENTED_EDGE('',*,*,#537,.T.);
#819=ORIENTED_EDGE('',*,*,#611,.T.);
#820=ORIENTED_EDGE('',*,*,#558,.T.);
#821=ORIENTED_EDGE('',*,*,#612,.T.);
#822=ORIENTED_EDGE('',*,*,#611,.F.);
#823=ORIENTED_EDGE('',*,*,#536,.T.);
#824=ORIENTED_EDGE('',*,*,#613,.F.);
#825=ORIENTED_EDGE('',*,*,#559,.T.);
#826=ORIENTED_EDGE('',*,*,#613,.T.);
#827=ORIENTED_EDGE('',*,*,#535,.T.);
#828=ORIENTED_EDGE('',*,*,#614,.T.);
#829=ORIENTED_EDGE('',*,*,#615,.T.);
#830=ORIENTED_EDGE('',*,*,#616,.T.);
#831=ORIENTED_EDGE('',*,*,#560,.T.);
#832=ORIENTED_EDGE('',*,*,#615,.F.);
#833=ORIENTED_EDGE('',*,*,#617,.F.);
#834=ORIENTED_EDGE('',*,*,#618,.F.);
#835=ORIENTED_EDGE('',*,*,#619,.T.);
#836=ORIENTED_EDGE('',*,*,#618,.T.);
#837=ORIENTED_EDGE('',*,*,#620,.T.);
#838=ORIENTED_EDGE('',*,*,#533,.T.);
#839=ORIENTED_EDGE('',*,*,#621,.T.);
#840=ORIENTED_EDGE('',*,*,#562,.T.);
#841=ORIENTED_EDGE('',*,*,#622,.T.);
#842=ORIENTED_EDGE('',*,*,#621,.F.);
#843=ORIENTED_EDGE('',*,*,#532,.T.);
#844=ORIENTED_EDGE('',*,*,#586,.F.);
#845=ORIENTED_EDGE('',*,*,#563,.T.);
#846=ORIENTED_EDGE('',*,*,#623,.F.);
#847=ORIENTED_EDGE('',*,*,#596,.T.);
#848=ORIENTED_EDGE('',*,*,#582,.F.);
#849=ORIENTED_EDGE('',*,*,#624,.T.);
#850=ORIENTED_EDGE('',*,*,#623,.T.);
#851=ORIENTED_EDGE('',*,*,#624,.F.);
#852=ORIENTED_EDGE('',*,*,#606,.F.);
#853=ORIENTED_EDGE('',*,*,#609,.F.);
#854=ORIENTED_EDGE('',*,*,#612,.F.);
#855=ORIENTED_EDGE('',*,*,#557,.T.);
#856=ORIENTED_EDGE('',*,*,#616,.F.);
#857=ORIENTED_EDGE('',*,*,#619,.F.);
#858=ORIENTED_EDGE('',*,*,#622,.F.);
#859=ORIENTED_EDGE('',*,*,#561,.T.);
#860=ORIENTED_EDGE('',*,*,#585,.F.);
#861=ORIENTED_EDGE('',*,*,#592,.F.);
#862=ORIENTED_EDGE('',*,*,#507,.T.);
#863=ORIENTED_EDGE('',*,*,#565,.T.);
#864=ORIENTED_EDGE('',*,*,#577,.F.);
#865=ORIENTED_EDGE('',*,*,#625,.F.);
#866=ORIENTED_EDGE('',*,*,#601,.F.);
#867=ORIENTED_EDGE('',*,*,#553,.T.);
#868=ORIENTED_EDGE('',*,*,#576,.F.);
#869=ORIENTED_EDGE('',*,*,#599,.F.);
#870=ORIENTED_EDGE('',*,*,#602,.F.);
#871=ORIENTED_EDGE('',*,*,#625,.T.);
#872=ORIENTED_EDGE('',*,*,#604,.F.);
#873=ORIENTED_EDGE('',*,*,#538,.T.);
#874=ORIENTED_EDGE('',*,*,#610,.F.);
#875=ORIENTED_EDGE('',*,*,#607,.T.);
#876=ORIENTED_EDGE('',*,*,#614,.F.);
#877=ORIENTED_EDGE('',*,*,#534,.T.);
#878=ORIENTED_EDGE('',*,*,#620,.F.);
#879=ORIENTED_EDGE('',*,*,#617,.T.);
#880=ORIENTED_EDGE('',*,*,#587,.F.);
#881=ORIENTED_EDGE('',*,*,#530,.T.);
#882=ORIENTED_EDGE('',*,*,#509,.T.);
#883=ORIENTED_EDGE('',*,*,#591,.T.);
#884=CYLINDRICAL_SURFACE('',#950,3.);
#885=CYLINDRICAL_SURFACE('',#977,1.5);
#886=CYLINDRICAL_SURFACE('',#980,2.80000000000001);
#887=CYLINDRICAL_SURFACE('',#983,1.64999999999999);
#888=CYLINDRICAL_SURFACE('',#998,2.79999999999998);
#889=ADVANCED_FACE('',(#63),#884,.T.);
#890=ADVANCED_FACE('',(#64),#21,.T.);
#891=ADVANCED_FACE('',(#65),#22,.F.);
#892=ADVANCED_FACE('',(#66),#23,.F.);
#893=ADVANCED_FACE('',(#67),#24,.T.);
#894=ADVANCED_FACE('',(#68),#25,.F.);
#895=ADVANCED_FACE('',(#69),#26,.T.);
#896=ADVANCED_FACE('',(#70),#27,.T.);
#897=ADVANCED_FACE('',(#71),#28,.F.);
#898=ADVANCED_FACE('',(#72),#29,.T.);
#899=ADVANCED_FACE('',(#73,#15,#16),#30,.F.);
#900=ADVANCED_FACE('',(#74),#31,.T.);
#901=ADVANCED_FACE('',(#75),#32,.F.);
#902=ADVANCED_FACE('',(#76),#33,.F.);
#903=ADVANCED_FACE('',(#77),#34,.F.);
#904=ADVANCED_FACE('',(#78),#35,.T.);
#905=ADVANCED_FACE('',(#79,#17),#36,.T.);
#906=ADVANCED_FACE('',(#80),#37,.T.);
#907=ADVANCED_FACE('',(#81),#38,.F.);
#908=ADVANCED_FACE('',(#82,#18),#39,.T.);
#909=ADVANCED_FACE('',(#83),#885,.F.);
#910=ADVANCED_FACE('',(#84,#19),#40,.T.);
#911=ADVANCED_FACE('',(#85),#886,.F.);
#912=ADVANCED_FACE('',(#86),#41,.T.);
#913=ADVANCED_FACE('',(#87),#42,.F.);
#914=ADVANCED_FACE('',(#88),#887,.F.);
#915=ADVANCED_FACE('',(#89),#43,.T.);
#916=ADVANCED_FACE('',(#90),#44,.F.);
#917=ADVANCED_FACE('',(#91),#45,.F.);
#918=ADVANCED_FACE('',(#92),#46,.F.);
#919=ADVANCED_FACE('',(#93),#47,.T.);
#920=ADVANCED_FACE('',(#94),#48,.F.);
#921=ADVANCED_FACE('',(#95),#49,.F.);
#922=ADVANCED_FACE('',(#96),#50,.F.);
#923=ADVANCED_FACE('',(#97),#51,.T.);
#924=ADVANCED_FACE('',(#98),#52,.F.);
#925=ADVANCED_FACE('',(#99),#53,.F.);
#926=ADVANCED_FACE('',(#100,#20),#54,.T.);
#927=ADVANCED_FACE('',(#101),#888,.F.);
#928=ADVANCED_FACE('',(#102),#55,.T.);
#929=ADVANCED_FACE('',(#103),#56,.T.);
#930=ADVANCED_FACE('',(#104),#57,.T.);
#931=ADVANCED_FACE('',(#105),#58,.T.);
#932=ADVANCED_FACE('',(#106),#59,.T.);
#933=ADVANCED_FACE('',(#107),#60,.T.);
#934=ADVANCED_FACE('',(#108),#61,.T.);
#935=ADVANCED_FACE('',(#109),#62,.T.);
#936=CLOSED_SHELL('',(#889,#890,#891,#892,#893,#894,#895,#896,#897,#898,
#899,#900,#901,#902,#903,#904,#905,#906,#907,#908,#909,#910,#911,#912,#913,
#914,#915,#916,#917,#918,#919,#920,#921,#922,#923,#924,#925,#926,#927,#928,
#929,#930,#931,#932,#933,#934,#935));
#937=DERIVED_UNIT_ELEMENT(#939,1.);
#938=DERIVED_UNIT_ELEMENT(#1510,-3.);
#939=(
MASS_UNIT()
NAMED_UNIT(*)
SI_UNIT(.KILO.,.GRAM.)
);
#940=DERIVED_UNIT((#937,#938));
#941=MEASURE_REPRESENTATION_ITEM('density measure',
POSITIVE_RATIO_MEASURE(7850.),#940);
#942=PROPERTY_DEFINITION_REPRESENTATION(#947,#944);
#943=PROPERTY_DEFINITION_REPRESENTATION(#948,#945);
#944=REPRESENTATION('material name',(#946),#1507);
#945=REPRESENTATION('density',(#941),#1507);
#946=DESCRIPTIVE_REPRESENTATION_ITEM('Steel','Steel');
#947=PROPERTY_DEFINITION('material property','material name',#1517);
#948=PROPERTY_DEFINITION('material property','density of part',#1517);
#949=AXIS2_PLACEMENT_3D('',#1242,#1007,#1008);
#950=AXIS2_PLACEMENT_3D('',#1243,#1009,#1010);
#951=AXIS2_PLACEMENT_3D('',#1246,#1011,#1012);
#952=AXIS2_PLACEMENT_3D('',#1250,#1014,#1015);
#953=AXIS2_PLACEMENT_3D('',#1252,#1017,#1018);
#954=AXIS2_PLACEMENT_3D('',#1260,#1023,#1024);
#955=AXIS2_PLACEMENT_3D('',#1272,#1031,#1032);
#956=AXIS2_PLACEMENT_3D('',#1285,#1039,#1040);
#957=AXIS2_PLACEMENT_3D('',#1291,#1044,#1045);
#958=AXIS2_PLACEMENT_3D('',#1301,#1051,#1052);
#959=AXIS2_PLACEMENT_3D('',#1304,#1055,#1056);
#960=AXIS2_PLACEMENT_3D('',#1305,#1057,#1058);
#961=AXIS2_PLACEMENT_3D('',#1311,#1062,#1063);
#962=AXIS2_PLACEMENT_3D('',#1346,#1082,#1083);
#963=AXIS2_PLACEMENT_3D('',#1351,#1086,#1087);
#964=AXIS2_PLACEMENT_3D('',#1353,#1088,#1089);
#965=AXIS2_PLACEMENT_3D('',#1354,#1090,#1091);
#966=AXIS2_PLACEMENT_3D('',#1391,#1111,#1112);
#967=AXIS2_PLACEMENT_3D('',#1398,#1117,#1118);
#968=AXIS2_PLACEMENT_3D('',#1399,#1119,#1120);
#969=AXIS2_PLACEMENT_3D('',#1405,#1124,#1125);
#970=AXIS2_PLACEMENT_3D('',#1409,#1128,#1129);
#971=AXIS2_PLACEMENT_3D('',#1414,#1132,#1133);
#972=AXIS2_PLACEMENT_3D('',#1415,#1134,#1135);
#973=AXIS2_PLACEMENT_3D('',#1417,#1137,#1138);
#974=AXIS2_PLACEMENT_3D('',#1424,#1143,#1144);
#975=AXIS2_PLACEMENT_3D('',#1426,#1145,#1146);
#976=AXIS2_PLACEMENT_3D('',#1428,#1147,#1148);
#977=AXIS2_PLACEMENT_3D('',#1429,#1149,#1150);
#978=AXIS2_PLACEMENT_3D('',#1431,#1152,#1153);
#979=AXIS2_PLACEMENT_3D('',#1435,#1156,#1157);
#980=AXIS2_PLACEMENT_3D('',#1436,#1158,#1159);
#981=AXIS2_PLACEMENT_3D('',#1438,#1161,#1162);
#982=AXIS2_PLACEMENT_3D('',#1440,#1164,#1165);
#983=AXIS2_PLACEMENT_3D('',#1441,#1166,#1167);
#984=AXIS2_PLACEMENT_3D('',#1443,#1168,#1169);
#985=AXIS2_PLACEMENT_3D('',#1445,#1171,#1172);
#986=AXIS2_PLACEMENT_3D('',#1449,#1175,#1176);
#987=AXIS2_PLACEMENT_3D('',#1454,#1180,#1181);
#988=AXIS2_PLACEMENT_3D('',#1456,#1183,#1184);
#989=AXIS2_PLACEMENT_3D('',#1462,#1188,#1189);
#990=AXIS2_PLACEMENT_3D('',#1468,#1193,#1194);
#991=AXIS2_PLACEMENT_3D('',#1472,#1198,#1199);
#992=AXIS2_PLACEMENT_3D('',#1474,#1201,#1202);
#993=AXIS2_PLACEMENT_3D('',#1480,#1206,#1207);
#994=AXIS2_PLACEMENT_3D('',#1486,#1211,#1212);
#995=AXIS2_PLACEMENT_3D('',#1490,#1216,#1217);
#996=AXIS2_PLACEMENT_3D('',#1491,#1218,#1219);
#997=AXIS2_PLACEMENT_3D('',#1493,#1220,#1221);
#998=AXIS2_PLACEMENT_3D('',#1494,#1222,#1223);
#999=AXIS2_PLACEMENT_3D('',#1496,#1225,#1226);
#1000=AXIS2_PLACEMENT_3D('',#1497,#1227,#1228);
#1001=AXIS2_PLACEMENT_3D('',#1498,#1229,#1230);
#1002=AXIS2_PLACEMENT_3D('',#1499,#1231,#1232);
#1003=AXIS2_PLACEMENT_3D('',#1501,#1234,#1235);
#1004=AXIS2_PLACEMENT_3D('',#1502,#1236,#1237);
#1005=AXIS2_PLACEMENT_3D('',#1503,#1238,#1239);
#1006=AXIS2_PLACEMENT_3D('',#1504,#1240,#1241);
#1007=DIRECTION('axis',(0.,0.,1.));
#1008=DIRECTION('refdir',(1.,0.,0.));
#1009=DIRECTION('center_axis',(-1.,-2.3684866401803E-8,4.83236195811116E-24));
#1010=DIRECTION('ref_axis',(9.06380602286257E-9,-0.382683434607538,-0.923879531582434));
#1011=DIRECTION('center_axis',(1.,-1.2924696314488E-25,1.13736984201755E-23));
#1012=DIRECTION('ref_axis',(-5.51453741702018E-24,-0.923879531582434,0.382683434607538));
#1013=DIRECTION('',(1.,2.3684866401803E-8,-4.83236195811116E-24));
#1014=DIRECTION('center_axis',(-1.,1.2924696314488E-25,-1.13736984201755E-23));
#1015=DIRECTION('ref_axis',(-5.51453741702018E-24,-0.923879531582434,0.382683434607538));
#1016=DIRECTION('',(-1.,-2.3684866401803E-8,7.0954211430172E-24));
#1017=DIRECTION('center_axis',(-1.,1.2924696314488E-25,-1.13736984201755E-23));
#1018=DIRECTION('ref_axis',(-1.13736984201755E-23,2.02615701848456E-15,
1.));
#1019=DIRECTION('',(-3.33030048368968E-23,-0.707106777753959,0.707106784619136));
#1020=DIRECTION('',(1.29246960460638E-25,1.,-2.02615701848456E-15));
#1021=DIRECTION('',(1.79911433199723E-23,-4.85441275418448E-9,-1.));
#1022=DIRECTION('',(-2.06795142887491E-25,-1.,2.02615701846898E-15));
#1023=DIRECTION('center_axis',(-1.67477297255127E-8,0.707106784619136,0.707106777753959));
#1024=DIRECTION('ref_axis',(-1.,-2.01487750216967E-16,-2.36848664302674E-8));
#1025=DIRECTION('',(3.33030048368968E-23,0.707106777753959,-0.707106784619136));
#1026=DIRECTION('',(-0.577350273747782,0.577350257270619,-0.577350276550476));
#1027=DIRECTION('',(0.577350266499937,0.577350274569006,-0.577350266499935));
#1028=DIRECTION('',(1.,2.66355461262557E-8,-2.95067975310037E-9));
#1029=DIRECTION('',(0.577350275616244,-0.577350256336388,0.577350275616245));
#1030=DIRECTION('',(-0.577350264631472,-0.577350275503238,0.577350267434167));
#1031=DIRECTION('center_axis',(4.26066429600395E-17,-1.,4.85441276065757E-9));
#1032=DIRECTION('ref_axis',(-1.,-4.26066429600395E-17,-1.13736983329309E-23));
#1033=DIRECTION('',(1.,4.26066429600395E-17,1.13736983357521E-23));
#1034=DIRECTION('',(-0.707106781186548,3.43258815161202E-9,0.707106781186547));
#1035=DIRECTION('',(0.707106781186547,3.43258821186692E-9,0.707106781186548));
#1036=DIRECTION('',(1.,4.26066429600395E-17,1.13736983338478E-23));
#1037=DIRECTION('',(0.70710678118655,-3.43258815161202E-9,-0.707106781186545));
#1038=DIRECTION('',(-0.707106781186548,-3.43258821186692E-9,-0.707106781186547));
#1039=DIRECTION('center_axis',(-0.707106781186548,1.40165656765086E-15,
0.707106781186547));
#1040=DIRECTION('ref_axis',(0.707106781186547,1.41553435527589E-15,0.707106781186548));
#1041=DIRECTION('',(-1.29246960460638E-25,-1.,2.02615701848456E-15));
#1042=DIRECTION('',(-0.707106781186547,-3.43258822754766E-9,-0.707106781186548));
#1043=DIRECTION('',(1.29246962001382E-25,1.,-2.02615701848456E-15));
#1044=DIRECTION('center_axis',(-4.26066429600395E-17,1.,-4.85441276065757E-9));
#1045=DIRECTION('ref_axis',(1.,4.26066429600395E-17,1.13736983329309E-23));
#1046=DIRECTION('',(-1.,-4.26066429600395E-17,-1.13736983357521E-23));
#1047=DIRECTION('',(0.707106781186549,3.43258821366987E-9,0.707106781186546));
#1048=DIRECTION('',(-0.70710678118655,3.43258815815872E-9,0.707106781186545));
#1049=DIRECTION('',(-1.,-4.26066429600395E-17,-1.1373698335242E-23));
#1050=DIRECTION('',(0.707106781186548,-3.43258814428093E-9,-0.707106781186547));
#1051=DIRECTION('center_axis',(0.707106781186545,1.4294121430837E-15,0.70710678118655));
#1052=DIRECTION('ref_axis',(0.70710678118655,-1.40165656765086E-15,-0.707106781186545));
#1053=DIRECTION('',(1.29246960460638E-25,1.,-2.02615701848456E-15));
#1054=DIRECTION('',(1.29246960460638E-25,1.,-2.02615701848456E-15));
#1055=DIRECTION('center_axis',(-1.13736984201755E-23,2.02615701848456E-15,
1.));
#1056=DIRECTION('ref_axis',(1.,-1.2924696314488E-25,1.13736984201755E-23));
#1057=DIRECTION('center_axis',(1.15805285670261E-23,-4.85441276065757E-9,
-1.));
#1058=DIRECTION('ref_axis',(-1.,1.29246962254137E-25,-1.15805285678461E-23));
#1059=DIRECTION('',(2.55302443301799E-17,-1.,4.85441276065757E-9));
#1060=DIRECTION('',(-1.,-4.26066429600395E-17,-1.13736983329309E-23));
#1061=DIRECTION('',(5.90408625701262E-18,1.,-4.85441276065757E-9));
#1062=DIRECTION('center_axis',(-0.707106781186547,-3.43258819979209E-9,
-0.707106781186548));
#1063=DIRECTION('ref_axis',(0.707106781186548,-3.43258814428093E-9,-0.707106781186547));
#1064=DIRECTION('',(-1.29246960460638E-25,-1.,2.02615701848456E-15));
#1065=DIRECTION('',(-0.707106781186548,3.43258814428093E-9,0.707106781186547));
#1066=DIRECTION('',(-4.8544107807579E-9,-1.,4.85441276065757E-9));
#1067=DIRECTION('',(0.707106781186548,-3.43258814428093E-9,-0.707106781186547));
#1068=DIRECTION('',(-1.29246960460638E-25,-1.,2.02615701848456E-15));
#1069=DIRECTION('',(-0.707106781186548,3.43258814428093E-9,0.707106781186547));
#1070=DIRECTION('',(-4.8544107807579E-9,-1.,4.85441276065757E-9));
#1071=DIRECTION('',(0.707106781186548,-3.43258814428093E-9,-0.707106781186547));
#1072=DIRECTION('',(-1.29246960460638E-25,-1.,2.02615701848456E-15));
#1073=DIRECTION('',(-0.707106781186548,3.43258814428093E-9,0.707106781186547));
#1074=DIRECTION('',(-4.8544107807579E-9,-1.,4.85441276065757E-9));
#1075=DIRECTION('',(0.707106781186548,-3.43258814428093E-9,-0.707106781186547));
#1076=DIRECTION('',(-1.29246960460638E-25,-1.,2.02615701848456E-15));
#1077=DIRECTION('',(-0.707106781186548,3.43258815161202E-9,0.707106781186547));
#1078=DIRECTION('',(2.55302443301799E-17,-1.,4.85441276065757E-9));
#1079=DIRECTION('',(0.707106781186548,-3.43258815161202E-9,-0.707106781186547));
#1080=DIRECTION('',(-1.29246960460638E-25,-1.,2.02615701848456E-15));
#1081=DIRECTION('',(0.707106781186548,-3.43258811598934E-9,-0.707106781186547));
#1082=DIRECTION('center_axis',(-1.48892510178656E-23,8.32667266996933E-16,
1.));
#1083=DIRECTION('ref_axis',(1.,-8.47239761331234E-22,1.48892510181545E-23));
#1084=DIRECTION('',(1.,8.65116416552223E-17,2.15066958462544E-23));
#1085=DIRECTION('',(-2.06795142887491E-25,-1.,2.02615701846898E-15));
#1086=DIRECTION('center_axis',(-2.6469779593608E-23,8.32667267018388E-16,
1.));
#1087=DIRECTION('ref_axis',(1.85225570992231E-10,1.,-3.29169171893396E-15));
#1088=DIRECTION('center_axis',(-1.48892510178656E-23,8.32667266996933E-16,
1.));
#1089=DIRECTION('ref_axis',(-0.199377158979247,-0.979922827817254,2.80637033027233E-15));
#1090=DIRECTION('center_axis',(0.707106781186547,-3.4325881859143E-9,-0.707106781186548));
#1091=DIRECTION('ref_axis',(0.707106781186549,3.43258821366987E-9,0.707106781186546));
#1092=DIRECTION('',(-0.707106781186548,-3.43258821186692E-9,-0.707106781186547));
#1093=DIRECTION('',(1.29246960460638E-25,1.,-2.02615701848456E-15));
#1094=DIRECTION('',(0.707106781186549,3.43258821366987E-9,0.707106781186546));
#1095=DIRECTION('',(-4.85441078075791E-9,1.,-4.85441276065757E-9));
#1096=DIRECTION('',(-0.707106781186549,-3.43258821366987E-9,-0.707106781186546));
#1097=DIRECTION('',(1.29246960460638E-25,1.,-2.02615701848456E-15));
#1098=DIRECTION('',(0.707106781186549,3.43258821366987E-9,0.707106781186546));
#1099=DIRECTION('',(-4.85441078075791E-9,1.,-4.85441276065757E-9));
#1100=DIRECTION('',(-0.707106781186549,-3.43258821366987E-9,-0.707106781186546));
#1101=DIRECTION('',(1.29246960460638E-25,1.,-2.02615701848456E-15));
#1102=DIRECTION('',(0.707106781186549,3.43258821366987E-9,0.707106781186546));
#1103=DIRECTION('',(-4.85441078075791E-9,1.,-4.85441276065757E-9));
#1104=DIRECTION('',(-0.707106781186549,-3.43258821366987E-9,-0.707106781186546));
#1105=DIRECTION('',(1.29246960460638E-25,1.,-2.02615701848456E-15));
#1106=DIRECTION('',(1.29246960460638E-25,1.,-2.02615701848456E-15));
#1107=DIRECTION('',(0.707106781186548,3.43258823833527E-9,0.707106781186547));
#1108=DIRECTION('',(1.29246960460638E-25,1.,-2.02615701848456E-15));
#1109=DIRECTION('',(0.707106781186548,3.43258821186692E-9,0.707106781186547));
#1110=DIRECTION('',(5.90408625701262E-18,1.,-4.85441276065757E-9));
#1111=DIRECTION('center_axis',(-4.26066429600395E-17,1.,-4.85441276065757E-9));
#1112=DIRECTION('ref_axis',(1.,4.26066429600396E-17,1.4682420783143E-23));
#1113=DIRECTION('',(1.,4.26066429600396E-17,1.4682420783143E-23));
#1114=DIRECTION('',(-0.70710678118655,3.43258815161202E-9,0.707106781186545));
#1115=DIRECTION('',(-1.,-4.26066429600396E-17,-1.46824207840599E-23));
#1116=DIRECTION('',(-0.707106781186547,-3.43258821186692E-9,-0.707106781186548));
#1117=DIRECTION('center_axis',(1.15805285670261E-23,-4.85441276065757E-9,
-1.));
#1118=DIRECTION('ref_axis',(-1.,1.29246962254137E-25,-1.15805285678461E-23));
#1119=DIRECTION('center_axis',(4.26066429600395E-17,-1.,4.85441276065757E-9));
#1120=DIRECTION('ref_axis',(-1.,-4.26066429600395E-17,-1.13736983329309E-23));
#1121=DIRECTION('',(0.707106781186547,3.43258821186692E-9,0.707106781186548));
#1122=DIRECTION('',(1.,4.26066429600395E-17,1.13736983338478E-23));
#1123=DIRECTION('',(0.70710678118655,-3.43258815161202E-9,-0.707106781186545));
#1124=DIRECTION('center_axis',(-0.707106781186548,1.40165656765086E-15,
0.707106781186547));
#1125=DIRECTION('ref_axis',(0.707106781186547,1.41553435527589E-15,0.707106781186548));
#1126=DIRECTION('',(1.29246962001382E-25,1.,-2.02615701848456E-15));
#1127=DIRECTION('',(-0.707106781186547,-3.43258823833528E-9,-0.707106781186548));
#1128=DIRECTION('center_axis',(-1.13736984201755E-23,2.02615701848456E-15,
1.));
#1129=DIRECTION('ref_axis',(1.,-1.2924696314488E-25,1.13736984201755E-23));
#1130=DIRECTION('',(1.29246960460638E-25,1.,-2.02615701848456E-15));
#1131=DIRECTION('',(-1.,-8.65116416552222E-17,-1.79911431453136E-23));
#1132=DIRECTION('center_axis',(2.29542269959179E-23,-2.02615701850601E-15,
-1.));
#1133=DIRECTION('ref_axis',(1.85225570992231E-10,1.,-7.92911261279047E-15));
#1134=DIRECTION('center_axis',(0.707106781186545,1.4294121430837E-15,0.70710678118655));
#1135=DIRECTION('ref_axis',(0.70710678118655,-1.40165656765086E-15,-0.707106781186545));
#1136=DIRECTION('',(-0.70710678118655,3.43258811598933E-9,0.707106781186545));
#1137=DIRECTION('center_axis',(4.26066429600395E-17,-1.,4.85441276065757E-9));
#1138=DIRECTION('ref_axis',(-1.,-4.26066429600395E-17,-1.13736983329309E-23));
#1139=DIRECTION('',(1.,4.26066429600395E-17,1.1373698335242E-23));
#1140=DIRECTION('',(0.70710678118655,-3.43258815815872E-9,-0.707106781186545));
#1141=DIRECTION('',(-1.,-4.26066429600395E-17,-1.13736983329309E-23));
#1142=DIRECTION('',(0.707106781186547,3.43258822754766E-9,0.707106781186548));
#1143=DIRECTION('center_axis',(2.95067976909103E-9,-6.00349217830602E-10,
1.));
#1144=DIRECTION('ref_axis',(-0.199377169472659,-0.979922825682242,2.27844892158723E-15));
#1145=DIRECTION('center_axis',(-2.95067976909103E-9,6.00349217830602E-10,
-1.));
#1146=DIRECTION('ref_axis',(-0.199377169472659,-0.979922825682242,2.27844892164631E-15));
#1147=DIRECTION('center_axis',(-2.95067976909103E-9,6.00349217830602E-10,
-1.));
#1148=DIRECTION('ref_axis',(-0.979922827817254,0.199377158979247,3.01113438475732E-9));
#1149=DIRECTION('center_axis',(-2.0083395032244E-16,-2.82300662011496E-15,
-1.));
#1150=DIRECTION('ref_axis',(-0.199377158979247,-0.979922827817254,2.80637033027233E-15));
#1151=DIRECTION('',(-2.0083395032244E-16,-2.82300662011496E-15,-1.));
#1152=DIRECTION('center_axis',(2.950679769091E-9,-6.00349217830593E-10,
1.));
#1153=DIRECTION('ref_axis',(-0.199377169472659,-0.979922825682243,2.27844892160384E-15));
#1154=DIRECTION('',(1.29246962001382E-25,1.,-2.02615701848456E-15));
#1155=DIRECTION('',(1.29246960460638E-25,1.,-2.02615701848456E-15));
#1156=DIRECTION('center_axis',(1.13736984201755E-23,-2.02615701848456E-15,
-1.));
#1157=DIRECTION('ref_axis',(-0.199377169472659,-0.979922825682242,1.98547750856164E-15));
#1158=DIRECTION('center_axis',(-2.95067976909103E-9,6.00346889153977E-10,
-1.));
#1159=DIRECTION('ref_axis',(-0.199377169472659,-0.979922825682242,4.56037229927E-15));
#1160=DIRECTION('',(-2.95067976909103E-9,6.00346889153977E-10,-1.));
#1161=DIRECTION('center_axis',(1.,-1.2924696314488E-25,1.13736984201755E-23));
#1162=DIRECTION('ref_axis',(1.13736984201755E-23,-2.02615701848456E-15,
-1.));
#1163=DIRECTION('',(-1.79911433199723E-23,4.85441275418448E-9,1.));
#1164=DIRECTION('center_axis',(8.65116416552222E-17,-1.,4.85441275418448E-9));
#1165=DIRECTION('ref_axis',(2.79195565315651E-8,-4.85441275418447E-9,-1.));
#1166=DIRECTION('center_axis',(-5.7724927260008E-16,-3.29169171880948E-15,
-1.));
#1167=DIRECTION('ref_axis',(1.85225570992231E-10,1.,-3.29169171889105E-15));
#1168=DIRECTION('center_axis',(3.22865136691698E-20,-2.02849256607318E-15,
-1.));
#1169=DIRECTION('ref_axis',(1.85225570992231E-10,1.,-3.29169171889105E-15));
#1170=DIRECTION('',(-5.7724927260008E-16,-3.29169171880948E-15,-1.));
#1171=DIRECTION('center_axis',(-0.707106781186548,1.40165656765086E-15,
0.707106781186547));
#1172=DIRECTION('ref_axis',(0.707106781186547,1.41553435527589E-15,0.707106781186548));
#1173=DIRECTION('',(-0.707106781186547,-3.43258822754766E-9,-0.707106781186548));
#1174=DIRECTION('',(1.29246962001382E-25,1.,-2.02615701848456E-15));
#1175=DIRECTION('center_axis',(-4.26066429600395E-17,1.,-4.85441276065757E-9));
#1176=DIRECTION('ref_axis',(1.,4.26066429600395E-17,1.13736983329309E-23));
#1177=DIRECTION('',(1.,4.26066429600395E-17,1.13736983329309E-23));
#1178=DIRECTION('',(-0.70710678118655,3.43258815815872E-9,0.707106781186545));
#1179=DIRECTION('',(-1.,-4.26066429600395E-17,-1.1373698335242E-23));
#1180=DIRECTION('center_axis',(1.15805285670261E-23,-4.85441276065757E-9,
-1.));
#1181=DIRECTION('ref_axis',(-1.,1.29246962254137E-25,-1.15805285678461E-23));
#1182=DIRECTION('',(-1.,-4.26066429600395E-17,-1.13736983329309E-23));
#1183=DIRECTION('center_axis',(4.26066429600395E-17,-1.,4.85441276065757E-9));
#1184=DIRECTION('ref_axis',(-1.,-4.26066429600395E-17,-1.13736983329309E-23));
#1185=DIRECTION('',(0.707106781186547,3.43258822754766E-9,0.707106781186548));
#1186=DIRECTION('',(1.,4.26066429600395E-17,1.1373698335242E-23));
#1187=DIRECTION('',(0.70710678118655,-3.43258815815872E-9,-0.707106781186545));
#1188=DIRECTION('center_axis',(-1.13736984201755E-23,2.02615701848456E-15,
1.));
#1189=DIRECTION('ref_axis',(1.,-1.2924696314488E-25,1.13736984201755E-23));
#1190=DIRECTION('',(1.29246962001382E-25,1.,-2.02615701848456E-15));
#1191=DIRECTION('',(-1.,-4.26066429600395E-17,-1.1373698335242E-23));
#1192=DIRECTION('',(1.29246960460638E-25,1.,-2.02615701848456E-15));
#1193=DIRECTION('center_axis',(-4.26066429600395E-17,1.,-4.85441276065757E-9));
#1194=DIRECTION('ref_axis',(1.,4.26066429600395E-17,1.13736983329309E-23));
#1195=DIRECTION('',(-0.707106781186547,-3.43258822754766E-9,-0.707106781186548));
#1196=DIRECTION('',(1.,4.26066429600395E-17,1.13736983329309E-23));
#1197=DIRECTION('',(-0.70710678118655,3.43258815815872E-9,0.707106781186545));
#1198=DIRECTION('center_axis',(1.15805285670261E-23,-4.85441276065757E-9,
-1.));
#1199=DIRECTION('ref_axis',(-1.,1.29246962254137E-25,-1.15805285678461E-23));
#1200=DIRECTION('',(-1.,-4.26066429600395E-17,-1.13736983329309E-23));
#1201=DIRECTION('center_axis',(4.26066429600395E-17,-1.,4.85441276065757E-9));
#1202=DIRECTION('ref_axis',(-1.,-4.26066429600395E-17,-1.13736983329309E-23));
#1203=DIRECTION('',(0.707106781186547,3.43258822754766E-9,0.707106781186548));
#1204=DIRECTION('',(1.,4.26066429600395E-17,1.1373698335242E-23));
#1205=DIRECTION('',(0.70710678118655,-3.43258815815872E-9,-0.707106781186545));
#1206=DIRECTION('center_axis',(-1.13736984201755E-23,2.02615701848456E-15,
1.));
#1207=DIRECTION('ref_axis',(1.,-1.2924696314488E-25,1.13736984201755E-23));
#1208=DIRECTION('',(1.29246962001382E-25,1.,-2.02615701848456E-15));
#1209=DIRECTION('',(-1.,-4.26066429600395E-17,-1.1373698335242E-23));
#1210=DIRECTION('',(1.29246960460638E-25,1.,-2.02615701848456E-15));
#1211=DIRECTION('center_axis',(-4.26066429600395E-17,1.,-4.85441276065757E-9));
#1212=DIRECTION('ref_axis',(1.,4.26066429600395E-17,1.13736983329309E-23));
#1213=DIRECTION('',(-0.707106781186547,-3.43258822754766E-9,-0.707106781186548));
#1214=DIRECTION('',(1.,4.26066429600395E-17,1.13736983329309E-23));
#1215=DIRECTION('',(-0.70710678118655,3.43258815815872E-9,0.707106781186545));
#1216=DIRECTION('center_axis',(1.15805285670261E-23,-4.85441276065757E-9,
-1.));
#1217=DIRECTION('ref_axis',(-1.,1.29246962254137E-25,-1.15805285678461E-23));
#1218=DIRECTION('center_axis',(-3.22765875018191E-20,2.02849256607318E-15,
1.));
#1219=DIRECTION('ref_axis',(1.85225570992231E-10,1.,-2.02849256605016E-15));
#1220=DIRECTION('center_axis',(3.22865136691698E-20,-2.02849256607318E-15,
-1.));
#1221=DIRECTION('ref_axis',(1.85225570992231E-10,1.,-2.02849256601417E-15));
#1222=DIRECTION('center_axis',(3.46944716702057E-16,-7.92911261288599E-15,
-1.));
#1223=DIRECTION('ref_axis',(1.85225570992231E-10,1.,-7.92911261279047E-15));
#1224=DIRECTION('',(3.46944716702057E-16,-7.92911261288599E-15,-1.));
#1225=DIRECTION('center_axis',(0.707106781186545,1.4294121430837E-15,0.70710678118655));
#1226=DIRECTION('ref_axis',(0.70710678118655,-1.40165656765086E-15,-0.707106781186545));
#1227=DIRECTION('center_axis',(0.707106781186545,1.4294121430837E-15,0.70710678118655));
#1228=DIRECTION('ref_axis',(0.70710678118655,-1.40165656765086E-15,-0.707106781186545));
#1229=DIRECTION('center_axis',(0.707106781186545,1.4294121430837E-15,0.70710678118655));
#1230=DIRECTION('ref_axis',(0.70710678118655,-1.40165656765086E-15,-0.707106781186545));
#1231=DIRECTION('center_axis',(0.707106781186545,1.4294121430837E-15,0.70710678118655));
#1232=DIRECTION('ref_axis',(0.70710678118655,-1.40165656765086E-15,-0.707106781186545));
#1233=DIRECTION('',(1.29246960460638E-25,1.,-2.02615701848456E-15));
#1234=DIRECTION('center_axis',(-1.13736984201755E-23,2.02615701848456E-15,
1.));
#1235=DIRECTION('ref_axis',(1.,-1.2924696314488E-25,1.13736984201755E-23));
#1236=DIRECTION('center_axis',(-0.707106781186548,1.40165656765086E-15,
0.707106781186547));
#1237=DIRECTION('ref_axis',(0.707106781186547,1.41553435527589E-15,0.707106781186548));
#1238=DIRECTION('center_axis',(-0.707106781186548,1.40165656765086E-15,
0.707106781186547));
#1239=DIRECTION('ref_axis',(0.707106781186547,1.41553435527589E-15,0.707106781186548));
#1240=DIRECTION('center_axis',(-0.707106781186548,1.40165656765086E-15,
0.707106781186547));
#1241=DIRECTION('ref_axis',(0.707106781186547,1.41553435527589E-15,0.707106781186548));
#1242=CARTESIAN_POINT('',(0.,0.,0.));
#1243=CARTESIAN_POINT('Origin',(4.30500158455737E-7,-141.820392041792,64.6614210656944));
#1244=CARTESIAN_POINT('',(-7.89999992054995,-143.94171258276,62.5401007324325));
#1245=CARTESIAN_POINT('',(-7.89999999814772,-141.820392228902,61.6614210656943));
#1246=CARTESIAN_POINT('Origin',(-7.89999999814773,-141.820392228902,64.6614210656944));
#1247=CARTESIAN_POINT('',(7.90000000185224,-141.820391854681,61.6614210607326));
#1248=CARTESIAN_POINT('',(4.30500158455737E-7,-141.820392041792,61.6614210656944));
#1249=CARTESIAN_POINT('',(7.90000007944999,-143.941712208539,62.5401007324325));
#1250=CARTESIAN_POINT('Origin',(7.90000000185222,-141.820391854681,64.6614210656944));
#1251=CARTESIAN_POINT('',(4.80743347632275E-7,-143.941712395649,62.5401007324325));
#1252=CARTESIAN_POINT('Origin',(-7.89999999814773,-142.07656197879,60.8193130070356));
#1253=CARTESIAN_POINT('',(-7.89999999814773,-146.220924253363,64.819312425164));
#1254=CARTESIAN_POINT('',(-7.89999992054995,-137.582688145018,56.1810762329524));
#1255=CARTESIAN_POINT('',(-7.89999999814778,-75.7951636104686,64.819312930092));
#1256=CARTESIAN_POINT('',(-7.89999999814773,-147.460175447763,64.8193130070355));
#1257=CARTESIAN_POINT('',(-7.89999999814777,-75.7951636257984,61.6614209887508));
#1258=CARTESIAN_POINT('',(-7.89999999814773,-75.7951636068278,65.5693127937));
#1259=CARTESIAN_POINT('',(-7.89999999814772,-182.14339366184,61.6614210656944));
#1260=CARTESIAN_POINT('Origin',(3.27799713760421E-7,-133.630132763394,52.2285210000641));
#1261=CARTESIAN_POINT('',(7.90000007944999,-146.22092395674,64.8193125027618));
#1262=CARTESIAN_POINT('',(7.90000007944999,-139.957687957908,58.5560764431213));
#1263=CARTESIAN_POINT('',(10.6500002836323,-148.970924082439,67.5693127202937));
#1264=CARTESIAN_POINT('',(23.0971461520231,-161.418069595597,80.0164586491081));
#1265=CARTESIAN_POINT('',(7.90000000185222,-151.720924407615,70.3193130070354));
#1266=CARTESIAN_POINT('',(5.89038878910326,-153.730535643488,72.3289242148226));
#1267=CARTESIAN_POINT('',(-7.89999999814773,-151.720924781836,70.3193130070354));
#1268=CARTESIAN_POINT('',(5.45022256033377E-7,-151.720924385178,70.3193127974882));
#1269=CARTESIAN_POINT('',(-10.6499999981477,-148.970924873668,67.5693130070354));
#1270=CARTESIAN_POINT('',(-6.80705560075126,-152.813869137773,71.4122573994702));
#1271=CARTESIAN_POINT('',(-23.2804838594349,-161.601408404271,80.1997963611144));
#1272=CARTESIAN_POINT('Origin',(7.89999998514028,-91.6454095517782,70.3193129265563));
#1273=CARTESIAN_POINT('',(-10.0999872991371,-91.6454095677979,67.0193002338922));
#1274=CARTESIAN_POINT('',(10.0999872694177,-91.6454095677979,67.0193002338922));
#1275=CARTESIAN_POINT('',(3.94999999349625,-91.6454095677979,67.0193000808256));
#1276=CARTESIAN_POINT('',(-10.6500000148596,-91.6454095651279,67.5693129496148));
#1277=CARTESIAN_POINT('',(-6.70000020644074,-91.6454095843028,63.619312351813));
#1278=CARTESIAN_POINT('',(-7.90000001485966,-91.6454095517782,70.3193129265563));
#1279=CARTESIAN_POINT('',(-5.32500012043496,-91.6454095392781,72.8943128529159));
#1280=CARTESIAN_POINT('',(7.89999998514028,-91.6454095517782,70.3193129265563));
#1281=CARTESIAN_POINT('',(-1.48596767791194E-8,-91.6454095517783,70.3193129584912));
#1282=CARTESIAN_POINT('',(10.6499999851403,-91.6454095651279,67.5693129496148));
#1283=CARTESIAN_POINT('',(7.90000009071561,-91.6454095517783,70.3193128529159));
#1284=CARTESIAN_POINT('',(10.3749938061173,-91.6454095664628,67.2943059812089));
#1285=CARTESIAN_POINT('Origin',(-10.6500000148596,-172.060175447763,67.5693129584914));
#1286=CARTESIAN_POINT('',(-10.6500000148596,-96.3954095651279,67.5693129486233));
#1287=CARTESIAN_POINT('',(-10.6500000148596,-172.143393661841,67.5693129584914));
#1288=CARTESIAN_POINT('',(-7.90000001485963,-96.3954095517783,70.3193129000792));
#1289=CARTESIAN_POINT('',(-9.27500009776999,-96.3954095584531,68.9443128285416));
#1290=CARTESIAN_POINT('',(-7.90000001485963,-172.060175447763,70.3193129584914));
#1291=CARTESIAN_POINT('Origin',(-7.90000001485963,-96.3954095517783,70.3193129000792));
#1292=CARTESIAN_POINT('',(10.0999872439321,-96.3954095677979,67.019300207415));
#1293=CARTESIAN_POINT('',(-10.0999872736514,-96.3954095677979,67.019300207415));
#1294=CARTESIAN_POINT('',(-3.95000000650371,-96.3954095677979,67.0193001038841));
#1295=CARTESIAN_POINT('',(10.6499999851403,-96.3954095651279,67.5693129486233));
#1296=CARTESIAN_POINT('',(6.69999990222995,-96.3954095843028,63.6193128285416));
#1297=CARTESIAN_POINT('',(7.89999998514031,-96.3954095517783,70.3193129000792));
#1298=CARTESIAN_POINT('',(3.95000006805066,-96.3954095326033,74.2693128285416));
#1299=CARTESIAN_POINT('',(-7.90000001485963,-96.3954095517783,70.319312911452));
#1300=CARTESIAN_POINT('',(-10.6499999319493,-96.3954095651279,67.5693128285417));
#1301=CARTESIAN_POINT('Origin',(7.89999998514031,-172.060175447763,70.3193129584914));
#1302=CARTESIAN_POINT('',(7.89999998514031,-137.460175447763,70.3193129584913));
#1303=CARTESIAN_POINT('',(10.6499999851403,-137.460175447763,67.5693129584913));
#1304=CARTESIAN_POINT('Origin',(-7.90000001485963,-172.060175447763,70.3193129584914));
#1305=CARTESIAN_POINT('Origin',(1.85221845791097E-9,-95.7686516228292,67.0193001008415));
#1306=CARTESIAN_POINT('',(-10.0999872824252,-101.645409567798,67.0193002824363));
#1307=CARTESIAN_POINT('',(-10.0999879187414,-180.927030595314,67.0193005142355));
#1308=CARTESIAN_POINT('',(10.0999872861296,-101.645409567798,67.0193002824363));
#1309=CARTESIAN_POINT('',(-7.89999999814775,-101.645409567798,67.0193002824363));
#1310=CARTESIAN_POINT('',(10.0999879224459,-180.927030595314,67.0193005142355));
#1311=CARTESIAN_POINT('Origin',(-10.6499999981477,-266.085409565128,67.5693130070357));
#1312=CARTESIAN_POINT('',(-10.6499999981477,-131.645409565128,67.5693129922113));
#1313=CARTESIAN_POINT('',(-10.6499999981477,-182.143393661841,67.5693130070355));
#1314=CARTESIAN_POINT('',(-10.0999872824251,-131.645409567798,67.0193002764887));
#1315=CARTESIAN_POINT('',(-6.6999999510132,-131.645409584303,63.6193129128617));
#1316=CARTESIAN_POINT('',(-10.0999872569395,-126.395409567798,67.019300251003));
#1317=CARTESIAN_POINT('',(-10.0999873028877,-138.914413513451,67.0193003117755));
#1318=CARTESIAN_POINT('',(-10.6499999981477,-126.395409565128,67.5693129922113));
#1319=CARTESIAN_POINT('',(-10.6499999382704,-126.395409565128,67.5693129001188));
#1320=CARTESIAN_POINT('',(-10.6499999981477,-121.645409565128,67.5693129946894));
#1321=CARTESIAN_POINT('',(-10.6499999981477,-182.143393661841,67.5693130070355));
#1322=CARTESIAN_POINT('',(-10.0999872824251,-121.645409567798,67.0193002789668));
#1323=CARTESIAN_POINT('',(-6.69999993949669,-121.645409584303,63.6193129013451));
#1324=CARTESIAN_POINT('',(-10.0999872569395,-116.395409567798,67.0193002534811));
#1325=CARTESIAN_POINT('',(-10.0999873296379,-133.914413513451,67.0193003385256));
#1326=CARTESIAN_POINT('',(-10.6499999981477,-116.395409565128,67.5693129946893));
#1327=CARTESIAN_POINT('',(-10.6499999267539,-116.395409565128,67.5693128886023));
#1328=CARTESIAN_POINT('',(-10.6499999981477,-111.645409565128,67.5693129971674));
#1329=CARTESIAN_POINT('',(-10.6499999981477,-182.143393661841,67.5693130070355));
#1330=CARTESIAN_POINT('',(-10.0999872824251,-111.645409567798,67.0193002814449));
#1331=CARTESIAN_POINT('',(-6.69999992798019,-111.645409584303,63.6193128898286));
#1332=CARTESIAN_POINT('',(-10.0999872569395,-106.395409567798,67.0193002559592));
#1333=CARTESIAN_POINT('',(-10.099987356388,-128.914413513451,67.0193003652757));
#1334=CARTESIAN_POINT('',(-10.6499999981477,-106.395409565128,67.5693129971674));
#1335=CARTESIAN_POINT('',(-10.6499999152374,-106.395409565128,67.5693128770858));
#1336=CARTESIAN_POINT('',(-10.6499999981477,-101.645409565128,67.5693129981589));
#1337=CARTESIAN_POINT('',(-10.6499999981477,-182.143393661841,67.5693130070355));
#1338=CARTESIAN_POINT('',(-6.70000018972883,-101.645409584303,63.6193124003572));
#1339=CARTESIAN_POINT('',(-10.0999872569395,-86.3954095677979,67.0193002084065));
#1340=CARTESIAN_POINT('',(-10.0999879187414,-180.927030595314,67.0193005142355));
#1341=CARTESIAN_POINT('',(-10.6499999981477,-86.3954095651279,67.5693129496148));
#1342=CARTESIAN_POINT('',(-10.6500001897288,-86.395409565128,67.5693123263274));
#1343=CARTESIAN_POINT('',(-10.6499999981478,-75.795163597119,67.5693129251801));
#1344=CARTESIAN_POINT('',(-10.6499999981477,-182.143393661841,67.5693130070355));
#1345=CARTESIAN_POINT('',(-6.70000020285609,-75.7951636162939,63.6193122879967));
#1346=CARTESIAN_POINT('Origin',(1.85225141481835E-9,-127.576564392184,61.6614210656943));
#1347=CARTESIAN_POINT('',(7.90000000185217,-75.7951636257984,61.6614209887508));
#1348=CARTESIAN_POINT('',(3.9500000018522,-75.7951636257984,61.6614209686061));
#1349=CARTESIAN_POINT('',(7.90000000185224,-192.14339366184,61.6614210607327));
#1350=CARTESIAN_POINT('',(1.5465977327378E-9,-82.7451620129066,61.6614210171501));
#1351=CARTESIAN_POINT('Origin',(1.85221972280826E-9,-81.0951620129067,61.6614210171501));
#1352=CARTESIAN_POINT('',(0.299065899579425,-135.475309108257,61.6614210647464));
#1353=CARTESIAN_POINT('Origin',(1.61110553900593E-7,-136.945193349983,61.6614210647464));
#1354=CARTESIAN_POINT('Origin',(10.099987260644,-266.085409567798,67.0193002658275));
#1355=CARTESIAN_POINT('',(10.6500000018522,-101.645409565128,67.5693129981589));
#1356=CARTESIAN_POINT('',(10.3749938228292,-101.645409566463,67.294306029753));
#1357=CARTESIAN_POINT('',(10.6500000018522,-106.395409565128,67.5693129971674));
#1358=CARTESIAN_POINT('',(10.6500000018522,-147.460175447763,67.5693130070354));
#1359=CARTESIAN_POINT('',(10.099987260644,-106.395409567798,67.0193002559592));
#1360=CARTESIAN_POINT('',(6.69999991894186,-106.395409584303,63.6193128770858));
#1361=CARTESIAN_POINT('',(10.0999872861296,-111.645409567798,67.0193002814449));
#1362=CARTESIAN_POINT('',(10.0999873600925,-128.914413513451,67.0193003652757));
#1363=CARTESIAN_POINT('',(10.6500000018522,-111.645409565128,67.5693129971674));
#1364=CARTESIAN_POINT('',(10.6499999316847,-111.645409565128,67.5693128898286));
#1365=CARTESIAN_POINT('',(10.6500000018522,-116.395409565128,67.5693129946893));
#1366=CARTESIAN_POINT('',(10.6500000018522,-147.460175447763,67.5693130070354));
#1367=CARTESIAN_POINT('',(10.099987260644,-116.395409567798,67.0193002534811));
#1368=CARTESIAN_POINT('',(6.69999993045836,-116.395409584303,63.6193128886023));
#1369=CARTESIAN_POINT('',(10.0999872861296,-121.645409567798,67.0193002789668));
#1370=CARTESIAN_POINT('',(10.0999873333424,-133.914413513451,67.0193003385256));
#1371=CARTESIAN_POINT('',(10.6500000018522,-121.645409565128,67.5693129946894));
#1372=CARTESIAN_POINT('',(10.6499999432012,-121.645409565128,67.5693129013451));
#1373=CARTESIAN_POINT('',(10.6500000018522,-126.395409565128,67.5693129922113));
#1374=CARTESIAN_POINT('',(10.6500000018522,-147.460175447763,67.5693130070354));
#1375=CARTESIAN_POINT('',(10.099987260644,-126.395409567798,67.019300251003));
#1376=CARTESIAN_POINT('',(6.69999994197487,-126.395409584303,63.6193129001188));
#1377=CARTESIAN_POINT('',(10.0999872861296,-131.645409567798,67.0193002764887));
#1378=CARTESIAN_POINT('',(10.0999873065922,-138.914413513451,67.0193003117755));
#1379=CARTESIAN_POINT('',(10.6500000018522,-131.645409565128,67.5693129922113));
#1380=CARTESIAN_POINT('',(10.6499999547177,-131.645409565128,67.5693129128617));
#1381=CARTESIAN_POINT('',(10.6500000018522,-147.460175447763,67.5693130070354));
#1382=CARTESIAN_POINT('',(7.90000000185216,-75.7951636104686,64.8193129300919));
#1383=CARTESIAN_POINT('',(7.90000000185222,-147.460175447763,64.8193130070354));
#1384=CARTESIAN_POINT('',(10.6500000018522,-75.795163597119,67.5693129251802));
#1385=CARTESIAN_POINT('',(10.3749938359564,-75.795163598454,67.2943059173925));
#1386=CARTESIAN_POINT('',(10.6500000018522,-86.3954095651279,67.5693129496148));
#1387=CARTESIAN_POINT('',(10.6500000018522,-147.460175447763,67.5693130070354));
#1388=CARTESIAN_POINT('',(10.099987260644,-86.3954095677979,67.0193002084065));
#1389=CARTESIAN_POINT('',(6.4249938228292,-86.3954095856378,63.3443059557233));
#1390=CARTESIAN_POINT('',(10.0999879224459,-180.927030595314,67.0193005142355));
#1391=CARTESIAN_POINT('Origin',(-7.89999999814775,-86.3954095517783,70.3193129010707));
#1392=CARTESIAN_POINT('',(-7.89999999814775,-86.3954095677979,67.0193002084065));
#1393=CARTESIAN_POINT('',(7.90000000185219,-86.3954095517783,70.3193129010707));
#1394=CARTESIAN_POINT('',(3.95000012017033,-86.3954095326034,74.2693128401731));
#1395=CARTESIAN_POINT('',(-7.89999999814775,-86.3954095517783,70.3193129010707));
#1396=CARTESIAN_POINT('',(-7.89999999814774,-86.3954095517783,70.3193129584912));
#1397=CARTESIAN_POINT('',(-9.27500011646586,-86.3954095584531,68.9443128401731));
#1398=CARTESIAN_POINT('Origin',(1.85221845791097E-9,-95.7686516228292,67.0193001008415));
#1399=CARTESIAN_POINT('Origin',(7.90000000185219,-101.645409551778,70.3193129751004));
#1400=CARTESIAN_POINT('',(-7.89999999814775,-101.645409551778,70.3193129751004));
#1401=CARTESIAN_POINT('',(-5.32500010372305,-101.645409539278,72.89431290146));
#1402=CARTESIAN_POINT('',(7.90000000185219,-101.645409551778,70.3193129751004));
#1403=CARTESIAN_POINT('',(1.85222721269001E-9,-101.645409551778,70.3193130070353));
#1404=CARTESIAN_POINT('',(7.90000010742751,-101.645409551778,70.3193129014601));
#1405=CARTESIAN_POINT('Origin',(-10.6499999981477,-182.060175447763,67.5693130070355));
#1406=CARTESIAN_POINT('',(-7.89999999814778,-75.7951635837694,70.3193129021217));
#1407=CARTESIAN_POINT('',(-7.89999999814773,-182.060175447763,70.3193130070355));
#1408=CARTESIAN_POINT('',(-5.32500010479557,-75.7951635712692,72.8943128032993));
#1409=CARTESIAN_POINT('Origin',(-7.89999999814773,-182.060175447763,70.3193130070355));
#1410=CARTESIAN_POINT('',(7.90000000185216,-75.7951635837694,70.3193129021217));
#1411=CARTESIAN_POINT('',(7.90000000185222,-147.460175447763,70.3193130070354));
#1412=CARTESIAN_POINT('',(1.8522101036562E-9,-75.7951635837694,70.3193129099471));
#1413=CARTESIAN_POINT('',(1.33359023899477E-9,-83.8951620129065,70.3193129584907));
#1414=CARTESIAN_POINT('Origin',(1.85222218067412E-9,-81.0951620129065,70.3193129584907));
#1415=CARTESIAN_POINT('Origin',(7.90000000185222,-182.060175447763,70.3193130070355));
#1416=CARTESIAN_POINT('',(7.9000001085,-75.7951635837694,70.3193128032993));
#1417=CARTESIAN_POINT('Origin',(7.90000000185221,-131.645409551778,70.3193129691528));
#1418=CARTESIAN_POINT('',(-7.89999999814773,-131.645409551778,70.3193129691528));
#1419=CARTESIAN_POINT('',(7.90000000185221,-131.645409551778,70.3193129691528));
#1420=CARTESIAN_POINT('',(1.85224041639408E-9,-131.645409551778,70.3193129599962));
#1421=CARTESIAN_POINT('',(7.90000004898674,-131.645409551778,70.3193129128617));
#1422=CARTESIAN_POINT('',(-7.89999999814773,-131.645409567798,67.0193002764887));
#1423=CARTESIAN_POINT('',(-5.32500004528227,-131.645409539278,72.8943129128616));
#1424=CARTESIAN_POINT('Origin',(-3.01654148253337E-8,-140.39529672397,67.3193147116362));
#1425=CARTESIAN_POINT('',(0.558256235634001,-134.201409438073,67.3193134016943));
#1426=CARTESIAN_POINT('Origin',(1.61110552911517E-7,-136.945193349983,67.3193134016943));
#1427=CARTESIAN_POINT('',(0.299065899579424,-135.475309108257,67.3193134016943));
#1428=CARTESIAN_POINT('Origin',(1.6111055503689E-7,-136.945193349983,67.3193147137074));
#1429=CARTESIAN_POINT('Origin',(1.6111055503689E-7,-136.945193349983,67.3193134016943));
#1430=CARTESIAN_POINT('',(0.299065899579427,-135.475309108257,67.3193134016943));
#1431=CARTESIAN_POINT('Origin',(-3.47043424866497E-8,-141.895299192695,
70.319312803387));
#1432=CARTESIAN_POINT('',(-7.89999999814773,-182.060175447763,70.3193130070355));
#1433=CARTESIAN_POINT('',(7.90000000185222,-147.460175447763,70.3193130070354));
#1434=CARTESIAN_POINT('',(0.558256244486039,-134.201409439874,70.3193130102677));
#1435=CARTESIAN_POINT('Origin',(1.69962591036841E-7,-136.945193351784,70.3193130011257));
#1436=CARTESIAN_POINT('Origin',(1.6996259221879E-7,-136.945193351784,70.3193134016943));
#1437=CARTESIAN_POINT('',(0.55825624448604,-134.201409439874,70.3193134016943));
#1438=CARTESIAN_POINT('Origin',(7.90000000185222,-142.07656197879,70.3193130070356));
#1439=CARTESIAN_POINT('',(7.90000000185221,-75.7951635837694,70.3193127937));
#1440=CARTESIAN_POINT('Origin',(7.90000000185216,-75.7951635837694,70.3193129021217));
#1441=CARTESIAN_POINT('Origin',(1.85221773978209E-9,-81.0951620129066,67.3193129095974));
#1442=CARTESIAN_POINT('',(1.54659554556328E-9,-82.7451620129066,67.3193129095974));
#1443=CARTESIAN_POINT('Origin',(1.85221773978161E-9,-81.0951620129066,67.3193120782817));
#1444=CARTESIAN_POINT('',(1.54659534557819E-9,-82.7451620129066,67.3193129095974));
#1445=CARTESIAN_POINT('Origin',(-10.6499999981477,-182.060175447763,67.5693130070355));
#1446=CARTESIAN_POINT('',(-7.89999999814773,-106.395409551778,70.3193129486233));
#1447=CARTESIAN_POINT('',(-9.27500008105809,-106.395409558453,68.9443128770858));
#1448=CARTESIAN_POINT('',(-7.89999999814773,-182.060175447763,70.3193130070355));
#1449=CARTESIAN_POINT('Origin',(-7.89999999814773,-106.395409551778,70.3193129486233));
#1450=CARTESIAN_POINT('',(-7.89999999814773,-106.395409567798,67.0193002559592));
#1451=CARTESIAN_POINT('',(7.90000000185221,-106.395409551778,70.3193129486233));
#1452=CARTESIAN_POINT('',(3.95000008476257,-106.395409532603,74.2693128770857));
#1453=CARTESIAN_POINT('',(-7.89999999814773,-106.395409551778,70.3193129599961));
#1454=CARTESIAN_POINT('Origin',(1.85221845791097E-9,-95.7686516228292,67.0193001008415));
#1455=CARTESIAN_POINT('',(-7.89999999814773,-111.645409567798,67.0193002814449));
#1456=CARTESIAN_POINT('Origin',(7.90000000185221,-111.645409551778,70.319312974109));
#1457=CARTESIAN_POINT('',(-7.89999999814773,-111.645409551778,70.319312974109));
#1458=CARTESIAN_POINT('',(-5.32500006831528,-111.645409539278,72.8943128898286));
#1459=CARTESIAN_POINT('',(7.90000000185221,-111.645409551778,70.319312974109));
#1460=CARTESIAN_POINT('',(1.85223999032765E-9,-111.645409551778,70.3193129599961));
#1461=CARTESIAN_POINT('',(7.90000007201974,-111.645409551778,70.3193128898286));
#1462=CARTESIAN_POINT('Origin',(-7.89999999814773,-182.060175447763,70.3193130070355));
#1463=CARTESIAN_POINT('',(-7.89999999814773,-116.395409551778,70.3193129461452));
#1464=CARTESIAN_POINT('',(-7.89999999814773,-182.060175447763,70.3193130070355));
#1465=CARTESIAN_POINT('',(7.90000000185221,-116.395409551778,70.3193129461452));
#1466=CARTESIAN_POINT('',(-7.89999999814773,-116.395409551778,70.3193129599961));
#1467=CARTESIAN_POINT('',(7.90000000185222,-147.460175447763,70.3193130070354));
#1468=CARTESIAN_POINT('Origin',(-7.89999999814773,-116.395409551778,70.3193129461452));
#1469=CARTESIAN_POINT('',(-9.27500006954158,-116.395409558453,68.9443128886023));
#1470=CARTESIAN_POINT('',(-7.89999999814773,-116.395409567798,67.0193002534811));
#1471=CARTESIAN_POINT('',(3.95000007324606,-116.395409532603,74.2693128886023));
#1472=CARTESIAN_POINT('Origin',(1.85224432687647E-9,-105.768651622829,67.0193000998501));
#1473=CARTESIAN_POINT('',(-7.89999999814773,-121.645409567798,67.0193002789668));
#1474=CARTESIAN_POINT('Origin',(7.90000000185221,-121.645409551778,70.3193129716309));
#1475=CARTESIAN_POINT('',(-7.89999999814773,-121.645409551778,70.3193129716309));
#1476=CARTESIAN_POINT('',(-5.32500005679878,-121.645409539278,72.8943129013451));
#1477=CARTESIAN_POINT('',(7.90000000185221,-121.645409551778,70.3193129716309));
#1478=CARTESIAN_POINT('',(1.85224020336087E-9,-121.645409551778,70.3193129599961));
#1479=CARTESIAN_POINT('',(7.90000006050325,-121.645409551778,70.3193129013451));
#1480=CARTESIAN_POINT('Origin',(-7.89999999814773,-182.060175447763,70.3193130070355));
#1481=CARTESIAN_POINT('',(-7.89999999814773,-126.395409551778,70.3193129436671));
#1482=CARTESIAN_POINT('',(-7.89999999814773,-182.060175447763,70.3193130070355));
#1483=CARTESIAN_POINT('',(7.90000000185221,-126.395409551778,70.3193129436671));
#1484=CARTESIAN_POINT('',(-7.89999999814773,-126.395409551778,70.3193129599962));
#1485=CARTESIAN_POINT('',(7.90000000185222,-147.460175447763,70.3193130070354));
#1486=CARTESIAN_POINT('Origin',(-7.89999999814773,-126.395409551778,70.3193129436671));
#1487=CARTESIAN_POINT('',(-9.27500005802508,-126.395409558453,68.9443129001188));
#1488=CARTESIAN_POINT('',(-7.89999999814773,-126.395409567798,67.019300251003));
#1489=CARTESIAN_POINT('',(3.95000006172956,-126.395409532603,74.2693129001188));
#1490=CARTESIAN_POINT('Origin',(1.85224432687647E-9,-105.768651622829,67.0193000998501));
#1491=CARTESIAN_POINT('Origin',(1.85222249068035E-9,-92.4202857823425,67.3193121268258));
#1492=CARTESIAN_POINT('',(1.33359127982894E-9,-83.8951620129065,67.3193129095975));
#1493=CARTESIAN_POINT('Origin',(1.85222218067419E-9,-81.0951620129066,67.3193129095975));
#1494=CARTESIAN_POINT('Origin',(1.85222218067413E-9,-81.0951620129065,70.3193129095975));
#1495=CARTESIAN_POINT('',(1.33359023899479E-9,-83.8951620129065,70.3193129095975));
#1496=CARTESIAN_POINT('Origin',(7.90000000185222,-182.060175447763,70.3193130070355));
#1497=CARTESIAN_POINT('Origin',(7.90000000185222,-182.060175447763,70.3193130070355));
#1498=CARTESIAN_POINT('Origin',(7.90000000185223,-192.060175447763,70.3193130020738));
#1499=CARTESIAN_POINT('Origin',(7.90000000185222,-182.060175447763,70.3193130070355));
#1500=CARTESIAN_POINT('',(7.90000000185222,-147.460175447763,70.3193130070354));
#1501=CARTESIAN_POINT('Origin',(-7.89999999814773,-182.060175447763,70.3193130070355));
#1502=CARTESIAN_POINT('Origin',(-10.6499999981477,-182.060175447763,67.5693130070355));
#1503=CARTESIAN_POINT('Origin',(-10.6499999981477,-182.060175447763,67.5693130070355));
#1504=CARTESIAN_POINT('Origin',(-10.6499999981477,-192.060175447763,67.5693130020738));
#1505=UNCERTAINTY_MEASURE_WITH_UNIT(LENGTH_MEASURE(0.01),#1509,
'DISTANCE_ACCURACY_VALUE',
'Maximum model space distance between geometric entities at asserted c
onnectivities');
#1506=UNCERTAINTY_MEASURE_WITH_UNIT(LENGTH_MEASURE(0.01),#1509,
'DISTANCE_ACCURACY_VALUE',
'Maximum model space distance between geometric entities at asserted c
onnectivities');
#1507=(
GEOMETRIC_REPRESENTATION_CONTEXT(3)
GLOBAL_UNCERTAINTY_ASSIGNED_CONTEXT((#1505))
GLOBAL_UNIT_ASSIGNED_CONTEXT((#1509,#1511,#1512))
REPRESENTATION_CONTEXT('','3D')
);
#1508=(
GEOMETRIC_REPRESENTATION_CONTEXT(3)
GLOBAL_UNCERTAINTY_ASSIGNED_CONTEXT((#1506))
GLOBAL_UNIT_ASSIGNED_CONTEXT((#1509,#1511,#1512))
REPRESENTATION_CONTEXT('','3D')
);
#1509=(
LENGTH_UNIT()
NAMED_UNIT(*)
SI_UNIT(.MILLI.,.METRE.)
);
#1510=(
LENGTH_UNIT()
NAMED_UNIT(*)
SI_UNIT($,.METRE.)
);
#1511=(
NAMED_UNIT(*)
PLANE_ANGLE_UNIT()
SI_UNIT($,.RADIAN.)
);
#1512=(
NAMED_UNIT(*)
SI_UNIT($,.STERADIAN.)
SOLID_ANGLE_UNIT()
);
#1513=SHAPE_DEFINITION_REPRESENTATION(#1514,#1515);
#1514=PRODUCT_DEFINITION_SHAPE('',$,#1517);
#1515=SHAPE_REPRESENTATION('',(#949),#1507);
#1516=PRODUCT_DEFINITION_CONTEXT('part definition',#1521,'design');
#1517=PRODUCT_DEFINITION('10. Handguard Rail Bottom Short',
'10. Handguard Rail Bottom Short',#1518,#1516);
#1518=PRODUCT_DEFINITION_FORMATION('',$,#1523);
#1519=PRODUCT_RELATED_PRODUCT_CATEGORY(
'10. Handguard Rail Bottom Short','10. Handguard Rail Bottom Short',(#1523));
#1520=APPLICATION_PROTOCOL_DEFINITION('international standard',
'automotive_design',2009,#1521);
#1521=APPLICATION_CONTEXT(
'Core Data for Automotive Mechanical Design Process');
#1522=PRODUCT_CONTEXT('part definition',#1521,'mechanical');
#1523=PRODUCT('10. Handguard Rail Bottom Short',
'10. Handguard Rail Bottom Short',$,(#1522));
#1524=PRESENTATION_STYLE_ASSIGNMENT((#1526));
#1525=PRESENTATION_STYLE_ASSIGNMENT((#1527));
#1526=SURFACE_STYLE_USAGE(.BOTH.,#1528);
#1527=SURFACE_STYLE_USAGE(.BOTH.,#1529);
#1528=SURFACE_SIDE_STYLE('',(#1530));
#1529=SURFACE_SIDE_STYLE('',(#1531));
#1530=SURFACE_STYLE_FILL_AREA(#1532);
#1531=SURFACE_STYLE_FILL_AREA(#1533);
#1532=FILL_AREA_STYLE('Steel - Satin',(#1534));
#1533=FILL_AREA_STYLE('Plastic - Matte (Black) (1)',(#1535));
#1534=FILL_AREA_STYLE_COLOUR('Steel - Satin',#1536);
#1535=FILL_AREA_STYLE_COLOUR('Plastic - Matte (Black) (1)',#1537);
#1536=COLOUR_RGB('Steel - Satin',0.627450980392157,0.627450980392157,0.627450980392157);
#1537=COLOUR_RGB('Plastic - Matte (Black) (1)',0.0980392156862745,0.0980392156862745,
0.0980392156862745);
ENDSEC;
END-ISO-10303-21;
