ISO-10303-21;
HEADER;
/* Generated by software containing ST-Developer
 * from STEP Tools, Inc. (www.steptools.com) 
 */

FILE_DESCRIPTION(
/* description */ (''),
/* implementation_level */ '2;1');

FILE_NAME(
/* name */ '28. Bolt Handle.step',
/* time_stamp */ '2025-10-08T23:25:44+01:00',
/* author */ (''),
/* organization */ (''),
/* preprocessor_version */ 'ST-DEVELOPER v20.1',
/* originating_system */ 'Autodesk Translation Framework v14.10.0.0',
/* authorisation */ '');

FILE_SCHEMA (('AUTOMOTIVE_DESIGN { 1 0 10303 214 3 1 1 }'));
ENDSEC;

DATA;
#10=MECHANICAL_DESIGN_GEOMETRIC_PRESENTATION_REPRESENTATION('',(#23,#24),
#903);
#11=ITEM_DEFINED_TRANSFORMATION($,$,#501,#577);
#12=ITEM_DEFINED_TRANSFORMATION($,$,#539,#578);
#13=(
REPRESENTATION_RELATIONSHIP($,$,#917,#916)
REPRESENTATION_RELATIONSHIP_WITH_TRANSFORMATION(#11)
SHAPE_REPRESENTATION_RELATIONSHIP()
);
#14=(
REPRESENTATION_RELATIONSHIP($,$,#918,#916)
REPRESENTATION_RELATIONSHIP_WITH_TRANSFORMATION(#12)
SHAPE_REPRESENTATION_RELATIONSHIP()
);
#15=CONTEXT_DEPENDENT_SHAPE_REPRESENTATION(#13,#914);
#16=CONTEXT_DEPENDENT_SHAPE_REPRESENTATION(#14,#915);
#17=NEXT_ASSEMBLY_USAGE_OCCURRENCE('28. Bolt Handle (1):1',
'28. Bolt Handle (1):1','28. Bolt Handle (1):1',#920,#921,
'28. Bolt Handle (1):1');
#18=NEXT_ASSEMBLY_USAGE_OCCURRENCE('28. Bolt Handle (2):1',
'28. Bolt Handle (2):1','28. Bolt Handle (2):1',#920,#922,
'28. Bolt Handle (2):1');
#19=SHAPE_REPRESENTATION_RELATIONSHIP('SRR','None',#917,#21);
#20=SHAPE_REPRESENTATION_RELATIONSHIP('SRR','None',#918,#22);
#21=ADVANCED_BREP_SHAPE_REPRESENTATION('',(#25),#901);
#22=ADVANCED_BREP_SHAPE_REPRESENTATION('',(#26),#902);
#23=STYLED_ITEM('',(#936),#25);
#24=STYLED_ITEM('',(#936),#26);
#25=MANIFOLD_SOLID_BREP('28. Bolt Handle',#475);
#26=MANIFOLD_SOLID_BREP('28. Bolt Handle',#476);
#27=TOROIDAL_SURFACE('',#521,7.49999998509884,1.5);
#28=TOROIDAL_SURFACE('',#531,7.49999998509884,1.5);
#29=TOROIDAL_SURFACE('',#559,7.49999998509884,1.5);
#30=TOROIDAL_SURFACE('',#569,7.49999998509884,1.5);
#31=FACE_BOUND('',#86,.T.);
#32=FACE_BOUND('',#89,.T.);
#33=FACE_BOUND('',#99,.T.);
#34=FACE_BOUND('',#104,.T.);
#35=FACE_BOUND('',#107,.T.);
#36=FACE_BOUND('',#117,.T.);
#37=PLANE('',#508);
#38=PLANE('',#513);
#39=PLANE('',#536);
#40=PLANE('',#546);
#41=PLANE('',#551);
#42=PLANE('',#574);
#43=CYLINDRICAL_SURFACE('',#505,7.);
#44=CYLINDRICAL_SURFACE('',#515,3.5);
#45=CYLINDRICAL_SURFACE('',#519,6.99999998509884);
#46=CYLINDRICAL_SURFACE('',#527,5.99999998509884);
#47=CYLINDRICAL_SURFACE('',#538,1.55);
#48=CYLINDRICAL_SURFACE('',#543,7.);
#49=CYLINDRICAL_SURFACE('',#553,3.5);
#50=CYLINDRICAL_SURFACE('',#557,6.99999998509884);
#51=CYLINDRICAL_SURFACE('',#565,5.99999998509884);
#52=CYLINDRICAL_SURFACE('',#576,1.55);
#53=FACE_OUTER_BOUND('',#83,.T.);
#54=FACE_OUTER_BOUND('',#84,.T.);
#55=FACE_OUTER_BOUND('',#85,.T.);
#56=FACE_OUTER_BOUND('',#87,.T.);
#57=FACE_OUTER_BOUND('',#88,.T.);
#58=FACE_OUTER_BOUND('',#90,.T.);
#59=FACE_OUTER_BOUND('',#91,.T.);
#60=FACE_OUTER_BOUND('',#92,.T.);
#61=FACE_OUTER_BOUND('',#93,.T.);
#62=FACE_OUTER_BOUND('',#94,.T.);
#63=FACE_OUTER_BOUND('',#95,.T.);
#64=FACE_OUTER_BOUND('',#96,.T.);
#65=FACE_OUTER_BOUND('',#97,.T.);
#66=FACE_OUTER_BOUND('',#98,.T.);
#67=FACE_OUTER_BOUND('',#100,.T.);
#68=FACE_OUTER_BOUND('',#101,.T.);
#69=FACE_OUTER_BOUND('',#102,.T.);
#70=FACE_OUTER_BOUND('',#103,.T.);
#71=FACE_OUTER_BOUND('',#105,.T.);
#72=FACE_OUTER_BOUND('',#106,.T.);
#73=FACE_OUTER_BOUND('',#108,.T.);
#74=FACE_OUTER_BOUND('',#109,.T.);
#75=FACE_OUTER_BOUND('',#110,.T.);
#76=FACE_OUTER_BOUND('',#111,.T.);
#77=FACE_OUTER_BOUND('',#112,.T.);
#78=FACE_OUTER_BOUND('',#113,.T.);
#79=FACE_OUTER_BOUND('',#114,.T.);
#80=FACE_OUTER_BOUND('',#115,.T.);
#81=FACE_OUTER_BOUND('',#116,.T.);
#82=FACE_OUTER_BOUND('',#118,.T.);
#83=EDGE_LOOP('',(#307,#308,#309,#310));
#84=EDGE_LOOP('',(#311,#312,#313,#314,#315));
#85=EDGE_LOOP('',(#316));
#86=EDGE_LOOP('',(#317));
#87=EDGE_LOOP('',(#318,#319,#320,#321));
#88=EDGE_LOOP('',(#322));
#89=EDGE_LOOP('',(#323));
#90=EDGE_LOOP('',(#324,#325,#326,#327));
#91=EDGE_LOOP('',(#328,#329,#330,#331));
#92=EDGE_LOOP('',(#332,#333,#334,#335));
#93=EDGE_LOOP('',(#336,#337,#338,#339,#340,#341));
#94=EDGE_LOOP('',(#342,#343,#344,#345,#346,#347));
#95=EDGE_LOOP('',(#348,#349,#350,#351,#352));
#96=EDGE_LOOP('',(#353,#354,#355,#356,#357,#358));
#97=EDGE_LOOP('',(#359,#360,#361,#362,#363,#364));
#98=EDGE_LOOP('',(#365));
#99=EDGE_LOOP('',(#366));
#100=EDGE_LOOP('',(#367,#368,#369,#370));
#101=EDGE_LOOP('',(#371,#372,#373,#374));
#102=EDGE_LOOP('',(#375,#376,#377,#378,#379));
#103=EDGE_LOOP('',(#380));
#104=EDGE_LOOP('',(#381));
#105=EDGE_LOOP('',(#382,#383,#384,#385));
#106=EDGE_LOOP('',(#386));
#107=EDGE_LOOP('',(#387));
#108=EDGE_LOOP('',(#388,#389,#390,#391));
#109=EDGE_LOOP('',(#392,#393,#394,#395));
#110=EDGE_LOOP('',(#396,#397,#398,#399));
#111=EDGE_LOOP('',(#400,#401,#402,#403,#404,#405));
#112=EDGE_LOOP('',(#406,#407,#408,#409,#410,#411));
#113=EDGE_LOOP('',(#412,#413,#414,#415,#416));
#114=EDGE_LOOP('',(#417,#418,#419,#420,#421,#422));
#115=EDGE_LOOP('',(#423,#424,#425,#426,#427,#428));
#116=EDGE_LOOP('',(#429));
#117=EDGE_LOOP('',(#430));
#118=EDGE_LOOP('',(#431,#432,#433,#434));
#119=LINE('',#763,#139);
#120=LINE('',#769,#140);
#121=LINE('',#778,#141);
#122=LINE('',#785,#142);
#123=LINE('',#789,#143);
#124=LINE('',#793,#144);
#125=LINE('',#807,#145);
#126=LINE('',#812,#146);
#127=LINE('',#820,#147);
#128=LINE('',#825,#148);
#129=LINE('',#831,#149);
#130=LINE('',#837,#150);
#131=LINE('',#846,#151);
#132=LINE('',#853,#152);
#133=LINE('',#857,#153);
#134=LINE('',#861,#154);
#135=LINE('',#875,#155);
#136=LINE('',#880,#156);
#137=LINE('',#888,#157);
#138=LINE('',#893,#158);
#139=VECTOR('',#587,6.50000000000001);
#140=VECTOR('',#594,6.00000000000001);
#141=VECTOR('',#605,4.);
#142=VECTOR('',#614,2.8);
#143=VECTOR('',#619,6.49999998509885);
#144=VECTOR('',#624,6.99999998509884);
#145=VECTOR('',#641,5.99999998509884);
#146=VECTOR('',#648,6.49999998509885);
#147=VECTOR('',#659,6.49999998509884);
#148=VECTOR('',#666,1.55);
#149=VECTOR('',#673,6.50000000000001);
#150=VECTOR('',#680,6.00000000000001);
#151=VECTOR('',#691,4.);
#152=VECTOR('',#700,2.8);
#153=VECTOR('',#705,6.49999998509885);
#154=VECTOR('',#710,6.99999998509884);
#155=VECTOR('',#727,5.99999998509884);
#156=VECTOR('',#734,6.49999998509885);
#157=VECTOR('',#745,6.49999998509884);
#158=VECTOR('',#752,1.55);
#159=CIRCLE('',#503,6.);
#160=CIRCLE('',#504,7.);
#161=CIRCLE('',#506,7.);
#162=CIRCLE('',#507,7.);
#163=CIRCLE('',#509,1.55);
#164=CIRCLE('',#511,4.49999999999999);
#165=CIRCLE('',#512,3.5);
#166=CIRCLE('',#514,5.99999998509887);
#167=CIRCLE('',#516,3.5);
#168=CIRCLE('',#518,6.99999998509884);
#169=CIRCLE('',#520,6.99999998509884);
#170=CIRCLE('',#522,5.99999998509884);
#171=CIRCLE('',#523,1.5);
#172=CIRCLE('',#524,6.43933981331922);
#173=CIRCLE('',#525,6.43933981331922);
#174=CIRCLE('',#526,5.99999998509884);
#175=CIRCLE('',#528,5.99999998509884);
#176=CIRCLE('',#529,5.99999998509884);
#177=CIRCLE('',#532,1.5);
#178=CIRCLE('',#533,6.43933981331893);
#179=CIRCLE('',#534,6.43933981331893);
#180=CIRCLE('',#537,1.55);
#181=CIRCLE('',#541,6.);
#182=CIRCLE('',#542,7.);
#183=CIRCLE('',#544,7.);
#184=CIRCLE('',#545,7.);
#185=CIRCLE('',#547,1.55);
#186=CIRCLE('',#549,4.49999999999999);
#187=CIRCLE('',#550,3.5);
#188=CIRCLE('',#552,5.99999998509887);
#189=CIRCLE('',#554,3.5);
#190=CIRCLE('',#556,6.99999998509884);
#191=CIRCLE('',#558,6.99999998509884);
#192=CIRCLE('',#560,5.99999998509884);
#193=CIRCLE('',#561,1.5);
#194=CIRCLE('',#562,6.43933981331922);
#195=CIRCLE('',#563,6.43933981331922);
#196=CIRCLE('',#564,5.99999998509884);
#197=CIRCLE('',#566,5.99999998509884);
#198=CIRCLE('',#567,5.99999998509884);
#199=CIRCLE('',#570,1.5);
#200=CIRCLE('',#571,6.43933981331893);
#201=CIRCLE('',#572,6.43933981331893);
#202=CIRCLE('',#575,1.55);
#203=VERTEX_POINT('',#760);
#204=VERTEX_POINT('',#762);
#205=VERTEX_POINT('',#766);
#206=VERTEX_POINT('',#767);
#207=VERTEX_POINT('',#772);
#208=VERTEX_POINT('',#775);
#209=VERTEX_POINT('',#777);
#210=VERTEX_POINT('',#781);
#211=VERTEX_POINT('',#784);
#212=VERTEX_POINT('',#788);
#213=VERTEX_POINT('',#792);
#214=VERTEX_POINT('',#796);
#215=VERTEX_POINT('',#797);
#216=VERTEX_POINT('',#799);
#217=VERTEX_POINT('',#801);
#218=VERTEX_POINT('',#806);
#219=VERTEX_POINT('',#808);
#220=VERTEX_POINT('',#814);
#221=VERTEX_POINT('',#816);
#222=VERTEX_POINT('',#822);
#223=VERTEX_POINT('',#828);
#224=VERTEX_POINT('',#830);
#225=VERTEX_POINT('',#834);
#226=VERTEX_POINT('',#835);
#227=VERTEX_POINT('',#840);
#228=VERTEX_POINT('',#843);
#229=VERTEX_POINT('',#845);
#230=VERTEX_POINT('',#849);
#231=VERTEX_POINT('',#852);
#232=VERTEX_POINT('',#856);
#233=VERTEX_POINT('',#860);
#234=VERTEX_POINT('',#864);
#235=VERTEX_POINT('',#865);
#236=VERTEX_POINT('',#867);
#237=VERTEX_POINT('',#869);
#238=VERTEX_POINT('',#874);
#239=VERTEX_POINT('',#876);
#240=VERTEX_POINT('',#882);
#241=VERTEX_POINT('',#884);
#242=VERTEX_POINT('',#890);
#243=EDGE_CURVE('',#203,#203,#159,.T.);
#244=EDGE_CURVE('',#203,#204,#119,.T.);
#245=EDGE_CURVE('',#204,#204,#160,.T.);
#246=EDGE_CURVE('',#205,#206,#161,.T.);
#247=EDGE_CURVE('',#206,#204,#120,.T.);
#248=EDGE_CURVE('',#206,#205,#162,.T.);
#249=EDGE_CURVE('',#207,#207,#163,.T.);
#250=EDGE_CURVE('',#208,#208,#164,.T.);
#251=EDGE_CURVE('',#208,#209,#121,.T.);
#252=EDGE_CURVE('',#209,#209,#165,.T.);
#253=EDGE_CURVE('',#210,#210,#166,.T.);
#254=EDGE_CURVE('',#209,#211,#122,.T.);
#255=EDGE_CURVE('',#211,#211,#167,.T.);
#256=EDGE_CURVE('',#210,#212,#123,.T.);
#257=EDGE_CURVE('',#212,#212,#168,.T.);
#258=EDGE_CURVE('',#212,#213,#124,.T.);
#259=EDGE_CURVE('',#213,#213,#169,.T.);
#260=EDGE_CURVE('',#214,#215,#170,.T.);
#261=EDGE_CURVE('',#215,#216,#171,.T.);
#262=EDGE_CURVE('',#216,#217,#172,.T.);
#263=EDGE_CURVE('',#217,#216,#173,.T.);
#264=EDGE_CURVE('',#215,#214,#174,.T.);
#265=EDGE_CURVE('',#214,#218,#125,.T.);
#266=EDGE_CURVE('',#219,#218,#175,.T.);
#267=EDGE_CURVE('',#218,#219,#176,.T.);
#268=EDGE_CURVE('',#213,#217,#126,.T.);
#269=EDGE_CURVE('',#219,#220,#177,.T.);
#270=EDGE_CURVE('',#220,#221,#178,.T.);
#271=EDGE_CURVE('',#221,#220,#179,.T.);
#272=EDGE_CURVE('',#221,#205,#127,.T.);
#273=EDGE_CURVE('',#222,#222,#180,.T.);
#274=EDGE_CURVE('',#207,#222,#128,.T.);
#275=EDGE_CURVE('',#223,#223,#181,.T.);
#276=EDGE_CURVE('',#223,#224,#129,.T.);
#277=EDGE_CURVE('',#224,#224,#182,.T.);
#278=EDGE_CURVE('',#225,#226,#183,.T.);
#279=EDGE_CURVE('',#226,#224,#130,.T.);
#280=EDGE_CURVE('',#226,#225,#184,.T.);
#281=EDGE_CURVE('',#227,#227,#185,.T.);
#282=EDGE_CURVE('',#228,#228,#186,.T.);
#283=EDGE_CURVE('',#228,#229,#131,.T.);
#284=EDGE_CURVE('',#229,#229,#187,.T.);
#285=EDGE_CURVE('',#230,#230,#188,.T.);
#286=EDGE_CURVE('',#229,#231,#132,.T.);
#287=EDGE_CURVE('',#231,#231,#189,.T.);
#288=EDGE_CURVE('',#230,#232,#133,.T.);
#289=EDGE_CURVE('',#232,#232,#190,.T.);
#290=EDGE_CURVE('',#232,#233,#134,.T.);
#291=EDGE_CURVE('',#233,#233,#191,.T.);
#292=EDGE_CURVE('',#234,#235,#192,.T.);
#293=EDGE_CURVE('',#235,#236,#193,.T.);
#294=EDGE_CURVE('',#236,#237,#194,.T.);
#295=EDGE_CURVE('',#237,#236,#195,.T.);
#296=EDGE_CURVE('',#235,#234,#196,.T.);
#297=EDGE_CURVE('',#234,#238,#135,.T.);
#298=EDGE_CURVE('',#239,#238,#197,.T.);
#299=EDGE_CURVE('',#238,#239,#198,.T.);
#300=EDGE_CURVE('',#233,#237,#136,.T.);
#301=EDGE_CURVE('',#239,#240,#199,.T.);
#302=EDGE_CURVE('',#240,#241,#200,.T.);
#303=EDGE_CURVE('',#241,#240,#201,.T.);
#304=EDGE_CURVE('',#241,#225,#137,.T.);
#305=EDGE_CURVE('',#242,#242,#202,.T.);
#306=EDGE_CURVE('',#227,#242,#138,.T.);
#307=ORIENTED_EDGE('',*,*,#243,.T.);
#308=ORIENTED_EDGE('',*,*,#244,.T.);
#309=ORIENTED_EDGE('',*,*,#245,.T.);
#310=ORIENTED_EDGE('',*,*,#244,.F.);
#311=ORIENTED_EDGE('',*,*,#246,.T.);
#312=ORIENTED_EDGE('',*,*,#247,.T.);
#313=ORIENTED_EDGE('',*,*,#245,.F.);
#314=ORIENTED_EDGE('',*,*,#247,.F.);
#315=ORIENTED_EDGE('',*,*,#248,.T.);
#316=ORIENTED_EDGE('',*,*,#243,.F.);
#317=ORIENTED_EDGE('',*,*,#249,.T.);
#318=ORIENTED_EDGE('',*,*,#250,.T.);
#319=ORIENTED_EDGE('',*,*,#251,.T.);
#320=ORIENTED_EDGE('',*,*,#252,.T.);
#321=ORIENTED_EDGE('',*,*,#251,.F.);
#322=ORIENTED_EDGE('',*,*,#253,.F.);
#323=ORIENTED_EDGE('',*,*,#250,.F.);
#324=ORIENTED_EDGE('',*,*,#252,.F.);
#325=ORIENTED_EDGE('',*,*,#254,.T.);
#326=ORIENTED_EDGE('',*,*,#255,.T.);
#327=ORIENTED_EDGE('',*,*,#254,.F.);
#328=ORIENTED_EDGE('',*,*,#253,.T.);
#329=ORIENTED_EDGE('',*,*,#256,.T.);
#330=ORIENTED_EDGE('',*,*,#257,.T.);
#331=ORIENTED_EDGE('',*,*,#256,.F.);
#332=ORIENTED_EDGE('',*,*,#257,.F.);
#333=ORIENTED_EDGE('',*,*,#258,.T.);
#334=ORIENTED_EDGE('',*,*,#259,.F.);
#335=ORIENTED_EDGE('',*,*,#258,.F.);
#336=ORIENTED_EDGE('',*,*,#260,.T.);
#337=ORIENTED_EDGE('',*,*,#261,.T.);
#338=ORIENTED_EDGE('',*,*,#262,.T.);
#339=ORIENTED_EDGE('',*,*,#263,.T.);
#340=ORIENTED_EDGE('',*,*,#261,.F.);
#341=ORIENTED_EDGE('',*,*,#264,.T.);
#342=ORIENTED_EDGE('',*,*,#260,.F.);
#343=ORIENTED_EDGE('',*,*,#265,.T.);
#344=ORIENTED_EDGE('',*,*,#266,.F.);
#345=ORIENTED_EDGE('',*,*,#267,.F.);
#346=ORIENTED_EDGE('',*,*,#265,.F.);
#347=ORIENTED_EDGE('',*,*,#264,.F.);
#348=ORIENTED_EDGE('',*,*,#259,.T.);
#349=ORIENTED_EDGE('',*,*,#268,.T.);
#350=ORIENTED_EDGE('',*,*,#262,.F.);
#351=ORIENTED_EDGE('',*,*,#263,.F.);
#352=ORIENTED_EDGE('',*,*,#268,.F.);
#353=ORIENTED_EDGE('',*,*,#267,.T.);
#354=ORIENTED_EDGE('',*,*,#269,.T.);
#355=ORIENTED_EDGE('',*,*,#270,.T.);
#356=ORIENTED_EDGE('',*,*,#271,.T.);
#357=ORIENTED_EDGE('',*,*,#269,.F.);
#358=ORIENTED_EDGE('',*,*,#266,.T.);
#359=ORIENTED_EDGE('',*,*,#271,.F.);
#360=ORIENTED_EDGE('',*,*,#272,.T.);
#361=ORIENTED_EDGE('',*,*,#248,.F.);
#362=ORIENTED_EDGE('',*,*,#246,.F.);
#363=ORIENTED_EDGE('',*,*,#272,.F.);
#364=ORIENTED_EDGE('',*,*,#270,.F.);
#365=ORIENTED_EDGE('',*,*,#255,.F.);
#366=ORIENTED_EDGE('',*,*,#273,.F.);
#367=ORIENTED_EDGE('',*,*,#249,.F.);
#368=ORIENTED_EDGE('',*,*,#274,.T.);
#369=ORIENTED_EDGE('',*,*,#273,.T.);
#370=ORIENTED_EDGE('',*,*,#274,.F.);
#371=ORIENTED_EDGE('',*,*,#275,.T.);
#372=ORIENTED_EDGE('',*,*,#276,.T.);
#373=ORIENTED_EDGE('',*,*,#277,.T.);
#374=ORIENTED_EDGE('',*,*,#276,.F.);
#375=ORIENTED_EDGE('',*,*,#278,.T.);
#376=ORIENTED_EDGE('',*,*,#279,.T.);
#377=ORIENTED_EDGE('',*,*,#277,.F.);
#378=ORIENTED_EDGE('',*,*,#279,.F.);
#379=ORIENTED_EDGE('',*,*,#280,.T.);
#380=ORIENTED_EDGE('',*,*,#275,.F.);
#381=ORIENTED_EDGE('',*,*,#281,.T.);
#382=ORIENTED_EDGE('',*,*,#282,.T.);
#383=ORIENTED_EDGE('',*,*,#283,.T.);
#384=ORIENTED_EDGE('',*,*,#284,.T.);
#385=ORIENTED_EDGE('',*,*,#283,.F.);
#386=ORIENTED_EDGE('',*,*,#285,.F.);
#387=ORIENTED_EDGE('',*,*,#282,.F.);
#388=ORIENTED_EDGE('',*,*,#284,.F.);
#389=ORIENTED_EDGE('',*,*,#286,.T.);
#390=ORIENTED_EDGE('',*,*,#287,.T.);
#391=ORIENTED_EDGE('',*,*,#286,.F.);
#392=ORIENTED_EDGE('',*,*,#285,.T.);
#393=ORIENTED_EDGE('',*,*,#288,.T.);
#394=ORIENTED_EDGE('',*,*,#289,.T.);
#395=ORIENTED_EDGE('',*,*,#288,.F.);
#396=ORIENTED_EDGE('',*,*,#289,.F.);
#397=ORIENTED_EDGE('',*,*,#290,.T.);
#398=ORIENTED_EDGE('',*,*,#291,.F.);
#399=ORIENTED_EDGE('',*,*,#290,.F.);
#400=ORIENTED_EDGE('',*,*,#292,.T.);
#401=ORIENTED_EDGE('',*,*,#293,.T.);
#402=ORIENTED_EDGE('',*,*,#294,.T.);
#403=ORIENTED_EDGE('',*,*,#295,.T.);
#404=ORIENTED_EDGE('',*,*,#293,.F.);
#405=ORIENTED_EDGE('',*,*,#296,.T.);
#406=ORIENTED_EDGE('',*,*,#292,.F.);
#407=ORIENTED_EDGE('',*,*,#297,.T.);
#408=ORIENTED_EDGE('',*,*,#298,.F.);
#409=ORIENTED_EDGE('',*,*,#299,.F.);
#410=ORIENTED_EDGE('',*,*,#297,.F.);
#411=ORIENTED_EDGE('',*,*,#296,.F.);
#412=ORIENTED_EDGE('',*,*,#291,.T.);
#413=ORIENTED_EDGE('',*,*,#300,.T.);
#414=ORIENTED_EDGE('',*,*,#294,.F.);
#415=ORIENTED_EDGE('',*,*,#295,.F.);
#416=ORIENTED_EDGE('',*,*,#300,.F.);
#417=ORIENTED_EDGE('',*,*,#299,.T.);
#418=ORIENTED_EDGE('',*,*,#301,.T.);
#419=ORIENTED_EDGE('',*,*,#302,.T.);
#420=ORIENTED_EDGE('',*,*,#303,.T.);
#421=ORIENTED_EDGE('',*,*,#301,.F.);
#422=ORIENTED_EDGE('',*,*,#298,.T.);
#423=ORIENTED_EDGE('',*,*,#303,.F.);
#424=ORIENTED_EDGE('',*,*,#304,.T.);
#425=ORIENTED_EDGE('',*,*,#280,.F.);
#426=ORIENTED_EDGE('',*,*,#278,.F.);
#427=ORIENTED_EDGE('',*,*,#304,.F.);
#428=ORIENTED_EDGE('',*,*,#302,.F.);
#429=ORIENTED_EDGE('',*,*,#287,.F.);
#430=ORIENTED_EDGE('',*,*,#305,.F.);
#431=ORIENTED_EDGE('',*,*,#281,.F.);
#432=ORIENTED_EDGE('',*,*,#306,.T.);
#433=ORIENTED_EDGE('',*,*,#305,.T.);
#434=ORIENTED_EDGE('',*,*,#306,.F.);
#435=CONICAL_SURFACE('',#502,6.5,0.785398163397443);
#436=CONICAL_SURFACE('',#510,3.99999999999999,0.785398163397529);
#437=CONICAL_SURFACE('',#517,6.49999998509886,0.785398163397517);
#438=CONICAL_SURFACE('',#530,6.49999998509884,0.78539816339764);
#439=CONICAL_SURFACE('',#535,6.49999998509884,0.78539816339736);
#440=CONICAL_SURFACE('',#540,6.5,0.785398163397443);
#441=CONICAL_SURFACE('',#548,3.99999999999999,0.785398163397529);
#442=CONICAL_SURFACE('',#555,6.49999998509886,0.785398163397517);
#443=CONICAL_SURFACE('',#568,6.49999998509884,0.78539816339764);
#444=CONICAL_SURFACE('',#573,6.49999998509884,0.78539816339736);
#445=ADVANCED_FACE('',(#53),#435,.T.);
#446=ADVANCED_FACE('',(#54),#43,.T.);
#447=ADVANCED_FACE('',(#55,#31),#37,.T.);
#448=ADVANCED_FACE('',(#56),#436,.F.);
#449=ADVANCED_FACE('',(#57,#32),#38,.T.);
#450=ADVANCED_FACE('',(#58),#44,.F.);
#451=ADVANCED_FACE('',(#59),#437,.T.);
#452=ADVANCED_FACE('',(#60),#45,.T.);
#453=ADVANCED_FACE('',(#61),#27,.F.);
#454=ADVANCED_FACE('',(#62),#46,.T.);
#455=ADVANCED_FACE('',(#63),#438,.T.);
#456=ADVANCED_FACE('',(#64),#28,.F.);
#457=ADVANCED_FACE('',(#65),#439,.T.);
#458=ADVANCED_FACE('',(#66,#33),#39,.T.);
#459=ADVANCED_FACE('',(#67),#47,.F.);
#460=ADVANCED_FACE('',(#68),#440,.T.);
#461=ADVANCED_FACE('',(#69),#48,.T.);
#462=ADVANCED_FACE('',(#70,#34),#40,.T.);
#463=ADVANCED_FACE('',(#71),#441,.F.);
#464=ADVANCED_FACE('',(#72,#35),#41,.T.);
#465=ADVANCED_FACE('',(#73),#49,.F.);
#466=ADVANCED_FACE('',(#74),#442,.T.);
#467=ADVANCED_FACE('',(#75),#50,.T.);
#468=ADVANCED_FACE('',(#76),#29,.F.);
#469=ADVANCED_FACE('',(#77),#51,.T.);
#470=ADVANCED_FACE('',(#78),#443,.T.);
#471=ADVANCED_FACE('',(#79),#30,.F.);
#472=ADVANCED_FACE('',(#80),#444,.T.);
#473=ADVANCED_FACE('',(#81,#36),#42,.T.);
#474=ADVANCED_FACE('',(#82),#52,.F.);
#475=CLOSED_SHELL('',(#445,#446,#447,#448,#449,#450,#451,#452,#453,#454,
#455,#456,#457,#458,#459));
#476=CLOSED_SHELL('',(#460,#461,#462,#463,#464,#465,#466,#467,#468,#469,
#470,#471,#472,#473,#474));
#477=DERIVED_UNIT_ELEMENT(#481,1.);
#478=DERIVED_UNIT_ELEMENT(#905,-3.);
#479=DERIVED_UNIT_ELEMENT(#481,1.);
#480=DERIVED_UNIT_ELEMENT(#905,-3.);
#481=(
MASS_UNIT()
NAMED_UNIT(*)
SI_UNIT(.KILO.,.GRAM.)
);
#482=DERIVED_UNIT((#477,#478));
#483=DERIVED_UNIT((#479,#480));
#484=MEASURE_REPRESENTATION_ITEM('density measure',
POSITIVE_RATIO_MEASURE(7850.),#482);
#485=MEASURE_REPRESENTATION_ITEM('density measure',
POSITIVE_RATIO_MEASURE(7850.),#483);
#486=PROPERTY_DEFINITION_REPRESENTATION(#496,#490);
#487=PROPERTY_DEFINITION_REPRESENTATION(#497,#491);
#488=PROPERTY_DEFINITION_REPRESENTATION(#498,#492);
#489=PROPERTY_DEFINITION_REPRESENTATION(#499,#493);
#490=REPRESENTATION('material name',(#494),#901);
#491=REPRESENTATION('density',(#484),#901);
#492=REPRESENTATION('material name',(#495),#902);
#493=REPRESENTATION('density',(#485),#902);
#494=DESCRIPTIVE_REPRESENTATION_ITEM('Steel','Steel');
#495=DESCRIPTIVE_REPRESENTATION_ITEM('Steel','Steel');
#496=PROPERTY_DEFINITION('material property','material name',#921);
#497=PROPERTY_DEFINITION('material property','density of part',#921);
#498=PROPERTY_DEFINITION('material property','material name',#922);
#499=PROPERTY_DEFINITION('material property','density of part',#922);
#500=AXIS2_PLACEMENT_3D('',#757,#579,#580);
#501=AXIS2_PLACEMENT_3D('',#758,#581,#582);
#502=AXIS2_PLACEMENT_3D('',#759,#583,#584);
#503=AXIS2_PLACEMENT_3D('',#761,#585,#586);
#504=AXIS2_PLACEMENT_3D('',#764,#588,#589);
#505=AXIS2_PLACEMENT_3D('',#765,#590,#591);
#506=AXIS2_PLACEMENT_3D('',#768,#592,#593);
#507=AXIS2_PLACEMENT_3D('',#770,#595,#596);
#508=AXIS2_PLACEMENT_3D('',#771,#597,#598);
#509=AXIS2_PLACEMENT_3D('',#773,#599,#600);
#510=AXIS2_PLACEMENT_3D('',#774,#601,#602);
#511=AXIS2_PLACEMENT_3D('',#776,#603,#604);
#512=AXIS2_PLACEMENT_3D('',#779,#606,#607);
#513=AXIS2_PLACEMENT_3D('',#780,#608,#609);
#514=AXIS2_PLACEMENT_3D('',#782,#610,#611);
#515=AXIS2_PLACEMENT_3D('',#783,#612,#613);
#516=AXIS2_PLACEMENT_3D('',#786,#615,#616);
#517=AXIS2_PLACEMENT_3D('',#787,#617,#618);
#518=AXIS2_PLACEMENT_3D('',#790,#620,#621);
#519=AXIS2_PLACEMENT_3D('',#791,#622,#623);
#520=AXIS2_PLACEMENT_3D('',#794,#625,#626);
#521=AXIS2_PLACEMENT_3D('',#795,#627,#628);
#522=AXIS2_PLACEMENT_3D('',#798,#629,#630);
#523=AXIS2_PLACEMENT_3D('',#800,#631,#632);
#524=AXIS2_PLACEMENT_3D('',#802,#633,#634);
#525=AXIS2_PLACEMENT_3D('',#803,#635,#636);
#526=AXIS2_PLACEMENT_3D('',#804,#637,#638);
#527=AXIS2_PLACEMENT_3D('',#805,#639,#640);
#528=AXIS2_PLACEMENT_3D('',#809,#642,#643);
#529=AXIS2_PLACEMENT_3D('',#810,#644,#645);
#530=AXIS2_PLACEMENT_3D('',#811,#646,#647);
#531=AXIS2_PLACEMENT_3D('',#813,#649,#650);
#532=AXIS2_PLACEMENT_3D('',#815,#651,#652);
#533=AXIS2_PLACEMENT_3D('',#817,#653,#654);
#534=AXIS2_PLACEMENT_3D('',#818,#655,#656);
#535=AXIS2_PLACEMENT_3D('',#819,#657,#658);
#536=AXIS2_PLACEMENT_3D('',#821,#660,#661);
#537=AXIS2_PLACEMENT_3D('',#823,#662,#663);
#538=AXIS2_PLACEMENT_3D('',#824,#664,#665);
#539=AXIS2_PLACEMENT_3D('',#826,#667,#668);
#540=AXIS2_PLACEMENT_3D('',#827,#669,#670);
#541=AXIS2_PLACEMENT_3D('',#829,#671,#672);
#542=AXIS2_PLACEMENT_3D('',#832,#674,#675);
#543=AXIS2_PLACEMENT_3D('',#833,#676,#677);
#544=AXIS2_PLACEMENT_3D('',#836,#678,#679);
#545=AXIS2_PLACEMENT_3D('',#838,#681,#682);
#546=AXIS2_PLACEMENT_3D('',#839,#683,#684);
#547=AXIS2_PLACEMENT_3D('',#841,#685,#686);
#548=AXIS2_PLACEMENT_3D('',#842,#687,#688);
#549=AXIS2_PLACEMENT_3D('',#844,#689,#690);
#550=AXIS2_PLACEMENT_3D('',#847,#692,#693);
#551=AXIS2_PLACEMENT_3D('',#848,#694,#695);
#552=AXIS2_PLACEMENT_3D('',#850,#696,#697);
#553=AXIS2_PLACEMENT_3D('',#851,#698,#699);
#554=AXIS2_PLACEMENT_3D('',#854,#701,#702);
#555=AXIS2_PLACEMENT_3D('',#855,#703,#704);
#556=AXIS2_PLACEMENT_3D('',#858,#706,#707);
#557=AXIS2_PLACEMENT_3D('',#859,#708,#709);
#558=AXIS2_PLACEMENT_3D('',#862,#711,#712);
#559=AXIS2_PLACEMENT_3D('',#863,#713,#714);
#560=AXIS2_PLACEMENT_3D('',#866,#715,#716);
#561=AXIS2_PLACEMENT_3D('',#868,#717,#718);
#562=AXIS2_PLACEMENT_3D('',#870,#719,#720);
#563=AXIS2_PLACEMENT_3D('',#871,#721,#722);
#564=AXIS2_PLACEMENT_3D('',#872,#723,#724);
#565=AXIS2_PLACEMENT_3D('',#873,#725,#726);
#566=AXIS2_PLACEMENT_3D('',#877,#728,#729);
#567=AXIS2_PLACEMENT_3D('',#878,#730,#731);
#568=AXIS2_PLACEMENT_3D('',#879,#732,#733);
#569=AXIS2_PLACEMENT_3D('',#881,#735,#736);
#570=AXIS2_PLACEMENT_3D('',#883,#737,#738);
#571=AXIS2_PLACEMENT_3D('',#885,#739,#740);
#572=AXIS2_PLACEMENT_3D('',#886,#741,#742);
#573=AXIS2_PLACEMENT_3D('',#887,#743,#744);
#574=AXIS2_PLACEMENT_3D('',#889,#746,#747);
#575=AXIS2_PLACEMENT_3D('',#891,#748,#749);
#576=AXIS2_PLACEMENT_3D('',#892,#750,#751);
#577=AXIS2_PLACEMENT_3D('',#894,#753,#754);
#578=AXIS2_PLACEMENT_3D('',#895,#755,#756);
#579=DIRECTION('axis',(0.,0.,1.));
#580=DIRECTION('refdir',(1.,0.,0.));
#581=DIRECTION('axis',(0.,0.,1.));
#582=DIRECTION('refdir',(1.,0.,0.));
#583=DIRECTION('center_axis',(1.,2.57657006841327E-9,2.17124120451068E-25));
#584=DIRECTION('ref_axis',(-2.57657870068121E-9,0.999999999999224,1.24566213355229E-6));
#585=DIRECTION('center_axis',(1.,2.5765788038053E-9,1.54926220461357E-15));
#586=DIRECTION('ref_axis',(-2.57657880380523E-9,0.999999999999224,1.24566213355229E-6));
#587=DIRECTION('',(0.707106783008462,-0.707106779364084,-8.80816141615528E-7));
#588=DIRECTION('center_axis',(-1.,-2.5765788038053E-9,-1.54926220461357E-15));
#589=DIRECTION('ref_axis',(-2.5765786122892E-9,0.999999999999224,1.24566213355229E-6));
#590=DIRECTION('center_axis',(-1.,-2.57657861228959E-9,-1.29282581255424E-15));
#591=DIRECTION('ref_axis',(-2.5765786122892E-9,0.999999999999224,1.24566213355229E-6));
#592=DIRECTION('center_axis',(-1.,-2.5765788038053E-9,-1.54926220469912E-15));
#593=DIRECTION('ref_axis',(-2.5765786122892E-9,0.999999999999224,1.24566213355229E-6));
#594=DIRECTION('',(-1.,-2.57657861228959E-9,-1.29282581255424E-15));
#595=DIRECTION('center_axis',(-1.,-2.5765788038053E-9,-1.54926220469912E-15));
#596=DIRECTION('ref_axis',(-2.5765786122892E-9,0.999999999999224,1.24566213355229E-6));
#597=DIRECTION('center_axis',(-1.,-2.5765788038053E-9,-1.54926220461357E-15));
#598=DIRECTION('ref_axis',(2.5765788038053E-9,-1.,-1.11022309079961E-16));
#599=DIRECTION('center_axis',(1.,2.5765788038053E-9,1.54926220461357E-15));
#600=DIRECTION('ref_axis',(2.5765788038053E-9,-1.,-1.11022305706342E-16));
#601=DIRECTION('center_axis',(1.,2.57657006841374E-9,2.1712412045112E-25));
#602=DIRECTION('ref_axis',(-2.57657886785188E-9,1.,1.1102230907996E-16));
#603=DIRECTION('center_axis',(1.,2.5765788038053E-9,1.54926220469912E-15));
#604=DIRECTION('ref_axis',(-2.5765788038053E-9,1.,1.1102230907996E-16));
#605=DIRECTION('',(-0.707106783008401,0.707106779364694,1.65100233083461E-16));
#606=DIRECTION('center_axis',(-1.,-2.5765788038053E-9,-1.54926220469912E-15));
#607=DIRECTION('ref_axis',(-2.57657895019747E-9,1.,1.1102230907996E-16));
#608=DIRECTION('center_axis',(1.,2.5765788038053E-9,1.54926220469912E-15));
#609=DIRECTION('ref_axis',(-2.57657880380536E-9,0.999999999999999,4.30890382263626E-8));
#610=DIRECTION('center_axis',(-1.,-2.5765788038053E-9,-1.54926220469912E-15));
#611=DIRECTION('ref_axis',(2.57657880380536E-9,-0.999999999999999,-4.30890382263626E-8));
#612=DIRECTION('center_axis',(-1.,-2.57657895019747E-9,-2.96059473255088E-15));
#613=DIRECTION('ref_axis',(-2.57657895019747E-9,1.,1.1102230907996E-16));
#614=DIRECTION('',(-1.,-2.57657895019747E-9,-2.96059473255088E-15));
#615=DIRECTION('center_axis',(-1.,-2.5765788038053E-9,-1.54926220461357E-15));
#616=DIRECTION('ref_axis',(-2.57657895019747E-9,1.,1.1102230907996E-16));
#617=DIRECTION('center_axis',(-1.,-2.57657006841373E-9,-2.17124120451119E-25));
#618=DIRECTION('ref_axis',(2.57657888263193E-9,-0.999999999999999,-4.30890382263626E-8));
#619=DIRECTION('',(-0.707106783008409,0.707106779364686,3.04685512112651E-8));
#620=DIRECTION('center_axis',(1.,2.5765788038053E-9,1.54926220469912E-15));
#621=DIRECTION('ref_axis',(2.57657895019756E-9,-0.999999999999999,-4.30890382263626E-8));
#622=DIRECTION('center_axis',(1.,2.57657895019756E-9,1.11022308987536E-16));
#623=DIRECTION('ref_axis',(2.57657895019756E-9,-0.999999999999999,-4.30890382263626E-8));
#624=DIRECTION('',(-1.,-2.57657895019756E-9,-1.11022308987536E-16));
#625=DIRECTION('center_axis',(-1.,-2.57657876516032E-9,-1.54926220321207E-15));
#626=DIRECTION('ref_axis',(2.57657876516038E-9,-0.999999999999999,-4.30890382263626E-8));
#627=DIRECTION('center_axis',(1.,2.57657876516033E-9,1.59131966718134E-15));
#628=DIRECTION('ref_axis',(1.57898385985897E-15,0.,-1.));
#629=DIRECTION('center_axis',(1.,2.57657876516033E-9,1.59131966718134E-15));
#630=DIRECTION('ref_axis',(2.57657875999449E-9,-0.999999999999999,-4.30890379060431E-8));
#631=DIRECTION('center_axis',(2.57657876516033E-9,-1.,3.81410276610329E-24));
#632=DIRECTION('ref_axis',(-1.48029736861778E-15,0.,1.));
#633=DIRECTION('center_axis',(-1.,-2.57657941664313E-9,-1.11022324963138E-16));
#634=DIRECTION('ref_axis',(2.57657941664313E-9,-0.999999999999999,-4.30890394538933E-8));
#635=DIRECTION('center_axis',(-1.,-2.57657941664313E-9,-1.11022324963138E-16));
#636=DIRECTION('ref_axis',(2.57657941664313E-9,-0.999999999999999,-4.30890394538933E-8));
#637=DIRECTION('center_axis',(1.,2.57657876516033E-9,1.59131966718134E-15));
#638=DIRECTION('ref_axis',(2.57657875999449E-9,-0.999999999999999,-4.30890379060431E-8));
#639=DIRECTION('center_axis',(-1.,-2.57657876516033E-9,-1.59131966718134E-15));
#640=DIRECTION('ref_axis',(2.57657876516039E-9,-0.999999999999999,-4.30890382263626E-8));
#641=DIRECTION('',(-1.,-2.57657876516033E-9,-1.59131966718134E-15));
#642=DIRECTION('center_axis',(-1.,-2.57657876516033E-9,-1.59131966718134E-15));
#643=DIRECTION('ref_axis',(2.57657877155931E-9,-0.999999999999999,-4.308903757647E-8));
#644=DIRECTION('center_axis',(-1.,-2.57657876516033E-9,-1.59131966718134E-15));
#645=DIRECTION('ref_axis',(2.57657877155931E-9,-0.999999999999999,-4.308903757647E-8));
#646=DIRECTION('center_axis',(1.,2.57657006841422E-9,2.17123923235947E-25));
#647=DIRECTION('ref_axis',(2.57657878596922E-9,-0.999999999999999,-4.30890382263626E-8));
#648=DIRECTION('',(-0.707106779364502,-0.707106783008592,-3.04685512112688E-8));
#649=DIRECTION('center_axis',(-1.,-2.57657876516033E-9,-1.59131966718134E-15));
#650=DIRECTION('ref_axis',(-1.57898385985897E-15,0.,1.));
#651=DIRECTION('center_axis',(2.57657876516033E-9,-1.,3.81410276610329E-24));
#652=DIRECTION('ref_axis',(1.48029736861778E-15,0.,-1.));
#653=DIRECTION('center_axis',(1.,2.576578726993E-9,8.00672519185029E-16));
#654=DIRECTION('ref_axis',(2.57657872699303E-9,-0.999999999999999,-4.30890380745948E-8));
#655=DIRECTION('center_axis',(1.,2.576578726993E-9,8.00672519185029E-16));
#656=DIRECTION('ref_axis',(2.57657872699303E-9,-0.999999999999999,-4.30890380745948E-8));
#657=DIRECTION('center_axis',(-1.,-2.57657006841283E-9,-2.17124120451019E-25));
#658=DIRECTION('ref_axis',(2.57657878596922E-9,-0.999999999999999,-4.30890382263626E-8));
#659=DIRECTION('',(-0.70710678300852,0.707106779364574,3.04685512112603E-8));
#660=DIRECTION('center_axis',(1.,2.5765788038053E-9,1.54926220461357E-15));
#661=DIRECTION('ref_axis',(-2.5765788038053E-9,1.,1.11022309079961E-16));
#662=DIRECTION('center_axis',(1.,2.5765788038053E-9,1.54926220461357E-15));
#663=DIRECTION('ref_axis',(2.5765788038053E-9,-1.,-1.11022305706342E-16));
#664=DIRECTION('center_axis',(1.,-2.57657871332811E-9,6.54670081664871E-16));
#665=DIRECTION('ref_axis',(-2.57657871332811E-9,-1.,-1.1102230907996E-16));
#666=DIRECTION('',(1.,-2.57657871332811E-9,6.54670081664871E-16));
#667=DIRECTION('axis',(0.,0.,1.));
#668=DIRECTION('refdir',(1.,0.,0.));
#669=DIRECTION('center_axis',(1.,2.57657006841327E-9,7.69589033306463E-26));
#670=DIRECTION('ref_axis',(-2.57657870068121E-9,0.999999999999224,1.24566213344127E-6));
#671=DIRECTION('center_axis',(1.,2.57657880380529E-9,1.54926220447341E-15));
#672=DIRECTION('ref_axis',(-2.57657880380523E-9,0.999999999999224,1.24566213344127E-6));
#673=DIRECTION('',(0.707106783008462,-0.707106779364084,-8.80816141537024E-7));
#674=DIRECTION('center_axis',(-1.,-2.57657880380529E-9,-1.54926220447341E-15));
#675=DIRECTION('ref_axis',(-2.5765786122892E-9,0.999999999999224,1.24566213344127E-6));
#676=DIRECTION('center_axis',(-1.,-2.57657861228959E-9,-1.29282581241407E-15));
#677=DIRECTION('ref_axis',(-2.5765786122892E-9,0.999999999999224,1.24566213344127E-6));
#678=DIRECTION('center_axis',(-1.,-2.5765788038053E-9,-1.54926220455896E-15));
#679=DIRECTION('ref_axis',(-2.5765786122892E-9,0.999999999999224,1.24566213344127E-6));
#680=DIRECTION('',(-1.,-2.57657861228959E-9,-1.29282581241407E-15));
#681=DIRECTION('center_axis',(-1.,-2.5765788038053E-9,-1.54926220455896E-15));
#682=DIRECTION('ref_axis',(-2.5765786122892E-9,0.999999999999224,1.24566213344127E-6));
#683=DIRECTION('center_axis',(-1.,-2.57657880380529E-9,-1.54926220447341E-15));
#684=DIRECTION('ref_axis',(2.57657880380529E-9,-1.,5.09726816434816E-33));
#685=DIRECTION('center_axis',(1.,2.57657880380529E-9,1.54926220447341E-15));
#686=DIRECTION('ref_axis',(2.57657880380529E-9,-1.,3.373618110314E-24));
#687=DIRECTION('center_axis',(1.,2.57657006841374E-9,7.69589033306463E-26));
#688=DIRECTION('ref_axis',(-2.57657886785187E-9,1.,-3.06031264180528E-31));
#689=DIRECTION('center_axis',(1.,2.5765788038053E-9,1.54926220455896E-15));
#690=DIRECTION('ref_axis',(-2.5765788038053E-9,1.,-2.06806323240335E-31));
#691=DIRECTION('',(-0.707106783008401,0.707106779364694,8.65956055691379E-17));
#692=DIRECTION('center_axis',(-1.,-2.5765788038053E-9,-1.54926220455896E-15));
#693=DIRECTION('ref_axis',(-2.57657895019747E-9,1.,-4.33606188246489E-31));
#694=DIRECTION('center_axis',(1.,2.5765788038053E-9,1.54926220455896E-15));
#695=DIRECTION('ref_axis',(-2.57657880380536E-9,0.999999999999999,4.30890381153403E-8));
#696=DIRECTION('center_axis',(-1.,-2.5765788038053E-9,-1.54926220455896E-15));
#697=DIRECTION('ref_axis',(2.57657880380536E-9,-0.999999999999999,-4.30890381153403E-8));
#698=DIRECTION('center_axis',(-1.,-2.57657895019747E-9,-2.96059473241071E-15));
#699=DIRECTION('ref_axis',(-2.57657895019747E-9,1.,-4.33606188246489E-31));
#700=DIRECTION('',(-1.,-2.57657895019747E-9,-2.96059473241071E-15));
#701=DIRECTION('center_axis',(-1.,-2.57657880380529E-9,-1.54926220447341E-15));
#702=DIRECTION('ref_axis',(-2.57657895019747E-9,1.,-4.33606188246489E-31));
#703=DIRECTION('center_axis',(-1.,-2.57657006841373E-9,-7.69589033306463E-26));
#704=DIRECTION('ref_axis',(2.57657888263193E-9,-0.999999999999999,-4.30890381153403E-8));
#705=DIRECTION('',(-0.707106783008409,0.707106779364686,3.04685511327605E-8));
#706=DIRECTION('center_axis',(1.,2.5765788038053E-9,1.54926220455896E-15));
#707=DIRECTION('ref_axis',(2.57657895019756E-9,-0.999999999999999,-4.30890381153403E-8));
#708=DIRECTION('center_axis',(1.,2.57657895019756E-9,1.1102230884737E-16));
#709=DIRECTION('ref_axis',(2.57657895019756E-9,-0.999999999999999,-4.30890381153403E-8));
#710=DIRECTION('',(-1.,-2.57657895019756E-9,-1.1102230884737E-16));
#711=DIRECTION('center_axis',(-1.,-2.57657876516032E-9,-1.5492622030719E-15));
#712=DIRECTION('ref_axis',(2.57657876516038E-9,-0.999999999999999,-4.30890381153403E-8));
#713=DIRECTION('center_axis',(1.,2.57657876516033E-9,1.59131966704117E-15));
#714=DIRECTION('ref_axis',(1.57898385985897E-15,0.,-1.));
#715=DIRECTION('center_axis',(1.,2.57657876516033E-9,1.59131966704117E-15));
#716=DIRECTION('ref_axis',(2.57657875999448E-9,-0.999999999999999,-4.30890377950208E-8));
#717=DIRECTION('center_axis',(2.57657876516033E-9,-1.,3.81410276610328E-24));
#718=DIRECTION('ref_axis',(-1.48029736861778E-15,0.,1.));
#719=DIRECTION('center_axis',(-1.,-2.57657941664313E-9,-1.11022324822972E-16));
#720=DIRECTION('ref_axis',(2.57657941664313E-9,-0.999999999999999,-4.3089039342871E-8));
#721=DIRECTION('center_axis',(-1.,-2.57657941664313E-9,-1.11022324822972E-16));
#722=DIRECTION('ref_axis',(2.57657941664313E-9,-0.999999999999999,-4.3089039342871E-8));
#723=DIRECTION('center_axis',(1.,2.57657876516033E-9,1.59131966704117E-15));
#724=DIRECTION('ref_axis',(2.57657875999448E-9,-0.999999999999999,-4.30890377950208E-8));
#725=DIRECTION('center_axis',(-1.,-2.57657876516033E-9,-1.59131966704117E-15));
#726=DIRECTION('ref_axis',(2.57657876516039E-9,-0.999999999999999,-4.30890381153403E-8));
#727=DIRECTION('',(-1.,-2.57657876516033E-9,-1.59131966704117E-15));
#728=DIRECTION('center_axis',(-1.,-2.57657876516033E-9,-1.59131966704117E-15));
#729=DIRECTION('ref_axis',(2.57657877155931E-9,-0.999999999999999,-4.30890374654477E-8));
#730=DIRECTION('center_axis',(-1.,-2.57657876516033E-9,-1.59131966704117E-15));
#731=DIRECTION('ref_axis',(2.57657877155931E-9,-0.999999999999999,-4.30890374654477E-8));
#732=DIRECTION('center_axis',(1.,2.57657006841422E-9,7.695870611542E-26));
#733=DIRECTION('ref_axis',(2.57657878596922E-9,-0.999999999999999,-4.30890381153403E-8));
#734=DIRECTION('',(-0.707106779364502,-0.707106783008592,-3.04685511327642E-8));
#735=DIRECTION('center_axis',(-1.,-2.57657876516033E-9,-1.59131966704117E-15));
#736=DIRECTION('ref_axis',(-1.57898385985897E-15,0.,1.));
#737=DIRECTION('center_axis',(2.57657876516033E-9,-1.,3.81410276610328E-24));
#738=DIRECTION('ref_axis',(1.48029736861778E-15,0.,-1.));
#739=DIRECTION('center_axis',(1.,2.576578726993E-9,8.00672519044863E-16));
#740=DIRECTION('ref_axis',(2.57657872699303E-9,-0.999999999999999,-4.30890379635725E-8));
#741=DIRECTION('center_axis',(1.,2.576578726993E-9,8.00672519044863E-16));
#742=DIRECTION('ref_axis',(2.57657872699303E-9,-0.999999999999999,-4.30890379635725E-8));
#743=DIRECTION('center_axis',(-1.,-2.57657006841282E-9,-7.69589033306463E-26));
#744=DIRECTION('ref_axis',(2.57657878596922E-9,-0.999999999999999,-4.30890381153403E-8));
#745=DIRECTION('',(-0.70710678300852,0.707106779364574,3.04685511327557E-8));
#746=DIRECTION('center_axis',(1.,2.57657880380529E-9,1.54926220447341E-15));
#747=DIRECTION('ref_axis',(-2.57657880380529E-9,1.,-1.98279940423479E-34));
#748=DIRECTION('center_axis',(1.,2.57657880380529E-9,1.54926220447341E-15));
#749=DIRECTION('ref_axis',(2.57657880380529E-9,-1.,3.373618110314E-24));
#750=DIRECTION('center_axis',(1.,-2.57657871332811E-9,6.5467008209682E-16));
#751=DIRECTION('ref_axis',(-2.57657871332811E-9,-1.,5.55144245443493E-32));
#752=DIRECTION('',(1.,-2.57657871332811E-9,6.5467008209682E-16));
#753=DIRECTION('',(-1.44943469933679E-17,4.30890381844642E-8,0.999999999999993));
#754=DIRECTION('',(0.999999999999998,-9.34965453663346E-23,-4.81205152184819E-29));
#755=DIRECTION('',(-3.06382993927332E-15,-1.2456621573204E-6,0.999999999999218));
#756=DIRECTION('',(-0.999999999999998,5.15315760760638E-9,3.32056901371252E-15));
#757=CARTESIAN_POINT('',(0.,0.,0.));
#758=CARTESIAN_POINT('',(0.,0.,0.));
#759=CARTESIAN_POINT('Origin',(22.0000009656144,-93.4346926049545,41.1584495334328));
#760=CARTESIAN_POINT('',(21.5000009810739,-99.4346926062381,41.15844205946));
#761=CARTESIAN_POINT('Origin',(21.5000009656144,-93.4346926062428,41.1584495334328));
#762=CARTESIAN_POINT('',(22.5000009836505,-100.434692603661,41.1584408137979));
#763=CARTESIAN_POINT('',(22.0000009823622,-99.9346926049495,41.158441436629));
#764=CARTESIAN_POINT('Origin',(22.5000009656144,-93.4346926036662,41.1584495334328));
#765=CARTESIAN_POINT('Origin',(34.5000009656143,-93.4346925727473,41.1584495334329));
#766=CARTESIAN_POINT('',(23.5000009475782,-86.4346926010897,41.1584498350561));
#767=CARTESIAN_POINT('',(23.5000009836501,-100.434692601084,41.1584408137979));
#768=CARTESIAN_POINT('Origin',(23.5000009656141,-93.4346926010896,41.1584495334328));
#769=CARTESIAN_POINT('',(34.5000009836504,-100.434692572742,41.1584408137979));
#770=CARTESIAN_POINT('Origin',(23.5000009656141,-93.4346926010896,41.1584495334328));
#771=CARTESIAN_POINT('Origin',(21.5000009656144,-93.4346926062842,41.1584495334009));
#772=CARTESIAN_POINT('',(21.5000009616213,-91.8848995397525,41.158456733624));
#773=CARTESIAN_POINT('Origin',(21.500000965615,-93.4348995397525,41.158456733624));
#774=CARTESIAN_POINT('Origin',(36.0000009656147,-93.4348995693832,41.158456733624));
#775=CARTESIAN_POINT('',(36.5000009772092,-97.9348995680949,41.158456733624));
#776=CARTESIAN_POINT('Origin',(36.5000009656146,-93.4348995680949,41.158456733624));
#777=CARTESIAN_POINT('',(35.5000009746328,-96.9348995706715,41.158456733624));
#778=CARTESIAN_POINT('',(36.000000975921,-97.4348995693832,41.158456733624));
#779=CARTESIAN_POINT('Origin',(35.5000009656148,-93.4348995706715,41.158456733624));
#780=CARTESIAN_POINT('Origin',(36.5000009656141,-93.4346925675942,41.1584495334329));
#781=CARTESIAN_POINT('',(36.5000009501546,-87.4346925824953,41.1584497919672));
#782=CARTESIAN_POINT('Origin',(36.5000009656141,-93.4346925675941,41.1584495334329));
#783=CARTESIAN_POINT('Origin',(34.500000965615,-93.434899573248,41.158456733624));
#784=CARTESIAN_POINT('',(25.500000974633,-96.9348995964372,41.158456733624));
#785=CARTESIAN_POINT('',(34.500000974633,-96.934899573248,41.158456733624));
#786=CARTESIAN_POINT('Origin',(25.500000965615,-93.4348995964372,41.158456733624));
#787=CARTESIAN_POINT('Origin',(36.0000009656142,-93.4346925688824,41.1584495334329));
#788=CARTESIAN_POINT('',(35.5000009475782,-86.4346925850719,41.1584498350562));
#789=CARTESIAN_POINT('',(36.0000009488664,-86.9346925837836,41.1584498135117));
#790=CARTESIAN_POINT('Origin',(35.5000009656143,-93.4346925701707,41.1584495334329));
#791=CARTESIAN_POINT('Origin',(34.5000009656143,-93.4346925727473,41.1584495334329));
#792=CARTESIAN_POINT('',(34.5000009475782,-86.4346925876485,41.1584498350562));
#793=CARTESIAN_POINT('',(34.5000009475782,-86.4346925876485,41.1584498350562));
#794=CARTESIAN_POINT('Origin',(34.5000009656143,-93.4346925727473,41.1584495334329));
#795=CARTESIAN_POINT('Origin',(32.8786806220546,-93.4346925769248,41.1584495334329));
#796=CARTESIAN_POINT('',(32.8786806065952,-87.4346925918259,41.1584497919671));
#797=CARTESIAN_POINT('',(32.8786806220546,-93.4346925769248,47.1584495185317));
#798=CARTESIAN_POINT('Origin',(32.8786806220546,-93.4346925769248,41.1584495334329));
#799=CARTESIAN_POINT('',(33.9393407938347,-93.4346925741919,47.5977893467521));
#800=CARTESIAN_POINT('Origin',(32.8786806220546,-93.4346925769248,48.6584495185317));
#801=CARTESIAN_POINT('',(33.9393407772432,-86.9953527608727,41.1584498108979));
#802=CARTESIAN_POINT('Origin',(33.9393407938347,-93.4346925741919,41.1584495334329));
#803=CARTESIAN_POINT('Origin',(33.9393407938347,-93.4346925741919,41.1584495334329));
#804=CARTESIAN_POINT('Origin',(32.8786806220546,-93.4346925769248,41.1584495334329));
#805=CARTESIAN_POINT('Origin',(35.5000009656142,-93.4346925701707,41.1584495334329));
#806=CARTESIAN_POINT('',(25.1213212937144,-87.4346926118133,41.1584497919671));
#807=CARTESIAN_POINT('',(35.5000009501548,-87.4346925850719,41.1584497919671));
#808=CARTESIAN_POINT('',(25.1213213091738,-93.4346925969122,35.158449548334));
#809=CARTESIAN_POINT('Origin',(25.1213213091738,-93.4346925969122,41.1584495334329));
#810=CARTESIAN_POINT('Origin',(25.1213213091738,-93.4346925969122,41.1584495334329));
#811=CARTESIAN_POINT('Origin',(34.0000009656143,-93.4346925740356,41.1584495334329));
#812=CARTESIAN_POINT('',(34.0000009488665,-86.9346925889367,41.1584498135117));
#813=CARTESIAN_POINT('Origin',(25.1213213091738,-93.4346925969122,41.1584495334329));
#814=CARTESIAN_POINT('',(24.0606611373941,-93.4346925996451,34.7191097201139));
#815=CARTESIAN_POINT('Origin',(25.1213213091738,-93.4346925969122,33.658449548334));
#816=CARTESIAN_POINT('',(24.0606611208026,-86.9953527863261,41.1584498108978));
#817=CARTESIAN_POINT('Origin',(24.0606611373941,-93.434692599645,41.1584495334329));
#818=CARTESIAN_POINT('Origin',(24.0606611373941,-93.434692599645,41.1584495334329));
#819=CARTESIAN_POINT('Origin',(24.0000009656142,-93.4346925998014,41.1584495334329));
#820=CARTESIAN_POINT('',(24.0000009488664,-86.9346926147025,41.1584498135116));
#821=CARTESIAN_POINT('Origin',(25.5000009656145,-93.434692595978,41.1584495334009));
#822=CARTESIAN_POINT('',(25.5000009775961,-91.8848995500588,41.158456733624));
#823=CARTESIAN_POINT('Origin',(25.500000965615,-93.4348995809778,41.158456733624));
#824=CARTESIAN_POINT('Origin',(16.0000007806765,-93.4348995255813,41.158456733624));
#825=CARTESIAN_POINT('',(16.0000007846702,-91.8848995255813,41.158456733624));
#826=CARTESIAN_POINT('',(0.,0.,0.));
#827=CARTESIAN_POINT('Origin',(22.0000008651279,-93.4346926049545,41.1584495334328));
#828=CARTESIAN_POINT('',(21.5000008805874,-99.4346926062381,41.15844205946));
#829=CARTESIAN_POINT('Origin',(21.5000008651279,-93.4346926062428,41.1584495334328));
#830=CARTESIAN_POINT('',(22.5000008831639,-100.434692603661,41.1584408137979));
#831=CARTESIAN_POINT('',(22.0000008818756,-99.9346926049495,41.158441436629));
#832=CARTESIAN_POINT('Origin',(22.5000008651279,-93.4346926036662,41.1584495334328));
#833=CARTESIAN_POINT('Origin',(34.5000008651278,-93.4346925727473,41.1584495334329));
#834=CARTESIAN_POINT('',(23.5000008470916,-86.4346926010897,41.1584498350561));
#835=CARTESIAN_POINT('',(23.5000008831636,-100.434692601084,41.1584408137979));
#836=CARTESIAN_POINT('Origin',(23.5000008651275,-93.4346926010896,41.1584495334328));
#837=CARTESIAN_POINT('',(34.5000008831638,-100.434692572742,41.1584408137979));
#838=CARTESIAN_POINT('Origin',(23.5000008651275,-93.4346926010896,41.1584495334328));
#839=CARTESIAN_POINT('Origin',(21.5000008651279,-93.4346926062843,41.1584495334009));
#840=CARTESIAN_POINT('',(21.5000008611347,-91.8848995397525,41.158456733624));
#841=CARTESIAN_POINT('Origin',(21.5000008651284,-93.4348995397525,41.158456733624));
#842=CARTESIAN_POINT('Origin',(36.0000008651281,-93.4348995693832,41.158456733624));
#843=CARTESIAN_POINT('',(36.5000008767227,-97.9348995680949,41.158456733624));
#844=CARTESIAN_POINT('Origin',(36.500000865128,-93.4348995680949,41.158456733624));
#845=CARTESIAN_POINT('',(35.5000008741463,-96.9348995706715,41.158456733624));
#846=CARTESIAN_POINT('',(36.0000008754345,-97.4348995693832,41.158456733624));
#847=CARTESIAN_POINT('Origin',(35.5000008651282,-93.4348995706715,41.158456733624));
#848=CARTESIAN_POINT('Origin',(36.5000008651275,-93.4346925675942,41.158449533433));
#849=CARTESIAN_POINT('',(36.500000849668,-87.4346925824953,41.1584497919672));
#850=CARTESIAN_POINT('Origin',(36.5000008651275,-93.4346925675941,41.158449533433));
#851=CARTESIAN_POINT('Origin',(34.5000008651284,-93.434899573248,41.158456733624));
#852=CARTESIAN_POINT('',(25.5000008741465,-96.9348995964372,41.158456733624));
#853=CARTESIAN_POINT('',(34.5000008741464,-96.934899573248,41.158456733624));
#854=CARTESIAN_POINT('Origin',(25.5000008651284,-93.4348995964372,41.158456733624));
#855=CARTESIAN_POINT('Origin',(36.0000008651276,-93.4346925688824,41.158449533433));
#856=CARTESIAN_POINT('',(35.5000008470916,-86.4346925850719,41.1584498350562));
#857=CARTESIAN_POINT('',(36.0000008483798,-86.9346925837836,41.1584498135117));
#858=CARTESIAN_POINT('Origin',(35.5000008651277,-93.4346925701707,41.158449533433));
#859=CARTESIAN_POINT('Origin',(34.5000008651277,-93.4346925727473,41.158449533433));
#860=CARTESIAN_POINT('',(34.5000008470916,-86.4346925876485,41.1584498350562));
#861=CARTESIAN_POINT('',(34.5000008470916,-86.4346925876485,41.1584498350562));
#862=CARTESIAN_POINT('Origin',(34.5000008651277,-93.4346925727473,41.158449533433));
#863=CARTESIAN_POINT('Origin',(32.8786805215681,-93.4346925769248,41.1584495334329));
#864=CARTESIAN_POINT('',(32.8786805061086,-87.4346925918259,41.1584497919671));
#865=CARTESIAN_POINT('',(32.8786805215681,-93.4346925769248,47.1584495185317));
#866=CARTESIAN_POINT('Origin',(32.8786805215681,-93.4346925769248,41.1584495334329));
#867=CARTESIAN_POINT('',(33.9393406933481,-93.4346925741919,47.5977893467521));
#868=CARTESIAN_POINT('Origin',(32.8786805215681,-93.4346925769248,48.6584495185318));
#869=CARTESIAN_POINT('',(33.9393406767566,-86.9953527608727,41.1584498108979));
#870=CARTESIAN_POINT('Origin',(33.9393406933481,-93.4346925741919,41.1584495334329));
#871=CARTESIAN_POINT('Origin',(33.9393406933481,-93.4346925741919,41.1584495334329));
#872=CARTESIAN_POINT('Origin',(32.8786805215681,-93.4346925769248,41.1584495334329));
#873=CARTESIAN_POINT('Origin',(35.5000008651277,-93.4346925701707,41.1584495334329));
#874=CARTESIAN_POINT('',(25.1213211932278,-87.4346926118134,41.1584497919671));
#875=CARTESIAN_POINT('',(35.5000008496682,-87.4346925850719,41.1584497919671));
#876=CARTESIAN_POINT('',(25.1213212086873,-93.4346925969122,35.158449548334));
#877=CARTESIAN_POINT('Origin',(25.1213212086873,-93.4346925969122,41.1584495334329));
#878=CARTESIAN_POINT('Origin',(25.1213212086873,-93.4346925969122,41.1584495334329));
#879=CARTESIAN_POINT('Origin',(34.0000008651277,-93.4346925740356,41.1584495334329));
#880=CARTESIAN_POINT('',(34.0000008483799,-86.9346925889367,41.1584498135117));
#881=CARTESIAN_POINT('Origin',(25.1213212086873,-93.4346925969122,41.1584495334329));
#882=CARTESIAN_POINT('',(24.0606610369075,-93.4346925996451,34.7191097201139));
#883=CARTESIAN_POINT('Origin',(25.1213212086873,-93.4346925969122,33.658449548334));
#884=CARTESIAN_POINT('',(24.0606610203161,-86.9953527863261,41.1584498108978));
#885=CARTESIAN_POINT('Origin',(24.0606610369075,-93.4346925996451,41.1584495334329));
#886=CARTESIAN_POINT('Origin',(24.0606610369075,-93.4346925996451,41.1584495334329));
#887=CARTESIAN_POINT('Origin',(24.0000008651276,-93.4346925998014,41.1584495334329));
#888=CARTESIAN_POINT('',(24.0000008483798,-86.9346926147025,41.1584498135116));
#889=CARTESIAN_POINT('Origin',(25.5000008651279,-93.434692595978,41.1584495334009));
#890=CARTESIAN_POINT('',(25.5000008771095,-91.8848995500588,41.158456733624));
#891=CARTESIAN_POINT('Origin',(25.5000008651284,-93.4348995809778,41.158456733624));
#892=CARTESIAN_POINT('Origin',(16.0000006801899,-93.4348995255813,41.158456733624));
#893=CARTESIAN_POINT('',(16.0000006841836,-91.8848995255813,41.158456733624));
#894=CARTESIAN_POINT('',(1.3147546606973E-7,28.972876063021,2.99419781413235E-6));
#895=CARTESIAN_POINT('',(-4.8148476317067E-7,-186.869747825361,-0.000109368068805793));
#896=UNCERTAINTY_MEASURE_WITH_UNIT(LENGTH_MEASURE(0.01),#904,
'DISTANCE_ACCURACY_VALUE',
'Maximum model space distance between geometric entities at asserted c
onnectivities');
#897=UNCERTAINTY_MEASURE_WITH_UNIT(LENGTH_MEASURE(0.01),#904,
'DISTANCE_ACCURACY_VALUE',
'Maximum model space distance between geometric entities at asserted c
onnectivities');
#898=UNCERTAINTY_MEASURE_WITH_UNIT(LENGTH_MEASURE(0.01),#904,
'DISTANCE_ACCURACY_VALUE',
'Maximum model space distance between geometric entities at asserted c
onnectivities');
#899=UNCERTAINTY_MEASURE_WITH_UNIT(LENGTH_MEASURE(0.01),#904,
'DISTANCE_ACCURACY_VALUE',
'Maximum model space distance between geometric entities at asserted c
onnectivities');
#900=(
GEOMETRIC_REPRESENTATION_CONTEXT(3)
GLOBAL_UNCERTAINTY_ASSIGNED_CONTEXT((#896))
GLOBAL_UNIT_ASSIGNED_CONTEXT((#904,#906,#907))
REPRESENTATION_CONTEXT('','3D')
);
#901=(
GEOMETRIC_REPRESENTATION_CONTEXT(3)
GLOBAL_UNCERTAINTY_ASSIGNED_CONTEXT((#897))
GLOBAL_UNIT_ASSIGNED_CONTEXT((#904,#906,#907))
REPRESENTATION_CONTEXT('','3D')
);
#902=(
GEOMETRIC_REPRESENTATION_CONTEXT(3)
GLOBAL_UNCERTAINTY_ASSIGNED_CONTEXT((#898))
GLOBAL_UNIT_ASSIGNED_CONTEXT((#904,#906,#907))
REPRESENTATION_CONTEXT('','3D')
);
#903=(
GEOMETRIC_REPRESENTATION_CONTEXT(3)
GLOBAL_UNCERTAINTY_ASSIGNED_CONTEXT((#899))
GLOBAL_UNIT_ASSIGNED_CONTEXT((#904,#906,#907))
REPRESENTATION_CONTEXT('','3D')
);
#904=(
LENGTH_UNIT()
NAMED_UNIT(*)
SI_UNIT(.MILLI.,.METRE.)
);
#905=(
LENGTH_UNIT()
NAMED_UNIT(*)
SI_UNIT($,.METRE.)
);
#906=(
NAMED_UNIT(*)
PLANE_ANGLE_UNIT()
SI_UNIT($,.RADIAN.)
);
#907=(
NAMED_UNIT(*)
SI_UNIT($,.STERADIAN.)
SOLID_ANGLE_UNIT()
);
#908=SHAPE_DEFINITION_REPRESENTATION(#911,#916);
#909=SHAPE_DEFINITION_REPRESENTATION(#912,#917);
#910=SHAPE_DEFINITION_REPRESENTATION(#913,#918);
#911=PRODUCT_DEFINITION_SHAPE('',$,#920);
#912=PRODUCT_DEFINITION_SHAPE('',$,#921);
#913=PRODUCT_DEFINITION_SHAPE('',$,#922);
#914=PRODUCT_DEFINITION_SHAPE($,$,#17);
#915=PRODUCT_DEFINITION_SHAPE($,$,#18);
#916=SHAPE_REPRESENTATION('',(#500,#577,#578),#900);
#917=SHAPE_REPRESENTATION('',(#501),#901);
#918=SHAPE_REPRESENTATION('',(#539),#902);
#919=PRODUCT_DEFINITION_CONTEXT('part definition',#930,'design');
#920=PRODUCT_DEFINITION('28. Bolt Handle','28. Bolt Handle',#923,#919);
#921=PRODUCT_DEFINITION('28. Bolt Handle (1)','28. Bolt Handle (1)',#924,
#919);
#922=PRODUCT_DEFINITION('28. Bolt Handle (2)','28. Bolt Handle (2)',#925,
#919);
#923=PRODUCT_DEFINITION_FORMATION('',$,#932);
#924=PRODUCT_DEFINITION_FORMATION('',$,#933);
#925=PRODUCT_DEFINITION_FORMATION('',$,#934);
#926=PRODUCT_RELATED_PRODUCT_CATEGORY('28. Bolt Handle',
'28. Bolt Handle',(#932));
#927=PRODUCT_RELATED_PRODUCT_CATEGORY('28. Bolt Handle (1)',
'28. Bolt Handle (1)',(#933));
#928=PRODUCT_RELATED_PRODUCT_CATEGORY('28. Bolt Handle (2)',
'28. Bolt Handle (2)',(#934));
#929=APPLICATION_PROTOCOL_DEFINITION('international standard',
'automotive_design',2009,#930);
#930=APPLICATION_CONTEXT(
'Core Data for Automotive Mechanical Design Process');
#931=PRODUCT_CONTEXT('part definition',#930,'mechanical');
#932=PRODUCT('28. Bolt Handle','28. Bolt Handle',$,(#931));
#933=PRODUCT('28. Bolt Handle (1)','28. Bolt Handle (1)',$,(#931));
#934=PRODUCT('28. Bolt Handle (2)','28. Bolt Handle (2)',$,(#931));
#935=PRESENTATION_STYLE_ASSIGNMENT((#937));
#936=PRESENTATION_STYLE_ASSIGNMENT((#938));
#937=SURFACE_STYLE_USAGE(.BOTH.,#939);
#938=SURFACE_STYLE_USAGE(.BOTH.,#940);
#939=SURFACE_SIDE_STYLE('',(#941));
#940=SURFACE_SIDE_STYLE('',(#942));
#941=SURFACE_STYLE_FILL_AREA(#943);
#942=SURFACE_STYLE_FILL_AREA(#944);
#943=FILL_AREA_STYLE('Steel - Satin',(#945));
#944=FILL_AREA_STYLE('Plastic - Matte (Black) (1)',(#946));
#945=FILL_AREA_STYLE_COLOUR('Steel - Satin',#947);
#946=FILL_AREA_STYLE_COLOUR('Plastic - Matte (Black) (1)',#948);
#947=COLOUR_RGB('Steel - Satin',0.627450980392157,0.627450980392157,0.627450980392157);
#948=COLOUR_RGB('Plastic - Matte (Black) (1)',0.0980392156862745,0.0980392156862745,
0.0980392156862745);
ENDSEC;
END-ISO-10303-21;
