ISO-10303-21;
HEADER;
/* Generated by software containing ST-Developer
 * from STEP Tools, Inc. (www.steptools.com) 
 */

FILE_DESCRIPTION(
/* description */ (''),
/* implementation_level */ '2;1');

FILE_NAME(
/* name */ '29. Front Lock.step',
/* time_stamp */ '2025-10-08T23:25:48+01:00',
/* author */ (''),
/* organization */ (''),
/* preprocessor_version */ 'ST-DEVELOPER v20.1',
/* originating_system */ 'Autodesk Translation Framework v14.10.0.0',
/* authorisation */ '');

FILE_SCHEMA (('AUTOMOTIVE_DESIGN { 1 0 10303 214 3 1 1 }'));
ENDSEC;

DATA;
#10=MECHANICAL_DESIGN_GEOMETRIC_PRESENTATION_REPRESENTATION('',(#13),#1610);
#11=SHAPE_REPRESENTATION_RELATIONSHIP('SRR','None',#1617,#12);
#12=ADVANCED_BREP_SHAPE_REPRESENTATION('',(#14),#1609);
#13=STYLED_ITEM('',(#1627),#14);
#14=MANIFOLD_SOLID_BREP('29. Front Lock',#968);
#15=ELLIPSE('',#1012,2.3334523779156,1.65);
#16=ELLIPSE('',#1013,2.3334523779156,1.65);
#17=ELLIPSE('',#1014,2.3334523779156,1.65);
#18=ELLIPSE('',#1015,2.3334523779156,1.65);
#19=CYLINDRICAL_SURFACE('',#990,2.8);
#20=CYLINDRICAL_SURFACE('',#996,2.8);
#21=CYLINDRICAL_SURFACE('',#1016,1.49999999999999);
#22=CYLINDRICAL_SURFACE('',#1051,1.65);
#23=CYLINDRICAL_SURFACE('',#1054,1.49999999999999);
#24=CYLINDRICAL_SURFACE('',#1060,1.65);
#25=FACE_BOUND('',#108,.T.);
#26=FACE_BOUND('',#109,.T.);
#27=FACE_BOUND('',#121,.T.);
#28=FACE_BOUND('',#152,.T.);
#29=FACE_BOUND('',#155,.T.);
#30=CIRCLE('',#984,2.8);
#31=CIRCLE('',#985,2.8);
#32=CIRCLE('',#991,2.8);
#33=CIRCLE('',#992,2.8);
#34=CIRCLE('',#993,2.8);
#35=CIRCLE('',#994,2.8);
#36=CIRCLE('',#995,2.8);
#37=CIRCLE('',#997,2.8);
#38=CIRCLE('',#998,2.8);
#39=CIRCLE('',#999,2.8);
#40=CIRCLE('',#1000,2.8);
#41=CIRCLE('',#1001,2.8);
#42=CIRCLE('',#1005,1.49999999999999);
#43=CIRCLE('',#1008,1.49999999999999);
#44=CIRCLE('',#1019,1.65);
#45=CIRCLE('',#1020,1.65);
#46=CIRCLE('',#1023,1.65);
#47=CIRCLE('',#1025,1.65);
#48=CIRCLE('',#1027,1.65);
#49=CIRCLE('',#1029,1.65);
#50=CIRCLE('',#1032,1.65);
#51=CIRCLE('',#1034,1.65);
#52=CIRCLE('',#1036,1.65);
#53=CIRCLE('',#1038,1.65);
#54=CIRCLE('',#1053,1.49999999999999);
#55=CIRCLE('',#1055,1.49999999999999);
#56=FACE_OUTER_BOUND('',#106,.T.);
#57=FACE_OUTER_BOUND('',#107,.T.);
#58=FACE_OUTER_BOUND('',#110,.T.);
#59=FACE_OUTER_BOUND('',#111,.T.);
#60=FACE_OUTER_BOUND('',#112,.T.);
#61=FACE_OUTER_BOUND('',#113,.T.);
#62=FACE_OUTER_BOUND('',#114,.T.);
#63=FACE_OUTER_BOUND('',#115,.T.);
#64=FACE_OUTER_BOUND('',#116,.T.);
#65=FACE_OUTER_BOUND('',#117,.T.);
#66=FACE_OUTER_BOUND('',#118,.T.);
#67=FACE_OUTER_BOUND('',#119,.T.);
#68=FACE_OUTER_BOUND('',#120,.T.);
#69=FACE_OUTER_BOUND('',#122,.T.);
#70=FACE_OUTER_BOUND('',#123,.T.);
#71=FACE_OUTER_BOUND('',#124,.T.);
#72=FACE_OUTER_BOUND('',#125,.T.);
#73=FACE_OUTER_BOUND('',#126,.T.);
#74=FACE_OUTER_BOUND('',#127,.T.);
#75=FACE_OUTER_BOUND('',#128,.T.);
#76=FACE_OUTER_BOUND('',#129,.T.);
#77=FACE_OUTER_BOUND('',#130,.T.);
#78=FACE_OUTER_BOUND('',#131,.T.);
#79=FACE_OUTER_BOUND('',#132,.T.);
#80=FACE_OUTER_BOUND('',#133,.T.);
#81=FACE_OUTER_BOUND('',#134,.T.);
#82=FACE_OUTER_BOUND('',#135,.T.);
#83=FACE_OUTER_BOUND('',#136,.T.);
#84=FACE_OUTER_BOUND('',#137,.T.);
#85=FACE_OUTER_BOUND('',#138,.T.);
#86=FACE_OUTER_BOUND('',#139,.T.);
#87=FACE_OUTER_BOUND('',#140,.T.);
#88=FACE_OUTER_BOUND('',#141,.T.);
#89=FACE_OUTER_BOUND('',#142,.T.);
#90=FACE_OUTER_BOUND('',#143,.T.);
#91=FACE_OUTER_BOUND('',#144,.T.);
#92=FACE_OUTER_BOUND('',#145,.T.);
#93=FACE_OUTER_BOUND('',#146,.T.);
#94=FACE_OUTER_BOUND('',#147,.T.);
#95=FACE_OUTER_BOUND('',#148,.T.);
#96=FACE_OUTER_BOUND('',#149,.T.);
#97=FACE_OUTER_BOUND('',#150,.T.);
#98=FACE_OUTER_BOUND('',#151,.T.);
#99=FACE_OUTER_BOUND('',#153,.T.);
#100=FACE_OUTER_BOUND('',#154,.T.);
#101=FACE_OUTER_BOUND('',#156,.T.);
#102=FACE_OUTER_BOUND('',#157,.T.);
#103=FACE_OUTER_BOUND('',#158,.T.);
#104=FACE_OUTER_BOUND('',#159,.T.);
#105=FACE_OUTER_BOUND('',#160,.T.);
#106=EDGE_LOOP('',(#600,#601,#602,#603));
#107=EDGE_LOOP('',(#604,#605,#606,#607,#608,#609,#610,#611,#612,#613));
#108=EDGE_LOOP('',(#614));
#109=EDGE_LOOP('',(#615));
#110=EDGE_LOOP('',(#616,#617,#618,#619));
#111=EDGE_LOOP('',(#620,#621,#622,#623));
#112=EDGE_LOOP('',(#624,#625,#626,#627));
#113=EDGE_LOOP('',(#628,#629,#630,#631));
#114=EDGE_LOOP('',(#632,#633,#634,#635,#636,#637,#638,#639,#640,#641,#642,
#643));
#115=EDGE_LOOP('',(#644,#645,#646,#647,#648,#649,#650,#651,#652,#653,#654,
#655));
#116=EDGE_LOOP('',(#656,#657,#658,#659));
#117=EDGE_LOOP('',(#660,#661,#662,#663));
#118=EDGE_LOOP('',(#664));
#119=EDGE_LOOP('',(#665,#666,#667,#668,#669));
#120=EDGE_LOOP('',(#670,#671,#672,#673,#674));
#121=EDGE_LOOP('',(#675));
#122=EDGE_LOOP('',(#676,#677,#678,#679));
#123=EDGE_LOOP('',(#680,#681,#682,#683));
#124=EDGE_LOOP('',(#684,#685,#686,#687,#688,#689,#690,#691,#692,#693,#694,
#695,#696,#697,#698,#699,#700,#701,#702,#703));
#125=EDGE_LOOP('',(#704,#705,#706,#707));
#126=EDGE_LOOP('',(#708,#709,#710,#711,#712));
#127=EDGE_LOOP('',(#713,#714,#715,#716,#717,#718,#719,#720,#721,#722,#723,
#724));
#128=EDGE_LOOP('',(#725,#726,#727,#728,#729));
#129=EDGE_LOOP('',(#730,#731,#732));
#130=EDGE_LOOP('',(#733,#734,#735));
#131=EDGE_LOOP('',(#736,#737,#738));
#132=EDGE_LOOP('',(#739,#740,#741));
#133=EDGE_LOOP('',(#742,#743,#744,#745,#746));
#134=EDGE_LOOP('',(#747,#748,#749));
#135=EDGE_LOOP('',(#750,#751,#752));
#136=EDGE_LOOP('',(#753,#754,#755));
#137=EDGE_LOOP('',(#756,#757,#758));
#138=EDGE_LOOP('',(#759,#760,#761,#762,#763));
#139=EDGE_LOOP('',(#764,#765,#766,#767,#768));
#140=EDGE_LOOP('',(#769,#770,#771,#772));
#141=EDGE_LOOP('',(#773,#774,#775,#776,#777));
#142=EDGE_LOOP('',(#778,#779,#780,#781));
#143=EDGE_LOOP('',(#782,#783,#784,#785,#786,#787,#788,#789,#790));
#144=EDGE_LOOP('',(#791,#792,#793,#794,#795,#796,#797,#798,#799));
#145=EDGE_LOOP('',(#800,#801,#802,#803,#804));
#146=EDGE_LOOP('',(#805,#806,#807,#808,#809,#810,#811,#812,#813));
#147=EDGE_LOOP('',(#814,#815,#816,#817,#818,#819,#820,#821,#822));
#148=EDGE_LOOP('',(#823,#824));
#149=EDGE_LOOP('',(#825,#826));
#150=EDGE_LOOP('',(#827,#828,#829,#830,#831,#832,#833,#834,#835));
#151=EDGE_LOOP('',(#836,#837,#838,#839,#840));
#152=EDGE_LOOP('',(#841));
#153=EDGE_LOOP('',(#842,#843,#844,#845));
#154=EDGE_LOOP('',(#846,#847,#848,#849));
#155=EDGE_LOOP('',(#850));
#156=EDGE_LOOP('',(#851,#852,#853,#854,#855));
#157=EDGE_LOOP('',(#856,#857));
#158=EDGE_LOOP('',(#858,#859,#860,#861,#862));
#159=EDGE_LOOP('',(#863,#864,#865,#866,#867,#868,#869,#870,#871));
#160=EDGE_LOOP('',(#872,#873));
#161=LINE('',#1335,#268);
#162=LINE('',#1337,#269);
#163=LINE('',#1339,#270);
#164=LINE('',#1340,#271);
#165=LINE('',#1343,#272);
#166=LINE('',#1345,#273);
#167=LINE('',#1347,#274);
#168=LINE('',#1349,#275);
#169=LINE('',#1351,#276);
#170=LINE('',#1353,#277);
#171=LINE('',#1355,#278);
#172=LINE('',#1357,#279);
#173=LINE('',#1358,#280);
#174=LINE('',#1365,#281);
#175=LINE('',#1366,#282);
#176=LINE('',#1369,#283);
#177=LINE('',#1370,#284);
#178=LINE('',#1373,#285);
#179=LINE('',#1374,#286);
#180=LINE('',#1377,#287);
#181=LINE('',#1378,#288);
#182=LINE('',#1381,#289);
#183=LINE('',#1385,#290);
#184=LINE('',#1389,#291);
#185=LINE('',#1393,#292);
#186=LINE('',#1397,#293);
#187=LINE('',#1401,#294);
#188=LINE('',#1405,#295);
#189=LINE('',#1409,#296);
#190=LINE('',#1413,#297);
#191=LINE('',#1417,#298);
#192=LINE('',#1421,#299);
#193=LINE('',#1422,#300);
#194=LINE('',#1425,#301);
#195=LINE('',#1426,#302);
#196=LINE('',#1433,#303);
#197=LINE('',#1435,#304);
#198=LINE('',#1437,#305);
#199=LINE('',#1439,#306);
#200=LINE('',#1440,#307);
#201=LINE('',#1443,#308);
#202=LINE('',#1445,#309);
#203=LINE('',#1447,#310);
#204=LINE('',#1448,#311);
#205=LINE('',#1453,#312);
#206=LINE('',#1454,#313);
#207=LINE('',#1457,#314);
#208=LINE('',#1458,#315);
#209=LINE('',#1461,#316);
#210=LINE('',#1463,#317);
#211=LINE('',#1469,#318);
#212=LINE('',#1470,#319);
#213=LINE('',#1472,#320);
#214=LINE('',#1478,#321);
#215=LINE('',#1479,#322);
#216=LINE('',#1481,#323);
#217=LINE('',#1484,#324);
#218=LINE('',#1485,#325);
#219=LINE('',#1487,#326);
#220=LINE('',#1490,#327);
#221=LINE('',#1492,#328);
#222=LINE('',#1493,#329);
#223=LINE('',#1498,#330);
#224=LINE('',#1500,#331);
#225=LINE('',#1502,#332);
#226=LINE('',#1504,#333);
#227=LINE('',#1505,#334);
#228=LINE('',#1511,#335);
#229=LINE('',#1512,#336);
#230=LINE('',#1515,#337);
#231=LINE('',#1519,#338);
#232=LINE('',#1522,#339);
#233=LINE('',#1523,#340);
#234=LINE('',#1527,#341);
#235=LINE('',#1529,#342);
#236=LINE('',#1530,#343);
#237=LINE('',#1536,#344);
#238=LINE('',#1537,#345);
#239=LINE('',#1542,#346);
#240=LINE('',#1543,#347);
#241=LINE('',#1548,#348);
#242=LINE('',#1549,#349);
#243=LINE('',#1552,#350);
#244=LINE('',#1553,#351);
#245=LINE('',#1558,#352);
#246=LINE('',#1559,#353);
#247=LINE('',#1560,#354);
#248=LINE('',#1564,#355);
#249=LINE('',#1565,#356);
#250=LINE('',#1566,#357);
#251=LINE('',#1568,#358);
#252=LINE('',#1569,#359);
#253=LINE('',#1571,#360);
#254=LINE('',#1572,#361);
#255=LINE('',#1574,#362);
#256=LINE('',#1575,#363);
#257=LINE('',#1577,#364);
#258=LINE('',#1579,#365);
#259=LINE('',#1581,#366);
#260=LINE('',#1582,#367);
#261=LINE('',#1584,#368);
#262=LINE('',#1586,#369);
#263=LINE('',#1590,#370);
#264=LINE('',#1597,#371);
#265=LINE('',#1599,#372);
#266=LINE('',#1600,#373);
#267=LINE('',#1605,#374);
#268=VECTOR('',#1066,10.);
#269=VECTOR('',#1067,10.);
#270=VECTOR('',#1068,10.);
#271=VECTOR('',#1069,10.);
#272=VECTOR('',#1072,10.);
#273=VECTOR('',#1073,10.);
#274=VECTOR('',#1074,10.);
#275=VECTOR('',#1075,10.);
#276=VECTOR('',#1076,10.);
#277=VECTOR('',#1077,10.);
#278=VECTOR('',#1078,10.);
#279=VECTOR('',#1079,10.);
#280=VECTOR('',#1080,10.);
#281=VECTOR('',#1087,10.);
#282=VECTOR('',#1088,10.);
#283=VECTOR('',#1091,10.);
#284=VECTOR('',#1092,10.);
#285=VECTOR('',#1095,10.);
#286=VECTOR('',#1096,10.);
#287=VECTOR('',#1099,10.);
#288=VECTOR('',#1100,10.);
#289=VECTOR('',#1103,2.8);
#290=VECTOR('',#1106,10.);
#291=VECTOR('',#1109,10.);
#292=VECTOR('',#1112,10.);
#293=VECTOR('',#1115,10.);
#294=VECTOR('',#1120,2.8);
#295=VECTOR('',#1123,10.);
#296=VECTOR('',#1126,10.);
#297=VECTOR('',#1129,10.);
#298=VECTOR('',#1132,10.);
#299=VECTOR('',#1137,10.);
#300=VECTOR('',#1138,10.);
#301=VECTOR('',#1141,10.);
#302=VECTOR('',#1142,10.);
#303=VECTOR('',#1149,10.);
#304=VECTOR('',#1150,10.);
#305=VECTOR('',#1151,10.);
#306=VECTOR('',#1152,10.);
#307=VECTOR('',#1153,10.);
#308=VECTOR('',#1156,10.);
#309=VECTOR('',#1157,10.);
#310=VECTOR('',#1158,10.);
#311=VECTOR('',#1159,10.);
#312=VECTOR('',#1164,10.);
#313=VECTOR('',#1165,10.);
#314=VECTOR('',#1168,10.);
#315=VECTOR('',#1169,10.);
#316=VECTOR('',#1172,10.);
#317=VECTOR('',#1173,10.);
#318=VECTOR('',#1178,10.);
#319=VECTOR('',#1179,10.);
#320=VECTOR('',#1180,10.);
#321=VECTOR('',#1185,10.);
#322=VECTOR('',#1186,10.);
#323=VECTOR('',#1189,1.49999999999999);
#324=VECTOR('',#1192,10.);
#325=VECTOR('',#1193,10.);
#326=VECTOR('',#1196,10.);
#327=VECTOR('',#1199,10.);
#328=VECTOR('',#1200,10.);
#329=VECTOR('',#1201,10.);
#330=VECTOR('',#1206,10.);
#331=VECTOR('',#1207,10.);
#332=VECTOR('',#1208,10.);
#333=VECTOR('',#1209,10.);
#334=VECTOR('',#1210,10.);
#335=VECTOR('',#1215,10.);
#336=VECTOR('',#1216,10.);
#337=VECTOR('',#1221,10.);
#338=VECTOR('',#1226,10.);
#339=VECTOR('',#1229,10.);
#340=VECTOR('',#1230,10.);
#341=VECTOR('',#1235,10.);
#342=VECTOR('',#1236,10.);
#343=VECTOR('',#1237,10.);
#344=VECTOR('',#1242,10.);
#345=VECTOR('',#1243,10.);
#346=VECTOR('',#1248,10.);
#347=VECTOR('',#1249,10.);
#348=VECTOR('',#1254,10.);
#349=VECTOR('',#1255,10.);
#350=VECTOR('',#1258,10.);
#351=VECTOR('',#1259,10.);
#352=VECTOR('',#1264,10.);
#353=VECTOR('',#1265,10.);
#354=VECTOR('',#1266,10.);
#355=VECTOR('',#1269,10.);
#356=VECTOR('',#1270,10.);
#357=VECTOR('',#1271,10.);
#358=VECTOR('',#1274,10.);
#359=VECTOR('',#1275,10.);
#360=VECTOR('',#1278,10.);
#361=VECTOR('',#1279,10.);
#362=VECTOR('',#1282,10.);
#363=VECTOR('',#1283,10.);
#364=VECTOR('',#1286,10.);
#365=VECTOR('',#1289,10.);
#366=VECTOR('',#1292,10.);
#367=VECTOR('',#1293,10.);
#368=VECTOR('',#1296,10.);
#369=VECTOR('',#1299,10.);
#370=VECTOR('',#1306,1.65);
#371=VECTOR('',#1315,1.49999999999999);
#372=VECTOR('',#1318,10.);
#373=VECTOR('',#1319,10.);
#374=VECTOR('',#1328,1.65);
#375=VERTEX_POINT('',#1333);
#376=VERTEX_POINT('',#1334);
#377=VERTEX_POINT('',#1336);
#378=VERTEX_POINT('',#1338);
#379=VERTEX_POINT('',#1342);
#380=VERTEX_POINT('',#1344);
#381=VERTEX_POINT('',#1346);
#382=VERTEX_POINT('',#1348);
#383=VERTEX_POINT('',#1350);
#384=VERTEX_POINT('',#1352);
#385=VERTEX_POINT('',#1354);
#386=VERTEX_POINT('',#1356);
#387=VERTEX_POINT('',#1359);
#388=VERTEX_POINT('',#1361);
#389=VERTEX_POINT('',#1364);
#390=VERTEX_POINT('',#1368);
#391=VERTEX_POINT('',#1372);
#392=VERTEX_POINT('',#1376);
#393=VERTEX_POINT('',#1380);
#394=VERTEX_POINT('',#1382);
#395=VERTEX_POINT('',#1384);
#396=VERTEX_POINT('',#1386);
#397=VERTEX_POINT('',#1388);
#398=VERTEX_POINT('',#1390);
#399=VERTEX_POINT('',#1392);
#400=VERTEX_POINT('',#1394);
#401=VERTEX_POINT('',#1396);
#402=VERTEX_POINT('',#1400);
#403=VERTEX_POINT('',#1402);
#404=VERTEX_POINT('',#1404);
#405=VERTEX_POINT('',#1406);
#406=VERTEX_POINT('',#1408);
#407=VERTEX_POINT('',#1410);
#408=VERTEX_POINT('',#1412);
#409=VERTEX_POINT('',#1414);
#410=VERTEX_POINT('',#1416);
#411=VERTEX_POINT('',#1420);
#412=VERTEX_POINT('',#1424);
#413=VERTEX_POINT('',#1428);
#414=VERTEX_POINT('',#1431);
#415=VERTEX_POINT('',#1432);
#416=VERTEX_POINT('',#1434);
#417=VERTEX_POINT('',#1436);
#418=VERTEX_POINT('',#1438);
#419=VERTEX_POINT('',#1442);
#420=VERTEX_POINT('',#1444);
#421=VERTEX_POINT('',#1446);
#422=VERTEX_POINT('',#1449);
#423=VERTEX_POINT('',#1452);
#424=VERTEX_POINT('',#1456);
#425=VERTEX_POINT('',#1460);
#426=VERTEX_POINT('',#1462);
#427=VERTEX_POINT('',#1464);
#428=VERTEX_POINT('',#1466);
#429=VERTEX_POINT('',#1468);
#430=VERTEX_POINT('',#1471);
#431=VERTEX_POINT('',#1473);
#432=VERTEX_POINT('',#1475);
#433=VERTEX_POINT('',#1477);
#434=VERTEX_POINT('',#1483);
#435=VERTEX_POINT('',#1489);
#436=VERTEX_POINT('',#1491);
#437=VERTEX_POINT('',#1496);
#438=VERTEX_POINT('',#1497);
#439=VERTEX_POINT('',#1499);
#440=VERTEX_POINT('',#1501);
#441=VERTEX_POINT('',#1503);
#442=VERTEX_POINT('',#1507);
#443=VERTEX_POINT('',#1508);
#444=VERTEX_POINT('',#1510);
#445=VERTEX_POINT('',#1517);
#446=VERTEX_POINT('',#1521);
#447=VERTEX_POINT('',#1526);
#448=VERTEX_POINT('',#1528);
#449=VERTEX_POINT('',#1532);
#450=VERTEX_POINT('',#1533);
#451=VERTEX_POINT('',#1535);
#452=VERTEX_POINT('',#1539);
#453=VERTEX_POINT('',#1541);
#454=VERTEX_POINT('',#1545);
#455=VERTEX_POINT('',#1547);
#456=VERTEX_POINT('',#1551);
#457=VERTEX_POINT('',#1556);
#458=VERTEX_POINT('',#1557);
#459=VERTEX_POINT('',#1562);
#460=VERTEX_POINT('',#1563);
#461=VERTEX_POINT('',#1592);
#462=VERTEX_POINT('',#1595);
#463=EDGE_CURVE('',#375,#376,#161,.F.);
#464=EDGE_CURVE('',#376,#377,#162,.F.);
#465=EDGE_CURVE('',#377,#378,#163,.F.);
#466=EDGE_CURVE('',#378,#375,#164,.T.);
#467=EDGE_CURVE('',#375,#379,#165,.T.);
#468=EDGE_CURVE('',#379,#380,#166,.T.);
#469=EDGE_CURVE('',#380,#381,#167,.T.);
#470=EDGE_CURVE('',#381,#382,#168,.T.);
#471=EDGE_CURVE('',#383,#382,#169,.T.);
#472=EDGE_CURVE('',#384,#383,#170,.T.);
#473=EDGE_CURVE('',#385,#384,#171,.T.);
#474=EDGE_CURVE('',#385,#386,#172,.T.);
#475=EDGE_CURVE('',#386,#376,#173,.T.);
#476=EDGE_CURVE('',#387,#387,#30,.T.);
#477=EDGE_CURVE('',#388,#388,#31,.T.);
#478=EDGE_CURVE('',#378,#389,#174,.F.);
#479=EDGE_CURVE('',#379,#389,#175,.T.);
#480=EDGE_CURVE('',#390,#386,#176,.T.);
#481=EDGE_CURVE('',#390,#377,#177,.F.);
#482=EDGE_CURVE('',#389,#391,#178,.F.);
#483=EDGE_CURVE('',#391,#380,#179,.F.);
#484=EDGE_CURVE('',#392,#385,#180,.T.);
#485=EDGE_CURVE('',#392,#390,#181,.F.);
#486=EDGE_CURVE('',#387,#393,#182,.T.);
#487=EDGE_CURVE('',#393,#394,#32,.T.);
#488=EDGE_CURVE('',#395,#394,#183,.T.);
#489=EDGE_CURVE('',#395,#396,#33,.T.);
#490=EDGE_CURVE('',#396,#397,#184,.T.);
#491=EDGE_CURVE('',#397,#398,#34,.T.);
#492=EDGE_CURVE('',#399,#398,#185,.T.);
#493=EDGE_CURVE('',#399,#400,#35,.T.);
#494=EDGE_CURVE('',#400,#401,#186,.T.);
#495=EDGE_CURVE('',#401,#393,#36,.T.);
#496=EDGE_CURVE('',#388,#402,#187,.T.);
#497=EDGE_CURVE('',#402,#403,#37,.T.);
#498=EDGE_CURVE('',#404,#403,#188,.T.);
#499=EDGE_CURVE('',#405,#404,#38,.T.);
#500=EDGE_CURVE('',#405,#406,#189,.T.);
#501=EDGE_CURVE('',#406,#407,#39,.T.);
#502=EDGE_CURVE('',#408,#407,#190,.T.);
#503=EDGE_CURVE('',#409,#408,#40,.T.);
#504=EDGE_CURVE('',#409,#410,#191,.T.);
#505=EDGE_CURVE('',#410,#402,#41,.T.);
#506=EDGE_CURVE('',#392,#411,#192,.T.);
#507=EDGE_CURVE('',#411,#384,#193,.T.);
#508=EDGE_CURVE('',#391,#412,#194,.T.);
#509=EDGE_CURVE('',#412,#381,#195,.T.);
#510=EDGE_CURVE('',#413,#413,#42,.T.);
#511=EDGE_CURVE('',#414,#415,#196,.F.);
#512=EDGE_CURVE('',#415,#416,#197,.F.);
#513=EDGE_CURVE('',#416,#417,#198,.T.);
#514=EDGE_CURVE('',#418,#417,#199,.T.);
#515=EDGE_CURVE('',#414,#418,#200,.T.);
#516=EDGE_CURVE('',#419,#414,#201,.T.);
#517=EDGE_CURVE('',#420,#419,#202,.F.);
#518=EDGE_CURVE('',#421,#420,#203,.T.);
#519=EDGE_CURVE('',#415,#421,#204,.T.);
#520=EDGE_CURVE('',#422,#422,#43,.T.);
#521=EDGE_CURVE('',#421,#423,#205,.T.);
#522=EDGE_CURVE('',#423,#416,#206,.T.);
#523=EDGE_CURVE('',#420,#424,#207,.T.);
#524=EDGE_CURVE('',#424,#423,#208,.T.);
#525=EDGE_CURVE('',#411,#425,#209,.T.);
#526=EDGE_CURVE('',#425,#426,#210,.T.);
#527=EDGE_CURVE('',#426,#427,#15,.F.);
#528=EDGE_CURVE('',#427,#428,#16,.F.);
#529=EDGE_CURVE('',#428,#429,#211,.T.);
#530=EDGE_CURVE('',#429,#419,#212,.T.);
#531=EDGE_CURVE('',#418,#430,#213,.T.);
#532=EDGE_CURVE('',#431,#430,#17,.F.);
#533=EDGE_CURVE('',#432,#431,#18,.F.);
#534=EDGE_CURVE('',#433,#432,#214,.T.);
#535=EDGE_CURVE('',#412,#433,#215,.T.);
#536=EDGE_CURVE('',#413,#422,#216,.T.);
#537=EDGE_CURVE('',#434,#429,#217,.T.);
#538=EDGE_CURVE('',#424,#434,#218,.F.);
#539=EDGE_CURVE('',#417,#434,#219,.T.);
#540=EDGE_CURVE('',#428,#426,#44,.F.);
#541=EDGE_CURVE('',#425,#435,#220,.T.);
#542=EDGE_CURVE('',#436,#435,#221,.T.);
#543=EDGE_CURVE('',#433,#436,#222,.T.);
#544=EDGE_CURVE('',#430,#432,#45,.F.);
#545=EDGE_CURVE('',#437,#438,#223,.T.);
#546=EDGE_CURVE('',#439,#438,#224,.T.);
#547=EDGE_CURVE('',#440,#439,#225,.T.);
#548=EDGE_CURVE('',#440,#441,#226,.T.);
#549=EDGE_CURVE('',#441,#437,#227,.T.);
#550=EDGE_CURVE('',#442,#443,#46,.T.);
#551=EDGE_CURVE('',#444,#442,#228,.T.);
#552=EDGE_CURVE('',#443,#444,#229,.T.);
#553=EDGE_CURVE('',#443,#437,#47,.T.);
#554=EDGE_CURVE('',#438,#443,#230,.T.);
#555=EDGE_CURVE('',#437,#445,#48,.T.);
#556=EDGE_CURVE('',#445,#441,#231,.T.);
#557=EDGE_CURVE('',#446,#445,#232,.T.);
#558=EDGE_CURVE('',#442,#446,#233,.T.);
#559=EDGE_CURVE('',#445,#442,#49,.T.);
#560=EDGE_CURVE('',#447,#446,#234,.T.);
#561=EDGE_CURVE('',#448,#447,#235,.T.);
#562=EDGE_CURVE('',#448,#444,#236,.T.);
#563=EDGE_CURVE('',#449,#450,#50,.T.);
#564=EDGE_CURVE('',#451,#449,#237,.T.);
#565=EDGE_CURVE('',#450,#451,#238,.T.);
#566=EDGE_CURVE('',#450,#452,#51,.T.);
#567=EDGE_CURVE('',#453,#450,#239,.T.);
#568=EDGE_CURVE('',#452,#453,#240,.T.);
#569=EDGE_CURVE('',#452,#454,#52,.T.);
#570=EDGE_CURVE('',#455,#452,#241,.T.);
#571=EDGE_CURVE('',#454,#455,#242,.T.);
#572=EDGE_CURVE('',#456,#454,#243,.T.);
#573=EDGE_CURVE('',#449,#456,#244,.T.);
#574=EDGE_CURVE('',#454,#449,#53,.T.);
#575=EDGE_CURVE('',#457,#458,#245,.T.);
#576=EDGE_CURVE('',#457,#453,#246,.T.);
#577=EDGE_CURVE('',#458,#451,#247,.T.);
#578=EDGE_CURVE('',#459,#460,#248,.T.);
#579=EDGE_CURVE('',#459,#456,#249,.T.);
#580=EDGE_CURVE('',#460,#455,#250,.T.);
#581=EDGE_CURVE('',#398,#439,#251,.T.);
#582=EDGE_CURVE('',#440,#397,#252,.T.);
#583=EDGE_CURVE('',#459,#410,#253,.T.);
#584=EDGE_CURVE('',#403,#460,#254,.T.);
#585=EDGE_CURVE('',#407,#458,#255,.T.);
#586=EDGE_CURVE('',#457,#406,#256,.T.);
#587=EDGE_CURVE('',#404,#405,#257,.T.);
#588=EDGE_CURVE('',#408,#409,#258,.T.);
#589=EDGE_CURVE('',#394,#447,#259,.T.);
#590=EDGE_CURVE('',#448,#401,#260,.T.);
#591=EDGE_CURVE('',#395,#396,#261,.T.);
#592=EDGE_CURVE('',#399,#400,#262,.T.);
#593=EDGE_CURVE('',#454,#431,#263,.T.);
#594=EDGE_CURVE('',#461,#461,#54,.T.);
#595=EDGE_CURVE('',#462,#462,#55,.T.);
#596=EDGE_CURVE('',#462,#461,#264,.T.);
#597=EDGE_CURVE('',#382,#436,#265,.T.);
#598=EDGE_CURVE('',#383,#435,#266,.T.);
#599=EDGE_CURVE('',#442,#427,#267,.T.);
#600=ORIENTED_EDGE('',*,*,#463,.T.);
#601=ORIENTED_EDGE('',*,*,#464,.T.);
#602=ORIENTED_EDGE('',*,*,#465,.T.);
#603=ORIENTED_EDGE('',*,*,#466,.T.);
#604=ORIENTED_EDGE('',*,*,#463,.F.);
#605=ORIENTED_EDGE('',*,*,#467,.T.);
#606=ORIENTED_EDGE('',*,*,#468,.T.);
#607=ORIENTED_EDGE('',*,*,#469,.T.);
#608=ORIENTED_EDGE('',*,*,#470,.T.);
#609=ORIENTED_EDGE('',*,*,#471,.F.);
#610=ORIENTED_EDGE('',*,*,#472,.F.);
#611=ORIENTED_EDGE('',*,*,#473,.F.);
#612=ORIENTED_EDGE('',*,*,#474,.T.);
#613=ORIENTED_EDGE('',*,*,#475,.T.);
#614=ORIENTED_EDGE('',*,*,#476,.F.);
#615=ORIENTED_EDGE('',*,*,#477,.F.);
#616=ORIENTED_EDGE('',*,*,#467,.F.);
#617=ORIENTED_EDGE('',*,*,#466,.F.);
#618=ORIENTED_EDGE('',*,*,#478,.T.);
#619=ORIENTED_EDGE('',*,*,#479,.F.);
#620=ORIENTED_EDGE('',*,*,#475,.F.);
#621=ORIENTED_EDGE('',*,*,#480,.F.);
#622=ORIENTED_EDGE('',*,*,#481,.T.);
#623=ORIENTED_EDGE('',*,*,#464,.F.);
#624=ORIENTED_EDGE('',*,*,#468,.F.);
#625=ORIENTED_EDGE('',*,*,#479,.T.);
#626=ORIENTED_EDGE('',*,*,#482,.T.);
#627=ORIENTED_EDGE('',*,*,#483,.T.);
#628=ORIENTED_EDGE('',*,*,#474,.F.);
#629=ORIENTED_EDGE('',*,*,#484,.F.);
#630=ORIENTED_EDGE('',*,*,#485,.T.);
#631=ORIENTED_EDGE('',*,*,#480,.T.);
#632=ORIENTED_EDGE('',*,*,#476,.T.);
#633=ORIENTED_EDGE('',*,*,#486,.T.);
#634=ORIENTED_EDGE('',*,*,#487,.T.);
#635=ORIENTED_EDGE('',*,*,#488,.F.);
#636=ORIENTED_EDGE('',*,*,#489,.T.);
#637=ORIENTED_EDGE('',*,*,#490,.T.);
#638=ORIENTED_EDGE('',*,*,#491,.T.);
#639=ORIENTED_EDGE('',*,*,#492,.F.);
#640=ORIENTED_EDGE('',*,*,#493,.T.);
#641=ORIENTED_EDGE('',*,*,#494,.T.);
#642=ORIENTED_EDGE('',*,*,#495,.T.);
#643=ORIENTED_EDGE('',*,*,#486,.F.);
#644=ORIENTED_EDGE('',*,*,#477,.T.);
#645=ORIENTED_EDGE('',*,*,#496,.T.);
#646=ORIENTED_EDGE('',*,*,#497,.T.);
#647=ORIENTED_EDGE('',*,*,#498,.F.);
#648=ORIENTED_EDGE('',*,*,#499,.F.);
#649=ORIENTED_EDGE('',*,*,#500,.T.);
#650=ORIENTED_EDGE('',*,*,#501,.T.);
#651=ORIENTED_EDGE('',*,*,#502,.F.);
#652=ORIENTED_EDGE('',*,*,#503,.F.);
#653=ORIENTED_EDGE('',*,*,#504,.T.);
#654=ORIENTED_EDGE('',*,*,#505,.T.);
#655=ORIENTED_EDGE('',*,*,#496,.F.);
#656=ORIENTED_EDGE('',*,*,#506,.F.);
#657=ORIENTED_EDGE('',*,*,#484,.T.);
#658=ORIENTED_EDGE('',*,*,#473,.T.);
#659=ORIENTED_EDGE('',*,*,#507,.F.);
#660=ORIENTED_EDGE('',*,*,#469,.F.);
#661=ORIENTED_EDGE('',*,*,#483,.F.);
#662=ORIENTED_EDGE('',*,*,#508,.T.);
#663=ORIENTED_EDGE('',*,*,#509,.T.);
#664=ORIENTED_EDGE('',*,*,#510,.F.);
#665=ORIENTED_EDGE('',*,*,#511,.T.);
#666=ORIENTED_EDGE('',*,*,#512,.T.);
#667=ORIENTED_EDGE('',*,*,#513,.T.);
#668=ORIENTED_EDGE('',*,*,#514,.F.);
#669=ORIENTED_EDGE('',*,*,#515,.F.);
#670=ORIENTED_EDGE('',*,*,#511,.F.);
#671=ORIENTED_EDGE('',*,*,#516,.F.);
#672=ORIENTED_EDGE('',*,*,#517,.F.);
#673=ORIENTED_EDGE('',*,*,#518,.F.);
#674=ORIENTED_EDGE('',*,*,#519,.F.);
#675=ORIENTED_EDGE('',*,*,#520,.T.);
#676=ORIENTED_EDGE('',*,*,#519,.T.);
#677=ORIENTED_EDGE('',*,*,#521,.T.);
#678=ORIENTED_EDGE('',*,*,#522,.T.);
#679=ORIENTED_EDGE('',*,*,#512,.F.);
#680=ORIENTED_EDGE('',*,*,#518,.T.);
#681=ORIENTED_EDGE('',*,*,#523,.T.);
#682=ORIENTED_EDGE('',*,*,#524,.T.);
#683=ORIENTED_EDGE('',*,*,#521,.F.);
#684=ORIENTED_EDGE('',*,*,#481,.F.);
#685=ORIENTED_EDGE('',*,*,#485,.F.);
#686=ORIENTED_EDGE('',*,*,#506,.T.);
#687=ORIENTED_EDGE('',*,*,#525,.T.);
#688=ORIENTED_EDGE('',*,*,#526,.T.);
#689=ORIENTED_EDGE('',*,*,#527,.T.);
#690=ORIENTED_EDGE('',*,*,#528,.T.);
#691=ORIENTED_EDGE('',*,*,#529,.T.);
#692=ORIENTED_EDGE('',*,*,#530,.T.);
#693=ORIENTED_EDGE('',*,*,#516,.T.);
#694=ORIENTED_EDGE('',*,*,#515,.T.);
#695=ORIENTED_EDGE('',*,*,#531,.T.);
#696=ORIENTED_EDGE('',*,*,#532,.F.);
#697=ORIENTED_EDGE('',*,*,#533,.F.);
#698=ORIENTED_EDGE('',*,*,#534,.F.);
#699=ORIENTED_EDGE('',*,*,#535,.F.);
#700=ORIENTED_EDGE('',*,*,#508,.F.);
#701=ORIENTED_EDGE('',*,*,#482,.F.);
#702=ORIENTED_EDGE('',*,*,#478,.F.);
#703=ORIENTED_EDGE('',*,*,#465,.F.);
#704=ORIENTED_EDGE('',*,*,#510,.T.);
#705=ORIENTED_EDGE('',*,*,#536,.T.);
#706=ORIENTED_EDGE('',*,*,#520,.F.);
#707=ORIENTED_EDGE('',*,*,#536,.F.);
#708=ORIENTED_EDGE('',*,*,#517,.T.);
#709=ORIENTED_EDGE('',*,*,#530,.F.);
#710=ORIENTED_EDGE('',*,*,#537,.F.);
#711=ORIENTED_EDGE('',*,*,#538,.F.);
#712=ORIENTED_EDGE('',*,*,#523,.F.);
#713=ORIENTED_EDGE('',*,*,#514,.T.);
#714=ORIENTED_EDGE('',*,*,#539,.T.);
#715=ORIENTED_EDGE('',*,*,#537,.T.);
#716=ORIENTED_EDGE('',*,*,#529,.F.);
#717=ORIENTED_EDGE('',*,*,#540,.T.);
#718=ORIENTED_EDGE('',*,*,#526,.F.);
#719=ORIENTED_EDGE('',*,*,#541,.T.);
#720=ORIENTED_EDGE('',*,*,#542,.F.);
#721=ORIENTED_EDGE('',*,*,#543,.F.);
#722=ORIENTED_EDGE('',*,*,#534,.T.);
#723=ORIENTED_EDGE('',*,*,#544,.F.);
#724=ORIENTED_EDGE('',*,*,#531,.F.);
#725=ORIENTED_EDGE('',*,*,#545,.T.);
#726=ORIENTED_EDGE('',*,*,#546,.F.);
#727=ORIENTED_EDGE('',*,*,#547,.F.);
#728=ORIENTED_EDGE('',*,*,#548,.T.);
#729=ORIENTED_EDGE('',*,*,#549,.T.);
#730=ORIENTED_EDGE('',*,*,#550,.F.);
#731=ORIENTED_EDGE('',*,*,#551,.F.);
#732=ORIENTED_EDGE('',*,*,#552,.F.);
#733=ORIENTED_EDGE('',*,*,#553,.F.);
#734=ORIENTED_EDGE('',*,*,#554,.F.);
#735=ORIENTED_EDGE('',*,*,#545,.F.);
#736=ORIENTED_EDGE('',*,*,#555,.F.);
#737=ORIENTED_EDGE('',*,*,#549,.F.);
#738=ORIENTED_EDGE('',*,*,#556,.F.);
#739=ORIENTED_EDGE('',*,*,#557,.F.);
#740=ORIENTED_EDGE('',*,*,#558,.F.);
#741=ORIENTED_EDGE('',*,*,#559,.F.);
#742=ORIENTED_EDGE('',*,*,#558,.T.);
#743=ORIENTED_EDGE('',*,*,#560,.F.);
#744=ORIENTED_EDGE('',*,*,#561,.F.);
#745=ORIENTED_EDGE('',*,*,#562,.T.);
#746=ORIENTED_EDGE('',*,*,#551,.T.);
#747=ORIENTED_EDGE('',*,*,#563,.F.);
#748=ORIENTED_EDGE('',*,*,#564,.F.);
#749=ORIENTED_EDGE('',*,*,#565,.F.);
#750=ORIENTED_EDGE('',*,*,#566,.F.);
#751=ORIENTED_EDGE('',*,*,#567,.F.);
#752=ORIENTED_EDGE('',*,*,#568,.F.);
#753=ORIENTED_EDGE('',*,*,#569,.F.);
#754=ORIENTED_EDGE('',*,*,#570,.F.);
#755=ORIENTED_EDGE('',*,*,#571,.F.);
#756=ORIENTED_EDGE('',*,*,#572,.F.);
#757=ORIENTED_EDGE('',*,*,#573,.F.);
#758=ORIENTED_EDGE('',*,*,#574,.F.);
#759=ORIENTED_EDGE('',*,*,#575,.F.);
#760=ORIENTED_EDGE('',*,*,#576,.T.);
#761=ORIENTED_EDGE('',*,*,#567,.T.);
#762=ORIENTED_EDGE('',*,*,#565,.T.);
#763=ORIENTED_EDGE('',*,*,#577,.F.);
#764=ORIENTED_EDGE('',*,*,#578,.F.);
#765=ORIENTED_EDGE('',*,*,#579,.T.);
#766=ORIENTED_EDGE('',*,*,#572,.T.);
#767=ORIENTED_EDGE('',*,*,#571,.T.);
#768=ORIENTED_EDGE('',*,*,#580,.F.);
#769=ORIENTED_EDGE('',*,*,#547,.T.);
#770=ORIENTED_EDGE('',*,*,#581,.F.);
#771=ORIENTED_EDGE('',*,*,#491,.F.);
#772=ORIENTED_EDGE('',*,*,#582,.F.);
#773=ORIENTED_EDGE('',*,*,#505,.F.);
#774=ORIENTED_EDGE('',*,*,#583,.F.);
#775=ORIENTED_EDGE('',*,*,#578,.T.);
#776=ORIENTED_EDGE('',*,*,#584,.F.);
#777=ORIENTED_EDGE('',*,*,#497,.F.);
#778=ORIENTED_EDGE('',*,*,#575,.T.);
#779=ORIENTED_EDGE('',*,*,#585,.F.);
#780=ORIENTED_EDGE('',*,*,#501,.F.);
#781=ORIENTED_EDGE('',*,*,#586,.F.);
#782=ORIENTED_EDGE('',*,*,#587,.F.);
#783=ORIENTED_EDGE('',*,*,#498,.T.);
#784=ORIENTED_EDGE('',*,*,#584,.T.);
#785=ORIENTED_EDGE('',*,*,#580,.T.);
#786=ORIENTED_EDGE('',*,*,#570,.T.);
#787=ORIENTED_EDGE('',*,*,#568,.T.);
#788=ORIENTED_EDGE('',*,*,#576,.F.);
#789=ORIENTED_EDGE('',*,*,#586,.T.);
#790=ORIENTED_EDGE('',*,*,#500,.F.);
#791=ORIENTED_EDGE('',*,*,#573,.T.);
#792=ORIENTED_EDGE('',*,*,#579,.F.);
#793=ORIENTED_EDGE('',*,*,#583,.T.);
#794=ORIENTED_EDGE('',*,*,#504,.F.);
#795=ORIENTED_EDGE('',*,*,#588,.F.);
#796=ORIENTED_EDGE('',*,*,#502,.T.);
#797=ORIENTED_EDGE('',*,*,#585,.T.);
#798=ORIENTED_EDGE('',*,*,#577,.T.);
#799=ORIENTED_EDGE('',*,*,#564,.T.);
#800=ORIENTED_EDGE('',*,*,#561,.T.);
#801=ORIENTED_EDGE('',*,*,#589,.F.);
#802=ORIENTED_EDGE('',*,*,#487,.F.);
#803=ORIENTED_EDGE('',*,*,#495,.F.);
#804=ORIENTED_EDGE('',*,*,#590,.F.);
#805=ORIENTED_EDGE('',*,*,#591,.F.);
#806=ORIENTED_EDGE('',*,*,#488,.T.);
#807=ORIENTED_EDGE('',*,*,#589,.T.);
#808=ORIENTED_EDGE('',*,*,#560,.T.);
#809=ORIENTED_EDGE('',*,*,#557,.T.);
#810=ORIENTED_EDGE('',*,*,#556,.T.);
#811=ORIENTED_EDGE('',*,*,#548,.F.);
#812=ORIENTED_EDGE('',*,*,#582,.T.);
#813=ORIENTED_EDGE('',*,*,#490,.F.);
#814=ORIENTED_EDGE('',*,*,#592,.F.);
#815=ORIENTED_EDGE('',*,*,#492,.T.);
#816=ORIENTED_EDGE('',*,*,#581,.T.);
#817=ORIENTED_EDGE('',*,*,#546,.T.);
#818=ORIENTED_EDGE('',*,*,#554,.T.);
#819=ORIENTED_EDGE('',*,*,#552,.T.);
#820=ORIENTED_EDGE('',*,*,#562,.F.);
#821=ORIENTED_EDGE('',*,*,#590,.T.);
#822=ORIENTED_EDGE('',*,*,#494,.F.);
#823=ORIENTED_EDGE('',*,*,#588,.T.);
#824=ORIENTED_EDGE('',*,*,#503,.T.);
#825=ORIENTED_EDGE('',*,*,#489,.F.);
#826=ORIENTED_EDGE('',*,*,#591,.T.);
#827=ORIENTED_EDGE('',*,*,#566,.T.);
#828=ORIENTED_EDGE('',*,*,#569,.T.);
#829=ORIENTED_EDGE('',*,*,#593,.T.);
#830=ORIENTED_EDGE('',*,*,#532,.T.);
#831=ORIENTED_EDGE('',*,*,#544,.T.);
#832=ORIENTED_EDGE('',*,*,#533,.T.);
#833=ORIENTED_EDGE('',*,*,#593,.F.);
#834=ORIENTED_EDGE('',*,*,#574,.T.);
#835=ORIENTED_EDGE('',*,*,#563,.T.);
#836=ORIENTED_EDGE('',*,*,#538,.T.);
#837=ORIENTED_EDGE('',*,*,#539,.F.);
#838=ORIENTED_EDGE('',*,*,#513,.F.);
#839=ORIENTED_EDGE('',*,*,#522,.F.);
#840=ORIENTED_EDGE('',*,*,#524,.F.);
#841=ORIENTED_EDGE('',*,*,#594,.F.);
#842=ORIENTED_EDGE('',*,*,#595,.F.);
#843=ORIENTED_EDGE('',*,*,#596,.T.);
#844=ORIENTED_EDGE('',*,*,#594,.T.);
#845=ORIENTED_EDGE('',*,*,#596,.F.);
#846=ORIENTED_EDGE('',*,*,#471,.T.);
#847=ORIENTED_EDGE('',*,*,#597,.T.);
#848=ORIENTED_EDGE('',*,*,#542,.T.);
#849=ORIENTED_EDGE('',*,*,#598,.F.);
#850=ORIENTED_EDGE('',*,*,#595,.T.);
#851=ORIENTED_EDGE('',*,*,#598,.T.);
#852=ORIENTED_EDGE('',*,*,#541,.F.);
#853=ORIENTED_EDGE('',*,*,#525,.F.);
#854=ORIENTED_EDGE('',*,*,#507,.T.);
#855=ORIENTED_EDGE('',*,*,#472,.T.);
#856=ORIENTED_EDGE('',*,*,#587,.T.);
#857=ORIENTED_EDGE('',*,*,#499,.T.);
#858=ORIENTED_EDGE('',*,*,#543,.T.);
#859=ORIENTED_EDGE('',*,*,#597,.F.);
#860=ORIENTED_EDGE('',*,*,#470,.F.);
#861=ORIENTED_EDGE('',*,*,#509,.F.);
#862=ORIENTED_EDGE('',*,*,#535,.T.);
#863=ORIENTED_EDGE('',*,*,#550,.T.);
#864=ORIENTED_EDGE('',*,*,#553,.T.);
#865=ORIENTED_EDGE('',*,*,#555,.T.);
#866=ORIENTED_EDGE('',*,*,#559,.T.);
#867=ORIENTED_EDGE('',*,*,#599,.T.);
#868=ORIENTED_EDGE('',*,*,#527,.F.);
#869=ORIENTED_EDGE('',*,*,#540,.F.);
#870=ORIENTED_EDGE('',*,*,#528,.F.);
#871=ORIENTED_EDGE('',*,*,#599,.F.);
#872=ORIENTED_EDGE('',*,*,#592,.T.);
#873=ORIENTED_EDGE('',*,*,#493,.F.);
#874=PLANE('',#982);
#875=PLANE('',#983);
#876=PLANE('',#986);
#877=PLANE('',#987);
#878=PLANE('',#988);
#879=PLANE('',#989);
#880=PLANE('',#1002);
#881=PLANE('',#1003);
#882=PLANE('',#1004);
#883=PLANE('',#1006);
#884=PLANE('',#1007);
#885=PLANE('',#1009);
#886=PLANE('',#1010);
#887=PLANE('',#1011);
#888=PLANE('',#1017);
#889=PLANE('',#1018);
#890=PLANE('',#1021);
#891=PLANE('',#1022);
#892=PLANE('',#1024);
#893=PLANE('',#1026);
#894=PLANE('',#1028);
#895=PLANE('',#1030);
#896=PLANE('',#1031);
#897=PLANE('',#1033);
#898=PLANE('',#1035);
#899=PLANE('',#1037);
#900=PLANE('',#1039);
#901=PLANE('',#1040);
#902=PLANE('',#1041);
#903=PLANE('',#1042);
#904=PLANE('',#1043);
#905=PLANE('',#1044);
#906=PLANE('',#1045);
#907=PLANE('',#1046);
#908=PLANE('',#1047);
#909=PLANE('',#1048);
#910=PLANE('',#1049);
#911=PLANE('',#1050);
#912=PLANE('',#1052);
#913=PLANE('',#1056);
#914=PLANE('',#1057);
#915=PLANE('',#1058);
#916=PLANE('',#1059);
#917=PLANE('',#1061);
#918=ADVANCED_FACE('',(#56),#874,.F.);
#919=ADVANCED_FACE('',(#57,#25,#26),#875,.F.);
#920=ADVANCED_FACE('',(#58),#876,.F.);
#921=ADVANCED_FACE('',(#59),#877,.F.);
#922=ADVANCED_FACE('',(#60),#878,.T.);
#923=ADVANCED_FACE('',(#61),#879,.T.);
#924=ADVANCED_FACE('',(#62),#19,.F.);
#925=ADVANCED_FACE('',(#63),#20,.F.);
#926=ADVANCED_FACE('',(#64),#880,.F.);
#927=ADVANCED_FACE('',(#65),#881,.T.);
#928=ADVANCED_FACE('',(#66),#882,.F.);
#929=ADVANCED_FACE('',(#67),#883,.F.);
#930=ADVANCED_FACE('',(#68,#27),#884,.F.);
#931=ADVANCED_FACE('',(#69),#885,.F.);
#932=ADVANCED_FACE('',(#70),#886,.F.);
#933=ADVANCED_FACE('',(#71),#887,.T.);
#934=ADVANCED_FACE('',(#72),#21,.F.);
#935=ADVANCED_FACE('',(#73),#888,.F.);
#936=ADVANCED_FACE('',(#74),#889,.T.);
#937=ADVANCED_FACE('',(#75),#890,.F.);
#938=ADVANCED_FACE('',(#76),#891,.F.);
#939=ADVANCED_FACE('',(#77),#892,.F.);
#940=ADVANCED_FACE('',(#78),#893,.F.);
#941=ADVANCED_FACE('',(#79),#894,.F.);
#942=ADVANCED_FACE('',(#80),#895,.F.);
#943=ADVANCED_FACE('',(#81),#896,.F.);
#944=ADVANCED_FACE('',(#82),#897,.F.);
#945=ADVANCED_FACE('',(#83),#898,.F.);
#946=ADVANCED_FACE('',(#84),#899,.F.);
#947=ADVANCED_FACE('',(#85),#900,.F.);
#948=ADVANCED_FACE('',(#86),#901,.F.);
#949=ADVANCED_FACE('',(#87),#902,.T.);
#950=ADVANCED_FACE('',(#88),#903,.T.);
#951=ADVANCED_FACE('',(#89),#904,.T.);
#952=ADVANCED_FACE('',(#90),#905,.F.);
#953=ADVANCED_FACE('',(#91),#906,.F.);
#954=ADVANCED_FACE('',(#92),#907,.T.);
#955=ADVANCED_FACE('',(#93),#908,.F.);
#956=ADVANCED_FACE('',(#94),#909,.F.);
#957=ADVANCED_FACE('',(#95),#910,.F.);
#958=ADVANCED_FACE('',(#96),#911,.T.);
#959=ADVANCED_FACE('',(#97),#22,.F.);
#960=ADVANCED_FACE('',(#98,#28),#912,.F.);
#961=ADVANCED_FACE('',(#99),#23,.F.);
#962=ADVANCED_FACE('',(#100,#29),#913,.T.);
#963=ADVANCED_FACE('',(#101),#914,.T.);
#964=ADVANCED_FACE('',(#102),#915,.F.);
#965=ADVANCED_FACE('',(#103),#916,.F.);
#966=ADVANCED_FACE('',(#104),#24,.F.);
#967=ADVANCED_FACE('',(#105),#917,.T.);
#968=CLOSED_SHELL('',(#918,#919,#920,#921,#922,#923,#924,#925,#926,#927,
#928,#929,#930,#931,#932,#933,#934,#935,#936,#937,#938,#939,#940,#941,#942,
#943,#944,#945,#946,#947,#948,#949,#950,#951,#952,#953,#954,#955,#956,#957,
#958,#959,#960,#961,#962,#963,#964,#965,#966,#967));
#969=DERIVED_UNIT_ELEMENT(#971,1.);
#970=DERIVED_UNIT_ELEMENT(#1612,-3.);
#971=(
MASS_UNIT()
NAMED_UNIT(*)
SI_UNIT(.KILO.,.GRAM.)
);
#972=DERIVED_UNIT((#969,#970));
#973=MEASURE_REPRESENTATION_ITEM('density measure',
POSITIVE_RATIO_MEASURE(7850.),#972);
#974=PROPERTY_DEFINITION_REPRESENTATION(#979,#976);
#975=PROPERTY_DEFINITION_REPRESENTATION(#980,#977);
#976=REPRESENTATION('material name',(#978),#1609);
#977=REPRESENTATION('density',(#973),#1609);
#978=DESCRIPTIVE_REPRESENTATION_ITEM('Steel','Steel');
#979=PROPERTY_DEFINITION('material property','material name',#1619);
#980=PROPERTY_DEFINITION('material property','density of part',#1619);
#981=AXIS2_PLACEMENT_3D('',#1331,#1062,#1063);
#982=AXIS2_PLACEMENT_3D('',#1332,#1064,#1065);
#983=AXIS2_PLACEMENT_3D('',#1341,#1070,#1071);
#984=AXIS2_PLACEMENT_3D('',#1360,#1081,#1082);
#985=AXIS2_PLACEMENT_3D('',#1362,#1083,#1084);
#986=AXIS2_PLACEMENT_3D('',#1363,#1085,#1086);
#987=AXIS2_PLACEMENT_3D('',#1367,#1089,#1090);
#988=AXIS2_PLACEMENT_3D('',#1371,#1093,#1094);
#989=AXIS2_PLACEMENT_3D('',#1375,#1097,#1098);
#990=AXIS2_PLACEMENT_3D('',#1379,#1101,#1102);
#991=AXIS2_PLACEMENT_3D('',#1383,#1104,#1105);
#992=AXIS2_PLACEMENT_3D('',#1387,#1107,#1108);
#993=AXIS2_PLACEMENT_3D('',#1391,#1110,#1111);
#994=AXIS2_PLACEMENT_3D('',#1395,#1113,#1114);
#995=AXIS2_PLACEMENT_3D('',#1398,#1116,#1117);
#996=AXIS2_PLACEMENT_3D('',#1399,#1118,#1119);
#997=AXIS2_PLACEMENT_3D('',#1403,#1121,#1122);
#998=AXIS2_PLACEMENT_3D('',#1407,#1124,#1125);
#999=AXIS2_PLACEMENT_3D('',#1411,#1127,#1128);
#1000=AXIS2_PLACEMENT_3D('',#1415,#1130,#1131);
#1001=AXIS2_PLACEMENT_3D('',#1418,#1133,#1134);
#1002=AXIS2_PLACEMENT_3D('',#1419,#1135,#1136);
#1003=AXIS2_PLACEMENT_3D('',#1423,#1139,#1140);
#1004=AXIS2_PLACEMENT_3D('',#1427,#1143,#1144);
#1005=AXIS2_PLACEMENT_3D('',#1429,#1145,#1146);
#1006=AXIS2_PLACEMENT_3D('',#1430,#1147,#1148);
#1007=AXIS2_PLACEMENT_3D('',#1441,#1154,#1155);
#1008=AXIS2_PLACEMENT_3D('',#1450,#1160,#1161);
#1009=AXIS2_PLACEMENT_3D('',#1451,#1162,#1163);
#1010=AXIS2_PLACEMENT_3D('',#1455,#1166,#1167);
#1011=AXIS2_PLACEMENT_3D('',#1459,#1170,#1171);
#1012=AXIS2_PLACEMENT_3D('',#1465,#1174,#1175);
#1013=AXIS2_PLACEMENT_3D('',#1467,#1176,#1177);
#1014=AXIS2_PLACEMENT_3D('',#1474,#1181,#1182);
#1015=AXIS2_PLACEMENT_3D('',#1476,#1183,#1184);
#1016=AXIS2_PLACEMENT_3D('',#1480,#1187,#1188);
#1017=AXIS2_PLACEMENT_3D('',#1482,#1190,#1191);
#1018=AXIS2_PLACEMENT_3D('',#1486,#1194,#1195);
#1019=AXIS2_PLACEMENT_3D('',#1488,#1197,#1198);
#1020=AXIS2_PLACEMENT_3D('',#1494,#1202,#1203);
#1021=AXIS2_PLACEMENT_3D('',#1495,#1204,#1205);
#1022=AXIS2_PLACEMENT_3D('',#1506,#1211,#1212);
#1023=AXIS2_PLACEMENT_3D('',#1509,#1213,#1214);
#1024=AXIS2_PLACEMENT_3D('',#1513,#1217,#1218);
#1025=AXIS2_PLACEMENT_3D('',#1514,#1219,#1220);
#1026=AXIS2_PLACEMENT_3D('',#1516,#1222,#1223);
#1027=AXIS2_PLACEMENT_3D('',#1518,#1224,#1225);
#1028=AXIS2_PLACEMENT_3D('',#1520,#1227,#1228);
#1029=AXIS2_PLACEMENT_3D('',#1524,#1231,#1232);
#1030=AXIS2_PLACEMENT_3D('',#1525,#1233,#1234);
#1031=AXIS2_PLACEMENT_3D('',#1531,#1238,#1239);
#1032=AXIS2_PLACEMENT_3D('',#1534,#1240,#1241);
#1033=AXIS2_PLACEMENT_3D('',#1538,#1244,#1245);
#1034=AXIS2_PLACEMENT_3D('',#1540,#1246,#1247);
#1035=AXIS2_PLACEMENT_3D('',#1544,#1250,#1251);
#1036=AXIS2_PLACEMENT_3D('',#1546,#1252,#1253);
#1037=AXIS2_PLACEMENT_3D('',#1550,#1256,#1257);
#1038=AXIS2_PLACEMENT_3D('',#1554,#1260,#1261);
#1039=AXIS2_PLACEMENT_3D('',#1555,#1262,#1263);
#1040=AXIS2_PLACEMENT_3D('',#1561,#1267,#1268);
#1041=AXIS2_PLACEMENT_3D('',#1567,#1272,#1273);
#1042=AXIS2_PLACEMENT_3D('',#1570,#1276,#1277);
#1043=AXIS2_PLACEMENT_3D('',#1573,#1280,#1281);
#1044=AXIS2_PLACEMENT_3D('',#1576,#1284,#1285);
#1045=AXIS2_PLACEMENT_3D('',#1578,#1287,#1288);
#1046=AXIS2_PLACEMENT_3D('',#1580,#1290,#1291);
#1047=AXIS2_PLACEMENT_3D('',#1583,#1294,#1295);
#1048=AXIS2_PLACEMENT_3D('',#1585,#1297,#1298);
#1049=AXIS2_PLACEMENT_3D('',#1587,#1300,#1301);
#1050=AXIS2_PLACEMENT_3D('',#1588,#1302,#1303);
#1051=AXIS2_PLACEMENT_3D('',#1589,#1304,#1305);
#1052=AXIS2_PLACEMENT_3D('',#1591,#1307,#1308);
#1053=AXIS2_PLACEMENT_3D('',#1593,#1309,#1310);
#1054=AXIS2_PLACEMENT_3D('',#1594,#1311,#1312);
#1055=AXIS2_PLACEMENT_3D('',#1596,#1313,#1314);
#1056=AXIS2_PLACEMENT_3D('',#1598,#1316,#1317);
#1057=AXIS2_PLACEMENT_3D('',#1601,#1320,#1321);
#1058=AXIS2_PLACEMENT_3D('',#1602,#1322,#1323);
#1059=AXIS2_PLACEMENT_3D('',#1603,#1324,#1325);
#1060=AXIS2_PLACEMENT_3D('',#1604,#1326,#1327);
#1061=AXIS2_PLACEMENT_3D('',#1606,#1329,#1330);
#1062=DIRECTION('axis',(0.,0.,1.));
#1063=DIRECTION('refdir',(1.,0.,0.));
#1064=DIRECTION('center_axis',(2.38590391462482E-8,-4.15559603089277E-18,
1.));
#1065=DIRECTION('ref_axis',(1.,-3.48345631642627E-10,-2.38590391462482E-8));
#1066=DIRECTION('',(1.,-1.7417289832622E-10,-2.38590391462482E-8));
#1067=DIRECTION('',(5.30367303226337E-10,-1.,-1.680965028046E-17));
#1068=DIRECTION('',(-1.,1.21036935744343E-8,2.38590391462481E-8));
#1069=DIRECTION('',(5.30367303226337E-10,-1.,-1.680965028046E-17));
#1070=DIRECTION('center_axis',(1.7417289832622E-10,1.,-5.39260457896823E-33));
#1071=DIRECTION('ref_axis',(-3.30872245021211E-24,6.16297582203915E-33,
1.));
#1072=DIRECTION('',(0.70710676431566,-1.23158834566934E-10,-0.707106798057435));
#1073=DIRECTION('',(1.,-1.74172733316408E-10,-2.38590391462482E-8));
#1074=DIRECTION('',(1.19295196244283E-8,-2.07780004224941E-18,1.));
#1075=DIRECTION('',(-0.707106776968826,1.23158720091215E-10,0.707106785404269));
#1076=DIRECTION('',(1.,-1.74172733316408E-10,-2.99075422274673E-20));
#1077=DIRECTION('',(0.707106793839714,-1.23158839709224E-10,0.707106768533381));
#1078=DIRECTION('',(1.19295195218199E-8,-2.0778000243778E-18,1.));
#1079=DIRECTION('',(1.,-1.7417289832622E-10,-2.38590391462482E-8));
#1080=DIRECTION('',(0.707106798057436,-1.23158840443837E-10,0.707106764315659));
#1081=DIRECTION('center_axis',(-1.7417289832622E-10,-1.,5.39260457896823E-33));
#1082=DIRECTION('ref_axis',(-1.,1.74172733316409E-10,2.38590391887783E-8));
#1083=DIRECTION('center_axis',(-1.74172733316408E-10,-1.,-1.96848777765842E-24));
#1084=DIRECTION('ref_axis',(1.,-1.74172898326219E-10,4.25301293051722E-17));
#1085=DIRECTION('center_axis',(0.707106798057435,3.75026313692515E-10,0.70710676431566));
#1086=DIRECTION('ref_axis',(0.70710676431566,-2.46317462050666E-10,-0.707106798057435));
#1087=DIRECTION('',(-0.577350253289385,0.57735027374627,0.577350280533222));
#1088=DIRECTION('',(-5.30367303226337E-10,1.,1.68096502804603E-17));
#1089=DIRECTION('center_axis',(-0.707106764315659,-3.75026319569415E-10,
0.707106798057436));
#1090=DIRECTION('ref_axis',(0.707106798057436,-2.46317641118778E-10,0.707106764315659));
#1091=DIRECTION('',(5.30367303226337E-10,-1.,-1.68096502804602E-17));
#1092=DIRECTION('',(-0.577350285089867,-0.577350264632981,-0.577350257846029));
#1093=DIRECTION('center_axis',(-2.38590391462482E-8,4.155596030893E-18,
-1.));
#1094=DIRECTION('ref_axis',(-1.,3.48345631642628E-10,2.38590391462482E-8));
#1095=DIRECTION('',(-1.,1.21036912034565E-8,2.38590391462482E-8));
#1096=DIRECTION('',(1.74172657309549E-10,1.,3.78193840702816E-24));
#1097=DIRECTION('center_axis',(-2.38590391462482E-8,4.155596030893E-18,
-1.));
#1098=DIRECTION('ref_axis',(-1.,3.48345631642628E-10,2.38590391462482E-8));
#1099=DIRECTION('',(-1.74172974333079E-10,-1.,3.78193841203856E-24));
#1100=DIRECTION('',(-1.,1.21036912034565E-8,2.38590391462482E-8));
#1101=DIRECTION('center_axis',(1.74172733316409E-10,1.,1.96848775916949E-24));
#1102=DIRECTION('ref_axis',(-1.,1.74172733316409E-10,2.38590391887783E-8));
#1103=DIRECTION('',(1.74172733316409E-10,1.,1.96848775916949E-24));
#1104=DIRECTION('center_axis',(1.74172733316408E-10,1.,1.96848777732312E-24));
#1105=DIRECTION('ref_axis',(-1.,1.74172733316408E-10,2.38590391887783E-8));
#1106=DIRECTION('',(1.74173843539429E-10,1.,-2.45203667480458E-23));
#1107=DIRECTION('center_axis',(1.74172896802577E-10,1.,-1.26897915083651E-25));
#1108=DIRECTION('ref_axis',(-1.,1.74172896802577E-10,2.38590391887783E-8));
#1109=DIRECTION('',(1.74173843539429E-10,1.,-2.45203667480458E-23));
#1110=DIRECTION('center_axis',(1.74172733316408E-10,1.,1.96848777732312E-24));
#1111=DIRECTION('ref_axis',(-1.,1.74172733316408E-10,2.38590391887783E-8));
#1112=DIRECTION('',(1.74173843539429E-10,1.,-2.45203667480458E-23));
#1113=DIRECTION('center_axis',(1.74172896802577E-10,1.,-1.26897915083651E-25));
#1114=DIRECTION('ref_axis',(-1.,1.74172896802577E-10,2.38590391887783E-8));
#1115=DIRECTION('',(1.74173843539429E-10,1.,-2.45203667480458E-23));
#1116=DIRECTION('center_axis',(1.74172733316408E-10,1.,1.96848777732312E-24));
#1117=DIRECTION('ref_axis',(-1.,1.74172733316408E-10,2.38590391887783E-8));
#1118=DIRECTION('center_axis',(-1.74172898326219E-10,-1.,7.70372051223291E-33));
#1119=DIRECTION('ref_axis',(1.,-1.74172898326219E-10,4.25301293051722E-17));
#1120=DIRECTION('',(1.74172898326219E-10,1.,-7.70372051223291E-33));
#1121=DIRECTION('center_axis',(1.74172734840051E-10,1.,1.51508875289904E-24));
#1122=DIRECTION('ref_axis',(1.,-1.74172734840051E-10,-2.38590391887783E-8));
#1123=DIRECTION('',(1.74173843539429E-10,1.,-2.45203667480458E-23));
#1124=DIRECTION('center_axis',(-1.74172734840051E-10,-1.,-1.8052372161174E-24));
#1125=DIRECTION('ref_axis',(1.,-1.74172734840051E-10,4.25301293051722E-17));
#1126=DIRECTION('',(1.74173843539429E-10,1.,-2.45203667480458E-23));
#1127=DIRECTION('center_axis',(1.74172734840051E-10,1.,1.51508875289904E-24));
#1128=DIRECTION('ref_axis',(1.,-1.74172734840051E-10,-2.38590391887783E-8));
#1129=DIRECTION('',(1.74173843539429E-10,1.,-2.45203667480458E-23));
#1130=DIRECTION('center_axis',(-1.74172734840051E-10,-1.,-1.8052372161174E-24));
#1131=DIRECTION('ref_axis',(1.,-1.74172734840051E-10,4.25301293051722E-17));
#1132=DIRECTION('',(1.74173843539429E-10,1.,-2.45203667480458E-23));
#1133=DIRECTION('center_axis',(1.74172734840051E-10,1.,1.51508875289904E-24));
#1134=DIRECTION('ref_axis',(1.,-1.74172734840051E-10,-2.38590391887783E-8));
#1135=DIRECTION('center_axis',(1.,-1.74172974333079E-10,-1.19295195218198E-8));
#1136=DIRECTION('ref_axis',(-1.74172974333079E-10,-1.,-1.26897907024891E-25));
#1137=DIRECTION('',(8.55860304142647E-9,0.707106781186547,0.707106781186548));
#1138=DIRECTION('',(-1.74172974333118E-10,-1.,-3.23352455543882E-15));
#1139=DIRECTION('center_axis',(1.,-1.74172657309549E-10,-1.19295196244283E-8));
#1140=DIRECTION('ref_axis',(-1.74172657309549E-10,-1.,-3.90883631752271E-24));
#1141=DIRECTION('',(8.55860288981212E-9,0.707106781186547,0.707106781186548));
#1142=DIRECTION('',(-1.74172657309588E-10,-1.,-3.23352455922076E-15));
#1143=DIRECTION('center_axis',(-2.38590391887783E-8,4.1555961651985E-18,
-1.));
#1144=DIRECTION('ref_axis',(1.,-3.48345630118985E-10,-2.38590391887783E-8));
#1145=DIRECTION('center_axis',(-2.38590391887783E-8,4.1555961651985E-18,
-1.));
#1146=DIRECTION('ref_axis',(-1.,3.48345630118985E-10,2.38590391887783E-8));
#1147=DIRECTION('center_axis',(0.999999999999999,-3.07632385448571E-10,
-5.56710917498731E-8));
#1148=DIRECTION('ref_axis',(-3.07632385448571E-10,-1.,1.88904509556839E-18));
#1149=DIRECTION('',(3.07632385448571E-10,1.,-1.8890451665885E-18));
#1150=DIRECTION('',(-5.56710917493247E-8,1.78250767923181E-9,-0.999999999999998));
#1151=DIRECTION('',(3.07632385448571E-10,1.,-1.76334734107304E-18));
#1152=DIRECTION('',(5.56710917498731E-8,-2.96821350707034E-15,0.999999999999998));
#1153=DIRECTION('',(3.95829354382571E-8,0.707106781186547,0.707106781186547));
#1154=DIRECTION('center_axis',(-5.56710917498731E-8,1.52371855889512E-17,
-0.999999999999999));
#1155=DIRECTION('ref_axis',(-0.999999999999998,3.48345631642627E-10,5.56710917498731E-8));
#1156=DIRECTION('',(0.999999999999998,-4.39157461780592E-8,-5.5671091749873E-8));
#1157=DIRECTION('',(-3.11235140585122E-10,-1.,2.08961447834776E-18));
#1158=DIRECTION('',(-0.866025403523178,0.500000000452514,4.82125797048784E-8));
#1159=DIRECTION('',(-0.866025404045697,-0.499999999547486,4.82125797187304E-8));
#1160=DIRECTION('center_axis',(-5.56710917498731E-8,1.52371855889512E-17,
-0.999999999999999));
#1161=DIRECTION('ref_axis',(-0.999999999999998,3.48345630118984E-10,5.56710917498731E-8));
#1162=DIRECTION('center_axis',(0.499999999547485,-0.866025404045698,-2.93792427825917E-8));
#1163=DIRECTION('ref_axis',(0.866025404045696,0.499999999547486,-5.08863411347883E-8));
#1164=DIRECTION('',(5.87584855901071E-8,-1.63126657463571E-17,0.999999999999998));
#1165=DIRECTION('',(0.866025404045697,0.499999999547486,-5.08863411347883E-8));
#1166=DIRECTION('center_axis',(-0.500000000452514,-0.866025403523179,2.93792428075154E-8));
#1167=DIRECTION('ref_axis',(0.866025403523178,-0.500000000452514,-5.08863411264771E-8));
#1168=DIRECTION('',(5.56710917504279E-8,1.78250765027151E-9,0.999999999999998));
#1169=DIRECTION('',(0.866025403523178,-0.500000000452514,-5.08863411264771E-8));
#1170=DIRECTION('center_axis',(-8.31228456902082E-9,0.707106781186548,-0.707106781186547));
#1171=DIRECTION('ref_axis',(-8.55860231839816E-9,-0.707106781186547,-0.707106781186548));
#1172=DIRECTION('',(0.577350280769369,0.57735026679323,0.577350260006278));
#1173=DIRECTION('',(1.,-1.74173828546016E-10,-1.19295194003599E-8));
#1174=DIRECTION('center_axis',(-8.31228456902082E-9,0.707106781186548,-0.707106781186547));
#1175=DIRECTION('ref_axis',(1.69940472504269E-8,0.707106781186547,0.707106781186548));
#1176=DIRECTION('center_axis',(-8.31228456902082E-9,0.707106781186548,-0.707106781186547));
#1177=DIRECTION('ref_axis',(1.69940472504269E-8,0.707106781186547,0.707106781186548));
#1178=DIRECTION('',(1.,-1.74173828546016E-10,-1.19295194003599E-8));
#1179=DIRECTION('',(-3.95854829708451E-8,-0.707106781186547,-0.707106781186547));
#1180=DIRECTION('',(1.,-1.74173828546016E-10,-1.19295194003599E-8));
#1181=DIRECTION('center_axis',(8.31228624555532E-9,-0.707106781186548,0.707106781186547));
#1182=DIRECTION('ref_axis',(1.23158680811676E-10,0.707106781186547,0.707106781186548));
#1183=DIRECTION('center_axis',(8.31228624555532E-9,-0.707106781186548,0.707106781186547));
#1184=DIRECTION('ref_axis',(1.23158680811676E-10,0.707106781186547,0.707106781186548));
#1185=DIRECTION('',(-1.,1.74171803096612E-10,1.19295197458883E-8));
#1186=DIRECTION('',(-0.577350266793229,0.577350266994347,0.577350273781301));
#1187=DIRECTION('center_axis',(-5.87584855859795E-8,1.63126657449193E-17,
-0.999999999999998));
#1188=DIRECTION('ref_axis',(-3.48345630118985E-10,-1.,4.15559594136605E-18));
#1189=DIRECTION('',(5.87584855859795E-8,-1.63126657449193E-17,0.999999999999998));
#1190=DIRECTION('center_axis',(-0.999999999999999,3.11235140585122E-10,
5.56710917498731E-8));
#1191=DIRECTION('ref_axis',(3.11235140585122E-10,1.,-2.08961440732765E-18));
#1192=DIRECTION('',(-5.56710917498731E-8,2.96821350707034E-15,-0.999999999999998));
#1193=DIRECTION('',(-3.11235140585122E-10,-1.,1.97503977684876E-18));
#1194=DIRECTION('center_axis',(1.74173828546051E-10,1.,2.95851705988093E-15));
#1195=DIRECTION('ref_axis',(-1.1929519737496E-8,2.96059487000633E-15,-1.));
#1196=DIRECTION('',(-0.999999999999998,1.74173828545886E-10,5.56710917498731E-8));
#1197=DIRECTION('center_axis',(1.74173828546051E-10,1.,2.95851705988093E-15));
#1198=DIRECTION('ref_axis',(-1.,1.74172912384638E-10,2.38590391887783E-8));
#1199=DIRECTION('',(0.707106793839714,-1.23161589461424E-10,0.707106768533381));
#1200=DIRECTION('',(-1.,1.74171803096647E-10,2.99075422274673E-20));
#1201=DIRECTION('',(-0.707106776968826,1.23155970339014E-10,0.707106785404269));
#1202=DIRECTION('center_axis',(-1.74171803096647E-10,-1.,-2.95851708404357E-15));
#1203=DIRECTION('ref_axis',(1.,-1.7417271925799E-10,4.25301278728248E-17));
#1204=DIRECTION('center_axis',(-1.,1.74173843539429E-10,2.38590391887783E-8));
#1205=DIRECTION('ref_axis',(2.38590391887783E-8,-4.15559558490157E-18,1.));
#1206=DIRECTION('',(2.38590391887783E-8,-4.15559558490157E-18,1.));
#1207=DIRECTION('',(1.74173843539429E-10,1.,-2.45203667480458E-23));
#1208=DIRECTION('',(2.38590391887783E-8,-4.15559574815212E-18,1.));
#1209=DIRECTION('',(1.74173843539429E-10,1.,-2.45203667480458E-23));
#1210=DIRECTION('',(2.38590391887783E-8,-4.15559558490157E-18,1.));
#1211=DIRECTION('center_axis',(1.74173843539429E-10,1.,-2.45203667480458E-23));
#1212=DIRECTION('ref_axis',(-2.38590391462482E-8,4.15559603089299E-18,-1.));
#1213=DIRECTION('center_axis',(-1.74173843539429E-10,-1.,2.45203667480458E-23));
#1214=DIRECTION('ref_axis',(-1.,1.74172912384638E-10,2.38590391887783E-8));
#1215=DIRECTION('',(-2.38590391887783E-8,4.15559558490157E-18,-1.));
#1216=DIRECTION('',(1.,-1.74172731792765E-10,-2.38590391887783E-8));
#1217=DIRECTION('center_axis',(1.74173843539429E-10,1.,-2.45203667480458E-23));
#1218=DIRECTION('ref_axis',(-2.38590391462482E-8,4.15559603089299E-18,-1.));
#1219=DIRECTION('center_axis',(-1.74173843539429E-10,-1.,2.45203667480458E-23));
#1220=DIRECTION('ref_axis',(-1.,1.74172912384638E-10,2.38590391887783E-8));
#1221=DIRECTION('',(1.,-1.74172731792765E-10,-2.38590391887783E-8));
#1222=DIRECTION('center_axis',(1.74173843539429E-10,1.,-2.45203667480458E-23));
#1223=DIRECTION('ref_axis',(-2.38590391462482E-8,4.15559603089299E-18,-1.));
#1224=DIRECTION('center_axis',(-1.74173843539429E-10,-1.,2.45203667480458E-23));
#1225=DIRECTION('ref_axis',(-1.,1.74172912384638E-10,2.38590391887783E-8));
#1226=DIRECTION('',(-1.,1.74172731792765E-10,2.38590391887783E-8));
#1227=DIRECTION('center_axis',(1.74173843539429E-10,1.,-2.45203667480458E-23));
#1228=DIRECTION('ref_axis',(-2.38590391462482E-8,4.15559603089299E-18,-1.));
#1229=DIRECTION('',(-1.,1.74172731792765E-10,2.38590391887783E-8));
#1230=DIRECTION('',(-2.38590391887783E-8,4.15559558490157E-18,-1.));
#1231=DIRECTION('center_axis',(-1.74173843539429E-10,-1.,2.45203667480458E-23));
#1232=DIRECTION('ref_axis',(-1.,1.74172912384638E-10,2.38590391887783E-8));
#1233=DIRECTION('center_axis',(1.,-1.74173843539429E-10,-2.38590391887783E-8));
#1234=DIRECTION('ref_axis',(-2.38590391887783E-8,4.15559558490157E-18,-1.));
#1235=DIRECTION('',(1.74173843539429E-10,1.,-2.45203667480458E-23));
#1236=DIRECTION('',(-2.38590391887783E-8,4.15559574815212E-18,-1.));
#1237=DIRECTION('',(1.74173843539429E-10,1.,-2.45203667480458E-23));
#1238=DIRECTION('center_axis',(1.74173843539429E-10,1.,-2.45203667480458E-23));
#1239=DIRECTION('ref_axis',(-2.38590391462482E-8,4.15559603089299E-18,-1.));
#1240=DIRECTION('center_axis',(-1.74173843539429E-10,-1.,2.45203667480458E-23));
#1241=DIRECTION('ref_axis',(1.,-1.7417271925799E-10,4.25301278728248E-17));
#1242=DIRECTION('',(-1.,1.74075465114817E-10,2.38590391887783E-8));
#1243=DIRECTION('',(-2.38590391887783E-8,9.72708335443142E-14,-1.));
#1244=DIRECTION('center_axis',(1.74173843539429E-10,1.,-2.45203667480458E-23));
#1245=DIRECTION('ref_axis',(-2.38590391462482E-8,4.15559603089299E-18,-1.));
#1246=DIRECTION('center_axis',(-1.74173843539429E-10,-1.,2.45203667480458E-23));
#1247=DIRECTION('ref_axis',(1.,-1.7417271925799E-10,4.25301278728248E-17));
#1248=DIRECTION('',(-2.38590391887783E-8,9.72708335443142E-14,-1.));
#1249=DIRECTION('',(1.,-1.74172731792765E-10,-2.38590391887783E-8));
#1250=DIRECTION('center_axis',(1.74173843539429E-10,1.,-2.45203667480458E-23));
#1251=DIRECTION('ref_axis',(-2.38590391462482E-8,4.15559603089299E-18,-1.));
#1252=DIRECTION('center_axis',(-1.74173843539429E-10,-1.,2.45203667480458E-23));
#1253=DIRECTION('ref_axis',(1.,-1.7417271925799E-10,4.25301278728248E-17));
#1254=DIRECTION('',(1.,-1.74172731792765E-10,-2.38590391887783E-8));
#1255=DIRECTION('',(2.38590391887783E-8,-4.15559558490157E-18,1.));
#1256=DIRECTION('center_axis',(1.74173843539429E-10,1.,-2.45203667480458E-23));
#1257=DIRECTION('ref_axis',(-2.38590391462482E-8,4.15559603089299E-18,-1.));
#1258=DIRECTION('',(2.38590391887783E-8,-4.15559558490157E-18,1.));
#1259=DIRECTION('',(-1.,1.74075465114817E-10,2.38590391887783E-8));
#1260=DIRECTION('center_axis',(-1.74173843539429E-10,-1.,2.45203667480458E-23));
#1261=DIRECTION('ref_axis',(1.,-1.7417271925799E-10,4.25301278728248E-17));
#1262=DIRECTION('center_axis',(1.,-1.74173843539429E-10,-2.38590391887783E-8));
#1263=DIRECTION('ref_axis',(-2.38590391887783E-8,9.72708335443142E-14,-1.));
#1264=DIRECTION('',(-2.38590391887783E-8,4.15559574815212E-18,-1.));
#1265=DIRECTION('',(1.74173843539429E-10,1.,-2.45203667480458E-23));
#1266=DIRECTION('',(1.74173843539429E-10,1.,-2.45203667480458E-23));
#1267=DIRECTION('center_axis',(-1.,1.74173843539429E-10,2.38590391887783E-8));
#1268=DIRECTION('ref_axis',(2.38590391887783E-8,-4.15559558490157E-18,1.));
#1269=DIRECTION('',(2.38590391887783E-8,-4.15559574815212E-18,1.));
#1270=DIRECTION('',(1.74173843539429E-10,1.,-2.45203667480458E-23));
#1271=DIRECTION('',(1.74173843539429E-10,1.,-2.45203667480458E-23));
#1272=DIRECTION('center_axis',(-1.74172733316408E-10,-1.,-1.67833931450485E-24));
#1273=DIRECTION('ref_axis',(-1.,1.74172733316408E-10,2.38590391887783E-8));
#1274=DIRECTION('',(1.,-1.74172733316408E-10,-2.38590391887783E-8));
#1275=DIRECTION('',(-1.,1.74172733316408E-10,2.38590391887783E-8));
#1276=DIRECTION('center_axis',(-1.74172733316408E-10,-1.,-1.67833931450485E-24));
#1277=DIRECTION('ref_axis',(-1.,1.74172733316408E-10,2.38590391887783E-8));
#1278=DIRECTION('',(-1.,1.74172733316408E-10,2.38590391887783E-8));
#1279=DIRECTION('',(1.,-1.74172733316408E-10,-2.38590391887783E-8));
#1280=DIRECTION('center_axis',(-1.74172733316408E-10,-1.,-1.67833931450485E-24));
#1281=DIRECTION('ref_axis',(-1.,1.74172733316408E-10,2.38590391887783E-8));
#1282=DIRECTION('',(-1.,1.74172733316408E-10,2.38590391887783E-8));
#1283=DIRECTION('',(1.,-1.74172733316408E-10,-2.38590391887783E-8));
#1284=DIRECTION('center_axis',(2.38590391887783E-8,-4.15559603830063E-18,
1.));
#1285=DIRECTION('ref_axis',(1.,-1.74172733316408E-10,-2.38590391887783E-8));
#1286=DIRECTION('',(1.,-1.74172734840051E-10,-2.38590391887783E-8));
#1287=DIRECTION('center_axis',(-2.38590391887783E-8,4.15559603830063E-18,
-1.));
#1288=DIRECTION('ref_axis',(-1.,1.74172733316408E-10,2.38590391887783E-8));
#1289=DIRECTION('',(-1.,1.74172734840051E-10,2.38590391887783E-8));
#1290=DIRECTION('center_axis',(-1.74172733316408E-10,-1.,-1.67833931450485E-24));
#1291=DIRECTION('ref_axis',(-1.,1.74172733316408E-10,2.38590391887783E-8));
#1292=DIRECTION('',(-1.,1.74172733316408E-10,2.38590391887783E-8));
#1293=DIRECTION('',(1.,-1.74172733316408E-10,-2.38590391887783E-8));
#1294=DIRECTION('center_axis',(-2.38590391887783E-8,4.15559603830063E-18,
-1.));
#1295=DIRECTION('ref_axis',(-1.,1.74172733316408E-10,2.38590391887783E-8));
#1296=DIRECTION('',(-1.,1.74172896802577E-10,2.38590391887783E-8));
#1297=DIRECTION('center_axis',(2.38590391887783E-8,-4.15559603830063E-18,
1.));
#1298=DIRECTION('ref_axis',(1.,-1.74172733316408E-10,-2.38590391887783E-8));
#1299=DIRECTION('',(1.,-1.74172896802577E-10,-2.38590391887783E-8));
#1300=DIRECTION('center_axis',(1.74172734840051E-10,1.,1.8052372161174E-24));
#1301=DIRECTION('ref_axis',(1.,-1.74172734840051E-10,4.25301330865692E-17));
#1302=DIRECTION('center_axis',(-1.74172896802577E-10,-1.,1.26897915083651E-25));
#1303=DIRECTION('ref_axis',(-1.,1.74172896802577E-10,2.38590391887783E-8));
#1304=DIRECTION('center_axis',(-1.7417271925799E-10,-1.,8.47409102061987E-33));
#1305=DIRECTION('ref_axis',(1.,-1.7417271925799E-10,4.25301278728248E-17));
#1306=DIRECTION('',(1.7417271925799E-10,1.,-8.47409102061987E-33));
#1307=DIRECTION('center_axis',(5.87584855901071E-8,-1.63126657463571E-17,
0.999999999999998));
#1308=DIRECTION('ref_axis',(0.999999999999998,-3.48345631642627E-10,-5.87584855901071E-8));
#1309=DIRECTION('center_axis',(-5.87584855901071E-8,1.63126657463571E-17,
-0.999999999999998));
#1310=DIRECTION('ref_axis',(-0.999999999999998,5.22518529968846E-10,5.87584855901071E-8));
#1311=DIRECTION('center_axis',(-5.56710918285273E-8,1.52371856163501E-17,
-0.999999999999999));
#1312=DIRECTION('ref_axis',(-5.22518529968846E-10,-1.,1.38519914476527E-17));
#1313=DIRECTION('center_axis',(-2.99009247825668E-20,3.23352455922077E-15,
-1.));
#1314=DIRECTION('ref_axis',(-1.,5.22518529968846E-10,2.98998218750837E-20));
#1315=DIRECTION('',(-5.56710918285273E-8,1.52371856163501E-17,-0.999999999999998));
#1316=DIRECTION('center_axis',(2.99009247825668E-20,-3.23352455922077E-15,
1.));
#1317=DIRECTION('ref_axis',(5.40987012922722E-10,1.,3.28903571045203E-15));
#1318=DIRECTION('',(1.74172657309588E-10,1.,3.23352455922076E-15));
#1319=DIRECTION('',(1.74172974333122E-10,1.,3.23352455922076E-15));
#1320=DIRECTION('center_axis',(-0.707106768533381,1.23156602599357E-10,
0.707106793839714));
#1321=DIRECTION('ref_axis',(0.707106793839714,0.,0.707106768533381));
#1322=DIRECTION('center_axis',(1.74172734840051E-10,1.,1.8052372161174E-24));
#1323=DIRECTION('ref_axis',(1.,-1.74172734840051E-10,4.25301330865692E-17));
#1324=DIRECTION('center_axis',(-0.70710678540427,1.23160954262631E-10,-0.707106776968826));
#1325=DIRECTION('ref_axis',(-0.707106776968826,2.46317559800439E-10,0.707106785404269));
#1326=DIRECTION('center_axis',(1.74172912384638E-10,1.,-2.30390813505521E-24));
#1327=DIRECTION('ref_axis',(-1.,1.74172912384638E-10,2.38590391887783E-8));
#1328=DIRECTION('',(1.74172912384638E-10,1.,-2.30390813505521E-24));
#1329=DIRECTION('center_axis',(-1.74172896802577E-10,-1.,1.26897915083651E-25));
#1330=DIRECTION('ref_axis',(-1.,1.74172896802577E-10,2.38590391887783E-8));
#1331=CARTESIAN_POINT('',(0.,0.,0.));
#1332=CARTESIAN_POINT('Origin',(-1.60226528843208E-6,-91.8225316063018,
-21.761421772527));
#1333=CARTESIAN_POINT('',(11.1914197477084,-117.943185924489,-21.7614220395436));
#1334=CARTESIAN_POINT('',(-11.19142376396,-117.943185920591,-21.7614215055105));
#1335=CARTESIAN_POINT('',(-8.75000039475359,-117.943185921016,-21.7614215637605));
#1336=CARTESIAN_POINT('',(-11.1914237700372,-106.484606991218,-21.7614215055105));
#1337=CARTESIAN_POINT('',(-11.1914237773666,-92.6651919424392,-21.7614215055105));
#1338=CARTESIAN_POINT('',(11.1914197416311,-106.484607262134,-21.7614220395436));
#1339=CARTESIAN_POINT('',(-8.75000059363843,-106.484607020769,-21.7614215637605));
#1340=CARTESIAN_POINT('',(11.1914197343017,-92.6651913374367,-21.7614220395436));
#1341=CARTESIAN_POINT('Origin',(-17.4999993777184,-117.943185919492,-29.9355138460197));
#1342=CARTESIAN_POINT('',(12.6914197119199,-117.943185924751,-23.2614220753322));
#1343=CARTESIAN_POINT('',(6.45173290758574,-117.943185923664,-17.0217349732522));
#1344=CARTESIAN_POINT('',(17.4999986041805,-117.943185925588,-23.2614221900603));
#1345=CARTESIAN_POINT('',(8.74999898029969,-117.943185924064,-23.2614219812937));
#1346=CARTESIAN_POINT('',(17.4999986858996,-117.943185925588,-16.4112653031029));
#1347=CARTESIAN_POINT('',(17.4999986699669,-117.943185925588,-17.7468328770267));
#1348=CARTESIAN_POINT('',(11.499998827604,-117.943185924543,-10.4112653732302));
#1349=CARTESIAN_POINT('',(19.3810609211037,-117.943185925916,-18.2923275607472));
#1350=CARTESIAN_POINT('',(-11.4999992149308,-117.943185920537,-10.4112650988513));
#1351=CARTESIAN_POINT('',(15.1249993899967,-117.943185925175,-10.4112653732302));
#1352=CARTESIAN_POINT('',(-17.4999992163806,-117.943185919492,-16.4112648855697));
#1353=CARTESIAN_POINT('',(-19.381061496465,-117.943185919164,-18.2923270983337));
#1354=CARTESIAN_POINT('',(-17.4999992980997,-117.943185919492,-23.261421354994));
#1355=CARTESIAN_POINT('',(-17.4999992323133,-117.943185919492,-17.7468324594935));
#1356=CARTESIAN_POINT('',(-12.6914237997486,-117.94318592033,-23.261421469722));
#1357=CARTESIAN_POINT('',(-8.74999997084038,-117.943185921016,-23.2614215637605));
#1358=CARTESIAN_POINT('',(-15.2017355023263,-117.943185919892,-25.7717330525124));
#1359=CARTESIAN_POINT('',(-5.94999978961022,-117.943185921504,-16.8863434730979));
#1360=CARTESIAN_POINT('Origin',(-8.74999978961022,-117.943185921016,-16.8863434062926));
#1361=CARTESIAN_POINT('',(5.9499992477943,-117.943185923576,-16.8863436150592));
#1362=CARTESIAN_POINT('Origin',(8.7499992477943,-117.943185924064,-16.8863436150592));
#1363=CARTESIAN_POINT('Origin',(11.9707090380369,-93.5078510740939,-22.540711380018));
#1364=CARTESIAN_POINT('',(12.6914197066381,-107.984607280289,-23.2614220753322));
#1365=CARTESIAN_POINT('',(2.6995314254994,-97.9927186451142,-13.2695333226991));
#1366=CARTESIAN_POINT('',(12.6914196921168,-80.6048686512305,-23.2614220753322));
#1367=CARTESIAN_POINT('Origin',(-11.9707131173941,-93.5078522730543,-22.5407108087987));
#1368=CARTESIAN_POINT('',(-12.6914238050303,-107.984606973063,-23.261421469722));
#1369=CARTESIAN_POINT('',(-12.6914238195516,-80.6048692578241,-23.261421469722));
#1370=CARTESIAN_POINT('',(-8.53286791093352,-103.826051226314,-19.1028657718579));
#1371=CARTESIAN_POINT('Origin',(-7.14449156384543E-7,-67.7018862354805,
-23.2614217725271));
#1372=CARTESIAN_POINT('',(17.499998605915,-107.984607338491,-23.2614221900603));
#1373=CARTESIAN_POINT('',(8.7499986193855,-107.984607232583,-23.2614219812937));
#1374=CARTESIAN_POINT('',(17.4999986187554,-34.2622081807349,-23.2614221900603));
#1375=CARTESIAN_POINT('Origin',(-7.14449156384543E-7,-67.7018862354805,
-23.2614217725271));
#1376=CARTESIAN_POINT('',(-17.4999992963651,-107.984607332395,-23.2614217725271));
#1377=CARTESIAN_POINT('',(-17.4999992835247,-34.2622081746389,-23.261421354994));
#1378=CARTESIAN_POINT('',(8.7499986193855,-107.984607232583,-23.2614219812937));
#1379=CARTESIAN_POINT('Origin',(-8.74999978961022,-117.943185921016,-16.8863434062926));
#1380=CARTESIAN_POINT('',(-5.94999978903545,-114.643185921504,-16.8863434730979));
#1381=CARTESIAN_POINT('',(-5.94999978961022,-117.943185921504,-16.8863434730979));
#1382=CARTESIAN_POINT('',(-6.48781047095959,-114.64318592141,-18.5363432514997));
#1383=CARTESIAN_POINT('Origin',(-8.74999978903545,-114.643185921016,-16.8863434062926));
#1384=CARTESIAN_POINT('',(-6.48781047101184,-114.94318592141,-18.5363432514997));
#1385=CARTESIAN_POINT('',(-6.48781047101184,-114.94318592141,-18.5363432514997));
#1386=CARTESIAN_POINT('',(-11.0121891858984,-114.943185920622,-18.5363431435524));
#1387=CARTESIAN_POINT('Origin',(-8.7499997890877,-114.943185921016,-16.8863434062926));
#1388=CARTESIAN_POINT('',(-11.0121891858461,-114.643185920622,-18.5363431435524));
#1389=CARTESIAN_POINT('',(-11.0121891858984,-114.943185920622,-18.5363431435524));
#1390=CARTESIAN_POINT('',(-11.0121888025702,-114.643185920622,-15.2363431435524));
#1391=CARTESIAN_POINT('Origin',(-8.74999978903545,-114.643185921016,-16.8863434062926));
#1392=CARTESIAN_POINT('',(-11.0121888026224,-114.943185920622,-15.2363431435524));
#1393=CARTESIAN_POINT('',(-11.0121888026224,-114.943185920622,-15.2363431435524));
#1394=CARTESIAN_POINT('',(-6.48781069681814,-114.94318592141,-15.2363432514997));
#1395=CARTESIAN_POINT('Origin',(-8.7499997890877,-114.943185921016,-16.8863434062926));
#1396=CARTESIAN_POINT('',(-6.48781069676589,-114.64318592141,-15.2363432514997));
#1397=CARTESIAN_POINT('',(-6.48781069681814,-114.94318592141,-15.2363432514997));
#1398=CARTESIAN_POINT('Origin',(-8.74999978903545,-114.643185921016,-16.8863434062926));
#1399=CARTESIAN_POINT('Origin',(8.7499992477943,-117.943185924064,-16.8863436150592));
#1400=CARTESIAN_POINT('',(5.94999924836907,-114.643185923576,-16.8863436150592));
#1401=CARTESIAN_POINT('',(5.9499992477943,-117.943185923576,-16.8863436150592));
#1402=CARTESIAN_POINT('',(6.48781008256377,-114.64318592367,-15.2363435610856));
#1403=CARTESIAN_POINT('Origin',(8.74999924836908,-114.643185924064,-16.8863436150592));
#1404=CARTESIAN_POINT('',(6.48781008251152,-114.94318592367,-15.2363435610856));
#1405=CARTESIAN_POINT('',(6.48781008251152,-114.94318592367,-15.2363435610856));
#1406=CARTESIAN_POINT('',(11.012188492857,-114.943185924458,-15.2363436690329));
#1407=CARTESIAN_POINT('Origin',(8.74999924831682,-114.943185924064,-16.8863436150592));
#1408=CARTESIAN_POINT('',(11.0121884929092,-114.643185924458,-15.2363436690329));
#1409=CARTESIAN_POINT('',(11.012188492857,-114.943185924458,-15.2363436690329));
#1410=CARTESIAN_POINT('',(11.0121884141744,-114.643185924458,-18.5363436690329));
#1411=CARTESIAN_POINT('Origin',(8.74999924836908,-114.643185924064,-16.8863436150592));
#1412=CARTESIAN_POINT('',(11.0121884141221,-114.943185924458,-18.5363436690329));
#1413=CARTESIAN_POINT('',(11.0121884141221,-114.943185924458,-18.5363436690329));
#1414=CARTESIAN_POINT('',(6.48781000377669,-114.94318592367,-18.5363435610856));
#1415=CARTESIAN_POINT('Origin',(8.74999924831682,-114.943185924064,-16.8863436150592));
#1416=CARTESIAN_POINT('',(6.48781000382895,-114.64318592367,-18.5363435610856));
#1417=CARTESIAN_POINT('',(6.48781000377669,-114.94318592367,-18.5363435610856));
#1418=CARTESIAN_POINT('Origin',(8.74999924836908,-114.643185924064,-16.8863436150592));
#1419=CARTESIAN_POINT('Origin',(-17.4999992196092,-0.822530116845238,-18.3918866866135));
#1420=CARTESIAN_POINT('',(-17.499999213453,-101.134450445437,-16.4112648855697));
#1421=CARTESIAN_POINT('',(-17.4999989154821,-76.5162704744909,8.2069150853767));
#1422=CARTESIAN_POINT('',(-17.4999992067695,-62.7619194533918,-16.4112648855695));
#1423=CARTESIAN_POINT('Origin',(17.4999986826709,-0.822530122941286,-18.3918871041466));
#1424=CARTESIAN_POINT('',(17.4999986888272,-101.134450451533,-16.4112653031028));
#1425=CARTESIAN_POINT('',(17.4999989867981,-76.5162704805869,8.20691466784353));
#1426=CARTESIAN_POINT('',(17.4999986955106,-62.7619194594878,-16.4112653031027));
#1427=CARTESIAN_POINT('Origin',(-2.84780158709471E-7,-109.518107507398,
-19.0044217725271));
#1428=CARTESIAN_POINT('',(-7.8694062176163E-7,-107.579934397928,-19.0044218294803));
#1429=CARTESIAN_POINT('Origin',(-7.87463137044023E-7,-109.079934397928,
-19.0044217725271));
#1430=CARTESIAN_POINT('Origin',(2.84999948803273,-99.5641469592143,-14.5044703541457));
#1431=CARTESIAN_POINT('',(2.84999934818943,-101.727655666147,-17.004470345501));
#1432=CARTESIAN_POINT('',(2.8499993454392,-110.667647634781,-17.004470345501));
#1433=CARTESIAN_POINT('',(2.84999934793572,-102.552393127726,-17.004470345501));
#1434=CARTESIAN_POINT('',(2.84999948461693,-110.667647639237,-14.5044703543));
#1435=CARTESIAN_POINT('',(2.84999941502807,-110.667647637009,-15.7544703582528));
#1436=CARTESIAN_POINT('',(2.84999948756239,-101.093029092744,-14.504470345501));
#1437=CARTESIAN_POINT('',(2.84999948779957,-100.322040679009,-14.5044703543));
#1438=CARTESIAN_POINT('',(2.84999938371502,-101.093029092744,-16.3698437720981));
#1439=CARTESIAN_POINT('',(2.84999960149896,-101.093029092744,-12.457868325758));
#1440=CARTESIAN_POINT('',(2.84999943203632,-100.229820767147,-15.506635446501));
#1441=CARTESIAN_POINT('Origin',(-6.53226888947376E-7,-105.540639295361,
-17.0044701868384));
#1442=CARTESIAN_POINT('',(-2.85000065178883,-101.727655415827,-17.0044700281757));
#1443=CARTESIAN_POINT('',(-8.74999988224558,-101.727655156725,-17.0044696997163));
#1444=CARTESIAN_POINT('',(-2.85000065457127,-110.667647641611,-17.0044700281757));
#1445=CARTESIAN_POINT('',(-2.85000065327477,-106.501996468596,-17.0044700281757));
#1446=CARTESIAN_POINT('',(-6.63919910304535E-7,-112.313095905389,-17.0044701868383));
#1447=CARTESIAN_POINT('',(-2.86628052795052,-110.658248452322,-17.0044700272694));
#1448=CARTESIAN_POINT('',(1.46627920678344,-111.466538828353,-17.0044702684678));
#1449=CARTESIAN_POINT('',(-6.69426491722681E-7,-107.579934397928,-17.0044701822073));
#1450=CARTESIAN_POINT('Origin',(-6.69949010623673E-7,-109.079934397928,
-17.0044701868384));
#1451=CARTESIAN_POINT('Origin',(-6.63919911635368E-7,-112.313095905389,
-17.0044701868384));
#1452=CARTESIAN_POINT('',(-5.17023696754528E-7,-112.313095905389,-14.5044701868384));
#1453=CARTESIAN_POINT('',(-6.63919911635368E-7,-112.313095905389,-17.0044701868384));
#1454=CARTESIAN_POINT('',(-5.17023695994766E-7,-112.313095905389,-14.5044701868384));
#1455=CARTESIAN_POINT('Origin',(-2.80000066307522,-110.696515150195,-17.0044700223146));
#1456=CARTESIAN_POINT('',(-2.85000051539354,-110.667647637155,-14.5044700193767));
#1457=CARTESIAN_POINT('',(-2.8500005849824,-110.667647639383,-15.7544700167009));
#1458=CARTESIAN_POINT('',(-2.800000516179,-110.696515150195,-14.5044700223146));
#1459=CARTESIAN_POINT('Origin',(-17.4999992125971,-101.063739767319,-16.340554207451));
#1460=CARTESIAN_POINT('',(-17.4585778562202,-101.093029089207,-16.3698435298265));
#1461=CARTESIAN_POINT('',(-10.0810070477949,-93.7154584593735,-8.99227298671877));
#1462=CARTESIAN_POINT('',(-10.3170760342194,-101.093029090451,-16.3698436150212));
#1463=CARTESIAN_POINT('',(-17.4999992129516,-101.0930290892,-16.3698435293324));
#1464=CARTESIAN_POINT('',(-7.09999978676534,-101.609528883272,-16.8863434456601));
#1465=CARTESIAN_POINT('Origin',(-8.74999978676534,-101.609528863301,-16.8863434062926));
#1466=CARTESIAN_POINT('',(-7.18292352680821,-101.093029090997,-16.3698436524101));
#1467=CARTESIAN_POINT('Origin',(-8.74999978676534,-101.609528863301,-16.8863434062926));
#1468=CARTESIAN_POINT('',(-2.85000061626097,-101.093029091752,-16.3698437040998));
#1469=CARTESIAN_POINT('',(-17.4999992129516,-101.0930290892,-16.3698435293324));
#1470=CARTESIAN_POINT('',(-2.85000067849055,-102.204622308116,-17.481436920464));
#1471=CARTESIAN_POINT('',(7.18292300318516,-101.093029093499,-16.3698438237878));
#1472=CARTESIAN_POINT('',(-17.4999992129516,-101.0930290892,-16.3698435293324));
#1473=CARTESIAN_POINT('',(7.09999925063918,-101.609528885745,-16.8863436150592));
#1474=CARTESIAN_POINT('Origin',(8.74999925063918,-101.609528866349,-16.8863436150592));
#1475=CARTESIAN_POINT('',(10.3170755105963,-101.093029094045,-16.3698438611767));
#1476=CARTESIAN_POINT('Origin',(8.74999925063918,-101.609528866349,-16.8863436150592));
#1477=CARTESIAN_POINT('',(17.4585773325971,-101.093029095289,-16.3698439463714));
#1478=CARTESIAN_POINT('',(17.4999986893286,-101.093029095296,-16.3698439468655));
#1479=CARTESIAN_POINT('',(10.0810067027635,-93.7154584628852,-8.99227322724191));
#1480=CARTESIAN_POINT('Origin',(-6.69949010623672E-7,-109.079934397928,
-17.0044701868383));
#1481=CARTESIAN_POINT('',(-6.69426491994797E-7,-107.579934397928,-17.0044701868383));
#1482=CARTESIAN_POINT('Origin',(-2.85000051439625,-107.463353642718,-14.504470019531));
#1483=CARTESIAN_POINT('',(-2.85000051241358,-101.093029091752,-14.5044700281757));
#1484=CARTESIAN_POINT('',(-2.85000039847701,-101.093029091752,-12.457867999788));
#1485=CARTESIAN_POINT('',(-2.85000051340288,-104.271644019879,-14.5044700193767));
#1486=CARTESIAN_POINT('Origin',(-17.4999991418686,-101.0930290892,-10.4112651644636));
#1487=CARTESIAN_POINT('',(-8.74999994150813,-101.093029090724,-14.5044696997163));
#1488=CARTESIAN_POINT('Origin',(-8.74999978667538,-101.093029090724,-16.8863434062926));
#1489=CARTESIAN_POINT('',(-11.499999211996,-101.093029090245,-10.4112650988513));
#1490=CARTESIAN_POINT('',(-14.4999992649125,-101.093029089722,-13.4112650444021));
#1491=CARTESIAN_POINT('',(11.4999988305389,-101.093029094251,-10.4112653732302));
#1492=CARTESIAN_POINT('',(15.124999509389,-101.093029094882,-10.4112653732302));
#1493=CARTESIAN_POINT('',(14.4999988118783,-101.093029094773,-13.4112653903582));
#1494=CARTESIAN_POINT('Origin',(8.74999925072914,-101.093029093772,-16.8863436150592));
#1495=CARTESIAN_POINT('Origin',(-10.3999998284029,-114.643185920729,-18.5363433669252));
#1496=CARTESIAN_POINT('',(-10.3999997889832,-114.343185920729,-16.8863433669252));
#1497=CARTESIAN_POINT('',(-10.3999997496158,-114.343185920729,-15.2363433669252));
#1498=CARTESIAN_POINT('',(-10.3999998283506,-114.343185920729,-18.5363433669252));
#1499=CARTESIAN_POINT('',(-10.399999749668,-114.643185920729,-15.2363433669252));
#1500=CARTESIAN_POINT('',(-10.399999749668,-114.643185920729,-15.2363433669252));
#1501=CARTESIAN_POINT('',(-10.3999998284029,-114.643185920729,-18.5363433669252));
#1502=CARTESIAN_POINT('',(-10.3999998087192,-114.643185920729,-17.7113433147336));
#1503=CARTESIAN_POINT('',(-10.3999998283506,-114.343185920729,-18.5363433669252));
#1504=CARTESIAN_POINT('',(-10.3999998284029,-114.643185920729,-18.5363433669252));
#1505=CARTESIAN_POINT('',(-10.3999998283506,-114.343185920729,-18.5363433669252));
#1506=CARTESIAN_POINT('Origin',(-2.70280936180775E-7,-114.34318592254,-16.8863435106759));
#1507=CARTESIAN_POINT('',(-7.09999978898321,-114.343185921304,-16.88634344566));
#1508=CARTESIAN_POINT('',(-8.74999974961579,-114.343185921016,-15.2363434062926));
#1509=CARTESIAN_POINT('Origin',(-8.7499997889832,-114.343185921016,-16.8863434062926));
#1510=CARTESIAN_POINT('',(-7.09999974961579,-114.343185921304,-15.23634344566));
#1511=CARTESIAN_POINT('',(-7.09999974961579,-114.343185921304,-15.23634344566));
#1512=CARTESIAN_POINT('',(-10.3999997496158,-114.343185920729,-15.2363433669252));
#1513=CARTESIAN_POINT('Origin',(-2.70280936180775E-7,-114.34318592254,-16.8863435106759));
#1514=CARTESIAN_POINT('Origin',(-8.7499997889832,-114.343185921016,-16.8863434062926));
#1515=CARTESIAN_POINT('',(-10.3999997496158,-114.343185920729,-15.2363433669252));
#1516=CARTESIAN_POINT('Origin',(-2.70280936180775E-7,-114.34318592254,-16.8863435106759));
#1517=CARTESIAN_POINT('',(-8.74999982835061,-114.343185921016,-18.5363434062926));
#1518=CARTESIAN_POINT('Origin',(-8.7499997889832,-114.343185921016,-16.8863434062926));
#1519=CARTESIAN_POINT('',(-7.09999982835062,-114.343185921304,-18.53634344566));
#1520=CARTESIAN_POINT('Origin',(-2.70280936180775E-7,-114.34318592254,-16.8863435106759));
#1521=CARTESIAN_POINT('',(-7.09999982835062,-114.343185921304,-18.53634344566));
#1522=CARTESIAN_POINT('',(-7.09999982835062,-114.343185921304,-18.53634344566));
#1523=CARTESIAN_POINT('',(-7.09999974961579,-114.343185921304,-15.23634344566));
#1524=CARTESIAN_POINT('Origin',(-8.7499997889832,-114.343185921016,-16.8863434062926));
#1525=CARTESIAN_POINT('Origin',(-7.09999974966805,-114.643185921304,-15.23634344566));
#1526=CARTESIAN_POINT('',(-7.09999982840288,-114.643185921304,-18.53634344566));
#1527=CARTESIAN_POINT('',(-7.09999982840288,-114.643185921304,-18.53634344566));
#1528=CARTESIAN_POINT('',(-7.09999974966805,-114.643185921304,-15.23634344566));
#1529=CARTESIAN_POINT('',(-7.09999976935175,-114.643185921304,-16.0613433934684));
#1530=CARTESIAN_POINT('',(-7.09999974966805,-114.643185921304,-15.23634344566));
#1531=CARTESIAN_POINT('Origin',(-2.70280936180775E-7,-114.34318592254,-16.8863435106759));
#1532=CARTESIAN_POINT('',(8.74999920905391,-114.343185924064,-18.5363436150592));
#1533=CARTESIAN_POINT('',(10.3999992484213,-114.343185924352,-16.8863436544266));
#1534=CARTESIAN_POINT('Origin',(8.74999924842133,-114.343185924064,-16.8863436150592));
#1535=CARTESIAN_POINT('',(10.3999992090539,-114.343185924351,-18.5363436544266));
#1536=CARTESIAN_POINT('',(10.3999992090539,-114.343185924351,-18.5363436544266));
#1537=CARTESIAN_POINT('',(10.3999992877887,-114.343185924352,-15.2363436544266));
#1538=CARTESIAN_POINT('Origin',(-2.70280936180775E-7,-114.34318592254,-16.8863435106759));
#1539=CARTESIAN_POINT('',(8.74999928778874,-114.343185924064,-15.2363436150592));
#1540=CARTESIAN_POINT('Origin',(8.74999924842133,-114.343185924064,-16.8863436150592));
#1541=CARTESIAN_POINT('',(10.3999992877887,-114.343185924352,-15.2363436544266));
#1542=CARTESIAN_POINT('',(10.3999992877887,-114.343185924352,-15.2363436544266));
#1543=CARTESIAN_POINT('',(7.09999928778875,-114.343185923777,-15.2363435756918));
#1544=CARTESIAN_POINT('Origin',(-2.70280936180775E-7,-114.34318592254,-16.8863435106759));
#1545=CARTESIAN_POINT('',(7.09999924842133,-114.343185923777,-16.8863435756918));
#1546=CARTESIAN_POINT('Origin',(8.74999924842133,-114.343185924064,-16.8863436150592));
#1547=CARTESIAN_POINT('',(7.09999928778875,-114.343185923777,-15.2363435756918));
#1548=CARTESIAN_POINT('',(7.09999928778875,-114.343185923777,-15.2363435756918));
#1549=CARTESIAN_POINT('',(7.09999920905392,-114.343185923777,-18.5363435756918));
#1550=CARTESIAN_POINT('Origin',(-2.70280936180775E-7,-114.34318592254,-16.8863435106759));
#1551=CARTESIAN_POINT('',(7.09999920905392,-114.343185923777,-18.5363435756918));
#1552=CARTESIAN_POINT('',(7.09999920905392,-114.343185923777,-18.5363435756918));
#1553=CARTESIAN_POINT('',(10.3999992090539,-114.343185924351,-18.5363436544266));
#1554=CARTESIAN_POINT('Origin',(8.74999924842133,-114.343185924064,-16.8863436150592));
#1555=CARTESIAN_POINT('Origin',(10.3999992877365,-114.643185924352,-15.2363436544266));
#1556=CARTESIAN_POINT('',(10.3999992877365,-114.643185924352,-15.2363436544266));
#1557=CARTESIAN_POINT('',(10.3999992090017,-114.643185924351,-18.5363436544266));
#1558=CARTESIAN_POINT('',(10.3999992680528,-114.643185924352,-16.0613437066183));
#1559=CARTESIAN_POINT('',(10.3999992877365,-114.643185924352,-15.2363436544266));
#1560=CARTESIAN_POINT('',(10.3999992090017,-114.643185924351,-18.5363436544266));
#1561=CARTESIAN_POINT('Origin',(7.09999920900167,-114.643185923777,-18.5363435756918));
#1562=CARTESIAN_POINT('',(7.09999920900167,-114.643185923777,-18.5363435756918));
#1563=CARTESIAN_POINT('',(7.09999928773649,-114.643185923777,-15.2363435756918));
#1564=CARTESIAN_POINT('',(7.09999922868537,-114.643185923777,-17.7113436278835));
#1565=CARTESIAN_POINT('',(7.09999920900167,-114.643185923777,-18.5363435756918));
#1566=CARTESIAN_POINT('',(7.09999928773649,-114.643185923777,-15.2363435756918));
#1567=CARTESIAN_POINT('Origin',(8.74999924836908,-114.643185924064,-16.8863437194425));
#1568=CARTESIAN_POINT('',(30.6755149841894,-114.643185927883,-15.236344138181));
#1569=CARTESIAN_POINT('',(-13.1755164874512,-114.643185920245,-18.5363430919375));
#1570=CARTESIAN_POINT('Origin',(8.74999924836908,-114.643185924064,-16.8863437194425));
#1571=CARTESIAN_POINT('',(-13.1755164874512,-114.643185920245,-18.5363430919375));
#1572=CARTESIAN_POINT('',(30.6755149841894,-114.643185927883,-15.236344138181));
#1573=CARTESIAN_POINT('Origin',(8.74999924836908,-114.643185924064,-16.8863437194425));
#1574=CARTESIAN_POINT('',(-13.1755164874512,-114.643185920245,-18.5363430919375));
#1575=CARTESIAN_POINT('',(30.6755149841894,-114.643185927883,-15.236344138181));
#1576=CARTESIAN_POINT('Origin',(6.48781008251152,-114.94318592367,-15.2363435610856));
#1577=CARTESIAN_POINT('',(7.61890468425978,-114.943185923867,-15.2363435880724));
#1578=CARTESIAN_POINT('Origin',(8.74999920894941,-114.943185924064,-18.5363436150592));
#1579=CARTESIAN_POINT('',(8.74999920811131,-114.943185924064,-18.5363436150592));
#1580=CARTESIAN_POINT('Origin',(8.74999924836908,-114.643185924064,-16.8863437194425));
#1581=CARTESIAN_POINT('',(-13.1755164874512,-114.643185920245,-18.5363430919375));
#1582=CARTESIAN_POINT('',(30.6755149841894,-114.643185927883,-15.236344138181));
#1583=CARTESIAN_POINT('Origin',(-8.74952061741451,-114.943185921016,-18.5363431975375));
#1584=CARTESIAN_POINT('',(-8.74976022209671,-114.943185921016,-18.5363431975318));
#1585=CARTESIAN_POINT('Origin',(-11.0121888026224,-114.943185920622,-15.2363431435524));
#1586=CARTESIAN_POINT('',(-9.88109427533325,-114.943185920819,-15.2363431705392));
#1587=CARTESIAN_POINT('Origin',(8.74999924664061,-114.943185924064,-16.8863437533126));
#1588=CARTESIAN_POINT('Origin',(-8.7499997874115,-114.943185921016,-16.8863435445461));
#1589=CARTESIAN_POINT('Origin',(8.74999924831682,-114.943185924064,-16.8863436150592));
#1590=CARTESIAN_POINT('',(7.09999924831682,-114.943185923777,-16.8863436150592));
#1591=CARTESIAN_POINT('Origin',(-6.20248144020658E-7,-101.079934397928,
-14.5044701868384));
#1592=CARTESIAN_POINT('',(-5.22269018937892E-7,-107.579934397928,-14.5044701914694));
#1593=CARTESIAN_POINT('Origin',(-5.23052796658724E-7,-109.079934397928,
-14.5044701868384));
#1594=CARTESIAN_POINT('Origin',(-1.05519607944769E-7,-109.079934397928,
-7.00447018683837));
#1595=CARTESIAN_POINT('',(-2.94395832979819E-7,-107.579934397928,-10.4112652897236));
#1596=CARTESIAN_POINT('Origin',(-2.95179615607375E-7,-109.079934397928,
-10.4112653732302));
#1597=CARTESIAN_POINT('',(-1.04735829966119E-7,-107.579934397928,-7.00447018683837));
#1598=CARTESIAN_POINT('Origin',(12.7500002542546,-124.701308795207,-10.4112653732303));
#1599=CARTESIAN_POINT('',(11.4999988372151,-62.7619194584428,-10.4112653732301));
#1600=CARTESIAN_POINT('',(-11.4999994850928,-93.7316141227101,-10.4112653732302));
#1601=CARTESIAN_POINT('Origin',(-14.4999992060446,-62.7619194539143,-13.4112649922103));
#1602=CARTESIAN_POINT('Origin',(8.74999924664061,-114.943185924064,-16.8863437533126));
#1603=CARTESIAN_POINT('Origin',(14.4999987663629,-62.7619194589653,-13.4112653381664));
#1604=CARTESIAN_POINT('Origin',(-8.7499997890877,-114.943185921016,-16.8863434062926));
#1605=CARTESIAN_POINT('',(-7.0999997890877,-114.943185921303,-16.88634344566));
#1606=CARTESIAN_POINT('Origin',(-8.7499997874115,-114.943185921016,-16.8863435445461));
#1607=UNCERTAINTY_MEASURE_WITH_UNIT(LENGTH_MEASURE(0.01),#1611,
'DISTANCE_ACCURACY_VALUE',
'Maximum model space distance between geometric entities at asserted c
onnectivities');
#1608=UNCERTAINTY_MEASURE_WITH_UNIT(LENGTH_MEASURE(0.01),#1611,
'DISTANCE_ACCURACY_VALUE',
'Maximum model space distance between geometric entities at asserted c
onnectivities');
#1609=(
GEOMETRIC_REPRESENTATION_CONTEXT(3)
GLOBAL_UNCERTAINTY_ASSIGNED_CONTEXT((#1607))
GLOBAL_UNIT_ASSIGNED_CONTEXT((#1611,#1613,#1614))
REPRESENTATION_CONTEXT('','3D')
);
#1610=(
GEOMETRIC_REPRESENTATION_CONTEXT(3)
GLOBAL_UNCERTAINTY_ASSIGNED_CONTEXT((#1608))
GLOBAL_UNIT_ASSIGNED_CONTEXT((#1611,#1613,#1614))
REPRESENTATION_CONTEXT('','3D')
);
#1611=(
LENGTH_UNIT()
NAMED_UNIT(*)
SI_UNIT(.MILLI.,.METRE.)
);
#1612=(
LENGTH_UNIT()
NAMED_UNIT(*)
SI_UNIT($,.METRE.)
);
#1613=(
NAMED_UNIT(*)
PLANE_ANGLE_UNIT()
SI_UNIT($,.RADIAN.)
);
#1614=(
NAMED_UNIT(*)
SI_UNIT($,.STERADIAN.)
SOLID_ANGLE_UNIT()
);
#1615=SHAPE_DEFINITION_REPRESENTATION(#1616,#1617);
#1616=PRODUCT_DEFINITION_SHAPE('',$,#1619);
#1617=SHAPE_REPRESENTATION('',(#981),#1609);
#1618=PRODUCT_DEFINITION_CONTEXT('part definition',#1623,'design');
#1619=PRODUCT_DEFINITION('29. Front Lock','29. Front Lock',#1620,#1618);
#1620=PRODUCT_DEFINITION_FORMATION('',$,#1625);
#1621=PRODUCT_RELATED_PRODUCT_CATEGORY('29. Front Lock',
'29. Front Lock',(#1625));
#1622=APPLICATION_PROTOCOL_DEFINITION('international standard',
'automotive_design',2009,#1623);
#1623=APPLICATION_CONTEXT(
'Core Data for Automotive Mechanical Design Process');
#1624=PRODUCT_CONTEXT('part definition',#1623,'mechanical');
#1625=PRODUCT('29. Front Lock','29. Front Lock',$,(#1624));
#1626=PRESENTATION_STYLE_ASSIGNMENT((#1628));
#1627=PRESENTATION_STYLE_ASSIGNMENT((#1629));
#1628=SURFACE_STYLE_USAGE(.BOTH.,#1630);
#1629=SURFACE_STYLE_USAGE(.BOTH.,#1631);
#1630=SURFACE_SIDE_STYLE('',(#1632));
#1631=SURFACE_SIDE_STYLE('',(#1633));
#1632=SURFACE_STYLE_FILL_AREA(#1634);
#1633=SURFACE_STYLE_FILL_AREA(#1635);
#1634=FILL_AREA_STYLE('Steel - Satin',(#1636));
#1635=FILL_AREA_STYLE('Plastic - Matte (Black)',(#1637));
#1636=FILL_AREA_STYLE_COLOUR('Steel - Satin',#1638);
#1637=FILL_AREA_STYLE_COLOUR('Plastic - Matte (Black)',#1639);
#1638=COLOUR_RGB('Steel - Satin',0.627450980392157,0.627450980392157,0.627450980392157);
#1639=COLOUR_RGB('Plastic - Matte (Black)',0.219607843137255,0.219607843137255,
0.219607843137255);
ENDSEC;
END-ISO-10303-21;
