ISO-10303-21;
HEADER;
/* Generated by software containing ST-Developer
 * from STEP Tools, Inc. (www.steptools.com) 
 */

FILE_DESCRIPTION(
/* description */ (''),
/* implementation_level */ '2;1');

FILE_NAME(
/* name */ '31A. Trigger Guard.step',
/* time_stamp */ '2025-10-08T23:25:56+01:00',
/* author */ (''),
/* organization */ (''),
/* preprocessor_version */ 'ST-DEVELOPER v20.1',
/* originating_system */ 'Autodesk Translation Framework v14.10.0.0',
/* authorisation */ '');

FILE_SCHEMA (('AUTOMOTIVE_DESIGN { 1 0 10303 214 3 1 1 }'));
ENDSEC;

DATA;
#10=MECHANICAL_DESIGN_GEOMETRIC_PRESENTATION_REPRESENTATION('',(#13),#978);
#11=SHAPE_REPRESENTATION_RELATIONSHIP('SRR','None',#985,#12);
#12=ADVANCED_BREP_SHAPE_REPRESENTATION('',(#14),#977);
#13=STYLED_ITEM('',(#995),#14);
#14=MANIFOLD_SOLID_BREP('31A. Trigger Guard',#576);
#15=(
BOUNDED_SURFACE()
B_SPLINE_SURFACE(1,2,((#936,#937,#938,#939,#940,#941,#942,#943,#944),(#945,
#946,#947,#948,#949,#950,#951,#952,#953)),.UNSPECIFIED.,.F.,.T.,.F.)
B_SPLINE_SURFACE_WITH_KNOTS((2,2),(3,2,2,2,3),(0.784880470141968,3.01877103900758),
(-3.14159265358979,-1.5707963267949,0.,1.5707963267949,3.14159265358979),
 .UNSPECIFIED.)
GEOMETRIC_REPRESENTATION_ITEM()
RATIONAL_B_SPLINE_SURFACE(((1.,0.707106781186548,1.,0.707106781186548,1.,
0.707106781186548,1.,0.707106781186548,1.),(1.,0.707106781186548,1.,0.707106781186548,
1.,0.707106781186548,1.,0.707106781186548,1.)))
REPRESENTATION_ITEM('')
SURFACE()
);
#16=FACE_BOUND('',#88,.T.);
#17=FACE_BOUND('',#93,.T.);
#18=ELLIPSE('',#620,2.81069554512137,2.8);
#19=ELLIPSE('',#623,1.65630315628169,1.65);
#20=ELLIPSE('',#627,1.65630315628169,1.65);
#21=PLANE('',#593);
#22=PLANE('',#594);
#23=PLANE('',#603);
#24=PLANE('',#604);
#25=PLANE('',#605);
#26=PLANE('',#611);
#27=PLANE('',#612);
#28=PLANE('',#613);
#29=PLANE('',#615);
#30=PLANE('',#617);
#31=PLANE('',#619);
#32=PLANE('',#621);
#33=PLANE('',#622);
#34=PLANE('',#626);
#35=PLANE('',#628);
#36=PLANE('',#629);
#37=PLANE('',#630);
#38=PLANE('',#631);
#39=PLANE('',#632);
#40=PLANE('',#634);
#41=FACE_OUTER_BOUND('',#70,.T.);
#42=FACE_OUTER_BOUND('',#71,.T.);
#43=FACE_OUTER_BOUND('',#72,.T.);
#44=FACE_OUTER_BOUND('',#73,.T.);
#45=FACE_OUTER_BOUND('',#74,.T.);
#46=FACE_OUTER_BOUND('',#75,.T.);
#47=FACE_OUTER_BOUND('',#76,.T.);
#48=FACE_OUTER_BOUND('',#77,.T.);
#49=FACE_OUTER_BOUND('',#78,.T.);
#50=FACE_OUTER_BOUND('',#79,.T.);
#51=FACE_OUTER_BOUND('',#80,.T.);
#52=FACE_OUTER_BOUND('',#81,.T.);
#53=FACE_OUTER_BOUND('',#82,.T.);
#54=FACE_OUTER_BOUND('',#83,.T.);
#55=FACE_OUTER_BOUND('',#84,.T.);
#56=FACE_OUTER_BOUND('',#85,.T.);
#57=FACE_OUTER_BOUND('',#86,.T.);
#58=FACE_OUTER_BOUND('',#87,.T.);
#59=FACE_OUTER_BOUND('',#89,.T.);
#60=FACE_OUTER_BOUND('',#90,.T.);
#61=FACE_OUTER_BOUND('',#91,.T.);
#62=FACE_OUTER_BOUND('',#92,.T.);
#63=FACE_OUTER_BOUND('',#94,.T.);
#64=FACE_OUTER_BOUND('',#95,.T.);
#65=FACE_OUTER_BOUND('',#96,.T.);
#66=FACE_OUTER_BOUND('',#97,.T.);
#67=FACE_OUTER_BOUND('',#98,.T.);
#68=FACE_OUTER_BOUND('',#99,.T.);
#69=FACE_OUTER_BOUND('',#100,.T.);
#70=EDGE_LOOP('',(#377,#378,#379,#380));
#71=EDGE_LOOP('',(#381,#382,#383,#384));
#72=EDGE_LOOP('',(#385,#386,#387,#388,#389,#390,#391,#392,#393,#394,#395,
#396,#397,#398,#399,#400,#401,#402,#403,#404,#405));
#73=EDGE_LOOP('',(#406,#407,#408,#409));
#74=EDGE_LOOP('',(#410,#411,#412,#413));
#75=EDGE_LOOP('',(#414,#415,#416,#417));
#76=EDGE_LOOP('',(#418,#419,#420,#421,#422,#423,#424,#425,#426,#427,#428,
#429,#430,#431,#432,#433,#434,#435,#436,#437,#438));
#77=EDGE_LOOP('',(#439,#440,#441,#442));
#78=EDGE_LOOP('',(#443,#444,#445,#446));
#79=EDGE_LOOP('',(#447,#448,#449,#450));
#80=EDGE_LOOP('',(#451,#452,#453,#454));
#81=EDGE_LOOP('',(#455,#456,#457,#458));
#82=EDGE_LOOP('',(#459,#460,#461,#462));
#83=EDGE_LOOP('',(#463,#464,#465,#466));
#84=EDGE_LOOP('',(#467,#468,#469,#470));
#85=EDGE_LOOP('',(#471,#472,#473,#474,#475,#476,#477,#478));
#86=EDGE_LOOP('',(#479,#480,#481,#482));
#87=EDGE_LOOP('',(#483,#484,#485,#486));
#88=EDGE_LOOP('',(#487));
#89=EDGE_LOOP('',(#488,#489,#490,#491));
#90=EDGE_LOOP('',(#492,#493,#494,#495,#496));
#91=EDGE_LOOP('',(#497,#498,#499,#500));
#92=EDGE_LOOP('',(#501,#502,#503,#504));
#93=EDGE_LOOP('',(#505));
#94=EDGE_LOOP('',(#506,#507,#508,#509));
#95=EDGE_LOOP('',(#510,#511,#512,#513,#514));
#96=EDGE_LOOP('',(#515,#516,#517,#518,#519,#520,#521,#522));
#97=EDGE_LOOP('',(#523,#524,#525,#526));
#98=EDGE_LOOP('',(#527,#528,#529,#530));
#99=EDGE_LOOP('',(#531,#532,#533,#534));
#100=EDGE_LOOP('',(#535,#536,#537,#538));
#101=LINE('',#799,#164);
#102=LINE('',#802,#165);
#103=LINE('',#805,#166);
#104=LINE('',#807,#167);
#105=LINE('',#808,#168);
#106=LINE('',#811,#169);
#107=LINE('',#815,#170);
#108=LINE('',#819,#171);
#109=LINE('',#821,#172);
#110=LINE('',#823,#173);
#111=LINE('',#825,#174);
#112=LINE('',#827,#175);
#113=LINE('',#829,#176);
#114=LINE('',#831,#177);
#115=LINE('',#833,#178);
#116=LINE('',#837,#179);
#117=LINE('',#841,#180);
#118=LINE('',#845,#181);
#119=LINE('',#850,#182);
#120=LINE('',#853,#183);
#121=LINE('',#854,#184);
#122=LINE('',#857,#185);
#123=LINE('',#858,#186);
#124=LINE('',#863,#187);
#125=LINE('',#867,#188);
#126=LINE('',#871,#189);
#127=LINE('',#873,#190);
#128=LINE('',#875,#191);
#129=LINE('',#877,#192);
#130=LINE('',#879,#193);
#131=LINE('',#881,#194);
#132=LINE('',#883,#195);
#133=LINE('',#885,#196);
#134=LINE('',#889,#197);
#135=LINE('',#892,#198);
#136=LINE('',#893,#199);
#137=LINE('',#895,#200);
#138=LINE('',#897,#201);
#139=LINE('',#899,#202);
#140=LINE('',#901,#203);
#141=LINE('',#904,#204);
#142=LINE('',#905,#205);
#143=LINE('',#907,#206);
#144=LINE('',#911,#207);
#145=LINE('',#912,#208);
#146=LINE('',#914,#209);
#147=LINE('',#916,#210);
#148=LINE('',#920,#211);
#149=LINE('',#921,#212);
#150=LINE('',#923,#213);
#151=LINE('',#930,#214);
#152=LINE('',#931,#215);
#153=LINE('',#934,#216);
#154=LINE('',#935,#217);
#155=LINE('',#956,#218);
#156=LINE('',#959,#219);
#157=LINE('',#960,#220);
#158=LINE('',#963,#221);
#159=LINE('',#964,#222);
#160=LINE('',#966,#223);
#161=LINE('',#969,#224);
#162=LINE('',#971,#225);
#163=LINE('',#973,#226);
#164=VECTOR('',#642,10.);
#165=VECTOR('',#645,10.);
#166=VECTOR('',#648,10.);
#167=VECTOR('',#649,10.);
#168=VECTOR('',#650,10.);
#169=VECTOR('',#653,10.);
#170=VECTOR('',#656,10.);
#171=VECTOR('',#659,10.);
#172=VECTOR('',#660,10.);
#173=VECTOR('',#661,10.);
#174=VECTOR('',#662,10.);
#175=VECTOR('',#663,10.);
#176=VECTOR('',#664,10.);
#177=VECTOR('',#665,10.);
#178=VECTOR('',#666,10.);
#179=VECTOR('',#669,10.);
#180=VECTOR('',#672,10.);
#181=VECTOR('',#675,10.);
#182=VECTOR('',#682,10.);
#183=VECTOR('',#685,10.);
#184=VECTOR('',#686,10.);
#185=VECTOR('',#689,10.);
#186=VECTOR('',#690,10.);
#187=VECTOR('',#695,10.);
#188=VECTOR('',#698,10.);
#189=VECTOR('',#701,10.);
#190=VECTOR('',#702,10.);
#191=VECTOR('',#703,10.);
#192=VECTOR('',#704,10.);
#193=VECTOR('',#705,10.);
#194=VECTOR('',#706,10.);
#195=VECTOR('',#707,10.);
#196=VECTOR('',#708,10.);
#197=VECTOR('',#711,10.);
#198=VECTOR('',#716,10.);
#199=VECTOR('',#717,10.);
#200=VECTOR('',#720,10.);
#201=VECTOR('',#723,10.);
#202=VECTOR('',#726,10.);
#203=VECTOR('',#729,10.);
#204=VECTOR('',#734,10.);
#205=VECTOR('',#735,10.);
#206=VECTOR('',#738,10.);
#207=VECTOR('',#741,10.);
#208=VECTOR('',#742,10.);
#209=VECTOR('',#743,10.);
#210=VECTOR('',#744,10.);
#211=VECTOR('',#749,10.);
#212=VECTOR('',#750,10.);
#213=VECTOR('',#753,10.);
#214=VECTOR('',#760,10.);
#215=VECTOR('',#761,10.);
#216=VECTOR('',#764,10.);
#217=VECTOR('',#765,10.);
#218=VECTOR('',#768,1.65630315628169);
#219=VECTOR('',#771,10.);
#220=VECTOR('',#772,10.);
#221=VECTOR('',#775,10.);
#222=VECTOR('',#776,10.);
#223=VECTOR('',#779,10.);
#224=VECTOR('',#784,10.);
#225=VECTOR('',#787,10.);
#226=VECTOR('',#790,10.);
#227=CIRCLE('',#591,2.);
#228=CIRCLE('',#592,2.);
#229=CIRCLE('',#595,3.);
#230=CIRCLE('',#596,4.);
#231=CIRCLE('',#597,2.);
#232=CIRCLE('',#598,1.);
#233=CIRCLE('',#599,0.5);
#234=CIRCLE('',#600,0.5);
#235=CIRCLE('',#602,0.5);
#236=CIRCLE('',#606,0.5);
#237=CIRCLE('',#607,1.);
#238=CIRCLE('',#608,2.);
#239=CIRCLE('',#609,4.);
#240=CIRCLE('',#610,3.);
#241=CIRCLE('',#625,2.8);
#242=VERTEX_POINT('',#795);
#243=VERTEX_POINT('',#796);
#244=VERTEX_POINT('',#798);
#245=VERTEX_POINT('',#800);
#246=VERTEX_POINT('',#804);
#247=VERTEX_POINT('',#806);
#248=VERTEX_POINT('',#810);
#249=VERTEX_POINT('',#812);
#250=VERTEX_POINT('',#814);
#251=VERTEX_POINT('',#816);
#252=VERTEX_POINT('',#818);
#253=VERTEX_POINT('',#820);
#254=VERTEX_POINT('',#822);
#255=VERTEX_POINT('',#824);
#256=VERTEX_POINT('',#826);
#257=VERTEX_POINT('',#828);
#258=VERTEX_POINT('',#830);
#259=VERTEX_POINT('',#832);
#260=VERTEX_POINT('',#834);
#261=VERTEX_POINT('',#836);
#262=VERTEX_POINT('',#838);
#263=VERTEX_POINT('',#840);
#264=VERTEX_POINT('',#842);
#265=VERTEX_POINT('',#844);
#266=VERTEX_POINT('',#848);
#267=VERTEX_POINT('',#852);
#268=VERTEX_POINT('',#856);
#269=VERTEX_POINT('',#860);
#270=VERTEX_POINT('',#862);
#271=VERTEX_POINT('',#864);
#272=VERTEX_POINT('',#866);
#273=VERTEX_POINT('',#868);
#274=VERTEX_POINT('',#870);
#275=VERTEX_POINT('',#872);
#276=VERTEX_POINT('',#874);
#277=VERTEX_POINT('',#876);
#278=VERTEX_POINT('',#878);
#279=VERTEX_POINT('',#880);
#280=VERTEX_POINT('',#882);
#281=VERTEX_POINT('',#884);
#282=VERTEX_POINT('',#886);
#283=VERTEX_POINT('',#888);
#284=VERTEX_POINT('',#909);
#285=VERTEX_POINT('',#910);
#286=VERTEX_POINT('',#913);
#287=VERTEX_POINT('',#915);
#288=VERTEX_POINT('',#919);
#289=VERTEX_POINT('',#924);
#290=VERTEX_POINT('',#927);
#291=VERTEX_POINT('',#928);
#292=VERTEX_POINT('',#933);
#293=VERTEX_POINT('',#954);
#294=VERTEX_POINT('',#958);
#295=VERTEX_POINT('',#962);
#296=EDGE_CURVE('',#242,#243,#227,.T.);
#297=EDGE_CURVE('',#243,#244,#101,.T.);
#298=EDGE_CURVE('',#244,#245,#228,.T.);
#299=EDGE_CURVE('',#245,#242,#102,.T.);
#300=EDGE_CURVE('',#243,#246,#103,.T.);
#301=EDGE_CURVE('',#247,#246,#104,.T.);
#302=EDGE_CURVE('',#247,#244,#105,.T.);
#303=EDGE_CURVE('',#242,#248,#106,.T.);
#304=EDGE_CURVE('',#249,#248,#229,.T.);
#305=EDGE_CURVE('',#249,#250,#107,.T.);
#306=EDGE_CURVE('',#251,#250,#230,.T.);
#307=EDGE_CURVE('',#252,#251,#108,.T.);
#308=EDGE_CURVE('',#253,#252,#109,.F.);
#309=EDGE_CURVE('',#254,#253,#110,.T.);
#310=EDGE_CURVE('',#254,#255,#111,.T.);
#311=EDGE_CURVE('',#256,#255,#112,.T.);
#312=EDGE_CURVE('',#257,#256,#113,.T.);
#313=EDGE_CURVE('',#257,#258,#114,.T.);
#314=EDGE_CURVE('',#258,#259,#115,.T.);
#315=EDGE_CURVE('',#260,#259,#231,.T.);
#316=EDGE_CURVE('',#261,#260,#116,.T.);
#317=EDGE_CURVE('',#262,#261,#232,.T.);
#318=EDGE_CURVE('',#262,#263,#117,.T.);
#319=EDGE_CURVE('',#264,#263,#233,.T.);
#320=EDGE_CURVE('',#265,#264,#118,.T.);
#321=EDGE_CURVE('',#246,#265,#234,.T.);
#322=EDGE_CURVE('',#266,#247,#235,.T.);
#323=EDGE_CURVE('',#265,#266,#119,.T.);
#324=EDGE_CURVE('',#267,#264,#120,.T.);
#325=EDGE_CURVE('',#266,#267,#121,.T.);
#326=EDGE_CURVE('',#245,#268,#122,.T.);
#327=EDGE_CURVE('',#248,#268,#123,.T.);
#328=EDGE_CURVE('',#269,#267,#236,.T.);
#329=EDGE_CURVE('',#270,#269,#124,.T.);
#330=EDGE_CURVE('',#271,#270,#237,.T.);
#331=EDGE_CURVE('',#271,#272,#125,.T.);
#332=EDGE_CURVE('',#273,#272,#238,.T.);
#333=EDGE_CURVE('',#274,#273,#126,.T.);
#334=EDGE_CURVE('',#274,#275,#127,.T.);
#335=EDGE_CURVE('',#276,#275,#128,.T.);
#336=EDGE_CURVE('',#277,#276,#129,.T.);
#337=EDGE_CURVE('',#277,#278,#130,.T.);
#338=EDGE_CURVE('',#279,#278,#131,.T.);
#339=EDGE_CURVE('',#280,#279,#132,.F.);
#340=EDGE_CURVE('',#281,#280,#133,.T.);
#341=EDGE_CURVE('',#282,#281,#239,.T.);
#342=EDGE_CURVE('',#283,#282,#134,.T.);
#343=EDGE_CURVE('',#268,#283,#240,.T.);
#344=EDGE_CURVE('',#279,#253,#135,.F.);
#345=EDGE_CURVE('',#254,#278,#136,.T.);
#346=EDGE_CURVE('',#252,#280,#137,.T.);
#347=EDGE_CURVE('',#281,#251,#138,.T.);
#348=EDGE_CURVE('',#283,#249,#139,.T.);
#349=EDGE_CURVE('',#250,#282,#140,.T.);
#350=EDGE_CURVE('',#259,#273,#141,.T.);
#351=EDGE_CURVE('',#274,#258,#142,.T.);
#352=EDGE_CURVE('',#272,#260,#143,.T.);
#353=EDGE_CURVE('',#284,#285,#144,.T.);
#354=EDGE_CURVE('',#275,#285,#145,.F.);
#355=EDGE_CURVE('',#286,#257,#146,.F.);
#356=EDGE_CURVE('',#286,#287,#147,.T.);
#357=EDGE_CURVE('',#287,#284,#18,.T.);
#358=EDGE_CURVE('',#256,#288,#148,.T.);
#359=EDGE_CURVE('',#288,#286,#149,.T.);
#360=EDGE_CURVE('',#255,#277,#150,.T.);
#361=EDGE_CURVE('',#289,#289,#19,.T.);
#362=EDGE_CURVE('',#290,#291,#241,.T.);
#363=EDGE_CURVE('',#291,#284,#151,.T.);
#364=EDGE_CURVE('',#290,#287,#152,.T.);
#365=EDGE_CURVE('',#288,#292,#153,.T.);
#366=EDGE_CURVE('',#292,#290,#154,.T.);
#367=EDGE_CURVE('',#293,#293,#20,.T.);
#368=EDGE_CURVE('',#293,#289,#155,.T.);
#369=EDGE_CURVE('',#292,#294,#156,.T.);
#370=EDGE_CURVE('',#291,#294,#157,.T.);
#371=EDGE_CURVE('',#285,#295,#158,.T.);
#372=EDGE_CURVE('',#295,#276,#159,.T.);
#373=EDGE_CURVE('',#295,#294,#160,.T.);
#374=EDGE_CURVE('',#261,#271,#161,.T.);
#375=EDGE_CURVE('',#263,#269,#162,.T.);
#376=EDGE_CURVE('',#270,#262,#163,.T.);
#377=ORIENTED_EDGE('',*,*,#296,.T.);
#378=ORIENTED_EDGE('',*,*,#297,.T.);
#379=ORIENTED_EDGE('',*,*,#298,.T.);
#380=ORIENTED_EDGE('',*,*,#299,.T.);
#381=ORIENTED_EDGE('',*,*,#297,.F.);
#382=ORIENTED_EDGE('',*,*,#300,.T.);
#383=ORIENTED_EDGE('',*,*,#301,.F.);
#384=ORIENTED_EDGE('',*,*,#302,.T.);
#385=ORIENTED_EDGE('',*,*,#296,.F.);
#386=ORIENTED_EDGE('',*,*,#303,.T.);
#387=ORIENTED_EDGE('',*,*,#304,.F.);
#388=ORIENTED_EDGE('',*,*,#305,.T.);
#389=ORIENTED_EDGE('',*,*,#306,.F.);
#390=ORIENTED_EDGE('',*,*,#307,.F.);
#391=ORIENTED_EDGE('',*,*,#308,.F.);
#392=ORIENTED_EDGE('',*,*,#309,.F.);
#393=ORIENTED_EDGE('',*,*,#310,.T.);
#394=ORIENTED_EDGE('',*,*,#311,.F.);
#395=ORIENTED_EDGE('',*,*,#312,.F.);
#396=ORIENTED_EDGE('',*,*,#313,.T.);
#397=ORIENTED_EDGE('',*,*,#314,.T.);
#398=ORIENTED_EDGE('',*,*,#315,.F.);
#399=ORIENTED_EDGE('',*,*,#316,.F.);
#400=ORIENTED_EDGE('',*,*,#317,.F.);
#401=ORIENTED_EDGE('',*,*,#318,.T.);
#402=ORIENTED_EDGE('',*,*,#319,.F.);
#403=ORIENTED_EDGE('',*,*,#320,.F.);
#404=ORIENTED_EDGE('',*,*,#321,.F.);
#405=ORIENTED_EDGE('',*,*,#300,.F.);
#406=ORIENTED_EDGE('',*,*,#322,.T.);
#407=ORIENTED_EDGE('',*,*,#301,.T.);
#408=ORIENTED_EDGE('',*,*,#321,.T.);
#409=ORIENTED_EDGE('',*,*,#323,.T.);
#410=ORIENTED_EDGE('',*,*,#323,.F.);
#411=ORIENTED_EDGE('',*,*,#320,.T.);
#412=ORIENTED_EDGE('',*,*,#324,.F.);
#413=ORIENTED_EDGE('',*,*,#325,.F.);
#414=ORIENTED_EDGE('',*,*,#299,.F.);
#415=ORIENTED_EDGE('',*,*,#326,.T.);
#416=ORIENTED_EDGE('',*,*,#327,.F.);
#417=ORIENTED_EDGE('',*,*,#303,.F.);
#418=ORIENTED_EDGE('',*,*,#298,.F.);
#419=ORIENTED_EDGE('',*,*,#302,.F.);
#420=ORIENTED_EDGE('',*,*,#322,.F.);
#421=ORIENTED_EDGE('',*,*,#325,.T.);
#422=ORIENTED_EDGE('',*,*,#328,.F.);
#423=ORIENTED_EDGE('',*,*,#329,.F.);
#424=ORIENTED_EDGE('',*,*,#330,.F.);
#425=ORIENTED_EDGE('',*,*,#331,.T.);
#426=ORIENTED_EDGE('',*,*,#332,.F.);
#427=ORIENTED_EDGE('',*,*,#333,.F.);
#428=ORIENTED_EDGE('',*,*,#334,.T.);
#429=ORIENTED_EDGE('',*,*,#335,.F.);
#430=ORIENTED_EDGE('',*,*,#336,.F.);
#431=ORIENTED_EDGE('',*,*,#337,.T.);
#432=ORIENTED_EDGE('',*,*,#338,.F.);
#433=ORIENTED_EDGE('',*,*,#339,.F.);
#434=ORIENTED_EDGE('',*,*,#340,.F.);
#435=ORIENTED_EDGE('',*,*,#341,.F.);
#436=ORIENTED_EDGE('',*,*,#342,.F.);
#437=ORIENTED_EDGE('',*,*,#343,.F.);
#438=ORIENTED_EDGE('',*,*,#326,.F.);
#439=ORIENTED_EDGE('',*,*,#344,.F.);
#440=ORIENTED_EDGE('',*,*,#338,.T.);
#441=ORIENTED_EDGE('',*,*,#345,.F.);
#442=ORIENTED_EDGE('',*,*,#309,.T.);
#443=ORIENTED_EDGE('',*,*,#339,.T.);
#444=ORIENTED_EDGE('',*,*,#344,.T.);
#445=ORIENTED_EDGE('',*,*,#308,.T.);
#446=ORIENTED_EDGE('',*,*,#346,.T.);
#447=ORIENTED_EDGE('',*,*,#347,.F.);
#448=ORIENTED_EDGE('',*,*,#340,.T.);
#449=ORIENTED_EDGE('',*,*,#346,.F.);
#450=ORIENTED_EDGE('',*,*,#307,.T.);
#451=ORIENTED_EDGE('',*,*,#343,.T.);
#452=ORIENTED_EDGE('',*,*,#348,.T.);
#453=ORIENTED_EDGE('',*,*,#304,.T.);
#454=ORIENTED_EDGE('',*,*,#327,.T.);
#455=ORIENTED_EDGE('',*,*,#349,.F.);
#456=ORIENTED_EDGE('',*,*,#305,.F.);
#457=ORIENTED_EDGE('',*,*,#348,.F.);
#458=ORIENTED_EDGE('',*,*,#342,.T.);
#459=ORIENTED_EDGE('',*,*,#306,.T.);
#460=ORIENTED_EDGE('',*,*,#349,.T.);
#461=ORIENTED_EDGE('',*,*,#341,.T.);
#462=ORIENTED_EDGE('',*,*,#347,.T.);
#463=ORIENTED_EDGE('',*,*,#350,.F.);
#464=ORIENTED_EDGE('',*,*,#314,.F.);
#465=ORIENTED_EDGE('',*,*,#351,.F.);
#466=ORIENTED_EDGE('',*,*,#333,.T.);
#467=ORIENTED_EDGE('',*,*,#332,.T.);
#468=ORIENTED_EDGE('',*,*,#352,.T.);
#469=ORIENTED_EDGE('',*,*,#315,.T.);
#470=ORIENTED_EDGE('',*,*,#350,.T.);
#471=ORIENTED_EDGE('',*,*,#353,.T.);
#472=ORIENTED_EDGE('',*,*,#354,.F.);
#473=ORIENTED_EDGE('',*,*,#334,.F.);
#474=ORIENTED_EDGE('',*,*,#351,.T.);
#475=ORIENTED_EDGE('',*,*,#313,.F.);
#476=ORIENTED_EDGE('',*,*,#355,.F.);
#477=ORIENTED_EDGE('',*,*,#356,.T.);
#478=ORIENTED_EDGE('',*,*,#357,.T.);
#479=ORIENTED_EDGE('',*,*,#358,.T.);
#480=ORIENTED_EDGE('',*,*,#359,.T.);
#481=ORIENTED_EDGE('',*,*,#355,.T.);
#482=ORIENTED_EDGE('',*,*,#312,.T.);
#483=ORIENTED_EDGE('',*,*,#360,.F.);
#484=ORIENTED_EDGE('',*,*,#310,.F.);
#485=ORIENTED_EDGE('',*,*,#345,.T.);
#486=ORIENTED_EDGE('',*,*,#337,.F.);
#487=ORIENTED_EDGE('',*,*,#361,.T.);
#488=ORIENTED_EDGE('',*,*,#362,.T.);
#489=ORIENTED_EDGE('',*,*,#363,.T.);
#490=ORIENTED_EDGE('',*,*,#357,.F.);
#491=ORIENTED_EDGE('',*,*,#364,.F.);
#492=ORIENTED_EDGE('',*,*,#365,.T.);
#493=ORIENTED_EDGE('',*,*,#366,.T.);
#494=ORIENTED_EDGE('',*,*,#364,.T.);
#495=ORIENTED_EDGE('',*,*,#356,.F.);
#496=ORIENTED_EDGE('',*,*,#359,.F.);
#497=ORIENTED_EDGE('',*,*,#367,.F.);
#498=ORIENTED_EDGE('',*,*,#368,.T.);
#499=ORIENTED_EDGE('',*,*,#361,.F.);
#500=ORIENTED_EDGE('',*,*,#368,.F.);
#501=ORIENTED_EDGE('',*,*,#369,.T.);
#502=ORIENTED_EDGE('',*,*,#370,.F.);
#503=ORIENTED_EDGE('',*,*,#362,.F.);
#504=ORIENTED_EDGE('',*,*,#366,.F.);
#505=ORIENTED_EDGE('',*,*,#367,.T.);
#506=ORIENTED_EDGE('',*,*,#371,.T.);
#507=ORIENTED_EDGE('',*,*,#372,.T.);
#508=ORIENTED_EDGE('',*,*,#335,.T.);
#509=ORIENTED_EDGE('',*,*,#354,.T.);
#510=ORIENTED_EDGE('',*,*,#373,.F.);
#511=ORIENTED_EDGE('',*,*,#371,.F.);
#512=ORIENTED_EDGE('',*,*,#353,.F.);
#513=ORIENTED_EDGE('',*,*,#363,.F.);
#514=ORIENTED_EDGE('',*,*,#370,.T.);
#515=ORIENTED_EDGE('',*,*,#369,.F.);
#516=ORIENTED_EDGE('',*,*,#365,.F.);
#517=ORIENTED_EDGE('',*,*,#358,.F.);
#518=ORIENTED_EDGE('',*,*,#311,.T.);
#519=ORIENTED_EDGE('',*,*,#360,.T.);
#520=ORIENTED_EDGE('',*,*,#336,.T.);
#521=ORIENTED_EDGE('',*,*,#372,.F.);
#522=ORIENTED_EDGE('',*,*,#373,.T.);
#523=ORIENTED_EDGE('',*,*,#374,.F.);
#524=ORIENTED_EDGE('',*,*,#316,.T.);
#525=ORIENTED_EDGE('',*,*,#352,.F.);
#526=ORIENTED_EDGE('',*,*,#331,.F.);
#527=ORIENTED_EDGE('',*,*,#319,.T.);
#528=ORIENTED_EDGE('',*,*,#375,.T.);
#529=ORIENTED_EDGE('',*,*,#328,.T.);
#530=ORIENTED_EDGE('',*,*,#324,.T.);
#531=ORIENTED_EDGE('',*,*,#376,.F.);
#532=ORIENTED_EDGE('',*,*,#329,.T.);
#533=ORIENTED_EDGE('',*,*,#375,.F.);
#534=ORIENTED_EDGE('',*,*,#318,.F.);
#535=ORIENTED_EDGE('',*,*,#330,.T.);
#536=ORIENTED_EDGE('',*,*,#376,.T.);
#537=ORIENTED_EDGE('',*,*,#317,.T.);
#538=ORIENTED_EDGE('',*,*,#374,.T.);
#539=CYLINDRICAL_SURFACE('',#590,2.);
#540=CYLINDRICAL_SURFACE('',#601,0.5);
#541=CYLINDRICAL_SURFACE('',#614,3.);
#542=CYLINDRICAL_SURFACE('',#616,4.);
#543=CYLINDRICAL_SURFACE('',#618,2.);
#544=CYLINDRICAL_SURFACE('',#624,2.8);
#545=CYLINDRICAL_SURFACE('',#633,0.5);
#546=CYLINDRICAL_SURFACE('',#635,1.);
#547=ADVANCED_FACE('',(#41),#539,.T.);
#548=ADVANCED_FACE('',(#42),#21,.T.);
#549=ADVANCED_FACE('',(#43),#22,.F.);
#550=ADVANCED_FACE('',(#44),#540,.T.);
#551=ADVANCED_FACE('',(#45),#23,.T.);
#552=ADVANCED_FACE('',(#46),#24,.F.);
#553=ADVANCED_FACE('',(#47),#25,.F.);
#554=ADVANCED_FACE('',(#48),#26,.F.);
#555=ADVANCED_FACE('',(#49),#27,.T.);
#556=ADVANCED_FACE('',(#50),#28,.T.);
#557=ADVANCED_FACE('',(#51),#541,.F.);
#558=ADVANCED_FACE('',(#52),#29,.T.);
#559=ADVANCED_FACE('',(#53),#542,.F.);
#560=ADVANCED_FACE('',(#54),#30,.T.);
#561=ADVANCED_FACE('',(#55),#543,.T.);
#562=ADVANCED_FACE('',(#56),#31,.F.);
#563=ADVANCED_FACE('',(#57),#32,.T.);
#564=ADVANCED_FACE('',(#58,#16),#33,.F.);
#565=ADVANCED_FACE('',(#59),#544,.F.);
#566=ADVANCED_FACE('',(#60),#34,.F.);
#567=ADVANCED_FACE('',(#61),#15,.T.);
#568=ADVANCED_FACE('',(#62,#17),#35,.T.);
#569=ADVANCED_FACE('',(#63),#36,.T.);
#570=ADVANCED_FACE('',(#64),#37,.F.);
#571=ADVANCED_FACE('',(#65),#38,.T.);
#572=ADVANCED_FACE('',(#66),#39,.T.);
#573=ADVANCED_FACE('',(#67),#545,.T.);
#574=ADVANCED_FACE('',(#68),#40,.T.);
#575=ADVANCED_FACE('',(#69),#546,.F.);
#576=CLOSED_SHELL('',(#547,#548,#549,#550,#551,#552,#553,#554,#555,#556,
#557,#558,#559,#560,#561,#562,#563,#564,#565,#566,#567,#568,#569,#570,#571,
#572,#573,#574,#575));
#577=DERIVED_UNIT_ELEMENT(#579,1.);
#578=DERIVED_UNIT_ELEMENT(#980,-3.);
#579=(
MASS_UNIT()
NAMED_UNIT(*)
SI_UNIT(.KILO.,.GRAM.)
);
#580=DERIVED_UNIT((#577,#578));
#581=MEASURE_REPRESENTATION_ITEM('density measure',
POSITIVE_RATIO_MEASURE(7850.),#580);
#582=PROPERTY_DEFINITION_REPRESENTATION(#587,#584);
#583=PROPERTY_DEFINITION_REPRESENTATION(#588,#585);
#584=REPRESENTATION('material name',(#586),#977);
#585=REPRESENTATION('density',(#581),#977);
#586=DESCRIPTIVE_REPRESENTATION_ITEM('Steel','Steel');
#587=PROPERTY_DEFINITION('material property','material name',#987);
#588=PROPERTY_DEFINITION('material property','density of part',#987);
#589=AXIS2_PLACEMENT_3D('',#793,#636,#637);
#590=AXIS2_PLACEMENT_3D('',#794,#638,#639);
#591=AXIS2_PLACEMENT_3D('',#797,#640,#641);
#592=AXIS2_PLACEMENT_3D('',#801,#643,#644);
#593=AXIS2_PLACEMENT_3D('',#803,#646,#647);
#594=AXIS2_PLACEMENT_3D('',#809,#651,#652);
#595=AXIS2_PLACEMENT_3D('',#813,#654,#655);
#596=AXIS2_PLACEMENT_3D('',#817,#657,#658);
#597=AXIS2_PLACEMENT_3D('',#835,#667,#668);
#598=AXIS2_PLACEMENT_3D('',#839,#670,#671);
#599=AXIS2_PLACEMENT_3D('',#843,#673,#674);
#600=AXIS2_PLACEMENT_3D('',#846,#676,#677);
#601=AXIS2_PLACEMENT_3D('',#847,#678,#679);
#602=AXIS2_PLACEMENT_3D('',#849,#680,#681);
#603=AXIS2_PLACEMENT_3D('',#851,#683,#684);
#604=AXIS2_PLACEMENT_3D('',#855,#687,#688);
#605=AXIS2_PLACEMENT_3D('',#859,#691,#692);
#606=AXIS2_PLACEMENT_3D('',#861,#693,#694);
#607=AXIS2_PLACEMENT_3D('',#865,#696,#697);
#608=AXIS2_PLACEMENT_3D('',#869,#699,#700);
#609=AXIS2_PLACEMENT_3D('',#887,#709,#710);
#610=AXIS2_PLACEMENT_3D('',#890,#712,#713);
#611=AXIS2_PLACEMENT_3D('',#891,#714,#715);
#612=AXIS2_PLACEMENT_3D('',#894,#718,#719);
#613=AXIS2_PLACEMENT_3D('',#896,#721,#722);
#614=AXIS2_PLACEMENT_3D('',#898,#724,#725);
#615=AXIS2_PLACEMENT_3D('',#900,#727,#728);
#616=AXIS2_PLACEMENT_3D('',#902,#730,#731);
#617=AXIS2_PLACEMENT_3D('',#903,#732,#733);
#618=AXIS2_PLACEMENT_3D('',#906,#736,#737);
#619=AXIS2_PLACEMENT_3D('',#908,#739,#740);
#620=AXIS2_PLACEMENT_3D('',#917,#745,#746);
#621=AXIS2_PLACEMENT_3D('',#918,#747,#748);
#622=AXIS2_PLACEMENT_3D('',#922,#751,#752);
#623=AXIS2_PLACEMENT_3D('',#925,#754,#755);
#624=AXIS2_PLACEMENT_3D('',#926,#756,#757);
#625=AXIS2_PLACEMENT_3D('',#929,#758,#759);
#626=AXIS2_PLACEMENT_3D('',#932,#762,#763);
#627=AXIS2_PLACEMENT_3D('',#955,#766,#767);
#628=AXIS2_PLACEMENT_3D('',#957,#769,#770);
#629=AXIS2_PLACEMENT_3D('',#961,#773,#774);
#630=AXIS2_PLACEMENT_3D('',#965,#777,#778);
#631=AXIS2_PLACEMENT_3D('',#967,#780,#781);
#632=AXIS2_PLACEMENT_3D('',#968,#782,#783);
#633=AXIS2_PLACEMENT_3D('',#970,#785,#786);
#634=AXIS2_PLACEMENT_3D('',#972,#788,#789);
#635=AXIS2_PLACEMENT_3D('',#974,#791,#792);
#636=DIRECTION('axis',(0.,0.,1.));
#637=DIRECTION('refdir',(1.,0.,0.));
#638=DIRECTION('center_axis',(1.,0.,0.));
#639=DIRECTION('ref_axis',(0.,-0.707106781186548,0.707106781186548));
#640=DIRECTION('center_axis',(-1.,0.,0.));
#641=DIRECTION('ref_axis',(0.,-0.707106781186548,0.707106781186548));
#642=DIRECTION('',(-1.,0.,0.));
#643=DIRECTION('center_axis',(1.,0.,0.));
#644=DIRECTION('ref_axis',(0.,-0.707106781186548,0.707106781186548));
#645=DIRECTION('',(1.,0.,0.));
#646=DIRECTION('center_axis',(0.,0.,1.));
#647=DIRECTION('ref_axis',(1.,0.,0.));
#648=DIRECTION('',(0.,1.,0.));
#649=DIRECTION('',(1.,0.,0.));
#650=DIRECTION('',(0.,-1.,0.));
#651=DIRECTION('center_axis',(-1.,0.,0.));
#652=DIRECTION('ref_axis',(0.,-0.987688340595138,0.15643446504023));
#653=DIRECTION('',(0.,0.,-1.));
#654=DIRECTION('center_axis',(1.,0.,0.));
#655=DIRECTION('ref_axis',(0.,0.857468648352835,-0.514536215530027));
#656=DIRECTION('',(0.,-0.882397346518231,-0.470504965816074));
#657=DIRECTION('center_axis',(1.,0.,0.));
#658=DIRECTION('ref_axis',(0.,0.242489839221606,-0.970153945451071));
#659=DIRECTION('',(0.,1.,-1.96179191225276E-8));
#660=DIRECTION('',(5.01631130807975E-25,-0.970295721529992,0.241921914634852));
#661=DIRECTION('',(-6.38463616746206E-11,-0.0871557427476582,-0.996194698091746));
#662=DIRECTION('',(0.,-0.996194698091746,0.0871557427476582));
#663=DIRECTION('',(-3.09105769001791E-26,0.0871557427476582,0.996194698091746));
#664=DIRECTION('',(0.,-0.499999999999999,0.866025403784439));
#665=DIRECTION('',(0.,1.,0.));
#666=DIRECTION('',(0.,0.882397346518231,0.470504965816074));
#667=DIRECTION('center_axis',(-1.,0.,0.));
#668=DIRECTION('ref_axis',(0.,0.857468648352835,-0.514536215530027));
#669=DIRECTION('',(0.,0.,-1.));
#670=DIRECTION('center_axis',(1.,0.,0.));
#671=DIRECTION('ref_axis',(0.,-0.707106782282803,0.707106780090292));
#672=DIRECTION('',(0.,1.,3.10067749307638E-9));
#673=DIRECTION('center_axis',(-1.,0.,0.));
#674=DIRECTION('ref_axis',(0.,0.707106783379056,-0.707106778994039));
#675=DIRECTION('',(0.,3.10067527209412E-9,-1.));
#676=DIRECTION('center_axis',(-1.,0.,0.));
#677=DIRECTION('ref_axis',(0.,0.70710678009029,0.707106782282805));
#678=DIRECTION('center_axis',(-1.,0.,0.));
#679=DIRECTION('ref_axis',(0.,0.70710678009029,0.707106782282805));
#680=DIRECTION('center_axis',(1.,0.,0.));
#681=DIRECTION('ref_axis',(0.,0.70710678009029,0.707106782282805));
#682=DIRECTION('',(-1.,0.,0.));
#683=DIRECTION('center_axis',(0.,1.,3.10067527209412E-9));
#684=DIRECTION('ref_axis',(0.,-3.10067527209412E-9,1.));
#685=DIRECTION('',(1.,0.,0.));
#686=DIRECTION('',(0.,3.10067527209412E-9,-1.));
#687=DIRECTION('center_axis',(0.,1.,0.));
#688=DIRECTION('ref_axis',(0.,0.,-1.));
#689=DIRECTION('',(0.,0.,-1.));
#690=DIRECTION('',(-1.,0.,0.));
#691=DIRECTION('center_axis',(1.,0.,0.));
#692=DIRECTION('ref_axis',(0.,0.987688340595138,-0.15643446504023));
#693=DIRECTION('center_axis',(1.,0.,0.));
#694=DIRECTION('ref_axis',(0.,0.707106783379056,-0.707106778994039));
#695=DIRECTION('',(0.,1.,3.10067749307638E-9));
#696=DIRECTION('center_axis',(-1.,0.,0.));
#697=DIRECTION('ref_axis',(0.,-0.707106782282803,0.707106780090292));
#698=DIRECTION('',(0.,0.,-1.));
#699=DIRECTION('center_axis',(1.,0.,0.));
#700=DIRECTION('ref_axis',(0.,0.857468648352835,-0.514536215530027));
#701=DIRECTION('',(0.,0.882397346518231,0.470504965816074));
#702=DIRECTION('',(0.,-1.,0.));
#703=DIRECTION('',(0.,0.500000000000001,-0.866025403784438));
#704=DIRECTION('',(3.09105769001791E-26,-0.0871557427476582,-0.996194698091746));
#705=DIRECTION('',(0.,0.996194698091746,-0.0871557427476582));
#706=DIRECTION('',(6.38463616746206E-11,0.0871557427476582,0.996194698091746));
#707=DIRECTION('',(-5.01631130807975E-25,0.970295721529992,-0.241921914634852));
#708=DIRECTION('',(0.,-1.,1.96179190947721E-8));
#709=DIRECTION('center_axis',(-1.,0.,0.));
#710=DIRECTION('ref_axis',(0.,0.242489839221606,-0.970153945451071));
#711=DIRECTION('',(0.,-0.882397346518231,-0.470504965816074));
#712=DIRECTION('center_axis',(-1.,0.,0.));
#713=DIRECTION('ref_axis',(0.,0.857468648352835,-0.514536215530027));
#714=DIRECTION('center_axis',(-7.29767253281931E-10,-0.996194698091746,
0.0871557427476582));
#715=DIRECTION('ref_axis',(-5.21789576192159E-11,0.0871557427476582,0.996194698091746));
#716=DIRECTION('',(-1.,7.3255484532713E-10,-3.50665150183908E-18));
#717=DIRECTION('',(-1.,7.26990268560435E-10,-6.36034069927051E-11));
#718=DIRECTION('center_axis',(1.77221067354088E-10,0.241921914634852,0.970295721529992));
#719=DIRECTION('ref_axis',(1.,2.72660860930082E-10,-2.50628441907196E-10));
#720=DIRECTION('',(-1.,7.32554888902461E-10,-1.43712025633007E-17));
#721=DIRECTION('center_axis',(0.,1.96179191225276E-8,1.));
#722=DIRECTION('ref_axis',(1.,0.,0.));
#723=DIRECTION('',(1.,0.,0.));
#724=DIRECTION('center_axis',(1.,0.,0.));
#725=DIRECTION('ref_axis',(0.,0.857468648352835,-0.514536215530027));
#726=DIRECTION('',(1.,0.,0.));
#727=DIRECTION('center_axis',(0.,-0.470504965816074,0.882397346518231));
#728=DIRECTION('ref_axis',(0.,0.882397346518231,0.470504965816074));
#729=DIRECTION('',(-1.,0.,0.));
#730=DIRECTION('center_axis',(-1.,0.,0.));
#731=DIRECTION('ref_axis',(0.,0.242489839221606,-0.970153945451071));
#732=DIRECTION('center_axis',(0.,0.470504965816074,-0.882397346518231));
#733=DIRECTION('ref_axis',(0.,-0.882397346518231,-0.470504965816074));
#734=DIRECTION('',(-1.,0.,0.));
#735=DIRECTION('',(1.,0.,0.));
#736=DIRECTION('center_axis',(-1.,0.,0.));
#737=DIRECTION('ref_axis',(0.,0.857468648352835,-0.514536215530027));
#738=DIRECTION('',(1.,0.,0.));
#739=DIRECTION('center_axis',(0.,0.,1.));
#740=DIRECTION('ref_axis',(1.,0.,0.));
#741=DIRECTION('',(0.,-1.,0.));
#742=DIRECTION('',(-1.,0.,0.));
#743=DIRECTION('',(-1.,0.,0.));
#744=DIRECTION('',(0.,1.,0.));
#745=DIRECTION('center_axis',(0.,0.,1.));
#746=DIRECTION('ref_axis',(0.,-1.,0.));
#747=DIRECTION('center_axis',(0.,-0.866025403784439,-0.499999999999999));
#748=DIRECTION('ref_axis',(0.,0.499999999999999,-0.866025403784439));
#749=DIRECTION('',(-1.,7.26184498158106E-25,-1.25778844647875E-24));
#750=DIRECTION('',(0.,0.499999999999999,-0.866025403784439));
#751=DIRECTION('center_axis',(0.,-0.0871557427476582,-0.996194698091746));
#752=DIRECTION('ref_axis',(0.,0.996194698091746,-0.0871557427476582));
#753=DIRECTION('',(-1.,8.27180612553028E-25,-1.03397576569128E-25));
#754=DIRECTION('center_axis',(-4.94150427847702E-24,-0.087155742747658,
-0.996194698091746));
#755=DIRECTION('ref_axis',(3.8391317327854E-8,-0.996194698091745,0.087155742747658));
#756=DIRECTION('center_axis',(0.,-0.0871557427476583,-0.996194698091746));
#757=DIRECTION('ref_axis',(1.,0.,0.));
#758=DIRECTION('center_axis',(0.,0.0871557427476577,0.996194698091746));
#759=DIRECTION('ref_axis',(1.,0.,0.));
#760=DIRECTION('',(0.,-0.0871557427476583,-0.996194698091746));
#761=DIRECTION('',(0.,-0.0871557427476583,-0.996194698091746));
#762=DIRECTION('center_axis',(1.,0.,0.));
#763=DIRECTION('ref_axis',(0.,-0.996194698091746,0.0871557427476577));
#764=DIRECTION('',(-3.09105769001791E-26,0.0871557427476582,0.996194698091746));
#765=DIRECTION('',(0.,0.996194698091746,-0.0871557427476577));
#766=DIRECTION('center_axis',(4.94150427847702E-24,0.087155742747658,0.996194698091746));
#767=DIRECTION('ref_axis',(3.8391317327854E-8,-0.996194698091745,0.087155742747658));
#768=DIRECTION('',(0.,0.0871557427476585,0.996194698091746));
#769=DIRECTION('center_axis',(0.,-0.0871557427476577,-0.996194698091746));
#770=DIRECTION('ref_axis',(1.,0.,0.));
#771=DIRECTION('',(-1.,8.27180612553028E-25,-1.03397576569128E-25));
#772=DIRECTION('',(0.,-0.996194698091746,0.0871557427476577));
#773=DIRECTION('center_axis',(0.,-0.866025403784439,-0.499999999999999));
#774=DIRECTION('ref_axis',(0.,0.499999999999999,-0.866025403784439));
#775=DIRECTION('',(0.,-0.499999999999999,0.866025403784439));
#776=DIRECTION('',(-1.,7.26184498158106E-25,-1.25778844647875E-24));
#777=DIRECTION('center_axis',(-1.,0.,0.));
#778=DIRECTION('ref_axis',(0.,0.996194698091746,-0.0871557427476577));
#779=DIRECTION('',(-3.09105769001791E-26,0.0871557427476582,0.996194698091746));
#780=DIRECTION('center_axis',(-8.33044633173799E-25,-0.996194698091746,
0.0871557427476582));
#781=DIRECTION('ref_axis',(3.09105769001791E-26,-0.0871557427476582,-0.996194698091746));
#782=DIRECTION('center_axis',(0.,1.,0.));
#783=DIRECTION('ref_axis',(0.,0.,-1.));
#784=DIRECTION('',(-1.,0.,0.));
#785=DIRECTION('center_axis',(1.,0.,0.));
#786=DIRECTION('ref_axis',(0.,0.707106783379056,-0.707106778994039));
#787=DIRECTION('',(-1.,0.,0.));
#788=DIRECTION('center_axis',(0.,3.10067749307638E-9,-1.));
#789=DIRECTION('ref_axis',(0.,1.,3.10067749307638E-9));
#790=DIRECTION('',(1.,0.,0.));
#791=DIRECTION('center_axis',(1.,0.,0.));
#792=DIRECTION('ref_axis',(0.,-0.707106782282803,0.707106780090292));
#793=CARTESIAN_POINT('',(0.,0.,0.));
#794=CARTESIAN_POINT('Origin',(3.05,22.1001142908434,-16.2904986927317));
#795=CARTESIAN_POINT('',(8.6,20.1001142908434,-16.2904986927317));
#796=CARTESIAN_POINT('',(8.59999997019768,22.1001142908434,-14.2904986927317));
#797=CARTESIAN_POINT('Origin',(8.59999997019768,22.1001142908434,-16.2904986927317));
#798=CARTESIAN_POINT('',(-8.59999997019768,22.1001142908434,-14.2904986927317));
#799=CARTESIAN_POINT('',(3.05,22.1001142908434,-14.2904986927317));
#800=CARTESIAN_POINT('',(-8.6,20.1001142908434,-16.2904986927317));
#801=CARTESIAN_POINT('Origin',(-8.59999997019768,22.1001142908434,-16.2904986927317));
#802=CARTESIAN_POINT('',(3.05,20.1001142908434,-16.2904986927317));
#803=CARTESIAN_POINT('Origin',(0.,-1.35457143663999,-14.2904986927317));
#804=CARTESIAN_POINT('',(8.59999997019768,31.1179177943118,-14.2904986927317));
#805=CARTESIAN_POINT('',(8.59999997019768,-11.7019093141191,-14.2904986927317));
#806=CARTESIAN_POINT('',(-8.59999997019768,31.1179177943118,-14.2904986927317));
#807=CARTESIAN_POINT('',(-3.05,31.1179177943118,-14.2904986927317));
#808=CARTESIAN_POINT('',(-8.59999997019768,-13.6772859953094,-14.2904986927317));
#809=CARTESIAN_POINT('Origin',(8.59999997019768,-22.0492471915982,-31.9328931710475));
#810=CARTESIAN_POINT('',(8.6,20.1001142908434,-26.0792396483854));
#811=CARTESIAN_POINT('',(8.6,20.1001142908434,-22.5733939977088));
#812=CARTESIAN_POINT('',(8.6,18.5116291882916,-28.7264316879401));
#813=CARTESIAN_POINT('Origin',(8.59999997019768,17.1001142908434,-26.0792396483854));
#814=CARTESIAN_POINT('',(8.6,6.25264125669335,-35.2630727153132));
#815=CARTESIAN_POINT('',(8.6,18.533871746062,-28.7145716864059));
#816=CARTESIAN_POINT('',(8.59999997019768,4.37062131495737,-35.7334833292403));
#817=CARTESIAN_POINT('Origin',(8.59999997019768,4.37062139342906,-31.7334833292403));
#818=CARTESIAN_POINT('',(8.59999997019768,-8.14562846687367,-35.7334830836975));
#819=CARTESIAN_POINT('',(8.59999997019768,-18.6438167604382,-35.7334828777449));
#820=CARTESIAN_POINT('',(8.59999997285125,-24.7440262088583,-31.5950373784233));
#821=CARTESIAN_POINT('',(8.59999997285125,-21.5034270715662,-32.4030095568656));
#822=CARTESIAN_POINT('',(8.59999997019768,-24.6045998903058,-30.0013872649875));
#823=CARTESIAN_POINT('',(8.59999996936658,-24.6276314068208,-30.2646387033651));
#824=CARTESIAN_POINT('',(8.59999996726409,-33.9933894763789,-29.1799746129859));
#825=CARTESIAN_POINT('',(8.59999997019768,-27.6290281762617,-29.7367840763192));
#826=CARTESIAN_POINT('',(8.59999997019768,-34.327060677824,-32.9938538974285));
#827=CARTESIAN_POINT('',(8.59999996726409,-33.2210173580656,-20.3517209034701));
#828=CARTESIAN_POINT('',(8.59999997019768,-31.0725132001238,-38.6308954844505));
#829=CARTESIAN_POINT('',(8.59999997019768,-31.8725686240912,-37.245158841268));
#830=CARTESIAN_POINT('',(8.59999997019768,6.31266639356014,-38.6308954844505));
#831=CARTESIAN_POINT('',(8.59999997019768,-18.2541920258603,-38.6308954844505));
#832=CARTESIAN_POINT('',(8.6,21.0412921005115,-30.7774136464657));
#833=CARTESIAN_POINT('',(8.6,16.3192254410365,-33.2952768528365));
#834=CARTESIAN_POINT('',(8.6,22.1002821688793,-29.0126189534292));
#835=CARTESIAN_POINT('Origin',(8.59999997019768,20.1002821688793,-29.0126189534292));
#836=CARTESIAN_POINT('',(8.6,22.1002821688793,-19.5904987151119));
#837=CARTESIAN_POINT('',(8.6,22.1002821688793,-34.9645782274729));
#838=CARTESIAN_POINT('',(8.6,23.1002821657787,-18.5904987151119));
#839=CARTESIAN_POINT('Origin',(8.59999997019768,23.1002821688793,-19.5904987151119));
#840=CARTESIAN_POINT('',(8.6,31.1179178060944,-18.5904986902518));
#841=CARTESIAN_POINT('',(8.6,22.6179178045441,-18.5904987166075));
#842=CARTESIAN_POINT('',(8.6,31.6179178045441,-18.0904986887014));
#843=CARTESIAN_POINT('Origin',(8.59999997019768,31.1179178045441,-18.0904986902518));
#844=CARTESIAN_POINT('',(8.6,31.6179177943118,-14.7904986911814));
#845=CARTESIAN_POINT('',(8.6,31.617917798485,-16.1363938657605));
#846=CARTESIAN_POINT('Origin',(8.59999997019768,31.1179177943118,-14.7904986927317));
#847=CARTESIAN_POINT('Origin',(-3.05,31.1179177943118,-14.7904986927317));
#848=CARTESIAN_POINT('',(-8.6,31.6179177943118,-14.7904986911814));
#849=CARTESIAN_POINT('Origin',(-8.59999997019768,31.1179177943118,-14.7904986927317));
#850=CARTESIAN_POINT('',(-3.05,31.6179177943118,-14.7904986911814));
#851=CARTESIAN_POINT('Origin',(-6.1,31.6179177983427,-16.0904986887014));
#852=CARTESIAN_POINT('',(-8.6,31.6179178045441,-18.0904986887014));
#853=CARTESIAN_POINT('',(-6.1,31.6179178045441,-18.0904986887014));
#854=CARTESIAN_POINT('',(-8.6,31.617917798485,-16.1363938657605));
#855=CARTESIAN_POINT('Origin',(6.1,20.1001142908434,-15.0904967049057));
#856=CARTESIAN_POINT('',(-8.6,20.1001142908434,-26.0792396483854));
#857=CARTESIAN_POINT('',(-8.6,20.1001142908434,-22.5733939977088));
#858=CARTESIAN_POINT('',(7.35,20.1001142908434,-26.0792396483854));
#859=CARTESIAN_POINT('Origin',(-8.59999997019768,-26.0000005539788,-31.3071553108866));
#860=CARTESIAN_POINT('',(-8.6,31.1179178060944,-18.5904986902518));
#861=CARTESIAN_POINT('Origin',(-8.59999997019768,31.1179178045441,-18.0904986902518));
#862=CARTESIAN_POINT('',(-8.6,23.1002821657787,-18.5904987151119));
#863=CARTESIAN_POINT('',(-8.6,22.6179178045441,-18.5904987166075));
#864=CARTESIAN_POINT('',(-8.6,22.1002821688793,-19.5904987151119));
#865=CARTESIAN_POINT('Origin',(-8.59999997019768,23.1002821688793,-19.5904987151119));
#866=CARTESIAN_POINT('',(-8.6,22.1002821688793,-29.0126189534292));
#867=CARTESIAN_POINT('',(-8.6,22.1002821688793,-34.9645782274729));
#868=CARTESIAN_POINT('',(-8.6,21.0412921005115,-30.7774136464657));
#869=CARTESIAN_POINT('Origin',(-8.59999997019768,20.1002821688793,-29.0126189534292));
#870=CARTESIAN_POINT('',(-8.59999997019768,6.31266639356014,-38.6308954844505));
#871=CARTESIAN_POINT('',(-8.6,16.3192254410365,-33.2952768528365));
#872=CARTESIAN_POINT('',(-8.59999997019768,-31.0725132001238,-38.6308954844505));
#873=CARTESIAN_POINT('',(-8.59999997019768,-20.2295687070506,-38.6308954844505));
#874=CARTESIAN_POINT('',(-8.59999997313127,-34.327060677824,-32.9938538974285));
#875=CARTESIAN_POINT('',(-8.59999997019768,-32.322221846266,-36.4663354559163));
#876=CARTESIAN_POINT('',(-8.59999997313127,-33.9933894763789,-29.1799746129859));
#877=CARTESIAN_POINT('',(-8.59999997313127,-33.1937490340818,-20.0400425341263));
#878=CARTESIAN_POINT('',(-8.59999997019768,-24.6045998778016,-30.0013872660815));
#879=CARTESIAN_POINT('',(-8.59999997019768,-29.5968879527975,-29.5646186544637));
#880=CARTESIAN_POINT('',(-8.59999997019768,-24.7440261962584,-31.5950373784233));
#881=CARTESIAN_POINT('',(-8.5999999710088,-24.600363070237,-29.9529603340213));
#882=CARTESIAN_POINT('',(-8.59999997019768,-8.14562845427373,-35.7334830836975));
#883=CARTESIAN_POINT('',(-8.59999996754411,-23.4366339742492,-31.9210068973123));
#884=CARTESIAN_POINT('',(-8.6,4.37062131495738,-35.7334833292403));
#885=CARTESIAN_POINT('',(-8.6,-9.11673951220268,-35.7334830646464));
#886=CARTESIAN_POINT('',(-8.6,6.25264125669335,-35.2630727153132));
#887=CARTESIAN_POINT('Origin',(-8.59999997019768,4.37062139342906,-31.7334833292403));
#888=CARTESIAN_POINT('',(-8.6,18.5116291882916,-28.7264316879401));
#889=CARTESIAN_POINT('',(-8.6,18.533871746062,-28.7145716864059));
#890=CARTESIAN_POINT('Origin',(-8.59999997019768,17.1001142908434,-26.0792396483854));
#891=CARTESIAN_POINT('Origin',(8.59999997610821,-24.4895877656311,-28.6867926645039));
#892=CARTESIAN_POINT('',(8.28749998124658,-24.7440262086294,-31.5950373784233));
#893=CARTESIAN_POINT('',(2.85448868697245E-9,-24.6045998840537,-30.0013872655345));
#894=CARTESIAN_POINT('Origin',(7.97499998940356,-20.8778094410185,-32.5589935641556));
#895=CARTESIAN_POINT('',(7.66250000185818,-8.1456284661869,-35.7334830836975));
#896=CARTESIAN_POINT('Origin',(7.35,-14.9516362945464,-35.7334829501778));
#897=CARTESIAN_POINT('',(7.975,4.37062131495738,-35.7334833292403));
#898=CARTESIAN_POINT('Origin',(7.35,17.1001142908434,-26.0792396483854));
#899=CARTESIAN_POINT('',(7.35,18.5116291882916,-28.72643168794));
#900=CARTESIAN_POINT('Origin',(8.6,15.435783689084,-30.3665098082682));
#901=CARTESIAN_POINT('',(7.975,6.25264125669335,-35.2630727153132));
#902=CARTESIAN_POINT('Origin',(7.975,4.37062139342906,-31.7334833292403));
#903=CARTESIAN_POINT('Origin',(8.6,15.724051979018,-33.6126305603319));
#904=CARTESIAN_POINT('',(7.35,21.0412921005115,-30.7774136464657));
#905=CARTESIAN_POINT('',(6.45,6.31266639356014,-38.6308954844505));
#906=CARTESIAN_POINT('Origin',(7.35,20.1002821688793,-29.0126189534292));
#907=CARTESIAN_POINT('',(7.35,22.1002821688793,-29.0126189534292));
#908=CARTESIAN_POINT('Origin',(4.3,-14.4591368601224,-38.6308954844505));
#909=CARTESIAN_POINT('',(-2.80000000037032,-29.2485528944152,-38.6308954844505));
#910=CARTESIAN_POINT('',(-2.80000000037032,-31.0725132001238,-38.6308954844505));
#911=CARTESIAN_POINT('',(-2.80000000037032,-25.1654067750342,-38.6308954844505));
#912=CARTESIAN_POINT('',(3.225,-31.0725132001238,-38.6308954844505));
#913=CARTESIAN_POINT('',(2.79999999962968,-31.0725132001238,-38.6308954844505));
#914=CARTESIAN_POINT('',(3.225,-31.0725132001238,-38.6308954844505));
#915=CARTESIAN_POINT('',(2.79999999962968,-29.2485528944152,-38.6308954844505));
#916=CARTESIAN_POINT('',(2.79999999962968,-21.4049310301054,-38.6308954844505));
#917=CARTESIAN_POINT('Origin',(-3.70315809339685E-10,-29.2485528944152,
-38.6308954844505));
#918=CARTESIAN_POINT('Origin',(2.15,-31.9226761597054,-37.1583700437421));
#919=CARTESIAN_POINT('',(2.79999999669609,-34.327060677824,-32.9938538974285));
#920=CARTESIAN_POINT('',(1.0749999985332,-34.327060677824,-32.9938538974285));
#921=CARTESIAN_POINT('',(2.79999999962968,-33.1744184334657,-34.9902888276074));
#922=CARTESIAN_POINT('Origin',(-8.59999997636863,-32.7533293854678,-29.2884658120215));
#923=CARTESIAN_POINT('',(-4.2999999911179,-33.9933894763789,-29.1799746129859));
#924=CARTESIAN_POINT('',(-6.39579756712094E-8,-26.8140272429399,-29.808087418748));
#925=CARTESIAN_POINT('Origin',(-3.70315809339685E-10,-28.4640276656603,
-29.6637310869469));
#926=CARTESIAN_POINT('Origin',(-3.70315809339685E-10,-28.3507252000884,
-28.3686779794277));
#927=CARTESIAN_POINT('',(2.79999999962969,-28.7865039138267,-33.3496514698864));
#928=CARTESIAN_POINT('',(-2.80000000037032,-28.7865039138267,-33.3496514698864));
#929=CARTESIAN_POINT('Origin',(-3.70315809339685E-10,-28.7865039138267,
-33.3496514698864));
#930=CARTESIAN_POINT('',(-2.80000000037032,-28.3507252000884,-28.3686779794277));
#931=CARTESIAN_POINT('',(2.79999999962968,-28.3507252000884,-28.3686779794277));
#932=CARTESIAN_POINT('Origin',(2.79999999962968,-28.3507252000884,-28.3686779794277));
#933=CARTESIAN_POINT('',(2.79999999669609,-34.3158657245453,-32.8658949959253));
#934=CARTESIAN_POINT('',(2.79999999669609,-33.0497174428271,-18.3937539128346));
#935=CARTESIAN_POINT('',(2.79999999962968,-21.487409123334,-33.9882395180556));
#936=CARTESIAN_POINT('Ctrl Pts',(-6.39579758732762E-8,-26.8140272429399,
-29.808087418748));
#937=CARTESIAN_POINT('Ctrl Pts',(1.64999993604203,-26.8140271798353,-29.8080874242689));
#938=CARTESIAN_POINT('Ctrl Pts',(1.64999999962969,-28.4640276025557,-29.6637310924679));
#939=CARTESIAN_POINT('Ctrl Pts',(1.65000006321735,-30.1140280252762,-29.5193747606668));
#940=CARTESIAN_POINT('Ctrl Pts',(6.32173442545968E-8,-30.1140280883808,
-29.5193747551459));
#941=CARTESIAN_POINT('Ctrl Pts',(-1.64999993678266,-30.1140281514854,-29.519374749625));
#942=CARTESIAN_POINT('Ctrl Pts',(-1.65000000037032,-28.464027728765,-29.663731081426));
#943=CARTESIAN_POINT('Ctrl Pts',(-1.65000006395798,-26.8140273060445,-29.808087413227));
#944=CARTESIAN_POINT('Ctrl Pts',(-6.39579758732762E-8,-26.8140272429399,
-29.808087418748));
#945=CARTESIAN_POINT('Ctrl Pts',(-6.39579758732762E-8,-27.1365034911062,
-33.4940078016874));
#946=CARTESIAN_POINT('Ctrl Pts',(1.64999993604203,-27.1365034280016,-33.4940078072084));
#947=CARTESIAN_POINT('Ctrl Pts',(1.64999999962969,-28.7865038507221,-33.3496514754073));
#948=CARTESIAN_POINT('Ctrl Pts',(1.65000006321735,-30.4365042734425,-33.2052951436063));
#949=CARTESIAN_POINT('Ctrl Pts',(6.32173442545968E-8,-30.4365043365471,
-33.2052951380854));
#950=CARTESIAN_POINT('Ctrl Pts',(-1.64999993678266,-30.4365043996517,-33.2052951325644));
#951=CARTESIAN_POINT('Ctrl Pts',(-1.65000000037032,-28.7865039769313,-33.3496514643655));
#952=CARTESIAN_POINT('Ctrl Pts',(-1.65000006395798,-27.1365035542109,-33.4940077961665));
#953=CARTESIAN_POINT('Ctrl Pts',(-6.39579758732762E-8,-27.1365034911062,
-33.4940078016874));
#954=CARTESIAN_POINT('',(-6.39579755823405E-8,-27.1365034911063,-33.4940078016874));
#955=CARTESIAN_POINT('Origin',(-3.70315809339685E-10,-28.7865039138267,
-33.3496514698864));
#956=CARTESIAN_POINT('',(-6.39579756712094E-8,-26.700724777368,-28.5130343112287));
#957=CARTESIAN_POINT('Origin',(1.49999920150918,-14.1883143328413,-34.6268275662249));
#958=CARTESIAN_POINT('',(-2.80000000330391,-34.3158657245453,-32.8658949959253));
#959=CARTESIAN_POINT('',(0.749999597820998,-34.3158657245453,-32.8658949959253));
#960=CARTESIAN_POINT('',(-2.80000000037032,-25.2478848682628,-33.6592405209102));
#961=CARTESIAN_POINT('Origin',(2.15,-31.9226761597054,-37.1583700437421));
#962=CARTESIAN_POINT('',(-2.80000000330391,-34.327060677824,-32.9938538974285));
#963=CARTESIAN_POINT('',(-2.80000000037032,-34.2569981143717,-33.1152058170365));
#964=CARTESIAN_POINT('',(1.0749999985332,-34.327060677824,-32.9938538974285));
#965=CARTESIAN_POINT('Origin',(-2.80000000037032,-35.871676689946,-27.7106799851367));
#966=CARTESIAN_POINT('',(-2.80000000330391,-33.0497174428271,-18.3937539128346));
#967=CARTESIAN_POINT('Origin',(-2.93359114778016E-9,-32.2193478748471,-8.90258632020265));
#968=CARTESIAN_POINT('Origin',(6.1,22.1002821688793,-17.0904987170901));
#969=CARTESIAN_POINT('',(0.,22.1002821688793,-19.5904987151119));
#970=CARTESIAN_POINT('Origin',(-6.1,31.1179178045441,-18.0904986902518));
#971=CARTESIAN_POINT('',(-6.1,31.1179178060944,-18.5904986902518));
#972=CARTESIAN_POINT('Origin',(-6.1,22.4622821750807,-18.5904987170901));
#973=CARTESIAN_POINT('',(0.,23.1002821657787,-18.5904987151119));
#974=CARTESIAN_POINT('Origin',(0.,23.1002821688793,-19.5904987151119));
#975=UNCERTAINTY_MEASURE_WITH_UNIT(LENGTH_MEASURE(0.01),#979,
'DISTANCE_ACCURACY_VALUE',
'Maximum model space distance between geometric entities at asserted c
onnectivities');
#976=UNCERTAINTY_MEASURE_WITH_UNIT(LENGTH_MEASURE(0.01),#979,
'DISTANCE_ACCURACY_VALUE',
'Maximum model space distance between geometric entities at asserted c
onnectivities');
#977=(
GEOMETRIC_REPRESENTATION_CONTEXT(3)
GLOBAL_UNCERTAINTY_ASSIGNED_CONTEXT((#975))
GLOBAL_UNIT_ASSIGNED_CONTEXT((#979,#981,#982))
REPRESENTATION_CONTEXT('','3D')
);
#978=(
GEOMETRIC_REPRESENTATION_CONTEXT(3)
GLOBAL_UNCERTAINTY_ASSIGNED_CONTEXT((#976))
GLOBAL_UNIT_ASSIGNED_CONTEXT((#979,#981,#982))
REPRESENTATION_CONTEXT('','3D')
);
#979=(
LENGTH_UNIT()
NAMED_UNIT(*)
SI_UNIT(.MILLI.,.METRE.)
);
#980=(
LENGTH_UNIT()
NAMED_UNIT(*)
SI_UNIT($,.METRE.)
);
#981=(
NAMED_UNIT(*)
PLANE_ANGLE_UNIT()
SI_UNIT($,.RADIAN.)
);
#982=(
NAMED_UNIT(*)
SI_UNIT($,.STERADIAN.)
SOLID_ANGLE_UNIT()
);
#983=SHAPE_DEFINITION_REPRESENTATION(#984,#985);
#984=PRODUCT_DEFINITION_SHAPE('',$,#987);
#985=SHAPE_REPRESENTATION('',(#589),#977);
#986=PRODUCT_DEFINITION_CONTEXT('part definition',#991,'design');
#987=PRODUCT_DEFINITION('31A. Trigger Guard','31A. Trigger Guard',#988,
#986);
#988=PRODUCT_DEFINITION_FORMATION('',$,#993);
#989=PRODUCT_RELATED_PRODUCT_CATEGORY('31A. Trigger Guard',
'31A. Trigger Guard',(#993));
#990=APPLICATION_PROTOCOL_DEFINITION('international standard',
'automotive_design',2009,#991);
#991=APPLICATION_CONTEXT(
'Core Data for Automotive Mechanical Design Process');
#992=PRODUCT_CONTEXT('part definition',#991,'mechanical');
#993=PRODUCT('31A. Trigger Guard','31A. Trigger Guard',$,(#992));
#994=PRESENTATION_STYLE_ASSIGNMENT((#996));
#995=PRESENTATION_STYLE_ASSIGNMENT((#997));
#996=SURFACE_STYLE_USAGE(.BOTH.,#998);
#997=SURFACE_STYLE_USAGE(.BOTH.,#999);
#998=SURFACE_SIDE_STYLE('',(#1000));
#999=SURFACE_SIDE_STYLE('',(#1001));
#1000=SURFACE_STYLE_FILL_AREA(#1002);
#1001=SURFACE_STYLE_FILL_AREA(#1003);
#1002=FILL_AREA_STYLE('Steel - Satin',(#1004));
#1003=FILL_AREA_STYLE('Plastic - Matte (Black) (1)',(#1005));
#1004=FILL_AREA_STYLE_COLOUR('Steel - Satin',#1006);
#1005=FILL_AREA_STYLE_COLOUR('Plastic - Matte (Black) (1)',#1007);
#1006=COLOUR_RGB('Steel - Satin',0.627450980392157,0.627450980392157,0.627450980392157);
#1007=COLOUR_RGB('Plastic - Matte (Black) (1)',0.0980392156862745,0.0980392156862745,
0.0980392156862745);
ENDSEC;
END-ISO-10303-21;
