ISO-10303-21;
HEADER;
/* Generated by software containing ST-Developer
 * from STEP Tools, Inc. (www.steptools.com) 
 */

FILE_DESCRIPTION(
/* description */ (''),
/* implementation_level */ '2;1');

FILE_NAME(
/* name */ '31B. Sensor Guard.step',
/* time_stamp */ '2025-10-08T23:25:59+01:00',
/* author */ (''),
/* organization */ (''),
/* preprocessor_version */ 'ST-DEVELOPER v20.1',
/* originating_system */ 'Autodesk Translation Framework v14.10.0.0',
/* authorisation */ '');

FILE_SCHEMA (('AUTOMOTIVE_DESIGN { 1 0 10303 214 3 1 1 }'));
ENDSEC;

DATA;
#10=MECHANICAL_DESIGN_GEOMETRIC_PRESENTATION_REPRESENTATION('',(#13),#1556);
#11=SHAPE_REPRESENTATION_RELATIONSHIP('SRR','None',#1563,#12);
#12=ADVANCED_BREP_SHAPE_REPRESENTATION('',(#14),#1555);
#13=STYLED_ITEM('',(#1573),#14);
#14=MANIFOLD_SOLID_BREP('31B. Sensor Guard',#930);
#15=(
BOUNDED_SURFACE()
B_SPLINE_SURFACE(1,2,((#1514,#1515,#1516,#1517,#1518,#1519,#1520,#1521,
#1522),(#1523,#1524,#1525,#1526,#1527,#1528,#1529,#1530,#1531)),
 .UNSPECIFIED.,.F.,.T.,.F.)
B_SPLINE_SURFACE_WITH_KNOTS((2,2),(3,2,2,2,3),(0.784880470141968,3.01877103900758),
(-3.14159265358979,-1.5707963267949,0.,1.5707963267949,3.14159265358979),
 .UNSPECIFIED.)
GEOMETRIC_REPRESENTATION_ITEM()
RATIONAL_B_SPLINE_SURFACE(((1.,0.707106781186548,1.,0.707106781186548,1.,
0.707106781186548,1.,0.707106781186548,1.),(1.,0.707106781186548,1.,0.707106781186548,
1.,0.707106781186548,1.,0.707106781186548,1.)))
REPRESENTATION_ITEM('')
SURFACE()
);
#16=ELLIPSE('',#999,2.81069554512137,2.8);
#17=ELLIPSE('',#1002,1.65630315628169,1.65);
#18=ELLIPSE('',#1006,1.65630315628169,1.65);
#19=FACE_BOUND('',#121,.T.);
#20=FACE_BOUND('',#141,.T.);
#21=FACE_BOUND('',#146,.T.);
#22=(
BOUNDED_CURVE()
B_SPLINE_CURVE(2,(#1328,#1329,#1330),.UNSPECIFIED.,.F.,.F.)
B_SPLINE_CURVE_WITH_KNOTS((3,3),(3.66766162430211E-9,0.146768556999413),
 .UNSPECIFIED.)
CURVE()
GEOMETRIC_REPRESENTATION_ITEM()
RATIONAL_B_SPLINE_CURVE((1.00000000024006,1.00480328972329,1.))
REPRESENTATION_ITEM('')
);
#23=(
BOUNDED_CURVE()
B_SPLINE_CURVE(2,(#1348,#1349,#1350),.UNSPECIFIED.,.F.,.F.)
B_SPLINE_CURVE_WITH_KNOTS((3,3),(0.,0.146768556735768),.UNSPECIFIED.)
CURVE()
GEOMETRIC_REPRESENTATION_ITEM()
RATIONAL_B_SPLINE_CURVE((1.,1.00480328959968,1.))
REPRESENTATION_ITEM('')
);
#24=CONICAL_SURFACE('',#956,5.5,0.785398174634985);
#25=CONICAL_SURFACE('',#963,5.5,0.78539815215991);
#26=CIRCLE('',#946,4.);
#27=CIRCLE('',#947,4.);
#28=CIRCLE('',#949,0.5);
#29=CIRCLE('',#950,0.5);
#30=CIRCLE('',#952,1.);
#31=CIRCLE('',#953,1.);
#32=CIRCLE('',#957,6.);
#33=CIRCLE('',#958,5.);
#34=CIRCLE('',#960,6.);
#35=CIRCLE('',#961,6.);
#36=CIRCLE('',#962,6.);
#37=CIRCLE('',#964,5.);
#38=CIRCLE('',#979,0.5);
#39=CIRCLE('',#980,1.);
#40=CIRCLE('',#981,2.);
#41=CIRCLE('',#982,4.);
#42=CIRCLE('',#983,3.);
#43=CIRCLE('',#985,3.);
#44=CIRCLE('',#986,4.);
#45=CIRCLE('',#987,2.);
#46=CIRCLE('',#988,1.);
#47=CIRCLE('',#989,0.5);
#48=CIRCLE('',#1004,2.8);
#49=CYLINDRICAL_SURFACE('',#945,4.);
#50=CYLINDRICAL_SURFACE('',#948,0.5);
#51=CYLINDRICAL_SURFACE('',#951,1.);
#52=CYLINDRICAL_SURFACE('',#959,6.);
#53=CYLINDRICAL_SURFACE('',#993,3.);
#54=CYLINDRICAL_SURFACE('',#995,4.);
#55=CYLINDRICAL_SURFACE('',#997,2.);
#56=CYLINDRICAL_SURFACE('',#1003,2.8);
#57=CYLINDRICAL_SURFACE('',#1012,0.5);
#58=CYLINDRICAL_SURFACE('',#1014,1.);
#59=FACE_OUTER_BOUND('',#105,.T.);
#60=FACE_OUTER_BOUND('',#106,.T.);
#61=FACE_OUTER_BOUND('',#107,.T.);
#62=FACE_OUTER_BOUND('',#108,.T.);
#63=FACE_OUTER_BOUND('',#109,.T.);
#64=FACE_OUTER_BOUND('',#110,.T.);
#65=FACE_OUTER_BOUND('',#111,.T.);
#66=FACE_OUTER_BOUND('',#112,.T.);
#67=FACE_OUTER_BOUND('',#113,.T.);
#68=FACE_OUTER_BOUND('',#114,.T.);
#69=FACE_OUTER_BOUND('',#115,.T.);
#70=FACE_OUTER_BOUND('',#116,.T.);
#71=FACE_OUTER_BOUND('',#117,.T.);
#72=FACE_OUTER_BOUND('',#118,.T.);
#73=FACE_OUTER_BOUND('',#119,.T.);
#74=FACE_OUTER_BOUND('',#120,.T.);
#75=FACE_OUTER_BOUND('',#122,.T.);
#76=FACE_OUTER_BOUND('',#123,.T.);
#77=FACE_OUTER_BOUND('',#124,.T.);
#78=FACE_OUTER_BOUND('',#125,.T.);
#79=FACE_OUTER_BOUND('',#126,.T.);
#80=FACE_OUTER_BOUND('',#127,.T.);
#81=FACE_OUTER_BOUND('',#128,.T.);
#82=FACE_OUTER_BOUND('',#129,.T.);
#83=FACE_OUTER_BOUND('',#130,.T.);
#84=FACE_OUTER_BOUND('',#131,.T.);
#85=FACE_OUTER_BOUND('',#132,.T.);
#86=FACE_OUTER_BOUND('',#133,.T.);
#87=FACE_OUTER_BOUND('',#134,.T.);
#88=FACE_OUTER_BOUND('',#135,.T.);
#89=FACE_OUTER_BOUND('',#136,.T.);
#90=FACE_OUTER_BOUND('',#137,.T.);
#91=FACE_OUTER_BOUND('',#138,.T.);
#92=FACE_OUTER_BOUND('',#139,.T.);
#93=FACE_OUTER_BOUND('',#140,.T.);
#94=FACE_OUTER_BOUND('',#142,.T.);
#95=FACE_OUTER_BOUND('',#143,.T.);
#96=FACE_OUTER_BOUND('',#144,.T.);
#97=FACE_OUTER_BOUND('',#145,.T.);
#98=FACE_OUTER_BOUND('',#147,.T.);
#99=FACE_OUTER_BOUND('',#148,.T.);
#100=FACE_OUTER_BOUND('',#149,.T.);
#101=FACE_OUTER_BOUND('',#150,.T.);
#102=FACE_OUTER_BOUND('',#151,.T.);
#103=FACE_OUTER_BOUND('',#152,.T.);
#104=FACE_OUTER_BOUND('',#153,.T.);
#105=EDGE_LOOP('',(#585,#586,#587,#588));
#106=EDGE_LOOP('',(#589,#590,#591,#592));
#107=EDGE_LOOP('',(#593,#594,#595,#596));
#108=EDGE_LOOP('',(#597,#598,#599,#600));
#109=EDGE_LOOP('',(#601,#602,#603,#604,#605,#606,#607,#608,#609,#610,#611,
#612,#613,#614));
#110=EDGE_LOOP('',(#615,#616,#617,#618));
#111=EDGE_LOOP('',(#619,#620,#621,#622));
#112=EDGE_LOOP('',(#623,#624,#625,#626,#627,#628,#629,#630,#631,#632));
#113=EDGE_LOOP('',(#633,#634,#635,#636));
#114=EDGE_LOOP('',(#637,#638,#639,#640,#641));
#115=EDGE_LOOP('',(#642,#643,#644,#645));
#116=EDGE_LOOP('',(#646,#647,#648,#649));
#117=EDGE_LOOP('',(#650,#651,#652,#653,#654));
#118=EDGE_LOOP('',(#655,#656,#657,#658));
#119=EDGE_LOOP('',(#659,#660,#661,#662));
#120=EDGE_LOOP('',(#663,#664,#665,#666,#667,#668,#669,#670));
#121=EDGE_LOOP('',(#671,#672,#673,#674));
#122=EDGE_LOOP('',(#675,#676,#677,#678,#679,#680,#681,#682,#683,#684));
#123=EDGE_LOOP('',(#685,#686,#687,#688));
#124=EDGE_LOOP('',(#689,#690,#691,#692));
#125=EDGE_LOOP('',(#693,#694,#695,#696));
#126=EDGE_LOOP('',(#697,#698,#699,#700));
#127=EDGE_LOOP('',(#701,#702,#703,#704));
#128=EDGE_LOOP('',(#705,#706,#707,#708,#709,#710,#711,#712,#713,#714,#715,
#716,#717,#718,#719,#720,#721,#722,#723,#724,#725,#726,#727));
#129=EDGE_LOOP('',(#728,#729,#730,#731,#732,#733,#734,#735,#736,#737,#738,
#739,#740,#741,#742,#743,#744,#745,#746,#747,#748,#749,#750));
#130=EDGE_LOOP('',(#751,#752,#753,#754));
#131=EDGE_LOOP('',(#755,#756,#757,#758));
#132=EDGE_LOOP('',(#759,#760,#761,#762));
#133=EDGE_LOOP('',(#763,#764,#765,#766));
#134=EDGE_LOOP('',(#767,#768,#769,#770));
#135=EDGE_LOOP('',(#771,#772,#773,#774));
#136=EDGE_LOOP('',(#775,#776,#777,#778));
#137=EDGE_LOOP('',(#779,#780,#781,#782));
#138=EDGE_LOOP('',(#783,#784,#785,#786,#787,#788,#789,#790));
#139=EDGE_LOOP('',(#791,#792,#793,#794));
#140=EDGE_LOOP('',(#795,#796,#797,#798));
#141=EDGE_LOOP('',(#799));
#142=EDGE_LOOP('',(#800,#801,#802,#803));
#143=EDGE_LOOP('',(#804,#805,#806,#807,#808));
#144=EDGE_LOOP('',(#809,#810,#811,#812));
#145=EDGE_LOOP('',(#813,#814,#815,#816));
#146=EDGE_LOOP('',(#817));
#147=EDGE_LOOP('',(#818,#819,#820,#821));
#148=EDGE_LOOP('',(#822,#823,#824,#825,#826));
#149=EDGE_LOOP('',(#827,#828,#829,#830,#831,#832,#833,#834));
#150=EDGE_LOOP('',(#835,#836,#837,#838));
#151=EDGE_LOOP('',(#839,#840,#841,#842));
#152=EDGE_LOOP('',(#843,#844,#845,#846));
#153=EDGE_LOOP('',(#847,#848,#849,#850));
#154=LINE('',#1268,#259);
#155=LINE('',#1270,#260);
#156=LINE('',#1272,#261);
#157=LINE('',#1273,#262);
#158=LINE('',#1278,#263);
#159=LINE('',#1285,#264);
#160=LINE('',#1288,#265);
#161=LINE('',#1294,#266);
#162=LINE('',#1297,#267);
#163=LINE('',#1300,#268);
#164=LINE('',#1302,#269);
#165=LINE('',#1304,#270);
#166=LINE('',#1306,#271);
#167=LINE('',#1308,#272);
#168=LINE('',#1309,#273);
#169=LINE('',#1311,#274);
#170=LINE('',#1313,#275);
#171=LINE('',#1315,#276);
#172=LINE('',#1317,#277);
#173=LINE('',#1319,#278);
#174=LINE('',#1320,#279);
#175=LINE('',#1322,#280);
#176=LINE('',#1323,#281);
#177=LINE('',#1336,#282);
#178=LINE('',#1341,#283);
#179=LINE('',#1343,#284);
#180=LINE('',#1344,#285);
#181=LINE('',#1353,#286);
#182=LINE('',#1355,#287);
#183=LINE('',#1356,#288);
#184=LINE('',#1358,#289);
#185=LINE('',#1360,#290);
#186=LINE('',#1363,#291);
#187=LINE('',#1365,#292);
#188=LINE('',#1366,#293);
#189=LINE('',#1369,#294);
#190=LINE('',#1371,#295);
#191=LINE('',#1372,#296);
#192=LINE('',#1375,#297);
#193=LINE('',#1377,#298);
#194=LINE('',#1378,#299);
#195=LINE('',#1380,#300);
#196=LINE('',#1382,#301);
#197=LINE('',#1383,#302);
#198=LINE('',#1386,#303);
#199=LINE('',#1387,#304);
#200=LINE('',#1388,#305);
#201=LINE('',#1390,#306);
#202=LINE('',#1395,#307);
#203=LINE('',#1397,#308);
#204=LINE('',#1398,#309);
#205=LINE('',#1401,#310);
#206=LINE('',#1403,#311);
#207=LINE('',#1404,#312);
#208=LINE('',#1409,#313);
#209=LINE('',#1413,#314);
#210=LINE('',#1417,#315);
#211=LINE('',#1419,#316);
#212=LINE('',#1421,#317);
#213=LINE('',#1423,#318);
#214=LINE('',#1425,#319);
#215=LINE('',#1427,#320);
#216=LINE('',#1429,#321);
#217=LINE('',#1431,#322);
#218=LINE('',#1435,#323);
#219=LINE('',#1441,#324);
#220=LINE('',#1445,#325);
#221=LINE('',#1447,#326);
#222=LINE('',#1449,#327);
#223=LINE('',#1451,#328);
#224=LINE('',#1453,#329);
#225=LINE('',#1455,#330);
#226=LINE('',#1457,#331);
#227=LINE('',#1459,#332);
#228=LINE('',#1463,#333);
#229=LINE('',#1467,#334);
#230=LINE('',#1470,#335);
#231=LINE('',#1471,#336);
#232=LINE('',#1473,#337);
#233=LINE('',#1475,#338);
#234=LINE('',#1477,#339);
#235=LINE('',#1479,#340);
#236=LINE('',#1482,#341);
#237=LINE('',#1483,#342);
#238=LINE('',#1485,#343);
#239=LINE('',#1489,#344);
#240=LINE('',#1490,#345);
#241=LINE('',#1492,#346);
#242=LINE('',#1494,#347);
#243=LINE('',#1498,#348);
#244=LINE('',#1499,#349);
#245=LINE('',#1501,#350);
#246=LINE('',#1508,#351);
#247=LINE('',#1509,#352);
#248=LINE('',#1512,#353);
#249=LINE('',#1513,#354);
#250=LINE('',#1534,#355);
#251=LINE('',#1537,#356);
#252=LINE('',#1538,#357);
#253=LINE('',#1541,#358);
#254=LINE('',#1542,#359);
#255=LINE('',#1544,#360);
#256=LINE('',#1547,#361);
#257=LINE('',#1549,#362);
#258=LINE('',#1551,#363);
#259=VECTOR('',#1019,10.);
#260=VECTOR('',#1020,10.);
#261=VECTOR('',#1021,10.);
#262=VECTOR('',#1022,10.);
#263=VECTOR('',#1027,10.);
#264=VECTOR('',#1034,10.);
#265=VECTOR('',#1037,10.);
#266=VECTOR('',#1042,10.);
#267=VECTOR('',#1045,10.);
#268=VECTOR('',#1048,10.);
#269=VECTOR('',#1049,10.);
#270=VECTOR('',#1050,10.);
#271=VECTOR('',#1051,10.);
#272=VECTOR('',#1052,10.);
#273=VECTOR('',#1053,10.);
#274=VECTOR('',#1054,10.);
#275=VECTOR('',#1055,10.);
#276=VECTOR('',#1056,10.);
#277=VECTOR('',#1057,10.);
#278=VECTOR('',#1058,10.);
#279=VECTOR('',#1059,10.);
#280=VECTOR('',#1062,10.);
#281=VECTOR('',#1063,10.);
#282=VECTOR('',#1074,10.);
#283=VECTOR('',#1079,10.);
#284=VECTOR('',#1080,10.);
#285=VECTOR('',#1081,10.);
#286=VECTOR('',#1088,10.);
#287=VECTOR('',#1089,10.);
#288=VECTOR('',#1090,10.);
#289=VECTOR('',#1093,10.);
#290=VECTOR('',#1096,10.);
#291=VECTOR('',#1099,10.);
#292=VECTOR('',#1100,10.);
#293=VECTOR('',#1101,10.);
#294=VECTOR('',#1104,10.);
#295=VECTOR('',#1105,10.);
#296=VECTOR('',#1106,10.);
#297=VECTOR('',#1109,10.);
#298=VECTOR('',#1110,10.);
#299=VECTOR('',#1111,10.);
#300=VECTOR('',#1114,10.);
#301=VECTOR('',#1115,10.);
#302=VECTOR('',#1116,10.);
#303=VECTOR('',#1119,10.);
#304=VECTOR('',#1120,10.);
#305=VECTOR('',#1121,10.);
#306=VECTOR('',#1124,10.);
#307=VECTOR('',#1131,10.);
#308=VECTOR('',#1132,10.);
#309=VECTOR('',#1133,10.);
#310=VECTOR('',#1136,10.);
#311=VECTOR('',#1137,10.);
#312=VECTOR('',#1138,10.);
#313=VECTOR('',#1143,10.);
#314=VECTOR('',#1146,10.);
#315=VECTOR('',#1149,10.);
#316=VECTOR('',#1150,10.);
#317=VECTOR('',#1151,10.);
#318=VECTOR('',#1152,10.);
#319=VECTOR('',#1153,10.);
#320=VECTOR('',#1154,10.);
#321=VECTOR('',#1155,10.);
#322=VECTOR('',#1156,10.);
#323=VECTOR('',#1159,10.);
#324=VECTOR('',#1166,10.);
#325=VECTOR('',#1169,10.);
#326=VECTOR('',#1170,10.);
#327=VECTOR('',#1171,10.);
#328=VECTOR('',#1172,10.);
#329=VECTOR('',#1173,10.);
#330=VECTOR('',#1174,10.);
#331=VECTOR('',#1175,10.);
#332=VECTOR('',#1176,10.);
#333=VECTOR('',#1179,10.);
#334=VECTOR('',#1182,10.);
#335=VECTOR('',#1187,10.);
#336=VECTOR('',#1188,10.);
#337=VECTOR('',#1191,10.);
#338=VECTOR('',#1194,10.);
#339=VECTOR('',#1197,10.);
#340=VECTOR('',#1200,10.);
#341=VECTOR('',#1205,10.);
#342=VECTOR('',#1206,10.);
#343=VECTOR('',#1209,10.);
#344=VECTOR('',#1212,10.);
#345=VECTOR('',#1213,10.);
#346=VECTOR('',#1214,10.);
#347=VECTOR('',#1215,10.);
#348=VECTOR('',#1220,10.);
#349=VECTOR('',#1221,10.);
#350=VECTOR('',#1224,10.);
#351=VECTOR('',#1231,10.);
#352=VECTOR('',#1232,10.);
#353=VECTOR('',#1235,10.);
#354=VECTOR('',#1236,10.);
#355=VECTOR('',#1239,1.65630315628169);
#356=VECTOR('',#1242,10.);
#357=VECTOR('',#1243,10.);
#358=VECTOR('',#1246,10.);
#359=VECTOR('',#1247,10.);
#360=VECTOR('',#1250,10.);
#361=VECTOR('',#1255,10.);
#362=VECTOR('',#1258,10.);
#363=VECTOR('',#1261,10.);
#364=VERTEX_POINT('',#1266);
#365=VERTEX_POINT('',#1267);
#366=VERTEX_POINT('',#1269);
#367=VERTEX_POINT('',#1271);
#368=VERTEX_POINT('',#1275);
#369=VERTEX_POINT('',#1277);
#370=VERTEX_POINT('',#1281);
#371=VERTEX_POINT('',#1282);
#372=VERTEX_POINT('',#1284);
#373=VERTEX_POINT('',#1286);
#374=VERTEX_POINT('',#1290);
#375=VERTEX_POINT('',#1291);
#376=VERTEX_POINT('',#1293);
#377=VERTEX_POINT('',#1295);
#378=VERTEX_POINT('',#1299);
#379=VERTEX_POINT('',#1301);
#380=VERTEX_POINT('',#1303);
#381=VERTEX_POINT('',#1305);
#382=VERTEX_POINT('',#1307);
#383=VERTEX_POINT('',#1310);
#384=VERTEX_POINT('',#1312);
#385=VERTEX_POINT('',#1314);
#386=VERTEX_POINT('',#1316);
#387=VERTEX_POINT('',#1318);
#388=VERTEX_POINT('',#1325);
#389=VERTEX_POINT('',#1327);
#390=VERTEX_POINT('',#1333);
#391=VERTEX_POINT('',#1335);
#392=VERTEX_POINT('',#1338);
#393=VERTEX_POINT('',#1340);
#394=VERTEX_POINT('',#1342);
#395=VERTEX_POINT('',#1346);
#396=VERTEX_POINT('',#1352);
#397=VERTEX_POINT('',#1354);
#398=VERTEX_POINT('',#1362);
#399=VERTEX_POINT('',#1364);
#400=VERTEX_POINT('',#1368);
#401=VERTEX_POINT('',#1370);
#402=VERTEX_POINT('',#1374);
#403=VERTEX_POINT('',#1376);
#404=VERTEX_POINT('',#1381);
#405=VERTEX_POINT('',#1385);
#406=VERTEX_POINT('',#1394);
#407=VERTEX_POINT('',#1396);
#408=VERTEX_POINT('',#1400);
#409=VERTEX_POINT('',#1402);
#410=VERTEX_POINT('',#1406);
#411=VERTEX_POINT('',#1408);
#412=VERTEX_POINT('',#1410);
#413=VERTEX_POINT('',#1412);
#414=VERTEX_POINT('',#1414);
#415=VERTEX_POINT('',#1416);
#416=VERTEX_POINT('',#1418);
#417=VERTEX_POINT('',#1420);
#418=VERTEX_POINT('',#1422);
#419=VERTEX_POINT('',#1424);
#420=VERTEX_POINT('',#1426);
#421=VERTEX_POINT('',#1428);
#422=VERTEX_POINT('',#1430);
#423=VERTEX_POINT('',#1432);
#424=VERTEX_POINT('',#1434);
#425=VERTEX_POINT('',#1438);
#426=VERTEX_POINT('',#1440);
#427=VERTEX_POINT('',#1442);
#428=VERTEX_POINT('',#1444);
#429=VERTEX_POINT('',#1446);
#430=VERTEX_POINT('',#1448);
#431=VERTEX_POINT('',#1450);
#432=VERTEX_POINT('',#1452);
#433=VERTEX_POINT('',#1454);
#434=VERTEX_POINT('',#1456);
#435=VERTEX_POINT('',#1458);
#436=VERTEX_POINT('',#1460);
#437=VERTEX_POINT('',#1462);
#438=VERTEX_POINT('',#1464);
#439=VERTEX_POINT('',#1466);
#440=VERTEX_POINT('',#1487);
#441=VERTEX_POINT('',#1488);
#442=VERTEX_POINT('',#1491);
#443=VERTEX_POINT('',#1493);
#444=VERTEX_POINT('',#1497);
#445=VERTEX_POINT('',#1502);
#446=VERTEX_POINT('',#1505);
#447=VERTEX_POINT('',#1506);
#448=VERTEX_POINT('',#1511);
#449=VERTEX_POINT('',#1532);
#450=VERTEX_POINT('',#1536);
#451=VERTEX_POINT('',#1540);
#452=EDGE_CURVE('',#364,#365,#154,.T.);
#453=EDGE_CURVE('',#366,#364,#155,.T.);
#454=EDGE_CURVE('',#366,#367,#156,.T.);
#455=EDGE_CURVE('',#367,#365,#157,.T.);
#456=EDGE_CURVE('',#366,#368,#26,.T.);
#457=EDGE_CURVE('',#369,#368,#158,.T.);
#458=EDGE_CURVE('',#369,#367,#27,.T.);
#459=EDGE_CURVE('',#370,#371,#28,.T.);
#460=EDGE_CURVE('',#371,#372,#159,.T.);
#461=EDGE_CURVE('',#372,#373,#29,.T.);
#462=EDGE_CURVE('',#373,#370,#160,.T.);
#463=EDGE_CURVE('',#374,#375,#30,.T.);
#464=EDGE_CURVE('',#375,#376,#161,.T.);
#465=EDGE_CURVE('',#376,#377,#31,.T.);
#466=EDGE_CURVE('',#377,#374,#162,.T.);
#467=EDGE_CURVE('',#378,#365,#163,.T.);
#468=EDGE_CURVE('',#379,#378,#164,.T.);
#469=EDGE_CURVE('',#379,#380,#165,.T.);
#470=EDGE_CURVE('',#381,#380,#166,.T.);
#471=EDGE_CURVE('',#382,#381,#167,.T.);
#472=EDGE_CURVE('',#376,#382,#168,.T.);
#473=EDGE_CURVE('',#383,#375,#169,.T.);
#474=EDGE_CURVE('',#384,#383,#170,.T.);
#475=EDGE_CURVE('',#385,#384,#171,.T.);
#476=EDGE_CURVE('',#385,#386,#172,.T.);
#477=EDGE_CURVE('',#386,#387,#173,.T.);
#478=EDGE_CURVE('',#387,#364,#174,.T.);
#479=EDGE_CURVE('',#371,#374,#175,.T.);
#480=EDGE_CURVE('',#372,#377,#176,.F.);
#481=EDGE_CURVE('',#384,#388,#32,.T.);
#482=EDGE_CURVE('',#388,#389,#22,.F.);
#483=EDGE_CURVE('',#389,#385,#33,.T.);
#484=EDGE_CURVE('',#390,#383,#34,.T.);
#485=EDGE_CURVE('',#391,#390,#177,.T.);
#486=EDGE_CURVE('',#382,#391,#35,.T.);
#487=EDGE_CURVE('',#392,#381,#36,.T.);
#488=EDGE_CURVE('',#393,#392,#178,.T.);
#489=EDGE_CURVE('',#394,#393,#179,.T.);
#490=EDGE_CURVE('',#388,#394,#180,.T.);
#491=EDGE_CURVE('',#380,#395,#37,.T.);
#492=EDGE_CURVE('',#395,#392,#23,.F.);
#493=EDGE_CURVE('',#396,#395,#181,.T.);
#494=EDGE_CURVE('',#379,#397,#182,.T.);
#495=EDGE_CURVE('',#397,#396,#183,.T.);
#496=EDGE_CURVE('',#369,#378,#184,.T.);
#497=EDGE_CURVE('',#387,#368,#185,.T.);
#498=EDGE_CURVE('',#389,#398,#186,.T.);
#499=EDGE_CURVE('',#398,#399,#187,.T.);
#500=EDGE_CURVE('',#399,#386,#188,.T.);
#501=EDGE_CURVE('',#400,#393,#189,.T.);
#502=EDGE_CURVE('',#401,#400,#190,.T.);
#503=EDGE_CURVE('',#394,#401,#191,.T.);
#504=EDGE_CURVE('',#402,#401,#192,.T.);
#505=EDGE_CURVE('',#403,#402,#193,.T.);
#506=EDGE_CURVE('',#394,#403,#194,.T.);
#507=EDGE_CURVE('',#399,#397,#195,.T.);
#508=EDGE_CURVE('',#400,#404,#196,.T.);
#509=EDGE_CURVE('',#404,#402,#197,.T.);
#510=EDGE_CURVE('',#403,#405,#198,.T.);
#511=EDGE_CURVE('',#405,#393,#199,.T.);
#512=EDGE_CURVE('',#396,#398,#200,.T.);
#513=EDGE_CURVE('',#405,#404,#201,.F.);
#514=EDGE_CURVE('',#373,#406,#202,.T.);
#515=EDGE_CURVE('',#407,#406,#203,.T.);
#516=EDGE_CURVE('',#370,#407,#204,.T.);
#517=EDGE_CURVE('',#390,#408,#205,.T.);
#518=EDGE_CURVE('',#409,#408,#206,.T.);
#519=EDGE_CURVE('',#391,#409,#207,.T.);
#520=EDGE_CURVE('',#410,#407,#38,.T.);
#521=EDGE_CURVE('',#411,#410,#208,.T.);
#522=EDGE_CURVE('',#412,#411,#39,.T.);
#523=EDGE_CURVE('',#412,#413,#209,.T.);
#524=EDGE_CURVE('',#414,#413,#40,.T.);
#525=EDGE_CURVE('',#415,#414,#210,.T.);
#526=EDGE_CURVE('',#415,#416,#211,.T.);
#527=EDGE_CURVE('',#417,#416,#212,.T.);
#528=EDGE_CURVE('',#418,#417,#213,.T.);
#529=EDGE_CURVE('',#418,#419,#214,.T.);
#530=EDGE_CURVE('',#420,#419,#215,.T.);
#531=EDGE_CURVE('',#421,#420,#216,.F.);
#532=EDGE_CURVE('',#422,#421,#217,.T.);
#533=EDGE_CURVE('',#423,#422,#41,.T.);
#534=EDGE_CURVE('',#424,#423,#218,.T.);
#535=EDGE_CURVE('',#408,#424,#42,.T.);
#536=EDGE_CURVE('',#425,#409,#43,.T.);
#537=EDGE_CURVE('',#425,#426,#219,.T.);
#538=EDGE_CURVE('',#427,#426,#44,.T.);
#539=EDGE_CURVE('',#428,#427,#220,.T.);
#540=EDGE_CURVE('',#429,#428,#221,.F.);
#541=EDGE_CURVE('',#430,#429,#222,.T.);
#542=EDGE_CURVE('',#430,#431,#223,.T.);
#543=EDGE_CURVE('',#432,#431,#224,.T.);
#544=EDGE_CURVE('',#433,#432,#225,.T.);
#545=EDGE_CURVE('',#433,#434,#226,.T.);
#546=EDGE_CURVE('',#434,#435,#227,.T.);
#547=EDGE_CURVE('',#436,#435,#45,.T.);
#548=EDGE_CURVE('',#437,#436,#228,.T.);
#549=EDGE_CURVE('',#438,#437,#46,.T.);
#550=EDGE_CURVE('',#438,#439,#229,.T.);
#551=EDGE_CURVE('',#406,#439,#47,.T.);
#552=EDGE_CURVE('',#420,#429,#230,.F.);
#553=EDGE_CURVE('',#430,#419,#231,.T.);
#554=EDGE_CURVE('',#428,#421,#232,.T.);
#555=EDGE_CURVE('',#422,#427,#233,.T.);
#556=EDGE_CURVE('',#424,#425,#234,.T.);
#557=EDGE_CURVE('',#426,#423,#235,.T.);
#558=EDGE_CURVE('',#435,#414,#236,.T.);
#559=EDGE_CURVE('',#415,#434,#237,.T.);
#560=EDGE_CURVE('',#413,#436,#238,.T.);
#561=EDGE_CURVE('',#440,#441,#239,.T.);
#562=EDGE_CURVE('',#416,#441,#240,.F.);
#563=EDGE_CURVE('',#442,#433,#241,.F.);
#564=EDGE_CURVE('',#442,#443,#242,.T.);
#565=EDGE_CURVE('',#443,#440,#16,.T.);
#566=EDGE_CURVE('',#432,#444,#243,.T.);
#567=EDGE_CURVE('',#444,#442,#244,.T.);
#568=EDGE_CURVE('',#431,#418,#245,.T.);
#569=EDGE_CURVE('',#445,#445,#17,.T.);
#570=EDGE_CURVE('',#446,#447,#48,.T.);
#571=EDGE_CURVE('',#447,#440,#246,.T.);
#572=EDGE_CURVE('',#446,#443,#247,.T.);
#573=EDGE_CURVE('',#444,#448,#248,.T.);
#574=EDGE_CURVE('',#448,#446,#249,.T.);
#575=EDGE_CURVE('',#449,#449,#18,.T.);
#576=EDGE_CURVE('',#449,#445,#250,.T.);
#577=EDGE_CURVE('',#448,#450,#251,.T.);
#578=EDGE_CURVE('',#447,#450,#252,.T.);
#579=EDGE_CURVE('',#441,#451,#253,.T.);
#580=EDGE_CURVE('',#451,#417,#254,.T.);
#581=EDGE_CURVE('',#451,#450,#255,.T.);
#582=EDGE_CURVE('',#437,#412,#256,.T.);
#583=EDGE_CURVE('',#439,#410,#257,.T.);
#584=EDGE_CURVE('',#411,#438,#258,.T.);
#585=ORIENTED_EDGE('',*,*,#452,.F.);
#586=ORIENTED_EDGE('',*,*,#453,.F.);
#587=ORIENTED_EDGE('',*,*,#454,.T.);
#588=ORIENTED_EDGE('',*,*,#455,.T.);
#589=ORIENTED_EDGE('',*,*,#454,.F.);
#590=ORIENTED_EDGE('',*,*,#456,.T.);
#591=ORIENTED_EDGE('',*,*,#457,.F.);
#592=ORIENTED_EDGE('',*,*,#458,.T.);
#593=ORIENTED_EDGE('',*,*,#459,.T.);
#594=ORIENTED_EDGE('',*,*,#460,.T.);
#595=ORIENTED_EDGE('',*,*,#461,.T.);
#596=ORIENTED_EDGE('',*,*,#462,.T.);
#597=ORIENTED_EDGE('',*,*,#463,.T.);
#598=ORIENTED_EDGE('',*,*,#464,.T.);
#599=ORIENTED_EDGE('',*,*,#465,.T.);
#600=ORIENTED_EDGE('',*,*,#466,.T.);
#601=ORIENTED_EDGE('',*,*,#467,.F.);
#602=ORIENTED_EDGE('',*,*,#468,.F.);
#603=ORIENTED_EDGE('',*,*,#469,.T.);
#604=ORIENTED_EDGE('',*,*,#470,.F.);
#605=ORIENTED_EDGE('',*,*,#471,.F.);
#606=ORIENTED_EDGE('',*,*,#472,.F.);
#607=ORIENTED_EDGE('',*,*,#464,.F.);
#608=ORIENTED_EDGE('',*,*,#473,.F.);
#609=ORIENTED_EDGE('',*,*,#474,.F.);
#610=ORIENTED_EDGE('',*,*,#475,.F.);
#611=ORIENTED_EDGE('',*,*,#476,.T.);
#612=ORIENTED_EDGE('',*,*,#477,.T.);
#613=ORIENTED_EDGE('',*,*,#478,.T.);
#614=ORIENTED_EDGE('',*,*,#452,.T.);
#615=ORIENTED_EDGE('',*,*,#460,.F.);
#616=ORIENTED_EDGE('',*,*,#479,.T.);
#617=ORIENTED_EDGE('',*,*,#466,.F.);
#618=ORIENTED_EDGE('',*,*,#480,.F.);
#619=ORIENTED_EDGE('',*,*,#475,.T.);
#620=ORIENTED_EDGE('',*,*,#481,.T.);
#621=ORIENTED_EDGE('',*,*,#482,.T.);
#622=ORIENTED_EDGE('',*,*,#483,.T.);
#623=ORIENTED_EDGE('',*,*,#481,.F.);
#624=ORIENTED_EDGE('',*,*,#474,.T.);
#625=ORIENTED_EDGE('',*,*,#484,.F.);
#626=ORIENTED_EDGE('',*,*,#485,.F.);
#627=ORIENTED_EDGE('',*,*,#486,.F.);
#628=ORIENTED_EDGE('',*,*,#471,.T.);
#629=ORIENTED_EDGE('',*,*,#487,.F.);
#630=ORIENTED_EDGE('',*,*,#488,.F.);
#631=ORIENTED_EDGE('',*,*,#489,.F.);
#632=ORIENTED_EDGE('',*,*,#490,.F.);
#633=ORIENTED_EDGE('',*,*,#470,.T.);
#634=ORIENTED_EDGE('',*,*,#491,.T.);
#635=ORIENTED_EDGE('',*,*,#492,.T.);
#636=ORIENTED_EDGE('',*,*,#487,.T.);
#637=ORIENTED_EDGE('',*,*,#493,.T.);
#638=ORIENTED_EDGE('',*,*,#491,.F.);
#639=ORIENTED_EDGE('',*,*,#469,.F.);
#640=ORIENTED_EDGE('',*,*,#494,.T.);
#641=ORIENTED_EDGE('',*,*,#495,.T.);
#642=ORIENTED_EDGE('',*,*,#458,.F.);
#643=ORIENTED_EDGE('',*,*,#496,.T.);
#644=ORIENTED_EDGE('',*,*,#467,.T.);
#645=ORIENTED_EDGE('',*,*,#455,.F.);
#646=ORIENTED_EDGE('',*,*,#478,.F.);
#647=ORIENTED_EDGE('',*,*,#497,.T.);
#648=ORIENTED_EDGE('',*,*,#456,.F.);
#649=ORIENTED_EDGE('',*,*,#453,.T.);
#650=ORIENTED_EDGE('',*,*,#498,.T.);
#651=ORIENTED_EDGE('',*,*,#499,.T.);
#652=ORIENTED_EDGE('',*,*,#500,.T.);
#653=ORIENTED_EDGE('',*,*,#476,.F.);
#654=ORIENTED_EDGE('',*,*,#483,.F.);
#655=ORIENTED_EDGE('',*,*,#489,.T.);
#656=ORIENTED_EDGE('',*,*,#501,.F.);
#657=ORIENTED_EDGE('',*,*,#502,.F.);
#658=ORIENTED_EDGE('',*,*,#503,.F.);
#659=ORIENTED_EDGE('',*,*,#503,.T.);
#660=ORIENTED_EDGE('',*,*,#504,.F.);
#661=ORIENTED_EDGE('',*,*,#505,.F.);
#662=ORIENTED_EDGE('',*,*,#506,.F.);
#663=ORIENTED_EDGE('',*,*,#457,.T.);
#664=ORIENTED_EDGE('',*,*,#497,.F.);
#665=ORIENTED_EDGE('',*,*,#477,.F.);
#666=ORIENTED_EDGE('',*,*,#500,.F.);
#667=ORIENTED_EDGE('',*,*,#507,.T.);
#668=ORIENTED_EDGE('',*,*,#494,.F.);
#669=ORIENTED_EDGE('',*,*,#468,.T.);
#670=ORIENTED_EDGE('',*,*,#496,.F.);
#671=ORIENTED_EDGE('',*,*,#504,.T.);
#672=ORIENTED_EDGE('',*,*,#502,.T.);
#673=ORIENTED_EDGE('',*,*,#508,.T.);
#674=ORIENTED_EDGE('',*,*,#509,.T.);
#675=ORIENTED_EDGE('',*,*,#490,.T.);
#676=ORIENTED_EDGE('',*,*,#506,.T.);
#677=ORIENTED_EDGE('',*,*,#510,.T.);
#678=ORIENTED_EDGE('',*,*,#511,.T.);
#679=ORIENTED_EDGE('',*,*,#488,.T.);
#680=ORIENTED_EDGE('',*,*,#492,.F.);
#681=ORIENTED_EDGE('',*,*,#493,.F.);
#682=ORIENTED_EDGE('',*,*,#512,.T.);
#683=ORIENTED_EDGE('',*,*,#498,.F.);
#684=ORIENTED_EDGE('',*,*,#482,.F.);
#685=ORIENTED_EDGE('',*,*,#501,.T.);
#686=ORIENTED_EDGE('',*,*,#511,.F.);
#687=ORIENTED_EDGE('',*,*,#513,.T.);
#688=ORIENTED_EDGE('',*,*,#508,.F.);
#689=ORIENTED_EDGE('',*,*,#509,.F.);
#690=ORIENTED_EDGE('',*,*,#513,.F.);
#691=ORIENTED_EDGE('',*,*,#510,.F.);
#692=ORIENTED_EDGE('',*,*,#505,.T.);
#693=ORIENTED_EDGE('',*,*,#512,.F.);
#694=ORIENTED_EDGE('',*,*,#495,.F.);
#695=ORIENTED_EDGE('',*,*,#507,.F.);
#696=ORIENTED_EDGE('',*,*,#499,.F.);
#697=ORIENTED_EDGE('',*,*,#514,.T.);
#698=ORIENTED_EDGE('',*,*,#515,.F.);
#699=ORIENTED_EDGE('',*,*,#516,.F.);
#700=ORIENTED_EDGE('',*,*,#462,.F.);
#701=ORIENTED_EDGE('',*,*,#517,.T.);
#702=ORIENTED_EDGE('',*,*,#518,.F.);
#703=ORIENTED_EDGE('',*,*,#519,.F.);
#704=ORIENTED_EDGE('',*,*,#485,.T.);
#705=ORIENTED_EDGE('',*,*,#516,.T.);
#706=ORIENTED_EDGE('',*,*,#520,.F.);
#707=ORIENTED_EDGE('',*,*,#521,.F.);
#708=ORIENTED_EDGE('',*,*,#522,.F.);
#709=ORIENTED_EDGE('',*,*,#523,.T.);
#710=ORIENTED_EDGE('',*,*,#524,.F.);
#711=ORIENTED_EDGE('',*,*,#525,.F.);
#712=ORIENTED_EDGE('',*,*,#526,.T.);
#713=ORIENTED_EDGE('',*,*,#527,.F.);
#714=ORIENTED_EDGE('',*,*,#528,.F.);
#715=ORIENTED_EDGE('',*,*,#529,.T.);
#716=ORIENTED_EDGE('',*,*,#530,.F.);
#717=ORIENTED_EDGE('',*,*,#531,.F.);
#718=ORIENTED_EDGE('',*,*,#532,.F.);
#719=ORIENTED_EDGE('',*,*,#533,.F.);
#720=ORIENTED_EDGE('',*,*,#534,.F.);
#721=ORIENTED_EDGE('',*,*,#535,.F.);
#722=ORIENTED_EDGE('',*,*,#517,.F.);
#723=ORIENTED_EDGE('',*,*,#484,.T.);
#724=ORIENTED_EDGE('',*,*,#473,.T.);
#725=ORIENTED_EDGE('',*,*,#463,.F.);
#726=ORIENTED_EDGE('',*,*,#479,.F.);
#727=ORIENTED_EDGE('',*,*,#459,.F.);
#728=ORIENTED_EDGE('',*,*,#514,.F.);
#729=ORIENTED_EDGE('',*,*,#461,.F.);
#730=ORIENTED_EDGE('',*,*,#480,.T.);
#731=ORIENTED_EDGE('',*,*,#465,.F.);
#732=ORIENTED_EDGE('',*,*,#472,.T.);
#733=ORIENTED_EDGE('',*,*,#486,.T.);
#734=ORIENTED_EDGE('',*,*,#519,.T.);
#735=ORIENTED_EDGE('',*,*,#536,.F.);
#736=ORIENTED_EDGE('',*,*,#537,.T.);
#737=ORIENTED_EDGE('',*,*,#538,.F.);
#738=ORIENTED_EDGE('',*,*,#539,.F.);
#739=ORIENTED_EDGE('',*,*,#540,.F.);
#740=ORIENTED_EDGE('',*,*,#541,.F.);
#741=ORIENTED_EDGE('',*,*,#542,.T.);
#742=ORIENTED_EDGE('',*,*,#543,.F.);
#743=ORIENTED_EDGE('',*,*,#544,.F.);
#744=ORIENTED_EDGE('',*,*,#545,.T.);
#745=ORIENTED_EDGE('',*,*,#546,.T.);
#746=ORIENTED_EDGE('',*,*,#547,.F.);
#747=ORIENTED_EDGE('',*,*,#548,.F.);
#748=ORIENTED_EDGE('',*,*,#549,.F.);
#749=ORIENTED_EDGE('',*,*,#550,.T.);
#750=ORIENTED_EDGE('',*,*,#551,.F.);
#751=ORIENTED_EDGE('',*,*,#552,.F.);
#752=ORIENTED_EDGE('',*,*,#530,.T.);
#753=ORIENTED_EDGE('',*,*,#553,.F.);
#754=ORIENTED_EDGE('',*,*,#541,.T.);
#755=ORIENTED_EDGE('',*,*,#531,.T.);
#756=ORIENTED_EDGE('',*,*,#552,.T.);
#757=ORIENTED_EDGE('',*,*,#540,.T.);
#758=ORIENTED_EDGE('',*,*,#554,.T.);
#759=ORIENTED_EDGE('',*,*,#555,.F.);
#760=ORIENTED_EDGE('',*,*,#532,.T.);
#761=ORIENTED_EDGE('',*,*,#554,.F.);
#762=ORIENTED_EDGE('',*,*,#539,.T.);
#763=ORIENTED_EDGE('',*,*,#535,.T.);
#764=ORIENTED_EDGE('',*,*,#556,.T.);
#765=ORIENTED_EDGE('',*,*,#536,.T.);
#766=ORIENTED_EDGE('',*,*,#518,.T.);
#767=ORIENTED_EDGE('',*,*,#557,.F.);
#768=ORIENTED_EDGE('',*,*,#537,.F.);
#769=ORIENTED_EDGE('',*,*,#556,.F.);
#770=ORIENTED_EDGE('',*,*,#534,.T.);
#771=ORIENTED_EDGE('',*,*,#538,.T.);
#772=ORIENTED_EDGE('',*,*,#557,.T.);
#773=ORIENTED_EDGE('',*,*,#533,.T.);
#774=ORIENTED_EDGE('',*,*,#555,.T.);
#775=ORIENTED_EDGE('',*,*,#558,.F.);
#776=ORIENTED_EDGE('',*,*,#546,.F.);
#777=ORIENTED_EDGE('',*,*,#559,.F.);
#778=ORIENTED_EDGE('',*,*,#525,.T.);
#779=ORIENTED_EDGE('',*,*,#524,.T.);
#780=ORIENTED_EDGE('',*,*,#560,.T.);
#781=ORIENTED_EDGE('',*,*,#547,.T.);
#782=ORIENTED_EDGE('',*,*,#558,.T.);
#783=ORIENTED_EDGE('',*,*,#561,.T.);
#784=ORIENTED_EDGE('',*,*,#562,.F.);
#785=ORIENTED_EDGE('',*,*,#526,.F.);
#786=ORIENTED_EDGE('',*,*,#559,.T.);
#787=ORIENTED_EDGE('',*,*,#545,.F.);
#788=ORIENTED_EDGE('',*,*,#563,.F.);
#789=ORIENTED_EDGE('',*,*,#564,.T.);
#790=ORIENTED_EDGE('',*,*,#565,.T.);
#791=ORIENTED_EDGE('',*,*,#566,.T.);
#792=ORIENTED_EDGE('',*,*,#567,.T.);
#793=ORIENTED_EDGE('',*,*,#563,.T.);
#794=ORIENTED_EDGE('',*,*,#544,.T.);
#795=ORIENTED_EDGE('',*,*,#568,.F.);
#796=ORIENTED_EDGE('',*,*,#542,.F.);
#797=ORIENTED_EDGE('',*,*,#553,.T.);
#798=ORIENTED_EDGE('',*,*,#529,.F.);
#799=ORIENTED_EDGE('',*,*,#569,.T.);
#800=ORIENTED_EDGE('',*,*,#570,.T.);
#801=ORIENTED_EDGE('',*,*,#571,.T.);
#802=ORIENTED_EDGE('',*,*,#565,.F.);
#803=ORIENTED_EDGE('',*,*,#572,.F.);
#804=ORIENTED_EDGE('',*,*,#573,.T.);
#805=ORIENTED_EDGE('',*,*,#574,.T.);
#806=ORIENTED_EDGE('',*,*,#572,.T.);
#807=ORIENTED_EDGE('',*,*,#564,.F.);
#808=ORIENTED_EDGE('',*,*,#567,.F.);
#809=ORIENTED_EDGE('',*,*,#575,.F.);
#810=ORIENTED_EDGE('',*,*,#576,.T.);
#811=ORIENTED_EDGE('',*,*,#569,.F.);
#812=ORIENTED_EDGE('',*,*,#576,.F.);
#813=ORIENTED_EDGE('',*,*,#577,.T.);
#814=ORIENTED_EDGE('',*,*,#578,.F.);
#815=ORIENTED_EDGE('',*,*,#570,.F.);
#816=ORIENTED_EDGE('',*,*,#574,.F.);
#817=ORIENTED_EDGE('',*,*,#575,.T.);
#818=ORIENTED_EDGE('',*,*,#579,.T.);
#819=ORIENTED_EDGE('',*,*,#580,.T.);
#820=ORIENTED_EDGE('',*,*,#527,.T.);
#821=ORIENTED_EDGE('',*,*,#562,.T.);
#822=ORIENTED_EDGE('',*,*,#581,.F.);
#823=ORIENTED_EDGE('',*,*,#579,.F.);
#824=ORIENTED_EDGE('',*,*,#561,.F.);
#825=ORIENTED_EDGE('',*,*,#571,.F.);
#826=ORIENTED_EDGE('',*,*,#578,.T.);
#827=ORIENTED_EDGE('',*,*,#577,.F.);
#828=ORIENTED_EDGE('',*,*,#573,.F.);
#829=ORIENTED_EDGE('',*,*,#566,.F.);
#830=ORIENTED_EDGE('',*,*,#543,.T.);
#831=ORIENTED_EDGE('',*,*,#568,.T.);
#832=ORIENTED_EDGE('',*,*,#528,.T.);
#833=ORIENTED_EDGE('',*,*,#580,.F.);
#834=ORIENTED_EDGE('',*,*,#581,.T.);
#835=ORIENTED_EDGE('',*,*,#582,.F.);
#836=ORIENTED_EDGE('',*,*,#548,.T.);
#837=ORIENTED_EDGE('',*,*,#560,.F.);
#838=ORIENTED_EDGE('',*,*,#523,.F.);
#839=ORIENTED_EDGE('',*,*,#551,.T.);
#840=ORIENTED_EDGE('',*,*,#583,.T.);
#841=ORIENTED_EDGE('',*,*,#520,.T.);
#842=ORIENTED_EDGE('',*,*,#515,.T.);
#843=ORIENTED_EDGE('',*,*,#584,.F.);
#844=ORIENTED_EDGE('',*,*,#521,.T.);
#845=ORIENTED_EDGE('',*,*,#583,.F.);
#846=ORIENTED_EDGE('',*,*,#550,.F.);
#847=ORIENTED_EDGE('',*,*,#522,.T.);
#848=ORIENTED_EDGE('',*,*,#584,.T.);
#849=ORIENTED_EDGE('',*,*,#549,.T.);
#850=ORIENTED_EDGE('',*,*,#582,.T.);
#851=PLANE('',#944);
#852=PLANE('',#954);
#853=PLANE('',#955);
#854=PLANE('',#965);
#855=PLANE('',#966);
#856=PLANE('',#967);
#857=PLANE('',#968);
#858=PLANE('',#969);
#859=PLANE('',#970);
#860=PLANE('',#971);
#861=PLANE('',#972);
#862=PLANE('',#973);
#863=PLANE('',#974);
#864=PLANE('',#975);
#865=PLANE('',#976);
#866=PLANE('',#977);
#867=PLANE('',#978);
#868=PLANE('',#984);
#869=PLANE('',#990);
#870=PLANE('',#991);
#871=PLANE('',#992);
#872=PLANE('',#994);
#873=PLANE('',#996);
#874=PLANE('',#998);
#875=PLANE('',#1000);
#876=PLANE('',#1001);
#877=PLANE('',#1005);
#878=PLANE('',#1007);
#879=PLANE('',#1008);
#880=PLANE('',#1009);
#881=PLANE('',#1010);
#882=PLANE('',#1011);
#883=PLANE('',#1013);
#884=ADVANCED_FACE('',(#59),#851,.F.);
#885=ADVANCED_FACE('',(#60),#49,.F.);
#886=ADVANCED_FACE('',(#61),#50,.T.);
#887=ADVANCED_FACE('',(#62),#51,.F.);
#888=ADVANCED_FACE('',(#63),#852,.F.);
#889=ADVANCED_FACE('',(#64),#853,.T.);
#890=ADVANCED_FACE('',(#65),#24,.T.);
#891=ADVANCED_FACE('',(#66),#52,.T.);
#892=ADVANCED_FACE('',(#67),#25,.T.);
#893=ADVANCED_FACE('',(#68),#854,.F.);
#894=ADVANCED_FACE('',(#69),#855,.F.);
#895=ADVANCED_FACE('',(#70),#856,.F.);
#896=ADVANCED_FACE('',(#71),#857,.T.);
#897=ADVANCED_FACE('',(#72),#858,.T.);
#898=ADVANCED_FACE('',(#73),#859,.F.);
#899=ADVANCED_FACE('',(#74,#19),#860,.T.);
#900=ADVANCED_FACE('',(#75),#861,.T.);
#901=ADVANCED_FACE('',(#76),#862,.F.);
#902=ADVANCED_FACE('',(#77),#863,.F.);
#903=ADVANCED_FACE('',(#78),#864,.T.);
#904=ADVANCED_FACE('',(#79),#865,.T.);
#905=ADVANCED_FACE('',(#80),#866,.F.);
#906=ADVANCED_FACE('',(#81),#867,.F.);
#907=ADVANCED_FACE('',(#82),#868,.F.);
#908=ADVANCED_FACE('',(#83),#869,.F.);
#909=ADVANCED_FACE('',(#84),#870,.T.);
#910=ADVANCED_FACE('',(#85),#871,.T.);
#911=ADVANCED_FACE('',(#86),#53,.F.);
#912=ADVANCED_FACE('',(#87),#872,.T.);
#913=ADVANCED_FACE('',(#88),#54,.F.);
#914=ADVANCED_FACE('',(#89),#873,.T.);
#915=ADVANCED_FACE('',(#90),#55,.T.);
#916=ADVANCED_FACE('',(#91),#874,.F.);
#917=ADVANCED_FACE('',(#92),#875,.T.);
#918=ADVANCED_FACE('',(#93,#20),#876,.F.);
#919=ADVANCED_FACE('',(#94),#56,.F.);
#920=ADVANCED_FACE('',(#95),#877,.F.);
#921=ADVANCED_FACE('',(#96),#15,.T.);
#922=ADVANCED_FACE('',(#97,#21),#878,.T.);
#923=ADVANCED_FACE('',(#98),#879,.T.);
#924=ADVANCED_FACE('',(#99),#880,.F.);
#925=ADVANCED_FACE('',(#100),#881,.T.);
#926=ADVANCED_FACE('',(#101),#882,.T.);
#927=ADVANCED_FACE('',(#102),#57,.T.);
#928=ADVANCED_FACE('',(#103),#883,.T.);
#929=ADVANCED_FACE('',(#104),#58,.F.);
#930=CLOSED_SHELL('',(#884,#885,#886,#887,#888,#889,#890,#891,#892,#893,
#894,#895,#896,#897,#898,#899,#900,#901,#902,#903,#904,#905,#906,#907,#908,
#909,#910,#911,#912,#913,#914,#915,#916,#917,#918,#919,#920,#921,#922,#923,
#924,#925,#926,#927,#928,#929));
#931=DERIVED_UNIT_ELEMENT(#933,1.);
#932=DERIVED_UNIT_ELEMENT(#1558,-3.);
#933=(
MASS_UNIT()
NAMED_UNIT(*)
SI_UNIT(.KILO.,.GRAM.)
);
#934=DERIVED_UNIT((#931,#932));
#935=MEASURE_REPRESENTATION_ITEM('density measure',
POSITIVE_RATIO_MEASURE(7850.),#934);
#936=PROPERTY_DEFINITION_REPRESENTATION(#941,#938);
#937=PROPERTY_DEFINITION_REPRESENTATION(#942,#939);
#938=REPRESENTATION('material name',(#940),#1555);
#939=REPRESENTATION('density',(#935),#1555);
#940=DESCRIPTIVE_REPRESENTATION_ITEM('Steel','Steel');
#941=PROPERTY_DEFINITION('material property','material name',#1565);
#942=PROPERTY_DEFINITION('material property','density of part',#1565);
#943=AXIS2_PLACEMENT_3D('',#1264,#1015,#1016);
#944=AXIS2_PLACEMENT_3D('',#1265,#1017,#1018);
#945=AXIS2_PLACEMENT_3D('',#1274,#1023,#1024);
#946=AXIS2_PLACEMENT_3D('',#1276,#1025,#1026);
#947=AXIS2_PLACEMENT_3D('',#1279,#1028,#1029);
#948=AXIS2_PLACEMENT_3D('',#1280,#1030,#1031);
#949=AXIS2_PLACEMENT_3D('',#1283,#1032,#1033);
#950=AXIS2_PLACEMENT_3D('',#1287,#1035,#1036);
#951=AXIS2_PLACEMENT_3D('',#1289,#1038,#1039);
#952=AXIS2_PLACEMENT_3D('',#1292,#1040,#1041);
#953=AXIS2_PLACEMENT_3D('',#1296,#1043,#1044);
#954=AXIS2_PLACEMENT_3D('',#1298,#1046,#1047);
#955=AXIS2_PLACEMENT_3D('',#1321,#1060,#1061);
#956=AXIS2_PLACEMENT_3D('',#1324,#1064,#1065);
#957=AXIS2_PLACEMENT_3D('',#1326,#1066,#1067);
#958=AXIS2_PLACEMENT_3D('',#1331,#1068,#1069);
#959=AXIS2_PLACEMENT_3D('',#1332,#1070,#1071);
#960=AXIS2_PLACEMENT_3D('',#1334,#1072,#1073);
#961=AXIS2_PLACEMENT_3D('',#1337,#1075,#1076);
#962=AXIS2_PLACEMENT_3D('',#1339,#1077,#1078);
#963=AXIS2_PLACEMENT_3D('',#1345,#1082,#1083);
#964=AXIS2_PLACEMENT_3D('',#1347,#1084,#1085);
#965=AXIS2_PLACEMENT_3D('',#1351,#1086,#1087);
#966=AXIS2_PLACEMENT_3D('',#1357,#1091,#1092);
#967=AXIS2_PLACEMENT_3D('',#1359,#1094,#1095);
#968=AXIS2_PLACEMENT_3D('',#1361,#1097,#1098);
#969=AXIS2_PLACEMENT_3D('',#1367,#1102,#1103);
#970=AXIS2_PLACEMENT_3D('',#1373,#1107,#1108);
#971=AXIS2_PLACEMENT_3D('',#1379,#1112,#1113);
#972=AXIS2_PLACEMENT_3D('',#1384,#1117,#1118);
#973=AXIS2_PLACEMENT_3D('',#1389,#1122,#1123);
#974=AXIS2_PLACEMENT_3D('',#1391,#1125,#1126);
#975=AXIS2_PLACEMENT_3D('',#1392,#1127,#1128);
#976=AXIS2_PLACEMENT_3D('',#1393,#1129,#1130);
#977=AXIS2_PLACEMENT_3D('',#1399,#1134,#1135);
#978=AXIS2_PLACEMENT_3D('',#1405,#1139,#1140);
#979=AXIS2_PLACEMENT_3D('',#1407,#1141,#1142);
#980=AXIS2_PLACEMENT_3D('',#1411,#1144,#1145);
#981=AXIS2_PLACEMENT_3D('',#1415,#1147,#1148);
#982=AXIS2_PLACEMENT_3D('',#1433,#1157,#1158);
#983=AXIS2_PLACEMENT_3D('',#1436,#1160,#1161);
#984=AXIS2_PLACEMENT_3D('',#1437,#1162,#1163);
#985=AXIS2_PLACEMENT_3D('',#1439,#1164,#1165);
#986=AXIS2_PLACEMENT_3D('',#1443,#1167,#1168);
#987=AXIS2_PLACEMENT_3D('',#1461,#1177,#1178);
#988=AXIS2_PLACEMENT_3D('',#1465,#1180,#1181);
#989=AXIS2_PLACEMENT_3D('',#1468,#1183,#1184);
#990=AXIS2_PLACEMENT_3D('',#1469,#1185,#1186);
#991=AXIS2_PLACEMENT_3D('',#1472,#1189,#1190);
#992=AXIS2_PLACEMENT_3D('',#1474,#1192,#1193);
#993=AXIS2_PLACEMENT_3D('',#1476,#1195,#1196);
#994=AXIS2_PLACEMENT_3D('',#1478,#1198,#1199);
#995=AXIS2_PLACEMENT_3D('',#1480,#1201,#1202);
#996=AXIS2_PLACEMENT_3D('',#1481,#1203,#1204);
#997=AXIS2_PLACEMENT_3D('',#1484,#1207,#1208);
#998=AXIS2_PLACEMENT_3D('',#1486,#1210,#1211);
#999=AXIS2_PLACEMENT_3D('',#1495,#1216,#1217);
#1000=AXIS2_PLACEMENT_3D('',#1496,#1218,#1219);
#1001=AXIS2_PLACEMENT_3D('',#1500,#1222,#1223);
#1002=AXIS2_PLACEMENT_3D('',#1503,#1225,#1226);
#1003=AXIS2_PLACEMENT_3D('',#1504,#1227,#1228);
#1004=AXIS2_PLACEMENT_3D('',#1507,#1229,#1230);
#1005=AXIS2_PLACEMENT_3D('',#1510,#1233,#1234);
#1006=AXIS2_PLACEMENT_3D('',#1533,#1237,#1238);
#1007=AXIS2_PLACEMENT_3D('',#1535,#1240,#1241);
#1008=AXIS2_PLACEMENT_3D('',#1539,#1244,#1245);
#1009=AXIS2_PLACEMENT_3D('',#1543,#1248,#1249);
#1010=AXIS2_PLACEMENT_3D('',#1545,#1251,#1252);
#1011=AXIS2_PLACEMENT_3D('',#1546,#1253,#1254);
#1012=AXIS2_PLACEMENT_3D('',#1548,#1256,#1257);
#1013=AXIS2_PLACEMENT_3D('',#1550,#1259,#1260);
#1014=AXIS2_PLACEMENT_3D('',#1552,#1262,#1263);
#1015=DIRECTION('axis',(0.,0.,1.));
#1016=DIRECTION('refdir',(1.,0.,0.));
#1017=DIRECTION('center_axis',(0.,0.,-1.));
#1018=DIRECTION('ref_axis',(0.,1.,0.));
#1019=DIRECTION('',(1.,0.,0.));
#1020=DIRECTION('',(0.,1.,0.));
#1021=DIRECTION('',(1.,0.,0.));
#1022=DIRECTION('',(0.,1.,0.));
#1023=DIRECTION('center_axis',(1.,0.,0.));
#1024=DIRECTION('ref_axis',(0.,-1.,0.));
#1025=DIRECTION('center_axis',(-1.,0.,0.));
#1026=DIRECTION('ref_axis',(0.,-1.,0.));
#1027=DIRECTION('',(-1.,0.,0.));
#1028=DIRECTION('center_axis',(1.,0.,0.));
#1029=DIRECTION('ref_axis',(0.,-1.,0.));
#1030=DIRECTION('center_axis',(-1.,0.,0.));
#1031=DIRECTION('ref_axis',(0.,0.707106780090293,0.707106782282802));
#1032=DIRECTION('center_axis',(1.,0.,0.));
#1033=DIRECTION('ref_axis',(0.,0.707106780090293,0.707106782282802));
#1034=DIRECTION('',(1.,0.,0.));
#1035=DIRECTION('center_axis',(-1.,0.,0.));
#1036=DIRECTION('ref_axis',(0.,0.707106780090293,0.707106782282802));
#1037=DIRECTION('',(-1.,0.,0.));
#1038=DIRECTION('center_axis',(1.,0.,0.));
#1039=DIRECTION('ref_axis',(0.,-0.707106781186546,-0.707106781186549));
#1040=DIRECTION('center_axis',(-1.,0.,0.));
#1041=DIRECTION('ref_axis',(0.,-0.707106781186546,-0.707106781186549));
#1042=DIRECTION('',(1.,0.,0.));
#1043=DIRECTION('center_axis',(1.,0.,0.));
#1044=DIRECTION('ref_axis',(0.,-0.707106781186546,-0.707106781186549));
#1045=DIRECTION('',(-1.,0.,0.));
#1046=DIRECTION('center_axis',(0.,-1.,0.));
#1047=DIRECTION('ref_axis',(1.,0.,0.));
#1048=DIRECTION('',(0.,0.,-1.));
#1049=DIRECTION('',(-1.,0.,0.));
#1050=DIRECTION('',(0.,0.,-1.));
#1051=DIRECTION('',(0.707106789132687,0.,0.707106773240408));
#1052=DIRECTION('',(1.,0.,0.));
#1053=DIRECTION('',(0.,0.,1.));
#1054=DIRECTION('',(0.,0.,-1.));
#1055=DIRECTION('',(1.,0.,0.));
#1056=DIRECTION('',(0.707106773240409,0.,-0.707106789132686));
#1057=DIRECTION('',(0.,0.,1.));
#1058=DIRECTION('',(1.,0.,0.));
#1059=DIRECTION('',(0.,0.,-1.));
#1060=DIRECTION('center_axis',(0.,0.,1.));
#1061=DIRECTION('ref_axis',(0.,-1.,0.));
#1062=DIRECTION('',(0.,-1.,0.));
#1063=DIRECTION('',(0.,1.,0.));
#1064=DIRECTION('center_axis',(1.,0.,0.));
#1065=DIRECTION('ref_axis',(0.,-1.,0.));
#1066=DIRECTION('center_axis',(-1.,0.,0.));
#1067=DIRECTION('ref_axis',(0.,-1.,0.));
#1068=DIRECTION('center_axis',(1.,0.,0.));
#1069=DIRECTION('ref_axis',(0.,-1.,0.));
#1070=DIRECTION('center_axis',(1.,0.,0.));
#1071=DIRECTION('ref_axis',(0.,-1.,0.));
#1072=DIRECTION('center_axis',(1.,0.,0.));
#1073=DIRECTION('ref_axis',(0.,-1.,0.));
#1074=DIRECTION('',(-1.,0.,0.));
#1075=DIRECTION('center_axis',(-1.,0.,0.));
#1076=DIRECTION('ref_axis',(0.,-1.,0.));
#1077=DIRECTION('center_axis',(1.,0.,0.));
#1078=DIRECTION('ref_axis',(0.,-1.,0.));
#1079=DIRECTION('',(1.,0.,0.));
#1080=DIRECTION('',(1.,0.,0.));
#1081=DIRECTION('',(1.,0.,0.));
#1082=DIRECTION('center_axis',(-1.,0.,0.));
#1083=DIRECTION('ref_axis',(0.,-1.,0.));
#1084=DIRECTION('center_axis',(-1.,0.,0.));
#1085=DIRECTION('ref_axis',(0.,-1.,0.));
#1086=DIRECTION('center_axis',(-1.,0.,0.));
#1087=DIRECTION('ref_axis',(0.,-1.,0.));
#1088=DIRECTION('',(0.,1.,-4.13029399042097E-18));
#1089=DIRECTION('',(0.,-1.,0.));
#1090=DIRECTION('',(0.,0.,-1.));
#1091=DIRECTION('center_axis',(1.,0.,0.));
#1092=DIRECTION('ref_axis',(0.,1.,0.));
#1093=DIRECTION('',(0.,1.,-3.69232536472656E-17));
#1094=DIRECTION('center_axis',(-1.,0.,0.));
#1095=DIRECTION('ref_axis',(0.,-1.,0.));
#1096=DIRECTION('',(0.,-1.,0.));
#1097=DIRECTION('center_axis',(-1.,0.,0.));
#1098=DIRECTION('ref_axis',(0.,-1.,0.));
#1099=DIRECTION('',(0.,-1.,4.13029399042097E-18));
#1100=DIRECTION('',(0.,0.,1.));
#1101=DIRECTION('',(0.,1.,0.));
#1102=DIRECTION('center_axis',(0.,-1.,0.));
#1103=DIRECTION('ref_axis',(1.,0.,0.));
#1104=DIRECTION('',(0.,0.,-1.));
#1105=DIRECTION('',(1.,0.,0.));
#1106=DIRECTION('',(0.,0.,1.));
#1107=DIRECTION('center_axis',(-1.,0.,0.));
#1108=DIRECTION('ref_axis',(0.,-1.,0.));
#1109=DIRECTION('',(0.,1.,0.));
#1110=DIRECTION('',(0.,0.,1.));
#1111=DIRECTION('',(0.,-1.,0.));
#1112=DIRECTION('center_axis',(0.,0.,1.));
#1113=DIRECTION('ref_axis',(1.,0.,0.));
#1114=DIRECTION('',(1.,0.,0.));
#1115=DIRECTION('',(0.,-1.,0.));
#1116=DIRECTION('',(-1.,0.,0.));
#1117=DIRECTION('center_axis',(0.,0.,-1.));
#1118=DIRECTION('ref_axis',(1.,0.,0.));
#1119=DIRECTION('',(1.,0.,0.));
#1120=DIRECTION('',(0.,1.,0.));
#1121=DIRECTION('',(-1.,0.,0.));
#1122=DIRECTION('center_axis',(1.,0.,0.));
#1123=DIRECTION('ref_axis',(0.,1.,0.));
#1124=DIRECTION('',(0.,0.,-1.));
#1125=DIRECTION('center_axis',(0.,-1.,0.));
#1126=DIRECTION('ref_axis',(1.,0.,0.));
#1127=DIRECTION('center_axis',(0.,-1.,0.));
#1128=DIRECTION('ref_axis',(0.,0.,-1.));
#1129=DIRECTION('center_axis',(0.,1.,3.10067527209412E-9));
#1130=DIRECTION('ref_axis',(0.,-3.10067527209412E-9,1.));
#1131=DIRECTION('',(0.,3.10067527209412E-9,-1.));
#1132=DIRECTION('',(1.,0.,0.));
#1133=DIRECTION('',(0.,3.10067527209412E-9,-1.));
#1134=DIRECTION('center_axis',(0.,1.,0.));
#1135=DIRECTION('ref_axis',(0.,0.,-1.));
#1136=DIRECTION('',(0.,0.,-1.));
#1137=DIRECTION('',(-1.,0.,0.));
#1138=DIRECTION('',(0.,0.,-1.));
#1139=DIRECTION('center_axis',(1.,0.,0.));
#1140=DIRECTION('ref_axis',(0.,0.987688340595138,-0.15643446504023));
#1141=DIRECTION('center_axis',(1.,0.,0.));
#1142=DIRECTION('ref_axis',(0.,0.707106783379056,-0.707106778994039));
#1143=DIRECTION('',(0.,1.,3.10067749307638E-9));
#1144=DIRECTION('center_axis',(-1.,0.,0.));
#1145=DIRECTION('ref_axis',(0.,-0.707106782282803,0.707106780090292));
#1146=DIRECTION('',(0.,0.,-1.));
#1147=DIRECTION('center_axis',(1.,0.,0.));
#1148=DIRECTION('ref_axis',(0.,0.857468648352835,-0.514536215530027));
#1149=DIRECTION('',(0.,0.882397346518231,0.470504965816074));
#1150=DIRECTION('',(0.,-1.,0.));
#1151=DIRECTION('',(0.,0.500000000000001,-0.866025403784438));
#1152=DIRECTION('',(3.09105769001791E-26,-0.0871557427476582,-0.996194698091746));
#1153=DIRECTION('',(0.,0.996194698091746,-0.0871557427476582));
#1154=DIRECTION('',(6.38463616746206E-11,0.0871557427476582,0.996194698091746));
#1155=DIRECTION('',(-5.01631130807975E-25,0.970295721529992,-0.241921914634852));
#1156=DIRECTION('',(0.,-1.,1.96179190947721E-8));
#1157=DIRECTION('center_axis',(-1.,0.,0.));
#1158=DIRECTION('ref_axis',(0.,0.242489839221606,-0.970153945451071));
#1159=DIRECTION('',(0.,-0.882397346518231,-0.470504965816074));
#1160=DIRECTION('center_axis',(-1.,0.,0.));
#1161=DIRECTION('ref_axis',(0.,0.857468648352835,-0.514536215530027));
#1162=DIRECTION('center_axis',(-1.,0.,0.));
#1163=DIRECTION('ref_axis',(0.,-0.987688340595138,0.15643446504023));
#1164=DIRECTION('center_axis',(1.,0.,0.));
#1165=DIRECTION('ref_axis',(0.,0.857468648352835,-0.514536215530027));
#1166=DIRECTION('',(0.,-0.882397346518231,-0.470504965816074));
#1167=DIRECTION('center_axis',(1.,0.,0.));
#1168=DIRECTION('ref_axis',(0.,0.242489839221606,-0.970153945451071));
#1169=DIRECTION('',(0.,1.,-1.96179191225276E-8));
#1170=DIRECTION('',(5.01631130807975E-25,-0.970295721529992,0.241921914634852));
#1171=DIRECTION('',(-6.38463616746206E-11,-0.0871557427476582,-0.996194698091746));
#1172=DIRECTION('',(0.,-0.996194698091746,0.0871557427476582));
#1173=DIRECTION('',(-3.09105769001791E-26,0.0871557427476582,0.996194698091746));
#1174=DIRECTION('',(0.,-0.499999999999999,0.866025403784439));
#1175=DIRECTION('',(0.,1.,0.));
#1176=DIRECTION('',(0.,0.882397346518231,0.470504965816074));
#1177=DIRECTION('center_axis',(-1.,0.,0.));
#1178=DIRECTION('ref_axis',(0.,0.857468648352835,-0.514536215530027));
#1179=DIRECTION('',(0.,0.,-1.));
#1180=DIRECTION('center_axis',(1.,0.,0.));
#1181=DIRECTION('ref_axis',(0.,-0.707106782282803,0.707106780090292));
#1182=DIRECTION('',(0.,1.,3.10067749307638E-9));
#1183=DIRECTION('center_axis',(-1.,0.,0.));
#1184=DIRECTION('ref_axis',(0.,0.707106783379056,-0.707106778994039));
#1185=DIRECTION('center_axis',(-7.29767253281931E-10,-0.996194698091746,
0.0871557427476582));
#1186=DIRECTION('ref_axis',(-5.21789576192159E-11,0.0871557427476582,0.996194698091746));
#1187=DIRECTION('',(-1.,7.3255484532713E-10,-3.50665150183908E-18));
#1188=DIRECTION('',(-1.,7.26990268560435E-10,-6.36034069927051E-11));
#1189=DIRECTION('center_axis',(1.77221067354088E-10,0.241921914634852,0.970295721529992));
#1190=DIRECTION('ref_axis',(1.,2.72660860930082E-10,-2.50628441907196E-10));
#1191=DIRECTION('',(-1.,7.32554888902461E-10,-1.43712025633007E-17));
#1192=DIRECTION('center_axis',(0.,1.96179191225276E-8,1.));
#1193=DIRECTION('ref_axis',(1.,0.,0.));
#1194=DIRECTION('',(1.,0.,0.));
#1195=DIRECTION('center_axis',(1.,0.,0.));
#1196=DIRECTION('ref_axis',(0.,0.857468648352835,-0.514536215530027));
#1197=DIRECTION('',(1.,0.,0.));
#1198=DIRECTION('center_axis',(0.,-0.470504965816074,0.882397346518231));
#1199=DIRECTION('ref_axis',(0.,0.882397346518231,0.470504965816074));
#1200=DIRECTION('',(-1.,0.,0.));
#1201=DIRECTION('center_axis',(-1.,0.,0.));
#1202=DIRECTION('ref_axis',(0.,0.242489839221606,-0.970153945451071));
#1203=DIRECTION('center_axis',(0.,0.470504965816074,-0.882397346518231));
#1204=DIRECTION('ref_axis',(0.,-0.882397346518231,-0.470504965816074));
#1205=DIRECTION('',(-1.,0.,0.));
#1206=DIRECTION('',(1.,0.,0.));
#1207=DIRECTION('center_axis',(-1.,0.,0.));
#1208=DIRECTION('ref_axis',(0.,0.857468648352835,-0.514536215530027));
#1209=DIRECTION('',(1.,0.,0.));
#1210=DIRECTION('center_axis',(0.,0.,1.));
#1211=DIRECTION('ref_axis',(1.,0.,0.));
#1212=DIRECTION('',(0.,-1.,0.));
#1213=DIRECTION('',(-1.,0.,0.));
#1214=DIRECTION('',(-1.,0.,0.));
#1215=DIRECTION('',(0.,1.,0.));
#1216=DIRECTION('center_axis',(0.,0.,1.));
#1217=DIRECTION('ref_axis',(0.,-1.,0.));
#1218=DIRECTION('center_axis',(0.,-0.866025403784439,-0.499999999999999));
#1219=DIRECTION('ref_axis',(0.,0.499999999999999,-0.866025403784439));
#1220=DIRECTION('',(-1.,7.26184498158106E-25,-1.25778844647875E-24));
#1221=DIRECTION('',(0.,0.499999999999999,-0.866025403784439));
#1222=DIRECTION('center_axis',(0.,-0.0871557427476582,-0.996194698091746));
#1223=DIRECTION('ref_axis',(0.,0.996194698091746,-0.0871557427476582));
#1224=DIRECTION('',(-1.,8.27180612553028E-25,-1.03397576569128E-25));
#1225=DIRECTION('center_axis',(-4.94150427847702E-24,-0.087155742747658,
-0.996194698091746));
#1226=DIRECTION('ref_axis',(3.8391317327854E-8,-0.996194698091745,0.087155742747658));
#1227=DIRECTION('center_axis',(0.,-0.0871557427476583,-0.996194698091746));
#1228=DIRECTION('ref_axis',(1.,0.,0.));
#1229=DIRECTION('center_axis',(0.,0.0871557427476577,0.996194698091746));
#1230=DIRECTION('ref_axis',(1.,0.,0.));
#1231=DIRECTION('',(0.,-0.0871557427476583,-0.996194698091746));
#1232=DIRECTION('',(0.,-0.0871557427476583,-0.996194698091746));
#1233=DIRECTION('center_axis',(1.,0.,0.));
#1234=DIRECTION('ref_axis',(0.,-0.996194698091746,0.0871557427476577));
#1235=DIRECTION('',(-3.09105769001791E-26,0.0871557427476582,0.996194698091746));
#1236=DIRECTION('',(0.,0.996194698091746,-0.0871557427476577));
#1237=DIRECTION('center_axis',(4.94150427847702E-24,0.087155742747658,0.996194698091746));
#1238=DIRECTION('ref_axis',(3.8391317327854E-8,-0.996194698091745,0.087155742747658));
#1239=DIRECTION('',(0.,0.0871557427476585,0.996194698091746));
#1240=DIRECTION('center_axis',(0.,-0.0871557427476577,-0.996194698091746));
#1241=DIRECTION('ref_axis',(1.,0.,0.));
#1242=DIRECTION('',(-1.,8.27180612553028E-25,-1.03397576569128E-25));
#1243=DIRECTION('',(0.,-0.996194698091746,0.0871557427476577));
#1244=DIRECTION('center_axis',(0.,-0.866025403784439,-0.499999999999999));
#1245=DIRECTION('ref_axis',(0.,0.499999999999999,-0.866025403784439));
#1246=DIRECTION('',(0.,-0.499999999999999,0.866025403784439));
#1247=DIRECTION('',(-1.,7.26184498158106E-25,-1.25778844647875E-24));
#1248=DIRECTION('center_axis',(-1.,0.,0.));
#1249=DIRECTION('ref_axis',(0.,0.996194698091746,-0.0871557427476577));
#1250=DIRECTION('',(-3.09105769001791E-26,0.0871557427476582,0.996194698091746));
#1251=DIRECTION('center_axis',(-8.33044633173799E-25,-0.996194698091746,
0.0871557427476582));
#1252=DIRECTION('ref_axis',(3.09105769001791E-26,-0.0871557427476582,-0.996194698091746));
#1253=DIRECTION('center_axis',(0.,1.,0.));
#1254=DIRECTION('ref_axis',(0.,0.,-1.));
#1255=DIRECTION('',(-1.,0.,0.));
#1256=DIRECTION('center_axis',(1.,0.,0.));
#1257=DIRECTION('ref_axis',(0.,0.707106783379056,-0.707106778994039));
#1258=DIRECTION('',(-1.,0.,0.));
#1259=DIRECTION('center_axis',(0.,3.10067749307638E-9,-1.));
#1260=DIRECTION('ref_axis',(0.,1.,3.10067749307638E-9));
#1261=DIRECTION('',(1.,0.,0.));
#1262=DIRECTION('center_axis',(1.,0.,0.));
#1263=DIRECTION('ref_axis',(0.,-0.707106782282803,0.707106780090292));
#1264=CARTESIAN_POINT('',(0.,0.,0.));
#1265=CARTESIAN_POINT('Origin',(-9.5,21.1000993751571,-2.43857764360004));
#1266=CARTESIAN_POINT('',(-9.5,22.1001142618927,-2.43857764360004));
#1267=CARTESIAN_POINT('',(9.50000001985697,22.1001142618927,-2.43857764360004));
#1268=CARTESIAN_POINT('',(-10.8749999963364,22.1001142618927,-2.43857764360004));
#1269=CARTESIAN_POINT('',(-9.50000001029303,21.1000993751571,-2.43857764358157));
#1270=CARTESIAN_POINT('',(-9.5,20.3166570825771,-2.43857764360004));
#1271=CARTESIAN_POINT('',(9.50000000956394,21.1000993751571,-2.43857764358157));
#1272=CARTESIAN_POINT('',(-9.50000001029303,21.1000993751571,-2.43857764358157));
#1273=CARTESIAN_POINT('',(9.50000001985697,20.3166570825771,-2.43857764360004));
#1274=CARTESIAN_POINT('Origin',(-12.2499999926728,21.1001142618927,1.56142235639997));
#1275=CARTESIAN_POINT('',(-9.5,17.1001142618926,1.56142235639997));
#1276=CARTESIAN_POINT('Origin',(-9.5,21.1001142618927,1.56142235639997));
#1277=CARTESIAN_POINT('',(9.5,17.1001142618927,1.56142235639997));
#1278=CARTESIAN_POINT('',(-12.2499999926728,17.1001142618927,1.56142235639997));
#1279=CARTESIAN_POINT('Origin',(9.49999999999999,21.1001142618927,1.56142235639997));
#1280=CARTESIAN_POINT('Origin',(-6.1,31.1179177943118,-14.7904987166075));
#1281=CARTESIAN_POINT('',(-8.60000029802322,31.6179177943118,-14.7904987150572));
#1282=CARTESIAN_POINT('',(-8.60000029802322,31.1179177943118,-14.2904987166075));
#1283=CARTESIAN_POINT('Origin',(-8.60000029802322,31.1179177943118,-14.7904987166075));
#1284=CARTESIAN_POINT('',(8.60000029802322,31.1179177943118,-14.2904987166075));
#1285=CARTESIAN_POINT('',(-6.1,31.1179177943118,-14.2904987166075));
#1286=CARTESIAN_POINT('',(8.60000029802322,31.6179177943118,-14.7904987150572));
#1287=CARTESIAN_POINT('Origin',(8.60000029802322,31.1179177943118,-14.7904987166075));
#1288=CARTESIAN_POINT('',(-6.1,31.6179177943118,-14.7904987150572));
#1289=CARTESIAN_POINT('Origin',(-9.17499999633638,23.1001142618927,-13.2904987166075));
#1290=CARTESIAN_POINT('',(-8.60000029802322,23.1001142618927,-14.2904987166075));
#1291=CARTESIAN_POINT('',(-8.60000029802322,22.1001142618927,-13.2904987166075));
#1292=CARTESIAN_POINT('Origin',(-8.60000029802322,23.1001142618927,-13.2904987166075));
#1293=CARTESIAN_POINT('',(8.60000029802322,22.1001142618927,-13.2904987166075));
#1294=CARTESIAN_POINT('',(-9.17499999633638,22.1001142618927,-13.2904987166075));
#1295=CARTESIAN_POINT('',(8.60000029802322,23.1001142618927,-14.2904987166075));
#1296=CARTESIAN_POINT('Origin',(8.60000029802322,23.1001142618927,-13.2904987166075));
#1297=CARTESIAN_POINT('',(-9.17499999633638,23.1001142618927,-14.2904987166075));
#1298=CARTESIAN_POINT('Origin',(-12.2499999926728,22.1001142618927,-4.67213001942254));
#1299=CARTESIAN_POINT('',(9.5,22.1001142618927,1.56142235639997));
#1300=CARTESIAN_POINT('',(9.5,22.1001142618927,-2.43857764360003));
#1301=CARTESIAN_POINT('',(12.2500000298023,22.1001142618927,1.56142235639997));
#1302=CARTESIAN_POINT('',(12.2500000298023,22.1001142618927,1.56142235639997));
#1303=CARTESIAN_POINT('',(12.2500000298023,22.1001142618927,-3.43857764360003));
#1304=CARTESIAN_POINT('',(12.2500000298023,22.1001142618927,-6.09333409802245));
#1305=CARTESIAN_POINT('',(11.2500000073272,22.1001142618927,-4.43857764360003));
#1306=CARTESIAN_POINT('',(11.7500000185648,22.1001142618927,-3.93857764360003));
#1307=CARTESIAN_POINT('',(8.60000029802322,22.1001142618927,-4.43857764360003));
#1308=CARTESIAN_POINT('',(-12.2499999926728,22.1001142618927,-4.43857764360003));
#1309=CARTESIAN_POINT('',(8.60000029802322,22.1001142618927,-18.302511595235));
#1310=CARTESIAN_POINT('',(-8.60000029802322,22.1001142618926,-4.43857764360003));
#1311=CARTESIAN_POINT('',(-8.60000029802322,22.1001142618927,-17.9896426651546));
#1312=CARTESIAN_POINT('',(-11.2499999926728,22.1001142618927,-4.43857764360003));
#1313=CARTESIAN_POINT('',(-12.2499999926728,22.1001142618927,-4.43857764360003));
#1314=CARTESIAN_POINT('',(-12.2499999926728,22.1001142618927,-3.43857764360003));
#1315=CARTESIAN_POINT('',(-11.7499999814352,22.1001142618927,-3.93857764360003));
#1316=CARTESIAN_POINT('',(-12.2499999926728,22.1001142618927,1.56142235639997));
#1317=CARTESIAN_POINT('',(-12.2499999926728,22.1001142618927,-2.43857764360003));
#1318=CARTESIAN_POINT('',(-9.50000002247507,22.1001142618927,1.56142235639997));
#1319=CARTESIAN_POINT('',(-12.2499999926728,22.1001142618927,1.56142235639997));
#1320=CARTESIAN_POINT('',(-9.5,22.1001142618927,-2.55535383151129));
#1321=CARTESIAN_POINT('Origin',(-6.1,26.6179177921413,-14.2904987166075));
#1322=CARTESIAN_POINT('',(-8.60000029802322,0.308958619081299,-14.2904987166075));
#1323=CARTESIAN_POINT('',(8.60000029802322,2.28433530027157,-14.2904987166075));
#1324=CARTESIAN_POINT('Origin',(-11.7499999814352,22.1001142618927,1.56142235639997));
#1325=CARTESIAN_POINT('',(-11.2499999926728,16.4432600124003,-0.438577643600031));
#1326=CARTESIAN_POINT('Origin',(-11.2499999926728,22.1001142618927,1.56142235639997));
#1327=CARTESIAN_POINT('',(-12.2499999701977,17.5175385669368,-0.438577643600031));
#1328=CARTESIAN_POINT('Ctrl Pts',(-12.2499999701977,17.5175385669368,-0.438577643600031));
#1329=CARTESIAN_POINT('Ctrl Pts',(-11.8024579081079,17.0292301330566,-0.438577643600031));
#1330=CARTESIAN_POINT('Ctrl Pts',(-11.2499999926728,16.4432600124003,-0.438577643600031));
#1331=CARTESIAN_POINT('Origin',(-12.2499999701977,22.1001142618927,1.56142235639997));
#1332=CARTESIAN_POINT('Origin',(-12.2499999926728,22.1001142618927,1.56142235639997));
#1333=CARTESIAN_POINT('',(-8.60000029802322,20.1001142908434,-4.09543190332804));
#1334=CARTESIAN_POINT('Origin',(-8.60000029802322,22.1001142618927,1.56142235639997));
#1335=CARTESIAN_POINT('',(8.60000029802322,20.1001142908434,-4.09543190332804));
#1336=CARTESIAN_POINT('',(-12.2499999926728,20.1001142908434,-4.09543190332804));
#1337=CARTESIAN_POINT('Origin',(8.60000029802322,22.1001142618927,1.56142235639997));
#1338=CARTESIAN_POINT('',(11.2500000073272,16.4432600124003,-0.438577643600031));
#1339=CARTESIAN_POINT('Origin',(11.2500000073272,22.1001142618927,1.56142235639997));
#1340=CARTESIAN_POINT('',(9.5,16.4432600124003,-0.438577643600031));
#1341=CARTESIAN_POINT('',(-12.2499999926728,16.4432600124003,-0.438577643600031));
#1342=CARTESIAN_POINT('',(-9.5,16.4432600124003,-0.438577643600031));
#1343=CARTESIAN_POINT('',(-12.2499999926728,16.4432600124003,-0.438577643600031));
#1344=CARTESIAN_POINT('',(-12.2499999926728,16.4432600124003,-0.438577643600031));
#1345=CARTESIAN_POINT('Origin',(11.7500000185648,22.1001142618927,1.56142235639997));
#1346=CARTESIAN_POINT('',(12.2500000298023,17.5175385669368,-0.438577643600031));
#1347=CARTESIAN_POINT('Origin',(12.2500000298023,22.1001142618927,1.56142235639997));
#1348=CARTESIAN_POINT('Ctrl Pts',(11.2500000073272,16.4432600124003,-0.438577643600031));
#1349=CARTESIAN_POINT('Ctrl Pts',(11.8024579475953,17.0292301330564,-0.438577643600031));
#1350=CARTESIAN_POINT('Ctrl Pts',(12.2500000298023,17.5175385669368,-0.438577643600031));
#1351=CARTESIAN_POINT('Origin',(12.2500000298023,8.55901604459305,-7.51453817662235));
#1352=CARTESIAN_POINT('',(12.2500000298023,-14.4998857091566,-0.438577643600031));
#1353=CARTESIAN_POINT('',(12.2500000298023,19.1001142908434,-0.438577643600031));
#1354=CARTESIAN_POINT('',(12.2500000298023,-14.4998857091566,1.56142235639997));
#1355=CARTESIAN_POINT('',(12.2500000298023,-14.4998857091566,1.56142235639997));
#1356=CARTESIAN_POINT('',(12.2500000298023,-14.4998857091566,-0.438577643600031));
#1357=CARTESIAN_POINT('Origin',(9.5,3.80011427636802,-1.43857764360003));
#1358=CARTESIAN_POINT('',(9.5,18.1001142618927,1.56142235639997));
#1359=CARTESIAN_POINT('Origin',(-9.5,4.74557746984958,-0.569095222270165));
#1360=CARTESIAN_POINT('',(-9.5,18.1001142618926,1.56142235639997));
#1361=CARTESIAN_POINT('Origin',(-12.2499999701977,8.55901604459305,-7.51453817662235));
#1362=CARTESIAN_POINT('',(-12.2499999701977,-14.4998857091566,-0.438577643600031));
#1363=CARTESIAN_POINT('',(-12.2499999701977,19.1001142908434,-0.438577643600031));
#1364=CARTESIAN_POINT('',(-12.2499999701977,-14.4998857091566,1.56142235639997));
#1365=CARTESIAN_POINT('',(-12.2499999701977,-14.4998857091566,-0.438577643600031));
#1366=CARTESIAN_POINT('',(-12.2499999701977,18.1001142618926,1.56142235639997));
#1367=CARTESIAN_POINT('Origin',(-9.5,16.4432600124003,-0.438577643600031));
#1368=CARTESIAN_POINT('',(9.5,16.4432600124003,1.5614223573269));
#1369=CARTESIAN_POINT('',(9.5,16.4432600124003,-0.438577643600031));
#1370=CARTESIAN_POINT('',(-9.5,16.4432600124003,1.5614223573269));
#1371=CARTESIAN_POINT('',(-12.2499999926728,16.4432600124003,1.5614223573269));
#1372=CARTESIAN_POINT('',(-9.5,16.4432600124003,-0.438577643600031));
#1373=CARTESIAN_POINT('Origin',(-9.5,10.045553113771,-0.438577643600031));
#1374=CARTESIAN_POINT('',(-9.5,-3.04555311377099,1.56142235639997));
#1375=CARTESIAN_POINT('',(-9.5,17.8272845784069,1.56142235639997));
#1376=CARTESIAN_POINT('',(-9.5,-3.04555311377099,-0.438577643600031));
#1377=CARTESIAN_POINT('',(-9.5,-3.04555311377099,-0.438577643600031));
#1378=CARTESIAN_POINT('',(-9.5,15.0728337023072,-0.438577643600031));
#1379=CARTESIAN_POINT('Origin',(0.,25.6090160430427,1.56142235639997));
#1380=CARTESIAN_POINT('',(-12.2499999701977,-14.4998857091566,1.56142235639997));
#1381=CARTESIAN_POINT('',(9.5,-3.04555311377099,1.56142235639997));
#1382=CARTESIAN_POINT('',(9.5,7.78173146463586,1.56142235639997));
#1383=CARTESIAN_POINT('',(-5.,-3.04555311377099,1.56142235639997));
#1384=CARTESIAN_POINT('Origin',(-8.59999997019768,20.1001142908434,-0.438577643600031));
#1385=CARTESIAN_POINT('',(9.5,-3.04555311377099,-0.438577643600031));
#1386=CARTESIAN_POINT('',(-9.29999998509884,-3.04555311377099,-0.438577643600031));
#1387=CARTESIAN_POINT('',(9.5,5.0272805885362,-0.438577643600031));
#1388=CARTESIAN_POINT('',(-8.59999997019768,-14.4998857091566,-0.438577643600031));
#1389=CARTESIAN_POINT('Origin',(9.5,-10.045553113771,-0.438577643600031));
#1390=CARTESIAN_POINT('',(9.5,-3.04555311377099,-0.438577643600031));
#1391=CARTESIAN_POINT('Origin',(-10.,-3.04555311377099,-0.438577643600031));
#1392=CARTESIAN_POINT('Origin',(0.,-14.4998857091566,-13.2589086459927));
#1393=CARTESIAN_POINT('Origin',(-6.1,31.6179177983427,-16.0904986887014));
#1394=CARTESIAN_POINT('',(8.6,31.6179178045441,-18.0904986887014));
#1395=CARTESIAN_POINT('',(8.6,31.617917798485,-16.1363938657605));
#1396=CARTESIAN_POINT('',(-8.6,31.6179178045441,-18.0904986887014));
#1397=CARTESIAN_POINT('',(-6.1,31.6179178045441,-18.0904986887014));
#1398=CARTESIAN_POINT('',(-8.6,31.617917798485,-16.1363938657605));
#1399=CARTESIAN_POINT('Origin',(6.1,20.1001142908434,-15.0904967049057));
#1400=CARTESIAN_POINT('',(-8.6,20.1001142908434,-26.0792396483854));
#1401=CARTESIAN_POINT('',(-8.6,20.1001142908434,-22.5733939977088));
#1402=CARTESIAN_POINT('',(8.6,20.1001142908434,-26.0792396483854));
#1403=CARTESIAN_POINT('',(7.35,20.1001142908434,-26.0792396483854));
#1404=CARTESIAN_POINT('',(8.6,20.1001142908434,-22.5733939977088));
#1405=CARTESIAN_POINT('Origin',(-8.59999997019768,-26.0000005539788,-31.3071553108866));
#1406=CARTESIAN_POINT('',(-8.6,31.1179178060944,-18.5904986902518));
#1407=CARTESIAN_POINT('Origin',(-8.59999997019768,31.1179178045441,-18.0904986902518));
#1408=CARTESIAN_POINT('',(-8.6,23.1002821657787,-18.5904987151119));
#1409=CARTESIAN_POINT('',(-8.6,22.6179178045441,-18.5904987166075));
#1410=CARTESIAN_POINT('',(-8.6,22.1002821688793,-19.5904987151119));
#1411=CARTESIAN_POINT('Origin',(-8.59999997019768,23.1002821688793,-19.5904987151119));
#1412=CARTESIAN_POINT('',(-8.6,22.1002821688793,-29.0126189534292));
#1413=CARTESIAN_POINT('',(-8.6,22.1002821688793,-34.9645782274729));
#1414=CARTESIAN_POINT('',(-8.6,21.0412921005115,-30.7774136464657));
#1415=CARTESIAN_POINT('Origin',(-8.59999997019768,20.1002821688793,-29.0126189534292));
#1416=CARTESIAN_POINT('',(-8.59999997019768,6.31266639356014,-38.6308954844505));
#1417=CARTESIAN_POINT('',(-8.6,16.3192254410365,-33.2952768528365));
#1418=CARTESIAN_POINT('',(-8.59999997019768,-31.0725132001238,-38.6308954844505));
#1419=CARTESIAN_POINT('',(-8.59999997019768,-20.2295687070506,-38.6308954844505));
#1420=CARTESIAN_POINT('',(-8.59999997313127,-34.327060677824,-32.9938538974285));
#1421=CARTESIAN_POINT('',(-8.59999997019768,-32.322221846266,-36.4663354559163));
#1422=CARTESIAN_POINT('',(-8.59999997313127,-33.9933894763789,-29.1799746129859));
#1423=CARTESIAN_POINT('',(-8.59999997313127,-33.1937490340818,-20.0400425341263));
#1424=CARTESIAN_POINT('',(-8.59999997019768,-24.6045998778016,-30.0013872660815));
#1425=CARTESIAN_POINT('',(-8.59999997019768,-29.5968879527975,-29.5646186544637));
#1426=CARTESIAN_POINT('',(-8.59999997019768,-24.7440261962584,-31.5950373784233));
#1427=CARTESIAN_POINT('',(-8.5999999710088,-24.600363070237,-29.9529603340213));
#1428=CARTESIAN_POINT('',(-8.59999997019768,-8.14562845427373,-35.7334830836975));
#1429=CARTESIAN_POINT('',(-8.59999996754411,-23.4366339742492,-31.9210068973123));
#1430=CARTESIAN_POINT('',(-8.6,4.37062131495738,-35.7334833292403));
#1431=CARTESIAN_POINT('',(-8.6,-9.11673951220268,-35.7334830646464));
#1432=CARTESIAN_POINT('',(-8.6,6.25264125669335,-35.2630727153132));
#1433=CARTESIAN_POINT('Origin',(-8.59999997019768,4.37062139342906,-31.7334833292403));
#1434=CARTESIAN_POINT('',(-8.6,18.5116291882916,-28.7264316879401));
#1435=CARTESIAN_POINT('',(-8.6,18.533871746062,-28.7145716864059));
#1436=CARTESIAN_POINT('Origin',(-8.59999997019768,17.1001142908434,-26.0792396483854));
#1437=CARTESIAN_POINT('Origin',(8.59999997019768,-22.0492471915982,-31.9328931710475));
#1438=CARTESIAN_POINT('',(8.6,18.5116291882916,-28.7264316879401));
#1439=CARTESIAN_POINT('Origin',(8.59999997019768,17.1001142908434,-26.0792396483854));
#1440=CARTESIAN_POINT('',(8.6,6.25264125669335,-35.2630727153132));
#1441=CARTESIAN_POINT('',(8.6,18.533871746062,-28.7145716864059));
#1442=CARTESIAN_POINT('',(8.59999997019768,4.37062131495737,-35.7334833292403));
#1443=CARTESIAN_POINT('Origin',(8.59999997019768,4.37062139342906,-31.7334833292403));
#1444=CARTESIAN_POINT('',(8.59999997019768,-8.14562846687367,-35.7334830836975));
#1445=CARTESIAN_POINT('',(8.59999997019768,-18.6438167604382,-35.7334828777449));
#1446=CARTESIAN_POINT('',(8.59999997285125,-24.7440262088583,-31.5950373784233));
#1447=CARTESIAN_POINT('',(8.59999997285125,-21.5034270715662,-32.4030095568656));
#1448=CARTESIAN_POINT('',(8.59999997019768,-24.6045998903058,-30.0013872649875));
#1449=CARTESIAN_POINT('',(8.59999996936658,-24.6276314068208,-30.2646387033651));
#1450=CARTESIAN_POINT('',(8.59999996726409,-33.9933894763789,-29.1799746129859));
#1451=CARTESIAN_POINT('',(8.59999997019768,-27.6290281762617,-29.7367840763192));
#1452=CARTESIAN_POINT('',(8.59999997019768,-34.327060677824,-32.9938538974285));
#1453=CARTESIAN_POINT('',(8.59999996726409,-33.2210173580656,-20.3517209034701));
#1454=CARTESIAN_POINT('',(8.59999997019768,-31.0725132001238,-38.6308954844505));
#1455=CARTESIAN_POINT('',(8.59999997019768,-31.8725686240912,-37.245158841268));
#1456=CARTESIAN_POINT('',(8.59999997019768,6.31266639356014,-38.6308954844505));
#1457=CARTESIAN_POINT('',(8.59999997019768,-18.2541920258603,-38.6308954844505));
#1458=CARTESIAN_POINT('',(8.6,21.0412921005115,-30.7774136464657));
#1459=CARTESIAN_POINT('',(8.6,16.3192254410365,-33.2952768528365));
#1460=CARTESIAN_POINT('',(8.6,22.1002821688793,-29.0126189534292));
#1461=CARTESIAN_POINT('Origin',(8.59999997019768,20.1002821688793,-29.0126189534292));
#1462=CARTESIAN_POINT('',(8.6,22.1002821688793,-19.5904987151119));
#1463=CARTESIAN_POINT('',(8.6,22.1002821688793,-34.9645782274729));
#1464=CARTESIAN_POINT('',(8.6,23.1002821657787,-18.5904987151119));
#1465=CARTESIAN_POINT('Origin',(8.59999997019768,23.1002821688793,-19.5904987151119));
#1466=CARTESIAN_POINT('',(8.6,31.1179178060944,-18.5904986902518));
#1467=CARTESIAN_POINT('',(8.6,22.6179178045441,-18.5904987166075));
#1468=CARTESIAN_POINT('Origin',(8.59999997019768,31.1179178045441,-18.0904986902518));
#1469=CARTESIAN_POINT('Origin',(8.59999997610821,-24.4895877656311,-28.6867926645039));
#1470=CARTESIAN_POINT('',(8.28749998124658,-24.7440262086294,-31.5950373784233));
#1471=CARTESIAN_POINT('',(2.85448868697245E-9,-24.6045998840537,-30.0013872655345));
#1472=CARTESIAN_POINT('Origin',(7.97499998940356,-20.8778094410185,-32.5589935641556));
#1473=CARTESIAN_POINT('',(7.66250000185818,-8.1456284661869,-35.7334830836975));
#1474=CARTESIAN_POINT('Origin',(7.35,-14.9516362945464,-35.7334829501778));
#1475=CARTESIAN_POINT('',(7.975,4.37062131495738,-35.7334833292403));
#1476=CARTESIAN_POINT('Origin',(7.35,17.1001142908434,-26.0792396483854));
#1477=CARTESIAN_POINT('',(7.35,18.5116291882916,-28.72643168794));
#1478=CARTESIAN_POINT('Origin',(8.6,15.435783689084,-30.3665098082682));
#1479=CARTESIAN_POINT('',(7.975,6.25264125669335,-35.2630727153132));
#1480=CARTESIAN_POINT('Origin',(7.975,4.37062139342906,-31.7334833292403));
#1481=CARTESIAN_POINT('Origin',(8.6,15.724051979018,-33.6126305603319));
#1482=CARTESIAN_POINT('',(7.35,21.0412921005115,-30.7774136464657));
#1483=CARTESIAN_POINT('',(6.45,6.31266639356014,-38.6308954844505));
#1484=CARTESIAN_POINT('Origin',(7.35,20.1002821688793,-29.0126189534292));
#1485=CARTESIAN_POINT('',(7.35,22.1002821688793,-29.0126189534292));
#1486=CARTESIAN_POINT('Origin',(4.3,-14.4591368601224,-38.6308954844505));
#1487=CARTESIAN_POINT('',(-2.80000000037032,-29.2485528944152,-38.6308954844505));
#1488=CARTESIAN_POINT('',(-2.80000000037032,-31.0725132001238,-38.6308954844505));
#1489=CARTESIAN_POINT('',(-2.80000000037032,-25.1654067750342,-38.6308954844505));
#1490=CARTESIAN_POINT('',(3.225,-31.0725132001238,-38.6308954844505));
#1491=CARTESIAN_POINT('',(2.79999999962968,-31.0725132001238,-38.6308954844505));
#1492=CARTESIAN_POINT('',(3.225,-31.0725132001238,-38.6308954844505));
#1493=CARTESIAN_POINT('',(2.79999999962968,-29.2485528944152,-38.6308954844505));
#1494=CARTESIAN_POINT('',(2.79999999962968,-21.4049310301054,-38.6308954844505));
#1495=CARTESIAN_POINT('Origin',(-3.70315809339685E-10,-29.2485528944152,
-38.6308954844505));
#1496=CARTESIAN_POINT('Origin',(2.15,-31.9226761597054,-37.1583700437421));
#1497=CARTESIAN_POINT('',(2.79999999669609,-34.327060677824,-32.9938538974285));
#1498=CARTESIAN_POINT('',(1.0749999985332,-34.327060677824,-32.9938538974285));
#1499=CARTESIAN_POINT('',(2.79999999962968,-33.1744184334657,-34.9902888276074));
#1500=CARTESIAN_POINT('Origin',(-8.59999997636863,-32.7533293854678,-29.2884658120215));
#1501=CARTESIAN_POINT('',(-4.2999999911179,-33.9933894763789,-29.1799746129859));
#1502=CARTESIAN_POINT('',(-6.39579756712094E-8,-26.8140272429399,-29.808087418748));
#1503=CARTESIAN_POINT('Origin',(-3.70315809339685E-10,-28.4640276656603,
-29.6637310869469));
#1504=CARTESIAN_POINT('Origin',(-3.70315809339685E-10,-28.3507252000884,
-28.3686779794277));
#1505=CARTESIAN_POINT('',(2.79999999962969,-28.7865039138267,-33.3496514698864));
#1506=CARTESIAN_POINT('',(-2.80000000037032,-28.7865039138267,-33.3496514698864));
#1507=CARTESIAN_POINT('Origin',(-3.70315809339685E-10,-28.7865039138267,
-33.3496514698864));
#1508=CARTESIAN_POINT('',(-2.80000000037032,-28.3507252000884,-28.3686779794277));
#1509=CARTESIAN_POINT('',(2.79999999962968,-28.3507252000884,-28.3686779794277));
#1510=CARTESIAN_POINT('Origin',(2.79999999962968,-28.3507252000884,-28.3686779794277));
#1511=CARTESIAN_POINT('',(2.79999999669609,-34.3158657245453,-32.8658949959253));
#1512=CARTESIAN_POINT('',(2.79999999669609,-33.0497174428271,-18.3937539128346));
#1513=CARTESIAN_POINT('',(2.79999999962968,-21.487409123334,-33.9882395180556));
#1514=CARTESIAN_POINT('Ctrl Pts',(-6.39579758732762E-8,-26.8140272429399,
-29.808087418748));
#1515=CARTESIAN_POINT('Ctrl Pts',(1.64999993604203,-26.8140271798353,-29.8080874242689));
#1516=CARTESIAN_POINT('Ctrl Pts',(1.64999999962969,-28.4640276025557,-29.6637310924679));
#1517=CARTESIAN_POINT('Ctrl Pts',(1.65000006321735,-30.1140280252762,-29.5193747606668));
#1518=CARTESIAN_POINT('Ctrl Pts',(6.32173442545968E-8,-30.1140280883808,
-29.5193747551459));
#1519=CARTESIAN_POINT('Ctrl Pts',(-1.64999993678266,-30.1140281514854,-29.519374749625));
#1520=CARTESIAN_POINT('Ctrl Pts',(-1.65000000037032,-28.464027728765,-29.663731081426));
#1521=CARTESIAN_POINT('Ctrl Pts',(-1.65000006395798,-26.8140273060445,-29.808087413227));
#1522=CARTESIAN_POINT('Ctrl Pts',(-6.39579758732762E-8,-26.8140272429399,
-29.808087418748));
#1523=CARTESIAN_POINT('Ctrl Pts',(-6.39579758732762E-8,-27.1365034911062,
-33.4940078016874));
#1524=CARTESIAN_POINT('Ctrl Pts',(1.64999993604203,-27.1365034280016,-33.4940078072084));
#1525=CARTESIAN_POINT('Ctrl Pts',(1.64999999962969,-28.7865038507221,-33.3496514754073));
#1526=CARTESIAN_POINT('Ctrl Pts',(1.65000006321735,-30.4365042734425,-33.2052951436063));
#1527=CARTESIAN_POINT('Ctrl Pts',(6.32173442545968E-8,-30.4365043365471,
-33.2052951380854));
#1528=CARTESIAN_POINT('Ctrl Pts',(-1.64999993678266,-30.4365043996517,-33.2052951325644));
#1529=CARTESIAN_POINT('Ctrl Pts',(-1.65000000037032,-28.7865039769313,-33.3496514643655));
#1530=CARTESIAN_POINT('Ctrl Pts',(-1.65000006395798,-27.1365035542109,-33.4940077961665));
#1531=CARTESIAN_POINT('Ctrl Pts',(-6.39579758732762E-8,-27.1365034911062,
-33.4940078016874));
#1532=CARTESIAN_POINT('',(-6.39579755823405E-8,-27.1365034911063,-33.4940078016874));
#1533=CARTESIAN_POINT('Origin',(-3.70315809339685E-10,-28.7865039138267,
-33.3496514698864));
#1534=CARTESIAN_POINT('',(-6.39579756712094E-8,-26.700724777368,-28.5130343112287));
#1535=CARTESIAN_POINT('Origin',(1.49999920150918,-14.1883143328413,-34.6268275662249));
#1536=CARTESIAN_POINT('',(-2.80000000330391,-34.3158657245453,-32.8658949959253));
#1537=CARTESIAN_POINT('',(0.749999597820998,-34.3158657245453,-32.8658949959253));
#1538=CARTESIAN_POINT('',(-2.80000000037032,-25.2478848682628,-33.6592405209102));
#1539=CARTESIAN_POINT('Origin',(2.15,-31.9226761597054,-37.1583700437421));
#1540=CARTESIAN_POINT('',(-2.80000000330391,-34.327060677824,-32.9938538974285));
#1541=CARTESIAN_POINT('',(-2.80000000037032,-34.2569981143717,-33.1152058170365));
#1542=CARTESIAN_POINT('',(1.0749999985332,-34.327060677824,-32.9938538974285));
#1543=CARTESIAN_POINT('Origin',(-2.80000000037032,-35.871676689946,-27.7106799851367));
#1544=CARTESIAN_POINT('',(-2.80000000330391,-33.0497174428271,-18.3937539128346));
#1545=CARTESIAN_POINT('Origin',(-2.93359114778016E-9,-32.2193478748471,
-8.90258632020265));
#1546=CARTESIAN_POINT('Origin',(6.1,22.1002821688793,-17.0904987170901));
#1547=CARTESIAN_POINT('',(0.,22.1002821688793,-19.5904987151119));
#1548=CARTESIAN_POINT('Origin',(-6.1,31.1179178045441,-18.0904986902518));
#1549=CARTESIAN_POINT('',(-6.1,31.1179178060944,-18.5904986902518));
#1550=CARTESIAN_POINT('Origin',(-6.1,22.4622821750807,-18.5904987170901));
#1551=CARTESIAN_POINT('',(0.,23.1002821657787,-18.5904987151119));
#1552=CARTESIAN_POINT('Origin',(0.,23.1002821688793,-19.5904987151119));
#1553=UNCERTAINTY_MEASURE_WITH_UNIT(LENGTH_MEASURE(0.01),#1557,
'DISTANCE_ACCURACY_VALUE',
'Maximum model space distance between geometric entities at asserted c
onnectivities');
#1554=UNCERTAINTY_MEASURE_WITH_UNIT(LENGTH_MEASURE(0.01),#1557,
'DISTANCE_ACCURACY_VALUE',
'Maximum model space distance between geometric entities at asserted c
onnectivities');
#1555=(
GEOMETRIC_REPRESENTATION_CONTEXT(3)
GLOBAL_UNCERTAINTY_ASSIGNED_CONTEXT((#1553))
GLOBAL_UNIT_ASSIGNED_CONTEXT((#1557,#1559,#1560))
REPRESENTATION_CONTEXT('','3D')
);
#1556=(
GEOMETRIC_REPRESENTATION_CONTEXT(3)
GLOBAL_UNCERTAINTY_ASSIGNED_CONTEXT((#1554))
GLOBAL_UNIT_ASSIGNED_CONTEXT((#1557,#1559,#1560))
REPRESENTATION_CONTEXT('','3D')
);
#1557=(
LENGTH_UNIT()
NAMED_UNIT(*)
SI_UNIT(.MILLI.,.METRE.)
);
#1558=(
LENGTH_UNIT()
NAMED_UNIT(*)
SI_UNIT($,.METRE.)
);
#1559=(
NAMED_UNIT(*)
PLANE_ANGLE_UNIT()
SI_UNIT($,.RADIAN.)
);
#1560=(
NAMED_UNIT(*)
SI_UNIT($,.STERADIAN.)
SOLID_ANGLE_UNIT()
);
#1561=SHAPE_DEFINITION_REPRESENTATION(#1562,#1563);
#1562=PRODUCT_DEFINITION_SHAPE('',$,#1565);
#1563=SHAPE_REPRESENTATION('',(#943),#1555);
#1564=PRODUCT_DEFINITION_CONTEXT('part definition',#1569,'design');
#1565=PRODUCT_DEFINITION('31B. Sensor Guard','31B. Sensor Guard',#1566,
#1564);
#1566=PRODUCT_DEFINITION_FORMATION('',$,#1571);
#1567=PRODUCT_RELATED_PRODUCT_CATEGORY('31B. Sensor Guard',
'31B. Sensor Guard',(#1571));
#1568=APPLICATION_PROTOCOL_DEFINITION('international standard',
'automotive_design',2009,#1569);
#1569=APPLICATION_CONTEXT(
'Core Data for Automotive Mechanical Design Process');
#1570=PRODUCT_CONTEXT('part definition',#1569,'mechanical');
#1571=PRODUCT('31B. Sensor Guard','31B. Sensor Guard',$,(#1570));
#1572=PRESENTATION_STYLE_ASSIGNMENT((#1574));
#1573=PRESENTATION_STYLE_ASSIGNMENT((#1575));
#1574=SURFACE_STYLE_USAGE(.BOTH.,#1576);
#1575=SURFACE_STYLE_USAGE(.BOTH.,#1577);
#1576=SURFACE_SIDE_STYLE('',(#1578));
#1577=SURFACE_SIDE_STYLE('',(#1579));
#1578=SURFACE_STYLE_FILL_AREA(#1580);
#1579=SURFACE_STYLE_FILL_AREA(#1581);
#1580=FILL_AREA_STYLE('Steel - Satin',(#1582));
#1581=FILL_AREA_STYLE('Plastic - Matte (Black) (1)',(#1583));
#1582=FILL_AREA_STYLE_COLOUR('Steel - Satin',#1584);
#1583=FILL_AREA_STYLE_COLOUR('Plastic - Matte (Black) (1)',#1585);
#1584=COLOUR_RGB('Steel - Satin',0.627450980392157,0.627450980392157,0.627450980392157);
#1585=COLOUR_RGB('Plastic - Matte (Black) (1)',0.0980392156862745,0.0980392156862745,
0.0980392156862745);
ENDSEC;
END-ISO-10303-21;
