ISO-10303-21;
HEADER;
/* Generated by software containing ST-Developer
 * from STEP Tools, Inc. (www.steptools.com) 
 */

FILE_DESCRIPTION(
/* description */ (''),
/* implementation_level */ '2;1');

FILE_NAME(
/* name */ '34. Magwell Feed Lip.step',
/* time_stamp */ '2025-10-08T23:26:21+01:00',
/* author */ (''),
/* organization */ (''),
/* preprocessor_version */ 'ST-DEVELOPER v20.1',
/* originating_system */ 'Autodesk Translation Framework v14.10.0.0',
/* authorisation */ '');

FILE_SCHEMA (('AUTOMOTIVE_DESIGN { 1 0 10303 214 3 1 1 }'));
ENDSEC;

DATA;
#10=MECHANICAL_DESIGN_GEOMETRIC_PRESENTATION_REPRESENTATION('',(#13),#1102);
#11=SHAPE_REPRESENTATION_RELATIONSHIP('SRR','None',#1109,#12);
#12=ADVANCED_BREP_SHAPE_REPRESENTATION('',(#14),#1101);
#13=STYLED_ITEM('',(#1119),#14);
#14=MANIFOLD_SOLID_BREP('34. Magwell Feed Lip',#550);
#15=B_SPLINE_SURFACE_WITH_KNOTS('',3,3,((#829,#830,#831,#832,#833),(#834,
#835,#836,#837,#838),(#839,#840,#841,#842,#843),(#844,#845,#846,#847,#848)),
 .UNSPECIFIED.,.F.,.F.,.F.,(4,4),(4,1,4),(0.,0.148761543394987),(0.,0.103038173644937,
0.24042240517152),.UNSPECIFIED.);
#16=B_SPLINE_SURFACE_WITH_KNOTS('',3,3,((#881,#882,#883,#884),(#885,#886,
#887,#888),(#889,#890,#891,#892),(#893,#894,#895,#896)),.UNSPECIFIED.,.F.,
 .F.,.F.,(4,4),(4,4),(0.,0.148761543394987),(0.,0.170121757400407),
 .UNSPECIFIED.);
#17=B_SPLINE_SURFACE_WITH_KNOTS('',3,3,((#909,#910,#911,#912),(#913,#914,
#915,#916),(#917,#918,#919,#920),(#921,#922,#923,#924),(#925,#926,#927,
#928)),.UNSPECIFIED.,.F.,.F.,.F.,(4,1,4),(4,4),(-1.5707963267949,-0.673198425769244,
-4.16386053976517E-31),(0.,0.15766267771855),.UNSPECIFIED.);
#18=B_SPLINE_SURFACE_WITH_KNOTS('',3,3,((#946,#947,#948,#949),(#950,#951,
#952,#953),(#954,#955,#956,#957),(#958,#959,#960,#961)),.UNSPECIFIED.,.F.,
 .F.,.F.,(4,4),(4,4),(0.,0.148761543394986),(0.,0.170121756891515),
 .UNSPECIFIED.);
#19=B_SPLINE_SURFACE_WITH_KNOTS('',3,3,((#982,#983,#984,#985,#986),(#987,
#988,#989,#990,#991),(#992,#993,#994,#995,#996),(#997,#998,#999,#1000,#1001)),
 .UNSPECIFIED.,.F.,.F.,.F.,(4,4),(4,1,4),(0.,0.148761543394987),(0.,0.103038173232533,
0.240422404209243),.UNSPECIFIED.);
#20=B_SPLINE_SURFACE_WITH_KNOTS('',3,3,((#1021,#1022,#1023,#1024,#1025),
(#1026,#1027,#1028,#1029,#1030),(#1031,#1032,#1033,#1034,#1035),(#1036,
#1037,#1038,#1039,#1040),(#1041,#1042,#1043,#1044,#1045)),.UNSPECIFIED.,
 .F.,.F.,.F.,(4,1,4),(4,1,4),(-1.5707963267949,-0.897597901025659,-6.56936700961639E-17),
(0.,0.156474183954757,0.273829821920825),.UNSPECIFIED.);
#21=ELLIPSE('',#580,8.36214923515621,4.75000000001542);
#22=ELLIPSE('',#581,26.3464925956461,4.75000000021869);
#23=ELLIPSE('',#582,8.36214923515621,4.75000000001542);
#24=FACE_BOUND('',#100,.T.);
#25=FACE_BOUND('',#122,.T.);
#26=CONICAL_SURFACE('',#574,4.4,0.785398163397451);
#27=CIRCLE('',#571,3.25);
#28=CIRCLE('',#573,3.25);
#29=CIRCLE('',#575,4.75);
#30=CIRCLE('',#576,4.05);
#31=CIRCLE('',#579,4.75);
#32=CIRCLE('',#583,4.75);
#33=CIRCLE('',#584,4.75);
#34=CYLINDRICAL_SURFACE('',#570,3.25);
#35=CYLINDRICAL_SURFACE('',#572,3.25);
#36=CYLINDRICAL_SURFACE('',#578,4.75);
#37=B_SPLINE_CURVE_WITH_KNOTS('',3,(#731,#732,#733,#734),.UNSPECIFIED.,
 .F.,.F.,(4,4),(0.,0.148761543394987),.UNSPECIFIED.);
#38=B_SPLINE_CURVE_WITH_KNOTS('',3,(#741,#742,#743,#744),.UNSPECIFIED.,
 .F.,.F.,(4,4),(0.,0.148761543394987),.UNSPECIFIED.);
#39=B_SPLINE_CURVE_WITH_KNOTS('',3,(#758,#759,#760,#761),.UNSPECIFIED.,
 .F.,.F.,(4,4),(0.,0.148761543394986),.UNSPECIFIED.);
#40=B_SPLINE_CURVE_WITH_KNOTS('',3,(#768,#769,#770,#771),.UNSPECIFIED.,
 .F.,.F.,(4,4),(0.,0.148761543394987),.UNSPECIFIED.);
#41=B_SPLINE_CURVE_WITH_KNOTS('',3,(#775,#776,#777,#778),.UNSPECIFIED.,
 .F.,.F.,(4,4),(-1.5707963267949,-0.775829845849068),.UNSPECIFIED.);
#42=B_SPLINE_CURVE_WITH_KNOTS('',3,(#779,#780,#781,#782,#783),
 .UNSPECIFIED.,.F.,.F.,(4,1,4),(-0.775829845849068,-0.673198425769244,-4.16386053976517E-31),
 .UNSPECIFIED.);
#43=B_SPLINE_CURVE_WITH_KNOTS('',3,(#786,#787,#788,#789,#790),
 .UNSPECIFIED.,.F.,.F.,(4,1,4),(-1.5707963267949,-0.897597901025659,-0.775724378344267),
 .UNSPECIFIED.);
#44=B_SPLINE_CURVE_WITH_KNOTS('',3,(#791,#792,#793,#794),.UNSPECIFIED.,
 .F.,.F.,(4,4),(-0.775724378344267,-6.56936700961639E-17),.UNSPECIFIED.);
#45=B_SPLINE_CURVE_WITH_KNOTS('',3,(#851,#852,#853,#854,#855,#856,#857,
#858,#859,#860,#861,#862,#863),.UNSPECIFIED.,.F.,.F.,(4,3,3,3,4),(0.,0.051782260329256,
0.0806189046064439,0.141992386238381,0.160540360036738),.UNSPECIFIED.);
#46=B_SPLINE_CURVE_WITH_KNOTS('',3,(#864,#865,#866,#867,#868),
 .UNSPECIFIED.,.F.,.F.,(4,1,4),(0.,0.103038173644937,0.24042240517152),
 .UNSPECIFIED.);
#47=B_SPLINE_CURVE_WITH_KNOTS('',3,(#869,#870,#871,#872,#873),
 .UNSPECIFIED.,.F.,.F.,(4,1,4),(0.,0.103038173644937,0.212902480287881),
 .UNSPECIFIED.);
#48=B_SPLINE_CURVE_WITH_KNOTS('',3,(#877,#878,#879,#880),.UNSPECIFIED.,
 .F.,.F.,(4,4),(0.,0.170121757400407),.UNSPECIFIED.);
#49=B_SPLINE_CURVE_WITH_KNOTS('',3,(#898,#899,#900,#901,#902,#903,#904),
 .UNSPECIFIED.,.F.,.F.,(4,3,4),(0.,0.0771914056374843,0.154169367863396),
 .UNSPECIFIED.);
#50=B_SPLINE_CURVE_WITH_KNOTS('',3,(#905,#906,#907,#908),.UNSPECIFIED.,
 .F.,.F.,(4,4),(0.,0.15766267771855),.UNSPECIFIED.);
#51=B_SPLINE_CURVE_WITH_KNOTS('',3,(#930,#931,#932,#933,#934,#935,#936,
#937,#938,#939,#940,#941),.UNSPECIFIED.,.F.,.F.,(4,2,2,2,2,4),(0.,0.12857383079198,
0.250842588872953,0.371428751088062,0.444562403508493,0.518631625877472),
 .UNSPECIFIED.);
#52=B_SPLINE_CURVE_WITH_KNOTS('',3,(#942,#943,#944,#945),.UNSPECIFIED.,
 .F.,.F.,(4,4),(0.,0.157656480314661),.UNSPECIFIED.);
#53=B_SPLINE_CURVE_WITH_KNOTS('',3,(#963,#964,#965,#966,#967,#968,#969),
 .UNSPECIFIED.,.F.,.F.,(4,3,4),(0.,0.0769480312523384,0.154157785203023),
 .UNSPECIFIED.);
#54=B_SPLINE_CURVE_WITH_KNOTS('',3,(#970,#971,#972,#973),.UNSPECIFIED.,
 .F.,.F.,(4,4),(0.,0.170121756891515),.UNSPECIFIED.);
#55=B_SPLINE_CURVE_WITH_KNOTS('',3,(#977,#978,#979,#980,#981),
 .UNSPECIFIED.,.F.,.F.,(4,1,4),(0.,0.103038173232533,0.212902479295721),
 .UNSPECIFIED.);
#56=B_SPLINE_CURVE_WITH_KNOTS('',3,(#1003,#1004,#1005,#1006,#1007,#1008,
#1009,#1010,#1011,#1012,#1013,#1014,#1015),.UNSPECIFIED.,.F.,.F.,(4,3,3,
3,4),(0.,0.0613609151721467,0.0797675398708942,0.131535468306227,0.160479942821093),
 .UNSPECIFIED.);
#57=B_SPLINE_CURVE_WITH_KNOTS('',3,(#1016,#1017,#1018,#1019,#1020),
 .UNSPECIFIED.,.F.,.F.,(4,1,4),(0.,0.156474183954757,0.240388944427841),
 .UNSPECIFIED.);
#58=B_SPLINE_CURVE_WITH_KNOTS('',3,(#1046,#1047,#1048,#1049,#1050,#1051,
#1052,#1053,#1054,#1055,#1056,#1057),.UNSPECIFIED.,.F.,.F.,(4,2,2,2,2,4),
(0.,0.134286996018741,0.245675075128508,0.349929935767323,0.439835264028179,
0.532739022312753),.UNSPECIFIED.);
#59=FACE_OUTER_BOUND('',#90,.T.);
#60=FACE_OUTER_BOUND('',#91,.T.);
#61=FACE_OUTER_BOUND('',#92,.T.);
#62=FACE_OUTER_BOUND('',#93,.T.);
#63=FACE_OUTER_BOUND('',#94,.T.);
#64=FACE_OUTER_BOUND('',#95,.T.);
#65=FACE_OUTER_BOUND('',#96,.T.);
#66=FACE_OUTER_BOUND('',#97,.T.);
#67=FACE_OUTER_BOUND('',#98,.T.);
#68=FACE_OUTER_BOUND('',#99,.T.);
#69=FACE_OUTER_BOUND('',#101,.T.);
#70=FACE_OUTER_BOUND('',#102,.T.);
#71=FACE_OUTER_BOUND('',#103,.T.);
#72=FACE_OUTER_BOUND('',#104,.T.);
#73=FACE_OUTER_BOUND('',#105,.T.);
#74=FACE_OUTER_BOUND('',#106,.T.);
#75=FACE_OUTER_BOUND('',#107,.T.);
#76=FACE_OUTER_BOUND('',#108,.T.);
#77=FACE_OUTER_BOUND('',#109,.T.);
#78=FACE_OUTER_BOUND('',#110,.T.);
#79=FACE_OUTER_BOUND('',#111,.T.);
#80=FACE_OUTER_BOUND('',#112,.T.);
#81=FACE_OUTER_BOUND('',#113,.T.);
#82=FACE_OUTER_BOUND('',#114,.T.);
#83=FACE_OUTER_BOUND('',#115,.T.);
#84=FACE_OUTER_BOUND('',#116,.T.);
#85=FACE_OUTER_BOUND('',#117,.T.);
#86=FACE_OUTER_BOUND('',#118,.T.);
#87=FACE_OUTER_BOUND('',#119,.T.);
#88=FACE_OUTER_BOUND('',#120,.T.);
#89=FACE_OUTER_BOUND('',#121,.T.);
#90=EDGE_LOOP('',(#342,#343,#344,#345));
#91=EDGE_LOOP('',(#346,#347,#348,#349));
#92=EDGE_LOOP('',(#350,#351,#352,#353));
#93=EDGE_LOOP('',(#354,#355,#356,#357));
#94=EDGE_LOOP('',(#358,#359,#360,#361));
#95=EDGE_LOOP('',(#362,#363,#364,#365));
#96=EDGE_LOOP('',(#366,#367,#368,#369,#370));
#97=EDGE_LOOP('',(#371,#372,#373,#374,#375));
#98=EDGE_LOOP('',(#376,#377,#378,#379));
#99=EDGE_LOOP('',(#380));
#100=EDGE_LOOP('',(#381,#382,#383,#384,#385,#386,#387,#388));
#101=EDGE_LOOP('',(#389,#390,#391,#392,#393,#394,#395,#396,#397));
#102=EDGE_LOOP('',(#398,#399,#400));
#103=EDGE_LOOP('',(#401,#402));
#104=EDGE_LOOP('',(#403,#404,#405,#406,#407,#408,#409,#410));
#105=EDGE_LOOP('',(#411,#412,#413,#414));
#106=EDGE_LOOP('',(#415,#416,#417,#418));
#107=EDGE_LOOP('',(#419,#420,#421,#422));
#108=EDGE_LOOP('',(#423,#424,#425,#426,#427));
#109=EDGE_LOOP('',(#428,#429,#430,#431));
#110=EDGE_LOOP('',(#432,#433,#434,#435));
#111=EDGE_LOOP('',(#436,#437,#438,#439));
#112=EDGE_LOOP('',(#440,#441,#442,#443,#444));
#113=EDGE_LOOP('',(#445,#446,#447,#448));
#114=EDGE_LOOP('',(#449,#450,#451,#452));
#115=EDGE_LOOP('',(#453,#454,#455,#456,#457,#458,#459,#460));
#116=EDGE_LOOP('',(#461,#462,#463,#464));
#117=EDGE_LOOP('',(#465,#466,#467,#468));
#118=EDGE_LOOP('',(#469,#470,#471,#472));
#119=EDGE_LOOP('',(#473,#474,#475,#476,#477,#478,#479,#480,#481));
#120=EDGE_LOOP('',(#482,#483,#484,#485));
#121=EDGE_LOOP('',(#486,#487,#488,#489));
#122=EDGE_LOOP('',(#490,#491,#492,#493,#494,#495,#496,#497));
#123=LINE('',#721,#169);
#124=LINE('',#723,#170);
#125=LINE('',#725,#171);
#126=LINE('',#726,#172);
#127=LINE('',#729,#173);
#128=LINE('',#735,#174);
#129=LINE('',#738,#175);
#130=LINE('',#740,#176);
#131=LINE('',#748,#177);
#132=LINE('',#750,#178);
#133=LINE('',#752,#179);
#134=LINE('',#753,#180);
#135=LINE('',#756,#181);
#136=LINE('',#762,#182);
#137=LINE('',#765,#183);
#138=LINE('',#767,#184);
#139=LINE('',#800,#185);
#140=LINE('',#805,#186);
#141=LINE('',#817,#187);
#142=LINE('',#821,#188);
#143=LINE('',#823,#189);
#144=LINE('',#825,#190);
#145=LINE('',#827,#191);
#146=LINE('',#828,#192);
#147=LINE('',#876,#193);
#148=LINE('',#976,#194);
#149=LINE('',#1061,#195);
#150=LINE('',#1063,#196);
#151=LINE('',#1065,#197);
#152=LINE('',#1066,#198);
#153=LINE('',#1068,#199);
#154=LINE('',#1069,#200);
#155=LINE('',#1072,#201);
#156=LINE('',#1074,#202);
#157=LINE('',#1076,#203);
#158=LINE('',#1078,#204);
#159=LINE('',#1079,#205);
#160=LINE('',#1082,#206);
#161=LINE('',#1084,#207);
#162=LINE('',#1085,#208);
#163=LINE('',#1087,#209);
#164=LINE('',#1090,#210);
#165=LINE('',#1091,#211);
#166=LINE('',#1094,#212);
#167=LINE('',#1095,#213);
#168=LINE('',#1097,#214);
#169=VECTOR('',#603,10.);
#170=VECTOR('',#604,10.);
#171=VECTOR('',#605,10.);
#172=VECTOR('',#606,10.);
#173=VECTOR('',#609,10.);
#174=VECTOR('',#610,10.);
#175=VECTOR('',#613,10.);
#176=VECTOR('',#614,10.);
#177=VECTOR('',#617,10.);
#178=VECTOR('',#618,10.);
#179=VECTOR('',#619,10.);
#180=VECTOR('',#620,10.);
#181=VECTOR('',#623,10.);
#182=VECTOR('',#624,10.);
#183=VECTOR('',#627,10.);
#184=VECTOR('',#628,10.);
#185=VECTOR('',#641,4.4);
#186=VECTOR('',#648,4.75);
#187=VECTOR('',#663,10.);
#188=VECTOR('',#668,10.);
#189=VECTOR('',#669,10.);
#190=VECTOR('',#670,10.);
#191=VECTOR('',#671,10.);
#192=VECTOR('',#672,10.);
#193=VECTOR('',#675,10.);
#194=VECTOR('',#678,10.);
#195=VECTOR('',#681,10.);
#196=VECTOR('',#682,10.);
#197=VECTOR('',#683,10.);
#198=VECTOR('',#684,10.);
#199=VECTOR('',#687,10.);
#200=VECTOR('',#688,10.);
#201=VECTOR('',#691,10.);
#202=VECTOR('',#692,10.);
#203=VECTOR('',#693,10.);
#204=VECTOR('',#694,10.);
#205=VECTOR('',#695,10.);
#206=VECTOR('',#698,10.);
#207=VECTOR('',#699,10.);
#208=VECTOR('',#700,10.);
#209=VECTOR('',#703,10.);
#210=VECTOR('',#706,10.);
#211=VECTOR('',#707,10.);
#212=VECTOR('',#710,10.);
#213=VECTOR('',#711,10.);
#214=VECTOR('',#714,10.);
#215=VERTEX_POINT('',#719);
#216=VERTEX_POINT('',#720);
#217=VERTEX_POINT('',#722);
#218=VERTEX_POINT('',#724);
#219=VERTEX_POINT('',#728);
#220=VERTEX_POINT('',#730);
#221=VERTEX_POINT('',#737);
#222=VERTEX_POINT('',#739);
#223=VERTEX_POINT('',#746);
#224=VERTEX_POINT('',#747);
#225=VERTEX_POINT('',#749);
#226=VERTEX_POINT('',#751);
#227=VERTEX_POINT('',#755);
#228=VERTEX_POINT('',#757);
#229=VERTEX_POINT('',#764);
#230=VERTEX_POINT('',#766);
#231=VERTEX_POINT('',#774);
#232=VERTEX_POINT('',#785);
#233=VERTEX_POINT('',#797);
#234=VERTEX_POINT('',#799);
#235=VERTEX_POINT('',#804);
#236=VERTEX_POINT('',#806);
#237=VERTEX_POINT('',#808);
#238=VERTEX_POINT('',#810);
#239=VERTEX_POINT('',#813);
#240=VERTEX_POINT('',#820);
#241=VERTEX_POINT('',#822);
#242=VERTEX_POINT('',#824);
#243=VERTEX_POINT('',#826);
#244=VERTEX_POINT('',#849);
#245=VERTEX_POINT('',#850);
#246=VERTEX_POINT('',#875);
#247=VERTEX_POINT('',#897);
#248=VERTEX_POINT('',#929);
#249=VERTEX_POINT('',#962);
#250=VERTEX_POINT('',#975);
#251=VERTEX_POINT('',#1002);
#252=VERTEX_POINT('',#1059);
#253=VERTEX_POINT('',#1060);
#254=VERTEX_POINT('',#1062);
#255=VERTEX_POINT('',#1064);
#256=VERTEX_POINT('',#1071);
#257=VERTEX_POINT('',#1073);
#258=VERTEX_POINT('',#1075);
#259=VERTEX_POINT('',#1077);
#260=VERTEX_POINT('',#1081);
#261=VERTEX_POINT('',#1083);
#262=VERTEX_POINT('',#1089);
#263=VERTEX_POINT('',#1093);
#264=EDGE_CURVE('',#215,#216,#123,.T.);
#265=EDGE_CURVE('',#217,#215,#124,.T.);
#266=EDGE_CURVE('',#217,#218,#125,.T.);
#267=EDGE_CURVE('',#218,#216,#126,.T.);
#268=EDGE_CURVE('',#216,#219,#127,.T.);
#269=EDGE_CURVE('',#218,#220,#37,.T.);
#270=EDGE_CURVE('',#219,#220,#128,.T.);
#271=EDGE_CURVE('',#221,#215,#129,.T.);
#272=EDGE_CURVE('',#222,#221,#130,.T.);
#273=EDGE_CURVE('',#222,#217,#38,.T.);
#274=EDGE_CURVE('',#223,#224,#131,.T.);
#275=EDGE_CURVE('',#225,#223,#132,.T.);
#276=EDGE_CURVE('',#225,#226,#133,.T.);
#277=EDGE_CURVE('',#226,#224,#134,.T.);
#278=EDGE_CURVE('',#224,#227,#135,.T.);
#279=EDGE_CURVE('',#226,#228,#39,.T.);
#280=EDGE_CURVE('',#227,#228,#136,.T.);
#281=EDGE_CURVE('',#229,#223,#137,.T.);
#282=EDGE_CURVE('',#230,#229,#138,.T.);
#283=EDGE_CURVE('',#230,#225,#40,.T.);
#284=EDGE_CURVE('',#227,#221,#27,.T.);
#285=EDGE_CURVE('',#228,#231,#41,.T.);
#286=EDGE_CURVE('',#231,#222,#42,.T.);
#287=EDGE_CURVE('',#220,#232,#43,.T.);
#288=EDGE_CURVE('',#232,#230,#44,.T.);
#289=EDGE_CURVE('',#219,#229,#28,.T.);
#290=EDGE_CURVE('',#233,#233,#29,.T.);
#291=EDGE_CURVE('',#233,#234,#139,.T.);
#292=EDGE_CURVE('',#234,#234,#30,.T.);
#293=EDGE_CURVE('',#233,#235,#140,.T.);
#294=EDGE_CURVE('',#236,#235,#31,.T.);
#295=EDGE_CURVE('',#236,#237,#21,.T.);
#296=EDGE_CURVE('',#237,#238,#22,.T.);
#297=EDGE_CURVE('',#236,#238,#23,.T.);
#298=EDGE_CURVE('',#239,#236,#32,.T.);
#299=EDGE_CURVE('',#235,#239,#33,.T.);
#300=EDGE_CURVE('',#237,#238,#141,.T.);
#301=EDGE_CURVE('',#240,#239,#142,.T.);
#302=EDGE_CURVE('',#240,#241,#143,.T.);
#303=EDGE_CURVE('',#241,#242,#144,.T.);
#304=EDGE_CURVE('',#242,#243,#145,.T.);
#305=EDGE_CURVE('',#239,#243,#146,.T.);
#306=EDGE_CURVE('',#244,#245,#45,.T.);
#307=EDGE_CURVE('',#220,#244,#46,.T.);
#308=EDGE_CURVE('',#218,#245,#47,.T.);
#309=EDGE_CURVE('',#245,#246,#147,.T.);
#310=EDGE_CURVE('',#217,#246,#48,.T.);
#311=EDGE_CURVE('',#246,#247,#49,.T.);
#312=EDGE_CURVE('',#222,#247,#50,.T.);
#313=EDGE_CURVE('',#247,#248,#51,.T.);
#314=EDGE_CURVE('',#228,#248,#52,.T.);
#315=EDGE_CURVE('',#248,#249,#53,.T.);
#316=EDGE_CURVE('',#226,#249,#54,.T.);
#317=EDGE_CURVE('',#249,#250,#148,.T.);
#318=EDGE_CURVE('',#225,#250,#55,.T.);
#319=EDGE_CURVE('',#250,#251,#56,.T.);
#320=EDGE_CURVE('',#230,#251,#57,.T.);
#321=EDGE_CURVE('',#251,#244,#58,.T.);
#322=EDGE_CURVE('',#252,#253,#149,.T.);
#323=EDGE_CURVE('',#254,#252,#150,.T.);
#324=EDGE_CURVE('',#254,#255,#151,.T.);
#325=EDGE_CURVE('',#253,#255,#152,.T.);
#326=EDGE_CURVE('',#255,#240,#153,.T.);
#327=EDGE_CURVE('',#241,#254,#154,.T.);
#328=EDGE_CURVE('',#256,#252,#155,.T.);
#329=EDGE_CURVE('',#257,#256,#156,.T.);
#330=EDGE_CURVE('',#258,#257,#157,.T.);
#331=EDGE_CURVE('',#258,#259,#158,.T.);
#332=EDGE_CURVE('',#259,#242,#159,.T.);
#333=EDGE_CURVE('',#260,#258,#160,.T.);
#334=EDGE_CURVE('',#261,#260,#161,.T.);
#335=EDGE_CURVE('',#261,#259,#162,.T.);
#336=EDGE_CURVE('',#243,#261,#163,.T.);
#337=EDGE_CURVE('',#262,#257,#164,.T.);
#338=EDGE_CURVE('',#260,#262,#165,.T.);
#339=EDGE_CURVE('',#262,#263,#166,.T.);
#340=EDGE_CURVE('',#253,#263,#167,.T.);
#341=EDGE_CURVE('',#263,#256,#168,.T.);
#342=ORIENTED_EDGE('',*,*,#264,.F.);
#343=ORIENTED_EDGE('',*,*,#265,.F.);
#344=ORIENTED_EDGE('',*,*,#266,.T.);
#345=ORIENTED_EDGE('',*,*,#267,.T.);
#346=ORIENTED_EDGE('',*,*,#268,.F.);
#347=ORIENTED_EDGE('',*,*,#267,.F.);
#348=ORIENTED_EDGE('',*,*,#269,.T.);
#349=ORIENTED_EDGE('',*,*,#270,.F.);
#350=ORIENTED_EDGE('',*,*,#271,.F.);
#351=ORIENTED_EDGE('',*,*,#272,.F.);
#352=ORIENTED_EDGE('',*,*,#273,.T.);
#353=ORIENTED_EDGE('',*,*,#265,.T.);
#354=ORIENTED_EDGE('',*,*,#274,.F.);
#355=ORIENTED_EDGE('',*,*,#275,.F.);
#356=ORIENTED_EDGE('',*,*,#276,.T.);
#357=ORIENTED_EDGE('',*,*,#277,.T.);
#358=ORIENTED_EDGE('',*,*,#278,.F.);
#359=ORIENTED_EDGE('',*,*,#277,.F.);
#360=ORIENTED_EDGE('',*,*,#279,.T.);
#361=ORIENTED_EDGE('',*,*,#280,.F.);
#362=ORIENTED_EDGE('',*,*,#281,.F.);
#363=ORIENTED_EDGE('',*,*,#282,.F.);
#364=ORIENTED_EDGE('',*,*,#283,.T.);
#365=ORIENTED_EDGE('',*,*,#275,.T.);
#366=ORIENTED_EDGE('',*,*,#272,.T.);
#367=ORIENTED_EDGE('',*,*,#284,.F.);
#368=ORIENTED_EDGE('',*,*,#280,.T.);
#369=ORIENTED_EDGE('',*,*,#285,.T.);
#370=ORIENTED_EDGE('',*,*,#286,.T.);
#371=ORIENTED_EDGE('',*,*,#270,.T.);
#372=ORIENTED_EDGE('',*,*,#287,.T.);
#373=ORIENTED_EDGE('',*,*,#288,.T.);
#374=ORIENTED_EDGE('',*,*,#282,.T.);
#375=ORIENTED_EDGE('',*,*,#289,.F.);
#376=ORIENTED_EDGE('',*,*,#290,.T.);
#377=ORIENTED_EDGE('',*,*,#291,.T.);
#378=ORIENTED_EDGE('',*,*,#292,.T.);
#379=ORIENTED_EDGE('',*,*,#291,.F.);
#380=ORIENTED_EDGE('',*,*,#292,.F.);
#381=ORIENTED_EDGE('',*,*,#268,.T.);
#382=ORIENTED_EDGE('',*,*,#289,.T.);
#383=ORIENTED_EDGE('',*,*,#281,.T.);
#384=ORIENTED_EDGE('',*,*,#274,.T.);
#385=ORIENTED_EDGE('',*,*,#278,.T.);
#386=ORIENTED_EDGE('',*,*,#284,.T.);
#387=ORIENTED_EDGE('',*,*,#271,.T.);
#388=ORIENTED_EDGE('',*,*,#264,.T.);
#389=ORIENTED_EDGE('',*,*,#290,.F.);
#390=ORIENTED_EDGE('',*,*,#293,.T.);
#391=ORIENTED_EDGE('',*,*,#294,.F.);
#392=ORIENTED_EDGE('',*,*,#295,.T.);
#393=ORIENTED_EDGE('',*,*,#296,.T.);
#394=ORIENTED_EDGE('',*,*,#297,.F.);
#395=ORIENTED_EDGE('',*,*,#298,.F.);
#396=ORIENTED_EDGE('',*,*,#299,.F.);
#397=ORIENTED_EDGE('',*,*,#293,.F.);
#398=ORIENTED_EDGE('',*,*,#295,.F.);
#399=ORIENTED_EDGE('',*,*,#297,.T.);
#400=ORIENTED_EDGE('',*,*,#300,.F.);
#401=ORIENTED_EDGE('',*,*,#300,.T.);
#402=ORIENTED_EDGE('',*,*,#296,.F.);
#403=ORIENTED_EDGE('',*,*,#301,.F.);
#404=ORIENTED_EDGE('',*,*,#302,.T.);
#405=ORIENTED_EDGE('',*,*,#303,.T.);
#406=ORIENTED_EDGE('',*,*,#304,.T.);
#407=ORIENTED_EDGE('',*,*,#305,.F.);
#408=ORIENTED_EDGE('',*,*,#298,.T.);
#409=ORIENTED_EDGE('',*,*,#294,.T.);
#410=ORIENTED_EDGE('',*,*,#299,.T.);
#411=ORIENTED_EDGE('',*,*,#306,.F.);
#412=ORIENTED_EDGE('',*,*,#307,.F.);
#413=ORIENTED_EDGE('',*,*,#269,.F.);
#414=ORIENTED_EDGE('',*,*,#308,.T.);
#415=ORIENTED_EDGE('',*,*,#309,.F.);
#416=ORIENTED_EDGE('',*,*,#308,.F.);
#417=ORIENTED_EDGE('',*,*,#266,.F.);
#418=ORIENTED_EDGE('',*,*,#310,.T.);
#419=ORIENTED_EDGE('',*,*,#311,.F.);
#420=ORIENTED_EDGE('',*,*,#310,.F.);
#421=ORIENTED_EDGE('',*,*,#273,.F.);
#422=ORIENTED_EDGE('',*,*,#312,.T.);
#423=ORIENTED_EDGE('',*,*,#313,.F.);
#424=ORIENTED_EDGE('',*,*,#312,.F.);
#425=ORIENTED_EDGE('',*,*,#286,.F.);
#426=ORIENTED_EDGE('',*,*,#285,.F.);
#427=ORIENTED_EDGE('',*,*,#314,.T.);
#428=ORIENTED_EDGE('',*,*,#315,.F.);
#429=ORIENTED_EDGE('',*,*,#314,.F.);
#430=ORIENTED_EDGE('',*,*,#279,.F.);
#431=ORIENTED_EDGE('',*,*,#316,.T.);
#432=ORIENTED_EDGE('',*,*,#317,.F.);
#433=ORIENTED_EDGE('',*,*,#316,.F.);
#434=ORIENTED_EDGE('',*,*,#276,.F.);
#435=ORIENTED_EDGE('',*,*,#318,.T.);
#436=ORIENTED_EDGE('',*,*,#319,.F.);
#437=ORIENTED_EDGE('',*,*,#318,.F.);
#438=ORIENTED_EDGE('',*,*,#283,.F.);
#439=ORIENTED_EDGE('',*,*,#320,.T.);
#440=ORIENTED_EDGE('',*,*,#321,.F.);
#441=ORIENTED_EDGE('',*,*,#320,.F.);
#442=ORIENTED_EDGE('',*,*,#288,.F.);
#443=ORIENTED_EDGE('',*,*,#287,.F.);
#444=ORIENTED_EDGE('',*,*,#307,.T.);
#445=ORIENTED_EDGE('',*,*,#322,.F.);
#446=ORIENTED_EDGE('',*,*,#323,.F.);
#447=ORIENTED_EDGE('',*,*,#324,.T.);
#448=ORIENTED_EDGE('',*,*,#325,.F.);
#449=ORIENTED_EDGE('',*,*,#302,.F.);
#450=ORIENTED_EDGE('',*,*,#326,.F.);
#451=ORIENTED_EDGE('',*,*,#324,.F.);
#452=ORIENTED_EDGE('',*,*,#327,.F.);
#453=ORIENTED_EDGE('',*,*,#327,.T.);
#454=ORIENTED_EDGE('',*,*,#323,.T.);
#455=ORIENTED_EDGE('',*,*,#328,.F.);
#456=ORIENTED_EDGE('',*,*,#329,.F.);
#457=ORIENTED_EDGE('',*,*,#330,.F.);
#458=ORIENTED_EDGE('',*,*,#331,.T.);
#459=ORIENTED_EDGE('',*,*,#332,.T.);
#460=ORIENTED_EDGE('',*,*,#303,.F.);
#461=ORIENTED_EDGE('',*,*,#333,.F.);
#462=ORIENTED_EDGE('',*,*,#334,.F.);
#463=ORIENTED_EDGE('',*,*,#335,.T.);
#464=ORIENTED_EDGE('',*,*,#331,.F.);
#465=ORIENTED_EDGE('',*,*,#335,.F.);
#466=ORIENTED_EDGE('',*,*,#336,.F.);
#467=ORIENTED_EDGE('',*,*,#304,.F.);
#468=ORIENTED_EDGE('',*,*,#332,.F.);
#469=ORIENTED_EDGE('',*,*,#333,.T.);
#470=ORIENTED_EDGE('',*,*,#330,.T.);
#471=ORIENTED_EDGE('',*,*,#337,.F.);
#472=ORIENTED_EDGE('',*,*,#338,.F.);
#473=ORIENTED_EDGE('',*,*,#326,.T.);
#474=ORIENTED_EDGE('',*,*,#301,.T.);
#475=ORIENTED_EDGE('',*,*,#305,.T.);
#476=ORIENTED_EDGE('',*,*,#336,.T.);
#477=ORIENTED_EDGE('',*,*,#334,.T.);
#478=ORIENTED_EDGE('',*,*,#338,.T.);
#479=ORIENTED_EDGE('',*,*,#339,.T.);
#480=ORIENTED_EDGE('',*,*,#340,.F.);
#481=ORIENTED_EDGE('',*,*,#325,.T.);
#482=ORIENTED_EDGE('',*,*,#322,.T.);
#483=ORIENTED_EDGE('',*,*,#340,.T.);
#484=ORIENTED_EDGE('',*,*,#341,.T.);
#485=ORIENTED_EDGE('',*,*,#328,.T.);
#486=ORIENTED_EDGE('',*,*,#339,.F.);
#487=ORIENTED_EDGE('',*,*,#337,.T.);
#488=ORIENTED_EDGE('',*,*,#329,.T.);
#489=ORIENTED_EDGE('',*,*,#341,.F.);
#490=ORIENTED_EDGE('',*,*,#315,.T.);
#491=ORIENTED_EDGE('',*,*,#317,.T.);
#492=ORIENTED_EDGE('',*,*,#319,.T.);
#493=ORIENTED_EDGE('',*,*,#321,.T.);
#494=ORIENTED_EDGE('',*,*,#306,.T.);
#495=ORIENTED_EDGE('',*,*,#309,.T.);
#496=ORIENTED_EDGE('',*,*,#311,.T.);
#497=ORIENTED_EDGE('',*,*,#313,.T.);
#498=PLANE('',#564);
#499=PLANE('',#565);
#500=PLANE('',#566);
#501=PLANE('',#567);
#502=PLANE('',#568);
#503=PLANE('',#569);
#504=PLANE('',#577);
#505=PLANE('',#585);
#506=PLANE('',#586);
#507=PLANE('',#587);
#508=PLANE('',#588);
#509=PLANE('',#589);
#510=PLANE('',#590);
#511=PLANE('',#591);
#512=PLANE('',#592);
#513=PLANE('',#593);
#514=PLANE('',#594);
#515=PLANE('',#595);
#516=PLANE('',#596);
#517=PLANE('',#597);
#518=PLANE('',#598);
#519=ADVANCED_FACE('',(#59),#498,.F.);
#520=ADVANCED_FACE('',(#60),#499,.F.);
#521=ADVANCED_FACE('',(#61),#500,.F.);
#522=ADVANCED_FACE('',(#62),#501,.F.);
#523=ADVANCED_FACE('',(#63),#502,.F.);
#524=ADVANCED_FACE('',(#64),#503,.F.);
#525=ADVANCED_FACE('',(#65),#34,.F.);
#526=ADVANCED_FACE('',(#66),#35,.F.);
#527=ADVANCED_FACE('',(#67),#26,.T.);
#528=ADVANCED_FACE('',(#68,#24),#504,.T.);
#529=ADVANCED_FACE('',(#69),#36,.T.);
#530=ADVANCED_FACE('',(#70),#505,.T.);
#531=ADVANCED_FACE('',(#71),#506,.T.);
#532=ADVANCED_FACE('',(#72),#507,.T.);
#533=ADVANCED_FACE('',(#73),#15,.F.);
#534=ADVANCED_FACE('',(#74),#508,.F.);
#535=ADVANCED_FACE('',(#75),#16,.F.);
#536=ADVANCED_FACE('',(#76),#17,.F.);
#537=ADVANCED_FACE('',(#77),#18,.F.);
#538=ADVANCED_FACE('',(#78),#509,.F.);
#539=ADVANCED_FACE('',(#79),#19,.F.);
#540=ADVANCED_FACE('',(#80),#20,.F.);
#541=ADVANCED_FACE('',(#81),#510,.F.);
#542=ADVANCED_FACE('',(#82),#511,.F.);
#543=ADVANCED_FACE('',(#83),#512,.T.);
#544=ADVANCED_FACE('',(#84),#513,.F.);
#545=ADVANCED_FACE('',(#85),#514,.F.);
#546=ADVANCED_FACE('',(#86),#515,.F.);
#547=ADVANCED_FACE('',(#87),#516,.T.);
#548=ADVANCED_FACE('',(#88),#517,.T.);
#549=ADVANCED_FACE('',(#89,#25),#518,.F.);
#550=CLOSED_SHELL('',(#519,#520,#521,#522,#523,#524,#525,#526,#527,#528,
#529,#530,#531,#532,#533,#534,#535,#536,#537,#538,#539,#540,#541,#542,#543,
#544,#545,#546,#547,#548,#549));
#551=DERIVED_UNIT_ELEMENT(#553,1.);
#552=DERIVED_UNIT_ELEMENT(#1104,-3.);
#553=(
MASS_UNIT()
NAMED_UNIT(*)
SI_UNIT(.KILO.,.GRAM.)
);
#554=DERIVED_UNIT((#551,#552));
#555=MEASURE_REPRESENTATION_ITEM('density measure',
POSITIVE_RATIO_MEASURE(7850.),#554);
#556=PROPERTY_DEFINITION_REPRESENTATION(#561,#558);
#557=PROPERTY_DEFINITION_REPRESENTATION(#562,#559);
#558=REPRESENTATION('material name',(#560),#1101);
#559=REPRESENTATION('density',(#555),#1101);
#560=DESCRIPTIVE_REPRESENTATION_ITEM('Steel','Steel');
#561=PROPERTY_DEFINITION('material property','material name',#1111);
#562=PROPERTY_DEFINITION('material property','density of part',#1111);
#563=AXIS2_PLACEMENT_3D('',#717,#599,#600);
#564=AXIS2_PLACEMENT_3D('',#718,#601,#602);
#565=AXIS2_PLACEMENT_3D('',#727,#607,#608);
#566=AXIS2_PLACEMENT_3D('',#736,#611,#612);
#567=AXIS2_PLACEMENT_3D('',#745,#615,#616);
#568=AXIS2_PLACEMENT_3D('',#754,#621,#622);
#569=AXIS2_PLACEMENT_3D('',#763,#625,#626);
#570=AXIS2_PLACEMENT_3D('',#772,#629,#630);
#571=AXIS2_PLACEMENT_3D('',#773,#631,#632);
#572=AXIS2_PLACEMENT_3D('',#784,#633,#634);
#573=AXIS2_PLACEMENT_3D('',#795,#635,#636);
#574=AXIS2_PLACEMENT_3D('',#796,#637,#638);
#575=AXIS2_PLACEMENT_3D('',#798,#639,#640);
#576=AXIS2_PLACEMENT_3D('',#801,#642,#643);
#577=AXIS2_PLACEMENT_3D('',#802,#644,#645);
#578=AXIS2_PLACEMENT_3D('',#803,#646,#647);
#579=AXIS2_PLACEMENT_3D('',#807,#649,#650);
#580=AXIS2_PLACEMENT_3D('',#809,#651,#652);
#581=AXIS2_PLACEMENT_3D('',#811,#653,#654);
#582=AXIS2_PLACEMENT_3D('',#812,#655,#656);
#583=AXIS2_PLACEMENT_3D('',#814,#657,#658);
#584=AXIS2_PLACEMENT_3D('',#815,#659,#660);
#585=AXIS2_PLACEMENT_3D('',#816,#661,#662);
#586=AXIS2_PLACEMENT_3D('',#818,#664,#665);
#587=AXIS2_PLACEMENT_3D('',#819,#666,#667);
#588=AXIS2_PLACEMENT_3D('',#874,#673,#674);
#589=AXIS2_PLACEMENT_3D('',#974,#676,#677);
#590=AXIS2_PLACEMENT_3D('',#1058,#679,#680);
#591=AXIS2_PLACEMENT_3D('',#1067,#685,#686);
#592=AXIS2_PLACEMENT_3D('',#1070,#689,#690);
#593=AXIS2_PLACEMENT_3D('',#1080,#696,#697);
#594=AXIS2_PLACEMENT_3D('',#1086,#701,#702);
#595=AXIS2_PLACEMENT_3D('',#1088,#704,#705);
#596=AXIS2_PLACEMENT_3D('',#1092,#708,#709);
#597=AXIS2_PLACEMENT_3D('',#1096,#712,#713);
#598=AXIS2_PLACEMENT_3D('',#1098,#715,#716);
#599=DIRECTION('axis',(0.,0.,1.));
#600=DIRECTION('refdir',(1.,0.,0.));
#601=DIRECTION('center_axis',(-1.,-4.37797569725061E-9,1.91143300608375E-10));
#602=DIRECTION('ref_axis',(-4.34069832320383E-9,0.995583894926947,0.0938760254915524));
#603=DIRECTION('',(4.34069832320383E-9,-0.995583894926947,-0.0938760254915524));
#604=DIRECTION('',(-6.01286149865374E-10,0.0938760254915525,-0.995583894926946));
#605=DIRECTION('',(9.46492614565959E-10,-0.995583894926947,-0.0938760254915521));
#606=DIRECTION('',(-6.01286149865374E-10,0.0938760254915525,-0.995583894926946));
#607=DIRECTION('center_axis',(-0.707106778117211,-0.703984126438655,-0.0663803740807591));
#608=DIRECTION('ref_axis',(-0.707106784255884,0.703984120247264,0.0663803743510767));
#609=DIRECTION('',(0.707106784255884,-0.703984120247264,-0.0663803743510767));
#610=DIRECTION('',(6.01286159976348E-10,-0.0938760254915517,0.995583894926947));
#611=DIRECTION('center_axis',(-0.707106784255886,0.703984120247262,0.0663803743510766));
#612=DIRECTION('ref_axis',(0.707106778117209,0.703984126438656,0.0663803740807592));
#613=DIRECTION('',(-0.707106778117209,-0.703984126438656,-0.0663803740807592));
#614=DIRECTION('',(-6.01286159976348E-10,0.0938760254915517,-0.995583894926947));
#615=DIRECTION('center_axis',(1.,4.37797569725061E-9,-1.91143300608375E-10));
#616=DIRECTION('ref_axis',(4.34069832320383E-9,-0.995583894926947,-0.0938760254915524));
#617=DIRECTION('',(-4.34069832320383E-9,0.995583894926947,0.0938760254915524));
#618=DIRECTION('',(-6.01286149865374E-10,0.0938760254915525,-0.995583894926946));
#619=DIRECTION('',(-9.46492614565959E-10,0.995583894926947,0.0938760254915521));
#620=DIRECTION('',(-6.01286149865374E-10,0.0938760254915525,-0.995583894926946));
#621=DIRECTION('center_axis',(0.707106778117211,0.703984126438655,0.0663803740807591));
#622=DIRECTION('ref_axis',(0.707106784255884,-0.703984120247264,-0.0663803743510767));
#623=DIRECTION('',(-0.707106784255884,0.703984120247264,0.0663803743510767));
#624=DIRECTION('',(6.01286159976348E-10,-0.0938760254915517,0.995583894926947));
#625=DIRECTION('center_axis',(0.707106784255886,-0.703984120247262,-0.0663803743510766));
#626=DIRECTION('ref_axis',(-0.707106778117209,-0.703984126438656,-0.0663803740807592));
#627=DIRECTION('',(0.707106778117209,0.703984126438656,0.0663803740807592));
#628=DIRECTION('',(-6.01286159976348E-10,0.0938760254915517,-0.995583894926947));
#629=DIRECTION('center_axis',(-6.01286159976348E-10,0.0938760254915517,
-0.995583894926947));
#630=DIRECTION('ref_axis',(1.,4.37797569819979E-9,-1.91143310674702E-10));
#631=DIRECTION('center_axis',(6.01286166767456E-10,-0.0938760254915524,
0.995583894926947));
#632=DIRECTION('ref_axis',(1.,4.37797569819979E-9,-1.91143310674702E-10));
#633=DIRECTION('center_axis',(-6.01286159976348E-10,0.0938760254915517,
-0.995583894926947));
#634=DIRECTION('ref_axis',(1.,4.37797569819979E-9,-1.91143310674702E-10));
#635=DIRECTION('center_axis',(6.01286166767456E-10,-0.0938760254915524,
0.995583894926947));
#636=DIRECTION('ref_axis',(1.,4.37797569819979E-9,-1.91143310674702E-10));
#637=DIRECTION('center_axis',(6.01286166767448E-10,-0.0938760254915505,
0.995583894926947));
#638=DIRECTION('ref_axis',(-1.,-4.37795294037223E-9,1.91145463386809E-10));
#639=DIRECTION('center_axis',(-6.01286166767456E-10,0.0938760254915524,
-0.995583894926947));
#640=DIRECTION('ref_axis',(-1.,-4.37795294037223E-9,1.91145463386809E-10));
#641=DIRECTION('',(-0.707106781611723,0.0663803711202361,-0.703984123207797));
#642=DIRECTION('center_axis',(6.01286166767456E-10,-0.0938760254915524,
0.995583894926947));
#643=DIRECTION('ref_axis',(-1.,-4.37795294037223E-9,1.91145463386809E-10));
#644=DIRECTION('center_axis',(-6.01286166767456E-10,0.0938760254915524,
-0.995583894926947));
#645=DIRECTION('ref_axis',(-1.,-4.37795294037223E-9,1.91145463386809E-10));
#646=DIRECTION('center_axis',(-6.01286166767458E-10,0.0938760254915529,
-0.995583894926947));
#647=DIRECTION('ref_axis',(-1.,-4.37795294037223E-9,1.91145463386809E-10));
#648=DIRECTION('',(6.01286166767458E-10,-0.0938760254915529,0.995583894926947));
#649=DIRECTION('center_axis',(6.01286166767454E-10,-0.0938760254915521,
0.995583894926947));
#650=DIRECTION('ref_axis',(-1.,-4.37795294037223E-9,1.91145463386809E-10));
#651=DIRECTION('center_axis',(1.44431557547457E-6,0.766044443118182,0.642787609685866));
#652=DIRECTION('ref_axis',(-2.96051982591689E-9,0.642787609686539,-0.766044443118978));
#653=DIRECTION('center_axis',(1.72565803278082E-6,0.996194698090262,-0.087155742747528));
#654=DIRECTION('ref_axis',(-1.91145643042206E-10,0.0871557427476581,0.996194698091746));
#655=DIRECTION('center_axis',(-1.44431557547457E-6,-0.766044443118182,-0.642787609685866));
#656=DIRECTION('ref_axis',(-2.96051982591689E-9,0.642787609686539,-0.766044443118978));
#657=DIRECTION('center_axis',(6.01286166767454E-10,-0.0938760254915521,
0.995583894926947));
#658=DIRECTION('ref_axis',(-1.,-4.37795294037223E-9,1.91145463386809E-10));
#659=DIRECTION('center_axis',(6.01286166767454E-10,-0.0938760254915521,
0.995583894926947));
#660=DIRECTION('ref_axis',(-1.,-4.37795294037223E-9,1.91145463386809E-10));
#661=DIRECTION('center_axis',(-1.44431557547457E-6,-0.766044443118182,-0.642787609685866));
#662=DIRECTION('ref_axis',(2.96051982591689E-9,-0.642787609686539,0.766044443118978));
#663=DIRECTION('',(-0.999999999998461,1.74671213971019E-6,1.65305686542743E-7));
#664=DIRECTION('center_axis',(-1.72565803278082E-6,-0.996194698090262,0.087155742747528));
#665=DIRECTION('ref_axis',(-1.91145643042206E-10,0.0871557427476581,0.996194698091746));
#666=DIRECTION('center_axis',(-6.01286166767454E-10,0.0938760254915521,
-0.995583894926947));
#667=DIRECTION('ref_axis',(-1.,-4.37795294037223E-9,1.91145463386809E-10));
#668=DIRECTION('',(-1.,-4.37795295074512E-9,1.91145464294319E-10));
#669=DIRECTION('',(4.34067545621332E-9,-0.995583894926947,-0.0938760254915521));
#670=DIRECTION('',(-1.,-4.37795294037223E-9,1.91145463386809E-10));
#671=DIRECTION('',(-4.34067545621332E-9,0.995583894926947,0.0938760254915521));
#672=DIRECTION('',(-1.,-4.37795295074512E-9,1.91145464294319E-10));
#673=DIRECTION('center_axis',(-1.,1.74172817345069E-10,-1.19295236519098E-8));
#674=DIRECTION('ref_axis',(-1.19295236519098E-8,7.51377119083366E-48,1.));
#675=DIRECTION('',(-9.46492614565959E-10,0.995583894926947,0.0938760254915521));
#676=DIRECTION('center_axis',(1.,-1.74172817345069E-10,1.19295236519098E-8));
#677=DIRECTION('ref_axis',(1.19295236519098E-8,-7.51377119083366E-48,-1.));
#678=DIRECTION('',(9.46492614565959E-10,-0.995583894926947,-0.0938760254915521));
#679=DIRECTION('center_axis',(6.01286208099301E-10,-0.0938760254915523,
0.995583894926947));
#680=DIRECTION('ref_axis',(-4.34067547403104E-9,0.995583894926947,0.0938760254915523));
#681=DIRECTION('',(-4.34067547403105E-9,0.995583894926947,0.0938760254915523));
#682=DIRECTION('',(1.,4.3779529442523E-9,-1.91145504536129E-10));
#683=DIRECTION('',(-4.34067547403104E-9,0.995583894926947,0.0938760254915523));
#684=DIRECTION('',(-1.,-4.3779529442523E-9,1.91145504536129E-10));
#685=DIRECTION('center_axis',(-1.,-4.37795293670991E-9,1.91145505247319E-10));
#686=DIRECTION('ref_axis',(-1.91145601021796E-10,0.0871557427476581,0.996194698091746));
#687=DIRECTION('',(-6.01286208099299E-10,0.0938760254915518,-0.995583894926947));
#688=DIRECTION('',(6.01286208099298E-10,-0.0938760254915515,0.995583894926947));
#689=DIRECTION('center_axis',(4.34067546378917E-9,-0.995583894926947,-0.0938760254915515));
#690=DIRECTION('ref_axis',(-6.01286166767452E-10,0.0938760254915515,-0.995583894926947));
#691=DIRECTION('',(-6.01286168644719E-10,0.0938760254915515,-0.995583894926947));
#692=DIRECTION('',(1.,4.37795294037223E-9,-1.91145463386809E-10));
#693=DIRECTION('',(6.01286166767418E-10,-0.0938760254915438,0.995583894926947));
#694=DIRECTION('',(1.,4.3779529442523E-9,-1.91145504536129E-10));
#695=DIRECTION('',(-6.01286208099298E-10,0.0938760254915515,-0.995583894926947));
#696=DIRECTION('center_axis',(6.01286208099301E-10,-0.0938760254915523,
0.995583894926947));
#697=DIRECTION('ref_axis',(4.34067541400337E-9,-0.995583894926947,-0.0938760254915523));
#698=DIRECTION('',(4.34067546378917E-9,-0.995583894926947,-0.0938760254915523));
#699=DIRECTION('',(-1.,-4.3779529442523E-9,1.91145504536129E-10));
#700=DIRECTION('',(4.34067541400337E-9,-0.995583894926947,-0.0938760254915523));
#701=DIRECTION('center_axis',(1.,4.37795293670991E-9,-1.91145505247319E-10));
#702=DIRECTION('ref_axis',(1.91145601021796E-10,-0.0871557427476581,-0.996194698091746));
#703=DIRECTION('',(6.01286208099299E-10,-0.0938760254915518,0.995583894926947));
#704=DIRECTION('center_axis',(1.,4.37795294037223E-9,-1.91145463386809E-10));
#705=DIRECTION('ref_axis',(1.91145643042206E-10,-0.0871557427476581,-0.996194698091746));
#706=DIRECTION('',(4.34067546378917E-9,-0.995583894926947,-0.0938760254915521));
#707=DIRECTION('',(6.01286166767452E-10,-0.0938760254915515,0.995583894926947));
#708=DIRECTION('center_axis',(-4.34067546378917E-9,0.995583894926947,0.0938760254915518));
#709=DIRECTION('ref_axis',(6.01286166767453E-10,-0.0938760254915518,0.995583894926947));
#710=DIRECTION('',(1.,4.37795294037223E-9,-1.91145463386809E-10));
#711=DIRECTION('',(6.01286168644721E-10,-0.0938760254915518,0.995583894926947));
#712=DIRECTION('center_axis',(1.,4.37795295074512E-9,-1.91145464294319E-10));
#713=DIRECTION('ref_axis',(1.91145643042206E-10,-0.0871557427476581,-0.996194698091746));
#714=DIRECTION('',(4.34067547403105E-9,-0.995583894926947,-0.0938760254915521));
#715=DIRECTION('center_axis',(-6.01286166767454E-10,0.0938760254915521,
-0.995583894926947));
#716=DIRECTION('ref_axis',(-1.,-4.37795294037223E-9,1.91145463386809E-10));
#717=CARTESIAN_POINT('',(0.,0.,0.));
#718=CARTESIAN_POINT('Origin',(-3.35000001890983,-60.3490203507978,-11.4228785418103));
#719=CARTESIAN_POINT('',(-3.35000003303561,-57.3513207031463,-16.664614469895));
#720=CARTESIAN_POINT('',(-3.35000002221691,-59.8327022105942,-16.8985899639085));
#721=CARTESIAN_POINT('',(-3.35000002492158,-59.2123568337322,-16.8400960904051));
#722=CARTESIAN_POINT('',(-3.35000002972854,-57.8676388222421,-11.1889032716508));
#723=CARTESIAN_POINT('',(-3.35000002972854,-57.8676388433499,-11.1889030477968));
#724=CARTESIAN_POINT('',(-3.35000001890983,-60.34902032969,-11.4228787656644));
#725=CARTESIAN_POINT('',(-3.35000002913878,-58.4879842145517,-11.2473969207664));
#726=CARTESIAN_POINT('',(-3.35000001890983,-60.3490203507978,-11.4228785418103));
#727=CARTESIAN_POINT('Origin',(-2.29809705320012,-61.3962779933332,-11.5216270112063));
#728=CARTESIAN_POINT('',(-2.2980970565072,-60.8799598531297,-16.9973384333046));
#729=CARTESIAN_POINT('',(-2.89184688496066,-60.2888320914711,-16.9415995594015));
#730=CARTESIAN_POINT('',(-2.29809705320012,-61.3962779722255,-11.5216272350604));
#731=CARTESIAN_POINT('Ctrl Pts',(-3.35000001890983,-60.34902032969,-11.4228787656644));
#732=CARTESIAN_POINT('Ctrl Pts',(-2.9993656970066,-60.6981062105352,-11.4557949221297));
#733=CARTESIAN_POINT('Ctrl Pts',(-2.64873137510336,-61.0471920913803,-11.4887110785951));
#734=CARTESIAN_POINT('Ctrl Pts',(-2.29809705320012,-61.3962779722255,-11.5216272350604));
#735=CARTESIAN_POINT('',(-2.29809705320012,-61.3962779933332,-11.5216270112063));
#736=CARTESIAN_POINT('Origin',(-3.35000002972854,-57.8676388433499,-11.1889030477968));
#737=CARTESIAN_POINT('',(-2.29809707645789,-56.3040630514005,-16.5658660009011));
#738=CARTESIAN_POINT('',(-3.41779837804561,-57.4188196441308,-16.6709791090741));
#739=CARTESIAN_POINT('',(-2.29809707315082,-56.8203811704962,-11.0901548026569));
#740=CARTESIAN_POINT('',(-2.29809707315082,-56.820381191604,-11.0901545788029));
#741=CARTESIAN_POINT('Ctrl Pts',(-2.29809707315081,-56.8203811704962,-11.0901548026569));
#742=CARTESIAN_POINT('Ctrl Pts',(-2.64873139201005,-57.1694670544115,-11.1230709589882));
#743=CARTESIAN_POINT('Ctrl Pts',(-2.9993657108693,-57.5185529383268,-11.1559871153195));
#744=CARTESIAN_POINT('Ctrl Pts',(-3.35000002972854,-57.8676388222421,-11.1889032716508));
#745=CARTESIAN_POINT('Origin',(3.34999997027146,-57.8676388140174,-11.1889030490774));
#746=CARTESIAN_POINT('',(3.34999997778309,-59.8327021812618,-16.8985899651892));
#747=CARTESIAN_POINT('',(3.34999996696438,-57.3513206738139,-16.6646144711757));
#748=CARTESIAN_POINT('',(3.34999996966906,-57.9716660506759,-16.723108344679));
#749=CARTESIAN_POINT('',(3.34999998109016,-60.3490203003576,-11.422878766945));
#750=CARTESIAN_POINT('',(3.34999998109016,-60.3490203214653,-11.422878543091));
#751=CARTESIAN_POINT('',(3.34999997027146,-57.8676387929097,-11.1889032729315));
#752=CARTESIAN_POINT('',(3.3499999805004,-59.7286749502636,-11.3643846701213));
#753=CARTESIAN_POINT('',(3.34999997027146,-57.8676388140174,-11.1889030490774));
#754=CARTESIAN_POINT('Origin',(2.29809700456174,-56.820381171482,-11.0901545796814));
#755=CARTESIAN_POINT('',(2.29809700125467,-56.3040630312785,-16.5658660017796));
#756=CARTESIAN_POINT('',(1.7043471728012,-55.7129352696199,-16.5101271278766));
#757=CARTESIAN_POINT('',(2.29809700456175,-56.8203811503742,-11.0901548035355));
#758=CARTESIAN_POINT('Ctrl Pts',(3.34999997027146,-57.8676387929097,-11.1889032729315));
#759=CARTESIAN_POINT('Ctrl Pts',(2.99936564836822,-57.5185529120645,-11.1559871164662));
#760=CARTESIAN_POINT('Ctrl Pts',(2.64873132646498,-57.1694670312194,-11.1230709600008));
#761=CARTESIAN_POINT('Ctrl Pts',(2.29809700456175,-56.8203811503742,-11.0901548035355));
#762=CARTESIAN_POINT('',(2.29809700456174,-56.820381171482,-11.0901545796814));
#763=CARTESIAN_POINT('Origin',(3.34999998109016,-60.3490203214653,-11.422878543091));
#764=CARTESIAN_POINT('',(2.29809702120536,-60.8799598330077,-16.9973384341831));
#765=CARTESIAN_POINT('',(2.23029867619537,-60.9474587739921,-17.0037030733622));
#766=CARTESIAN_POINT('',(2.29809702451244,-61.3962779521035,-11.5216272359389));
#767=CARTESIAN_POINT('',(2.29809702451244,-61.3962779732112,-11.5216270120849));
#768=CARTESIAN_POINT('Ctrl Pts',(2.29809702451244,-61.3962779521035,-11.5216272359389));
#769=CARTESIAN_POINT('Ctrl Pts',(2.64873134337168,-61.0471920681882,-11.4887110796076));
#770=CARTESIAN_POINT('Ctrl Pts',(2.99936566223092,-60.6981061842729,-11.4557949232763));
#771=CARTESIAN_POINT('Ctrl Pts',(3.34999998109016,-60.3490203003576,-11.422878766945));
#772=CARTESIAN_POINT('Origin',(-2.43191884729799E-8,-59.1083295824076,-11.3058907954439));
#773=CARTESIAN_POINT('Origin',(-2.76262623528499E-8,-58.5920114422041,-16.7816022175421));
#774=CARTESIAN_POINT('',(-0.0311773166033919,-55.8728308090139,-11.0008077513173));
#775=CARTESIAN_POINT('Ctrl Pts',(2.29809700456175,-56.8203811503742,-11.0901548035355));
#776=CARTESIAN_POINT('Ctrl Pts',(1.68912696330119,-56.2141003901,-11.0329871165503));
#777=CARTESIAN_POINT('Ctrl Pts',(0.827365462115494,-55.870417219321,-11.0005803944411));
#778=CARTESIAN_POINT('Ctrl Pts',(-0.0311757883366505,-55.8732843771625,
-11.0008507452049));
#779=CARTESIAN_POINT('Ctrl Pts',(-0.0311757883366505,-55.8732843771625,
-11.0008507452049));
#780=CARTESIAN_POINT('Ctrl Pts',(-0.142014810915534,-55.8736545317387,-11.0008856479127));
#781=CARTESIAN_POINT('Ctrl Pts',(-0.979483306630063,-55.9201158645794,-11.0052665994174));
#782=CARTESIAN_POINT('Ctrl Pts',(-1.78240530578161,-56.3069667476708,-11.041743709046));
#783=CARTESIAN_POINT('Ctrl Pts',(-2.29809707315081,-56.8203811704962,-11.0901548026569));
#784=CARTESIAN_POINT('Origin',(-2.43191884729799E-8,-59.1083295824076,-11.3058907954439));
#785=CARTESIAN_POINT('',(0.0311772679513054,-62.3438283558014,-11.6109738395705));
#786=CARTESIAN_POINT('Ctrl Pts',(-2.29809705320013,-61.3962779722255,-11.5216272350604));
#787=CARTESIAN_POINT('Ctrl Pts',(-1.782405281354,-61.9096923905356,-11.5700383288685));
#788=CARTESIAN_POINT('Ctrl Pts',(-0.959575854133732,-62.3060911733554,-11.6074157341531));
#789=CARTESIAN_POINT('Ctrl Pts',(-0.100458342764431,-62.3450536916531,-11.6110896052313));
#790=CARTESIAN_POINT('Ctrl Pts',(0.0311626391460328,-62.3429297637861,-11.6108893349895));
#791=CARTESIAN_POINT('Ctrl Pts',(0.0311626391460328,-62.3429297637861,-11.6108893349895));
#792=CARTESIAN_POINT('Ctrl Pts',(0.868929548013316,-62.3294109732567,-11.6096146158753));
#793=CARTESIAN_POINT('Ctrl Pts',(1.70386706147795,-61.9878837383531,-11.5774111832252));
#794=CARTESIAN_POINT('Ctrl Pts',(2.29809702451244,-61.3962779521035,-11.5216272359389));
#795=CARTESIAN_POINT('Origin',(-2.76262623528499E-8,-58.5920114422041,-16.7816022175421));
#796=CARTESIAN_POINT('Origin',(-2.74158122318323E-8,-58.6248680511261,-16.4331478543177));
#797=CARTESIAN_POINT('',(4.74999997279464,-58.6577246392529,-16.0846934920012));
#798=CARTESIAN_POINT('Origin',(-2.72053620734637E-8,-58.6577246600481,-16.0846934910932));
#799=CARTESIAN_POINT('',(4.04999997237374,-58.5920114244734,-16.7816022183162));
#800=CARTESIAN_POINT('',(4.39999997258419,-58.6248680318631,-16.4331478551587));
#801=CARTESIAN_POINT('Origin',(-2.76262623902009E-8,-58.5920114422041,-16.7816022175421));
#802=CARTESIAN_POINT('Origin',(-2.37499933113092,-58.5920114526017,-16.7816022170881));
#803=CARTESIAN_POINT('Origin',(-2.43191884729799E-8,-59.1083295824076,-11.3058907954439));
#804=CARTESIAN_POINT('',(4.74999997568081,-59.1083296101256,-11.3058902818537));
#805=CARTESIAN_POINT('',(4.74999997568081,-59.1083295616123,-11.3058907963518));
#806=CARTESIAN_POINT('',(-3.70098612620799E-9,-63.8373530833106,-11.7518019165287));
#807=CARTESIAN_POINT('Origin',(-2.43191884729799E-8,-59.1083295824076,-11.3058907954439));
#808=CARTESIAN_POINT('',(1.83633856812335,-63.4194359811076,-12.2498602506579));
#809=CARTESIAN_POINT('Origin',(-2.8457288617937E-8,-58.4622671646024,-18.1575798706518));
#810=CARTESIAN_POINT('',(-1.83634303012307,-63.4194279632401,-12.2498615536258));
#811=CARTESIAN_POINT('Origin',(-1.02702770143399E-8,-61.3017210873379,11.9556953885036));
#812=CARTESIAN_POINT('Origin',(-2.8457288617937E-8,-58.4622671646024,-18.1575798706518));
#813=CARTESIAN_POINT('',(-4.49373967248123E-8,-54.3793060815046,-10.859979674359));
#814=CARTESIAN_POINT('Origin',(-2.43191884729799E-8,-59.1083295824076,-11.3058907954439));
#815=CARTESIAN_POINT('Origin',(-2.43191884729799E-8,-59.1083295824076,-11.3058907954439));
#816=CARTESIAN_POINT('Origin',(-5.62582310820082E-9,-63.4194327735528,-12.2498599471007));
#817=CARTESIAN_POINT('',(-5.62582310820082E-9,-63.4194327735528,-12.2498599471007));
#818=CARTESIAN_POINT('Origin',(-5.23426585146498E-9,-63.5979692183071,-14.2905408485925));
#819=CARTESIAN_POINT('Origin',(-2.43191945792065E-8,-59.1083295824076,-11.3058907954439));
#820=CARTESIAN_POINT('',(5.2499999550626,-54.3793060585204,-10.8599796753625));
#821=CARTESIAN_POINT('',(8.49522914995992,-54.3793060443129,-10.8599796759828));
#822=CARTESIAN_POINT('',(5.25000000346113,-65.4800664869558,-11.9066973595933));
#823=CARTESIAN_POINT('',(5.24999997747134,-59.5190079216655,-11.3446146574893));
#824=CARTESIAN_POINT('',(-5.24999999653887,-65.4800665329243,-11.9066973575863));
#825=CARTESIAN_POINT('',(-4.57636391200992,-65.4800665299752,-11.9066973577151));
#826=CARTESIAN_POINT('',(-5.25000004493741,-54.3793061044889,-10.8599796733555));
#827=CARTESIAN_POINT('',(-5.25000002252867,-59.519007967634,-11.3446146554822));
#828=CARTESIAN_POINT('',(8.49522914995992,-54.3793060443129,-10.8599796759828));
#829=CARTESIAN_POINT('Ctrl Pts',(-3.35000001890983,-60.34902032969,-11.4228787656644));
#830=CARTESIAN_POINT('Ctrl Pts',(-3.3500000342958,-60.4704657218271,-10.1349133538438));
#831=CARTESIAN_POINT('Ctrl Pts',(-3.35000006465666,-61.0033560371548,-7.59767518509028));
#832=CARTESIAN_POINT('Ctrl Pts',(-3.35000008520344,-61.9476783589025,-5.88911547029943));
#833=CARTESIAN_POINT('Ctrl Pts',(-3.35000009532281,-62.5843684753118,-5.05014817629409));
#834=CARTESIAN_POINT('Ctrl Pts',(-2.9993656970066,-60.6981062105352,-11.4557949221297));
#835=CARTESIAN_POINT('Ctrl Pts',(-2.99936571212431,-60.8174342059648,-10.1902851454755));
#836=CARTESIAN_POINT('Ctrl Pts',(-2.99936574175662,-61.339764676237,-7.71396410395531));
#837=CARTESIAN_POINT('Ctrl Pts',(-2.99936576150359,-62.2491063738431,-6.07193833657715));
#838=CARTESIAN_POINT('Ctrl Pts',(-2.99936577127142,-62.8636785528441,-5.26211587346594));
#839=CARTESIAN_POINT('Ctrl Pts',(-2.64873137510336,-61.0471920913803,-11.4887110785951));
#840=CARTESIAN_POINT('Ctrl Pts',(-2.64873138995282,-61.1644026901025,-10.2456569371073));
#841=CARTESIAN_POINT('Ctrl Pts',(-2.64873141885657,-61.6761733153192,-7.83025302282033));
#842=CARTESIAN_POINT('Ctrl Pts',(-2.64873143780373,-62.5505343887837,-6.25476120285488));
#843=CARTESIAN_POINT('Ctrl Pts',(-2.64873144722003,-63.1429886303764,-5.47408357063779));
#844=CARTESIAN_POINT('Ctrl Pts',(-2.29809705320012,-61.3962779722255,-11.5216272350604));
#845=CARTESIAN_POINT('Ctrl Pts',(-2.29809706778133,-61.5113711742402,-10.3010287287391));
#846=CARTESIAN_POINT('Ctrl Pts',(-2.29809709595653,-62.0125819544014,-7.94654194168536));
#847=CARTESIAN_POINT('Ctrl Pts',(-2.29809711410388,-62.8519624037242,-6.43758406913261));
#848=CARTESIAN_POINT('Ctrl Pts',(-2.29809712316865,-63.4222987079088,-5.68605126780964));
#849=CARTESIAN_POINT('',(-2.29809712316865,-63.4222987079087,-5.68605126780971));
#850=CARTESIAN_POINT('',(-3.35000008903142,-62.2140413223896,-5.57212174156671));
#851=CARTESIAN_POINT('Ctrl Pts',(-2.29809712316865,-63.4222987079088,-5.68605126780964));
#852=CARTESIAN_POINT('Ctrl Pts',(-2.40987221142105,-63.2913512624875,-5.67370391480979));
#853=CARTESIAN_POINT('Ctrl Pts',(-2.52221817821498,-63.1606327728028,-5.66135734927706));
#854=CARTESIAN_POINT('Ctrl Pts',(-2.63493536077942,-63.0303032450749,-5.64905359561922));
#855=CARTESIAN_POINT('Ctrl Pts',(-2.69770560829026,-62.957724987463,-5.64220184822062));
#856=CARTESIAN_POINT('Ctrl Pts',(-2.76059097661489,-62.8852675747566,-5.63536228065287));
#857=CARTESIAN_POINT('Ctrl Pts',(-2.82355698408721,-62.812959877283,-5.62853555111224));
#858=CARTESIAN_POINT('Ctrl Pts',(-2.95756852391454,-62.6590662723237,-5.61400611571606));
#859=CARTESIAN_POINT('Ctrl Pts',(-3.09232401722768,-62.5054124006825,-5.59950112128909));
#860=CARTESIAN_POINT('Ctrl Pts',(-3.22742630331599,-62.3523266449158,-5.58506202390644));
#861=CARTESIAN_POINT('Ctrl Pts',(-3.26825621219247,-62.3060618655459,-5.58069831513835));
#862=CARTESIAN_POINT('Ctrl Pts',(-3.30911779496352,-62.2598490596384,-5.57634024901504));
#863=CARTESIAN_POINT('Ctrl Pts',(-3.35000008903295,-62.2136974706742,-5.57198814715241));
#864=CARTESIAN_POINT('Ctrl Pts',(-2.29809705320012,-61.3962779722255,-11.5216272350604));
#865=CARTESIAN_POINT('Ctrl Pts',(-2.29809706778133,-61.5113711742402,-10.3010287287391));
#866=CARTESIAN_POINT('Ctrl Pts',(-2.29809709595653,-62.0125819544014,-7.94654194168536));
#867=CARTESIAN_POINT('Ctrl Pts',(-2.29809711410388,-62.8519624037242,-6.43758406913261));
#868=CARTESIAN_POINT('Ctrl Pts',(-2.29809712316865,-63.4222987079088,-5.68605126780964));
#869=CARTESIAN_POINT('Ctrl Pts',(-3.35000001890983,-60.34902032969,-11.4228787656644));
#870=CARTESIAN_POINT('Ctrl Pts',(-3.3500000342958,-60.4704657218271,-10.1349133538438));
#871=CARTESIAN_POINT('Ctrl Pts',(-3.35000006118141,-60.9423588042281,-7.88809988060143));
#872=CARTESIAN_POINT('Ctrl Pts',(-3.35000008037108,-61.7368855211236,-6.29111320074738));
#873=CARTESIAN_POINT('Ctrl Pts',(-3.35000008903374,-62.2137408650909,-5.57192269937356));
#874=CARTESIAN_POINT('Origin',(-3.35000002972854,-57.8676388222421,-11.1889032716508));
#875=CARTESIAN_POINT('',(-3.35000010009229,-59.4779206424997,-5.31412627181344));
#876=CARTESIAN_POINT('',(-3.35000009997289,-59.6035217410947,-5.32596950439181));
#877=CARTESIAN_POINT('Ctrl Pts',(-3.35000002972854,-57.8676388222421,-11.1889032716508));
#878=CARTESIAN_POINT('Ctrl Pts',(-3.35000005827987,-58.0930018498679,-8.79885964553902));
#879=CARTESIAN_POINT('Ctrl Pts',(-3.35000008124402,-58.6624682195581,-6.8821891842318));
#880=CARTESIAN_POINT('Ctrl Pts',(-3.35000010009229,-59.4779206427834,-5.31412627152423));
#881=CARTESIAN_POINT('Ctrl Pts',(-2.29809707315081,-56.8203811704962,-11.0901548026569));
#882=CARTESIAN_POINT('Ctrl Pts',(-2.29809710303085,-57.0562320147214,-8.5888846664707));
#883=CARTESIAN_POINT('Ctrl Pts',(-2.29809712771489,-57.6607317619423,-6.52855521185538));
#884=CARTESIAN_POINT('Ctrl Pts',(-2.29809714814611,-58.5446691978517,-4.82879998999233));
#885=CARTESIAN_POINT('Ctrl Pts',(-2.64873139201005,-57.1694670544115,-11.1230709589882));
#886=CARTESIAN_POINT('Ctrl Pts',(-2.64873142144719,-57.4018219597702,-8.65887632616014));
#887=CARTESIAN_POINT('Ctrl Pts',(-2.64873144555793,-57.9946439144809,-6.64643320264752));
#888=CARTESIAN_POINT('Ctrl Pts',(-2.64873146546151,-58.8557530128289,-4.99057541716963));
#889=CARTESIAN_POINT('Ctrl Pts',(-2.9993657108693,-57.5185529383268,-11.1559871153195));
#890=CARTESIAN_POINT('Ctrl Pts',(-2.99936573986353,-57.7474119048191,-8.72886798584958));
#891=CARTESIAN_POINT('Ctrl Pts',(-2.99936576340098,-58.3285560670195,-6.76431119343966));
#892=CARTESIAN_POINT('Ctrl Pts',(-2.9993657827769,-59.1668368278062,-5.15235084434693));
#893=CARTESIAN_POINT('Ctrl Pts',(-3.35000002972854,-57.8676388222421,-11.1889032716508));
#894=CARTESIAN_POINT('Ctrl Pts',(-3.35000005827987,-58.0930018498679,-8.79885964553902));
#895=CARTESIAN_POINT('Ctrl Pts',(-3.35000008124402,-58.6624682195581,-6.8821891842318));
#896=CARTESIAN_POINT('Ctrl Pts',(-3.35000010009229,-59.4779206427834,-5.31412627152423));
#897=CARTESIAN_POINT('',(-2.2980971435867,-58.3547904607584,-5.20822359754195));
#898=CARTESIAN_POINT('Ctrl Pts',(-3.35000010009229,-59.4779206427834,-5.31412627152423));
#899=CARTESIAN_POINT('Ctrl Pts',(-3.17511700489729,-59.2900172596961,-5.29640840488799));
#900=CARTESIAN_POINT('Ctrl Pts',(-2.99962346747007,-59.1021200120076,-5.27868142445294));
#901=CARTESIAN_POINT('Ctrl Pts',(-2.82414269322577,-58.9148168945769,-5.26099499637218));
#902=CARTESIAN_POINT('Ctrl Pts',(-2.64914714417993,-58.7280316925288,-5.24335747336728));
#903=CARTESIAN_POINT('Ctrl Pts',(-2.47360991218396,-58.5412454367899,-5.22570452205407));
#904=CARTESIAN_POINT('Ctrl Pts',(-2.29809714358839,-58.3549917821983,-5.20808452939365));
#905=CARTESIAN_POINT('Ctrl Pts',(-2.29809707315081,-56.8203811704962,-11.0901548026569));
#906=CARTESIAN_POINT('Ctrl Pts',(-2.29809710084255,-57.0389591831557,-8.77206831334102));
#907=CARTESIAN_POINT('Ctrl Pts',(-2.29809712405634,-57.5724197695533,-6.833945857912));
#908=CARTESIAN_POINT('Ctrl Pts',(-2.2980971435867,-58.3547904610236,-5.20822359724638));
#909=CARTESIAN_POINT('Ctrl Pts',(2.29809700456175,-56.8203811503742,-11.0901548035355));
#910=CARTESIAN_POINT('Ctrl Pts',(2.29809697687001,-57.0389591575503,-8.77206831216016));
#911=CARTESIAN_POINT('Ctrl Pts',(2.29809695365622,-57.5724197372776,-6.83394585315946));
#912=CARTESIAN_POINT('Ctrl Pts',(2.29809693412586,-58.354790422864,-5.20822358739762));
#913=CARTESIAN_POINT('Ctrl Pts',(1.61050797543358,-56.1358285926274,-11.0256066784581));
#914=CARTESIAN_POINT('Ctrl Pts',(1.61050794692581,-56.3608477522561,-8.63920980887652));
#915=CARTESIAN_POINT('Ctrl Pts',(1.61050792271682,-56.9133028220936,-6.61794150478459));
#916=CARTESIAN_POINT('Ctrl Pts',(1.6105079021994,-57.7352143066528,-4.91005568647417));
#917=CARTESIAN_POINT('Ctrl Pts',(-0.156756416765511,-55.5237229095683,-10.9678897446449));
#918=CARTESIAN_POINT('Ctrl Pts',(-0.156756445978142,-55.7543057331125,-8.52248854479595));
#919=CARTESIAN_POINT('Ctrl Pts',(-0.156756471131822,-56.3251429791318,-6.42229926880714));
#920=CARTESIAN_POINT('Ctrl Pts',(-0.156756492501829,-57.1812085490159,-4.64344318987395));
#921=CARTESIAN_POINT('Ctrl Pts',(-1.78240530578161,-56.3069667476708,-11.041743709046));
#922=CARTESIAN_POINT('Ctrl Pts',(-1.78240533407689,-56.5303087280721,-8.67313388147583));
#923=CARTESIAN_POINT('Ctrl Pts',(-1.78240535805581,-57.0784927317492,-6.67108927584257));
#924=CARTESIAN_POINT('Ctrl Pts',(-1.78240537831621,-57.8901083653022,-4.98459766934374));
#925=CARTESIAN_POINT('Ctrl Pts',(-2.29809707315081,-56.8203811704962,-11.0901548026569));
#926=CARTESIAN_POINT('Ctrl Pts',(-2.29809710084255,-57.0389591831557,-8.77206831334102));
#927=CARTESIAN_POINT('Ctrl Pts',(-2.29809712405634,-57.5724197695533,-6.833945857912));
#928=CARTESIAN_POINT('Ctrl Pts',(-2.2980971435867,-58.3547904610236,-5.20822359724638));
#929=CARTESIAN_POINT('',(2.29809693412586,-58.3547904184434,-5.20822359632785));
#930=CARTESIAN_POINT('Ctrl Pts',(-2.2980971435867,-58.3547904610236,-5.20822359724638));
#931=CARTESIAN_POINT('Ctrl Pts',(-2.00492175159837,-58.0435553898406,-5.17887648601965));
#932=CARTESIAN_POINT('Ctrl Pts',(-1.65476274706187,-57.7923018217591,-5.15518517655323));
#933=CARTESIAN_POINT('Ctrl Pts',(-0.892316403717673,-57.4527772013156,-5.12317057524466));
#934=CARTESIAN_POINT('Ctrl Pts',(-0.492805386939434,-57.3611954450358,-5.1145351090744));
#935=CARTESIAN_POINT('Ctrl Pts',(0.315200603484243,-57.3386789318339,-5.11241197280005));
#936=CARTESIAN_POINT('Ctrl Pts',(0.713773733320602,-57.4058329344887,-5.11874408718768));
#937=CARTESIAN_POINT('Ctrl Pts',(1.31731769874882,-57.6322357690107,-5.14009216115327));
#938=CARTESIAN_POINT('Ctrl Pts',(1.5341790849809,-57.7438723868075,-5.15061864933963));
#939=CARTESIAN_POINT('Ctrl Pts',(1.94119216138818,-58.0158193277106,-5.17626118768461));
#940=CARTESIAN_POINT('Ctrl Pts',(2.12933720209606,-58.1756350489934,-5.19133060063379));
#941=CARTESIAN_POINT('Ctrl Pts',(2.29809693412586,-58.3547904187086,-5.20822359603228));
#942=CARTESIAN_POINT('Ctrl Pts',(2.29809700456175,-56.8203811503742,-11.0901548035355));
#943=CARTESIAN_POINT('Ctrl Pts',(2.2980969768711,-57.0389505656869,-8.77215943149445));
#944=CARTESIAN_POINT('Ctrl Pts',(2.2980969536429,-57.5741243303285,-6.83285428870677));
#945=CARTESIAN_POINT('Ctrl Pts',(2.29809693412647,-58.3548996671206,-5.20827610235968));
#946=CARTESIAN_POINT('Ctrl Pts',(3.34999997027146,-57.8676387929097,-11.1889032729315));
#947=CARTESIAN_POINT('Ctrl Pts',(3.34999994172012,-58.0930018112364,-8.79885965072986));
#948=CARTESIAN_POINT('Ctrl Pts',(3.34999991875597,-58.6624681674696,-6.8821891878759));
#949=CARTESIAN_POINT('Ctrl Pts',(3.3499998999077,-59.477920577833,-5.31412626944639));
#950=CARTESIAN_POINT('Ctrl Pts',(2.99936564836822,-57.5185529120645,-11.1559871164662));
#951=CARTESIAN_POINT('Ctrl Pts',(2.99936561937398,-57.74741187015,-8.72886799135633));
#952=CARTESIAN_POINT('Ctrl Pts',(2.99936559583654,-58.328556019938,-6.76431119820144));
#953=CARTESIAN_POINT('Ctrl Pts',(2.99936557646061,-59.1668367686832,-5.15235084435337));
#954=CARTESIAN_POINT('Ctrl Pts',(2.64873132646498,-57.1694670312194,-11.1230709600008));
#955=CARTESIAN_POINT('Ctrl Pts',(2.64873129702784,-57.4018219290636,-8.65887633198279));
#956=CARTESIAN_POINT('Ctrl Pts',(2.6487312729171,-57.9946438724064,-6.646433208527));
#957=CARTESIAN_POINT('Ctrl Pts',(2.64873125301353,-58.8557529595333,-4.99057541926035));
#958=CARTESIAN_POINT('Ctrl Pts',(2.29809700456175,-56.8203811503742,-11.0901548035355));
#959=CARTESIAN_POINT('Ctrl Pts',(2.29809697468171,-57.0562319879772,-8.58888467260925));
#960=CARTESIAN_POINT('Ctrl Pts',(2.29809694999767,-57.6607317248748,-6.52855521885255));
#961=CARTESIAN_POINT('Ctrl Pts',(2.29809692956644,-58.5446691503834,-4.82879999416733));
#962=CARTESIAN_POINT('',(3.3499998999077,-59.4779205775493,-5.3141262697356));
#963=CARTESIAN_POINT('Ctrl Pts',(2.29809693412416,-58.3549917398725,-5.20808452817862));
#964=CARTESIAN_POINT('Ctrl Pts',(2.47355464134543,-58.5411869582855,-5.22569899286422));
#965=CARTESIAN_POINT('Ctrl Pts',(2.64903670645716,-58.7279143477431,-5.2433463866224));
#966=CARTESIAN_POINT('Ctrl Pts',(2.823977526483,-58.9146407658548,-5.26097836851914));
#967=CARTESIAN_POINT('Ctrl Pts',(2.99951337126415,-59.1020022949784,-5.27867032192917));
#968=CARTESIAN_POINT('Ctrl Pts',(3.17506209085817,-59.2899584130273,-5.29640285992777));
#969=CARTESIAN_POINT('Ctrl Pts',(3.3499998999077,-59.477920577833,-5.31412626944639));
#970=CARTESIAN_POINT('Ctrl Pts',(3.34999997027146,-57.8676387929097,-11.1889032729315));
#971=CARTESIAN_POINT('Ctrl Pts',(3.34999994172012,-58.0930018112364,-8.79885965072986));
#972=CARTESIAN_POINT('Ctrl Pts',(3.34999991875597,-58.6624681674696,-6.8821891878759));
#973=CARTESIAN_POINT('Ctrl Pts',(3.3499998999077,-59.477920577833,-5.31412626944639));
#974=CARTESIAN_POINT('Origin',(3.34999998109016,-60.3490203003576,-11.422878766945));
#975=CARTESIAN_POINT('',(3.34999991096858,-62.214041245509,-5.57212173836393));
#976=CARTESIAN_POINT('',(3.3499999096663,-60.8442124768066,-5.44295725374666));
#977=CARTESIAN_POINT('Ctrl Pts',(3.34999998109016,-60.3490203003576,-11.422878766945));
#978=CARTESIAN_POINT('Ctrl Pts',(3.34999996570419,-60.4704656867847,-10.1349133583175));
#979=CARTESIAN_POINT('Ctrl Pts',(3.34999993881859,-60.9423587538342,-7.88809988811389));
#980=CARTESIAN_POINT('Ctrl Pts',(3.34999991962891,-61.7368854530476,-6.29111320135042));
#981=CARTESIAN_POINT('Ctrl Pts',(3.34999991096625,-62.2137407882106,-5.57192269617926));
#982=CARTESIAN_POINT('Ctrl Pts',(2.29809702451244,-61.3962779521035,-11.5216272359389));
#983=CARTESIAN_POINT('Ctrl Pts',(2.29809700993123,-61.5113711500739,-10.3010287331571));
#984=CARTESIAN_POINT('Ctrl Pts',(2.29809698175603,-62.0125819178005,-7.9465419490257));
#985=CARTESIAN_POINT('Ctrl Pts',(2.29809696360868,-62.8519623528474,-6.43758406992564));
#986=CARTESIAN_POINT('Ctrl Pts',(2.29809695454391,-63.4222986495817,-5.68605126508573));
#987=CARTESIAN_POINT('Ctrl Pts',(2.64873134337168,-61.0471920681882,-11.4887110796076));
#988=CARTESIAN_POINT('Ctrl Pts',(2.64873132852222,-61.1644026623109,-10.2456569415439));
#989=CARTESIAN_POINT('Ctrl Pts',(2.64873129961846,-61.676173273576,-7.83025302979271));
#990=CARTESIAN_POINT('Ctrl Pts',(2.6487312806713,-62.5505343310511,-6.25476120218459));
#991=CARTESIAN_POINT('Ctrl Pts',(2.648731271255,-63.1429885645138,-5.47408356570124));
#992=CARTESIAN_POINT('Ctrl Pts',(2.99936566223092,-60.6981061842729,-11.4557949232763));
#993=CARTESIAN_POINT('Ctrl Pts',(2.99936564711321,-60.8174341745478,-10.1902851499307));
#994=CARTESIAN_POINT('Ctrl Pts',(2.9993656174809,-61.3397646293515,-7.71396411055972));
#995=CARTESIAN_POINT('Ctrl Pts',(2.99936559773393,-62.2491063092548,-6.07193833444355));
#996=CARTESIAN_POINT('Ctrl Pts',(2.99936558796609,-62.863678479446,-5.26211586631675));
#997=CARTESIAN_POINT('Ctrl Pts',(3.34999998109016,-60.3490203003576,-11.422878766945));
#998=CARTESIAN_POINT('Ctrl Pts',(3.34999996570419,-60.4704656867847,-10.1349133583175));
#999=CARTESIAN_POINT('Ctrl Pts',(3.34999993534333,-61.003355985127,-7.59767519132674));
#1000=CARTESIAN_POINT('Ctrl Pts',(3.34999991479655,-61.9476782874585,-5.8891154667025));
#1001=CARTESIAN_POINT('Ctrl Pts',(3.34999990467718,-62.5843683943781,-5.05014816693226));
#1002=CARTESIAN_POINT('',(2.29809695454391,-63.4222986495816,-5.6860512650858));
#1003=CARTESIAN_POINT('Ctrl Pts',(3.34999991096704,-62.2136973938111,-5.57198814393373));
#1004=CARTESIAN_POINT('Ctrl Pts',(3.21470101133646,-62.3664348928031,-5.58639131317327));
#1005=CARTESIAN_POINT('Ctrl Pts',(3.07962930663593,-62.519841774116,-5.60086302912457));
#1006=CARTESIAN_POINT('Ctrl Pts',(2.94518216655496,-62.6735860666578,-5.61537710703059));
#1007=CARTESIAN_POINT('Ctrl Pts',(2.90485163950288,-62.7197052205923,-5.61973094015245));
#1008=CARTESIAN_POINT('Ctrl Pts',(2.86457731319116,-62.7658548062038,-5.62408826506726));
#1009=CARTESIAN_POINT('Ctrl Pts',(2.82436991371687,-62.812026087074,-5.62844739335382));
#1010=CARTESIAN_POINT('Ctrl Pts',(2.71128813948494,-62.9418810497833,-5.64070727504709));
#1011=CARTESIAN_POINT('Ctrl Pts',(2.59846607697828,-63.072218672974,-5.65301112337288));
#1012=CARTESIAN_POINT('Ctrl Pts',(2.48610351041677,-63.2028734221699,-5.66534542270715));
#1013=CARTESIAN_POINT('Ctrl Pts',(2.42327937310698,-63.2759250812308,-5.67224177385603));
#1014=CARTESIAN_POINT('Ctrl Pts',(2.36059888110662,-63.3490760026306,-5.67914692375479));
#1015=CARTESIAN_POINT('Ctrl Pts',(2.29809695454391,-63.4222986495817,-5.68605126508573));
#1016=CARTESIAN_POINT('Ctrl Pts',(2.29809702451244,-61.3962779521035,-11.5216272359389));
#1017=CARTESIAN_POINT('Ctrl Pts',(2.29809700236936,-61.5710589450713,-9.668021444344));
#1018=CARTESIAN_POINT('Ctrl Pts',(2.29809697733404,-62.180763875283,-7.57832156841099));
#1019=CARTESIAN_POINT('Ctrl Pts',(2.29809696006284,-63.0733208474513,-6.14358353187318));
#1020=CARTESIAN_POINT('Ctrl Pts',(2.29809695453919,-63.4217666455335,-5.68564745457687));
#1021=CARTESIAN_POINT('Ctrl Pts',(-2.29809705320013,-61.3962779722255,-11.5216272350604));
#1022=CARTESIAN_POINT('Ctrl Pts',(-2.2980970753432,-61.5710589706353,-9.66802144550933));
#1023=CARTESIAN_POINT('Ctrl Pts',(-2.29809710386122,-62.2655809074048,-7.28762019720116));
#1024=CARTESIAN_POINT('Ctrl Pts',(-2.29809712230472,-63.3271246116375,-5.75708113556455));
#1025=CARTESIAN_POINT('Ctrl Pts',(-2.29809712956418,-63.8560637550838,-5.1562744668108));
#1026=CARTESIAN_POINT('Ctrl Pts',(-1.782405281354,-61.9096923905356,-11.5700383288685));
#1027=CARTESIAN_POINT('Ctrl Pts',(-1.78240530289807,-62.0797453317611,-9.76657502177779));
#1028=CARTESIAN_POINT('Ctrl Pts',(-1.78240533008123,-62.7485416908782,-7.49769385188498));
#1029=CARTESIAN_POINT('Ctrl Pts',(-1.78240534732624,-63.7416773881736,-6.06662047874642));
#1030=CARTESIAN_POINT('Ctrl Pts',(-1.78240535420842,-64.2431272689931,-5.49703806743857));
#1031=CARTESIAN_POINT('Ctrl Pts',(-0.156769457608678,-62.6928438439515,
-11.6438835840566));
#1032=CARTESIAN_POINT('Ctrl Pts',(-0.156769478242326,-62.8557105211458,
-9.91663277860294));
#1033=CARTESIAN_POINT('Ctrl Pts',(-0.156769503384205,-63.484973242002,-7.81828616754572));
#1034=CARTESIAN_POINT('Ctrl Pts',(-0.156769518800834,-64.3738772961046,
-6.53895570350593));
#1035=CARTESIAN_POINT('Ctrl Pts',(-0.156769525109588,-64.8335457292362,
-6.01683162751768));
#1036=CARTESIAN_POINT('Ctrl Pts',(1.6105080013535,-62.0808305158707,-11.5861753607535));
#1037=CARTESIAN_POINT('Ctrl Pts',(1.6105079800203,-62.2492189127397,-9.80036501026098));
#1038=CARTESIAN_POINT('Ctrl Pts',(1.61050795326457,-62.9104426814547,-7.56720258917773));
#1039=CARTESIAN_POINT('Ctrl Pts',(1.61050793641831,-63.8803762848659,-6.16921564815785));
#1040=CARTESIAN_POINT('Ctrl Pts',(1.61050792966895,-64.3721484060579,-5.61062591887173));
#1041=CARTESIAN_POINT('Ctrl Pts',(2.29809702451244,-61.3962779521035,-11.5216272359389));
#1042=CARTESIAN_POINT('Ctrl Pts',(2.29809700236936,-61.5710589450713,-9.668021444344));
#1043=CARTESIAN_POINT('Ctrl Pts',(2.29809697385134,-62.2655808702018,-7.28762018979931));
#1044=CARTESIAN_POINT('Ctrl Pts',(2.29809695540784,-63.3271245654278,-5.75708111753535));
#1045=CARTESIAN_POINT('Ctrl Pts',(2.29809694814838,-63.8560637062279,-5.15627444477492));
#1046=CARTESIAN_POINT('Ctrl Pts',(2.29809695454391,-63.4222986495817,-5.68605126508572));
#1047=CARTESIAN_POINT('Ctrl Pts',(2.00823049225874,-63.7618848159307,-5.71807166999274));
#1048=CARTESIAN_POINT('Ctrl Pts',(1.65760010171046,-64.0504401354258,-5.74528025226879));
#1049=CARTESIAN_POINT('Ctrl Pts',(0.930026747517134,-64.4211691379319,-5.78023719063388));
#1050=CARTESIAN_POINT('Ctrl Pts',(0.57450694366087,-64.5265247223758,-5.79017142457192));
#1051=CARTESIAN_POINT('Ctrl Pts',(-0.140508015761636,-64.5820945760564,
-5.79541124072136));
#1052=CARTESIAN_POINT('Ctrl Pts',(-0.483801537371202,-64.5406666331184,
-5.79150489907027));
#1053=CARTESIAN_POINT('Ctrl Pts',(-1.09930608661729,-64.3460424899972,-5.77315331515643));
#1054=CARTESIAN_POINT('Ctrl Pts',(-1.36762624551574,-64.211305148622,-5.76044860356236));
#1055=CARTESIAN_POINT('Ctrl Pts',(-1.86831029345886,-63.8674340186518,-5.72802415854227));
#1056=CARTESIAN_POINT('Ctrl Pts',(-2.09777409057921,-63.6569823908901,-5.7081801628618));
#1057=CARTESIAN_POINT('Ctrl Pts',(-2.29809712316864,-63.4222987079088,-5.68605126780964));
#1058=CARTESIAN_POINT('Origin',(7.25000000526499,-65.7616945658442,-8.91994567624798));
#1059=CARTESIAN_POINT('',(7.25000000526499,-65.7616945658442,-8.91994567624798));
#1060=CARTESIAN_POINT('',(7.24999995686646,-54.6609341374087,-7.87322799201717));
#1061=CARTESIAN_POINT('',(7.24999999378274,-63.1281074638856,-8.67161834675073));
#1062=CARTESIAN_POINT('',(5.25000000526499,-65.7616945746001,-8.91994567586569));
#1063=CARTESIAN_POINT('',(-0.0499999947350124,-65.7616946089728,-8.91994567590582));
#1064=CARTESIAN_POINT('',(5.24999995686646,-54.6609341461646,-7.87322799163488));
#1065=CARTESIAN_POINT('',(5.24999995686646,-54.6609341461646,-7.87322799163488));
#1066=CARTESIAN_POINT('',(-0.6226146405822,-54.660934160705,-7.87322798945915));
#1067=CARTESIAN_POINT('Origin',(5.24999998106573,-60.2113143603823,-8.39658683375029));
#1068=CARTESIAN_POINT('',(5.24999995651031,-54.6053296278054,-8.46293075604775));
#1069=CARTESIAN_POINT('',(5.25000000616692,-65.902508624007,-7.42656983452847));
#1070=CARTESIAN_POINT('Origin',(-7.34999999293116,-66.0433227174065,-5.93319398972962));
#1071=CARTESIAN_POINT('',(7.25000000706885,-66.0433226534884,-5.93319399252034));
#1072=CARTESIAN_POINT('',(7.25000000922902,-66.3805798720934,-2.35647828120991));
#1073=CARTESIAN_POINT('',(-7.24999999293116,-66.0433227169687,-5.93319398974874));
#1074=CARTESIAN_POINT('',(-7.34999999293116,-66.0433227174065,-5.93319398972962));
#1075=CARTESIAN_POINT('',(-7.24999999473502,-65.7616946293245,-8.91994567347637));
#1076=CARTESIAN_POINT('',(-7.24999999099687,-66.3453142851599,-2.73048102273844));
#1077=CARTESIAN_POINT('',(-5.24999999473502,-65.7616946205686,-8.91994567385866));
#1078=CARTESIAN_POINT('',(-7.29999999473502,-65.7616946407129,-8.91994567452002));
#1079=CARTESIAN_POINT('',(-5.24999999383309,-65.9025086699755,-7.42656983252145));
#1080=CARTESIAN_POINT('Origin',(-7.25000004313355,-54.660934200889,-7.87322798924556));
#1081=CARTESIAN_POINT('',(-7.25000004313355,-54.660934200889,-7.87322798924556));
#1082=CARTESIAN_POINT('',(-7.25000003041654,-57.5777273131482,-8.14825950186372));
#1083=CARTESIAN_POINT('',(-5.25000004313355,-54.6609341921331,-7.87322798962785));
#1084=CARTESIAN_POINT('',(-7.8726146405822,-54.6609341924452,-7.87322798807335));
#1085=CARTESIAN_POINT('',(-5.25000004313355,-54.6609341921331,-7.87322798962785));
#1086=CARTESIAN_POINT('Origin',(-5.25000001893428,-60.2113144063508,-8.39658683174326));
#1087=CARTESIAN_POINT('',(-5.2500000434897,-54.6053296737739,-8.46293075404072));
#1088=CARTESIAN_POINT('Origin',(-7.25000001157533,-61.4506629390922,1.71689209291983));
#1089=CARTESIAN_POINT('',(-7.25000004132969,-54.9425622885332,-4.88647630551793));
#1090=CARTESIAN_POINT('',(-7.25000001589567,-60.7761485018821,-5.43653932970102));
#1091=CARTESIAN_POINT('',(-7.25000004007145,-55.1390054689009,-2.80313643659792));
#1092=CARTESIAN_POINT('Origin',(-8.49522923874317,-54.5497251807917,-9.05263351888648));
#1093=CARTESIAN_POINT('',(7.24999995867032,-54.9425622250529,-4.88647630828954));
#1094=CARTESIAN_POINT('',(-7.35000004132969,-54.942562288971,-4.88647630549881));
#1095=CARTESIAN_POINT('',(7.24999995957241,-55.0834008758918,-3.39283920272919));
#1096=CARTESIAN_POINT('Origin',(7.24999998842468,-61.4506628756118,1.71689209014822));
#1097=CARTESIAN_POINT('',(7.24999998410435,-60.7761484384018,-5.43653933247263));
#1098=CARTESIAN_POINT('Origin',(-3.67022970146599,-60.77614848621,-5.43653933038528));
#1099=UNCERTAINTY_MEASURE_WITH_UNIT(LENGTH_MEASURE(0.01),#1103,
'DISTANCE_ACCURACY_VALUE',
'Maximum model space distance between geometric entities at asserted c
onnectivities');
#1100=UNCERTAINTY_MEASURE_WITH_UNIT(LENGTH_MEASURE(0.01),#1103,
'DISTANCE_ACCURACY_VALUE',
'Maximum model space distance between geometric entities at asserted c
onnectivities');
#1101=(
GEOMETRIC_REPRESENTATION_CONTEXT(3)
GLOBAL_UNCERTAINTY_ASSIGNED_CONTEXT((#1099))
GLOBAL_UNIT_ASSIGNED_CONTEXT((#1103,#1105,#1106))
REPRESENTATION_CONTEXT('','3D')
);
#1102=(
GEOMETRIC_REPRESENTATION_CONTEXT(3)
GLOBAL_UNCERTAINTY_ASSIGNED_CONTEXT((#1100))
GLOBAL_UNIT_ASSIGNED_CONTEXT((#1103,#1105,#1106))
REPRESENTATION_CONTEXT('','3D')
);
#1103=(
LENGTH_UNIT()
NAMED_UNIT(*)
SI_UNIT(.MILLI.,.METRE.)
);
#1104=(
LENGTH_UNIT()
NAMED_UNIT(*)
SI_UNIT($,.METRE.)
);
#1105=(
NAMED_UNIT(*)
PLANE_ANGLE_UNIT()
SI_UNIT($,.RADIAN.)
);
#1106=(
NAMED_UNIT(*)
SI_UNIT($,.STERADIAN.)
SOLID_ANGLE_UNIT()
);
#1107=SHAPE_DEFINITION_REPRESENTATION(#1108,#1109);
#1108=PRODUCT_DEFINITION_SHAPE('',$,#1111);
#1109=SHAPE_REPRESENTATION('',(#563),#1101);
#1110=PRODUCT_DEFINITION_CONTEXT('part definition',#1115,'design');
#1111=PRODUCT_DEFINITION('34. Magwell Feed Lip','34. Magwell Feed Lip',
#1112,#1110);
#1112=PRODUCT_DEFINITION_FORMATION('',$,#1117);
#1113=PRODUCT_RELATED_PRODUCT_CATEGORY('34. Magwell Feed Lip',
'34. Magwell Feed Lip',(#1117));
#1114=APPLICATION_PROTOCOL_DEFINITION('international standard',
'automotive_design',2009,#1115);
#1115=APPLICATION_CONTEXT(
'Core Data for Automotive Mechanical Design Process');
#1116=PRODUCT_CONTEXT('part definition',#1115,'mechanical');
#1117=PRODUCT('34. Magwell Feed Lip','34. Magwell Feed Lip',$,(#1116));
#1118=PRESENTATION_STYLE_ASSIGNMENT((#1120));
#1119=PRESENTATION_STYLE_ASSIGNMENT((#1121));
#1120=SURFACE_STYLE_USAGE(.BOTH.,#1122);
#1121=SURFACE_STYLE_USAGE(.BOTH.,#1123);
#1122=SURFACE_SIDE_STYLE('',(#1124));
#1123=SURFACE_SIDE_STYLE('',(#1125));
#1124=SURFACE_STYLE_FILL_AREA(#1126);
#1125=SURFACE_STYLE_FILL_AREA(#1127);
#1126=FILL_AREA_STYLE('Steel - Satin',(#1128));
#1127=FILL_AREA_STYLE('Plastic - Matte (Black) (1)',(#1129));
#1128=FILL_AREA_STYLE_COLOUR('Steel - Satin',#1130);
#1129=FILL_AREA_STYLE_COLOUR('Plastic - Matte (Black) (1)',#1131);
#1130=COLOUR_RGB('Steel - Satin',0.627450980392157,0.627450980392157,0.627450980392157);
#1131=COLOUR_RGB('Plastic - Matte (Black) (1)',0.0980392156862745,0.0980392156862745,
0.0980392156862745);
ENDSEC;
END-ISO-10303-21;
