ISO-10303-21;
HEADER;
/* Generated by software containing ST-Developer
 * from STEP Tools, Inc. (www.steptools.com) 
 */

FILE_DESCRIPTION(
/* description */ (''),
/* implementation_level */ '2;1');

FILE_NAME(
/* name */ '36. Bottom Cover.step',
/* time_stamp */ '2025-10-08T23:26:28+01:00',
/* author */ (''),
/* organization */ (''),
/* preprocessor_version */ 'ST-DEVELOPER v20.1',
/* originating_system */ 'Autodesk Translation Framework v14.10.0.0',
/* authorisation */ '');

FILE_SCHEMA (('AUTOMOTIVE_DESIGN { 1 0 10303 214 3 1 1 }'));
ENDSEC;

DATA;
#10=MECHANICAL_DESIGN_GEOMETRIC_PRESENTATION_REPRESENTATION('',(#13),#348);
#11=SHAPE_REPRESENTATION_RELATIONSHIP('SRR','None',#355,#12);
#12=ADVANCED_BREP_SHAPE_REPRESENTATION('',(#14),#347);
#13=STYLED_ITEM('',(#365),#14);
#14=MANIFOLD_SOLID_BREP('36. Bottom Cover',#212);
#15=FACE_OUTER_BOUND('',#26,.T.);
#16=FACE_OUTER_BOUND('',#27,.T.);
#17=FACE_OUTER_BOUND('',#28,.T.);
#18=FACE_OUTER_BOUND('',#29,.T.);
#19=FACE_OUTER_BOUND('',#30,.T.);
#20=FACE_OUTER_BOUND('',#31,.T.);
#21=FACE_OUTER_BOUND('',#32,.T.);
#22=FACE_OUTER_BOUND('',#33,.T.);
#23=FACE_OUTER_BOUND('',#34,.T.);
#24=FACE_OUTER_BOUND('',#35,.T.);
#25=FACE_OUTER_BOUND('',#36,.T.);
#26=EDGE_LOOP('',(#136,#137,#138,#139));
#27=EDGE_LOOP('',(#140,#141,#142,#143));
#28=EDGE_LOOP('',(#144,#145,#146,#147,#148));
#29=EDGE_LOOP('',(#149,#150,#151,#152,#153,#154,#155,#156));
#30=EDGE_LOOP('',(#157,#158,#159,#160,#161));
#31=EDGE_LOOP('',(#162,#163,#164,#165,#166,#167,#168,#169));
#32=EDGE_LOOP('',(#170,#171,#172,#173));
#33=EDGE_LOOP('',(#174,#175,#176,#177));
#34=EDGE_LOOP('',(#178,#179,#180,#181));
#35=EDGE_LOOP('',(#182,#183,#184,#185));
#36=EDGE_LOOP('',(#186,#187,#188,#189));
#37=LINE('',#292,#64);
#38=LINE('',#294,#65);
#39=LINE('',#296,#66);
#40=LINE('',#297,#67);
#41=LINE('',#300,#68);
#42=LINE('',#302,#69);
#43=LINE('',#303,#70);
#44=LINE('',#306,#71);
#45=LINE('',#308,#72);
#46=LINE('',#309,#73);
#47=LINE('',#312,#74);
#48=LINE('',#314,#75);
#49=LINE('',#316,#76);
#50=LINE('',#318,#77);
#51=LINE('',#320,#78);
#52=LINE('',#321,#79);
#53=LINE('',#324,#80);
#54=LINE('',#325,#81);
#55=LINE('',#328,#82);
#56=LINE('',#330,#83);
#57=LINE('',#332,#84);
#58=LINE('',#334,#85);
#59=LINE('',#335,#86);
#60=LINE('',#337,#87);
#61=LINE('',#339,#88);
#62=LINE('',#341,#89);
#63=LINE('',#343,#90);
#64=VECTOR('',#241,10.);
#65=VECTOR('',#242,10.);
#66=VECTOR('',#243,10.);
#67=VECTOR('',#244,10.);
#68=VECTOR('',#247,10.);
#69=VECTOR('',#248,10.);
#70=VECTOR('',#249,10.);
#71=VECTOR('',#252,10.);
#72=VECTOR('',#253,10.);
#73=VECTOR('',#254,10.);
#74=VECTOR('',#257,10.);
#75=VECTOR('',#258,10.);
#76=VECTOR('',#259,10.);
#77=VECTOR('',#260,10.);
#78=VECTOR('',#261,10.);
#79=VECTOR('',#262,10.);
#80=VECTOR('',#265,10.);
#81=VECTOR('',#266,10.);
#82=VECTOR('',#269,10.);
#83=VECTOR('',#270,10.);
#84=VECTOR('',#271,10.);
#85=VECTOR('',#272,10.);
#86=VECTOR('',#273,10.);
#87=VECTOR('',#276,10.);
#88=VECTOR('',#279,10.);
#89=VECTOR('',#282,10.);
#90=VECTOR('',#285,10.);
#91=VERTEX_POINT('',#290);
#92=VERTEX_POINT('',#291);
#93=VERTEX_POINT('',#293);
#94=VERTEX_POINT('',#295);
#95=VERTEX_POINT('',#299);
#96=VERTEX_POINT('',#301);
#97=VERTEX_POINT('',#305);
#98=VERTEX_POINT('',#307);
#99=VERTEX_POINT('',#311);
#100=VERTEX_POINT('',#313);
#101=VERTEX_POINT('',#315);
#102=VERTEX_POINT('',#317);
#103=VERTEX_POINT('',#319);
#104=VERTEX_POINT('',#323);
#105=VERTEX_POINT('',#327);
#106=VERTEX_POINT('',#329);
#107=VERTEX_POINT('',#331);
#108=VERTEX_POINT('',#333);
#109=EDGE_CURVE('',#91,#92,#37,.T.);
#110=EDGE_CURVE('',#92,#93,#38,.T.);
#111=EDGE_CURVE('',#93,#94,#39,.T.);
#112=EDGE_CURVE('',#94,#91,#40,.T.);
#113=EDGE_CURVE('',#94,#95,#41,.T.);
#114=EDGE_CURVE('',#96,#95,#42,.F.);
#115=EDGE_CURVE('',#91,#96,#43,.F.);
#116=EDGE_CURVE('',#97,#93,#44,.T.);
#117=EDGE_CURVE('',#97,#98,#45,.T.);
#118=EDGE_CURVE('',#95,#98,#46,.F.);
#119=EDGE_CURVE('',#92,#99,#47,.T.);
#120=EDGE_CURVE('',#99,#100,#48,.T.);
#121=EDGE_CURVE('',#100,#101,#49,.T.);
#122=EDGE_CURVE('',#102,#101,#50,.T.);
#123=EDGE_CURVE('',#102,#103,#51,.T.);
#124=EDGE_CURVE('',#103,#97,#52,.T.);
#125=EDGE_CURVE('',#104,#96,#53,.F.);
#126=EDGE_CURVE('',#99,#104,#54,.T.);
#127=EDGE_CURVE('',#98,#105,#55,.F.);
#128=EDGE_CURVE('',#105,#106,#56,.F.);
#129=EDGE_CURVE('',#106,#107,#57,.T.);
#130=EDGE_CURVE('',#107,#108,#58,.F.);
#131=EDGE_CURVE('',#108,#104,#59,.F.);
#132=EDGE_CURVE('',#103,#105,#60,.T.);
#133=EDGE_CURVE('',#100,#108,#61,.F.);
#134=EDGE_CURVE('',#101,#107,#62,.F.);
#135=EDGE_CURVE('',#102,#106,#63,.T.);
#136=ORIENTED_EDGE('',*,*,#109,.T.);
#137=ORIENTED_EDGE('',*,*,#110,.T.);
#138=ORIENTED_EDGE('',*,*,#111,.T.);
#139=ORIENTED_EDGE('',*,*,#112,.T.);
#140=ORIENTED_EDGE('',*,*,#112,.F.);
#141=ORIENTED_EDGE('',*,*,#113,.T.);
#142=ORIENTED_EDGE('',*,*,#114,.F.);
#143=ORIENTED_EDGE('',*,*,#115,.F.);
#144=ORIENTED_EDGE('',*,*,#111,.F.);
#145=ORIENTED_EDGE('',*,*,#116,.F.);
#146=ORIENTED_EDGE('',*,*,#117,.T.);
#147=ORIENTED_EDGE('',*,*,#118,.F.);
#148=ORIENTED_EDGE('',*,*,#113,.F.);
#149=ORIENTED_EDGE('',*,*,#110,.F.);
#150=ORIENTED_EDGE('',*,*,#119,.T.);
#151=ORIENTED_EDGE('',*,*,#120,.T.);
#152=ORIENTED_EDGE('',*,*,#121,.T.);
#153=ORIENTED_EDGE('',*,*,#122,.F.);
#154=ORIENTED_EDGE('',*,*,#123,.T.);
#155=ORIENTED_EDGE('',*,*,#124,.T.);
#156=ORIENTED_EDGE('',*,*,#116,.T.);
#157=ORIENTED_EDGE('',*,*,#109,.F.);
#158=ORIENTED_EDGE('',*,*,#115,.T.);
#159=ORIENTED_EDGE('',*,*,#125,.F.);
#160=ORIENTED_EDGE('',*,*,#126,.F.);
#161=ORIENTED_EDGE('',*,*,#119,.F.);
#162=ORIENTED_EDGE('',*,*,#114,.T.);
#163=ORIENTED_EDGE('',*,*,#118,.T.);
#164=ORIENTED_EDGE('',*,*,#127,.T.);
#165=ORIENTED_EDGE('',*,*,#128,.T.);
#166=ORIENTED_EDGE('',*,*,#129,.T.);
#167=ORIENTED_EDGE('',*,*,#130,.T.);
#168=ORIENTED_EDGE('',*,*,#131,.T.);
#169=ORIENTED_EDGE('',*,*,#125,.T.);
#170=ORIENTED_EDGE('',*,*,#124,.F.);
#171=ORIENTED_EDGE('',*,*,#132,.T.);
#172=ORIENTED_EDGE('',*,*,#127,.F.);
#173=ORIENTED_EDGE('',*,*,#117,.F.);
#174=ORIENTED_EDGE('',*,*,#120,.F.);
#175=ORIENTED_EDGE('',*,*,#126,.T.);
#176=ORIENTED_EDGE('',*,*,#131,.F.);
#177=ORIENTED_EDGE('',*,*,#133,.F.);
#178=ORIENTED_EDGE('',*,*,#121,.F.);
#179=ORIENTED_EDGE('',*,*,#133,.T.);
#180=ORIENTED_EDGE('',*,*,#130,.F.);
#181=ORIENTED_EDGE('',*,*,#134,.F.);
#182=ORIENTED_EDGE('',*,*,#122,.T.);
#183=ORIENTED_EDGE('',*,*,#134,.T.);
#184=ORIENTED_EDGE('',*,*,#129,.F.);
#185=ORIENTED_EDGE('',*,*,#135,.F.);
#186=ORIENTED_EDGE('',*,*,#123,.F.);
#187=ORIENTED_EDGE('',*,*,#135,.T.);
#188=ORIENTED_EDGE('',*,*,#128,.F.);
#189=ORIENTED_EDGE('',*,*,#132,.F.);
#190=PLANE('',#226);
#191=PLANE('',#227);
#192=PLANE('',#228);
#193=PLANE('',#229);
#194=PLANE('',#230);
#195=PLANE('',#231);
#196=PLANE('',#232);
#197=PLANE('',#233);
#198=PLANE('',#234);
#199=PLANE('',#235);
#200=PLANE('',#236);
#201=ADVANCED_FACE('',(#15),#190,.T.);
#202=ADVANCED_FACE('',(#16),#191,.T.);
#203=ADVANCED_FACE('',(#17),#192,.T.);
#204=ADVANCED_FACE('',(#18),#193,.F.);
#205=ADVANCED_FACE('',(#19),#194,.T.);
#206=ADVANCED_FACE('',(#20),#195,.T.);
#207=ADVANCED_FACE('',(#21),#196,.T.);
#208=ADVANCED_FACE('',(#22),#197,.T.);
#209=ADVANCED_FACE('',(#23),#198,.T.);
#210=ADVANCED_FACE('',(#24),#199,.T.);
#211=ADVANCED_FACE('',(#25),#200,.T.);
#212=CLOSED_SHELL('',(#201,#202,#203,#204,#205,#206,#207,#208,#209,#210,
#211));
#213=DERIVED_UNIT_ELEMENT(#215,1.);
#214=DERIVED_UNIT_ELEMENT(#350,-3.);
#215=(
MASS_UNIT()
NAMED_UNIT(*)
SI_UNIT(.KILO.,.GRAM.)
);
#216=DERIVED_UNIT((#213,#214));
#217=MEASURE_REPRESENTATION_ITEM('density measure',
POSITIVE_RATIO_MEASURE(7850.),#216);
#218=PROPERTY_DEFINITION_REPRESENTATION(#223,#220);
#219=PROPERTY_DEFINITION_REPRESENTATION(#224,#221);
#220=REPRESENTATION('material name',(#222),#347);
#221=REPRESENTATION('density',(#217),#347);
#222=DESCRIPTIVE_REPRESENTATION_ITEM('Steel','Steel');
#223=PROPERTY_DEFINITION('material property','material name',#357);
#224=PROPERTY_DEFINITION('material property','density of part',#357);
#225=AXIS2_PLACEMENT_3D('',#288,#237,#238);
#226=AXIS2_PLACEMENT_3D('',#289,#239,#240);
#227=AXIS2_PLACEMENT_3D('',#298,#245,#246);
#228=AXIS2_PLACEMENT_3D('',#304,#250,#251);
#229=AXIS2_PLACEMENT_3D('',#310,#255,#256);
#230=AXIS2_PLACEMENT_3D('',#322,#263,#264);
#231=AXIS2_PLACEMENT_3D('',#326,#267,#268);
#232=AXIS2_PLACEMENT_3D('',#336,#274,#275);
#233=AXIS2_PLACEMENT_3D('',#338,#277,#278);
#234=AXIS2_PLACEMENT_3D('',#340,#280,#281);
#235=AXIS2_PLACEMENT_3D('',#342,#283,#284);
#236=AXIS2_PLACEMENT_3D('',#344,#286,#287);
#237=DIRECTION('axis',(0.,0.,1.));
#238=DIRECTION('refdir',(1.,0.,0.));
#239=DIRECTION('center_axis',(3.24678663284076E-8,-0.70710678465645,0.707106777716645));
#240=DIRECTION('ref_axis',(0.999999999999999,0.,-4.59164971282713E-8));
#241=DIRECTION('',(3.24678662091255E-8,-0.707106777716644,-0.70710678465645));
#242=DIRECTION('',(0.999999999999999,4.59164972695132E-8,5.91883205262674E-16));
#243=DIRECTION('',(-3.24678660128639E-8,0.707106777716644,0.70710678465645));
#244=DIRECTION('',(-0.999999999999999,-4.59164972695132E-8,-5.91883205262674E-16));
#245=DIRECTION('center_axis',(-3.66562424607374E-16,-4.90718574051388E-9,
1.));
#246=DIRECTION('ref_axis',(0.999999999999999,4.59164515917529E-8,5.91882981113419E-16));
#247=DIRECTION('',(-4.5916497279667E-8,0.999999999999999,4.90718574051386E-9));
#248=DIRECTION('',(-0.999999999999999,-4.5916497279667E-8,-5.918832053125E-16));
#249=DIRECTION('',(4.5916497279667E-8,-0.999999999999999,-4.90718574051386E-9));
#250=DIRECTION('center_axis',(0.999999999999999,4.5916497279667E-8,-5.9764164534932E-16));
#251=DIRECTION('ref_axis',(-8.22962426020019E-16,4.90718573976408E-9,-1.));
#252=DIRECTION('',(8.22962426020024E-16,-4.90718573976419E-9,1.));
#253=DIRECTION('',(-4.5916497279667E-8,0.999999999999999,4.90718574051386E-9));
#254=DIRECTION('',(8.22962426054445E-16,-4.90718574051383E-9,1.));
#255=DIRECTION('center_axis',(-4.59164972695132E-8,0.999999999999999,4.90718573976422E-9));
#256=DIRECTION('ref_axis',(-0.999999999999999,-4.59164972695132E-8,4.25301330865693E-17));
#257=DIRECTION('',(-5.45406669863736E-16,4.9071857397642E-9,-1.));
#258=DIRECTION('',(0.999999999999999,4.59164972695132E-8,2.17791591616374E-15));
#259=DIRECTION('',(-9.07859347838286E-9,4.90718532290701E-9,-1.));
#260=DIRECTION('',(-0.999999999999999,-4.59164972109729E-8,-1.19295229841787E-8));
#261=DIRECTION('',(-2.38590397178828E-8,-4.90718683528776E-9,1.));
#262=DIRECTION('',(0.999999999999999,4.59164972695133E-8,-3.74327159094287E-15));
#263=DIRECTION('center_axis',(-0.999999999999999,-4.5916497279667E-8,3.20085889193032E-16));
#264=DIRECTION('ref_axis',(5.45406262043315E-16,-4.90717685797999E-9,1.));
#265=DIRECTION('',(-5.45406669898157E-16,4.90718574051384E-9,-1.));
#266=DIRECTION('',(-4.5916497279667E-8,0.999999999999999,4.90718574051386E-9));
#267=DIRECTION('center_axis',(-4.5916497279667E-8,0.999999999999999,4.90718574051386E-9));
#268=DIRECTION('ref_axis',(0.,-4.90718574051387E-9,1.));
#269=DIRECTION('',(0.999999999999999,4.5916497279667E-8,-3.74327159089305E-15));
#270=DIRECTION('',(-2.38590397178828E-8,-4.9071868360374E-9,1.));
#271=DIRECTION('',(-0.999999999999999,-4.59164972109729E-8,-1.19295229841787E-8));
#272=DIRECTION('',(-9.07859347838286E-9,4.90718532365665E-9,-1.));
#273=DIRECTION('',(0.999999999999999,4.5916497279667E-8,2.17791591621357E-15));
#274=DIRECTION('center_axis',(-3.96859237159817E-15,4.90718574051368E-9,
-1.));
#275=DIRECTION('ref_axis',(-0.999999999999999,-4.59164972695131E-8,3.74327159094287E-15));
#276=DIRECTION('',(-4.5916497279667E-8,0.999999999999999,4.90718574051386E-9));
#277=DIRECTION('center_axis',(1.95259513550844E-15,4.90718574051396E-9,
-1.));
#278=DIRECTION('ref_axis',(-0.999999999999999,-4.59165091118922E-8,-2.17791597427649E-15));
#279=DIRECTION('',(4.5916497279667E-8,-0.999999999999999,-4.90718574051386E-9));
#280=DIRECTION('center_axis',(-0.999999999999999,-4.59164973242173E-8,9.07859325306209E-9));
#281=DIRECTION('ref_axis',(9.07859347838286E-9,-4.90718532290701E-9,1.));
#282=DIRECTION('',(4.5916497279667E-8,-0.999999999999999,-4.90718574051386E-9));
#283=DIRECTION('center_axis',(1.1929522758858E-8,4.90718628827577E-9,-1.));
#284=DIRECTION('ref_axis',(-0.999999999999999,-4.59164972109729E-8,-1.19295229841787E-8));
#285=DIRECTION('',(-4.5916497279667E-8,0.999999999999999,4.90718574051386E-9));
#286=DIRECTION('center_axis',(0.999999999999999,4.59164971625862E-8,2.38590399432036E-8));
#287=DIRECTION('ref_axis',(2.38590397178824E-8,4.90719394071544E-9,-1.));
#288=CARTESIAN_POINT('',(0.,0.,0.));
#289=CARTESIAN_POINT('Origin',(-2.4999748147617,93.3169229295577,9.38333894978299));
#290=CARTESIAN_POINT('',(-4.89999883160199,93.8169228169034,9.88333895223659));
#291=CARTESIAN_POINT('',(-4.89999878568549,92.8169228218106,8.88333894732939));
#292=CARTESIAN_POINT('',(-4.89999878683341,92.8419228216879,8.90833894745207));
#293=CARTESIAN_POINT('',(4.9000012143145,92.8169232717923,8.88333894732939));
#294=CARTESIAN_POINT('',(-2.49997479180345,92.8169229320113,8.88333894732939));
#295=CARTESIAN_POINT('',(4.900001168398,93.8169232668851,9.88333895223659));
#296=CARTESIAN_POINT('',(4.90000119020834,93.341923269216,9.40833894990566));
#297=CARTESIAN_POINT('',(-2.49997483771995,93.8169229271041,9.88333895223659));
#298=CARTESIAN_POINT('Origin',(-4.99999878568548,92.8169228123118,9.8833389473294));
#299=CARTESIAN_POINT('',(4.90000052905629,107.740932201361,9.88333902056429));
#300=CARTESIAN_POINT('',(4.9000012143145,92.8169232668851,9.88333894732941));
#301=CARTESIAN_POINT('',(-4.89999947094371,107.740931751379,9.88333902056428));
#302=CARTESIAN_POINT('',(-2.49997547706167,107.74093186158,9.88333902056429));
#303=CARTESIAN_POINT('',(-4.89999878568549,92.8169228169034,9.8833389473294));
#304=CARTESIAN_POINT('Origin',(4.9000012143145,92.8169232663944,9.9833389473294));
#305=CARTESIAN_POINT('',(4.9000012143145,92.816923275718,8.0833389473294));
#306=CARTESIAN_POINT('',(4.90000121431451,92.8169232242112,18.5795476076855));
#307=CARTESIAN_POINT('',(4.90000052905628,107.740932210193,8.08333902056428));
#308=CARTESIAN_POINT('',(4.9000012143145,92.816923275718,8.0833389473294));
#309=CARTESIAN_POINT('',(4.90000052905629,107.740932158687,18.5795476809204));
#310=CARTESIAN_POINT('Origin',(4.9202078563499E-5,92.8169229570394,27.1757562680416));
#311=CARTESIAN_POINT('',(-4.8999987856855,92.8169228257363,8.0833389473294));
#312=CARTESIAN_POINT('',(-4.89999878568549,92.8169227791367,17.5795476076855));
#313=CARTESIAN_POINT('',(-3.39999878477763,92.8169228946111,8.0833389473294));
#314=CARTESIAN_POINT('',(-1.74997479180345,92.8169229703744,8.0833389473294));
#315=CARTESIAN_POINT('',(-3.39999880838198,92.8169229073698,5.48333894852235));
#316=CARTESIAN_POINT('',(-3.39999870991366,92.8169228541454,16.3295476226654));
#317=CARTESIAN_POINT('',(3.40000048051534,92.8169232196019,5.4833390296431));
#318=CARTESIAN_POINT('',(3.50000048051534,92.8169232241936,5.48333903083605));
#319=CARTESIAN_POINT('',(3.40000041848184,92.8169232068433,8.0833389473294));
#320=CARTESIAN_POINT('',(3.40000019191142,92.8169231602436,17.5795476470523));
#321=CARTESIAN_POINT('',(2.50002520819649,92.8169231655195,8.08333894732941));
#322=CARTESIAN_POINT('Origin',(-4.89999878568549,92.8169228262271,7.9833389473294));
#323=CARTESIAN_POINT('',(-4.89999947094371,107.740931760212,8.08333902056428));
#324=CARTESIAN_POINT('',(-4.89999947094371,107.740931713612,17.5795476809204));
#325=CARTESIAN_POINT('',(-4.89999878568549,92.8169228257364,8.0833389473294));
#326=CARTESIAN_POINT('Origin',(4.85168203482808E-5,107.740931891515,27.1757563412765));
#327=CARTESIAN_POINT('',(3.39999973322362,107.740932141319,8.08333902056428));
#328=CARTESIAN_POINT('',(2.50002452293828,107.740932099995,8.08333902056429));
#329=CARTESIAN_POINT('',(3.39999979525712,107.740932154077,5.48333910287799));
#330=CARTESIAN_POINT('',(3.3999995066532,107.740932094719,17.5795477202872));
#331=CARTESIAN_POINT('',(-3.39999949364019,107.740931841845,5.48333902175724));
#332=CARTESIAN_POINT('',(3.49999979525712,107.740932158669,5.48333910407094));
#333=CARTESIAN_POINT('',(-3.39999947003585,107.740931829087,8.08333902056428));
#334=CARTESIAN_POINT('',(-3.39999939517187,107.740931788621,16.3295476959003));
#335=CARTESIAN_POINT('',(-1.74997547706166,107.74093190485,8.08333902056429));
#336=CARTESIAN_POINT('Origin',(5.0000012143145,92.8169232803097,8.0833389473294));
#337=CARTESIAN_POINT('',(3.40000041848184,92.8169232068432,8.0833389473294));
#338=CARTESIAN_POINT('Origin',(-3.49999878568549,92.8169228900194,8.0833389473294));
#339=CARTESIAN_POINT('',(-3.39999878477764,92.8169228946111,8.0833389473294));
#340=CARTESIAN_POINT('Origin',(-3.39999880838198,92.8169229073698,5.48333894642154));
#341=CARTESIAN_POINT('',(-3.39999880838198,92.8169229073698,5.48333894852235));
#342=CARTESIAN_POINT('Origin',(3.50000048051534,92.8169232241936,5.48333903083605));
#343=CARTESIAN_POINT('',(3.40000048051534,92.8169232196019,5.4833390296431));
#344=CARTESIAN_POINT('Origin',(3.40000042086774,92.8169232073339,7.9833389449435));
#345=UNCERTAINTY_MEASURE_WITH_UNIT(LENGTH_MEASURE(0.01),#349,
'DISTANCE_ACCURACY_VALUE',
'Maximum model space distance between geometric entities at asserted c
onnectivities');
#346=UNCERTAINTY_MEASURE_WITH_UNIT(LENGTH_MEASURE(0.01),#349,
'DISTANCE_ACCURACY_VALUE',
'Maximum model space distance between geometric entities at asserted c
onnectivities');
#347=(
GEOMETRIC_REPRESENTATION_CONTEXT(3)
GLOBAL_UNCERTAINTY_ASSIGNED_CONTEXT((#345))
GLOBAL_UNIT_ASSIGNED_CONTEXT((#349,#351,#352))
REPRESENTATION_CONTEXT('','3D')
);
#348=(
GEOMETRIC_REPRESENTATION_CONTEXT(3)
GLOBAL_UNCERTAINTY_ASSIGNED_CONTEXT((#346))
GLOBAL_UNIT_ASSIGNED_CONTEXT((#349,#351,#352))
REPRESENTATION_CONTEXT('','3D')
);
#349=(
LENGTH_UNIT()
NAMED_UNIT(*)
SI_UNIT(.MILLI.,.METRE.)
);
#350=(
LENGTH_UNIT()
NAMED_UNIT(*)
SI_UNIT($,.METRE.)
);
#351=(
NAMED_UNIT(*)
PLANE_ANGLE_UNIT()
SI_UNIT($,.RADIAN.)
);
#352=(
NAMED_UNIT(*)
SI_UNIT($,.STERADIAN.)
SOLID_ANGLE_UNIT()
);
#353=SHAPE_DEFINITION_REPRESENTATION(#354,#355);
#354=PRODUCT_DEFINITION_SHAPE('',$,#357);
#355=SHAPE_REPRESENTATION('',(#225),#347);
#356=PRODUCT_DEFINITION_CONTEXT('part definition',#361,'design');
#357=PRODUCT_DEFINITION('36. Bottom Cover','36. Bottom Cover',#358,#356);
#358=PRODUCT_DEFINITION_FORMATION('',$,#363);
#359=PRODUCT_RELATED_PRODUCT_CATEGORY('36. Bottom Cover',
'36. Bottom Cover',(#363));
#360=APPLICATION_PROTOCOL_DEFINITION('international standard',
'automotive_design',2009,#361);
#361=APPLICATION_CONTEXT(
'Core Data for Automotive Mechanical Design Process');
#362=PRODUCT_CONTEXT('part definition',#361,'mechanical');
#363=PRODUCT('36. Bottom Cover','36. Bottom Cover',$,(#362));
#364=PRESENTATION_STYLE_ASSIGNMENT((#366));
#365=PRESENTATION_STYLE_ASSIGNMENT((#367));
#366=SURFACE_STYLE_USAGE(.BOTH.,#368);
#367=SURFACE_STYLE_USAGE(.BOTH.,#369);
#368=SURFACE_SIDE_STYLE('',(#370));
#369=SURFACE_SIDE_STYLE('',(#371));
#370=SURFACE_STYLE_FILL_AREA(#372);
#371=SURFACE_STYLE_FILL_AREA(#373);
#372=FILL_AREA_STYLE('Steel - Satin',(#374));
#373=FILL_AREA_STYLE('Plastic - Matte (Black) (1)',(#375));
#374=FILL_AREA_STYLE_COLOUR('Steel - Satin',#376);
#375=FILL_AREA_STYLE_COLOUR('Plastic - Matte (Black) (1)',#377);
#376=COLOUR_RGB('Steel - Satin',0.627450980392157,0.627450980392157,0.627450980392157);
#377=COLOUR_RGB('Plastic - Matte (Black) (1)',0.0980392156862745,0.0980392156862745,
0.0980392156862745);
ENDSEC;
END-ISO-10303-21;
