ISO-10303-21;
HEADER;
/* Generated by software containing ST-Developer
 * from STEP Tools, Inc. (www.steptools.com) 
 */

FILE_DESCRIPTION(
/* description */ (''),
/* implementation_level */ '2;1');

FILE_NAME(
/* name */ '42. Selector Switch.step',
/* time_stamp */ '2025-10-08T23:27:58+01:00',
/* author */ (''),
/* organization */ (''),
/* preprocessor_version */ 'ST-DEVELOPER v20.1',
/* originating_system */ 'Autodesk Translation Framework v14.10.0.0',
/* authorisation */ '');

FILE_SCHEMA (('AUTOMOTIVE_DESIGN { 1 0 10303 214 3 1 1 }'));
ENDSEC;

DATA;
#10=MECHANICAL_DESIGN_GEOMETRIC_PRESENTATION_REPRESENTATION('',(#13),#853);
#11=SHAPE_REPRESENTATION_RELATIONSHIP('SRR','None',#860,#12);
#12=ADVANCED_BREP_SHAPE_REPRESENTATION('',(#14),#852);
#13=STYLED_ITEM('',(#870),#14);
#14=MANIFOLD_SOLID_BREP('42. Selector Switch',#426);
#15=FACE_BOUND('',#80,.T.);
#16=FACE_BOUND('',#86,.T.);
#17=FACE_BOUND('',#87,.T.);
#18=FACE_BOUND('',#89,.T.);
#19=FACE_BOUND('',#93,.T.);
#20=FACE_BOUND('',#94,.T.);
#21=FACE_BOUND('',#98,.T.);
#22=FACE_BOUND('',#99,.T.);
#23=CYLINDRICAL_SURFACE('',#455,6.00000000000001);
#24=CYLINDRICAL_SURFACE('',#459,3.12842795782987);
#25=CYLINDRICAL_SURFACE('',#465,6.00000000000001);
#26=CYLINDRICAL_SURFACE('',#473,1.45);
#27=CYLINDRICAL_SURFACE('',#474,4.1);
#28=CYLINDRICAL_SURFACE('',#475,1.45);
#29=CYLINDRICAL_SURFACE('',#476,1.45);
#30=CIRCLE('',#445,2.12842795782987);
#31=CIRCLE('',#446,3.12842795782987);
#32=CIRCLE('',#450,6.00000000000001);
#33=CIRCLE('',#451,5.);
#34=CIRCLE('',#453,5.00000000000001);
#35=CIRCLE('',#454,6.00000000000001);
#36=CIRCLE('',#456,6.00000000000001);
#37=CIRCLE('',#460,3.12842795782987);
#38=CIRCLE('',#463,4.1);
#39=CIRCLE('',#464,1.45);
#40=CIRCLE('',#466,6.00000000000001);
#41=CIRCLE('',#470,4.1);
#42=CIRCLE('',#471,1.45);
#43=CONICAL_SURFACE('',#444,2.62842795782987,0.785398159672154);
#44=CONICAL_SURFACE('',#449,5.5,0.785398163397451);
#45=CONICAL_SURFACE('',#452,5.50000000000001,0.785398163397449);
#46=FACE_OUTER_BOUND('',#70,.T.);
#47=FACE_OUTER_BOUND('',#71,.T.);
#48=FACE_OUTER_BOUND('',#72,.T.);
#49=FACE_OUTER_BOUND('',#73,.T.);
#50=FACE_OUTER_BOUND('',#74,.T.);
#51=FACE_OUTER_BOUND('',#75,.T.);
#52=FACE_OUTER_BOUND('',#76,.T.);
#53=FACE_OUTER_BOUND('',#77,.T.);
#54=FACE_OUTER_BOUND('',#78,.T.);
#55=FACE_OUTER_BOUND('',#79,.T.);
#56=FACE_OUTER_BOUND('',#81,.T.);
#57=FACE_OUTER_BOUND('',#82,.T.);
#58=FACE_OUTER_BOUND('',#83,.T.);
#59=FACE_OUTER_BOUND('',#84,.T.);
#60=FACE_OUTER_BOUND('',#85,.T.);
#61=FACE_OUTER_BOUND('',#88,.T.);
#62=FACE_OUTER_BOUND('',#90,.T.);
#63=FACE_OUTER_BOUND('',#91,.T.);
#64=FACE_OUTER_BOUND('',#92,.T.);
#65=FACE_OUTER_BOUND('',#95,.T.);
#66=FACE_OUTER_BOUND('',#96,.T.);
#67=FACE_OUTER_BOUND('',#97,.T.);
#68=FACE_OUTER_BOUND('',#100,.T.);
#69=FACE_OUTER_BOUND('',#101,.T.);
#70=EDGE_LOOP('',(#274,#275,#276,#277));
#71=EDGE_LOOP('',(#278,#279,#280,#281));
#72=EDGE_LOOP('',(#282,#283,#284,#285));
#73=EDGE_LOOP('',(#286,#287,#288,#289));
#74=EDGE_LOOP('',(#290,#291,#292,#293));
#75=EDGE_LOOP('',(#294,#295,#296,#297));
#76=EDGE_LOOP('',(#298,#299,#300,#301));
#77=EDGE_LOOP('',(#302,#303,#304,#305));
#78=EDGE_LOOP('',(#306,#307,#308,#309));
#79=EDGE_LOOP('',(#310,#311,#312,#313));
#80=EDGE_LOOP('',(#314));
#81=EDGE_LOOP('',(#315,#316,#317,#318));
#82=EDGE_LOOP('',(#319,#320,#321,#322));
#83=EDGE_LOOP('',(#323,#324,#325,#326));
#84=EDGE_LOOP('',(#327,#328,#329,#330));
#85=EDGE_LOOP('',(#331,#332,#333,#334,#335,#336,#337,#338,#339));
#86=EDGE_LOOP('',(#340));
#87=EDGE_LOOP('',(#341));
#88=EDGE_LOOP('',(#342,#343,#344,#345));
#89=EDGE_LOOP('',(#346));
#90=EDGE_LOOP('',(#347,#348,#349,#350));
#91=EDGE_LOOP('',(#351,#352,#353,#354));
#92=EDGE_LOOP('',(#355,#356,#357,#358,#359,#360,#361,#362,#363));
#93=EDGE_LOOP('',(#364));
#94=EDGE_LOOP('',(#365));
#95=EDGE_LOOP('',(#366,#367,#368,#369));
#96=EDGE_LOOP('',(#370,#371,#372,#373));
#97=EDGE_LOOP('',(#374,#375,#376,#377));
#98=EDGE_LOOP('',(#378));
#99=EDGE_LOOP('',(#379));
#100=EDGE_LOOP('',(#380,#381,#382,#383));
#101=EDGE_LOOP('',(#384,#385,#386,#387));
#102=B_SPLINE_CURVE_WITH_KNOTS('',3,(#595,#596,#597,#598),.UNSPECIFIED.,
 .F.,.F.,(4,4),(0.,0.141244358114532),.UNSPECIFIED.);
#103=B_SPLINE_CURVE_WITH_KNOTS('',3,(#606,#607,#608,#609),.UNSPECIFIED.,
 .F.,.F.,(4,4),(0.,0.141234629741519),.UNSPECIFIED.);
#104=B_SPLINE_CURVE_WITH_KNOTS('',3,(#619,#620,#621,#622),.UNSPECIFIED.,
 .F.,.F.,(4,4),(0.,0.141234627269823),.UNSPECIFIED.);
#105=B_SPLINE_CURVE_WITH_KNOTS('',3,(#646,#647,#648,#649),.UNSPECIFIED.,
 .F.,.F.,(4,4),(0.,0.14124436321603),.UNSPECIFIED.);
#106=B_SPLINE_CURVE_WITH_KNOTS('',3,(#663,#664,#665,#666,#667,#668,#669,
#670,#671,#672,#673,#674,#675,#676,#677,#678,#679,#680,#681,#682,#683,#684,
#685,#686,#687,#688,#689,#690,#691,#692,#693,#694,#695,#696),
 .UNSPECIFIED.,.T.,.F.,(4,2,2,2,2,2,2,2,2,2,2,2,2,2,2,2,4),(0.,0.0548575126652273,
0.109715025330455,0.164565867538284,0.219416709746113,0.274267551449132,
0.329118393152151,0.383975905753229,0.438833418354308,0.493690930955386,
0.548548443556464,0.603399285259483,0.658250126962502,0.713100969170331,
0.76795181137816,0.822809324043388,0.877666836708615),.UNSPECIFIED.);
#107=B_SPLINE_CURVE_WITH_KNOTS('',3,(#725,#726,#727,#728,#729,#730,#731,
#732,#733,#734,#735,#736,#737,#738,#739,#740,#741,#742,#743,#744,#745,#746,
#747,#748,#749,#750,#751,#752,#753,#754,#755,#756,#757,#758),
 .UNSPECIFIED.,.T.,.F.,(4,2,2,2,2,2,2,2,2,2,2,2,2,2,2,2,4),(0.,0.0548575126652275,
0.109715025330455,0.164565867538284,0.219416709746113,0.274267551449132,
0.329118393152151,0.383975905753229,0.438833418354308,0.493690930955386,
0.548548443556464,0.603399285259483,0.658250126962502,0.713100969170331,
0.76795181137816,0.822809324043388,0.877666836708615),.UNSPECIFIED.);
#108=B_SPLINE_CURVE_WITH_KNOTS('',3,(#774,#775,#776,#777,#778,#779,#780,
#781,#782,#783,#784,#785,#786,#787,#788,#789,#790,#791,#792,#793,#794,#795,
#796,#797,#798,#799,#800,#801,#802,#803,#804,#805,#806,#807),
 .UNSPECIFIED.,.T.,.F.,(4,2,2,2,2,2,2,2,2,2,2,2,2,2,2,2,4),(0.,0.0551562113821312,
0.110312422764262,0.165435754064726,0.22055908536519,0.275682416665654,
0.330805747966118,0.385961959348249,0.44111817073038,0.496274382112511,
0.551430593494642,0.606553924795106,0.66167725609557,0.716800587396034,
0.771923918696498,0.827080130078629,0.88223634146076),.UNSPECIFIED.);
#109=B_SPLINE_CURVE_WITH_KNOTS('',3,(#812,#813,#814,#815,#816,#817,#818,
#819,#820,#821,#822,#823,#824,#825,#826,#827,#828,#829,#830,#831,#832,#833,
#834,#835,#836,#837,#838,#839,#840,#841,#842,#843,#844,#845),
 .UNSPECIFIED.,.T.,.F.,(4,2,2,2,2,2,2,2,2,2,2,2,2,2,2,2,4),(0.,0.0551562113821309,
0.110312422764262,0.165435754064726,0.220559085365191,0.275682416665655,
0.330805747966118,0.38596195934825,0.441118170730381,0.496274382112512,
0.551430593494643,0.606553924795107,0.66167725609557,0.716800587396035,
0.771923918696499,0.82708013007863,0.882236341460761),.UNSPECIFIED.);
#110=LINE('',#593,#146);
#111=LINE('',#600,#147);
#112=LINE('',#601,#148);
#113=LINE('',#604,#149);
#114=LINE('',#610,#150);
#115=LINE('',#614,#151);
#116=LINE('',#616,#152);
#117=LINE('',#618,#153);
#118=LINE('',#626,#154);
#119=LINE('',#628,#155);
#120=LINE('',#630,#156);
#121=LINE('',#631,#157);
#122=LINE('',#635,#158);
#123=LINE('',#639,#159);
#124=LINE('',#640,#160);
#125=LINE('',#643,#161);
#126=LINE('',#645,#162);
#127=LINE('',#658,#163);
#128=LINE('',#661,#164);
#129=LINE('',#699,#165);
#130=LINE('',#700,#166);
#131=LINE('',#703,#167);
#132=LINE('',#704,#168);
#133=LINE('',#707,#169);
#134=LINE('',#711,#170);
#135=LINE('',#712,#171);
#136=LINE('',#720,#172);
#137=LINE('',#723,#173);
#138=LINE('',#760,#174);
#139=LINE('',#763,#175);
#140=LINE('',#764,#176);
#141=LINE('',#766,#177);
#142=LINE('',#808,#178);
#143=LINE('',#810,#179);
#144=LINE('',#847,#180);
#145=LINE('',#849,#181);
#146=VECTOR('',#481,10.);
#147=VECTOR('',#482,10.);
#148=VECTOR('',#483,10.);
#149=VECTOR('',#486,10.);
#150=VECTOR('',#487,10.);
#151=VECTOR('',#490,10.);
#152=VECTOR('',#491,10.);
#153=VECTOR('',#492,10.);
#154=VECTOR('',#495,10.);
#155=VECTOR('',#496,10.);
#156=VECTOR('',#497,10.);
#157=VECTOR('',#498,10.);
#158=VECTOR('',#501,10.);
#159=VECTOR('',#508,10.);
#160=VECTOR('',#509,10.);
#161=VECTOR('',#512,10.);
#162=VECTOR('',#513,10.);
#163=VECTOR('',#528,10.);
#164=VECTOR('',#531,10.);
#165=VECTOR('',#534,10.);
#166=VECTOR('',#535,10.);
#167=VECTOR('',#538,10.);
#168=VECTOR('',#539,10.);
#169=VECTOR('',#542,10.);
#170=VECTOR('',#547,10.);
#171=VECTOR('',#548,10.);
#172=VECTOR('',#557,10.);
#173=VECTOR('',#560,10.);
#174=VECTOR('',#563,10.);
#175=VECTOR('',#566,10.);
#176=VECTOR('',#567,10.);
#177=VECTOR('',#570,10.);
#178=VECTOR('',#579,1.45);
#179=VECTOR('',#582,3.6);
#180=VECTOR('',#585,1.45);
#181=VECTOR('',#588,1.45);
#182=VERTEX_POINT('',#591);
#183=VERTEX_POINT('',#592);
#184=VERTEX_POINT('',#594);
#185=VERTEX_POINT('',#599);
#186=VERTEX_POINT('',#603);
#187=VERTEX_POINT('',#605);
#188=VERTEX_POINT('',#612);
#189=VERTEX_POINT('',#613);
#190=VERTEX_POINT('',#615);
#191=VERTEX_POINT('',#617);
#192=VERTEX_POINT('',#624);
#193=VERTEX_POINT('',#625);
#194=VERTEX_POINT('',#627);
#195=VERTEX_POINT('',#629);
#196=VERTEX_POINT('',#633);
#197=VERTEX_POINT('',#634);
#198=VERTEX_POINT('',#642);
#199=VERTEX_POINT('',#644);
#200=VERTEX_POINT('',#657);
#201=VERTEX_POINT('',#659);
#202=VERTEX_POINT('',#662);
#203=VERTEX_POINT('',#698);
#204=VERTEX_POINT('',#702);
#205=VERTEX_POINT('',#706);
#206=VERTEX_POINT('',#710);
#207=VERTEX_POINT('',#714);
#208=VERTEX_POINT('',#716);
#209=VERTEX_POINT('',#719);
#210=VERTEX_POINT('',#721);
#211=VERTEX_POINT('',#724);
#212=VERTEX_POINT('',#762);
#213=VERTEX_POINT('',#767);
#214=VERTEX_POINT('',#769);
#215=VERTEX_POINT('',#773);
#216=VERTEX_POINT('',#811);
#217=EDGE_CURVE('',#182,#183,#110,.T.);
#218=EDGE_CURVE('',#183,#184,#102,.T.);
#219=EDGE_CURVE('',#184,#185,#111,.T.);
#220=EDGE_CURVE('',#185,#182,#112,.T.);
#221=EDGE_CURVE('',#185,#186,#113,.T.);
#222=EDGE_CURVE('',#186,#187,#103,.T.);
#223=EDGE_CURVE('',#187,#182,#114,.T.);
#224=EDGE_CURVE('',#188,#189,#115,.T.);
#225=EDGE_CURVE('',#189,#190,#116,.T.);
#226=EDGE_CURVE('',#190,#191,#117,.T.);
#227=EDGE_CURVE('',#191,#188,#104,.T.);
#228=EDGE_CURVE('',#192,#193,#118,.T.);
#229=EDGE_CURVE('',#193,#194,#119,.T.);
#230=EDGE_CURVE('',#194,#195,#120,.T.);
#231=EDGE_CURVE('',#195,#192,#121,.T.);
#232=EDGE_CURVE('',#196,#197,#122,.T.);
#233=EDGE_CURVE('',#197,#194,#30,.T.);
#234=EDGE_CURVE('',#193,#196,#31,.T.);
#235=EDGE_CURVE('',#189,#197,#123,.T.);
#236=EDGE_CURVE('',#196,#190,#124,.T.);
#237=EDGE_CURVE('',#198,#192,#125,.T.);
#238=EDGE_CURVE('',#195,#199,#126,.T.);
#239=EDGE_CURVE('',#199,#198,#105,.T.);
#240=EDGE_CURVE('',#186,#198,#32,.T.);
#241=EDGE_CURVE('',#199,#187,#33,.T.);
#242=EDGE_CURVE('',#183,#188,#34,.T.);
#243=EDGE_CURVE('',#191,#184,#35,.T.);
#244=EDGE_CURVE('',#200,#191,#127,.T.);
#245=EDGE_CURVE('',#201,#200,#36,.T.);
#246=EDGE_CURVE('',#184,#201,#128,.T.);
#247=EDGE_CURVE('',#202,#202,#106,.T.);
#248=EDGE_CURVE('',#190,#203,#129,.T.);
#249=EDGE_CURVE('',#200,#203,#130,.F.);
#250=EDGE_CURVE('',#196,#204,#131,.F.);
#251=EDGE_CURVE('',#203,#204,#132,.T.);
#252=EDGE_CURVE('',#193,#205,#133,.T.);
#253=EDGE_CURVE('',#204,#205,#37,.T.);
#254=EDGE_CURVE('',#206,#192,#134,.T.);
#255=EDGE_CURVE('',#205,#206,#135,.T.);
#256=EDGE_CURVE('',#207,#207,#38,.T.);
#257=EDGE_CURVE('',#208,#208,#39,.T.);
#258=EDGE_CURVE('',#209,#186,#136,.T.);
#259=EDGE_CURVE('',#210,#209,#40,.T.);
#260=EDGE_CURVE('',#198,#210,#137,.T.);
#261=EDGE_CURVE('',#211,#211,#107,.T.);
#262=EDGE_CURVE('',#206,#210,#138,.F.);
#263=EDGE_CURVE('',#212,#201,#139,.F.);
#264=EDGE_CURVE('',#212,#185,#140,.F.);
#265=EDGE_CURVE('',#209,#212,#141,.F.);
#266=EDGE_CURVE('',#213,#213,#41,.F.);
#267=EDGE_CURVE('',#214,#214,#42,.T.);
#268=EDGE_CURVE('',#215,#215,#108,.F.);
#269=EDGE_CURVE('',#215,#211,#142,.T.);
#270=EDGE_CURVE('',#207,#213,#143,.T.);
#271=EDGE_CURVE('',#216,#216,#109,.F.);
#272=EDGE_CURVE('',#208,#214,#144,.T.);
#273=EDGE_CURVE('',#202,#216,#145,.T.);
#274=ORIENTED_EDGE('',*,*,#217,.T.);
#275=ORIENTED_EDGE('',*,*,#218,.T.);
#276=ORIENTED_EDGE('',*,*,#219,.T.);
#277=ORIENTED_EDGE('',*,*,#220,.T.);
#278=ORIENTED_EDGE('',*,*,#221,.T.);
#279=ORIENTED_EDGE('',*,*,#222,.T.);
#280=ORIENTED_EDGE('',*,*,#223,.T.);
#281=ORIENTED_EDGE('',*,*,#220,.F.);
#282=ORIENTED_EDGE('',*,*,#224,.T.);
#283=ORIENTED_EDGE('',*,*,#225,.T.);
#284=ORIENTED_EDGE('',*,*,#226,.T.);
#285=ORIENTED_EDGE('',*,*,#227,.T.);
#286=ORIENTED_EDGE('',*,*,#228,.T.);
#287=ORIENTED_EDGE('',*,*,#229,.T.);
#288=ORIENTED_EDGE('',*,*,#230,.T.);
#289=ORIENTED_EDGE('',*,*,#231,.T.);
#290=ORIENTED_EDGE('',*,*,#232,.T.);
#291=ORIENTED_EDGE('',*,*,#233,.T.);
#292=ORIENTED_EDGE('',*,*,#229,.F.);
#293=ORIENTED_EDGE('',*,*,#234,.T.);
#294=ORIENTED_EDGE('',*,*,#235,.T.);
#295=ORIENTED_EDGE('',*,*,#232,.F.);
#296=ORIENTED_EDGE('',*,*,#236,.T.);
#297=ORIENTED_EDGE('',*,*,#225,.F.);
#298=ORIENTED_EDGE('',*,*,#237,.T.);
#299=ORIENTED_EDGE('',*,*,#231,.F.);
#300=ORIENTED_EDGE('',*,*,#238,.T.);
#301=ORIENTED_EDGE('',*,*,#239,.T.);
#302=ORIENTED_EDGE('',*,*,#240,.T.);
#303=ORIENTED_EDGE('',*,*,#239,.F.);
#304=ORIENTED_EDGE('',*,*,#241,.T.);
#305=ORIENTED_EDGE('',*,*,#222,.F.);
#306=ORIENTED_EDGE('',*,*,#242,.T.);
#307=ORIENTED_EDGE('',*,*,#227,.F.);
#308=ORIENTED_EDGE('',*,*,#243,.T.);
#309=ORIENTED_EDGE('',*,*,#218,.F.);
#310=ORIENTED_EDGE('',*,*,#243,.F.);
#311=ORIENTED_EDGE('',*,*,#244,.F.);
#312=ORIENTED_EDGE('',*,*,#245,.F.);
#313=ORIENTED_EDGE('',*,*,#246,.F.);
#314=ORIENTED_EDGE('',*,*,#247,.F.);
#315=ORIENTED_EDGE('',*,*,#226,.F.);
#316=ORIENTED_EDGE('',*,*,#248,.T.);
#317=ORIENTED_EDGE('',*,*,#249,.F.);
#318=ORIENTED_EDGE('',*,*,#244,.T.);
#319=ORIENTED_EDGE('',*,*,#236,.F.);
#320=ORIENTED_EDGE('',*,*,#250,.T.);
#321=ORIENTED_EDGE('',*,*,#251,.F.);
#322=ORIENTED_EDGE('',*,*,#248,.F.);
#323=ORIENTED_EDGE('',*,*,#234,.F.);
#324=ORIENTED_EDGE('',*,*,#252,.T.);
#325=ORIENTED_EDGE('',*,*,#253,.F.);
#326=ORIENTED_EDGE('',*,*,#250,.F.);
#327=ORIENTED_EDGE('',*,*,#228,.F.);
#328=ORIENTED_EDGE('',*,*,#254,.F.);
#329=ORIENTED_EDGE('',*,*,#255,.F.);
#330=ORIENTED_EDGE('',*,*,#252,.F.);
#331=ORIENTED_EDGE('',*,*,#230,.F.);
#332=ORIENTED_EDGE('',*,*,#233,.F.);
#333=ORIENTED_EDGE('',*,*,#235,.F.);
#334=ORIENTED_EDGE('',*,*,#224,.F.);
#335=ORIENTED_EDGE('',*,*,#242,.F.);
#336=ORIENTED_EDGE('',*,*,#217,.F.);
#337=ORIENTED_EDGE('',*,*,#223,.F.);
#338=ORIENTED_EDGE('',*,*,#241,.F.);
#339=ORIENTED_EDGE('',*,*,#238,.F.);
#340=ORIENTED_EDGE('',*,*,#256,.T.);
#341=ORIENTED_EDGE('',*,*,#257,.T.);
#342=ORIENTED_EDGE('',*,*,#240,.F.);
#343=ORIENTED_EDGE('',*,*,#258,.F.);
#344=ORIENTED_EDGE('',*,*,#259,.F.);
#345=ORIENTED_EDGE('',*,*,#260,.F.);
#346=ORIENTED_EDGE('',*,*,#261,.F.);
#347=ORIENTED_EDGE('',*,*,#237,.F.);
#348=ORIENTED_EDGE('',*,*,#260,.T.);
#349=ORIENTED_EDGE('',*,*,#262,.F.);
#350=ORIENTED_EDGE('',*,*,#254,.T.);
#351=ORIENTED_EDGE('',*,*,#219,.F.);
#352=ORIENTED_EDGE('',*,*,#246,.T.);
#353=ORIENTED_EDGE('',*,*,#263,.F.);
#354=ORIENTED_EDGE('',*,*,#264,.T.);
#355=ORIENTED_EDGE('',*,*,#259,.T.);
#356=ORIENTED_EDGE('',*,*,#265,.T.);
#357=ORIENTED_EDGE('',*,*,#263,.T.);
#358=ORIENTED_EDGE('',*,*,#245,.T.);
#359=ORIENTED_EDGE('',*,*,#249,.T.);
#360=ORIENTED_EDGE('',*,*,#251,.T.);
#361=ORIENTED_EDGE('',*,*,#253,.T.);
#362=ORIENTED_EDGE('',*,*,#255,.T.);
#363=ORIENTED_EDGE('',*,*,#262,.T.);
#364=ORIENTED_EDGE('',*,*,#266,.T.);
#365=ORIENTED_EDGE('',*,*,#267,.T.);
#366=ORIENTED_EDGE('',*,*,#221,.F.);
#367=ORIENTED_EDGE('',*,*,#264,.F.);
#368=ORIENTED_EDGE('',*,*,#265,.F.);
#369=ORIENTED_EDGE('',*,*,#258,.T.);
#370=ORIENTED_EDGE('',*,*,#268,.T.);
#371=ORIENTED_EDGE('',*,*,#269,.T.);
#372=ORIENTED_EDGE('',*,*,#261,.T.);
#373=ORIENTED_EDGE('',*,*,#269,.F.);
#374=ORIENTED_EDGE('',*,*,#256,.F.);
#375=ORIENTED_EDGE('',*,*,#270,.T.);
#376=ORIENTED_EDGE('',*,*,#266,.F.);
#377=ORIENTED_EDGE('',*,*,#270,.F.);
#378=ORIENTED_EDGE('',*,*,#271,.F.);
#379=ORIENTED_EDGE('',*,*,#268,.F.);
#380=ORIENTED_EDGE('',*,*,#257,.F.);
#381=ORIENTED_EDGE('',*,*,#272,.T.);
#382=ORIENTED_EDGE('',*,*,#267,.F.);
#383=ORIENTED_EDGE('',*,*,#272,.F.);
#384=ORIENTED_EDGE('',*,*,#247,.T.);
#385=ORIENTED_EDGE('',*,*,#273,.T.);
#386=ORIENTED_EDGE('',*,*,#271,.T.);
#387=ORIENTED_EDGE('',*,*,#273,.F.);
#388=PLANE('',#440);
#389=PLANE('',#441);
#390=PLANE('',#442);
#391=PLANE('',#443);
#392=PLANE('',#447);
#393=PLANE('',#448);
#394=PLANE('',#457);
#395=PLANE('',#458);
#396=PLANE('',#461);
#397=PLANE('',#462);
#398=PLANE('',#467);
#399=PLANE('',#468);
#400=PLANE('',#469);
#401=PLANE('',#472);
#402=ADVANCED_FACE('',(#46),#388,.T.);
#403=ADVANCED_FACE('',(#47),#389,.T.);
#404=ADVANCED_FACE('',(#48),#390,.T.);
#405=ADVANCED_FACE('',(#49),#391,.T.);
#406=ADVANCED_FACE('',(#50),#43,.T.);
#407=ADVANCED_FACE('',(#51),#392,.T.);
#408=ADVANCED_FACE('',(#52),#393,.T.);
#409=ADVANCED_FACE('',(#53),#44,.T.);
#410=ADVANCED_FACE('',(#54),#45,.T.);
#411=ADVANCED_FACE('',(#55,#15),#23,.T.);
#412=ADVANCED_FACE('',(#56),#394,.F.);
#413=ADVANCED_FACE('',(#57),#395,.T.);
#414=ADVANCED_FACE('',(#58),#24,.T.);
#415=ADVANCED_FACE('',(#59),#396,.T.);
#416=ADVANCED_FACE('',(#60,#16,#17),#397,.T.);
#417=ADVANCED_FACE('',(#61,#18),#25,.T.);
#418=ADVANCED_FACE('',(#62),#398,.F.);
#419=ADVANCED_FACE('',(#63),#399,.F.);
#420=ADVANCED_FACE('',(#64,#19,#20),#400,.F.);
#421=ADVANCED_FACE('',(#65),#401,.F.);
#422=ADVANCED_FACE('',(#66),#26,.F.);
#423=ADVANCED_FACE('',(#67,#21,#22),#27,.F.);
#424=ADVANCED_FACE('',(#68),#28,.F.);
#425=ADVANCED_FACE('',(#69),#29,.F.);
#426=CLOSED_SHELL('',(#402,#403,#404,#405,#406,#407,#408,#409,#410,#411,
#412,#413,#414,#415,#416,#417,#418,#419,#420,#421,#422,#423,#424,#425));
#427=DERIVED_UNIT_ELEMENT(#429,1.);
#428=DERIVED_UNIT_ELEMENT(#855,-3.);
#429=(
MASS_UNIT()
NAMED_UNIT(*)
SI_UNIT(.KILO.,.GRAM.)
);
#430=DERIVED_UNIT((#427,#428));
#431=MEASURE_REPRESENTATION_ITEM('density measure',
POSITIVE_RATIO_MEASURE(7850.),#430);
#432=PROPERTY_DEFINITION_REPRESENTATION(#437,#434);
#433=PROPERTY_DEFINITION_REPRESENTATION(#438,#435);
#434=REPRESENTATION('material name',(#436),#852);
#435=REPRESENTATION('density',(#431),#852);
#436=DESCRIPTIVE_REPRESENTATION_ITEM('Steel','Steel');
#437=PROPERTY_DEFINITION('material property','material name',#862);
#438=PROPERTY_DEFINITION('material property','density of part',#862);
#439=AXIS2_PLACEMENT_3D('',#589,#477,#478);
#440=AXIS2_PLACEMENT_3D('',#590,#479,#480);
#441=AXIS2_PLACEMENT_3D('',#602,#484,#485);
#442=AXIS2_PLACEMENT_3D('',#611,#488,#489);
#443=AXIS2_PLACEMENT_3D('',#623,#493,#494);
#444=AXIS2_PLACEMENT_3D('',#632,#499,#500);
#445=AXIS2_PLACEMENT_3D('',#636,#502,#503);
#446=AXIS2_PLACEMENT_3D('',#637,#504,#505);
#447=AXIS2_PLACEMENT_3D('',#638,#506,#507);
#448=AXIS2_PLACEMENT_3D('',#641,#510,#511);
#449=AXIS2_PLACEMENT_3D('',#650,#514,#515);
#450=AXIS2_PLACEMENT_3D('',#651,#516,#517);
#451=AXIS2_PLACEMENT_3D('',#652,#518,#519);
#452=AXIS2_PLACEMENT_3D('',#653,#520,#521);
#453=AXIS2_PLACEMENT_3D('',#654,#522,#523);
#454=AXIS2_PLACEMENT_3D('',#655,#524,#525);
#455=AXIS2_PLACEMENT_3D('',#656,#526,#527);
#456=AXIS2_PLACEMENT_3D('',#660,#529,#530);
#457=AXIS2_PLACEMENT_3D('',#697,#532,#533);
#458=AXIS2_PLACEMENT_3D('',#701,#536,#537);
#459=AXIS2_PLACEMENT_3D('',#705,#540,#541);
#460=AXIS2_PLACEMENT_3D('',#708,#543,#544);
#461=AXIS2_PLACEMENT_3D('',#709,#545,#546);
#462=AXIS2_PLACEMENT_3D('',#713,#549,#550);
#463=AXIS2_PLACEMENT_3D('',#715,#551,#552);
#464=AXIS2_PLACEMENT_3D('',#717,#553,#554);
#465=AXIS2_PLACEMENT_3D('',#718,#555,#556);
#466=AXIS2_PLACEMENT_3D('',#722,#558,#559);
#467=AXIS2_PLACEMENT_3D('',#759,#561,#562);
#468=AXIS2_PLACEMENT_3D('',#761,#564,#565);
#469=AXIS2_PLACEMENT_3D('',#765,#568,#569);
#470=AXIS2_PLACEMENT_3D('',#768,#571,#572);
#471=AXIS2_PLACEMENT_3D('',#770,#573,#574);
#472=AXIS2_PLACEMENT_3D('',#771,#575,#576);
#473=AXIS2_PLACEMENT_3D('',#772,#577,#578);
#474=AXIS2_PLACEMENT_3D('',#809,#580,#581);
#475=AXIS2_PLACEMENT_3D('',#846,#583,#584);
#476=AXIS2_PLACEMENT_3D('',#848,#586,#587);
#477=DIRECTION('axis',(0.,0.,1.));
#478=DIRECTION('refdir',(1.,0.,0.));
#479=DIRECTION('center_axis',(0.707106781186548,0.,0.707106781186548));
#480=DIRECTION('ref_axis',(0.707106781186548,0.,-0.707106781186548));
#481=DIRECTION('',(0.,1.,0.));
#482=DIRECTION('',(0.,-1.,0.));
#483=DIRECTION('',(0.577350269189627,0.577350269189624,-0.577350269189627));
#484=DIRECTION('center_axis',(0.707106781186546,-0.707106781186549,0.));
#485=DIRECTION('ref_axis',(0.,0.,-1.));
#486=DIRECTION('',(0.,0.,-1.));
#487=DIRECTION('',(0.,0.,1.));
#488=DIRECTION('center_axis',(0.707106781186546,0.707106781186549,0.));
#489=DIRECTION('ref_axis',(0.,0.,-1.));
#490=DIRECTION('',(0.,0.,-1.));
#491=DIRECTION('',(-0.678598344545847,0.678598344545844,0.281084637714825));
#492=DIRECTION('',(0.,0.,1.));
#493=DIRECTION('center_axis',(0.707106781186547,-0.500000000000001,-0.500000000000001));
#494=DIRECTION('ref_axis',(-0.577350269189627,0.,-0.816496580927725));
#495=DIRECTION('',(0.,0.707106781186548,-0.707106781186548));
#496=DIRECTION('',(0.707106781186549,0.499999999999999,0.499999999999999));
#497=DIRECTION('',(0.,-0.707106781186548,0.707106781186548));
#498=DIRECTION('',(-0.678598344545847,-0.281084637714821,-0.678598344545847));
#499=DIRECTION('center_axis',(-1.,0.,0.));
#500=DIRECTION('ref_axis',(0.,0.707106781186548,0.707106781186548));
#501=DIRECTION('',(0.707106783820671,-0.500000127865185,-0.499999868409569));
#502=DIRECTION('center_axis',(-1.,0.,0.));
#503=DIRECTION('ref_axis',(0.,0.707106781186548,0.707106781186548));
#504=DIRECTION('center_axis',(1.,0.,0.));
#505=DIRECTION('ref_axis',(0.,0.707106781186548,0.707106781186547));
#506=DIRECTION('center_axis',(0.707106781186547,0.5,0.500000000000001));
#507=DIRECTION('ref_axis',(0.577350269189627,0.,-0.816496580927726));
#508=DIRECTION('',(0.,0.707106781186548,-0.707106781186547));
#509=DIRECTION('',(0.,-0.707106781186548,0.707106781186547));
#510=DIRECTION('center_axis',(0.707106781186548,0.,-0.707106781186548));
#511=DIRECTION('ref_axis',(-0.707106781186548,0.,-0.707106781186548));
#512=DIRECTION('',(0.,1.,0.));
#513=DIRECTION('',(0.,-1.,0.));
#514=DIRECTION('center_axis',(-1.,0.,0.));
#515=DIRECTION('ref_axis',(0.,-0.707106781186548,-0.707106781186547));
#516=DIRECTION('center_axis',(1.,0.,0.));
#517=DIRECTION('ref_axis',(0.,-0.707106781186548,-0.707106781186547));
#518=DIRECTION('center_axis',(-1.,0.,0.));
#519=DIRECTION('ref_axis',(0.,-0.707106781186548,-0.707106781186547));
#520=DIRECTION('center_axis',(-1.,0.,0.));
#521=DIRECTION('ref_axis',(0.,0.707106781186548,0.707106781186547));
#522=DIRECTION('center_axis',(-1.,0.,0.));
#523=DIRECTION('ref_axis',(0.,0.707106781186548,0.707106781186547));
#524=DIRECTION('center_axis',(1.,0.,0.));
#525=DIRECTION('ref_axis',(0.,0.707106781186548,0.707106781186547));
#526=DIRECTION('center_axis',(-1.,0.,0.));
#527=DIRECTION('ref_axis',(0.,0.707106781186547,0.707106781186547));
#528=DIRECTION('',(1.,0.,0.));
#529=DIRECTION('center_axis',(-1.,0.,0.));
#530=DIRECTION('ref_axis',(0.,0.707106781186547,0.707106781186547));
#531=DIRECTION('',(-1.,0.,0.));
#532=DIRECTION('center_axis',(0.,-1.,0.));
#533=DIRECTION('ref_axis',(0.,0.,1.));
#534=DIRECTION('',(-1.,0.,0.));
#535=DIRECTION('',(0.,0.,1.));
#536=DIRECTION('center_axis',(0.,0.707106781186547,0.707106781186548));
#537=DIRECTION('ref_axis',(0.,0.707106781186548,-0.707106781186547));
#538=DIRECTION('',(1.,0.,0.));
#539=DIRECTION('',(0.,0.707106781186548,-0.707106781186547));
#540=DIRECTION('center_axis',(-1.,0.,0.));
#541=DIRECTION('ref_axis',(0.,0.707106781186547,0.707106781186547));
#542=DIRECTION('',(-1.,0.,0.));
#543=DIRECTION('center_axis',(-1.,0.,0.));
#544=DIRECTION('ref_axis',(0.,0.707106781186547,0.707106781186547));
#545=DIRECTION('center_axis',(0.,-0.707106781186548,-0.707106781186548));
#546=DIRECTION('ref_axis',(0.,-0.707106781186548,0.707106781186548));
#547=DIRECTION('',(1.,0.,0.));
#548=DIRECTION('',(0.,-0.707106781186548,0.707106781186548));
#549=DIRECTION('center_axis',(1.,0.,0.));
#550=DIRECTION('ref_axis',(0.,1.,0.));
#551=DIRECTION('center_axis',(-1.,0.,0.));
#552=DIRECTION('ref_axis',(0.,-1.63757896132211E-15,-1.));
#553=DIRECTION('center_axis',(-1.,0.,0.));
#554=DIRECTION('ref_axis',(0.,-3.23352455922077E-15,-1.));
#555=DIRECTION('center_axis',(-1.,0.,0.));
#556=DIRECTION('ref_axis',(0.,-0.707106954046802,-0.707106608326251));
#557=DIRECTION('',(1.,0.,0.));
#558=DIRECTION('center_axis',(-1.,0.,0.));
#559=DIRECTION('ref_axis',(0.,0.707106781186547,0.707106781186547));
#560=DIRECTION('',(-1.,0.,0.));
#561=DIRECTION('center_axis',(0.,0.,1.));
#562=DIRECTION('ref_axis',(0.,1.,0.));
#563=DIRECTION('',(0.,1.,0.));
#564=DIRECTION('center_axis',(0.,0.,-1.));
#565=DIRECTION('ref_axis',(0.,-1.,0.));
#566=DIRECTION('',(0.,-1.,0.));
#567=DIRECTION('',(-1.,0.,0.));
#568=DIRECTION('center_axis',(1.,0.,0.));
#569=DIRECTION('ref_axis',(0.,1.,0.));
#570=DIRECTION('',(0.,0.,-1.));
#571=DIRECTION('center_axis',(-1.,0.,0.));
#572=DIRECTION('ref_axis',(0.,-1.63757896132211E-15,-1.));
#573=DIRECTION('center_axis',(1.,0.,0.));
#574=DIRECTION('ref_axis',(0.,-3.23352455922077E-15,-1.));
#575=DIRECTION('center_axis',(0.,1.,0.));
#576=DIRECTION('ref_axis',(0.,0.,-1.));
#577=DIRECTION('center_axis',(0.,-0.707106781186548,-0.707106781186547));
#578=DIRECTION('ref_axis',(0.,0.707106781186547,-0.707106781186548));
#579=DIRECTION('',(0.,-0.707106781186548,-0.707106781186547));
#580=DIRECTION('center_axis',(-1.,0.,0.));
#581=DIRECTION('ref_axis',(0.,-1.63757896132211E-15,-1.));
#582=DIRECTION('',(-1.,0.,0.));
#583=DIRECTION('center_axis',(-1.,0.,0.));
#584=DIRECTION('ref_axis',(0.,-3.23352455922077E-15,-1.));
#585=DIRECTION('',(-1.,0.,0.));
#586=DIRECTION('center_axis',(0.,-0.707106781186548,-0.707106781186547));
#587=DIRECTION('ref_axis',(0.,0.707106781186547,-0.707106781186548));
#588=DIRECTION('',(0.,-0.707106781186548,-0.707106781186547));
#589=CARTESIAN_POINT('',(0.,0.,0.));
#590=CARTESIAN_POINT('Origin',(22.9989999523163,49.5485518526668,22.303079159301));
#591=CARTESIAN_POINT('',(23.4989999523163,43.7360657725059,21.803079159301));
#592=CARTESIAN_POINT('',(23.4989999523163,49.4393095605021,21.803079159301));
#593=CARTESIAN_POINT('',(23.4989999523163,49.5485518526668,21.803079159301));
#594=CARTESIAN_POINT('',(22.4989999523163,49.5124071895752,22.8030791593011));
#595=CARTESIAN_POINT('Ctrl Pts',(23.4989999523163,49.4393095605021,21.8030791593011));
#596=CARTESIAN_POINT('Ctrl Pts',(23.1665711582229,49.4647754709538,22.1355079533944));
#597=CARTESIAN_POINT('Ctrl Pts',(22.8314873081962,49.4891673672604,22.4705918034211));
#598=CARTESIAN_POINT('Ctrl Pts',(22.4989999523163,49.5124071895752,22.803079159301));
#599=CARTESIAN_POINT('',(22.4989999523163,42.7360657725059,22.8030791593011));
#600=CARTESIAN_POINT('',(22.4989999523163,49.5485518526668,22.8030791593011));
#601=CARTESIAN_POINT('',(22.4989999523163,42.7360657725059,22.8030791593011));
#602=CARTESIAN_POINT('Origin',(22.9989999523163,43.2360657725059,17.7322504659141));
#603=CARTESIAN_POINT('',(22.4989999523163,42.7360657725059,16.0267281774567));
#604=CARTESIAN_POINT('',(22.4989999523163,42.7360657725059,17.7322504659141));
#605=CARTESIAN_POINT('',(23.4989999523163,43.7360657725059,16.0998265485472));
#606=CARTESIAN_POINT('Ctrl Pts',(22.4989999523163,42.7360657725059,16.0267281774567));
#607=CARTESIAN_POINT('Ctrl Pts',(22.8314873088923,43.0685531290819,16.0499682356187));
#608=CARTESIAN_POINT('Ctrl Pts',(23.1665711591832,43.4036369793728,16.0743603795313));
#609=CARTESIAN_POINT('Ctrl Pts',(23.4989999523163,43.7360657725059,16.0998265485472));
#610=CARTESIAN_POINT('',(23.4989999523163,43.7360657725059,17.7322504659141));
#611=CARTESIAN_POINT('Origin',(22.9989999523163,54.1193805460538,15.9905930791401));
#612=CARTESIAN_POINT('',(23.4989999523163,53.6193805460538,17.6230104136616));
#613=CARTESIAN_POINT('',(23.4989999523163,53.6193805460538,14.929814892092));
#614=CARTESIAN_POINT('',(23.4989999523163,53.6193805460538,15.9905930791401));
#615=CARTESIAN_POINT('',(22.4989999523163,54.6193805460538,15.3440284544651));
#616=CARTESIAN_POINT('',(23.4989999523163,53.6193805460538,14.929814892092));
#617=CARTESIAN_POINT('',(22.4989999523163,54.6193805460538,17.6961082997622));
#618=CARTESIAN_POINT('',(22.4989999523163,54.6193805460538,15.9905930791401));
#619=CARTESIAN_POINT('Ctrl Pts',(22.4989999523163,54.6193805460538,17.6961082997622));
#620=CARTESIAN_POINT('Ctrl Pts',(22.8314873084467,54.2868931899234,17.6728683957516));
#621=CARTESIAN_POINT('Ctrl Pts',(23.1665711585593,53.9518093398108,17.6484764136771));
#622=CARTESIAN_POINT('Ctrl Pts',(23.4989999523163,53.6193805460538,17.6230104136616));
#623=CARTESIAN_POINT('Origin',(22.9989999523163,51.1224453744163,10.6995422698653));
#624=CARTESIAN_POINT('',(22.4989999523163,50.1951164773419,10.9197643857532));
#625=CARTESIAN_POINT('',(22.4989999523163,55.2922938251457,5.82258703794931));
#626=CARTESIAN_POINT('',(22.4989999523163,50.768891983823,10.345988879272));
#627=CARTESIAN_POINT('',(23.4989999523163,55.9994006063323,6.52969381913586));
#628=CARTESIAN_POINT('',(22.4989999523163,55.2922938251457,5.82258703794931));
#629=CARTESIAN_POINT('',(23.4989999523163,50.609330039715,11.9197643857532));
#630=CARTESIAN_POINT('',(23.4989999523163,51.4759987650095,11.0530956604586));
#631=CARTESIAN_POINT('',(23.4989999523163,50.609330039715,11.9197643857532));
#632=CARTESIAN_POINT('Origin',(22.998999948591,57.5044246964723,8.03471905717635));
#633=CARTESIAN_POINT('',(22.4989999448657,59.7165578938577,10.2468511066612));
#634=CARTESIAN_POINT('',(23.4989999523163,59.0094509292082,9.53974450893743));
#635=CARTESIAN_POINT('',(22.4989999448657,59.7165578938577,10.2468511066612));
#636=CARTESIAN_POINT('Origin',(23.4989999523163,57.5044246964723,8.03471905717635));
#637=CARTESIAN_POINT('Origin',(22.4989999448657,57.5044246964723,8.03471905717635));
#638=CARTESIAN_POINT('Origin',(22.9989999523163,52.8001480875769,16.4561541317554));
#639=CARTESIAN_POINT('',(23.4989999523163,52.4465946969836,16.1026007411622));
#640=CARTESIAN_POINT('',(22.4989999523163,53.1537014781702,16.8097075223487));
#641=CARTESIAN_POINT('Origin',(22.9989999523163,47.8068944658929,11.4197643857532));
#642=CARTESIAN_POINT('',(22.4989999523163,47.8430270672996,10.9197643857532));
#643=CARTESIAN_POINT('',(22.4989999523163,47.8068944658929,10.9197643857532));
#644=CARTESIAN_POINT('',(23.4989999523163,47.9161256954149,11.9197643857532));
#645=CARTESIAN_POINT('',(23.4989999523163,47.8068944658929,11.9197643857532));
#646=CARTESIAN_POINT('Ctrl Pts',(23.4989999523163,47.916125695415,11.9197643857532));
#647=CARTESIAN_POINT('Ctrl Pts',(23.1665711595153,47.8906594368359,11.5873355929522));
#648=CARTESIAN_POINT('Ctrl Pts',(22.8314873091321,47.8662672071557,11.2522517425689));
#649=CARTESIAN_POINT('Ctrl Pts',(22.4989999523163,47.8430270672996,10.9197643857532));
#650=CARTESIAN_POINT('Origin',(22.9989999523163,48.6777227742512,16.8614209793975));
#651=CARTESIAN_POINT('Origin',(22.4989999523163,48.6777227742512,16.8614209793975));
#652=CARTESIAN_POINT('Origin',(23.4989999523163,48.6777227742512,16.8614209793975));
#653=CARTESIAN_POINT('Origin',(22.9989999523163,48.6777227742512,16.8614209793975));
#654=CARTESIAN_POINT('Origin',(23.4989999523163,48.6777227742512,16.8614209793975));
#655=CARTESIAN_POINT('Origin',(22.4989999523163,48.6777227742512,16.8614209793975));
#656=CARTESIAN_POINT('Origin',(23.4989999523163,48.6777227742512,16.8614209793975));
#657=CARTESIAN_POINT('',(16.9999999523163,54.6193805460538,17.6961082997622));
#658=CARTESIAN_POINT('',(23.4989999523163,54.6193805460538,17.6961082997622));
#659=CARTESIAN_POINT('',(16.9999999523163,49.5124071895752,22.8030791593011));
#660=CARTESIAN_POINT('Origin',(16.9999999523163,48.6777227742512,16.8614209793975));
#661=CARTESIAN_POINT('',(23.4989999523163,49.5124071895752,22.8030791593011));
#662=CARTESIAN_POINT('',(20.0991726913452,51.7693036457332,22.0036119244214));
#663=CARTESIAN_POINT('Ctrl Pts',(20.0991726913452,51.7693036457332,22.0036119244214));
#664=CARTESIAN_POINT('Ctrl Pts',(20.282031066896,51.7693036457332,22.0036119244214));
#665=CARTESIAN_POINT('Ctrl Pts',(20.4765581859761,51.8019749679459,21.9843914793575));
#666=CARTESIAN_POINT('Ctrl Pts',(20.83357893551,51.9307606478325,21.903595406974));
#667=CARTESIAN_POINT('Ctrl Pts',(20.9961386250246,52.0264703403569,21.8416675647893));
#668=CARTESIAN_POINT('Ctrl Pts',(21.2528008152363,52.2394342534155,21.6916563283398));
#669=CARTESIAN_POINT('Ctrl Pts',(21.3642795646166,52.3710589298401,21.5933776620657));
#670=CARTESIAN_POINT('Ctrl Pts',(21.5124851227843,52.6470189657462,21.3644015197657));
#671=CARTESIAN_POINT('Ctrl Pts',(21.5491726913452,52.7910785761722,21.2333465392791));
#672=CARTESIAN_POINT('Ctrl Pts',(21.5491726913452,53.0496479372779,20.9747772030452));
#673=CARTESIAN_POINT('Ctrl Pts',(21.5124851233889,53.1807029305544,20.8307176065135));
#674=CARTESIAN_POINT('Ctrl Pts',(21.3642795662328,53.4096790972983,20.5547575956493));
#675=CARTESIAN_POINT('Ctrl Pts',(21.252800817228,53.5079577751991,20.4231329304235));
#676=CARTESIAN_POINT('Ctrl Pts',(20.9961386267343,53.6579690308314,20.2101690344738));
#677=CARTESIAN_POINT('Ctrl Pts',(20.8335789364414,53.7198968814814,20.1144593494785));
#678=CARTESIAN_POINT('Ctrl Pts',(20.476558185926,53.8006929650485,19.9856736800046));
#679=CARTESIAN_POINT('Ctrl Pts',(20.2820310666821,53.8199134128112,19.9530023606174));
#680=CARTESIAN_POINT('Ctrl Pts',(19.9163143160083,53.8199134128112,19.9530023606174));
#681=CARTESIAN_POINT('Ctrl Pts',(19.7217871967644,53.8006929650485,19.9856736800046));
#682=CARTESIAN_POINT('Ctrl Pts',(19.364766446249,53.7198968814814,20.1144593494785));
#683=CARTESIAN_POINT('Ctrl Pts',(19.2022067559561,53.6579690308314,20.2101690344738));
#684=CARTESIAN_POINT('Ctrl Pts',(18.9455445654625,53.5079577751991,20.4231329304235));
#685=CARTESIAN_POINT('Ctrl Pts',(18.8340658164576,53.4096790972983,20.5547575956493));
#686=CARTESIAN_POINT('Ctrl Pts',(18.6858602593015,53.1807029305544,20.8307176065135));
#687=CARTESIAN_POINT('Ctrl Pts',(18.6491726913452,53.0496479372779,20.9747772030452));
#688=CARTESIAN_POINT('Ctrl Pts',(18.6491726913452,52.7910785761722,21.2333465392791));
#689=CARTESIAN_POINT('Ctrl Pts',(18.6858602599061,52.6470189657462,21.3644015197656));
#690=CARTESIAN_POINT('Ctrl Pts',(18.8340658180738,52.3710589298401,21.5933776620657));
#691=CARTESIAN_POINT('Ctrl Pts',(18.9455445674541,52.2394342534155,21.6916563283398));
#692=CARTESIAN_POINT('Ctrl Pts',(19.2022067576658,52.0264703403569,21.8416675647893));
#693=CARTESIAN_POINT('Ctrl Pts',(19.3647664471804,51.9307606478325,21.903595406974));
#694=CARTESIAN_POINT('Ctrl Pts',(19.7217871967143,51.8019749679459,21.9843914793575));
#695=CARTESIAN_POINT('Ctrl Pts',(19.9163143157945,51.7693036457332,22.0036119244214));
#696=CARTESIAN_POINT('Ctrl Pts',(20.0991726913452,51.7693036457332,22.0036119244214));
#697=CARTESIAN_POINT('Origin',(22.4989999523163,54.6193805460538,15.1197643857532));
#698=CARTESIAN_POINT('',(16.9999999523163,54.6193805460538,15.3440284544651));
#699=CARTESIAN_POINT('',(22.7489999523163,54.6193805460538,15.3440284544651));
#700=CARTESIAN_POINT('',(16.9999999523163,54.6193805460538,15.9905930791401));
#701=CARTESIAN_POINT('Origin',(22.9989999523163,55.4175477627045,14.5458612378144));
#702=CARTESIAN_POINT('',(16.9999999523163,59.7165578938577,10.2468511066612));
#703=CARTESIAN_POINT('',(22.9989999523163,59.7165578938577,10.2468511066612));
#704=CARTESIAN_POINT('',(16.9999999523163,53.1537014781702,16.8097075223487));
#705=CARTESIAN_POINT('Origin',(23.4989999448657,57.5044246964723,8.03471905717635));
#706=CARTESIAN_POINT('',(16.9999999523163,55.2922938251457,5.82258703794931));
#707=CARTESIAN_POINT('',(22.9989999523163,55.2922938251457,5.82258703794931));
#708=CARTESIAN_POINT('Origin',(16.9999984242308,57.5044246964723,8.03471905717635));
#709=CARTESIAN_POINT('Origin',(22.9989999523163,55.0721928427221,6.04268802037293));
#710=CARTESIAN_POINT('',(16.9999999523163,50.1951164773419,10.9197643857532));
#711=CARTESIAN_POINT('',(22.7489999523163,50.1951164773419,10.9197643857532));
#712=CARTESIAN_POINT('',(16.9999999523163,50.768891983823,10.345988879272));
#713=CARTESIAN_POINT('Origin',(23.4989999523163,48.6777231592799,16.8614217725271));
#714=CARTESIAN_POINT('',(23.4989999523163,48.6777231592799,20.9614217725271));
#715=CARTESIAN_POINT('Origin',(23.4989999523163,48.6777231592799,16.8614217725271));
#716=CARTESIAN_POINT('',(23.4989999523163,56.5266084001965,10.4625365316105));
#717=CARTESIAN_POINT('Origin',(23.4989999523163,56.5266084001965,9.01253653161048));
#718=CARTESIAN_POINT('Origin',(23.4989999523163,48.6777227742512,16.8614209793975));
#719=CARTESIAN_POINT('',(16.9999999523163,42.7360657725059,16.0267281774567));
#720=CARTESIAN_POINT('',(23.4989999523163,42.7360657725059,16.0267281774567));
#721=CARTESIAN_POINT('',(16.9999999523163,47.8430270672996,10.9197643857532));
#722=CARTESIAN_POINT('Origin',(16.9999999523163,48.6777227742512,16.8614209793975));
#723=CARTESIAN_POINT('',(23.4989999523163,47.8430270672996,10.9197643857532));
#724=CARTESIAN_POINT('',(20.0991726913452,43.5355318292272,13.7698401079154));
#725=CARTESIAN_POINT('Ctrl Pts',(20.0991726913452,43.5355318292272,13.7698401079154));
#726=CARTESIAN_POINT('Ctrl Pts',(19.9163143157945,43.5355318292272,13.7698401079154));
#727=CARTESIAN_POINT('Ctrl Pts',(19.7217871967143,43.5547522742912,13.7371687857027));
#728=CARTESIAN_POINT('Ctrl Pts',(19.3647664471804,43.6355483466746,13.6083831058161));
#729=CARTESIAN_POINT('Ctrl Pts',(19.2022067576658,43.6974761888594,13.5126734132917));
#730=CARTESIAN_POINT('Ctrl Pts',(18.9455445674541,43.8474874253089,13.2997095002331));
#731=CARTESIAN_POINT('Ctrl Pts',(18.8340658180738,43.945766091583,13.1680848238086));
#732=CARTESIAN_POINT('Ctrl Pts',(18.6858602599061,44.174742233883,12.8921247879024));
#733=CARTESIAN_POINT('Ctrl Pts',(18.6491726913452,44.3057972143696,12.7480651774765));
#734=CARTESIAN_POINT('Ctrl Pts',(18.6491726913452,44.5643665506034,12.4894958163707));
#735=CARTESIAN_POINT('Ctrl Pts',(18.6858602593015,44.7084261471352,12.3584408230943));
#736=CARTESIAN_POINT('Ctrl Pts',(18.8340658164576,44.9843861579994,12.1294646563504));
#737=CARTESIAN_POINT('Ctrl Pts',(18.9455445654625,45.1160108232251,12.0311859784496));
#738=CARTESIAN_POINT('Ctrl Pts',(19.2022067559561,45.3289747191749,11.8811747228172));
#739=CARTESIAN_POINT('Ctrl Pts',(19.364766446249,45.4246844041701,11.8192468721672));
#740=CARTESIAN_POINT('Ctrl Pts',(19.7217871967644,45.5534700736441,11.7384507886002));
#741=CARTESIAN_POINT('Ctrl Pts',(19.9163143160083,45.5861413930312,11.7192303408375));
#742=CARTESIAN_POINT('Ctrl Pts',(20.2820310666821,45.5861413930312,11.7192303408375));
#743=CARTESIAN_POINT('Ctrl Pts',(20.476558185926,45.5534700736441,11.7384507886002));
#744=CARTESIAN_POINT('Ctrl Pts',(20.8335789364414,45.4246844041701,11.8192468721672));
#745=CARTESIAN_POINT('Ctrl Pts',(20.9961386267343,45.3289747191749,11.8811747228172));
#746=CARTESIAN_POINT('Ctrl Pts',(21.252800817228,45.1160108232251,12.0311859784496));
#747=CARTESIAN_POINT('Ctrl Pts',(21.3642795662328,44.9843861579994,12.1294646563504));
#748=CARTESIAN_POINT('Ctrl Pts',(21.5124851233889,44.7084261471352,12.3584408230943));
#749=CARTESIAN_POINT('Ctrl Pts',(21.5491726913452,44.5643665506034,12.4894958163707));
#750=CARTESIAN_POINT('Ctrl Pts',(21.5491726913452,44.3057972143696,12.7480651774765));
#751=CARTESIAN_POINT('Ctrl Pts',(21.5124851227843,44.174742233883,12.8921247879024));
#752=CARTESIAN_POINT('Ctrl Pts',(21.3642795646166,43.945766091583,13.1680848238086));
#753=CARTESIAN_POINT('Ctrl Pts',(21.2528008152363,43.8474874253089,13.2997095002331));
#754=CARTESIAN_POINT('Ctrl Pts',(20.9961386250246,43.6974761888594,13.5126734132917));
#755=CARTESIAN_POINT('Ctrl Pts',(20.83357893551,43.6355483466746,13.6083831058162));
#756=CARTESIAN_POINT('Ctrl Pts',(20.4765581859761,43.5547522742911,13.7371687857027));
#757=CARTESIAN_POINT('Ctrl Pts',(20.282031066896,43.5355318292272,13.7698401079154));
#758=CARTESIAN_POINT('Ctrl Pts',(20.0991726913452,43.5355318292272,13.7698401079154));
#759=CARTESIAN_POINT('Origin',(22.4989999523163,46.9360657725059,10.9197643857532));
#760=CARTESIAN_POINT('',(16.9999999523163,47.8068944658929,10.9197643857532));
#761=CARTESIAN_POINT('Origin',(22.4989999523163,50.4193805460538,22.8030791593011));
#762=CARTESIAN_POINT('',(16.9999999523163,42.7360657725059,22.803079159301));
#763=CARTESIAN_POINT('',(16.9999999523163,49.5485518526668,22.8030791593011));
#764=CARTESIAN_POINT('',(22.4989999523163,42.7360657725059,22.8030791593011));
#765=CARTESIAN_POINT('Origin',(16.9999999523163,48.6777231592799,16.8614217725271));
#766=CARTESIAN_POINT('',(16.9999999523163,42.7360657725059,17.7322504659141));
#767=CARTESIAN_POINT('',(16.9999999523163,48.6777231592799,20.9614217725271));
#768=CARTESIAN_POINT('Origin',(16.9999999523163,48.6777231592799,16.8614217725271));
#769=CARTESIAN_POINT('',(16.9999999523163,56.5266084001965,10.4625365316105));
#770=CARTESIAN_POINT('Origin',(16.9999999523163,56.5266084001965,9.01253653161048));
#771=CARTESIAN_POINT('Origin',(22.4989999523163,42.7360657725059,18.6030791593011));
#772=CARTESIAN_POINT('Origin',(20.0991726913452,53.6274706275857,21.8111692408329));
#773=CARTESIAN_POINT('',(20.0991726913452,44.9406384682375,15.1749467469258));
#774=CARTESIAN_POINT('Ctrl Pts',(20.0991726913452,44.9406384682375,15.1749467469258));
#775=CARTESIAN_POINT('Ctrl Pts',(19.9153186534048,44.9406384682375,15.1749467469258));
#776=CARTESIAN_POINT('Ctrl Pts',(19.7204275369948,44.9565183607132,15.1384009014407));
#777=CARTESIAN_POINT('Ctrl Pts',(19.3637256878083,45.0252217290331,14.9971795571973));
#778=CARTESIAN_POINT('Ctrl Pts',(19.2017569524938,45.0786261243238,14.8931872286003));
#779=CARTESIAN_POINT('Ctrl Pts',(18.9460550028392,45.2127353216906,14.6656792608403));
#780=CARTESIAN_POINT('Ctrl Pts',(18.8347002589476,45.302701001042,14.5265442062319));
#781=CARTESIAN_POINT('Ctrl Pts',(18.6862171690223,45.5204040360388,14.2396354020312));
#782=CARTESIAN_POINT('Ctrl Pts',(18.6491726913452,45.6486584185345,14.0922109075428));
#783=CARTESIAN_POINT('Ctrl Pts',(18.6491726913452,45.9085122942955,13.8323570317818));
#784=CARTESIAN_POINT('Ctrl Pts',(18.6862171690223,46.0559367887839,13.7041026492861));
#785=CARTESIAN_POINT('Ctrl Pts',(18.8347002589476,46.3428455929846,13.4863996142893));
#786=CARTESIAN_POINT('Ctrl Pts',(18.9460550028392,46.4819806475931,13.3964339349379));
#787=CARTESIAN_POINT('Ctrl Pts',(19.2017569524938,46.709488615353,13.2623247375711));
#788=CARTESIAN_POINT('Ctrl Pts',(19.3637256878083,46.8134809439501,13.2089203422804));
#789=CARTESIAN_POINT('Ctrl Pts',(19.7204275369948,46.9547022881935,13.1402169739605));
#790=CARTESIAN_POINT('Ctrl Pts',(19.9153186534048,46.9912481336785,13.1243370814848));
#791=CARTESIAN_POINT('Ctrl Pts',(20.2830267292857,46.9912481336785,13.1243370814848));
#792=CARTESIAN_POINT('Ctrl Pts',(20.4779178456956,46.9547022881935,13.1402169739605));
#793=CARTESIAN_POINT('Ctrl Pts',(20.8346196948822,46.8134809439501,13.2089203422804));
#794=CARTESIAN_POINT('Ctrl Pts',(20.9965884301966,46.709488615353,13.2623247375711));
#795=CARTESIAN_POINT('Ctrl Pts',(21.2522903798512,46.4819806475931,13.3964339349379));
#796=CARTESIAN_POINT('Ctrl Pts',(21.3636451237428,46.3428455929846,13.4863996142893));
#797=CARTESIAN_POINT('Ctrl Pts',(21.5121282136681,46.0559367887839,13.704102649286));
#798=CARTESIAN_POINT('Ctrl Pts',(21.5491726913452,45.9085122942955,13.8323570317818));
#799=CARTESIAN_POINT('Ctrl Pts',(21.5491726913452,45.6486584185345,14.0922109075428));
#800=CARTESIAN_POINT('Ctrl Pts',(21.5121282136681,45.5204040360388,14.2396354020312));
#801=CARTESIAN_POINT('Ctrl Pts',(21.3636451237428,45.302701001042,14.5265442062319));
#802=CARTESIAN_POINT('Ctrl Pts',(21.2522903798512,45.2127353216906,14.6656792608403));
#803=CARTESIAN_POINT('Ctrl Pts',(20.9965884301966,45.0786261243238,14.8931872286003));
#804=CARTESIAN_POINT('Ctrl Pts',(20.8346196948822,45.0252217290331,14.9971795571973));
#805=CARTESIAN_POINT('Ctrl Pts',(20.4779178456956,44.9565183607132,15.1384009014407));
#806=CARTESIAN_POINT('Ctrl Pts',(20.2830267292856,44.9406384682375,15.1749467469258));
#807=CARTESIAN_POINT('Ctrl Pts',(20.0991726913452,44.9406384682375,15.1749467469258));
#808=CARTESIAN_POINT('',(20.0991726913452,52.6021657948652,22.8364740735534));
#809=CARTESIAN_POINT('Origin',(22.4989999523163,48.6777231592799,16.8614217725271));
#810=CARTESIAN_POINT('',(22.4989999523163,48.6777231592799,20.9614217725271));
#811=CARTESIAN_POINT('',(20.0991726913452,50.3641981848812,20.5985064635694));
#812=CARTESIAN_POINT('Ctrl Pts',(20.0991726913452,50.3641981848812,20.5985064635694));
#813=CARTESIAN_POINT('Ctrl Pts',(20.2830267292857,50.3641981848812,20.5985064635694));
#814=CARTESIAN_POINT('Ctrl Pts',(20.4779178456956,50.4007440303662,20.5826265710937));
#815=CARTESIAN_POINT('Ctrl Pts',(20.8346196948822,50.5419653746096,20.5139232027738));
#816=CARTESIAN_POINT('Ctrl Pts',(20.9965884301966,50.6459577032067,20.4605188074832));
#817=CARTESIAN_POINT('Ctrl Pts',(21.2522903798512,50.8734656709667,20.3264096101164));
#818=CARTESIAN_POINT('Ctrl Pts',(21.3636451237428,51.0126007255751,20.236443930765));
#819=CARTESIAN_POINT('Ctrl Pts',(21.5121282136681,51.2995095297758,20.0187408957682));
#820=CARTESIAN_POINT('Ctrl Pts',(21.5491726913452,51.4469340242642,19.8904865132725));
#821=CARTESIAN_POINT('Ctrl Pts',(21.5491726913452,51.7067879000252,19.6306326375115));
#822=CARTESIAN_POINT('Ctrl Pts',(21.5121282136681,51.8350422825209,19.483208143023));
#823=CARTESIAN_POINT('Ctrl Pts',(21.3636451237428,52.0527453175177,19.1962993388223));
#824=CARTESIAN_POINT('Ctrl Pts',(21.2522903798512,52.1427109968691,19.0571642842139));
#825=CARTESIAN_POINT('Ctrl Pts',(20.9965884301966,52.2768201942359,18.8296563164539));
#826=CARTESIAN_POINT('Ctrl Pts',(20.8346196948822,52.3302245895266,18.7256639878569));
#827=CARTESIAN_POINT('Ctrl Pts',(20.4779178456956,52.3989279578465,18.5844426436135));
#828=CARTESIAN_POINT('Ctrl Pts',(20.2830267292857,52.4148078503222,18.5478967981284));
#829=CARTESIAN_POINT('Ctrl Pts',(19.9153186534048,52.4148078503222,18.5478967981284));
#830=CARTESIAN_POINT('Ctrl Pts',(19.7204275369948,52.3989279578465,18.5844426436135));
#831=CARTESIAN_POINT('Ctrl Pts',(19.3637256878083,52.3302245895266,18.7256639878569));
#832=CARTESIAN_POINT('Ctrl Pts',(19.2017569524938,52.2768201942359,18.8296563164539));
#833=CARTESIAN_POINT('Ctrl Pts',(18.9460550028392,52.1427109968691,19.0571642842139));
#834=CARTESIAN_POINT('Ctrl Pts',(18.8347002589476,52.0527453175177,19.1962993388223));
#835=CARTESIAN_POINT('Ctrl Pts',(18.6862171690223,51.8350422825209,19.483208143023));
#836=CARTESIAN_POINT('Ctrl Pts',(18.6491726913452,51.7067879000252,19.6306326375115));
#837=CARTESIAN_POINT('Ctrl Pts',(18.6491726913452,51.4469340242642,19.8904865132725));
#838=CARTESIAN_POINT('Ctrl Pts',(18.6862171690223,51.2995095297758,20.0187408957682));
#839=CARTESIAN_POINT('Ctrl Pts',(18.8347002589476,51.0126007255751,20.236443930765));
#840=CARTESIAN_POINT('Ctrl Pts',(18.9460550028392,50.8734656709667,20.3264096101164));
#841=CARTESIAN_POINT('Ctrl Pts',(19.2017569524938,50.6459577032067,20.4605188074832));
#842=CARTESIAN_POINT('Ctrl Pts',(19.3637256878083,50.5419653746096,20.5139232027738));
#843=CARTESIAN_POINT('Ctrl Pts',(19.7204275369948,50.4007440303662,20.5826265710937));
#844=CARTESIAN_POINT('Ctrl Pts',(19.9153186534048,50.3641981848812,20.5985064635694));
#845=CARTESIAN_POINT('Ctrl Pts',(20.0991726913452,50.3641981848812,20.5985064635694));
#846=CARTESIAN_POINT('Origin',(22.9989999523163,56.5266084001965,9.01253653161048));
#847=CARTESIAN_POINT('',(22.9989999523163,56.5266084001965,10.4625365316105));
#848=CARTESIAN_POINT('Origin',(20.0991726913452,53.6274706275857,21.8111692408329));
#849=CARTESIAN_POINT('',(20.0991726913452,52.6021657948652,22.8364740735534));
#850=UNCERTAINTY_MEASURE_WITH_UNIT(LENGTH_MEASURE(0.01),#854,
'DISTANCE_ACCURACY_VALUE',
'Maximum model space distance between geometric entities at asserted c
onnectivities');
#851=UNCERTAINTY_MEASURE_WITH_UNIT(LENGTH_MEASURE(0.01),#854,
'DISTANCE_ACCURACY_VALUE',
'Maximum model space distance between geometric entities at asserted c
onnectivities');
#852=(
GEOMETRIC_REPRESENTATION_CONTEXT(3)
GLOBAL_UNCERTAINTY_ASSIGNED_CONTEXT((#850))
GLOBAL_UNIT_ASSIGNED_CONTEXT((#854,#856,#857))
REPRESENTATION_CONTEXT('','3D')
);
#853=(
GEOMETRIC_REPRESENTATION_CONTEXT(3)
GLOBAL_UNCERTAINTY_ASSIGNED_CONTEXT((#851))
GLOBAL_UNIT_ASSIGNED_CONTEXT((#854,#856,#857))
REPRESENTATION_CONTEXT('','3D')
);
#854=(
LENGTH_UNIT()
NAMED_UNIT(*)
SI_UNIT(.MILLI.,.METRE.)
);
#855=(
LENGTH_UNIT()
NAMED_UNIT(*)
SI_UNIT($,.METRE.)
);
#856=(
NAMED_UNIT(*)
PLANE_ANGLE_UNIT()
SI_UNIT($,.RADIAN.)
);
#857=(
NAMED_UNIT(*)
SI_UNIT($,.STERADIAN.)
SOLID_ANGLE_UNIT()
);
#858=SHAPE_DEFINITION_REPRESENTATION(#859,#860);
#859=PRODUCT_DEFINITION_SHAPE('',$,#862);
#860=SHAPE_REPRESENTATION('',(#439),#852);
#861=PRODUCT_DEFINITION_CONTEXT('part definition',#866,'design');
#862=PRODUCT_DEFINITION('5','42. Selector Switch',#863,#861);
#863=PRODUCT_DEFINITION_FORMATION('',$,#868);
#864=PRODUCT_RELATED_PRODUCT_CATEGORY('42. Selector Switch',
'42. Selector Switch',(#868));
#865=APPLICATION_PROTOCOL_DEFINITION('international standard',
'automotive_design',2009,#866);
#866=APPLICATION_CONTEXT(
'Core Data for Automotive Mechanical Design Process');
#867=PRODUCT_CONTEXT('part definition',#866,'mechanical');
#868=PRODUCT('5','42. Selector Switch',$,(#867));
#869=PRESENTATION_STYLE_ASSIGNMENT((#871));
#870=PRESENTATION_STYLE_ASSIGNMENT((#872));
#871=SURFACE_STYLE_USAGE(.BOTH.,#873);
#872=SURFACE_STYLE_USAGE(.BOTH.,#874);
#873=SURFACE_SIDE_STYLE('',(#875));
#874=SURFACE_SIDE_STYLE('',(#876));
#875=SURFACE_STYLE_FILL_AREA(#877);
#876=SURFACE_STYLE_FILL_AREA(#878);
#877=FILL_AREA_STYLE('Steel - Satin',(#879));
#878=FILL_AREA_STYLE('Plastic - Matte (Black) (1)',(#880));
#879=FILL_AREA_STYLE_COLOUR('Steel - Satin',#881);
#880=FILL_AREA_STYLE_COLOUR('Plastic - Matte (Black) (1)',#882);
#881=COLOUR_RGB('Steel - Satin',0.627450980392157,0.627450980392157,0.627450980392157);
#882=COLOUR_RGB('Plastic - Matte (Black) (1)',0.0980392156862745,0.0980392156862745,
0.0980392156862745);
ENDSEC;
END-ISO-10303-21;
