ISO-10303-21;
HEADER;
/* Generated by software containing ST-Developer
 * from STEP Tools, Inc. (www.steptools.com) 
 */

FILE_DESCRIPTION(
/* description */ (''),
/* implementation_level */ '2;1');

FILE_NAME(
/* name */ '44. Rear Sight Left.step',
/* time_stamp */ '2025-10-08T23:28:08+01:00',
/* author */ (''),
/* organization */ (''),
/* preprocessor_version */ 'ST-DEVELOPER v20.1',
/* originating_system */ 'Autodesk Translation Framework v14.10.0.0',
/* authorisation */ '');

FILE_SCHEMA (('AUTOMOTIVE_DESIGN { 1 0 10303 214 3 1 1 }'));
ENDSEC;

DATA;
#10=MECHANICAL_DESIGN_GEOMETRIC_PRESENTATION_REPRESENTATION('',(#13),#1235);
#11=SHAPE_REPRESENTATION_RELATIONSHIP('SRR','None',#1242,#12);
#12=ADVANCED_BREP_SHAPE_REPRESENTATION('',(#14),#1234);
#13=STYLED_ITEM('',(#1252),#14);
#14=MANIFOLD_SOLID_BREP('44. Rear Sight Left',#713);
#15=B_SPLINE_CURVE_WITH_KNOTS('',3,(#1068,#1069,#1070,#1071,#1072,#1073,
#1074,#1075,#1076,#1077,#1078,#1079),.UNSPECIFIED.,.F.,.F.,(4,2,2,2,2,4),
(0.127201242143567,0.232037558225759,0.345748614270074,0.459459670314389,
0.574572473992073,0.581663192071307),.UNSPECIFIED.);
#16=B_SPLINE_CURVE_WITH_KNOTS('',3,(#1085,#1086,#1087,#1088),
 .UNSPECIFIED.,.F.,.F.,(4,4),(0.345537548987437,0.367368602267336),
 .UNSPECIFIED.);
#17=B_SPLINE_CURVE_WITH_KNOTS('',3,(#1117,#1118,#1119,#1120,#1121,#1122,
#1123,#1124,#1125,#1126),.UNSPECIFIED.,.F.,.F.,(4,2,2,2,4),(1.55805778550848,
1.5826611607199,1.68602880877706,1.78939645683423,1.86452330910398),
 .UNSPECIFIED.);
#18=B_SPLINE_CURVE_WITH_KNOTS('',3,(#1129,#1130,#1131,#1132,#1133,#1134,
#1135,#1136),.UNSPECIFIED.,.F.,.F.,(4,2,2,4),(-0.489633576062475,-0.482801304387479,
-0.40333123402596,-0.386098526789256),.UNSPECIFIED.);
#19=CYLINDRICAL_SURFACE('',#738,4.);
#20=CYLINDRICAL_SURFACE('',#750,4.);
#21=CYLINDRICAL_SURFACE('',#753,3.);
#22=CYLINDRICAL_SURFACE('',#755,3.);
#23=CYLINDRICAL_SURFACE('',#764,6.99999999999909);
#24=CYLINDRICAL_SURFACE('',#766,6.99999999999909);
#25=CYLINDRICAL_SURFACE('',#779,7.);
#26=CYLINDRICAL_SURFACE('',#780,4.);
#27=CYLINDRICAL_SURFACE('',#786,4.4);
#28=CYLINDRICAL_SURFACE('',#787,4.4);
#29=CYLINDRICAL_SURFACE('',#792,1.7);
#30=CYLINDRICAL_SURFACE('',#793,1.65);
#31=FACE_BOUND('',#96,.T.);
#32=FACE_BOUND('',#99,.T.);
#33=FACE_BOUND('',#100,.T.);
#34=FACE_BOUND('',#108,.T.);
#35=FACE_BOUND('',#124,.T.);
#36=CIRCLE('',#733,4.4);
#37=CIRCLE('',#734,4.4);
#38=CIRCLE('',#736,7.);
#39=CIRCLE('',#737,1.65);
#40=CIRCLE('',#741,6.99999999999909);
#41=CIRCLE('',#743,6.99999999999909);
#42=CIRCLE('',#744,7.);
#43=CIRCLE('',#745,1.65);
#44=CIRCLE('',#746,1.7);
#45=CIRCLE('',#754,3.);
#46=CIRCLE('',#756,3.);
#47=CIRCLE('',#759,4.4);
#48=CIRCLE('',#760,4.4);
#49=CIRCLE('',#761,4.);
#50=CIRCLE('',#781,4.);
#51=CIRCLE('',#783,1.7);
#52=FACE_OUTER_BOUND('',#91,.T.);
#53=FACE_OUTER_BOUND('',#92,.T.);
#54=FACE_OUTER_BOUND('',#93,.T.);
#55=FACE_OUTER_BOUND('',#94,.T.);
#56=FACE_OUTER_BOUND('',#95,.T.);
#57=FACE_OUTER_BOUND('',#97,.T.);
#58=FACE_OUTER_BOUND('',#98,.T.);
#59=FACE_OUTER_BOUND('',#101,.T.);
#60=FACE_OUTER_BOUND('',#102,.T.);
#61=FACE_OUTER_BOUND('',#103,.T.);
#62=FACE_OUTER_BOUND('',#104,.T.);
#63=FACE_OUTER_BOUND('',#105,.T.);
#64=FACE_OUTER_BOUND('',#106,.T.);
#65=FACE_OUTER_BOUND('',#107,.T.);
#66=FACE_OUTER_BOUND('',#109,.T.);
#67=FACE_OUTER_BOUND('',#110,.T.);
#68=FACE_OUTER_BOUND('',#111,.T.);
#69=FACE_OUTER_BOUND('',#112,.T.);
#70=FACE_OUTER_BOUND('',#113,.T.);
#71=FACE_OUTER_BOUND('',#114,.T.);
#72=FACE_OUTER_BOUND('',#115,.T.);
#73=FACE_OUTER_BOUND('',#116,.T.);
#74=FACE_OUTER_BOUND('',#117,.T.);
#75=FACE_OUTER_BOUND('',#118,.T.);
#76=FACE_OUTER_BOUND('',#119,.T.);
#77=FACE_OUTER_BOUND('',#120,.T.);
#78=FACE_OUTER_BOUND('',#121,.T.);
#79=FACE_OUTER_BOUND('',#122,.T.);
#80=FACE_OUTER_BOUND('',#123,.T.);
#81=FACE_OUTER_BOUND('',#125,.T.);
#82=FACE_OUTER_BOUND('',#126,.T.);
#83=FACE_OUTER_BOUND('',#127,.T.);
#84=FACE_OUTER_BOUND('',#128,.T.);
#85=FACE_OUTER_BOUND('',#129,.T.);
#86=FACE_OUTER_BOUND('',#130,.T.);
#87=FACE_OUTER_BOUND('',#131,.T.);
#88=FACE_OUTER_BOUND('',#132,.T.);
#89=FACE_OUTER_BOUND('',#133,.T.);
#90=FACE_OUTER_BOUND('',#134,.T.);
#91=EDGE_LOOP('',(#447,#448,#449,#450,#451,#452,#453,#454,#455,#456));
#92=EDGE_LOOP('',(#457,#458,#459,#460));
#93=EDGE_LOOP('',(#461,#462,#463,#464,#465,#466,#467,#468,#469,#470));
#94=EDGE_LOOP('',(#471,#472,#473,#474,#475,#476,#477,#478,#479,#480,#481,
#482));
#95=EDGE_LOOP('',(#483,#484,#485,#486));
#96=EDGE_LOOP('',(#487));
#97=EDGE_LOOP('',(#488,#489,#490,#491,#492,#493));
#98=EDGE_LOOP('',(#494,#495,#496,#497,#498,#499,#500,#501));
#99=EDGE_LOOP('',(#502));
#100=EDGE_LOOP('',(#503));
#101=EDGE_LOOP('',(#504,#505,#506,#507,#508,#509));
#102=EDGE_LOOP('',(#510,#511,#512,#513,#514,#515));
#103=EDGE_LOOP('',(#516,#517,#518));
#104=EDGE_LOOP('',(#519,#520,#521,#522,#523));
#105=EDGE_LOOP('',(#524,#525,#526,#527,#528));
#106=EDGE_LOOP('',(#529,#530,#531,#532));
#107=EDGE_LOOP('',(#533,#534,#535,#536,#537,#538,#539,#540,#541,#542,#543,
#544));
#108=EDGE_LOOP('',(#545));
#109=EDGE_LOOP('',(#546,#547,#548));
#110=EDGE_LOOP('',(#549,#550,#551,#552));
#111=EDGE_LOOP('',(#553,#554,#555,#556));
#112=EDGE_LOOP('',(#557,#558,#559,#560));
#113=EDGE_LOOP('',(#561,#562,#563,#564));
#114=EDGE_LOOP('',(#565,#566,#567,#568));
#115=EDGE_LOOP('',(#569,#570,#571,#572));
#116=EDGE_LOOP('',(#573,#574,#575,#576));
#117=EDGE_LOOP('',(#577,#578,#579,#580,#581,#582));
#118=EDGE_LOOP('',(#583,#584,#585,#586));
#119=EDGE_LOOP('',(#587,#588,#589,#590));
#120=EDGE_LOOP('',(#591,#592,#593,#594));
#121=EDGE_LOOP('',(#595,#596,#597,#598,#599,#600));
#122=EDGE_LOOP('',(#601,#602,#603,#604));
#123=EDGE_LOOP('',(#605));
#124=EDGE_LOOP('',(#606));
#125=EDGE_LOOP('',(#607,#608,#609,#610));
#126=EDGE_LOOP('',(#611,#612,#613,#614));
#127=EDGE_LOOP('',(#615,#616,#617,#618));
#128=EDGE_LOOP('',(#619,#620,#621,#622));
#129=EDGE_LOOP('',(#623,#624,#625,#626));
#130=EDGE_LOOP('',(#627,#628,#629,#630));
#131=EDGE_LOOP('',(#631,#632,#633,#634));
#132=EDGE_LOOP('',(#635,#636,#637,#638));
#133=EDGE_LOOP('',(#639,#640,#641,#642));
#134=EDGE_LOOP('',(#643,#644,#645,#646));
#135=ELLIPSE('',#728,8.18598822027607,4.);
#136=ELLIPSE('',#731,10.4855286600519,4.);
#137=ELLIPSE('',#739,10.4855286600519,4.);
#138=ELLIPSE('',#742,8.18598822027609,4.);
#139=ELLIPSE('',#748,3.46410161513776,3.);
#140=ELLIPSE('',#749,3.46410161513776,3.);
#141=ELLIPSE('',#752,9.89949493661036,6.99999999999909);
#142=ELLIPSE('',#763,9.89949493661038,6.99999999999909);
#143=ELLIPSE('',#765,9.89949493661036,6.99999999999909);
#144=ELLIPSE('',#767,9.89949493661038,6.99999999999909);
#145=ELLIPSE('',#776,9.89949493661167,7.);
#146=ELLIPSE('',#778,9.89949493661166,7.);
#147=LINE('',#1002,#215);
#148=LINE('',#1004,#216);
#149=LINE('',#1006,#217);
#150=LINE('',#1008,#218);
#151=LINE('',#1010,#219);
#152=LINE('',#1012,#220);
#153=LINE('',#1016,#221);
#154=LINE('',#1018,#222);
#155=LINE('',#1019,#223);
#156=LINE('',#1022,#224);
#157=LINE('',#1024,#225);
#158=LINE('',#1025,#226);
#159=LINE('',#1028,#227);
#160=LINE('',#1030,#228);
#161=LINE('',#1032,#229);
#162=LINE('',#1034,#230);
#163=LINE('',#1038,#231);
#164=LINE('',#1040,#232);
#165=LINE('',#1042,#233);
#166=LINE('',#1043,#234);
#167=LINE('',#1046,#235);
#168=LINE('',#1050,#236);
#169=LINE('',#1052,#237);
#170=LINE('',#1054,#238);
#171=LINE('',#1056,#239);
#172=LINE('',#1058,#240);
#173=LINE('',#1061,#241);
#174=LINE('',#1081,#242);
#175=LINE('',#1089,#243);
#176=LINE('',#1094,#244);
#177=LINE('',#1100,#245);
#178=LINE('',#1103,#246);
#179=LINE('',#1112,#247);
#180=LINE('',#1115,#248);
#181=LINE('',#1128,#249);
#182=LINE('',#1141,#250);
#183=LINE('',#1146,#251);
#184=LINE('',#1148,#252);
#185=LINE('',#1151,#253);
#186=LINE('',#1155,#254);
#187=LINE('',#1157,#255);
#188=LINE('',#1159,#256);
#189=LINE('',#1162,#257);
#190=LINE('',#1174,#258);
#191=LINE('',#1176,#259);
#192=LINE('',#1178,#260);
#193=LINE('',#1179,#261);
#194=LINE('',#1183,#262);
#195=LINE('',#1185,#263);
#196=LINE('',#1187,#264);
#197=LINE('',#1188,#265);
#198=LINE('',#1190,#266);
#199=LINE('',#1191,#267);
#200=LINE('',#1193,#268);
#201=LINE('',#1194,#269);
#202=LINE('',#1196,#270);
#203=LINE('',#1197,#271);
#204=LINE('',#1199,#272);
#205=LINE('',#1200,#273);
#206=LINE('',#1201,#274);
#207=LINE('',#1210,#275);
#208=LINE('',#1216,#276);
#209=LINE('',#1218,#277);
#210=LINE('',#1220,#278);
#211=LINE('',#1222,#279);
#212=LINE('',#1224,#280);
#213=LINE('',#1229,#281);
#214=LINE('',#1231,#282);
#215=VECTOR('',#798,10.);
#216=VECTOR('',#799,10.);
#217=VECTOR('',#800,10.);
#218=VECTOR('',#801,10.);
#219=VECTOR('',#802,10.);
#220=VECTOR('',#803,10.);
#221=VECTOR('',#806,10.);
#222=VECTOR('',#807,10.);
#223=VECTOR('',#808,10.);
#224=VECTOR('',#811,10.);
#225=VECTOR('',#812,10.);
#226=VECTOR('',#813,10.);
#227=VECTOR('',#816,10.);
#228=VECTOR('',#817,10.);
#229=VECTOR('',#818,10.);
#230=VECTOR('',#819,10.);
#231=VECTOR('',#822,10.);
#232=VECTOR('',#823,10.);
#233=VECTOR('',#824,3.5);
#234=VECTOR('',#825,10.);
#235=VECTOR('',#828,10.);
#236=VECTOR('',#831,10.);
#237=VECTOR('',#832,10.);
#238=VECTOR('',#833,10.);
#239=VECTOR('',#834,10.);
#240=VECTOR('',#835,10.);
#241=VECTOR('',#838,10.);
#242=VECTOR('',#847,10.);
#243=VECTOR('',#850,10.);
#244=VECTOR('',#855,10.);
#245=VECTOR('',#860,10.);
#246=VECTOR('',#863,10.);
#247=VECTOR('',#872,10.);
#248=VECTOR('',#875,10.);
#249=VECTOR('',#878,10.);
#250=VECTOR('',#885,10.);
#251=VECTOR('',#892,10.);
#252=VECTOR('',#895,10.);
#253=VECTOR('',#898,10.);
#254=VECTOR('',#901,10.);
#255=VECTOR('',#902,10.);
#256=VECTOR('',#903,10.);
#257=VECTOR('',#906,10.);
#258=VECTOR('',#923,10.);
#259=VECTOR('',#924,10.);
#260=VECTOR('',#925,10.);
#261=VECTOR('',#926,10.);
#262=VECTOR('',#929,10.);
#263=VECTOR('',#930,10.);
#264=VECTOR('',#931,10.);
#265=VECTOR('',#932,10.);
#266=VECTOR('',#935,10.);
#267=VECTOR('',#936,10.);
#268=VECTOR('',#939,10.);
#269=VECTOR('',#940,10.);
#270=VECTOR('',#943,10.);
#271=VECTOR('',#944,10.);
#272=VECTOR('',#947,10.);
#273=VECTOR('',#948,10.);
#274=VECTOR('',#949,10.);
#275=VECTOR('',#964,4.);
#276=VECTOR('',#973,10.);
#277=VECTOR('',#976,10.);
#278=VECTOR('',#979,10.);
#279=VECTOR('',#982,10.);
#280=VECTOR('',#985,10.);
#281=VECTOR('',#994,3.00000000000001);
#282=VECTOR('',#997,1.5);
#283=VERTEX_POINT('',#1000);
#284=VERTEX_POINT('',#1001);
#285=VERTEX_POINT('',#1003);
#286=VERTEX_POINT('',#1005);
#287=VERTEX_POINT('',#1007);
#288=VERTEX_POINT('',#1009);
#289=VERTEX_POINT('',#1011);
#290=VERTEX_POINT('',#1013);
#291=VERTEX_POINT('',#1015);
#292=VERTEX_POINT('',#1017);
#293=VERTEX_POINT('',#1021);
#294=VERTEX_POINT('',#1023);
#295=VERTEX_POINT('',#1027);
#296=VERTEX_POINT('',#1029);
#297=VERTEX_POINT('',#1031);
#298=VERTEX_POINT('',#1033);
#299=VERTEX_POINT('',#1035);
#300=VERTEX_POINT('',#1037);
#301=VERTEX_POINT('',#1039);
#302=VERTEX_POINT('',#1041);
#303=VERTEX_POINT('',#1045);
#304=VERTEX_POINT('',#1047);
#305=VERTEX_POINT('',#1049);
#306=VERTEX_POINT('',#1051);
#307=VERTEX_POINT('',#1053);
#308=VERTEX_POINT('',#1055);
#309=VERTEX_POINT('',#1057);
#310=VERTEX_POINT('',#1059);
#311=VERTEX_POINT('',#1064);
#312=VERTEX_POINT('',#1067);
#313=VERTEX_POINT('',#1080);
#314=VERTEX_POINT('',#1082);
#315=VERTEX_POINT('',#1084);
#316=VERTEX_POINT('',#1091);
#317=VERTEX_POINT('',#1093);
#318=VERTEX_POINT('',#1095);
#319=VERTEX_POINT('',#1097);
#320=VERTEX_POINT('',#1099);
#321=VERTEX_POINT('',#1101);
#322=VERTEX_POINT('',#1104);
#323=VERTEX_POINT('',#1106);
#324=VERTEX_POINT('',#1109);
#325=VERTEX_POINT('',#1111);
#326=VERTEX_POINT('',#1113);
#327=VERTEX_POINT('',#1127);
#328=VERTEX_POINT('',#1140);
#329=VERTEX_POINT('',#1144);
#330=VERTEX_POINT('',#1150);
#331=VERTEX_POINT('',#1152);
#332=VERTEX_POINT('',#1154);
#333=VERTEX_POINT('',#1156);
#334=VERTEX_POINT('',#1158);
#335=VERTEX_POINT('',#1160);
#336=VERTEX_POINT('',#1163);
#337=VERTEX_POINT('',#1172);
#338=VERTEX_POINT('',#1173);
#339=VERTEX_POINT('',#1175);
#340=VERTEX_POINT('',#1177);
#341=VERTEX_POINT('',#1181);
#342=VERTEX_POINT('',#1182);
#343=VERTEX_POINT('',#1184);
#344=VERTEX_POINT('',#1186);
#345=VERTEX_POINT('',#1209);
#346=VERTEX_POINT('',#1213);
#347=EDGE_CURVE('',#283,#284,#147,.T.);
#348=EDGE_CURVE('',#285,#283,#148,.T.);
#349=EDGE_CURVE('',#285,#286,#149,.F.);
#350=EDGE_CURVE('',#287,#286,#150,.T.);
#351=EDGE_CURVE('',#288,#287,#151,.T.);
#352=EDGE_CURVE('',#289,#288,#152,.T.);
#353=EDGE_CURVE('',#290,#289,#135,.T.);
#354=EDGE_CURVE('',#291,#290,#153,.T.);
#355=EDGE_CURVE('',#292,#291,#154,.F.);
#356=EDGE_CURVE('',#284,#292,#155,.F.);
#357=EDGE_CURVE('',#293,#283,#156,.T.);
#358=EDGE_CURVE('',#293,#294,#157,.T.);
#359=EDGE_CURVE('',#285,#294,#158,.F.);
#360=EDGE_CURVE('',#293,#295,#159,.F.);
#361=EDGE_CURVE('',#295,#296,#160,.F.);
#362=EDGE_CURVE('',#296,#297,#161,.T.);
#363=EDGE_CURVE('',#298,#297,#162,.T.);
#364=EDGE_CURVE('',#299,#298,#136,.T.);
#365=EDGE_CURVE('',#300,#299,#163,.T.);
#366=EDGE_CURVE('',#301,#300,#164,.T.);
#367=EDGE_CURVE('',#302,#301,#165,.T.);
#368=EDGE_CURVE('',#302,#294,#166,.F.);
#369=EDGE_CURVE('',#303,#284,#167,.T.);
#370=EDGE_CURVE('',#303,#304,#36,.F.);
#371=EDGE_CURVE('',#305,#304,#168,.T.);
#372=EDGE_CURVE('',#305,#306,#169,.T.);
#373=EDGE_CURVE('',#307,#306,#170,.T.);
#374=EDGE_CURVE('',#307,#308,#171,.T.);
#375=EDGE_CURVE('',#309,#308,#172,.T.);
#376=EDGE_CURVE('',#309,#310,#37,.F.);
#377=EDGE_CURVE('',#295,#310,#173,.T.);
#378=EDGE_CURVE('',#286,#302,#38,.F.);
#379=EDGE_CURVE('',#311,#311,#39,.F.);
#380=EDGE_CURVE('',#298,#312,#15,.T.);
#381=EDGE_CURVE('',#312,#313,#174,.T.);
#382=EDGE_CURVE('',#313,#314,#137,.T.);
#383=EDGE_CURVE('',#315,#314,#16,.T.);
#384=EDGE_CURVE('',#315,#299,#175,.T.);
#385=EDGE_CURVE('',#314,#316,#40,.T.);
#386=EDGE_CURVE('',#317,#313,#176,.T.);
#387=EDGE_CURVE('',#318,#317,#138,.T.);
#388=EDGE_CURVE('',#319,#318,#41,.T.);
#389=EDGE_CURVE('',#320,#319,#177,.T.);
#390=EDGE_CURVE('',#320,#321,#42,.T.);
#391=EDGE_CURVE('',#316,#321,#178,.T.);
#392=EDGE_CURVE('',#322,#322,#43,.T.);
#393=EDGE_CURVE('',#323,#323,#44,.F.);
#394=EDGE_CURVE('',#324,#312,#139,.T.);
#395=EDGE_CURVE('',#324,#325,#179,.T.);
#396=EDGE_CURVE('',#326,#325,#140,.T.);
#397=EDGE_CURVE('',#317,#326,#180,.T.);
#398=EDGE_CURVE('',#326,#290,#17,.T.);
#399=EDGE_CURVE('',#289,#327,#181,.T.);
#400=EDGE_CURVE('',#327,#318,#18,.F.);
#401=EDGE_CURVE('',#288,#327,#141,.T.);
#402=EDGE_CURVE('',#325,#328,#182,.T.);
#403=EDGE_CURVE('',#328,#291,#45,.T.);
#404=EDGE_CURVE('',#297,#329,#46,.T.);
#405=EDGE_CURVE('',#329,#324,#183,.T.);
#406=EDGE_CURVE('',#328,#329,#184,.F.);
#407=EDGE_CURVE('',#330,#296,#185,.T.);
#408=EDGE_CURVE('',#331,#330,#47,.T.);
#409=EDGE_CURVE('',#332,#331,#186,.T.);
#410=EDGE_CURVE('',#333,#332,#187,.T.);
#411=EDGE_CURVE('',#334,#333,#188,.T.);
#412=EDGE_CURVE('',#335,#334,#48,.T.);
#413=EDGE_CURVE('',#292,#335,#189,.F.);
#414=EDGE_CURVE('',#336,#336,#49,.T.);
#415=EDGE_CURVE('',#315,#300,#142,.T.);
#416=EDGE_CURVE('',#319,#288,#143,.T.);
#417=EDGE_CURVE('',#300,#316,#144,.T.);
#418=EDGE_CURVE('',#337,#338,#190,.T.);
#419=EDGE_CURVE('',#338,#339,#191,.T.);
#420=EDGE_CURVE('',#339,#340,#192,.T.);
#421=EDGE_CURVE('',#337,#340,#193,.T.);
#422=EDGE_CURVE('',#341,#342,#194,.T.);
#423=EDGE_CURVE('',#342,#343,#195,.T.);
#424=EDGE_CURVE('',#343,#344,#196,.T.);
#425=EDGE_CURVE('',#344,#341,#197,.T.);
#426=EDGE_CURVE('',#338,#343,#198,.T.);
#427=EDGE_CURVE('',#342,#339,#199,.T.);
#428=EDGE_CURVE('',#340,#341,#200,.T.);
#429=EDGE_CURVE('',#344,#337,#201,.T.);
#430=EDGE_CURVE('',#308,#342,#202,.T.);
#431=EDGE_CURVE('',#307,#339,#203,.T.);
#432=EDGE_CURVE('',#305,#341,#204,.T.);
#433=EDGE_CURVE('',#305,#333,#205,.T.);
#434=EDGE_CURVE('',#308,#332,#206,.F.);
#435=EDGE_CURVE('',#321,#301,#145,.T.);
#436=EDGE_CURVE('',#287,#320,#146,.T.);
#437=EDGE_CURVE('',#336,#345,#207,.T.);
#438=EDGE_CURVE('',#345,#345,#50,.T.);
#439=EDGE_CURVE('',#346,#346,#51,.T.);
#440=EDGE_CURVE('',#331,#309,#208,.F.);
#441=EDGE_CURVE('',#335,#303,#209,.T.);
#442=EDGE_CURVE('',#310,#330,#210,.F.);
#443=EDGE_CURVE('',#304,#334,#211,.F.);
#444=EDGE_CURVE('',#306,#340,#212,.T.);
#445=EDGE_CURVE('',#346,#323,#213,.T.);
#446=EDGE_CURVE('',#322,#311,#214,.T.);
#447=ORIENTED_EDGE('',*,*,#347,.F.);
#448=ORIENTED_EDGE('',*,*,#348,.F.);
#449=ORIENTED_EDGE('',*,*,#349,.T.);
#450=ORIENTED_EDGE('',*,*,#350,.F.);
#451=ORIENTED_EDGE('',*,*,#351,.F.);
#452=ORIENTED_EDGE('',*,*,#352,.F.);
#453=ORIENTED_EDGE('',*,*,#353,.F.);
#454=ORIENTED_EDGE('',*,*,#354,.F.);
#455=ORIENTED_EDGE('',*,*,#355,.F.);
#456=ORIENTED_EDGE('',*,*,#356,.F.);
#457=ORIENTED_EDGE('',*,*,#357,.F.);
#458=ORIENTED_EDGE('',*,*,#358,.T.);
#459=ORIENTED_EDGE('',*,*,#359,.F.);
#460=ORIENTED_EDGE('',*,*,#348,.T.);
#461=ORIENTED_EDGE('',*,*,#360,.T.);
#462=ORIENTED_EDGE('',*,*,#361,.T.);
#463=ORIENTED_EDGE('',*,*,#362,.T.);
#464=ORIENTED_EDGE('',*,*,#363,.F.);
#465=ORIENTED_EDGE('',*,*,#364,.F.);
#466=ORIENTED_EDGE('',*,*,#365,.F.);
#467=ORIENTED_EDGE('',*,*,#366,.F.);
#468=ORIENTED_EDGE('',*,*,#367,.F.);
#469=ORIENTED_EDGE('',*,*,#368,.T.);
#470=ORIENTED_EDGE('',*,*,#358,.F.);
#471=ORIENTED_EDGE('',*,*,#357,.T.);
#472=ORIENTED_EDGE('',*,*,#347,.T.);
#473=ORIENTED_EDGE('',*,*,#369,.F.);
#474=ORIENTED_EDGE('',*,*,#370,.T.);
#475=ORIENTED_EDGE('',*,*,#371,.F.);
#476=ORIENTED_EDGE('',*,*,#372,.T.);
#477=ORIENTED_EDGE('',*,*,#373,.F.);
#478=ORIENTED_EDGE('',*,*,#374,.T.);
#479=ORIENTED_EDGE('',*,*,#375,.F.);
#480=ORIENTED_EDGE('',*,*,#376,.T.);
#481=ORIENTED_EDGE('',*,*,#377,.F.);
#482=ORIENTED_EDGE('',*,*,#360,.F.);
#483=ORIENTED_EDGE('',*,*,#359,.T.);
#484=ORIENTED_EDGE('',*,*,#368,.F.);
#485=ORIENTED_EDGE('',*,*,#378,.F.);
#486=ORIENTED_EDGE('',*,*,#349,.F.);
#487=ORIENTED_EDGE('',*,*,#379,.F.);
#488=ORIENTED_EDGE('',*,*,#380,.T.);
#489=ORIENTED_EDGE('',*,*,#381,.T.);
#490=ORIENTED_EDGE('',*,*,#382,.T.);
#491=ORIENTED_EDGE('',*,*,#383,.F.);
#492=ORIENTED_EDGE('',*,*,#384,.T.);
#493=ORIENTED_EDGE('',*,*,#364,.T.);
#494=ORIENTED_EDGE('',*,*,#385,.F.);
#495=ORIENTED_EDGE('',*,*,#382,.F.);
#496=ORIENTED_EDGE('',*,*,#386,.F.);
#497=ORIENTED_EDGE('',*,*,#387,.F.);
#498=ORIENTED_EDGE('',*,*,#388,.F.);
#499=ORIENTED_EDGE('',*,*,#389,.F.);
#500=ORIENTED_EDGE('',*,*,#390,.T.);
#501=ORIENTED_EDGE('',*,*,#391,.F.);
#502=ORIENTED_EDGE('',*,*,#392,.T.);
#503=ORIENTED_EDGE('',*,*,#393,.F.);
#504=ORIENTED_EDGE('',*,*,#381,.F.);
#505=ORIENTED_EDGE('',*,*,#394,.F.);
#506=ORIENTED_EDGE('',*,*,#395,.T.);
#507=ORIENTED_EDGE('',*,*,#396,.F.);
#508=ORIENTED_EDGE('',*,*,#397,.F.);
#509=ORIENTED_EDGE('',*,*,#386,.T.);
#510=ORIENTED_EDGE('',*,*,#387,.T.);
#511=ORIENTED_EDGE('',*,*,#397,.T.);
#512=ORIENTED_EDGE('',*,*,#398,.T.);
#513=ORIENTED_EDGE('',*,*,#353,.T.);
#514=ORIENTED_EDGE('',*,*,#399,.T.);
#515=ORIENTED_EDGE('',*,*,#400,.T.);
#516=ORIENTED_EDGE('',*,*,#399,.F.);
#517=ORIENTED_EDGE('',*,*,#352,.T.);
#518=ORIENTED_EDGE('',*,*,#401,.T.);
#519=ORIENTED_EDGE('',*,*,#398,.F.);
#520=ORIENTED_EDGE('',*,*,#396,.T.);
#521=ORIENTED_EDGE('',*,*,#402,.T.);
#522=ORIENTED_EDGE('',*,*,#403,.T.);
#523=ORIENTED_EDGE('',*,*,#354,.T.);
#524=ORIENTED_EDGE('',*,*,#380,.F.);
#525=ORIENTED_EDGE('',*,*,#363,.T.);
#526=ORIENTED_EDGE('',*,*,#404,.T.);
#527=ORIENTED_EDGE('',*,*,#405,.T.);
#528=ORIENTED_EDGE('',*,*,#394,.T.);
#529=ORIENTED_EDGE('',*,*,#405,.F.);
#530=ORIENTED_EDGE('',*,*,#406,.F.);
#531=ORIENTED_EDGE('',*,*,#402,.F.);
#532=ORIENTED_EDGE('',*,*,#395,.F.);
#533=ORIENTED_EDGE('',*,*,#404,.F.);
#534=ORIENTED_EDGE('',*,*,#362,.F.);
#535=ORIENTED_EDGE('',*,*,#407,.F.);
#536=ORIENTED_EDGE('',*,*,#408,.F.);
#537=ORIENTED_EDGE('',*,*,#409,.F.);
#538=ORIENTED_EDGE('',*,*,#410,.F.);
#539=ORIENTED_EDGE('',*,*,#411,.F.);
#540=ORIENTED_EDGE('',*,*,#412,.F.);
#541=ORIENTED_EDGE('',*,*,#413,.F.);
#542=ORIENTED_EDGE('',*,*,#355,.T.);
#543=ORIENTED_EDGE('',*,*,#403,.F.);
#544=ORIENTED_EDGE('',*,*,#406,.T.);
#545=ORIENTED_EDGE('',*,*,#414,.T.);
#546=ORIENTED_EDGE('',*,*,#384,.F.);
#547=ORIENTED_EDGE('',*,*,#415,.T.);
#548=ORIENTED_EDGE('',*,*,#365,.T.);
#549=ORIENTED_EDGE('',*,*,#416,.F.);
#550=ORIENTED_EDGE('',*,*,#388,.T.);
#551=ORIENTED_EDGE('',*,*,#400,.F.);
#552=ORIENTED_EDGE('',*,*,#401,.F.);
#553=ORIENTED_EDGE('',*,*,#417,.F.);
#554=ORIENTED_EDGE('',*,*,#415,.F.);
#555=ORIENTED_EDGE('',*,*,#383,.T.);
#556=ORIENTED_EDGE('',*,*,#385,.T.);
#557=ORIENTED_EDGE('',*,*,#418,.T.);
#558=ORIENTED_EDGE('',*,*,#419,.T.);
#559=ORIENTED_EDGE('',*,*,#420,.T.);
#560=ORIENTED_EDGE('',*,*,#421,.F.);
#561=ORIENTED_EDGE('',*,*,#422,.T.);
#562=ORIENTED_EDGE('',*,*,#423,.T.);
#563=ORIENTED_EDGE('',*,*,#424,.T.);
#564=ORIENTED_EDGE('',*,*,#425,.T.);
#565=ORIENTED_EDGE('',*,*,#426,.T.);
#566=ORIENTED_EDGE('',*,*,#423,.F.);
#567=ORIENTED_EDGE('',*,*,#427,.T.);
#568=ORIENTED_EDGE('',*,*,#419,.F.);
#569=ORIENTED_EDGE('',*,*,#428,.T.);
#570=ORIENTED_EDGE('',*,*,#425,.F.);
#571=ORIENTED_EDGE('',*,*,#429,.T.);
#572=ORIENTED_EDGE('',*,*,#421,.T.);
#573=ORIENTED_EDGE('',*,*,#427,.F.);
#574=ORIENTED_EDGE('',*,*,#430,.F.);
#575=ORIENTED_EDGE('',*,*,#374,.F.);
#576=ORIENTED_EDGE('',*,*,#431,.T.);
#577=ORIENTED_EDGE('',*,*,#422,.F.);
#578=ORIENTED_EDGE('',*,*,#432,.F.);
#579=ORIENTED_EDGE('',*,*,#433,.T.);
#580=ORIENTED_EDGE('',*,*,#410,.T.);
#581=ORIENTED_EDGE('',*,*,#434,.F.);
#582=ORIENTED_EDGE('',*,*,#430,.T.);
#583=ORIENTED_EDGE('',*,*,#424,.F.);
#584=ORIENTED_EDGE('',*,*,#426,.F.);
#585=ORIENTED_EDGE('',*,*,#418,.F.);
#586=ORIENTED_EDGE('',*,*,#429,.F.);
#587=ORIENTED_EDGE('',*,*,#417,.T.);
#588=ORIENTED_EDGE('',*,*,#391,.T.);
#589=ORIENTED_EDGE('',*,*,#435,.T.);
#590=ORIENTED_EDGE('',*,*,#366,.T.);
#591=ORIENTED_EDGE('',*,*,#416,.T.);
#592=ORIENTED_EDGE('',*,*,#351,.T.);
#593=ORIENTED_EDGE('',*,*,#436,.T.);
#594=ORIENTED_EDGE('',*,*,#389,.T.);
#595=ORIENTED_EDGE('',*,*,#350,.T.);
#596=ORIENTED_EDGE('',*,*,#378,.T.);
#597=ORIENTED_EDGE('',*,*,#367,.T.);
#598=ORIENTED_EDGE('',*,*,#435,.F.);
#599=ORIENTED_EDGE('',*,*,#390,.F.);
#600=ORIENTED_EDGE('',*,*,#436,.F.);
#601=ORIENTED_EDGE('',*,*,#414,.F.);
#602=ORIENTED_EDGE('',*,*,#437,.T.);
#603=ORIENTED_EDGE('',*,*,#438,.T.);
#604=ORIENTED_EDGE('',*,*,#437,.F.);
#605=ORIENTED_EDGE('',*,*,#438,.F.);
#606=ORIENTED_EDGE('',*,*,#439,.F.);
#607=ORIENTED_EDGE('',*,*,#440,.T.);
#608=ORIENTED_EDGE('',*,*,#375,.T.);
#609=ORIENTED_EDGE('',*,*,#434,.T.);
#610=ORIENTED_EDGE('',*,*,#409,.T.);
#611=ORIENTED_EDGE('',*,*,#356,.T.);
#612=ORIENTED_EDGE('',*,*,#413,.T.);
#613=ORIENTED_EDGE('',*,*,#441,.T.);
#614=ORIENTED_EDGE('',*,*,#369,.T.);
#615=ORIENTED_EDGE('',*,*,#442,.F.);
#616=ORIENTED_EDGE('',*,*,#376,.F.);
#617=ORIENTED_EDGE('',*,*,#440,.F.);
#618=ORIENTED_EDGE('',*,*,#408,.T.);
#619=ORIENTED_EDGE('',*,*,#443,.F.);
#620=ORIENTED_EDGE('',*,*,#370,.F.);
#621=ORIENTED_EDGE('',*,*,#441,.F.);
#622=ORIENTED_EDGE('',*,*,#412,.T.);
#623=ORIENTED_EDGE('',*,*,#373,.T.);
#624=ORIENTED_EDGE('',*,*,#444,.T.);
#625=ORIENTED_EDGE('',*,*,#420,.F.);
#626=ORIENTED_EDGE('',*,*,#431,.F.);
#627=ORIENTED_EDGE('',*,*,#428,.F.);
#628=ORIENTED_EDGE('',*,*,#444,.F.);
#629=ORIENTED_EDGE('',*,*,#372,.F.);
#630=ORIENTED_EDGE('',*,*,#432,.T.);
#631=ORIENTED_EDGE('',*,*,#443,.T.);
#632=ORIENTED_EDGE('',*,*,#411,.T.);
#633=ORIENTED_EDGE('',*,*,#433,.F.);
#634=ORIENTED_EDGE('',*,*,#371,.T.);
#635=ORIENTED_EDGE('',*,*,#442,.T.);
#636=ORIENTED_EDGE('',*,*,#407,.T.);
#637=ORIENTED_EDGE('',*,*,#361,.F.);
#638=ORIENTED_EDGE('',*,*,#377,.T.);
#639=ORIENTED_EDGE('',*,*,#439,.T.);
#640=ORIENTED_EDGE('',*,*,#445,.T.);
#641=ORIENTED_EDGE('',*,*,#393,.T.);
#642=ORIENTED_EDGE('',*,*,#445,.F.);
#643=ORIENTED_EDGE('',*,*,#392,.F.);
#644=ORIENTED_EDGE('',*,*,#446,.T.);
#645=ORIENTED_EDGE('',*,*,#379,.T.);
#646=ORIENTED_EDGE('',*,*,#446,.F.);
#647=PLANE('',#727);
#648=PLANE('',#729);
#649=PLANE('',#730);
#650=PLANE('',#732);
#651=PLANE('',#735);
#652=PLANE('',#740);
#653=PLANE('',#747);
#654=PLANE('',#751);
#655=PLANE('',#757);
#656=PLANE('',#758);
#657=PLANE('',#762);
#658=PLANE('',#768);
#659=PLANE('',#769);
#660=PLANE('',#770);
#661=PLANE('',#771);
#662=PLANE('',#772);
#663=PLANE('',#773);
#664=PLANE('',#774);
#665=PLANE('',#775);
#666=PLANE('',#777);
#667=PLANE('',#782);
#668=PLANE('',#784);
#669=PLANE('',#785);
#670=PLANE('',#788);
#671=PLANE('',#789);
#672=PLANE('',#790);
#673=PLANE('',#791);
#674=ADVANCED_FACE('',(#52),#647,.T.);
#675=ADVANCED_FACE('',(#53),#648,.T.);
#676=ADVANCED_FACE('',(#54),#649,.T.);
#677=ADVANCED_FACE('',(#55),#650,.F.);
#678=ADVANCED_FACE('',(#56,#31),#651,.F.);
#679=ADVANCED_FACE('',(#57),#19,.T.);
#680=ADVANCED_FACE('',(#58,#32,#33),#652,.T.);
#681=ADVANCED_FACE('',(#59),#653,.T.);
#682=ADVANCED_FACE('',(#60),#20,.T.);
#683=ADVANCED_FACE('',(#61),#654,.T.);
#684=ADVANCED_FACE('',(#62),#21,.T.);
#685=ADVANCED_FACE('',(#63),#22,.T.);
#686=ADVANCED_FACE('',(#64),#655,.T.);
#687=ADVANCED_FACE('',(#65,#34),#656,.F.);
#688=ADVANCED_FACE('',(#66),#657,.T.);
#689=ADVANCED_FACE('',(#67),#23,.T.);
#690=ADVANCED_FACE('',(#68),#24,.T.);
#691=ADVANCED_FACE('',(#69),#658,.T.);
#692=ADVANCED_FACE('',(#70),#659,.T.);
#693=ADVANCED_FACE('',(#71),#660,.T.);
#694=ADVANCED_FACE('',(#72),#661,.T.);
#695=ADVANCED_FACE('',(#73),#662,.T.);
#696=ADVANCED_FACE('',(#74),#663,.F.);
#697=ADVANCED_FACE('',(#75),#664,.T.);
#698=ADVANCED_FACE('',(#76),#665,.T.);
#699=ADVANCED_FACE('',(#77),#666,.T.);
#700=ADVANCED_FACE('',(#78),#25,.T.);
#701=ADVANCED_FACE('',(#79),#26,.F.);
#702=ADVANCED_FACE('',(#80,#35),#667,.T.);
#703=ADVANCED_FACE('',(#81),#668,.F.);
#704=ADVANCED_FACE('',(#82),#669,.F.);
#705=ADVANCED_FACE('',(#83),#27,.F.);
#706=ADVANCED_FACE('',(#84),#28,.F.);
#707=ADVANCED_FACE('',(#85),#670,.F.);
#708=ADVANCED_FACE('',(#86),#671,.T.);
#709=ADVANCED_FACE('',(#87),#672,.F.);
#710=ADVANCED_FACE('',(#88),#673,.F.);
#711=ADVANCED_FACE('',(#89),#29,.F.);
#712=ADVANCED_FACE('',(#90),#30,.F.);
#713=CLOSED_SHELL('',(#674,#675,#676,#677,#678,#679,#680,#681,#682,#683,
#684,#685,#686,#687,#688,#689,#690,#691,#692,#693,#694,#695,#696,#697,#698,
#699,#700,#701,#702,#703,#704,#705,#706,#707,#708,#709,#710,#711,#712));
#714=DERIVED_UNIT_ELEMENT(#716,1.);
#715=DERIVED_UNIT_ELEMENT(#1237,-3.);
#716=(
MASS_UNIT()
NAMED_UNIT(*)
SI_UNIT(.KILO.,.GRAM.)
);
#717=DERIVED_UNIT((#714,#715));
#718=MEASURE_REPRESENTATION_ITEM('density measure',
POSITIVE_RATIO_MEASURE(7850.),#717);
#719=PROPERTY_DEFINITION_REPRESENTATION(#724,#721);
#720=PROPERTY_DEFINITION_REPRESENTATION(#725,#722);
#721=REPRESENTATION('material name',(#723),#1234);
#722=REPRESENTATION('density',(#718),#1234);
#723=DESCRIPTIVE_REPRESENTATION_ITEM('Steel','Steel');
#724=PROPERTY_DEFINITION('material property','material name',#1244);
#725=PROPERTY_DEFINITION('material property','density of part',#1244);
#726=AXIS2_PLACEMENT_3D('',#998,#794,#795);
#727=AXIS2_PLACEMENT_3D('',#999,#796,#797);
#728=AXIS2_PLACEMENT_3D('',#1014,#804,#805);
#729=AXIS2_PLACEMENT_3D('',#1020,#809,#810);
#730=AXIS2_PLACEMENT_3D('',#1026,#814,#815);
#731=AXIS2_PLACEMENT_3D('',#1036,#820,#821);
#732=AXIS2_PLACEMENT_3D('',#1044,#826,#827);
#733=AXIS2_PLACEMENT_3D('',#1048,#829,#830);
#734=AXIS2_PLACEMENT_3D('',#1060,#836,#837);
#735=AXIS2_PLACEMENT_3D('',#1062,#839,#840);
#736=AXIS2_PLACEMENT_3D('',#1063,#841,#842);
#737=AXIS2_PLACEMENT_3D('',#1065,#843,#844);
#738=AXIS2_PLACEMENT_3D('',#1066,#845,#846);
#739=AXIS2_PLACEMENT_3D('',#1083,#848,#849);
#740=AXIS2_PLACEMENT_3D('',#1090,#851,#852);
#741=AXIS2_PLACEMENT_3D('',#1092,#853,#854);
#742=AXIS2_PLACEMENT_3D('',#1096,#856,#857);
#743=AXIS2_PLACEMENT_3D('',#1098,#858,#859);
#744=AXIS2_PLACEMENT_3D('',#1102,#861,#862);
#745=AXIS2_PLACEMENT_3D('',#1105,#864,#865);
#746=AXIS2_PLACEMENT_3D('',#1107,#866,#867);
#747=AXIS2_PLACEMENT_3D('',#1108,#868,#869);
#748=AXIS2_PLACEMENT_3D('',#1110,#870,#871);
#749=AXIS2_PLACEMENT_3D('',#1114,#873,#874);
#750=AXIS2_PLACEMENT_3D('',#1116,#876,#877);
#751=AXIS2_PLACEMENT_3D('',#1137,#879,#880);
#752=AXIS2_PLACEMENT_3D('',#1138,#881,#882);
#753=AXIS2_PLACEMENT_3D('',#1139,#883,#884);
#754=AXIS2_PLACEMENT_3D('',#1142,#886,#887);
#755=AXIS2_PLACEMENT_3D('',#1143,#888,#889);
#756=AXIS2_PLACEMENT_3D('',#1145,#890,#891);
#757=AXIS2_PLACEMENT_3D('',#1147,#893,#894);
#758=AXIS2_PLACEMENT_3D('',#1149,#896,#897);
#759=AXIS2_PLACEMENT_3D('',#1153,#899,#900);
#760=AXIS2_PLACEMENT_3D('',#1161,#904,#905);
#761=AXIS2_PLACEMENT_3D('',#1164,#907,#908);
#762=AXIS2_PLACEMENT_3D('',#1165,#909,#910);
#763=AXIS2_PLACEMENT_3D('',#1166,#911,#912);
#764=AXIS2_PLACEMENT_3D('',#1167,#913,#914);
#765=AXIS2_PLACEMENT_3D('',#1168,#915,#916);
#766=AXIS2_PLACEMENT_3D('',#1169,#917,#918);
#767=AXIS2_PLACEMENT_3D('',#1170,#919,#920);
#768=AXIS2_PLACEMENT_3D('',#1171,#921,#922);
#769=AXIS2_PLACEMENT_3D('',#1180,#927,#928);
#770=AXIS2_PLACEMENT_3D('',#1189,#933,#934);
#771=AXIS2_PLACEMENT_3D('',#1192,#937,#938);
#772=AXIS2_PLACEMENT_3D('',#1195,#941,#942);
#773=AXIS2_PLACEMENT_3D('',#1198,#945,#946);
#774=AXIS2_PLACEMENT_3D('',#1202,#950,#951);
#775=AXIS2_PLACEMENT_3D('',#1203,#952,#953);
#776=AXIS2_PLACEMENT_3D('',#1204,#954,#955);
#777=AXIS2_PLACEMENT_3D('',#1205,#956,#957);
#778=AXIS2_PLACEMENT_3D('',#1206,#958,#959);
#779=AXIS2_PLACEMENT_3D('',#1207,#960,#961);
#780=AXIS2_PLACEMENT_3D('',#1208,#962,#963);
#781=AXIS2_PLACEMENT_3D('',#1211,#965,#966);
#782=AXIS2_PLACEMENT_3D('',#1212,#967,#968);
#783=AXIS2_PLACEMENT_3D('',#1214,#969,#970);
#784=AXIS2_PLACEMENT_3D('',#1215,#971,#972);
#785=AXIS2_PLACEMENT_3D('',#1217,#974,#975);
#786=AXIS2_PLACEMENT_3D('',#1219,#977,#978);
#787=AXIS2_PLACEMENT_3D('',#1221,#980,#981);
#788=AXIS2_PLACEMENT_3D('',#1223,#983,#984);
#789=AXIS2_PLACEMENT_3D('',#1225,#986,#987);
#790=AXIS2_PLACEMENT_3D('',#1226,#988,#989);
#791=AXIS2_PLACEMENT_3D('',#1227,#990,#991);
#792=AXIS2_PLACEMENT_3D('',#1228,#992,#993);
#793=AXIS2_PLACEMENT_3D('',#1230,#995,#996);
#794=DIRECTION('axis',(0.,0.,1.));
#795=DIRECTION('refdir',(1.,0.,0.));
#796=DIRECTION('center_axis',(5.39260384428426E-33,-1.,0.));
#797=DIRECTION('ref_axis',(-5.02851048706096E-34,-2.71167649835487E-66,
1.));
#798=DIRECTION('',(2.07805191078644E-48,1.12061107227292E-80,1.));
#799=DIRECTION('',(-1.,-5.39260384428426E-33,-1.21641244096686E-15));
#800=DIRECTION('',(2.0780511149326E-48,1.12061064310047E-80,1.));
#801=DIRECTION('',(-1.,-5.39260384428426E-33,2.07805191078644E-48));
#802=DIRECTION('',(-2.07805191078644E-48,-1.12061107227292E-80,-1.));
#803=DIRECTION('',(-2.07805191078644E-48,-1.12061107227292E-80,-1.));
#804=DIRECTION('center_axis',(-5.39260384428426E-33,1.,0.));
#805=DIRECTION('ref_axis',(0.560054915630749,0.,-0.828455485513757));
#806=DIRECTION('',(1.,5.39260384428426E-33,-1.06514223357704E-25));
#807=DIRECTION('',(-2.07805191078644E-48,-1.12061107227292E-80,-1.));
#808=DIRECTION('',(-1.,-5.39260384428426E-33,-9.29328735742048E-31));
#809=DIRECTION('center_axis',(1.21641244096686E-15,3.1780134079895E-15,
-1.));
#810=DIRECTION('ref_axis',(-1.,8.32667367793432E-17,-1.21641244096686E-15));
#811=DIRECTION('',(1.07852076885685E-32,-1.,-3.1780134079895E-15));
#812=DIRECTION('',(1.,5.39260384428426E-33,1.21641244096686E-15));
#813=DIRECTION('',(-1.73640489616461E-29,-1.,-3.1780134079895E-15));
#814=DIRECTION('center_axis',(-5.39260384428426E-33,1.,0.));
#815=DIRECTION('ref_axis',(5.02851048706096E-34,2.71167649835487E-66,-1.));
#816=DIRECTION('',(-2.07805191078644E-48,-2.24122214454584E-80,-1.));
#817=DIRECTION('',(-1.,-5.39260384428426E-33,-9.29328735742048E-31));
#818=DIRECTION('',(2.07805191078644E-48,1.12061107227292E-80,1.));
#819=DIRECTION('',(-1.,-5.39260384428426E-33,1.06514223357704E-25));
#820=DIRECTION('center_axis',(5.39260384428426E-33,-1.,0.));
#821=DIRECTION('ref_axis',(0.412686369605931,0.,-0.910873185652908));
#822=DIRECTION('',(2.07805191078644E-48,1.12061107227292E-80,1.));
#823=DIRECTION('',(2.07805191078644E-48,1.12061107227292E-80,1.));
#824=DIRECTION('',(1.,5.39260384428426E-33,-2.07805191078644E-48));
#825=DIRECTION('',(-2.0780511149326E-48,-1.12061064310047E-80,-1.));
#826=DIRECTION('center_axis',(1.,1.07852076885685E-32,-2.07805191078644E-48));
#827=DIRECTION('ref_axis',(-1.07852076885685E-32,1.,-4.96101224962821E-17));
#828=DIRECTION('',(1.07852076885685E-32,-1.,4.96101224962822E-17));
#829=DIRECTION('center_axis',(-1.,-1.07852076885685E-32,2.07805191078644E-48));
#830=DIRECTION('ref_axis',(1.07852076885685E-32,-1.,2.71654727421313E-16));
#831=DIRECTION('',(1.54299643620871E-48,4.96101224962821E-17,1.));
#832=DIRECTION('',(-1.54299656110712E-48,-4.96101109157535E-17,-1.));
#833=DIRECTION('',(-1.38600330295505E-9,-1.,4.96101109157535E-17));
#834=DIRECTION('',(1.54299656110712E-48,4.96101109157535E-17,1.));
#835=DIRECTION('',(-1.54299643620871E-48,-4.96101224962821E-17,-1.));
#836=DIRECTION('center_axis',(-1.,-1.07852076885685E-32,2.07805191078644E-48));
#837=DIRECTION('ref_axis',(1.07852076885685E-32,-1.,2.71654727421313E-16));
#838=DIRECTION('',(1.07852076885685E-32,-1.,4.96101224962822E-17));
#839=DIRECTION('center_axis',(1.,-1.73640489616461E-29,-2.0780511149326E-48));
#840=DIRECTION('ref_axis',(1.73640489616461E-29,1.,-1.65436122510606E-24));
#841=DIRECTION('center_axis',(-1.,1.73640489616461E-29,2.0780511149326E-48));
#842=DIRECTION('ref_axis',(-5.39260384428426E-33,1.,-1.65436118307658E-24));
#843=DIRECTION('center_axis',(1.,-1.73640489616461E-29,-2.0780511149326E-48));
#844=DIRECTION('ref_axis',(-5.39260384428426E-33,1.,-1.65436121614173E-24));
#845=DIRECTION('center_axis',(-0.381478142846466,0.381478142846466,0.841991005332493));
#846=DIRECTION('ref_axis',(0.910847900185402,0.310401482361752,0.272042317435121));
#847=DIRECTION('',(0.381478142846466,-0.381478142846466,-0.841991005332493));
#848=DIRECTION('center_axis',(-1.,-5.39260384428426E-33,2.07805191078644E-48));
#849=DIRECTION('ref_axis',(0.,0.412686369605931,0.910873185652908));
#850=DIRECTION('',(-0.381478142846466,0.381478142846466,0.841991005332493));
#851=DIRECTION('center_axis',(1.,5.39260384428426E-33,-2.07805191078644E-48));
#852=DIRECTION('ref_axis',(-2.07805191078644E-48,-1.12061107227292E-80,
-1.));
#853=DIRECTION('center_axis',(-1.,-5.39260384428426E-33,2.07805191078644E-48));
#854=DIRECTION('ref_axis',(8.32667367923459E-17,1.,-8.51402282009417E-15));
#855=DIRECTION('',(-5.06739003929565E-33,0.93969262078591,0.342020143325666));
#856=DIRECTION('center_axis',(-1.,-5.39260384428426E-33,2.07805191078644E-48));
#857=DIRECTION('ref_axis',(0.,-0.56005491563075,0.828455485513756));
#858=DIRECTION('center_axis',(-1.,-5.39260384428426E-33,2.07805191078644E-48));
#859=DIRECTION('ref_axis',(8.32667367923459E-17,1.,-8.51402282009417E-15));
#860=DIRECTION('',(2.07805191078644E-48,1.12061107227292E-80,1.));
#861=DIRECTION('center_axis',(1.,2.60722922686378E-31,-1.98523938658406E-23));
#862=DIRECTION('ref_axis',(-2.60723092001221E-31,1.,-8.51402282009417E-15));
#863=DIRECTION('',(-2.07805191078644E-48,-1.12061107227292E-80,-1.));
#864=DIRECTION('center_axis',(-1.,-1.49883571991992E-29,9.92616907549923E-24));
#865=DIRECTION('ref_axis',(-1.49405474473676E-29,1.,-2.84494651714561E-16));
#866=DIRECTION('center_axis',(-1.,-5.39260384428426E-33,2.07805191078644E-48));
#867=DIRECTION('ref_axis',(-3.88857614673321E-48,-4.96101109157535E-17,
-1.));
#868=DIRECTION('center_axis',(0.866025403784439,-0.171010071662833,0.469846310392955));
#869=DIRECTION('ref_axis',(0.484220415495546,0.0526380228855522,-0.873361224101472));
#870=DIRECTION('center_axis',(-0.866025403784439,0.171010071662833,-0.469846310392955));
#871=DIRECTION('ref_axis',(-0.5,-0.296198132726021,0.813797681349375));
#872=DIRECTION('',(1.12172823372375E-15,-0.939692620785909,-0.342020143325667));
#873=DIRECTION('center_axis',(-0.866025403784439,0.171010071662833,-0.469846310392955));
#874=DIRECTION('ref_axis',(-0.5,-0.296198132726021,0.813797681349375));
#875=DIRECTION('',(-0.488639843152021,-0.488639843152022,0.722815472557648));
#876=DIRECTION('center_axis',(0.488639843152021,0.488639843152022,-0.722815472557648));
#877=DIRECTION('ref_axis',(0.844916904846259,-0.471629644661118,0.252350752291024));
#878=DIRECTION('',(0.488639843152021,0.488639843152022,-0.722815472557648));
#879=DIRECTION('center_axis',(0.707106781186548,-0.707106781186547,-1.46940459777475E-48));
#880=DIRECTION('ref_axis',(-2.07805191078644E-48,-1.12061107227292E-80,
-1.));
#881=DIRECTION('center_axis',(-0.707106781186548,0.707106781186547,1.46940459777475E-48));
#882=DIRECTION('ref_axis',(0.707106781186547,0.707106781186548,-7.19105947285428E-15));
#883=DIRECTION('center_axis',(1.,5.39260384428426E-33,-1.06514223357704E-25));
#884=DIRECTION('ref_axis',(0.,-0.819152044288993,0.573576436351045));
#885=DIRECTION('',(-1.,-5.39260384821046E-33,1.06514223357704E-25));
#886=DIRECTION('center_axis',(1.,5.39260384428426E-33,-2.07805191078644E-48));
#887=DIRECTION('ref_axis',(0.,-0.819152044288993,0.573576436351045));
#888=DIRECTION('center_axis',(1.,5.39260384428426E-33,-1.06514223357704E-25));
#889=DIRECTION('ref_axis',(0.,0.57357643635105,0.819152044288989));
#890=DIRECTION('center_axis',(1.,5.39260384428426E-33,-2.07805191078644E-48));
#891=DIRECTION('ref_axis',(0.,0.57357643635105,0.819152044288989));
#892=DIRECTION('',(1.,5.39260384821046E-33,-1.06514223357704E-25));
#893=DIRECTION('center_axis',(1.00090631542356E-25,-0.342020143325667,0.939692620785909));
#894=DIRECTION('ref_axis',(-5.70294558191001E-25,0.939692620785909,0.342020143325667));
#895=DIRECTION('',(-2.75119279955665E-25,-0.939692620785909,-0.342020143325667));
#896=DIRECTION('center_axis',(1.,5.39260384428426E-33,-2.07805191078644E-48));
#897=DIRECTION('ref_axis',(-5.41102412244725E-47,9.64880618271935E-15,-1.));
#898=DIRECTION('',(-5.39260384428426E-33,1.,-4.96101224962822E-17));
#899=DIRECTION('center_axis',(1.,5.39260384428426E-33,-2.07805191078644E-48));
#900=DIRECTION('ref_axis',(5.39260384428426E-33,-1.,2.71654727421313E-16));
#901=DIRECTION('',(1.81052417349757E-48,4.96101224962821E-17,1.));
#902=DIRECTION('',(-5.39260384428426E-33,1.,-4.96101224962822E-17));
#903=DIRECTION('',(-1.81052417349757E-48,-4.96101224962821E-17,-1.));
#904=DIRECTION('center_axis',(1.,5.39260384428426E-33,-2.07805191078644E-48));
#905=DIRECTION('ref_axis',(5.39260384428426E-33,-1.,2.71654727421313E-16));
#906=DIRECTION('',(5.39260384428426E-33,-1.,4.96101224962822E-17));
#907=DIRECTION('center_axis',(1.,5.39260384428426E-33,-2.07805191078644E-48));
#908=DIRECTION('ref_axis',(-1.29246916785372E-26,-1.,2.71654662901226E-16));
#909=DIRECTION('center_axis',(0.707106781186547,0.707106781186548,-1.46940459777475E-48));
#910=DIRECTION('ref_axis',(-2.07805191078644E-48,-1.12061107227292E-80,
-1.));
#911=DIRECTION('center_axis',(-0.707106781186547,-0.707106781186548,1.46940459777475E-48));
#912=DIRECTION('ref_axis',(-0.707106781186548,0.707106781186547,-4.84958706967692E-15));
#913=DIRECTION('center_axis',(-1.,8.32667367923599E-17,1.65567101424787E-15));
#914=DIRECTION('ref_axis',(-5.43816780534464E-17,-0.999847938028614,0.0174384867442292));
#915=DIRECTION('center_axis',(-0.707106781186548,0.707106781186547,1.46940459777475E-48));
#916=DIRECTION('ref_axis',(0.707106781186547,0.707106781186548,-7.19105947285428E-15));
#917=DIRECTION('center_axis',(-1.,8.32667367923599E-17,1.65567101424787E-15));
#918=DIRECTION('ref_axis',(8.32667367923459E-17,1.,-8.51402282009417E-15));
#919=DIRECTION('center_axis',(-0.707106781186547,-0.707106781186548,1.46940459777475E-48));
#920=DIRECTION('ref_axis',(-0.707106781186548,0.707106781186547,-4.84958706967692E-15));
#921=DIRECTION('center_axis',(-0.707106781186552,-3.50796458439459E-17,
-0.707106781186543));
#922=DIRECTION('ref_axis',(-0.707106781186543,-3.81314674654602E-33,0.707106781186552));
#923=DIRECTION('',(-1.07852076885685E-32,1.,-4.96101109157535E-17));
#924=DIRECTION('',(0.577350269189631,0.577350269189628,-0.577350269189618));
#925=DIRECTION('',(1.07852076885685E-32,-1.,4.96101109157535E-17));
#926=DIRECTION('',(0.577350269189624,-0.577350269189642,-0.577350269189611));
#927=DIRECTION('center_axis',(-0.707106781186552,3.50796540326162E-17,0.707106781186543));
#928=DIRECTION('ref_axis',(0.707106781186543,3.81314674654602E-33,0.707106781186552));
#929=DIRECTION('',(-1.07852076885685E-32,1.,-4.96101224962822E-17));
#930=DIRECTION('',(-0.577350269189617,-0.577350269189615,-0.577350269189645));
#931=DIRECTION('',(1.07852076885685E-32,-1.,4.96101224962822E-17));
#932=DIRECTION('',(0.57735026918961,-0.577350269189628,0.577350269189639));
#933=DIRECTION('center_axis',(-0.707106781186546,0.707106781186549,-3.50796458439462E-17));
#934=DIRECTION('ref_axis',(-4.96101109157537E-17,-2.67527674839662E-49,
1.));
#935=DIRECTION('',(-5.35055349679322E-49,4.96101109157535E-17,1.));
#936=DIRECTION('',(5.35055349679322E-49,-4.96101109157535E-17,-1.));
#937=DIRECTION('center_axis',(-0.707106781186559,-0.707106781186537,3.50796458439455E-17));
#938=DIRECTION('ref_axis',(4.9610110915752E-17,2.67527674839653E-49,1.));
#939=DIRECTION('',(-5.35055349679322E-49,4.96101109157535E-17,1.));
#940=DIRECTION('',(5.35055349679322E-49,-4.96101109157535E-17,-1.));
#941=DIRECTION('center_axis',(-5.39260384428426E-33,1.,-4.96101109157535E-17));
#942=DIRECTION('ref_axis',(2.67527674839661E-49,-4.96101109157535E-17,-1.));
#943=DIRECTION('',(-1.,-5.39260384428426E-33,4.15610382157288E-48));
#944=DIRECTION('',(-1.,-5.39260384428426E-33,4.15610382157288E-48));
#945=DIRECTION('center_axis',(-3.88857608428401E-48,-4.96101224962822E-17,
-1.));
#946=DIRECTION('ref_axis',(-5.39260384428426E-33,1.,-4.96101224962822E-17));
#947=DIRECTION('',(-1.,-5.39260384428426E-33,4.15610382157288E-48));
#948=DIRECTION('',(1.,5.39260384428426E-33,-4.15610382157288E-48));
#949=DIRECTION('',(-1.,-5.39260384428426E-33,4.15610382157288E-48));
#950=DIRECTION('center_axis',(-1.,-1.07852076885685E-32,5.34348998943204E-87));
#951=DIRECTION('ref_axis',(5.35055349679322E-49,-4.96101109157535E-17,-1.));
#952=DIRECTION('center_axis',(0.707106781186547,0.707106781186548,-1.46940459777475E-48));
#953=DIRECTION('ref_axis',(-2.07805191078644E-48,-1.12061107227292E-80,
-1.));
#954=DIRECTION('center_axis',(-0.707106781186547,-0.707106781186548,1.46940459777475E-48));
#955=DIRECTION('ref_axis',(-0.707106781186548,0.707106781186547,-5.41073248851838E-15));
#956=DIRECTION('center_axis',(0.707106781186548,-0.707106781186547,-1.46940459777475E-48));
#957=DIRECTION('ref_axis',(-2.07805191078644E-48,-1.12061107227292E-80,
-1.));
#958=DIRECTION('center_axis',(-0.707106781186548,0.707106781186547,1.46940459777475E-48));
#959=DIRECTION('ref_axis',(0.707106781186547,0.707106781186548,-6.62991405401282E-15));
#960=DIRECTION('center_axis',(1.,5.39260384428426E-33,-2.07805191078644E-48));
#961=DIRECTION('ref_axis',(-2.93240470157984E-48,6.12323383030065E-17,-1.));
#962=DIRECTION('center_axis',(1.,-1.29246916785381E-26,-3.30872245021211E-24));
#963=DIRECTION('ref_axis',(-1.29246916785372E-26,-1.,2.71654662901226E-16));
#964=DIRECTION('',(1.,-1.29246916785381E-26,-3.30872245021211E-24));
#965=DIRECTION('center_axis',(1.,1.07852076868277E-32,0.));
#966=DIRECTION('ref_axis',(1.07852076855464E-32,-1.,2.71654662901226E-16));
#967=DIRECTION('center_axis',(-1.,-1.07852076868277E-32,0.));
#968=DIRECTION('ref_axis',(1.07852076862639E-32,-1.,2.71654662901226E-16));
#969=DIRECTION('center_axis',(-1.,-1.07852076868277E-32,0.));
#970=DIRECTION('ref_axis',(-3.62104847186551E-48,-4.96101109157535E-17,
-1.));
#971=DIRECTION('center_axis',(-5.39260384428426E-33,1.,-4.96101224962821E-17));
#972=DIRECTION('ref_axis',(-2.67527737288864E-49,4.96101224962821E-17,1.));
#973=DIRECTION('',(1.,5.39260384428425E-33,-4.93038065763132E-32));
#974=DIRECTION('center_axis',(9.29328735742048E-31,-4.96101224962822E-17,
-1.));
#975=DIRECTION('ref_axis',(-1.,-1.8732639067316E-14,-2.16933861069898E-37));
#976=DIRECTION('',(-1.,-5.39260384428425E-33,4.93038065763132E-32));
#977=DIRECTION('center_axis',(-1.,-5.39260384428425E-33,4.93038065763132E-32));
#978=DIRECTION('ref_axis',(5.39260384428426E-33,-1.,2.71654727421313E-16));
#979=DIRECTION('',(-1.,-5.39260384428425E-33,4.93038065763132E-32));
#980=DIRECTION('center_axis',(-1.,-5.39260384428425E-33,4.93038065763132E-32));
#981=DIRECTION('ref_axis',(5.39260384428426E-33,-1.,2.71654727421313E-16));
#982=DIRECTION('',(-1.,-5.39260384428425E-33,4.93038065763132E-32));
#983=DIRECTION('center_axis',(3.88857614673321E-48,4.96101109157535E-17,
1.));
#984=DIRECTION('ref_axis',(-3.4066587010704E-15,1.,-4.96101109157535E-17));
#985=DIRECTION('',(-1.,-5.39260384428426E-33,4.15610382157288E-48));
#986=DIRECTION('center_axis',(5.39260384428426E-33,-1.,4.96101109157535E-17));
#987=DIRECTION('ref_axis',(-2.67527674839661E-49,4.96101109157535E-17,1.));
#988=DIRECTION('center_axis',(5.39260384428426E-33,-1.,4.96101224962821E-17));
#989=DIRECTION('ref_axis',(2.67527737288864E-49,-4.96101224962821E-17,-1.));
#990=DIRECTION('center_axis',(9.29328735742048E-31,-4.96101224962822E-17,
-1.));
#991=DIRECTION('ref_axis',(-1.,-1.8732639067316E-14,-2.16933861069898E-37));
#992=DIRECTION('center_axis',(1.,5.39260384428426E-33,-4.15610382157288E-48));
#993=DIRECTION('ref_axis',(-3.88857614673321E-48,-4.96101109157535E-17,
-1.));
#994=DIRECTION('',(1.,5.39260384428426E-33,-4.15610382157288E-48));
#995=DIRECTION('center_axis',(1.,5.39260384428426E-33,-2.07805191078644E-48));
#996=DIRECTION('ref_axis',(-5.39260384428426E-33,1.,-1.65436121614173E-24));
#997=DIRECTION('',(-1.,-5.39260384428426E-33,2.07805191078644E-48));
#998=CARTESIAN_POINT('',(0.,0.,0.));
#999=CARTESIAN_POINT('Origin',(5.65960537105414,67.9880177695328,76.3691506244873));
#1000=CARTESIAN_POINT('',(-6.64992282312796,67.9880177695328,83.4695029730029));
#1001=CARTESIAN_POINT('',(-6.64992282312796,67.9880177695328,94.2323035384992));
#1002=CARTESIAN_POINT('',(-6.64992282312796,67.9880177695328,81.094150716964));
#1003=CARTESIAN_POINT('',(6.64992264893223,67.9880177695328,83.4695029730029));
#1004=CARTESIAN_POINT('',(2.57980264197815,67.9880177695328,83.4695029730029));
#1005=CARTESIAN_POINT('',(6.64992264893223,67.9880177695328,76.3691508094406));
#1006=CARTESIAN_POINT('',(6.64992264893223,67.9880177695328,74.0442323391785));
#1007=CARTESIAN_POINT('',(11.4997880274104,67.9880177695328,76.3691508094406));
#1008=CARTESIAN_POINT('',(-10.6596053710541,67.9880177695328,76.3691508094406));
#1009=CARTESIAN_POINT('',(11.4997880274104,67.9880177695328,96.2327653653864));
#1010=CARTESIAN_POINT('',(11.4997880274104,67.9880177695328,81.494150716964));
#1011=CARTESIAN_POINT('',(11.4997880274104,67.9880177695328,105.165172785722));
#1012=CARTESIAN_POINT('',(11.4997880274104,67.9880177695328,81.494150716964));
#1013=CARTESIAN_POINT('',(11.4973996583903,67.9880177695328,105.335124747373));
#1014=CARTESIAN_POINT('Origin',(5.84293377791807,67.9880177695328,109.349094578878));
#1015=CARTESIAN_POINT('',(7.64992247473651,67.9880177695328,105.335124747373));
#1016=CARTESIAN_POINT('',(5.65960537105414,67.9880177695328,105.335124747373));
#1017=CARTESIAN_POINT('',(7.64992247473651,67.9880177695328,94.2323035384992));
#1018=CARTESIAN_POINT('',(7.64992247473651,67.9880177695328,88.869150716964));
#1019=CARTESIAN_POINT('',(5.57980289645245,67.9880177695328,94.2323035384992));
#1020=CARTESIAN_POINT('Origin',(-0.500000087097842,74.988017769532,83.4695029730029));
#1021=CARTESIAN_POINT('',(-6.64992282312796,81.9880177695328,83.4695029730029));
#1022=CARTESIAN_POINT('',(-6.64992282312796,74.9880177778931,83.4695029730029));
#1023=CARTESIAN_POINT('',(6.64992264893223,81.9880177695328,83.4695029730029));
#1024=CARTESIAN_POINT('',(2.57980264197816,81.9880177695328,83.4695029730029));
#1025=CARTESIAN_POINT('',(6.64992264893223,71.7380177695324,83.4695029730029));
#1026=CARTESIAN_POINT('Origin',(5.65960537105414,81.9880177695328,101.369150809441));
#1027=CARTESIAN_POINT('',(-6.64992282312796,81.9880177695328,94.2323035384992));
#1028=CARTESIAN_POINT('',(-6.64992282312796,81.9880177695328,93.5941508094407));
#1029=CARTESIAN_POINT('',(7.64992247473651,81.9880177695328,94.2323035384992));
#1030=CARTESIAN_POINT('',(5.57980289645245,81.9880177695328,94.2323035384992));
#1031=CARTESIAN_POINT('',(7.64992247473651,81.9880177695328,108.246886621503));
#1032=CARTESIAN_POINT('',(7.64992247473651,81.9880177695328,101.369150809441));
#1033=CARTESIAN_POINT('',(11.4996841044534,81.9880177695328,108.246886621503));
#1034=CARTESIAN_POINT('',(5.65960537105414,81.9880177695328,108.246886621503));
#1035=CARTESIAN_POINT('',(11.4997880274104,81.9880177695328,108.201829499051));
#1036=CARTESIAN_POINT('Origin',(5.84293377791807,81.9880177695328,114.444677858605));
#1037=CARTESIAN_POINT('',(11.4997880274104,81.9880177695328,96.2327653653864));
#1038=CARTESIAN_POINT('',(11.4997880274104,81.9880177695328,93.9941508094406));
#1039=CARTESIAN_POINT('',(11.4997880274104,81.9880177695328,76.3691508094406));
#1040=CARTESIAN_POINT('',(11.4997880274104,81.9880177695328,93.9941508094406));
#1041=CARTESIAN_POINT('',(6.64992264893223,81.9880177695328,76.3691508094406));
#1042=CARTESIAN_POINT('',(-9.80960537105406,81.9880177695328,76.3691508094406));
#1043=CARTESIAN_POINT('',(6.64992264893223,81.9880177695328,86.5442324316552));
#1044=CARTESIAN_POINT('Origin',(-6.64992282312796,74.9880177862542,85.8191508094407));
#1045=CARTESIAN_POINT('',(-6.64992282312796,71.0690698943464,94.2323035384992));
#1046=CARTESIAN_POINT('',(-6.64992282312796,68.8880177695326,94.2323035384992));
#1047=CARTESIAN_POINT('',(-6.64992282312796,71.3380177695333,93.7756328776992));
#1048=CARTESIAN_POINT('Origin',(-6.64992282312796,74.988017812416,96.2327652890603));
#1049=CARTESIAN_POINT('',(-6.64992282312796,71.3380177099281,91.2327653653864));
#1050=CARTESIAN_POINT('',(-6.64992282312796,71.3380177695328,93.5259580874135));
#1051=CARTESIAN_POINT('',(-6.64992282312796,71.3380176503235,84.5191508094407));
#1052=CARTESIAN_POINT('',(-6.64992282312796,71.3380176503235,84.2191508094407));
#1053=CARTESIAN_POINT('',(-6.64992282312796,78.6380176503235,84.5191508094407));
#1054=CARTESIAN_POINT('',(-6.64992282482571,70.1130177191446,84.5191508094406));
#1055=CARTESIAN_POINT('',(-6.64992282312796,78.6380177099281,91.2327653653864));
#1056=CARTESIAN_POINT('',(-6.64992282312796,78.6380176503235,88.5259580874135));
#1057=CARTESIAN_POINT('',(-6.64992282312796,78.6380177695323,93.7756327502955));
#1058=CARTESIAN_POINT('',(-6.64992282312796,78.6380177695328,88.5259580874135));
#1059=CARTESIAN_POINT('',(-6.64992282312796,78.9069657304856,94.2323035384992));
#1060=CARTESIAN_POINT('Origin',(-6.64992282312796,74.988017812416,96.2327652890603));
#1061=CARTESIAN_POINT('',(-6.64992282312796,68.8880177695326,94.2323035384992));
#1062=CARTESIAN_POINT('Origin',(6.64992264893223,68.4880177695328,71.7193140538697));
#1063=CARTESIAN_POINT('Origin',(6.64992264893223,74.9880177695328,76.3691508094406));
#1064=CARTESIAN_POINT('',(6.64992264893223,73.3380177695328,76.3691508094406));
#1065=CARTESIAN_POINT('Origin',(6.64992264893223,74.9880177695328,76.3691508094406));
#1066=CARTESIAN_POINT('Origin',(12.4492828719753,75.3816686754756,99.863274914318));
#1067=CARTESIAN_POINT('',(11.6073538010038,79.0036590749335,111.246845846153));
#1068=CARTESIAN_POINT('Ctrl Pts',(11.4996841044534,81.9880177695328,108.246886621503));
#1069=CARTESIAN_POINT('Ctrl Pts',(11.4980046416113,81.9880177695328,108.611886264357));
#1070=CARTESIAN_POINT('Ctrl Pts',(11.5420530113941,81.9177194127601,108.979555715528));
#1071=CARTESIAN_POINT('Ctrl Pts',(11.6389983305989,81.6633753817838,109.655285103938));
#1072=CARTESIAN_POINT('Ctrl Pts',(11.6996053774745,81.4524340826031,110.003724403092));
#1073=CARTESIAN_POINT('Ctrl Pts',(11.7739747244459,80.9063661591654,110.587776693339));
#1074=CARTESIAN_POINT('Ctrl Pts',(11.7866063613496,80.5709451507025,110.823257825177));
#1075=CARTESIAN_POINT('Ctrl Pts',(11.750537781011,79.8769573194359,111.137680648406));
#1076=CARTESIAN_POINT('Ctrl Pts',(11.6990273733965,79.4766111598682,111.233654087718));
#1077=CARTESIAN_POINT('Ctrl Pts',(11.6171158465175,79.0528197935813,111.246287545054));
#1078=CARTESIAN_POINT('Ctrl Pts',(11.6122756661561,79.028232266383,111.246717725481));
#1079=CARTESIAN_POINT('Ctrl Pts',(11.6073538010038,79.0036590749335,111.246845846153));
#1080=CARTESIAN_POINT('',(14.4997880274104,76.1112248485268,104.862722278868));
#1081=CARTESIAN_POINT('',(15.9133844871131,74.6976283888242,101.74266015589));
#1082=CARTESIAN_POINT('',(14.4997880274105,78.9792424935161,101.98342838826));
#1083=CARTESIAN_POINT('Origin',(14.4997880274104,73.3311635200404,95.3374405260574));
#1084=CARTESIAN_POINT('',(14.363878731759,79.1239270651843,101.880265192578));
#1085=CARTESIAN_POINT('Ctrl Pts',(14.363878731759,79.1239270651843,101.880265192578));
#1086=CARTESIAN_POINT('Ctrl Pts',(14.4103081727091,79.0774976242341,101.914267487805));
#1087=CARTESIAN_POINT('Ctrl Pts',(14.4556874072699,79.0292375827721,101.948729496059));
#1088=CARTESIAN_POINT('Ctrl Pts',(14.499788027411,78.9792424935165,101.98342838826));
#1089=CARTESIAN_POINT('',(15.2777099967215,78.2100958002218,99.863274914318));
#1090=CARTESIAN_POINT('Origin',(14.4997880274104,74.9880177695328,86.6191508094406));
#1091=CARTESIAN_POINT('',(14.4997880274102,78.9880177695328,90.4882027188495));
#1092=CARTESIAN_POINT('Origin',(14.4997880274105,74.9880177695328,96.2327653653864));
#1093=CARTESIAN_POINT('',(14.4997880274104,72.4967301172361,103.547153784766));
#1094=CARTESIAN_POINT('',(14.4997880274104,70.168108978535,102.699605003396));
#1095=CARTESIAN_POINT('',(14.4997880274105,71.1907730691519,102.11332083961));
#1096=CARTESIAN_POINT('Origin',(14.4997880274104,76.6448720190252,96.5435317847228));
#1097=CARTESIAN_POINT('',(14.4997880274102,70.9880177695328,90.4882027188495));
#1098=CARTESIAN_POINT('Origin',(14.4997880274105,74.9880177695328,96.2327653653864));
#1099=CARTESIAN_POINT('',(14.4997880274102,70.9880177695328,82.1137134559787));
#1100=CARTESIAN_POINT('',(14.4997880274104,70.9880177695328,81.494150716964));
#1101=CARTESIAN_POINT('',(14.4997880274102,78.9880177695328,82.1137134559787));
#1102=CARTESIAN_POINT('Origin',(14.4997880274102,74.9880177695328,76.3691508094406));
#1103=CARTESIAN_POINT('',(14.4997880274104,78.9880177695328,93.9941508094406));
#1104=CARTESIAN_POINT('',(14.4997881996725,73.3380177695346,76.3691508094406));
#1105=CARTESIAN_POINT('Origin',(14.4997881996725,74.9880177695346,76.3691508094406));
#1106=CARTESIAN_POINT('',(14.4997880274104,74.9880177695328,97.9327653653864));
#1107=CARTESIAN_POINT('Origin',(14.4997880274104,74.9880177695328,96.2327653653864));
#1108=CARTESIAN_POINT('Origin',(12.5604477552801,69.9313228325466,106.188033219598));
#1109=CARTESIAN_POINT('',(11.4997876172417,77.9619573395558,111.065964483861));
#1110=CARTESIAN_POINT('Origin',(13.2318384248106,78.9880177695328,108.246886621503));
#1111=CARTESIAN_POINT('',(11.4997876172417,69.9619573395558,108.154202609731));
#1112=CARTESIAN_POINT('',(11.4997876172417,70.2150635165211,108.246325724255));
#1113=CARTESIAN_POINT('',(11.522590358538,69.5195324483636,107.951142878333));
#1114=CARTESIAN_POINT('Origin',(13.2318384248106,70.9880177695328,105.335124747373));
#1115=CARTESIAN_POINT('',(16.8518675623565,74.8488096521822,100.067864274565));
#1116=CARTESIAN_POINT('Origin',(13.3877659472188,75.5328499388335,98.1884790329934));
#1117=CARTESIAN_POINT('Ctrl Pts',(11.522590358538,69.5195324483636,107.951142878333));
#1118=CARTESIAN_POINT('Ctrl Pts',(11.5304280360252,69.4463387971553,107.910056082668));
#1119=CARTESIAN_POINT('Ctrl Pts',(11.5371103220217,69.3756385922808,107.866315804209));
#1120=CARTESIAN_POINT('Ctrl Pts',(11.5661019226009,69.0230614098753,107.627965539653));
#1121=CARTESIAN_POINT('Ctrl Pts',(11.571222810911,68.7526040120376,107.369304019123));
#1122=CARTESIAN_POINT('Ctrl Pts',(11.5512277188642,68.3278201687236,106.769805436539));
#1123=CARTESIAN_POINT('Ctrl Pts',(11.5270966147572,68.1734257714555,106.428984080684));
#1124=CARTESIAN_POINT('Ctrl Pts',(11.4990167961776,68.0226788133736,105.854101428846));
#1125=CARTESIAN_POINT('Ctrl Pts',(11.4901710774042,67.9880177695328,105.594930494936));
#1126=CARTESIAN_POINT('Ctrl Pts',(11.4973996583903,67.9880177695328,105.335124747373));
#1127=CARTESIAN_POINT('',(13.9449624877676,70.4331922298899,101.548173562638));
#1128=CARTESIAN_POINT('',(16.216193071965,72.7044228140873,98.1884790329934));
#1129=CARTESIAN_POINT('Ctrl Pts',(14.4997880274107,71.1907730691523,102.11332083961));
#1130=CARTESIAN_POINT('Ctrl Pts',(14.4904691659276,71.1729660586362,102.101822338047));
#1131=CARTESIAN_POINT('Ctrl Pts',(14.4810705361943,71.1554063184557,102.09036885075));
#1132=CARTESIAN_POINT('Ctrl Pts',(14.361544027081,70.9368684974156,101.946454858825));
#1133=CARTESIAN_POINT('Ctrl Pts',(14.2202303602912,70.7326565354316,101.795861564743));
#1134=CARTESIAN_POINT('Ctrl Pts',(14.019511231413,70.50971296106,101.613046566304));
#1135=CARTESIAN_POINT('Ctrl Pts',(13.9826816512561,70.4709113933785,101.580495484645));
#1136=CARTESIAN_POINT('Ctrl Pts',(13.9449624877673,70.4331922298896,101.548173562637));
#1137=CARTESIAN_POINT('Origin',(12.9997880274104,69.4880177695328,81.494150716964));
#1138=CARTESIAN_POINT('Origin',(18.4997880274104,74.9880177695328,96.2327653653864));
#1139=CARTESIAN_POINT('Origin',(5.65960537105414,70.9880177695328,105.335124747373));
#1140=CARTESIAN_POINT('',(7.64992247473651,69.9619573395558,108.154202609731));
#1141=CARTESIAN_POINT('',(5.65960537105414,69.9619573395558,108.154202609731));
#1142=CARTESIAN_POINT('Origin',(7.64992247473651,70.9880177695328,105.335124747373));
#1143=CARTESIAN_POINT('Origin',(5.65960537105414,78.9880177695328,108.246886621503));
#1144=CARTESIAN_POINT('',(7.64992247473651,77.9619573395558,111.065964483861));
#1145=CARTESIAN_POINT('Origin',(7.64992247473651,78.9880177695328,108.246886621503));
#1146=CARTESIAN_POINT('',(5.65960537105414,77.9619573395558,111.065964483861));
#1147=CARTESIAN_POINT('Origin',(5.65960537105414,71.1271353051834,108.578292706842));
#1148=CARTESIAN_POINT('',(7.64992247473651,69.2549370299971,107.89686826203));
#1149=CARTESIAN_POINT('Origin',(7.64992247473651,68.8880177695328,101.369150809441));
#1150=CARTESIAN_POINT('',(7.64992247473651,78.9069657304856,94.2323035384992));
#1151=CARTESIAN_POINT('',(7.64992247473651,68.8880177695329,94.2323035384992));
#1152=CARTESIAN_POINT('',(7.64992247473651,78.6380177695328,93.7756327502974));
#1153=CARTESIAN_POINT('Origin',(7.64992247473651,74.988017812416,96.2327652890603));
#1154=CARTESIAN_POINT('',(7.64992247473651,78.6380177695328,91.2327653653864));
#1155=CARTESIAN_POINT('',(7.64992247473651,78.6380177695328,96.3009580874135));
#1156=CARTESIAN_POINT('',(7.64992247473651,71.3380177695328,91.2327653653864));
#1157=CARTESIAN_POINT('',(7.64992247473651,70.4380177695328,91.2327653653864));
#1158=CARTESIAN_POINT('',(7.64992247473651,71.3380177695328,93.775632877701));
#1159=CARTESIAN_POINT('',(7.64992247473651,71.3380177695328,101.300958087414));
#1160=CARTESIAN_POINT('',(7.64992247473651,71.0690698943464,94.2323035384992));
#1161=CARTESIAN_POINT('Origin',(7.64992247473651,74.988017812416,96.2327652890603));
#1162=CARTESIAN_POINT('',(7.64992247473651,68.8880177695329,94.2323035384992));
#1163=CARTESIAN_POINT('',(7.64992247473651,78.988017812416,96.2327652890603));
#1164=CARTESIAN_POINT('Origin',(7.64992247473651,74.988017812416,96.2327652890603));
#1165=CARTESIAN_POINT('Origin',(12.9997880274104,80.4880177695328,93.9941508094406));
#1166=CARTESIAN_POINT('Origin',(18.4997880274105,74.9880177695328,96.2327653653864));
#1167=CARTESIAN_POINT('Origin',(14.4997880274102,74.9880177695328,96.2327653653864));
#1168=CARTESIAN_POINT('Origin',(18.4997880274104,74.9880177695328,96.2327653653864));
#1169=CARTESIAN_POINT('Origin',(14.4997880274102,74.9880177695328,96.2327653653864));
#1170=CARTESIAN_POINT('Origin',(18.4997880274105,74.9880177695328,96.2327653653864));
#1171=CARTESIAN_POINT('Origin',(-7.89992282312796,71.9380177778934,84.7691508094407));
#1172=CARTESIAN_POINT('',(-8.14992282312796,71.8380176503235,85.0191508094407));
#1173=CARTESIAN_POINT('',(-8.14992282312796,78.1380176503235,85.0191508094407));
#1174=CARTESIAN_POINT('',(-8.14992282312796,71.9380177778934,85.0191508094407));
#1175=CARTESIAN_POINT('',(-7.64992282312796,78.6380176503235,84.5191508094407));
#1176=CARTESIAN_POINT('',(-8.14992282312796,78.1380176503235,85.0191508094407));
#1177=CARTESIAN_POINT('',(-7.64992282312796,71.3380176503235,84.5191508094407));
#1178=CARTESIAN_POINT('',(-7.64992282312796,71.9380177778934,84.5191508094407));
#1179=CARTESIAN_POINT('',(-8.14992282312796,71.8380176503235,85.0191508094407));
#1180=CARTESIAN_POINT('Origin',(-7.89992282312796,73.4880177778934,90.9827653653864));
#1181=CARTESIAN_POINT('',(-7.64992282312796,71.3380176503235,91.2327653653864));
#1182=CARTESIAN_POINT('',(-7.64992282312796,78.6380176503235,91.2327653653864));
#1183=CARTESIAN_POINT('',(-7.64992282312796,73.4880177778934,91.2327653653864));
#1184=CARTESIAN_POINT('',(-8.14992282312796,78.1380176503235,90.7327653653864));
#1185=CARTESIAN_POINT('',(-7.64992282312796,78.6380176503235,91.2327653653864));
#1186=CARTESIAN_POINT('',(-8.14992282312796,71.8380176503235,90.7327653653864));
#1187=CARTESIAN_POINT('',(-8.14992282312796,73.4880177778934,90.7327653653864));
#1188=CARTESIAN_POINT('',(-8.14992282312796,71.8380176503235,90.7327653653864));
#1189=CARTESIAN_POINT('Origin',(-7.89992282312796,78.3880176503235,89.1258808129564));
#1190=CARTESIAN_POINT('',(-8.14992282312796,78.1380176503235,89.1258808129564));
#1191=CARTESIAN_POINT('',(-7.64992282312796,78.6380176503235,89.1258808129564));
#1192=CARTESIAN_POINT('Origin',(-7.89992282312796,71.5880176503235,84.8190735349835));
#1193=CARTESIAN_POINT('',(-7.64992282312796,71.3380176503235,84.8190735349835));
#1194=CARTESIAN_POINT('',(-8.14992282312796,71.8380176503235,84.8190735349835));
#1195=CARTESIAN_POINT('Origin',(-10.6499228231279,78.6380176503235,91.2327653653864));
#1196=CARTESIAN_POINT('',(-10.6499228231279,78.6380176503235,91.2327653653864));
#1197=CARTESIAN_POINT('',(-10.6499228231279,78.6380176503235,84.5191508094407));
#1198=CARTESIAN_POINT('Origin',(-6.50021197258956,71.9880177695328,91.2327653653864));
#1199=CARTESIAN_POINT('',(-10.6499228231279,71.3380176503235,91.2327653653864));
#1200=CARTESIAN_POINT('',(-6.50021197258956,71.3380177695328,91.2327653653864));
#1201=CARTESIAN_POINT('',(-6.50021197258956,78.6380177695328,91.2327653653864));
#1202=CARTESIAN_POINT('Origin',(-8.14992282312796,74.9880177862541,87.0189962605263));
#1203=CARTESIAN_POINT('Origin',(12.9997880274104,80.4880177695328,93.9941508094406));
#1204=CARTESIAN_POINT('Origin',(18.4997880274105,74.9880177695328,76.3691508094406));
#1205=CARTESIAN_POINT('Origin',(12.9997880274104,69.4880177695328,81.494150716964));
#1206=CARTESIAN_POINT('Origin',(18.4997880274104,74.9880177695328,76.3691508094406));
#1207=CARTESIAN_POINT('Origin',(-9.80960537105406,74.9880177695328,76.3691508094406));
#1208=CARTESIAN_POINT('Origin',(6.64992247473651,74.988017812416,96.2327652890603));
#1209=CARTESIAN_POINT('',(11.2179224747365,78.988017812416,96.2327652890603));
#1210=CARTESIAN_POINT('',(6.64992247473651,78.988017812416,96.2327652890603));
#1211=CARTESIAN_POINT('Origin',(11.2179224747365,74.988017812416,96.2327652890603));
#1212=CARTESIAN_POINT('Origin',(11.2179224747365,74.988017778539,101.60920448418));
#1213=CARTESIAN_POINT('',(11.2179224747365,74.9880177695328,97.9327653653864));
#1214=CARTESIAN_POINT('Origin',(11.2179224747365,74.9880177695328,96.2327653653864));
#1215=CARTESIAN_POINT('Origin',(-6.50021197258956,78.6380177695328,91.2327653653864));
#1216=CARTESIAN_POINT('',(-8.65021197258956,78.6380177695328,93.7756327502974));
#1217=CARTESIAN_POINT('Origin',(5.50000042185076,68.8880177695329,94.2323035384992));
#1218=CARTESIAN_POINT('',(-8.65021197258956,71.0690698943464,94.2323035384992));
#1219=CARTESIAN_POINT('Origin',(-8.65021197258956,74.988017812416,96.2327652890603));
#1220=CARTESIAN_POINT('',(-8.65021197258956,78.9069657304856,94.2323035384992));
#1221=CARTESIAN_POINT('Origin',(-8.65021197258956,74.988017812416,96.2327652890603));
#1222=CARTESIAN_POINT('',(-8.65021197258956,71.3380177695328,93.775632877701));
#1223=CARTESIAN_POINT('Origin',(6.64992264893225,68.8880177695328,84.5191508094406));
#1224=CARTESIAN_POINT('',(-10.6499228231279,71.3380176503235,84.5191508094407));
#1225=CARTESIAN_POINT('Origin',(-10.6499228231279,71.3380176503235,82.6191508094407));
#1226=CARTESIAN_POINT('Origin',(-6.50021197258956,71.3380177695328,101.232765365386));
#1227=CARTESIAN_POINT('Origin',(5.50000042185076,68.8880177695329,94.2323035384992));
#1228=CARTESIAN_POINT('Origin',(5.50000042185076,74.9880177695328,96.2327653653864));
#1229=CARTESIAN_POINT('',(5.50000042185076,74.9880177695328,97.9327653653864));
#1230=CARTESIAN_POINT('Origin',(-9.80960537105406,74.9880177695328,76.3691508094406));
#1231=CARTESIAN_POINT('',(-9.80960537105406,73.3380177695328,76.3691508094406));
#1232=UNCERTAINTY_MEASURE_WITH_UNIT(LENGTH_MEASURE(0.01),#1236,
'DISTANCE_ACCURACY_VALUE',
'Maximum model space distance between geometric entities at asserted c
onnectivities');
#1233=UNCERTAINTY_MEASURE_WITH_UNIT(LENGTH_MEASURE(0.01),#1236,
'DISTANCE_ACCURACY_VALUE',
'Maximum model space distance between geometric entities at asserted c
onnectivities');
#1234=(
GEOMETRIC_REPRESENTATION_CONTEXT(3)
GLOBAL_UNCERTAINTY_ASSIGNED_CONTEXT((#1232))
GLOBAL_UNIT_ASSIGNED_CONTEXT((#1236,#1238,#1239))
REPRESENTATION_CONTEXT('','3D')
);
#1235=(
GEOMETRIC_REPRESENTATION_CONTEXT(3)
GLOBAL_UNCERTAINTY_ASSIGNED_CONTEXT((#1233))
GLOBAL_UNIT_ASSIGNED_CONTEXT((#1236,#1238,#1239))
REPRESENTATION_CONTEXT('','3D')
);
#1236=(
LENGTH_UNIT()
NAMED_UNIT(*)
SI_UNIT(.MILLI.,.METRE.)
);
#1237=(
LENGTH_UNIT()
NAMED_UNIT(*)
SI_UNIT($,.METRE.)
);
#1238=(
NAMED_UNIT(*)
PLANE_ANGLE_UNIT()
SI_UNIT($,.RADIAN.)
);
#1239=(
NAMED_UNIT(*)
SI_UNIT($,.STERADIAN.)
SOLID_ANGLE_UNIT()
);
#1240=SHAPE_DEFINITION_REPRESENTATION(#1241,#1242);
#1241=PRODUCT_DEFINITION_SHAPE('',$,#1244);
#1242=SHAPE_REPRESENTATION('',(#726),#1234);
#1243=PRODUCT_DEFINITION_CONTEXT('part definition',#1248,'design');
#1244=PRODUCT_DEFINITION('44. Rear Sight Left','44. Rear Sight Left',#1245,
#1243);
#1245=PRODUCT_DEFINITION_FORMATION('',$,#1250);
#1246=PRODUCT_RELATED_PRODUCT_CATEGORY('44. Rear Sight Left',
'44. Rear Sight Left',(#1250));
#1247=APPLICATION_PROTOCOL_DEFINITION('international standard',
'automotive_design',2009,#1248);
#1248=APPLICATION_CONTEXT(
'Core Data for Automotive Mechanical Design Process');
#1249=PRODUCT_CONTEXT('part definition',#1248,'mechanical');
#1250=PRODUCT('44. Rear Sight Left','44. Rear Sight Left',$,(#1249));
#1251=PRESENTATION_STYLE_ASSIGNMENT((#1253));
#1252=PRESENTATION_STYLE_ASSIGNMENT((#1254));
#1253=SURFACE_STYLE_USAGE(.BOTH.,#1255);
#1254=SURFACE_STYLE_USAGE(.BOTH.,#1256);
#1255=SURFACE_SIDE_STYLE('',(#1257));
#1256=SURFACE_SIDE_STYLE('',(#1258));
#1257=SURFACE_STYLE_FILL_AREA(#1259);
#1258=SURFACE_STYLE_FILL_AREA(#1260);
#1259=FILL_AREA_STYLE('Steel - Satin',(#1261));
#1260=FILL_AREA_STYLE('Plastic - Matte (Black) (1)',(#1262));
#1261=FILL_AREA_STYLE_COLOUR('Steel - Satin',#1263);
#1262=FILL_AREA_STYLE_COLOUR('Plastic - Matte (Black) (1)',#1264);
#1263=COLOUR_RGB('Steel - Satin',0.627450980392157,0.627450980392157,0.627450980392157);
#1264=COLOUR_RGB('Plastic - Matte (Black) (1)',0.0980392156862745,0.0980392156862745,
0.0980392156862745);
ENDSEC;
END-ISO-10303-21;
