ISO-10303-21;
HEADER;
/* Generated by software containing ST-Developer
 * from STEP Tools, Inc. (www.steptools.com) 
 */

FILE_DESCRIPTION(
/* description */ (''),
/* implementation_level */ '2;1');

FILE_NAME(
/* name */ '45. Rear Sight Right.step',
/* time_stamp */ '2025-10-08T23:28:11+01:00',
/* author */ (''),
/* organization */ (''),
/* preprocessor_version */ 'ST-DEVELOPER v20.1',
/* originating_system */ 'Autodesk Translation Framework v14.10.0.0',
/* authorisation */ '');

FILE_SCHEMA (('AUTOMOTIVE_DESIGN { 1 0 10303 214 3 1 1 }'));
ENDSEC;

DATA;
#10=MECHANICAL_DESIGN_GEOMETRIC_PRESENTATION_REPRESENTATION('',(#13),#1403);
#11=SHAPE_REPRESENTATION_RELATIONSHIP('SRR','None',#1410,#12);
#12=ADVANCED_BREP_SHAPE_REPRESENTATION('',(#14),#1402);
#13=STYLED_ITEM('',(#1420),#14);
#14=MANIFOLD_SOLID_BREP('45. Rear Sight Right',#826);
#15=FACE_BOUND('',#114,.T.);
#16=FACE_BOUND('',#115,.T.);
#17=FACE_BOUND('',#129,.T.);
#18=PLANE('',#846);
#19=PLANE('',#848);
#20=PLANE('',#858);
#21=PLANE('',#859);
#22=PLANE('',#862);
#23=PLANE('',#865);
#24=PLANE('',#868);
#25=PLANE('',#869);
#26=PLANE('',#872);
#27=PLANE('',#873);
#28=PLANE('',#874);
#29=PLANE('',#882);
#30=PLANE('',#883);
#31=PLANE('',#885);
#32=PLANE('',#887);
#33=PLANE('',#889);
#34=PLANE('',#891);
#35=PLANE('',#892);
#36=PLANE('',#893);
#37=PLANE('',#894);
#38=PLANE('',#895);
#39=PLANE('',#896);
#40=PLANE('',#897);
#41=PLANE('',#898);
#42=PLANE('',#899);
#43=PLANE('',#900);
#44=PLANE('',#901);
#45=PLANE('',#902);
#46=PLANE('',#903);
#47=PLANE('',#904);
#48=PLANE('',#905);
#49=PLANE('',#906);
#50=PLANE('',#907);
#51=CIRCLE('',#845,3.);
#52=CIRCLE('',#849,6.5);
#53=CIRCLE('',#850,7.);
#54=CIRCLE('',#851,6.5);
#55=CIRCLE('',#853,4.5);
#56=CIRCLE('',#857,3.);
#57=CIRCLE('',#860,4.5);
#58=CIRCLE('',#861,4.5);
#59=CIRCLE('',#875,7.);
#60=CIRCLE('',#876,4.5);
#61=CIRCLE('',#877,4.5);
#62=CIRCLE('',#878,1.65);
#63=CIRCLE('',#881,4.5);
#64=CIRCLE('',#884,1.65);
#65=CIRCLE('',#886,1.65);
#66=CIRCLE('',#888,1.65);
#67=CIRCLE('',#890,1.65);
#68=FACE_OUTER_BOUND('',#110,.T.);
#69=FACE_OUTER_BOUND('',#111,.T.);
#70=FACE_OUTER_BOUND('',#112,.T.);
#71=FACE_OUTER_BOUND('',#113,.T.);
#72=FACE_OUTER_BOUND('',#116,.T.);
#73=FACE_OUTER_BOUND('',#117,.T.);
#74=FACE_OUTER_BOUND('',#118,.T.);
#75=FACE_OUTER_BOUND('',#119,.T.);
#76=FACE_OUTER_BOUND('',#120,.T.);
#77=FACE_OUTER_BOUND('',#121,.T.);
#78=FACE_OUTER_BOUND('',#122,.T.);
#79=FACE_OUTER_BOUND('',#123,.T.);
#80=FACE_OUTER_BOUND('',#124,.T.);
#81=FACE_OUTER_BOUND('',#125,.T.);
#82=FACE_OUTER_BOUND('',#126,.T.);
#83=FACE_OUTER_BOUND('',#127,.T.);
#84=FACE_OUTER_BOUND('',#128,.T.);
#85=FACE_OUTER_BOUND('',#130,.T.);
#86=FACE_OUTER_BOUND('',#131,.T.);
#87=FACE_OUTER_BOUND('',#132,.T.);
#88=FACE_OUTER_BOUND('',#133,.T.);
#89=FACE_OUTER_BOUND('',#134,.T.);
#90=FACE_OUTER_BOUND('',#135,.T.);
#91=FACE_OUTER_BOUND('',#136,.T.);
#92=FACE_OUTER_BOUND('',#137,.T.);
#93=FACE_OUTER_BOUND('',#138,.T.);
#94=FACE_OUTER_BOUND('',#139,.T.);
#95=FACE_OUTER_BOUND('',#140,.T.);
#96=FACE_OUTER_BOUND('',#141,.T.);
#97=FACE_OUTER_BOUND('',#142,.T.);
#98=FACE_OUTER_BOUND('',#143,.T.);
#99=FACE_OUTER_BOUND('',#144,.T.);
#100=FACE_OUTER_BOUND('',#145,.T.);
#101=FACE_OUTER_BOUND('',#146,.T.);
#102=FACE_OUTER_BOUND('',#147,.T.);
#103=FACE_OUTER_BOUND('',#148,.T.);
#104=FACE_OUTER_BOUND('',#149,.T.);
#105=FACE_OUTER_BOUND('',#150,.T.);
#106=FACE_OUTER_BOUND('',#151,.T.);
#107=FACE_OUTER_BOUND('',#152,.T.);
#108=FACE_OUTER_BOUND('',#153,.T.);
#109=FACE_OUTER_BOUND('',#154,.T.);
#110=EDGE_LOOP('',(#539,#540,#541,#542,#543));
#111=EDGE_LOOP('',(#544,#545,#546,#547,#548));
#112=EDGE_LOOP('',(#549,#550,#551,#552,#553,#554));
#113=EDGE_LOOP('',(#555,#556,#557,#558,#559,#560,#561,#562,#563));
#114=EDGE_LOOP('',(#564,#565,#566,#567,#568,#569));
#115=EDGE_LOOP('',(#570));
#116=EDGE_LOOP('',(#571,#572,#573,#574,#575,#576));
#117=EDGE_LOOP('',(#577,#578,#579,#580,#581));
#118=EDGE_LOOP('',(#582,#583,#584,#585));
#119=EDGE_LOOP('',(#586,#587,#588,#589,#590,#591,#592,#593,#594));
#120=EDGE_LOOP('',(#595,#596,#597,#598,#599,#600));
#121=EDGE_LOOP('',(#601,#602,#603,#604,#605));
#122=EDGE_LOOP('',(#606,#607,#608,#609,#610,#611,#612));
#123=EDGE_LOOP('',(#613,#614,#615,#616,#617,#618,#619));
#124=EDGE_LOOP('',(#620,#621,#622));
#125=EDGE_LOOP('',(#623,#624));
#126=EDGE_LOOP('',(#625,#626,#627,#628));
#127=EDGE_LOOP('',(#629,#630,#631,#632));
#128=EDGE_LOOP('',(#633,#634,#635,#636,#637,#638,#639,#640,#641,#642));
#129=EDGE_LOOP('',(#643));
#130=EDGE_LOOP('',(#644,#645,#646,#647,#648,#649));
#131=EDGE_LOOP('',(#650,#651,#652,#653,#654,#655,#656,#657,#658,#659,#660,
#661));
#132=EDGE_LOOP('',(#662,#663,#664,#665,#666));
#133=EDGE_LOOP('',(#667,#668,#669));
#134=EDGE_LOOP('',(#670,#671,#672));
#135=EDGE_LOOP('',(#673,#674,#675));
#136=EDGE_LOOP('',(#676,#677,#678));
#137=EDGE_LOOP('',(#679,#680,#681,#682,#683));
#138=EDGE_LOOP('',(#684,#685,#686,#687,#688));
#139=EDGE_LOOP('',(#689,#690,#691,#692,#693,#694,#695,#696,#697));
#140=EDGE_LOOP('',(#698,#699,#700,#701,#702));
#141=EDGE_LOOP('',(#703,#704,#705,#706,#707,#708,#709,#710,#711));
#142=EDGE_LOOP('',(#712,#713,#714,#715));
#143=EDGE_LOOP('',(#716,#717,#718,#719));
#144=EDGE_LOOP('',(#720,#721,#722,#723));
#145=EDGE_LOOP('',(#724,#725,#726,#727));
#146=EDGE_LOOP('',(#728,#729,#730,#731));
#147=EDGE_LOOP('',(#732,#733,#734,#735,#736,#737));
#148=EDGE_LOOP('',(#738,#739,#740,#741,#742,#743));
#149=EDGE_LOOP('',(#744,#745,#746,#747));
#150=EDGE_LOOP('',(#748,#749,#750,#751,#752,#753));
#151=EDGE_LOOP('',(#754,#755,#756,#757,#758,#759));
#152=EDGE_LOOP('',(#760,#761,#762,#763));
#153=EDGE_LOOP('',(#764,#765,#766,#767));
#154=EDGE_LOOP('',(#768,#769,#770,#771,#772,#773,#774));
#155=B_SPLINE_CURVE_WITH_KNOTS('',3,(#1145,#1146,#1147,#1148,#1149,#1150,
#1151,#1152,#1153,#1154,#1155,#1156),.UNSPECIFIED.,.F.,.F.,(4,2,2,2,2,4),
(1.41556898959361,1.4286944064099,1.53731514552796,1.64390948630456,1.75050382708116,
1.86934055658107),.UNSPECIFIED.);
#156=B_SPLINE_CURVE_WITH_KNOTS('',3,(#1206,#1207,#1208,#1209,#1210,#1211,
#1212,#1213,#1214,#1215),.UNSPECIFIED.,.F.,.F.,(4,2,2,2,4),(1.31238053788472,
1.36438256895906,1.48724816370279,1.59069270937597,1.61537593822596),
 .UNSPECIFIED.);
#157=B_SPLINE_CURVE_WITH_KNOTS('',3,(#1217,#1218,#1219,#1220,#1221,#1222),
 .UNSPECIFIED.,.F.,.F.,(4,2,4),(0.38474525072308,0.402186201620639,0.436434770002676),
 .UNSPECIFIED.);
#158=LINE('',#1143,#246);
#159=LINE('',#1159,#247);
#160=LINE('',#1164,#248);
#161=LINE('',#1167,#249);
#162=LINE('',#1170,#250);
#163=LINE('',#1172,#251);
#164=LINE('',#1175,#252);
#165=LINE('',#1178,#253);
#166=LINE('',#1182,#254);
#167=LINE('',#1186,#255);
#168=LINE('',#1192,#256);
#169=LINE('',#1194,#257);
#170=LINE('',#1196,#258);
#171=LINE('',#1198,#259);
#172=LINE('',#1200,#260);
#173=LINE('',#1201,#261);
#174=LINE('',#1224,#262);
#175=LINE('',#1228,#263);
#176=LINE('',#1231,#264);
#177=LINE('',#1233,#265);
#178=LINE('',#1236,#266);
#179=LINE('',#1238,#267);
#180=LINE('',#1244,#268);
#181=LINE('',#1245,#269);
#182=LINE('',#1248,#270);
#183=LINE('',#1255,#271);
#184=LINE('',#1258,#272);
#185=LINE('',#1260,#273);
#186=LINE('',#1261,#274);
#187=LINE('',#1264,#275);
#188=LINE('',#1266,#276);
#189=LINE('',#1267,#277);
#190=LINE('',#1272,#278);
#191=LINE('',#1273,#279);
#192=LINE('',#1276,#280);
#193=LINE('',#1277,#281);
#194=LINE('',#1283,#282);
#195=LINE('',#1285,#283);
#196=LINE('',#1287,#284);
#197=LINE('',#1293,#285);
#198=LINE('',#1295,#286);
#199=LINE('',#1298,#287);
#200=LINE('',#1302,#288);
#201=LINE('',#1304,#289);
#202=LINE('',#1306,#290);
#203=LINE('',#1308,#291);
#204=LINE('',#1309,#292);
#205=LINE('',#1315,#293);
#206=LINE('',#1316,#294);
#207=LINE('',#1321,#295);
#208=LINE('',#1322,#296);
#209=LINE('',#1325,#297);
#210=LINE('',#1328,#298);
#211=LINE('',#1331,#299);
#212=LINE('',#1333,#300);
#213=LINE('',#1334,#301);
#214=LINE('',#1337,#302);
#215=LINE('',#1339,#303);
#216=LINE('',#1341,#304);
#217=LINE('',#1342,#305);
#218=LINE('',#1346,#306);
#219=LINE('',#1348,#307);
#220=LINE('',#1349,#308);
#221=LINE('',#1350,#309);
#222=LINE('',#1353,#310);
#223=LINE('',#1355,#311);
#224=LINE('',#1356,#312);
#225=LINE('',#1360,#313);
#226=LINE('',#1361,#314);
#227=LINE('',#1362,#315);
#228=LINE('',#1365,#316);
#229=LINE('',#1367,#317);
#230=LINE('',#1368,#318);
#231=LINE('',#1371,#319);
#232=LINE('',#1373,#320);
#233=LINE('',#1374,#321);
#234=LINE('',#1376,#322);
#235=LINE('',#1377,#323);
#236=LINE('',#1381,#324);
#237=LINE('',#1383,#325);
#238=LINE('',#1384,#326);
#239=LINE('',#1386,#327);
#240=LINE('',#1388,#328);
#241=LINE('',#1390,#329);
#242=LINE('',#1393,#330);
#243=LINE('',#1394,#331);
#244=LINE('',#1396,#332);
#245=LINE('',#1399,#333);
#246=VECTOR('',#915,10.);
#247=VECTOR('',#918,10.);
#248=VECTOR('',#923,10.);
#249=VECTOR('',#926,10.);
#250=VECTOR('',#929,10.);
#251=VECTOR('',#930,10.);
#252=VECTOR('',#933,10.);
#253=VECTOR('',#936,10.);
#254=VECTOR('',#939,10.);
#255=VECTOR('',#942,10.);
#256=VECTOR('',#947,10.);
#257=VECTOR('',#948,10.);
#258=VECTOR('',#949,10.);
#259=VECTOR('',#950,10.);
#260=VECTOR('',#951,10.);
#261=VECTOR('',#952,10.);
#262=VECTOR('',#957,10.);
#263=VECTOR('',#962,10.);
#264=VECTOR('',#965,10.);
#265=VECTOR('',#968,10.);
#266=VECTOR('',#971,10.);
#267=VECTOR('',#972,10.);
#268=VECTOR('',#977,10.);
#269=VECTOR('',#978,10.);
#270=VECTOR('',#981,10.);
#271=VECTOR('',#992,10.);
#272=VECTOR('',#995,10.);
#273=VECTOR('',#996,10.);
#274=VECTOR('',#997,10.);
#275=VECTOR('',#1000,10.);
#276=VECTOR('',#1001,10.);
#277=VECTOR('',#1002,10.);
#278=VECTOR('',#1009,10.);
#279=VECTOR('',#1010,10.);
#280=VECTOR('',#1013,10.);
#281=VECTOR('',#1014,10.);
#282=VECTOR('',#1021,10.);
#283=VECTOR('',#1022,10.);
#284=VECTOR('',#1023,10.);
#285=VECTOR('',#1032,1.65000000000001);
#286=VECTOR('',#1033,10.);
#287=VECTOR('',#1036,10.);
#288=VECTOR('',#1039,10.);
#289=VECTOR('',#1040,10.);
#290=VECTOR('',#1041,10.);
#291=VECTOR('',#1042,10.);
#292=VECTOR('',#1043,10.);
#293=VECTOR('',#1048,10.);
#294=VECTOR('',#1049,10.);
#295=VECTOR('',#1054,10.);
#296=VECTOR('',#1055,10.);
#297=VECTOR('',#1060,10.);
#298=VECTOR('',#1065,10.);
#299=VECTOR('',#1068,10.);
#300=VECTOR('',#1069,10.);
#301=VECTOR('',#1070,10.);
#302=VECTOR('',#1073,10.);
#303=VECTOR('',#1074,10.);
#304=VECTOR('',#1075,10.);
#305=VECTOR('',#1076,10.);
#306=VECTOR('',#1079,10.);
#307=VECTOR('',#1080,10.);
#308=VECTOR('',#1081,10.);
#309=VECTOR('',#1082,10.);
#310=VECTOR('',#1085,10.);
#311=VECTOR('',#1086,10.);
#312=VECTOR('',#1087,10.);
#313=VECTOR('',#1090,10.);
#314=VECTOR('',#1091,10.);
#315=VECTOR('',#1092,10.);
#316=VECTOR('',#1095,10.);
#317=VECTOR('',#1096,10.);
#318=VECTOR('',#1097,10.);
#319=VECTOR('',#1100,10.);
#320=VECTOR('',#1101,10.);
#321=VECTOR('',#1102,10.);
#322=VECTOR('',#1105,10.);
#323=VECTOR('',#1106,10.);
#324=VECTOR('',#1113,10.);
#325=VECTOR('',#1114,10.);
#326=VECTOR('',#1115,10.);
#327=VECTOR('',#1118,10.);
#328=VECTOR('',#1121,10.);
#329=VECTOR('',#1124,10.);
#330=VECTOR('',#1127,10.);
#331=VECTOR('',#1128,10.);
#332=VECTOR('',#1131,10.);
#333=VECTOR('',#1136,1.5);
#334=ELLIPSE('',#841,10.485528660052,4.);
#335=ELLIPSE('',#842,10.485528660052,4.);
#336=ELLIPSE('',#844,3.46410161513775,3.);
#337=ELLIPSE('',#847,3.46410161513775,3.);
#338=ELLIPSE('',#852,8.18598822027615,4.);
#339=ELLIPSE('',#855,8.18598822027613,4.);
#340=ELLIPSE('',#863,9.89949493661169,7.);
#341=ELLIPSE('',#864,9.19238815542514,6.5);
#342=ELLIPSE('',#866,9.19238815542511,6.5);
#343=ELLIPSE('',#867,9.89949493661166,7.);
#344=VERTEX_POINT('',#1139);
#345=VERTEX_POINT('',#1140);
#346=VERTEX_POINT('',#1142);
#347=VERTEX_POINT('',#1144);
#348=VERTEX_POINT('',#1157);
#349=VERTEX_POINT('',#1161);
#350=VERTEX_POINT('',#1163);
#351=VERTEX_POINT('',#1165);
#352=VERTEX_POINT('',#1169);
#353=VERTEX_POINT('',#1171);
#354=VERTEX_POINT('',#1173);
#355=VERTEX_POINT('',#1177);
#356=VERTEX_POINT('',#1179);
#357=VERTEX_POINT('',#1181);
#358=VERTEX_POINT('',#1183);
#359=VERTEX_POINT('',#1185);
#360=VERTEX_POINT('',#1187);
#361=VERTEX_POINT('',#1190);
#362=VERTEX_POINT('',#1191);
#363=VERTEX_POINT('',#1193);
#364=VERTEX_POINT('',#1195);
#365=VERTEX_POINT('',#1197);
#366=VERTEX_POINT('',#1199);
#367=VERTEX_POINT('',#1202);
#368=VERTEX_POINT('',#1205);
#369=VERTEX_POINT('',#1216);
#370=VERTEX_POINT('',#1223);
#371=VERTEX_POINT('',#1227);
#372=VERTEX_POINT('',#1229);
#373=VERTEX_POINT('',#1235);
#374=VERTEX_POINT('',#1237);
#375=VERTEX_POINT('',#1239);
#376=VERTEX_POINT('',#1241);
#377=VERTEX_POINT('',#1243);
#378=VERTEX_POINT('',#1247);
#379=VERTEX_POINT('',#1253);
#380=VERTEX_POINT('',#1257);
#381=VERTEX_POINT('',#1259);
#382=VERTEX_POINT('',#1263);
#383=VERTEX_POINT('',#1265);
#384=VERTEX_POINT('',#1271);
#385=VERTEX_POINT('',#1275);
#386=VERTEX_POINT('',#1280);
#387=VERTEX_POINT('',#1282);
#388=VERTEX_POINT('',#1284);
#389=VERTEX_POINT('',#1286);
#390=VERTEX_POINT('',#1289);
#391=VERTEX_POINT('',#1294);
#392=VERTEX_POINT('',#1296);
#393=VERTEX_POINT('',#1300);
#394=VERTEX_POINT('',#1301);
#395=VERTEX_POINT('',#1303);
#396=VERTEX_POINT('',#1305);
#397=VERTEX_POINT('',#1307);
#398=VERTEX_POINT('',#1311);
#399=VERTEX_POINT('',#1312);
#400=VERTEX_POINT('',#1314);
#401=VERTEX_POINT('',#1318);
#402=VERTEX_POINT('',#1320);
#403=VERTEX_POINT('',#1330);
#404=VERTEX_POINT('',#1332);
#405=VERTEX_POINT('',#1336);
#406=VERTEX_POINT('',#1338);
#407=VERTEX_POINT('',#1340);
#408=VERTEX_POINT('',#1344);
#409=VERTEX_POINT('',#1345);
#410=VERTEX_POINT('',#1347);
#411=VERTEX_POINT('',#1352);
#412=VERTEX_POINT('',#1354);
#413=VERTEX_POINT('',#1358);
#414=VERTEX_POINT('',#1359);
#415=VERTEX_POINT('',#1364);
#416=VERTEX_POINT('',#1366);
#417=VERTEX_POINT('',#1370);
#418=VERTEX_POINT('',#1372);
#419=VERTEX_POINT('',#1382);
#420=VERTEX_POINT('',#1392);
#421=EDGE_CURVE('',#344,#345,#334,.T.);
#422=EDGE_CURVE('',#345,#346,#158,.T.);
#423=EDGE_CURVE('',#346,#347,#155,.T.);
#424=EDGE_CURVE('',#347,#348,#335,.T.);
#425=EDGE_CURVE('',#348,#344,#159,.T.);
#426=EDGE_CURVE('',#346,#349,#336,.T.);
#427=EDGE_CURVE('',#349,#350,#160,.T.);
#428=EDGE_CURVE('',#350,#351,#51,.T.);
#429=EDGE_CURVE('',#351,#347,#161,.T.);
#430=EDGE_CURVE('',#345,#352,#162,.T.);
#431=EDGE_CURVE('',#353,#352,#163,.T.);
#432=EDGE_CURVE('',#354,#353,#337,.T.);
#433=EDGE_CURVE('',#354,#349,#164,.T.);
#434=EDGE_CURVE('',#355,#344,#165,.T.);
#435=EDGE_CURVE('',#355,#356,#52,.T.);
#436=EDGE_CURVE('',#357,#356,#166,.T.);
#437=EDGE_CURVE('',#357,#358,#53,.T.);
#438=EDGE_CURVE('',#359,#358,#167,.T.);
#439=EDGE_CURVE('',#360,#359,#54,.T.);
#440=EDGE_CURVE('',#352,#360,#338,.T.);
#441=EDGE_CURVE('',#361,#362,#168,.T.);
#442=EDGE_CURVE('',#362,#363,#169,.T.);
#443=EDGE_CURVE('',#363,#364,#170,.T.);
#444=EDGE_CURVE('',#364,#365,#171,.T.);
#445=EDGE_CURVE('',#365,#366,#172,.T.);
#446=EDGE_CURVE('',#366,#361,#173,.T.);
#447=EDGE_CURVE('',#367,#367,#55,.T.);
#448=EDGE_CURVE('',#368,#353,#156,.T.);
#449=EDGE_CURVE('',#369,#360,#157,.T.);
#450=EDGE_CURVE('',#369,#370,#174,.T.);
#451=EDGE_CURVE('',#370,#368,#339,.T.);
#452=EDGE_CURVE('',#368,#371,#175,.T.);
#453=EDGE_CURVE('',#371,#372,#56,.T.);
#454=EDGE_CURVE('',#372,#354,#176,.T.);
#455=EDGE_CURVE('',#372,#350,#177,.T.);
#456=EDGE_CURVE('',#373,#371,#178,.T.);
#457=EDGE_CURVE('',#374,#373,#179,.T.);
#458=EDGE_CURVE('',#375,#374,#57,.T.);
#459=EDGE_CURVE('',#376,#375,#58,.T.);
#460=EDGE_CURVE('',#377,#376,#180,.T.);
#461=EDGE_CURVE('',#351,#377,#181,.T.);
#462=EDGE_CURVE('',#348,#378,#182,.T.);
#463=EDGE_CURVE('',#378,#357,#340,.T.);
#464=EDGE_CURVE('',#356,#355,#341,.T.);
#465=EDGE_CURVE('',#369,#359,#342,.T.);
#466=EDGE_CURVE('',#358,#379,#343,.T.);
#467=EDGE_CURVE('',#379,#370,#183,.T.);
#468=EDGE_CURVE('',#380,#379,#184,.T.);
#469=EDGE_CURVE('',#381,#380,#185,.T.);
#470=EDGE_CURVE('',#381,#373,#186,.T.);
#471=EDGE_CURVE('',#377,#382,#187,.T.);
#472=EDGE_CURVE('',#383,#382,#188,.T.);
#473=EDGE_CURVE('',#378,#383,#189,.T.);
#474=EDGE_CURVE('',#384,#381,#190,.T.);
#475=EDGE_CURVE('',#374,#384,#191,.T.);
#476=EDGE_CURVE('',#382,#385,#192,.T.);
#477=EDGE_CURVE('',#385,#376,#193,.T.);
#478=EDGE_CURVE('',#383,#380,#59,.F.);
#479=EDGE_CURVE('',#386,#385,#60,.T.);
#480=EDGE_CURVE('',#386,#387,#194,.F.);
#481=EDGE_CURVE('',#387,#388,#195,.T.);
#482=EDGE_CURVE('',#388,#389,#196,.T.);
#483=EDGE_CURVE('',#384,#389,#61,.T.);
#484=EDGE_CURVE('',#390,#390,#62,.F.);
#485=EDGE_CURVE('',#367,#375,#197,.T.);
#486=EDGE_CURVE('',#389,#391,#198,.T.);
#487=EDGE_CURVE('',#391,#392,#63,.T.);
#488=EDGE_CURVE('',#392,#386,#199,.T.);
#489=EDGE_CURVE('',#393,#394,#200,.T.);
#490=EDGE_CURVE('',#395,#394,#201,.T.);
#491=EDGE_CURVE('',#396,#395,#202,.T.);
#492=EDGE_CURVE('',#396,#397,#203,.T.);
#493=EDGE_CURVE('',#397,#393,#204,.T.);
#494=EDGE_CURVE('',#398,#399,#64,.T.);
#495=EDGE_CURVE('',#400,#398,#205,.T.);
#496=EDGE_CURVE('',#399,#400,#206,.T.);
#497=EDGE_CURVE('',#399,#401,#65,.T.);
#498=EDGE_CURVE('',#402,#399,#207,.T.);
#499=EDGE_CURVE('',#401,#402,#208,.T.);
#500=EDGE_CURVE('',#401,#393,#66,.T.);
#501=EDGE_CURVE('',#394,#401,#209,.T.);
#502=EDGE_CURVE('',#393,#398,#67,.T.);
#503=EDGE_CURVE('',#398,#397,#210,.T.);
#504=EDGE_CURVE('',#403,#400,#211,.T.);
#505=EDGE_CURVE('',#404,#403,#212,.T.);
#506=EDGE_CURVE('',#404,#402,#213,.T.);
#507=EDGE_CURVE('',#405,#395,#214,.T.);
#508=EDGE_CURVE('',#406,#405,#215,.T.);
#509=EDGE_CURVE('',#407,#406,#216,.T.);
#510=EDGE_CURVE('',#396,#407,#217,.T.);
#511=EDGE_CURVE('',#408,#409,#218,.T.);
#512=EDGE_CURVE('',#408,#410,#219,.T.);
#513=EDGE_CURVE('',#410,#403,#220,.T.);
#514=EDGE_CURVE('',#409,#407,#221,.F.);
#515=EDGE_CURVE('',#411,#410,#222,.T.);
#516=EDGE_CURVE('',#412,#411,#223,.T.);
#517=EDGE_CURVE('',#404,#412,#224,.T.);
#518=EDGE_CURVE('',#413,#414,#225,.T.);
#519=EDGE_CURVE('',#413,#405,#226,.T.);
#520=EDGE_CURVE('',#414,#412,#227,.F.);
#521=EDGE_CURVE('',#415,#409,#228,.T.);
#522=EDGE_CURVE('',#416,#415,#229,.T.);
#523=EDGE_CURVE('',#408,#416,#230,.T.);
#524=EDGE_CURVE('',#417,#391,#231,.F.);
#525=EDGE_CURVE('',#418,#417,#232,.T.);
#526=EDGE_CURVE('',#392,#418,#233,.F.);
#527=EDGE_CURVE('',#387,#418,#234,.F.);
#528=EDGE_CURVE('',#388,#417,#235,.T.);
#529=EDGE_CURVE('',#361,#406,#236,.T.);
#530=EDGE_CURVE('',#413,#419,#237,.T.);
#531=EDGE_CURVE('',#362,#419,#238,.F.);
#532=EDGE_CURVE('',#366,#415,#239,.T.);
#533=EDGE_CURVE('',#365,#416,#240,.T.);
#534=EDGE_CURVE('',#364,#411,#241,.T.);
#535=EDGE_CURVE('',#363,#420,#242,.T.);
#536=EDGE_CURVE('',#420,#414,#243,.T.);
#537=EDGE_CURVE('',#419,#420,#244,.T.);
#538=EDGE_CURVE('',#390,#393,#245,.T.);
#539=ORIENTED_EDGE('',*,*,#421,.T.);
#540=ORIENTED_EDGE('',*,*,#422,.T.);
#541=ORIENTED_EDGE('',*,*,#423,.T.);
#542=ORIENTED_EDGE('',*,*,#424,.T.);
#543=ORIENTED_EDGE('',*,*,#425,.T.);
#544=ORIENTED_EDGE('',*,*,#423,.F.);
#545=ORIENTED_EDGE('',*,*,#426,.T.);
#546=ORIENTED_EDGE('',*,*,#427,.T.);
#547=ORIENTED_EDGE('',*,*,#428,.T.);
#548=ORIENTED_EDGE('',*,*,#429,.T.);
#549=ORIENTED_EDGE('',*,*,#422,.F.);
#550=ORIENTED_EDGE('',*,*,#430,.T.);
#551=ORIENTED_EDGE('',*,*,#431,.F.);
#552=ORIENTED_EDGE('',*,*,#432,.F.);
#553=ORIENTED_EDGE('',*,*,#433,.T.);
#554=ORIENTED_EDGE('',*,*,#426,.F.);
#555=ORIENTED_EDGE('',*,*,#421,.F.);
#556=ORIENTED_EDGE('',*,*,#434,.F.);
#557=ORIENTED_EDGE('',*,*,#435,.T.);
#558=ORIENTED_EDGE('',*,*,#436,.F.);
#559=ORIENTED_EDGE('',*,*,#437,.T.);
#560=ORIENTED_EDGE('',*,*,#438,.F.);
#561=ORIENTED_EDGE('',*,*,#439,.F.);
#562=ORIENTED_EDGE('',*,*,#440,.F.);
#563=ORIENTED_EDGE('',*,*,#430,.F.);
#564=ORIENTED_EDGE('',*,*,#441,.T.);
#565=ORIENTED_EDGE('',*,*,#442,.T.);
#566=ORIENTED_EDGE('',*,*,#443,.T.);
#567=ORIENTED_EDGE('',*,*,#444,.T.);
#568=ORIENTED_EDGE('',*,*,#445,.T.);
#569=ORIENTED_EDGE('',*,*,#446,.T.);
#570=ORIENTED_EDGE('',*,*,#447,.T.);
#571=ORIENTED_EDGE('',*,*,#448,.T.);
#572=ORIENTED_EDGE('',*,*,#431,.T.);
#573=ORIENTED_EDGE('',*,*,#440,.T.);
#574=ORIENTED_EDGE('',*,*,#449,.F.);
#575=ORIENTED_EDGE('',*,*,#450,.T.);
#576=ORIENTED_EDGE('',*,*,#451,.T.);
#577=ORIENTED_EDGE('',*,*,#448,.F.);
#578=ORIENTED_EDGE('',*,*,#452,.T.);
#579=ORIENTED_EDGE('',*,*,#453,.T.);
#580=ORIENTED_EDGE('',*,*,#454,.T.);
#581=ORIENTED_EDGE('',*,*,#432,.T.);
#582=ORIENTED_EDGE('',*,*,#454,.F.);
#583=ORIENTED_EDGE('',*,*,#455,.T.);
#584=ORIENTED_EDGE('',*,*,#427,.F.);
#585=ORIENTED_EDGE('',*,*,#433,.F.);
#586=ORIENTED_EDGE('',*,*,#453,.F.);
#587=ORIENTED_EDGE('',*,*,#456,.F.);
#588=ORIENTED_EDGE('',*,*,#457,.F.);
#589=ORIENTED_EDGE('',*,*,#458,.F.);
#590=ORIENTED_EDGE('',*,*,#459,.F.);
#591=ORIENTED_EDGE('',*,*,#460,.F.);
#592=ORIENTED_EDGE('',*,*,#461,.F.);
#593=ORIENTED_EDGE('',*,*,#428,.F.);
#594=ORIENTED_EDGE('',*,*,#455,.F.);
#595=ORIENTED_EDGE('',*,*,#425,.F.);
#596=ORIENTED_EDGE('',*,*,#462,.T.);
#597=ORIENTED_EDGE('',*,*,#463,.T.);
#598=ORIENTED_EDGE('',*,*,#436,.T.);
#599=ORIENTED_EDGE('',*,*,#464,.T.);
#600=ORIENTED_EDGE('',*,*,#434,.T.);
#601=ORIENTED_EDGE('',*,*,#450,.F.);
#602=ORIENTED_EDGE('',*,*,#465,.T.);
#603=ORIENTED_EDGE('',*,*,#438,.T.);
#604=ORIENTED_EDGE('',*,*,#466,.T.);
#605=ORIENTED_EDGE('',*,*,#467,.T.);
#606=ORIENTED_EDGE('',*,*,#451,.F.);
#607=ORIENTED_EDGE('',*,*,#467,.F.);
#608=ORIENTED_EDGE('',*,*,#468,.F.);
#609=ORIENTED_EDGE('',*,*,#469,.F.);
#610=ORIENTED_EDGE('',*,*,#470,.T.);
#611=ORIENTED_EDGE('',*,*,#456,.T.);
#612=ORIENTED_EDGE('',*,*,#452,.F.);
#613=ORIENTED_EDGE('',*,*,#424,.F.);
#614=ORIENTED_EDGE('',*,*,#429,.F.);
#615=ORIENTED_EDGE('',*,*,#461,.T.);
#616=ORIENTED_EDGE('',*,*,#471,.T.);
#617=ORIENTED_EDGE('',*,*,#472,.F.);
#618=ORIENTED_EDGE('',*,*,#473,.F.);
#619=ORIENTED_EDGE('',*,*,#462,.F.);
#620=ORIENTED_EDGE('',*,*,#439,.T.);
#621=ORIENTED_EDGE('',*,*,#465,.F.);
#622=ORIENTED_EDGE('',*,*,#449,.T.);
#623=ORIENTED_EDGE('',*,*,#464,.F.);
#624=ORIENTED_EDGE('',*,*,#435,.F.);
#625=ORIENTED_EDGE('',*,*,#474,.F.);
#626=ORIENTED_EDGE('',*,*,#475,.F.);
#627=ORIENTED_EDGE('',*,*,#457,.T.);
#628=ORIENTED_EDGE('',*,*,#470,.F.);
#629=ORIENTED_EDGE('',*,*,#476,.F.);
#630=ORIENTED_EDGE('',*,*,#471,.F.);
#631=ORIENTED_EDGE('',*,*,#460,.T.);
#632=ORIENTED_EDGE('',*,*,#477,.F.);
#633=ORIENTED_EDGE('',*,*,#474,.T.);
#634=ORIENTED_EDGE('',*,*,#469,.T.);
#635=ORIENTED_EDGE('',*,*,#478,.F.);
#636=ORIENTED_EDGE('',*,*,#472,.T.);
#637=ORIENTED_EDGE('',*,*,#476,.T.);
#638=ORIENTED_EDGE('',*,*,#479,.F.);
#639=ORIENTED_EDGE('',*,*,#480,.T.);
#640=ORIENTED_EDGE('',*,*,#481,.T.);
#641=ORIENTED_EDGE('',*,*,#482,.T.);
#642=ORIENTED_EDGE('',*,*,#483,.F.);
#643=ORIENTED_EDGE('',*,*,#484,.F.);
#644=ORIENTED_EDGE('',*,*,#473,.T.);
#645=ORIENTED_EDGE('',*,*,#478,.T.);
#646=ORIENTED_EDGE('',*,*,#468,.T.);
#647=ORIENTED_EDGE('',*,*,#466,.F.);
#648=ORIENTED_EDGE('',*,*,#437,.F.);
#649=ORIENTED_EDGE('',*,*,#463,.F.);
#650=ORIENTED_EDGE('',*,*,#447,.F.);
#651=ORIENTED_EDGE('',*,*,#485,.T.);
#652=ORIENTED_EDGE('',*,*,#458,.T.);
#653=ORIENTED_EDGE('',*,*,#475,.T.);
#654=ORIENTED_EDGE('',*,*,#483,.T.);
#655=ORIENTED_EDGE('',*,*,#486,.T.);
#656=ORIENTED_EDGE('',*,*,#487,.T.);
#657=ORIENTED_EDGE('',*,*,#488,.T.);
#658=ORIENTED_EDGE('',*,*,#479,.T.);
#659=ORIENTED_EDGE('',*,*,#477,.T.);
#660=ORIENTED_EDGE('',*,*,#459,.T.);
#661=ORIENTED_EDGE('',*,*,#485,.F.);
#662=ORIENTED_EDGE('',*,*,#489,.T.);
#663=ORIENTED_EDGE('',*,*,#490,.F.);
#664=ORIENTED_EDGE('',*,*,#491,.F.);
#665=ORIENTED_EDGE('',*,*,#492,.T.);
#666=ORIENTED_EDGE('',*,*,#493,.T.);
#667=ORIENTED_EDGE('',*,*,#494,.F.);
#668=ORIENTED_EDGE('',*,*,#495,.F.);
#669=ORIENTED_EDGE('',*,*,#496,.F.);
#670=ORIENTED_EDGE('',*,*,#497,.F.);
#671=ORIENTED_EDGE('',*,*,#498,.F.);
#672=ORIENTED_EDGE('',*,*,#499,.F.);
#673=ORIENTED_EDGE('',*,*,#500,.F.);
#674=ORIENTED_EDGE('',*,*,#501,.F.);
#675=ORIENTED_EDGE('',*,*,#489,.F.);
#676=ORIENTED_EDGE('',*,*,#502,.F.);
#677=ORIENTED_EDGE('',*,*,#493,.F.);
#678=ORIENTED_EDGE('',*,*,#503,.F.);
#679=ORIENTED_EDGE('',*,*,#496,.T.);
#680=ORIENTED_EDGE('',*,*,#504,.F.);
#681=ORIENTED_EDGE('',*,*,#505,.F.);
#682=ORIENTED_EDGE('',*,*,#506,.T.);
#683=ORIENTED_EDGE('',*,*,#498,.T.);
#684=ORIENTED_EDGE('',*,*,#491,.T.);
#685=ORIENTED_EDGE('',*,*,#507,.F.);
#686=ORIENTED_EDGE('',*,*,#508,.F.);
#687=ORIENTED_EDGE('',*,*,#509,.F.);
#688=ORIENTED_EDGE('',*,*,#510,.F.);
#689=ORIENTED_EDGE('',*,*,#511,.F.);
#690=ORIENTED_EDGE('',*,*,#512,.T.);
#691=ORIENTED_EDGE('',*,*,#513,.T.);
#692=ORIENTED_EDGE('',*,*,#504,.T.);
#693=ORIENTED_EDGE('',*,*,#495,.T.);
#694=ORIENTED_EDGE('',*,*,#503,.T.);
#695=ORIENTED_EDGE('',*,*,#492,.F.);
#696=ORIENTED_EDGE('',*,*,#510,.T.);
#697=ORIENTED_EDGE('',*,*,#514,.F.);
#698=ORIENTED_EDGE('',*,*,#505,.T.);
#699=ORIENTED_EDGE('',*,*,#513,.F.);
#700=ORIENTED_EDGE('',*,*,#515,.F.);
#701=ORIENTED_EDGE('',*,*,#516,.F.);
#702=ORIENTED_EDGE('',*,*,#517,.F.);
#703=ORIENTED_EDGE('',*,*,#518,.F.);
#704=ORIENTED_EDGE('',*,*,#519,.T.);
#705=ORIENTED_EDGE('',*,*,#507,.T.);
#706=ORIENTED_EDGE('',*,*,#490,.T.);
#707=ORIENTED_EDGE('',*,*,#501,.T.);
#708=ORIENTED_EDGE('',*,*,#499,.T.);
#709=ORIENTED_EDGE('',*,*,#506,.F.);
#710=ORIENTED_EDGE('',*,*,#517,.T.);
#711=ORIENTED_EDGE('',*,*,#520,.F.);
#712=ORIENTED_EDGE('',*,*,#511,.T.);
#713=ORIENTED_EDGE('',*,*,#521,.F.);
#714=ORIENTED_EDGE('',*,*,#522,.F.);
#715=ORIENTED_EDGE('',*,*,#523,.F.);
#716=ORIENTED_EDGE('',*,*,#524,.F.);
#717=ORIENTED_EDGE('',*,*,#525,.F.);
#718=ORIENTED_EDGE('',*,*,#526,.F.);
#719=ORIENTED_EDGE('',*,*,#487,.F.);
#720=ORIENTED_EDGE('',*,*,#527,.T.);
#721=ORIENTED_EDGE('',*,*,#525,.T.);
#722=ORIENTED_EDGE('',*,*,#528,.F.);
#723=ORIENTED_EDGE('',*,*,#481,.F.);
#724=ORIENTED_EDGE('',*,*,#527,.F.);
#725=ORIENTED_EDGE('',*,*,#480,.F.);
#726=ORIENTED_EDGE('',*,*,#488,.F.);
#727=ORIENTED_EDGE('',*,*,#526,.T.);
#728=ORIENTED_EDGE('',*,*,#482,.F.);
#729=ORIENTED_EDGE('',*,*,#528,.T.);
#730=ORIENTED_EDGE('',*,*,#524,.T.);
#731=ORIENTED_EDGE('',*,*,#486,.F.);
#732=ORIENTED_EDGE('',*,*,#441,.F.);
#733=ORIENTED_EDGE('',*,*,#529,.T.);
#734=ORIENTED_EDGE('',*,*,#508,.T.);
#735=ORIENTED_EDGE('',*,*,#519,.F.);
#736=ORIENTED_EDGE('',*,*,#530,.T.);
#737=ORIENTED_EDGE('',*,*,#531,.F.);
#738=ORIENTED_EDGE('',*,*,#446,.F.);
#739=ORIENTED_EDGE('',*,*,#532,.T.);
#740=ORIENTED_EDGE('',*,*,#521,.T.);
#741=ORIENTED_EDGE('',*,*,#514,.T.);
#742=ORIENTED_EDGE('',*,*,#509,.T.);
#743=ORIENTED_EDGE('',*,*,#529,.F.);
#744=ORIENTED_EDGE('',*,*,#445,.F.);
#745=ORIENTED_EDGE('',*,*,#533,.T.);
#746=ORIENTED_EDGE('',*,*,#522,.T.);
#747=ORIENTED_EDGE('',*,*,#532,.F.);
#748=ORIENTED_EDGE('',*,*,#444,.F.);
#749=ORIENTED_EDGE('',*,*,#534,.T.);
#750=ORIENTED_EDGE('',*,*,#515,.T.);
#751=ORIENTED_EDGE('',*,*,#512,.F.);
#752=ORIENTED_EDGE('',*,*,#523,.T.);
#753=ORIENTED_EDGE('',*,*,#533,.F.);
#754=ORIENTED_EDGE('',*,*,#443,.F.);
#755=ORIENTED_EDGE('',*,*,#535,.T.);
#756=ORIENTED_EDGE('',*,*,#536,.T.);
#757=ORIENTED_EDGE('',*,*,#520,.T.);
#758=ORIENTED_EDGE('',*,*,#516,.T.);
#759=ORIENTED_EDGE('',*,*,#534,.F.);
#760=ORIENTED_EDGE('',*,*,#442,.F.);
#761=ORIENTED_EDGE('',*,*,#531,.T.);
#762=ORIENTED_EDGE('',*,*,#537,.T.);
#763=ORIENTED_EDGE('',*,*,#535,.F.);
#764=ORIENTED_EDGE('',*,*,#518,.T.);
#765=ORIENTED_EDGE('',*,*,#536,.F.);
#766=ORIENTED_EDGE('',*,*,#537,.F.);
#767=ORIENTED_EDGE('',*,*,#530,.F.);
#768=ORIENTED_EDGE('',*,*,#484,.T.);
#769=ORIENTED_EDGE('',*,*,#538,.T.);
#770=ORIENTED_EDGE('',*,*,#502,.T.);
#771=ORIENTED_EDGE('',*,*,#494,.T.);
#772=ORIENTED_EDGE('',*,*,#497,.T.);
#773=ORIENTED_EDGE('',*,*,#500,.T.);
#774=ORIENTED_EDGE('',*,*,#538,.F.);
#775=CYLINDRICAL_SURFACE('',#840,4.);
#776=CYLINDRICAL_SURFACE('',#843,3.);
#777=CYLINDRICAL_SURFACE('',#854,4.);
#778=CYLINDRICAL_SURFACE('',#856,3.);
#779=CYLINDRICAL_SURFACE('',#870,6.5);
#780=CYLINDRICAL_SURFACE('',#871,6.5);
#781=CYLINDRICAL_SURFACE('',#879,7.);
#782=CYLINDRICAL_SURFACE('',#880,4.5);
#783=CYLINDRICAL_SURFACE('',#908,1.65);
#784=ADVANCED_FACE('',(#68),#775,.T.);
#785=ADVANCED_FACE('',(#69),#776,.T.);
#786=ADVANCED_FACE('',(#70),#18,.T.);
#787=ADVANCED_FACE('',(#71,#15,#16),#19,.T.);
#788=ADVANCED_FACE('',(#72),#777,.T.);
#789=ADVANCED_FACE('',(#73),#778,.T.);
#790=ADVANCED_FACE('',(#74),#20,.T.);
#791=ADVANCED_FACE('',(#75),#21,.T.);
#792=ADVANCED_FACE('',(#76),#22,.T.);
#793=ADVANCED_FACE('',(#77),#23,.T.);
#794=ADVANCED_FACE('',(#78),#24,.T.);
#795=ADVANCED_FACE('',(#79),#25,.T.);
#796=ADVANCED_FACE('',(#80),#779,.T.);
#797=ADVANCED_FACE('',(#81),#780,.T.);
#798=ADVANCED_FACE('',(#82),#26,.F.);
#799=ADVANCED_FACE('',(#83),#27,.F.);
#800=ADVANCED_FACE('',(#84,#17),#28,.F.);
#801=ADVANCED_FACE('',(#85),#781,.T.);
#802=ADVANCED_FACE('',(#86),#782,.F.);
#803=ADVANCED_FACE('',(#87),#29,.F.);
#804=ADVANCED_FACE('',(#88),#30,.F.);
#805=ADVANCED_FACE('',(#89),#31,.F.);
#806=ADVANCED_FACE('',(#90),#32,.F.);
#807=ADVANCED_FACE('',(#91),#33,.F.);
#808=ADVANCED_FACE('',(#92),#34,.F.);
#809=ADVANCED_FACE('',(#93),#35,.T.);
#810=ADVANCED_FACE('',(#94),#36,.F.);
#811=ADVANCED_FACE('',(#95),#37,.T.);
#812=ADVANCED_FACE('',(#96),#38,.F.);
#813=ADVANCED_FACE('',(#97),#39,.T.);
#814=ADVANCED_FACE('',(#98),#40,.F.);
#815=ADVANCED_FACE('',(#99),#41,.T.);
#816=ADVANCED_FACE('',(#100),#42,.F.);
#817=ADVANCED_FACE('',(#101),#43,.F.);
#818=ADVANCED_FACE('',(#102),#44,.F.);
#819=ADVANCED_FACE('',(#103),#45,.F.);
#820=ADVANCED_FACE('',(#104),#46,.F.);
#821=ADVANCED_FACE('',(#105),#47,.F.);
#822=ADVANCED_FACE('',(#106),#48,.F.);
#823=ADVANCED_FACE('',(#107),#49,.F.);
#824=ADVANCED_FACE('',(#108),#50,.T.);
#825=ADVANCED_FACE('',(#109),#783,.F.);
#826=CLOSED_SHELL('',(#784,#785,#786,#787,#788,#789,#790,#791,#792,#793,
#794,#795,#796,#797,#798,#799,#800,#801,#802,#803,#804,#805,#806,#807,#808,
#809,#810,#811,#812,#813,#814,#815,#816,#817,#818,#819,#820,#821,#822,#823,
#824,#825));
#827=DERIVED_UNIT_ELEMENT(#829,1.);
#828=DERIVED_UNIT_ELEMENT(#1405,-3.);
#829=(
MASS_UNIT()
NAMED_UNIT(*)
SI_UNIT(.KILO.,.GRAM.)
);
#830=DERIVED_UNIT((#827,#828));
#831=MEASURE_REPRESENTATION_ITEM('density measure',
POSITIVE_RATIO_MEASURE(7850.),#830);
#832=PROPERTY_DEFINITION_REPRESENTATION(#837,#834);
#833=PROPERTY_DEFINITION_REPRESENTATION(#838,#835);
#834=REPRESENTATION('material name',(#836),#1402);
#835=REPRESENTATION('density',(#831),#1402);
#836=DESCRIPTIVE_REPRESENTATION_ITEM('Steel','Steel');
#837=PROPERTY_DEFINITION('material property','material name',#1412);
#838=PROPERTY_DEFINITION('material property','density of part',#1412);
#839=AXIS2_PLACEMENT_3D('',#1137,#909,#910);
#840=AXIS2_PLACEMENT_3D('',#1138,#911,#912);
#841=AXIS2_PLACEMENT_3D('',#1141,#913,#914);
#842=AXIS2_PLACEMENT_3D('',#1158,#916,#917);
#843=AXIS2_PLACEMENT_3D('',#1160,#919,#920);
#844=AXIS2_PLACEMENT_3D('',#1162,#921,#922);
#845=AXIS2_PLACEMENT_3D('',#1166,#924,#925);
#846=AXIS2_PLACEMENT_3D('',#1168,#927,#928);
#847=AXIS2_PLACEMENT_3D('',#1174,#931,#932);
#848=AXIS2_PLACEMENT_3D('',#1176,#934,#935);
#849=AXIS2_PLACEMENT_3D('',#1180,#937,#938);
#850=AXIS2_PLACEMENT_3D('',#1184,#940,#941);
#851=AXIS2_PLACEMENT_3D('',#1188,#943,#944);
#852=AXIS2_PLACEMENT_3D('',#1189,#945,#946);
#853=AXIS2_PLACEMENT_3D('',#1203,#953,#954);
#854=AXIS2_PLACEMENT_3D('',#1204,#955,#956);
#855=AXIS2_PLACEMENT_3D('',#1225,#958,#959);
#856=AXIS2_PLACEMENT_3D('',#1226,#960,#961);
#857=AXIS2_PLACEMENT_3D('',#1230,#963,#964);
#858=AXIS2_PLACEMENT_3D('',#1232,#966,#967);
#859=AXIS2_PLACEMENT_3D('',#1234,#969,#970);
#860=AXIS2_PLACEMENT_3D('',#1240,#973,#974);
#861=AXIS2_PLACEMENT_3D('',#1242,#975,#976);
#862=AXIS2_PLACEMENT_3D('',#1246,#979,#980);
#863=AXIS2_PLACEMENT_3D('',#1249,#982,#983);
#864=AXIS2_PLACEMENT_3D('',#1250,#984,#985);
#865=AXIS2_PLACEMENT_3D('',#1251,#986,#987);
#866=AXIS2_PLACEMENT_3D('',#1252,#988,#989);
#867=AXIS2_PLACEMENT_3D('',#1254,#990,#991);
#868=AXIS2_PLACEMENT_3D('',#1256,#993,#994);
#869=AXIS2_PLACEMENT_3D('',#1262,#998,#999);
#870=AXIS2_PLACEMENT_3D('',#1268,#1003,#1004);
#871=AXIS2_PLACEMENT_3D('',#1269,#1005,#1006);
#872=AXIS2_PLACEMENT_3D('',#1270,#1007,#1008);
#873=AXIS2_PLACEMENT_3D('',#1274,#1011,#1012);
#874=AXIS2_PLACEMENT_3D('',#1278,#1015,#1016);
#875=AXIS2_PLACEMENT_3D('',#1279,#1017,#1018);
#876=AXIS2_PLACEMENT_3D('',#1281,#1019,#1020);
#877=AXIS2_PLACEMENT_3D('',#1288,#1024,#1025);
#878=AXIS2_PLACEMENT_3D('',#1290,#1026,#1027);
#879=AXIS2_PLACEMENT_3D('',#1291,#1028,#1029);
#880=AXIS2_PLACEMENT_3D('',#1292,#1030,#1031);
#881=AXIS2_PLACEMENT_3D('',#1297,#1034,#1035);
#882=AXIS2_PLACEMENT_3D('',#1299,#1037,#1038);
#883=AXIS2_PLACEMENT_3D('',#1310,#1044,#1045);
#884=AXIS2_PLACEMENT_3D('',#1313,#1046,#1047);
#885=AXIS2_PLACEMENT_3D('',#1317,#1050,#1051);
#886=AXIS2_PLACEMENT_3D('',#1319,#1052,#1053);
#887=AXIS2_PLACEMENT_3D('',#1323,#1056,#1057);
#888=AXIS2_PLACEMENT_3D('',#1324,#1058,#1059);
#889=AXIS2_PLACEMENT_3D('',#1326,#1061,#1062);
#890=AXIS2_PLACEMENT_3D('',#1327,#1063,#1064);
#891=AXIS2_PLACEMENT_3D('',#1329,#1066,#1067);
#892=AXIS2_PLACEMENT_3D('',#1335,#1071,#1072);
#893=AXIS2_PLACEMENT_3D('',#1343,#1077,#1078);
#894=AXIS2_PLACEMENT_3D('',#1351,#1083,#1084);
#895=AXIS2_PLACEMENT_3D('',#1357,#1088,#1089);
#896=AXIS2_PLACEMENT_3D('',#1363,#1093,#1094);
#897=AXIS2_PLACEMENT_3D('',#1369,#1098,#1099);
#898=AXIS2_PLACEMENT_3D('',#1375,#1103,#1104);
#899=AXIS2_PLACEMENT_3D('',#1378,#1107,#1108);
#900=AXIS2_PLACEMENT_3D('',#1379,#1109,#1110);
#901=AXIS2_PLACEMENT_3D('',#1380,#1111,#1112);
#902=AXIS2_PLACEMENT_3D('',#1385,#1116,#1117);
#903=AXIS2_PLACEMENT_3D('',#1387,#1119,#1120);
#904=AXIS2_PLACEMENT_3D('',#1389,#1122,#1123);
#905=AXIS2_PLACEMENT_3D('',#1391,#1125,#1126);
#906=AXIS2_PLACEMENT_3D('',#1395,#1129,#1130);
#907=AXIS2_PLACEMENT_3D('',#1397,#1132,#1133);
#908=AXIS2_PLACEMENT_3D('',#1398,#1134,#1135);
#909=DIRECTION('axis',(0.,0.,1.));
#910=DIRECTION('refdir',(1.,0.,0.));
#911=DIRECTION('center_axis',(-0.381478142846464,-0.381478142846463,-0.841991005332496));
#912=DIRECTION('ref_axis',(-0.910847900185402,0.310401482361755,0.272042317435116));
#913=DIRECTION('center_axis',(1.,5.39260384428426E-33,-2.07805191078644E-48));
#914=DIRECTION('ref_axis',(0.,0.412686369605928,0.910873185652909));
#915=DIRECTION('',(0.381478142846464,0.381478142846463,0.841991005332495));
#916=DIRECTION('center_axis',(5.39260384428426E-33,-1.,0.));
#917=DIRECTION('ref_axis',(-0.412686369605929,4.44430814636782E-18,-0.910873185652909));
#918=DIRECTION('',(-0.381478142846464,-0.381478142846463,-0.841991005332496));
#919=DIRECTION('center_axis',(-1.,-5.39260384428426E-33,-9.29413915653446E-26));
#920=DIRECTION('ref_axis',(0.,0.573576436351045,0.819152044288993));
#921=DIRECTION('center_axis',(0.866025403784441,0.171010071662831,-0.469846310392951));
#922=DIRECTION('ref_axis',(0.499999999999996,-0.296198132726021,0.813797681349377));
#923=DIRECTION('',(1.,5.39260384428426E-33,9.29413915653446E-26));
#924=DIRECTION('center_axis',(-1.,-3.26358129392045E-24,1.98523922881187E-23));
#925=DIRECTION('ref_axis',(0.,0.573576436351045,0.819152044288993));
#926=DIRECTION('',(-1.,-5.39260384428426E-33,-9.29413915653446E-26));
#927=DIRECTION('center_axis',(-0.866025403784441,-0.171010071662831,0.469846310392951));
#928=DIRECTION('ref_axis',(0.484220415495543,-0.0526380228855517,0.873361224101474));
#929=DIRECTION('',(5.06739003929565E-33,-0.93969262078591,-0.342020143325665));
#930=DIRECTION('',(-0.488639843152017,0.488639843152019,-0.722815472557652));
#931=DIRECTION('center_axis',(0.866025403784441,0.171010071662831,-0.469846310392951));
#932=DIRECTION('ref_axis',(0.499999999999996,-0.296198132726021,0.813797681349377));
#933=DIRECTION('',(1.12172823372374E-15,0.939692620785909,0.342020143325666));
#934=DIRECTION('center_axis',(-1.,-5.39260384428426E-33,2.07805191078644E-48));
#935=DIRECTION('ref_axis',(2.07805191078644E-48,1.12061107227292E-80,1.));
#936=DIRECTION('',(2.07805191078644E-48,1.12061107227292E-80,1.));
#937=DIRECTION('center_axis',(-1.,-3.26358129392045E-24,1.98523922881187E-23));
#938=DIRECTION('ref_axis',(3.26358129006997E-24,-1.,8.51402282009417E-15));
#939=DIRECTION('',(2.07805191078644E-48,1.12061107227292E-80,1.));
#940=DIRECTION('center_axis',(-1.,-2.60722920964463E-31,1.98523938658406E-23));
#941=DIRECTION('ref_axis',(2.60723089902124E-31,-1.,8.51402282009417E-15));
#942=DIRECTION('',(-2.07805191078644E-48,-1.12061107227292E-80,-1.));
#943=DIRECTION('center_axis',(1.,5.39260384428426E-33,-2.07805191078644E-48));
#944=DIRECTION('ref_axis',(-8.32667367858835E-17,-1.,8.51402282009417E-15));
#945=DIRECTION('center_axis',(1.,5.39260384428426E-33,-2.07805191078644E-48));
#946=DIRECTION('ref_axis',(0.,-0.560054915630745,0.82845548551376));
#947=DIRECTION('',(-2.69630192214213E-33,0.5,-0.866025403784439));
#948=DIRECTION('',(-5.39260384428426E-33,1.,-2.71654715840785E-16));
#949=DIRECTION('',(-2.69630192214213E-33,0.5,0.866025403784438));
#950=DIRECTION('',(2.69630192214213E-33,-0.5,0.866025403784439));
#951=DIRECTION('',(5.39260384428426E-33,-1.,2.71654715840785E-16));
#952=DIRECTION('',(2.69630192214213E-33,-0.5,-0.866025403784438));
#953=DIRECTION('center_axis',(1.,5.39260384428426E-33,-2.07805191078644E-48));
#954=DIRECTION('ref_axis',(-3.88857614673321E-48,-4.96101109157535E-17,
-1.));
#955=DIRECTION('center_axis',(0.488639843152018,-0.488639843152019,0.722815472557652));
#956=DIRECTION('ref_axis',(-0.844916904846259,-0.471629644661118,0.252350752291024));
#957=DIRECTION('',(0.488639843152018,-0.488639843152019,0.722815472557652));
#958=DIRECTION('center_axis',(-5.39260384428426E-33,1.,0.));
#959=DIRECTION('ref_axis',(-0.560054915630744,0.,-0.82845548551376));
#960=DIRECTION('center_axis',(1.,5.39260384428426E-33,9.29413915653446E-26));
#961=DIRECTION('ref_axis',(0.,-0.819152044288987,0.573576436351053));
#962=DIRECTION('',(1.,5.39260384428426E-33,9.29413915653446E-26));
#963=DIRECTION('center_axis',(-1.,-3.26358129392045E-24,1.98523922881187E-23));
#964=DIRECTION('ref_axis',(0.,-0.819152044288987,0.573576436351053));
#965=DIRECTION('',(-1.,-5.39260384428426E-33,-9.29413915653446E-26));
#966=DIRECTION('center_axis',(-8.73363379751489E-26,-0.342020143325666,
0.939692620785909));
#967=DIRECTION('ref_axis',(2.75127039185502E-25,0.939692620785909,0.342020143325666));
#968=DIRECTION('',(2.26091904218437E-24,0.939692620785909,0.342020143325666));
#969=DIRECTION('center_axis',(1.,3.26358129392045E-24,-1.98523922881187E-23));
#970=DIRECTION('ref_axis',(-3.26358129006997E-24,1.,-8.51402282009417E-15));
#971=DIRECTION('',(1.98523922881187E-23,1.07056086971148E-55,1.));
#972=DIRECTION('',(-3.36029473231625E-24,-1.,-3.01682292635829E-15));
#973=DIRECTION('center_axis',(1.,3.26358129392045E-24,-1.98523922881187E-23));
#974=DIRECTION('ref_axis',(-3.88857614673321E-48,-4.96101109157535E-17,
-1.));
#975=DIRECTION('center_axis',(1.,3.26358129392045E-24,-1.98523922881187E-23));
#976=DIRECTION('ref_axis',(-3.88857614673321E-48,-4.96101109157535E-17,
-1.));
#977=DIRECTION('',(-3.36029476559957E-24,-1.,2.74859978637743E-15));
#978=DIRECTION('',(-1.98523922881187E-23,-1.07056086971148E-55,-1.));
#979=DIRECTION('center_axis',(-0.707106781186546,0.707106781186549,1.46940459777475E-48));
#980=DIRECTION('ref_axis',(2.07805191078644E-48,1.12061107227292E-80,1.));
#981=DIRECTION('',(-2.07805191078644E-48,-1.12061107227292E-80,-1.));
#982=DIRECTION('center_axis',(0.707106781186546,-0.707106781186549,-1.46940459777475E-48));
#983=DIRECTION('ref_axis',(-0.707106781186549,-0.707106781186546,6.2951250938199E-15));
#984=DIRECTION('center_axis',(0.707106781186546,-0.707106781186549,-1.46940459777475E-48));
#985=DIRECTION('ref_axis',(-0.707106781186549,-0.707106781186546,7.52513084936947E-15));
#986=DIRECTION('center_axis',(-0.707106781186548,-0.707106781186547,1.46940459777475E-48));
#987=DIRECTION('ref_axis',(2.07805191078644E-48,1.12061107227292E-80,1.));
#988=DIRECTION('center_axis',(0.707106781186548,0.707106781186547,-1.46940459777475E-48));
#989=DIRECTION('ref_axis',(0.707106781186547,-0.707106781186548,4.51551569316173E-15));
#990=DIRECTION('center_axis',(0.707106781186548,0.707106781186547,-1.46940459777475E-48));
#991=DIRECTION('ref_axis',(0.707106781186547,-0.707106781186548,5.7455214487113E-15));
#992=DIRECTION('',(2.07805191078644E-48,1.12061107227292E-80,1.));
#993=DIRECTION('center_axis',(5.39260384428426E-33,-1.,0.));
#994=DIRECTION('ref_axis',(-5.02851048706096E-34,-2.71167649835487E-66,
1.));
#995=DIRECTION('',(-1.,-5.39260384428426E-33,2.07805191078644E-48));
#996=DIRECTION('',(-2.07805191078644E-48,-1.12061107227292E-80,-1.));
#997=DIRECTION('',(-1.,-5.39260384428426E-33,-3.66373597133684E-15));
#998=DIRECTION('center_axis',(-5.39260384428426E-33,1.,0.));
#999=DIRECTION('ref_axis',(5.02851048706096E-34,2.71167649835487E-66,-1.));
#1000=DIRECTION('',(1.,5.39260384428426E-33,3.66373597133684E-15));
#1001=DIRECTION('',(2.07805191078644E-48,1.12061107227292E-80,1.));
#1002=DIRECTION('',(1.,5.39260384428426E-33,-2.07805191078644E-48));
#1003=DIRECTION('center_axis',(1.,-8.32667367859016E-17,-2.12811928571632E-15));
#1004=DIRECTION('ref_axis',(-8.32667367858835E-17,-1.,8.51402282009417E-15));
#1005=DIRECTION('center_axis',(1.,-8.32667367859016E-17,-2.12811928571632E-15));
#1006=DIRECTION('ref_axis',(8.32667367859027E-17,1.,4.90226056821819E-16));
#1007=DIRECTION('center_axis',(3.66373597133684E-15,3.01682292635829E-15,
-1.));
#1008=DIRECTION('ref_axis',(-3.36029473231625E-24,-1.,-3.01682292635829E-15));
#1009=DIRECTION('',(5.39260384428426E-33,-1.,-3.01682292635829E-15));
#1010=DIRECTION('',(1.,5.39260384428426E-33,-4.15610382157288E-48));
#1011=DIRECTION('center_axis',(3.66373597133684E-15,-2.74859978637743E-15,
-1.));
#1012=DIRECTION('ref_axis',(-3.36029476559957E-24,-1.,2.74859978637743E-15));
#1013=DIRECTION('',(5.39260384428426E-33,-1.,2.74859978637743E-15));
#1014=DIRECTION('',(-1.,-5.39260384428426E-33,4.15610382157288E-48));
#1015=DIRECTION('center_axis',(-1.,-5.39260384428426E-33,2.07805191078644E-48));
#1016=DIRECTION('ref_axis',(2.07805197323564E-48,-1.15805285757424E-23,
1.));
#1017=DIRECTION('center_axis',(1.,5.39260384428426E-33,-2.07805191078644E-48));
#1018=DIRECTION('ref_axis',(-5.39260384428426E-33,1.,-1.65436118307658E-24));
#1019=DIRECTION('center_axis',(1.,5.39260384428426E-33,-2.07805191078644E-48));
#1020=DIRECTION('ref_axis',(-3.88857614673321E-48,-4.96101109157535E-17,
-1.));
#1021=DIRECTION('',(1.81052423594678E-48,4.96101109157535E-17,1.));
#1022=DIRECTION('',(5.39260384428426E-33,-1.,4.96101109157535E-17));
#1023=DIRECTION('',(7.29404952100723E-49,2.50091977387728E-16,1.));
#1024=DIRECTION('center_axis',(1.,5.39260384428426E-33,-2.07805191078644E-48));
#1025=DIRECTION('ref_axis',(-3.88857614673321E-48,-4.96101109157535E-17,
-1.));
#1026=DIRECTION('center_axis',(-1.,1.73640489616461E-29,2.0780511149326E-48));
#1027=DIRECTION('ref_axis',(-5.39260384428426E-33,1.,-1.65436121614173E-24));
#1028=DIRECTION('center_axis',(1.,5.39260384428426E-33,-2.07805191078644E-48));
#1029=DIRECTION('ref_axis',(-2.93240470157984E-48,6.12323383030065E-17,
-1.));
#1030=DIRECTION('center_axis',(1.,5.39260384428426E-33,-4.15610382157288E-48));
#1031=DIRECTION('ref_axis',(-3.88857614673321E-48,-4.96101109157535E-17,
-1.));
#1032=DIRECTION('',(1.,5.39260384428426E-33,-4.15610382157288E-48));
#1033=DIRECTION('',(-1.,-5.39260384428426E-33,4.15610382157288E-48));
#1034=DIRECTION('center_axis',(1.,9.64961605132976E-32,-5.03252214149991E-17));
#1035=DIRECTION('ref_axis',(-3.88857614673321E-48,-4.96101109157535E-17,
-1.));
#1036=DIRECTION('',(1.,5.39260384428426E-33,-4.15610382157288E-48));
#1037=DIRECTION('center_axis',(-3.30871904170131E-24,-1.,-1.25455201782643E-14));
#1038=DIRECTION('ref_axis',(-1.98523392372229E-23,1.25455201782643E-14,
-1.));
#1039=DIRECTION('',(-1.98523392372229E-23,1.25455201782643E-14,-1.));
#1040=DIRECTION('',(1.,-3.30872844332088E-24,7.49400538313251E-16));
#1041=DIRECTION('',(-9.92616961861143E-24,1.25455201782643E-14,-1.));
#1042=DIRECTION('',(1.,-3.30872844332088E-24,7.49400538313251E-16));
#1043=DIRECTION('',(-1.98523392372229E-23,1.25455201782643E-14,-1.));
#1044=DIRECTION('center_axis',(1.,-3.30872844332088E-24,7.49400538313251E-16));
#1045=DIRECTION('ref_axis',(7.49400538313251E-16,1.25455201782643E-14,-1.));
#1046=DIRECTION('center_axis',(-1.,3.30872844332088E-24,-7.49400538313251E-16));
#1047=DIRECTION('ref_axis',(-5.39260384428426E-33,1.,-1.65436121614173E-24));
#1048=DIRECTION('',(8.15800948338029E-13,-1.,-1.25455201782643E-14));
#1049=DIRECTION('',(-8.15800948318177E-13,-1.25455201782643E-14,1.));
#1050=DIRECTION('center_axis',(1.,-3.30872844332088E-24,7.49400538313251E-16));
#1051=DIRECTION('ref_axis',(7.49400538313251E-16,1.25455201782643E-14,-1.));
#1052=DIRECTION('center_axis',(-1.,3.30872844332088E-24,-7.49400538313251E-16));
#1053=DIRECTION('ref_axis',(-5.39260384428426E-33,1.,-1.65436121614173E-24));
#1054=DIRECTION('',(-8.15800948318177E-13,-1.25455201782643E-14,1.));
#1055=DIRECTION('',(-2.39055828799089E-31,1.,1.25455201782643E-14));
#1056=DIRECTION('center_axis',(1.,-3.30872844332088E-24,7.49400538313251E-16));
#1057=DIRECTION('ref_axis',(7.49400538313251E-16,1.25455201782643E-14,-1.));
#1058=DIRECTION('center_axis',(-1.,3.30872844332088E-24,-7.49400538313251E-16));
#1059=DIRECTION('ref_axis',(-5.39260384428426E-33,1.,-1.65436121614173E-24));
#1060=DIRECTION('',(-2.39055828799089E-31,1.,1.25455201782643E-14));
#1061=DIRECTION('center_axis',(1.,-3.30872844332088E-24,7.49400538313251E-16));
#1062=DIRECTION('ref_axis',(7.49400538313251E-16,1.25455201782643E-14,-1.));
#1063=DIRECTION('center_axis',(-1.,3.30872844332088E-24,-7.49400538313251E-16));
#1064=DIRECTION('ref_axis',(-5.39260384428426E-33,1.,-1.65436121614173E-24));
#1065=DIRECTION('',(8.15800948338029E-13,-1.,-1.25455201782643E-14));
#1066=DIRECTION('center_axis',(3.30871904170131E-24,1.,1.25455201782643E-14));
#1067=DIRECTION('ref_axis',(-8.15800948318177E-13,-1.25455201782643E-14,
1.));
#1068=DIRECTION('',(1.,-3.30872844332088E-24,7.49400538313251E-16));
#1069=DIRECTION('',(9.92616961861143E-24,-1.25455201782643E-14,1.));
#1070=DIRECTION('',(1.,-3.30872844332088E-24,7.49400538313251E-16));
#1071=DIRECTION('center_axis',(-1.,-1.22224340483211E-31,9.92616961861143E-24));
#1072=DIRECTION('ref_axis',(1.22224215954346E-31,-1.,-1.25455201782643E-14));
#1073=DIRECTION('',(-1.22224215954346E-31,1.,1.25455201782643E-14));
#1074=DIRECTION('',(-8.59631511310297E-24,0.5,-0.866025403784439));
#1075=DIRECTION('',(-8.59631499087862E-24,-0.5,-0.866025403784438));
#1076=DIRECTION('',(2.58022601586215E-14,-1.,-1.25455201782643E-14));
#1077=DIRECTION('center_axis',(-7.49400538313251E-16,-1.25455201782643E-14,
1.));
#1078=DIRECTION('ref_axis',(2.58022601586215E-14,-1.,-1.25455201782643E-14));
#1079=DIRECTION('',(5.39260384428426E-33,-1.,-1.25455201782643E-14));
#1080=DIRECTION('',(1.,-4.32666602526002E-16,7.49400538313245E-16));
#1081=DIRECTION('',(2.58022601586215E-14,-1.,-1.25455201782643E-14));
#1082=DIRECTION('',(-1.,-4.32666602526009E-16,-7.49400538313256E-16));
#1083=DIRECTION('center_axis',(-1.,-1.22224340483211E-31,9.92616961861143E-24));
#1084=DIRECTION('ref_axis',(1.22224215954346E-31,-1.,-1.25455201782643E-14));
#1085=DIRECTION('',(8.59631511310297E-24,-0.5,0.866025403784439));
#1086=DIRECTION('',(8.59631499087862E-24,0.5,0.866025403784438));
#1087=DIRECTION('',(-1.22224215954346E-31,1.,1.25455201782643E-14));
#1088=DIRECTION('center_axis',(7.49400538313251E-16,1.25455201782643E-14,
-1.));
#1089=DIRECTION('ref_axis',(-1.22224215954346E-31,1.,1.25455201782643E-14));
#1090=DIRECTION('',(-5.39260384428426E-33,1.,1.25455201782643E-14));
#1091=DIRECTION('',(1.,-4.32666602526002E-16,7.49400538313245E-16));
#1092=DIRECTION('',(-1.,-4.32666602526009E-16,-7.49400538313256E-16));
#1093=DIRECTION('center_axis',(-1.,-5.39260384428426E-33,2.07805191078644E-48));
#1094=DIRECTION('ref_axis',(5.39260384428426E-33,-1.,2.71654715840785E-16));
#1095=DIRECTION('',(2.69630192214213E-33,-0.5,-0.866025403784438));
#1096=DIRECTION('',(5.39260384428426E-33,-1.,2.71654715840785E-16));
#1097=DIRECTION('',(2.69630192214213E-33,-0.5,0.866025403784439));
#1098=DIRECTION('center_axis',(-1.,-5.39260384428431E-33,-8.0118685686509E-32));
#1099=DIRECTION('ref_axis',(8.0118685686509E-32,-4.96101109157535E-17,-1.));
#1100=DIRECTION('',(8.0118685686509E-32,-4.96101109157535E-17,-1.));
#1101=DIRECTION('',(5.3926038442843E-33,-1.,4.96101109157535E-17));
#1102=DIRECTION('',(-8.0118685686509E-32,4.96101109157535E-17,1.));
#1103=DIRECTION('center_axis',(-8.0118685686509E-32,4.96101109157535E-17,
1.));
#1104=DIRECTION('ref_axis',(-3.4066587010704E-15,1.,-4.96101109157535E-17));
#1105=DIRECTION('',(1.,5.39260384428431E-33,8.0118685686509E-32));
#1106=DIRECTION('',(-1.,-5.39260384428431E-33,-8.0118685686509E-32));
#1107=DIRECTION('center_axis',(-5.3926038442843E-33,1.,-4.96101109157535E-17));
#1108=DIRECTION('ref_axis',(8.0118685686509E-32,-4.96101109157535E-17,-1.));
#1109=DIRECTION('center_axis',(5.3926038442843E-33,-1.,4.96101109157535E-17));
#1110=DIRECTION('ref_axis',(-8.0118685686509E-32,4.96101109157535E-17,1.));
#1111=DIRECTION('center_axis',(4.67013192169579E-33,-0.866025403784439,
-0.5));
#1112=DIRECTION('ref_axis',(-2.69630192214213E-33,0.5,-0.866025403784439));
#1113=DIRECTION('',(1.,5.39260384428426E-33,0.));
#1114=DIRECTION('',(-2.69630192214213E-33,0.5,-0.866025403784439));
#1115=DIRECTION('',(-1.,-5.39260384428426E-33,-5.26297785035784E-64));
#1116=DIRECTION('center_axis',(4.67013192169579E-33,-0.866025403784438,
0.5));
#1117=DIRECTION('ref_axis',(2.69630192214213E-33,-0.5,-0.866025403784438));
#1118=DIRECTION('',(1.,5.39260384428426E-33,5.26297785035784E-64));
#1119=DIRECTION('center_axis',(-1.46492626496096E-48,2.71654715840785E-16,
1.));
#1120=DIRECTION('ref_axis',(5.39260384428426E-33,-1.,2.71654715840785E-16));
#1121=DIRECTION('',(1.,5.39260384428426E-33,5.26297785035784E-64));
#1122=DIRECTION('center_axis',(-4.67013192169579E-33,0.866025403784439,
0.5));
#1123=DIRECTION('ref_axis',(2.69630192214213E-33,-0.5,0.866025403784439));
#1124=DIRECTION('',(1.,5.39260384428426E-33,0.));
#1125=DIRECTION('center_axis',(-4.67013192169579E-33,0.866025403784438,
-0.5));
#1126=DIRECTION('ref_axis',(-2.69630192214213E-33,0.5,0.866025403784438));
#1127=DIRECTION('',(1.,5.39260384428426E-33,5.26297785035784E-64));
#1128=DIRECTION('',(-2.69630192214213E-33,0.5,0.866025403784438));
#1129=DIRECTION('center_axis',(1.46492626496096E-48,-2.71654715840785E-16,
-1.));
#1130=DIRECTION('ref_axis',(-5.39260384428426E-33,1.,-2.71654715840785E-16));
#1131=DIRECTION('',(-5.39260384428426E-33,1.,-2.71654715840785E-16));
#1132=DIRECTION('center_axis',(-1.,-5.39260384428426E-33,2.07805191078644E-48));
#1133=DIRECTION('ref_axis',(5.39260384428426E-33,-1.,2.71654715840785E-16));
#1134=DIRECTION('center_axis',(1.,5.39260384428426E-33,-2.07805191078644E-48));
#1135=DIRECTION('ref_axis',(-5.39260384428426E-33,1.,-1.65436121614173E-24));
#1136=DIRECTION('',(-1.,-5.39260384428426E-33,2.07805191078644E-48));
#1137=CARTESIAN_POINT('',(0.,0.,0.));
#1138=CARTESIAN_POINT('Origin',(-12.111488135134,75.7194625686154,97.5250937094812));
#1139=CARTESIAN_POINT('',(-14.499787183709,78.9880177695328,98.4965356866421));
#1140=CARTESIAN_POINT('',(-14.499787183709,76.1112248485268,101.778969079899));
#1141=CARTESIAN_POINT('Origin',(-14.499787183709,73.3311635200404,92.2536873270882));
#1142=CARTESIAN_POINT('',(-11.6073529796212,79.0036590526146,108.163092597922));
#1143=CARTESIAN_POINT('',(-15.5755897502718,75.0354222819641,99.404478951053));
#1144=CARTESIAN_POINT('',(-11.4996832609791,81.9880177695328,105.163133373156));
#1145=CARTESIAN_POINT('Ctrl Pts',(-11.6073529796212,79.0036590526146,108.163092597922));
#1146=CARTESIAN_POINT('Ctrl Pts',(-11.6164950068857,79.0493020728488,108.162854622888));
#1147=CARTESIAN_POINT('Ctrl Pts',(-11.6253591282476,79.0950157260331,108.161573870594));
#1148=CARTESIAN_POINT('Ctrl Pts',(-11.7046550716302,79.5189178523491,108.139969437452));
#1149=CARTESIAN_POINT('Ctrl Pts',(-11.7515602767325,79.896646759995,108.045006768875));
#1150=CARTESIAN_POINT('Ctrl Pts',(-11.7854837561478,80.5493612399116,107.749283529517));
#1151=CARTESIAN_POINT('Ctrl Pts',(-11.7756548243901,80.8671623875829,107.531810016715));
#1152=CARTESIAN_POINT('Ctrl Pts',(-11.7105574806708,81.3943028859655,106.993872402141));
#1153=CARTESIAN_POINT('Ctrl Pts',(-11.6562759306075,81.603865396453,106.673508038474));
#1154=CARTESIAN_POINT('Ctrl Pts',(-11.5535818161547,81.8984250758517,105.989880998198));
#1155=CARTESIAN_POINT('Ctrl Pts',(-11.497791871854,81.9880177695328,105.574191652451));
#1156=CARTESIAN_POINT('Ctrl Pts',(-11.4996832609791,81.9880177695328,105.163133373156));
#1157=CARTESIAN_POINT('',(-11.499787183709,81.9880177695328,105.118076300082));
#1158=CARTESIAN_POINT('Origin',(-5.84293293421661,81.9880177695328,111.360924659636));
#1159=CARTESIAN_POINT('',(-14.9399152598802,78.5478896933616,97.5250937094812));
#1160=CARTESIAN_POINT('Origin',(9.65960537105408,78.9880177695328,105.163133373156));
#1161=CARTESIAN_POINT('',(-11.4997868003294,77.9619573395558,107.982211235513));
#1162=CARTESIAN_POINT('Origin',(-13.2318376078983,78.9880177695328,105.163133373156));
#1163=CARTESIAN_POINT('',(-7.64992282312775,77.9619573395558,107.982211235513));
#1164=CARTESIAN_POINT('',(9.65960537105408,77.9619573395558,107.982211235513));
#1165=CARTESIAN_POINT('',(-7.64992282312775,81.9880177695328,105.163133373156));
#1166=CARTESIAN_POINT('Origin',(-7.64992282312775,78.9880177695328,105.163133373156));
#1167=CARTESIAN_POINT('',(9.65960537105408,81.9880177695328,105.163133373156));
#1168=CARTESIAN_POINT('Origin',(-12.5604469405716,70.5672347968268,103.3357329938));
#1169=CARTESIAN_POINT('',(-14.499787183709,72.4967301172361,100.463400585797));
#1170=CARTESIAN_POINT('',(-14.499787183709,70.9816145389947,99.9119436138444));
#1171=CARTESIAN_POINT('',(-11.5225895390346,69.5195324725617,104.867389643569));
#1172=CARTESIAN_POINT('',(-16.6072225428978,74.6041654764249,97.3459984615443));
#1173=CARTESIAN_POINT('',(-11.4997868003294,69.9619573395558,105.070449361384));
#1174=CARTESIAN_POINT('Origin',(-13.2318376078983,70.9880177695328,102.251371499026));
#1175=CARTESIAN_POINT('',(-11.4997868003294,70.6733818661412,105.329386712988));
#1176=CARTESIAN_POINT('Origin',(-14.499787183709,74.9880177695328,86.6191508094406));
#1177=CARTESIAN_POINT('',(-14.4997871837088,78.988017769533,98.3562407483659));
#1178=CARTESIAN_POINT('',(-14.499787183709,78.9880177695328,92.4941508094406));
#1179=CARTESIAN_POINT('',(-14.4997871837088,78.988017769533,88.1092899824068));
#1180=CARTESIAN_POINT('Origin',(-14.4997871837088,74.9880177695327,93.2327653653864));
#1181=CARTESIAN_POINT('',(-14.4997871837087,78.9880177695328,79.1137134559787));
#1182=CARTESIAN_POINT('',(-14.499787183709,78.9880177695328,92.4941508094406));
#1183=CARTESIAN_POINT('',(-14.4997871837087,70.9880177695328,79.1137134559787));
#1184=CARTESIAN_POINT('Origin',(-14.4997871837087,74.9880177695328,73.3691508094407));
#1185=CARTESIAN_POINT('',(-14.4997871837088,70.9880177695325,88.1092899824067));
#1186=CARTESIAN_POINT('',(-14.499787183709,70.9880177695328,79.994150716964));
#1187=CARTESIAN_POINT('',(-14.499787183709,71.0413870148922,98.3974633901043));
#1188=CARTESIAN_POINT('Origin',(-14.499787183709,74.9880177695327,93.2327653653864));
#1189=CARTESIAN_POINT('Origin',(-14.499787183709,76.6448720190252,93.4597785857535));
#1190=CARTESIAN_POINT('',(-14.499787183709,71.6971212351519,73.3691508094406));
#1191=CARTESIAN_POINT('',(-14.499787183709,73.3425695023423,70.5191508094406));
#1192=CARTESIAN_POINT('',(-14.499787183709,69.2469910302784,77.6129008094406));
#1193=CARTESIAN_POINT('',(-14.499787183709,76.6334660367232,70.5191508094406));
#1194=CARTESIAN_POINT('',(-14.499787183709,74.1797273926673,70.5191508094406));
#1195=CARTESIAN_POINT('',(-14.499787183709,78.2789143039137,73.3691508094406));
#1196=CARTESIAN_POINT('',(-14.499787183709,79.9207541319216,76.2129008094406));
#1197=CARTESIAN_POINT('',(-14.499787183709,76.6334660367232,76.2191508094406));
#1198=CARTESIAN_POINT('',(-14.499787183709,74.9916262087152,79.0629008094407));
#1199=CARTESIAN_POINT('',(-14.499787183709,73.3425695023423,76.2191508094406));
#1200=CARTESIAN_POINT('',(-14.499787183709,75.7963081463983,76.2191508094406));
#1201=CARTESIAN_POINT('',(-14.499787183709,75.7926997072158,80.4629008094406));
#1202=CARTESIAN_POINT('',(-14.499787183709,74.9880177695328,97.7327653653863));
#1203=CARTESIAN_POINT('Origin',(-14.499787183709,74.9880177695328,93.2327653653864));
#1204=CARTESIAN_POINT('Origin',(-13.14312092776,75.2882057630762,95.4666132199725));
#1205=CARTESIAN_POINT('',(-11.4973988160627,67.9880177695328,102.251371499026));
#1206=CARTESIAN_POINT('Ctrl Pts',(-11.4973988160627,67.9880177695328,102.251371499026));
#1207=CARTESIAN_POINT('Ctrl Pts',(-11.4923875431023,67.9880177695328,102.431484011732));
#1208=CARTESIAN_POINT('Ctrl Pts',(-11.4951960138602,68.0045020621113,102.610044715415));
#1209=CARTESIAN_POINT('Ctrl Pts',(-11.5149012864747,68.1072649878238,103.183468352286));
#1210=CARTESIAN_POINT('Ctrl Pts',(-11.5491429537914,68.2954533020662,103.636180111079));
#1211=CARTESIAN_POINT('Ctrl Pts',(-11.5705064237083,68.7278362125699,104.253965182773));
#1212=CARTESIAN_POINT('Ctrl Pts',(-11.5661185219798,69.022849546566,104.544069066848));
#1213=CARTESIAN_POINT('Ctrl Pts',(-11.5370914130702,69.3758585997081,104.782711285931));
#1214=CARTESIAN_POINT('Ctrl Pts',(-11.5304057812943,69.4465389938283,104.826415214352));
#1215=CARTESIAN_POINT('Ctrl Pts',(-11.5225895390346,69.5195324725617,104.867389643569));
#1216=CARTESIAN_POINT('',(-14.1914432231783,70.6796738090021,98.0998150176664));
#1217=CARTESIAN_POINT('Ctrl Pts',(-14.191443223178,70.6796738090018,98.0998150176661));
#1218=CARTESIAN_POINT('Ctrl Pts',(-14.2292719521607,70.7175025379845,98.1333012542347));
#1219=CARTESIAN_POINT('Ctrl Pts',(-14.2661957278894,70.7564582603551,98.1669960983476));
#1220=CARTESIAN_POINT('Ctrl Pts',(-14.3724311978054,70.8747837560626,98.2668321419795));
#1221=CARTESIAN_POINT('Ctrl Pts',(-14.4386542403685,70.9569798510548,98.3329632185321));
#1222=CARTESIAN_POINT('Ctrl Pts',(-14.499787183709,71.0413870148922,98.3974633901043));
#1223=CARTESIAN_POINT('',(-11.499787183709,67.9880177695328,102.081419586753));
#1224=CARTESIAN_POINT('',(-15.9715480525062,72.45977863833,95.4666132199725));
#1225=CARTESIAN_POINT('Origin',(-5.84293293421661,67.9880177695328,106.265341379909));
#1226=CARTESIAN_POINT('Origin',(9.65960537105408,70.9880177695328,102.251371499026));
#1227=CARTESIAN_POINT('',(-7.64992282312775,67.9880177695328,102.251371499026));
#1228=CARTESIAN_POINT('',(9.65960537105408,67.9880177695328,102.251371499026));
#1229=CARTESIAN_POINT('',(-7.64992282312775,69.9619573395558,105.070449361384));
#1230=CARTESIAN_POINT('Origin',(-7.64992282312775,70.9880177695328,102.251371499026));
#1231=CARTESIAN_POINT('',(9.65960537105408,69.9619573395558,105.070449361384));
#1232=CARTESIAN_POINT('Origin',(9.65960537105409,71.4078600414488,105.596714906518));
#1233=CARTESIAN_POINT('',(-7.64992282312775,70.9536961651715,105.431412774074));
#1234=CARTESIAN_POINT('Origin',(-7.64992282312775,74.9880177695324,87.3437885470248));
#1235=CARTESIAN_POINT('',(-7.64992282312775,67.988017769532,91.2323035384994));
#1236=CARTESIAN_POINT('',(-7.64992282312775,67.9880177695328,80.356469585756));
#1237=CARTESIAN_POINT('',(-7.64992282312775,70.9571180586533,91.2323035384994));
#1238=CARTESIAN_POINT('',(-7.64992282312775,71.0690698943456,91.2323035384994));
#1239=CARTESIAN_POINT('',(-7.64992282312775,74.9880177695328,97.7327653653863));
#1240=CARTESIAN_POINT('Origin',(-7.64992282312775,74.9880177695328,93.2327653653864));
#1241=CARTESIAN_POINT('',(-7.64992282312775,79.0189174804122,91.2323035384994));
#1242=CARTESIAN_POINT('Origin',(-7.64992282312775,74.9880177695328,93.2327653653864));
#1243=CARTESIAN_POINT('',(-7.64992282312775,81.9880177695318,91.2323035384994));
#1244=CARTESIAN_POINT('',(-7.64992282312775,81.9880177695318,91.2323035384994));
#1245=CARTESIAN_POINT('',(-7.64992282312775,81.9880177695328,92.8564696782327));
#1246=CARTESIAN_POINT('Origin',(-12.999787183709,80.4880177695328,92.4941508094406));
#1247=CARTESIAN_POINT('',(-11.499787183709,81.9880177695328,73.3691508094407));
#1248=CARTESIAN_POINT('',(-11.499787183709,81.9880177695328,92.4941508094406));
#1249=CARTESIAN_POINT('Origin',(-18.499787183709,74.9880177695328,73.3691508094407));
#1250=CARTESIAN_POINT('Origin',(-18.4997871837091,74.9880177695327,93.2327653653864));
#1251=CARTESIAN_POINT('Origin',(-12.999787183709,69.4880177695328,79.994150716964));
#1252=CARTESIAN_POINT('Origin',(-18.4997871837089,74.9880177695327,93.2327653653864));
#1253=CARTESIAN_POINT('',(-11.499787183709,67.9880177695328,73.3691508094407));
#1254=CARTESIAN_POINT('Origin',(-18.499787183709,74.9880177695328,73.3691508094407));
#1255=CARTESIAN_POINT('',(-11.499787183709,67.9880177695328,79.994150716964));
#1256=CARTESIAN_POINT('Origin',(9.65960537105408,67.9880177695328,73.3691506244873));
#1257=CARTESIAN_POINT('',(-6.64992282312796,67.9880177695328,73.3691508094407));
#1258=CARTESIAN_POINT('',(-6.65960537105413,67.9880177695328,73.3691508094407));
#1259=CARTESIAN_POINT('',(-6.64992282312775,67.988017769532,91.2323035384994));
#1260=CARTESIAN_POINT('',(-6.64992282312796,67.9880177695328,80.0887270814932));
#1261=CARTESIAN_POINT('',(1.50484127396313,67.9880177695328,91.2323035384994));
#1262=CARTESIAN_POINT('Origin',(9.65960537105408,81.9880177695328,98.3691508094406));
#1263=CARTESIAN_POINT('',(-6.64992282312775,81.9880177695318,91.2323035384994));
#1264=CARTESIAN_POINT('',(1.50484127396318,81.9880177695328,91.2323035384994));
#1265=CARTESIAN_POINT('',(-6.64992282312796,81.9880177695328,73.3691508094407));
#1266=CARTESIAN_POINT('',(-6.64992282312796,81.9880177695328,92.5887271739699));
#1267=CARTESIAN_POINT('',(-5.80960537105413,81.9880177695328,73.3691508094407));
#1268=CARTESIAN_POINT('Origin',(-14.4997871837088,74.9880177695327,93.2327653653864));
#1269=CARTESIAN_POINT('Origin',(-14.4997871837088,74.9880177695327,93.2327653653864));
#1270=CARTESIAN_POINT('Origin',(-6.64992282312775,70.9571180586533,91.2323035384994));
#1271=CARTESIAN_POINT('',(-6.64992282312775,70.9571180586533,91.2323035384994));
#1272=CARTESIAN_POINT('',(-6.64992282312796,69.922567914093,91.2323035384994));
#1273=CARTESIAN_POINT('',(-14.499787183709,70.9571180586533,91.2323035384993));
#1274=CARTESIAN_POINT('Origin',(-6.64992282312775,81.9880177695318,91.2323035384994));
#1275=CARTESIAN_POINT('',(-6.64992282312775,79.0189174804122,91.2323035384994));
#1276=CARTESIAN_POINT('',(-6.64992282312796,75.4380177695323,91.2323035384994));
#1277=CARTESIAN_POINT('',(-14.499787183709,79.0189174804122,91.2323035384994));
#1278=CARTESIAN_POINT('Origin',(-6.64992282312796,68.8880177695326,86.8083035384992));
#1279=CARTESIAN_POINT('Origin',(-6.64992282312796,74.9880177695328,73.3691508094407));
#1280=CARTESIAN_POINT('',(-6.64992282312796,78.7380176503235,90.7452965929051));
#1281=CARTESIAN_POINT('Origin',(-6.64992282312796,74.9880177695328,93.2327653653864));
#1282=CARTESIAN_POINT('',(-6.64992282312796,78.7380176503235,81.4191508094406));
#1283=CARTESIAN_POINT('',(-6.64992282312796,78.7380176503235,87.5205344519428));
#1284=CARTESIAN_POINT('',(-6.64992282312796,71.2380176503235,81.4191508094406));
#1285=CARTESIAN_POINT('',(-6.64992282312796,68.8880177695327,81.4191508094406));
#1286=CARTESIAN_POINT('',(-6.64992282312796,71.2380176503235,90.7452969523345));
#1287=CARTESIAN_POINT('',(-6.64992282312796,71.2380176503235,87.5705344519428));
#1288=CARTESIAN_POINT('Origin',(-6.64992282312796,74.9880177695328,93.2327653653864));
#1289=CARTESIAN_POINT('',(-6.64992264893224,73.3380177695328,73.3691508094407));
#1290=CARTESIAN_POINT('Origin',(-6.64992264893224,74.9880177695328,73.3691508094407));
#1291=CARTESIAN_POINT('Origin',(-5.80960537105413,74.9880177695328,73.3691508094407));
#1292=CARTESIAN_POINT('Origin',(-14.499787183709,74.9880177695328,93.2327653653864));
#1293=CARTESIAN_POINT('',(-14.499787183709,74.9880177695328,97.7327653653863));
#1294=CARTESIAN_POINT('',(-8.44992282312796,71.2380176503235,90.7452969523345));
#1295=CARTESIAN_POINT('',(-14.499787183709,71.2380176503235,90.7452969523345));
#1296=CARTESIAN_POINT('',(-8.44992282312796,78.7380176503235,90.7452965929051));
#1297=CARTESIAN_POINT('Origin',(-8.44992282312796,74.9880177695328,93.2327653653864));
#1298=CARTESIAN_POINT('',(-14.499787183709,78.7380176503235,90.7452965929051));
#1299=CARTESIAN_POINT('Origin',(-11.6997871837075,73.3380177695328,75.0191508094406));
#1300=CARTESIAN_POINT('',(-11.3997871837075,73.3380177695328,73.3691508094406));
#1301=CARTESIAN_POINT('',(-11.3997871837075,73.3380177695328,71.7191508094406));
#1302=CARTESIAN_POINT('',(-11.3997871837075,73.3380177695328,75.0191508094406));
#1303=CARTESIAN_POINT('',(-11.6997871837075,73.3380177695328,71.7191508094406));
#1304=CARTESIAN_POINT('',(-11.6997871837075,73.3380177695328,71.7191508094406));
#1305=CARTESIAN_POINT('',(-11.6997871837075,73.3380177695328,75.0191508094406));
#1306=CARTESIAN_POINT('',(-11.6997871837089,73.3380177695328,74.1941508094406));
#1307=CARTESIAN_POINT('',(-11.3997871837075,73.3380177695328,75.0191508094406));
#1308=CARTESIAN_POINT('',(-11.6997871837075,73.3380177695328,75.0191508094406));
#1309=CARTESIAN_POINT('',(-11.3997871837075,73.3380177695328,75.0191508094406));
#1310=CARTESIAN_POINT('Origin',(-11.3997871837075,74.1964370158018,73.3691508094406));
#1311=CARTESIAN_POINT('',(-11.3997871837088,74.9880177695328,75.0191508094406));
#1312=CARTESIAN_POINT('',(-11.3997871837088,76.6380177695328,73.3691508094407));
#1313=CARTESIAN_POINT('Origin',(-11.3997871837075,74.9880177695328,73.3691508094407));
#1314=CARTESIAN_POINT('',(-11.3997871837102,76.6380177695328,75.0191508094407));
#1315=CARTESIAN_POINT('',(-11.3997871837102,76.6380177695328,75.0191508094407));
#1316=CARTESIAN_POINT('',(-11.3997871837075,76.6380177695328,71.7191508094407));
#1317=CARTESIAN_POINT('Origin',(-11.3997871837075,74.1964370158018,73.3691508094406));
#1318=CARTESIAN_POINT('',(-11.3997871837075,74.9880177695328,71.7191508094406));
#1319=CARTESIAN_POINT('Origin',(-11.3997871837075,74.9880177695328,73.3691508094407));
#1320=CARTESIAN_POINT('',(-11.3997871837075,76.6380177695328,71.7191508094407));
#1321=CARTESIAN_POINT('',(-11.3997871837075,76.6380177695328,71.7191508094407));
#1322=CARTESIAN_POINT('',(-11.3997871837075,73.3380177695328,71.7191508094406));
#1323=CARTESIAN_POINT('Origin',(-11.3997871837075,74.1964370158018,73.3691508094406));
#1324=CARTESIAN_POINT('Origin',(-11.3997871837075,74.9880177695328,73.3691508094407));
#1325=CARTESIAN_POINT('',(-11.3997871837075,73.3380177695328,71.7191508094406));
#1326=CARTESIAN_POINT('Origin',(-11.3997871837075,74.1964370158018,73.3691508094406));
#1327=CARTESIAN_POINT('Origin',(-11.3997871837075,74.9880177695328,73.3691508094407));
#1328=CARTESIAN_POINT('',(-11.3997871837102,76.6380177695328,75.0191508094407));
#1329=CARTESIAN_POINT('Origin',(-11.6997871837075,76.6380177695328,71.7191508094407));
#1330=CARTESIAN_POINT('',(-11.6997871837102,76.6380177695328,75.0191508094407));
#1331=CARTESIAN_POINT('',(-11.6997871837102,76.6380177695328,75.0191508094407));
#1332=CARTESIAN_POINT('',(-11.6997871837075,76.6380177695328,71.7191508094407));
#1333=CARTESIAN_POINT('',(-11.6997871837089,76.6380177695328,72.5441508094407));
#1334=CARTESIAN_POINT('',(-11.6997871837075,76.6380177695328,71.7191508094407));
#1335=CARTESIAN_POINT('Origin',(-11.6997871837089,74.9880177695328,73.3691508094407));
#1336=CARTESIAN_POINT('',(-11.6997871837088,72.6497491793148,71.7191508094406));
#1337=CARTESIAN_POINT('',(-11.6997871837088,71.0310943253207,71.7191508094406));
#1338=CARTESIAN_POINT('',(-11.6997871837089,71.6971212351519,73.3691508094407));
#1339=CARTESIAN_POINT('',(-11.6997871837089,72.1157001803144,72.6441508094406));
#1340=CARTESIAN_POINT('',(-11.6997871837089,72.6497491793148,75.0191508094406));
#1341=CARTESIAN_POINT('',(-11.6997871837089,72.9239905571799,75.4941508094407));
#1342=CARTESIAN_POINT('',(-11.699787183709,78.9449412137449,75.0191508094407));
#1343=CARTESIAN_POINT('Origin',(-11.999787183709,77.2685513328318,75.0191508094407));
#1344=CARTESIAN_POINT('',(-11.999787183709,77.3262863597508,75.0191508094407));
#1345=CARTESIAN_POINT('',(-11.999787183709,72.6497491793148,75.0191508094406));
#1346=CARTESIAN_POINT('',(-11.999787183709,76.1282845511823,75.0191508094407));
#1347=CARTESIAN_POINT('',(-11.699787183709,77.3262863597508,75.0191508094407));
#1348=CARTESIAN_POINT('',(-13.249787183709,77.3262863597508,75.0191508094407));
#1349=CARTESIAN_POINT('',(-11.699787183709,78.9449412137449,75.0191508094407));
#1350=CARTESIAN_POINT('',(-13.249787183709,72.6497491793148,75.0191508094406));
#1351=CARTESIAN_POINT('Origin',(-11.6997871837089,74.9880177695328,73.3691508094407));
#1352=CARTESIAN_POINT('',(-11.6997871837089,78.2789143039137,73.3691508094406));
#1353=CARTESIAN_POINT('',(-11.6997871837089,77.8603353587512,74.0941508094407));
#1354=CARTESIAN_POINT('',(-11.6997871837088,77.3262863597508,71.7191508094407));
#1355=CARTESIAN_POINT('',(-11.6997871837089,77.0520449818857,71.2441508094406));
#1356=CARTESIAN_POINT('',(-11.6997871837088,71.0310943253207,71.7191508094406));
#1357=CARTESIAN_POINT('Origin',(-11.9997871837088,72.7074842062338,71.7191508094406));
#1358=CARTESIAN_POINT('',(-11.999787183709,72.6497491793148,71.7191508094406));
#1359=CARTESIAN_POINT('',(-11.999787183709,77.3262863597508,71.7191508094407));
#1360=CARTESIAN_POINT('',(-11.999787183709,73.8477509878833,71.7191508094406));
#1361=CARTESIAN_POINT('',(-13.2497871837089,72.6497491793148,71.7191508094406));
#1362=CARTESIAN_POINT('',(-13.2497871837089,77.3262863597508,71.7191508094407));
#1363=CARTESIAN_POINT('Origin',(-11.999787183709,74.9880177695328,78.5009580874135));
#1364=CARTESIAN_POINT('',(-11.999787183709,73.3425695023423,76.2191508094406));
#1365=CARTESIAN_POINT('',(-11.999787183709,74.0350594246925,77.4185785386805));
#1366=CARTESIAN_POINT('',(-11.999787183709,76.6334660367232,76.2191508094406));
#1367=CARTESIAN_POINT('',(-11.999787183709,75.7963081463983,76.2191508094406));
#1368=CARTESIAN_POINT('',(-11.999787183709,76.7492664912386,76.0185785386805));
#1369=CARTESIAN_POINT('Origin',(-8.44992282312796,74.9880177862541,84.0189962605263));
#1370=CARTESIAN_POINT('',(-8.44992282312796,71.2380176503235,81.4191508094406));
#1371=CARTESIAN_POINT('',(-8.44992282312796,71.2380176503235,81.8190735349835));
#1372=CARTESIAN_POINT('',(-8.44992282312796,78.7380176503235,81.4191508094406));
#1373=CARTESIAN_POINT('',(-8.44992282312796,71.9380177778934,81.4191508094407));
#1374=CARTESIAN_POINT('',(-8.44992282312796,78.7380176503235,86.1258808129563));
#1375=CARTESIAN_POINT('Origin',(10.6499226489322,68.8880177695328,81.4191508094407));
#1376=CARTESIAN_POINT('',(1.99999991290212,78.7380176503235,81.4191508094407));
#1377=CARTESIAN_POINT('',(1.99999991290212,71.2380176503235,81.4191508094407));
#1378=CARTESIAN_POINT('Origin',(-6.64992282312796,78.7380176503235,88.2327653653864));
#1379=CARTESIAN_POINT('Origin',(-6.64992282312796,71.2380176503235,79.6191508094407));
#1380=CARTESIAN_POINT('Origin',(-14.499787183709,71.7115549918817,73.3441508094406));
#1381=CARTESIAN_POINT('',(-14.499787183709,71.6971212351519,73.3691508094407));
#1382=CARTESIAN_POINT('',(-11.999787183709,73.3425695023423,70.5191508094406));
#1383=CARTESIAN_POINT('',(-11.999787183709,71.0046313128018,74.5685785386805));
#1384=CARTESIAN_POINT('',(-14.499787183709,73.3425695023423,70.5191508094406));
#1385=CARTESIAN_POINT('Origin',(-14.499787183709,73.3281357456126,76.1941508094407));
#1386=CARTESIAN_POINT('',(-14.499787183709,73.3425695023423,76.2191508094406));
#1387=CARTESIAN_POINT('Origin',(-14.499787183709,76.6045985232637,76.2191508094406));
#1388=CARTESIAN_POINT('',(-14.499787183709,76.6334660367232,76.2191508094406));
#1389=CARTESIAN_POINT('Origin',(-14.499787183709,78.2644805471839,73.3941508094407));
#1390=CARTESIAN_POINT('',(-14.499787183709,78.2789143039137,73.3691508094406));
#1391=CARTESIAN_POINT('Origin',(-14.499787183709,76.647899793453,70.5441508094407));
#1392=CARTESIAN_POINT('',(-11.999787183709,76.6334660367232,70.5191508094406));
#1393=CARTESIAN_POINT('',(-14.499787183709,76.6334660367232,70.5191508094406));
#1394=CARTESIAN_POINT('',(-11.999787183709,78.1631138493983,73.1685785386805));
#1395=CARTESIAN_POINT('Origin',(-14.499787183709,73.3714370158018,70.5191508094406));
#1396=CARTESIAN_POINT('',(-11.999787183709,74.1797273926673,70.5191508094406));
#1397=CARTESIAN_POINT('Origin',(-11.999787183709,74.9880177695328,78.5009580874135));
#1398=CARTESIAN_POINT('Origin',(-5.80960537105413,74.9880177695328,73.3691508094407));
#1399=CARTESIAN_POINT('',(-5.80960537105413,73.3380177695328,73.3691508094407));
#1400=UNCERTAINTY_MEASURE_WITH_UNIT(LENGTH_MEASURE(0.01),#1404,
'DISTANCE_ACCURACY_VALUE',
'Maximum model space distance between geometric entities at asserted c
onnectivities');
#1401=UNCERTAINTY_MEASURE_WITH_UNIT(LENGTH_MEASURE(0.01),#1404,
'DISTANCE_ACCURACY_VALUE',
'Maximum model space distance between geometric entities at asserted c
onnectivities');
#1402=(
GEOMETRIC_REPRESENTATION_CONTEXT(3)
GLOBAL_UNCERTAINTY_ASSIGNED_CONTEXT((#1400))
GLOBAL_UNIT_ASSIGNED_CONTEXT((#1404,#1406,#1407))
REPRESENTATION_CONTEXT('','3D')
);
#1403=(
GEOMETRIC_REPRESENTATION_CONTEXT(3)
GLOBAL_UNCERTAINTY_ASSIGNED_CONTEXT((#1401))
GLOBAL_UNIT_ASSIGNED_CONTEXT((#1404,#1406,#1407))
REPRESENTATION_CONTEXT('','3D')
);
#1404=(
LENGTH_UNIT()
NAMED_UNIT(*)
SI_UNIT(.MILLI.,.METRE.)
);
#1405=(
LENGTH_UNIT()
NAMED_UNIT(*)
SI_UNIT($,.METRE.)
);
#1406=(
NAMED_UNIT(*)
PLANE_ANGLE_UNIT()
SI_UNIT($,.RADIAN.)
);
#1407=(
NAMED_UNIT(*)
SI_UNIT($,.STERADIAN.)
SOLID_ANGLE_UNIT()
);
#1408=SHAPE_DEFINITION_REPRESENTATION(#1409,#1410);
#1409=PRODUCT_DEFINITION_SHAPE('',$,#1412);
#1410=SHAPE_REPRESENTATION('',(#839),#1402);
#1411=PRODUCT_DEFINITION_CONTEXT('part definition',#1416,'design');
#1412=PRODUCT_DEFINITION('45. Rear Sight Right','45. Rear Sight Right',
#1413,#1411);
#1413=PRODUCT_DEFINITION_FORMATION('',$,#1418);
#1414=PRODUCT_RELATED_PRODUCT_CATEGORY('45. Rear Sight Right',
'45. Rear Sight Right',(#1418));
#1415=APPLICATION_PROTOCOL_DEFINITION('international standard',
'automotive_design',2009,#1416);
#1416=APPLICATION_CONTEXT(
'Core Data for Automotive Mechanical Design Process');
#1417=PRODUCT_CONTEXT('part definition',#1416,'mechanical');
#1418=PRODUCT('45. Rear Sight Right','45. Rear Sight Right',$,(#1417));
#1419=PRESENTATION_STYLE_ASSIGNMENT((#1421));
#1420=PRESENTATION_STYLE_ASSIGNMENT((#1422));
#1421=SURFACE_STYLE_USAGE(.BOTH.,#1423);
#1422=SURFACE_STYLE_USAGE(.BOTH.,#1424);
#1423=SURFACE_SIDE_STYLE('',(#1425));
#1424=SURFACE_SIDE_STYLE('',(#1426));
#1425=SURFACE_STYLE_FILL_AREA(#1427);
#1426=SURFACE_STYLE_FILL_AREA(#1428);
#1427=FILL_AREA_STYLE('Steel - Satin',(#1429));
#1428=FILL_AREA_STYLE('Plastic - Matte (Black) (1)',(#1430));
#1429=FILL_AREA_STYLE_COLOUR('Steel - Satin',#1431);
#1430=FILL_AREA_STYLE_COLOUR('Plastic - Matte (Black) (1)',#1432);
#1431=COLOUR_RGB('Steel - Satin',0.627450980392157,0.627450980392157,0.627450980392157);
#1432=COLOUR_RGB('Plastic - Matte (Black) (1)',0.0980392156862745,0.0980392156862745,
0.0980392156862745);
ENDSEC;
END-ISO-10303-21;
