ISO-10303-21;
HEADER;
/* Generated by software containing ST-Developer
 * from STEP Tools, Inc. (www.steptools.com) 
 */

FILE_DESCRIPTION(
/* description */ (''),
/* implementation_level */ '2;1');

FILE_NAME(
/* name */ '46. Rear Sight Post.step',
/* time_stamp */ '2025-10-08T23:28:14+01:00',
/* author */ (''),
/* organization */ (''),
/* preprocessor_version */ 'ST-DEVELOPER v20.1',
/* originating_system */ 'Autodesk Translation Framework v14.10.0.0',
/* authorisation */ '');

FILE_SCHEMA (('AUTOMOTIVE_DESIGN { 1 0 10303 214 3 1 1 }'));
ENDSEC;

DATA;
#10=MECHANICAL_DESIGN_GEOMETRIC_PRESENTATION_REPRESENTATION('',(#13),#628);
#11=SHAPE_REPRESENTATION_RELATIONSHIP('SRR','None',#635,#12);
#12=ADVANCED_BREP_SHAPE_REPRESENTATION('',(#14),#627);
#13=STYLED_ITEM('',(#645),#14);
#14=MANIFOLD_SOLID_BREP('46. Rear Sight Post',#366);
#15=CYLINDRICAL_SURFACE('',#398,1.);
#16=CYLINDRICAL_SURFACE('',#401,2.8);
#17=CYLINDRICAL_SURFACE('',#403,4.30000000000001);
#18=CYLINDRICAL_SURFACE('',#408,0.5);
#19=CYLINDRICAL_SURFACE('',#410,0.5);
#20=CYLINDRICAL_SURFACE('',#413,1.65);
#21=CONICAL_SURFACE('',#396,1.75,0.785398163397447);
#22=LINE('',#532,#55);
#23=LINE('',#534,#56);
#24=LINE('',#536,#57);
#25=LINE('',#537,#58);
#26=LINE('',#540,#59);
#27=LINE('',#542,#60);
#28=LINE('',#543,#61);
#29=LINE('',#546,#62);
#30=LINE('',#548,#63);
#31=LINE('',#550,#64);
#32=LINE('',#551,#65);
#33=LINE('',#556,#66);
#34=LINE('',#557,#67);
#35=LINE('',#562,#68);
#36=LINE('',#566,#69);
#37=LINE('',#570,#70);
#38=LINE('',#573,#71);
#39=LINE('',#578,#72);
#40=LINE('',#583,#73);
#41=LINE('',#586,#74);
#42=LINE('',#589,#75);
#43=LINE('',#592,#76);
#44=LINE('',#595,#77);
#45=LINE('',#597,#78);
#46=LINE('',#600,#79);
#47=LINE('',#603,#80);
#48=LINE('',#607,#81);
#49=LINE('',#610,#82);
#50=LINE('',#612,#83);
#51=LINE('',#613,#84);
#52=LINE('',#615,#85);
#53=LINE('',#617,#86);
#54=LINE('',#623,#87);
#55=VECTOR('',#426,10.);
#56=VECTOR('',#427,10.);
#57=VECTOR('',#428,10.);
#58=VECTOR('',#429,10.);
#59=VECTOR('',#432,10.);
#60=VECTOR('',#433,10.);
#61=VECTOR('',#434,10.);
#62=VECTOR('',#437,10.);
#63=VECTOR('',#438,10.);
#64=VECTOR('',#439,10.);
#65=VECTOR('',#440,10.);
#66=VECTOR('',#445,10.);
#67=VECTOR('',#446,10.);
#68=VECTOR('',#451,10.);
#69=VECTOR('',#454,10.);
#70=VECTOR('',#457,10.);
#71=VECTOR('',#460,10.);
#72=VECTOR('',#465,10.);
#73=VECTOR('',#472,1.75);
#74=VECTOR('',#475,1.);
#75=VECTOR('',#480,10.);
#76=VECTOR('',#483,2.8);
#77=VECTOR('',#488,4.30000000000001);
#78=VECTOR('',#489,10.);
#79=VECTOR('',#492,10.);
#80=VECTOR('',#495,10.);
#81=VECTOR('',#498,10.);
#82=VECTOR('',#501,10.);
#83=VECTOR('',#504,10.);
#84=VECTOR('',#505,10.);
#85=VECTOR('',#508,10.);
#86=VECTOR('',#511,10.);
#87=VECTOR('',#520,1.49999999999999);
#88=FACE_BOUND('',#114,.T.);
#89=FACE_BOUND('',#118,.T.);
#90=FACE_BOUND('',#121,.T.);
#91=FACE_BOUND('',#126,.T.);
#92=FACE_BOUND('',#137,.T.);
#93=FACE_OUTER_BOUND('',#113,.T.);
#94=FACE_OUTER_BOUND('',#115,.T.);
#95=FACE_OUTER_BOUND('',#116,.T.);
#96=FACE_OUTER_BOUND('',#117,.T.);
#97=FACE_OUTER_BOUND('',#119,.T.);
#98=FACE_OUTER_BOUND('',#120,.T.);
#99=FACE_OUTER_BOUND('',#122,.T.);
#100=FACE_OUTER_BOUND('',#123,.T.);
#101=FACE_OUTER_BOUND('',#124,.T.);
#102=FACE_OUTER_BOUND('',#125,.T.);
#103=FACE_OUTER_BOUND('',#127,.T.);
#104=FACE_OUTER_BOUND('',#128,.T.);
#105=FACE_OUTER_BOUND('',#129,.T.);
#106=FACE_OUTER_BOUND('',#130,.T.);
#107=FACE_OUTER_BOUND('',#131,.T.);
#108=FACE_OUTER_BOUND('',#132,.T.);
#109=FACE_OUTER_BOUND('',#133,.T.);
#110=FACE_OUTER_BOUND('',#134,.T.);
#111=FACE_OUTER_BOUND('',#135,.T.);
#112=FACE_OUTER_BOUND('',#136,.T.);
#113=EDGE_LOOP('',(#235));
#114=EDGE_LOOP('',(#236));
#115=EDGE_LOOP('',(#237,#238,#239,#240));
#116=EDGE_LOOP('',(#241,#242,#243,#244));
#117=EDGE_LOOP('',(#245,#246,#247,#248,#249,#250));
#118=EDGE_LOOP('',(#251));
#119=EDGE_LOOP('',(#252,#253,#254,#255));
#120=EDGE_LOOP('',(#256,#257,#258,#259,#260,#261,#262,#263,#264,#265));
#121=EDGE_LOOP('',(#266));
#122=EDGE_LOOP('',(#267,#268,#269,#270));
#123=EDGE_LOOP('',(#271,#272,#273,#274));
#124=EDGE_LOOP('',(#275,#276,#277,#278));
#125=EDGE_LOOP('',(#279,#280,#281,#282,#283,#284));
#126=EDGE_LOOP('',(#285));
#127=EDGE_LOOP('',(#286,#287,#288,#289));
#128=EDGE_LOOP('',(#290,#291,#292,#293,#294,#295,#296,#297,#298,#299,#300));
#129=EDGE_LOOP('',(#301,#302,#303,#304,#305,#306));
#130=EDGE_LOOP('',(#307,#308,#309,#310));
#131=EDGE_LOOP('',(#311,#312,#313,#314));
#132=EDGE_LOOP('',(#315,#316,#317,#318));
#133=EDGE_LOOP('',(#319,#320,#321,#322));
#134=EDGE_LOOP('',(#323,#324,#325,#326));
#135=EDGE_LOOP('',(#327,#328,#329,#330));
#136=EDGE_LOOP('',(#331));
#137=EDGE_LOOP('',(#332));
#138=CIRCLE('',#381,4.30000000000001);
#139=CIRCLE('',#382,2.8);
#140=CIRCLE('',#386,2.5);
#141=CIRCLE('',#389,4.30000000000001);
#142=CIRCLE('',#390,0.5);
#143=CIRCLE('',#391,0.5);
#144=CIRCLE('',#392,4.30000000000001);
#145=CIRCLE('',#393,1.65);
#146=CIRCLE('',#395,4.30000000000001);
#147=CIRCLE('',#397,1.);
#148=CIRCLE('',#399,1.);
#149=CIRCLE('',#402,2.8);
#150=CIRCLE('',#404,4.30000000000001);
#151=CIRCLE('',#406,0.5);
#152=CIRCLE('',#407,0.5);
#153=CIRCLE('',#414,1.65);
#154=VERTEX_POINT('',#525);
#155=VERTEX_POINT('',#527);
#156=VERTEX_POINT('',#530);
#157=VERTEX_POINT('',#531);
#158=VERTEX_POINT('',#533);
#159=VERTEX_POINT('',#535);
#160=VERTEX_POINT('',#539);
#161=VERTEX_POINT('',#541);
#162=VERTEX_POINT('',#545);
#163=VERTEX_POINT('',#547);
#164=VERTEX_POINT('',#549);
#165=VERTEX_POINT('',#552);
#166=VERTEX_POINT('',#555);
#167=VERTEX_POINT('',#559);
#168=VERTEX_POINT('',#561);
#169=VERTEX_POINT('',#563);
#170=VERTEX_POINT('',#565);
#171=VERTEX_POINT('',#567);
#172=VERTEX_POINT('',#569);
#173=VERTEX_POINT('',#571);
#174=VERTEX_POINT('',#574);
#175=VERTEX_POINT('',#577);
#176=VERTEX_POINT('',#581);
#177=VERTEX_POINT('',#585);
#178=VERTEX_POINT('',#591);
#179=VERTEX_POINT('',#596);
#180=VERTEX_POINT('',#598);
#181=VERTEX_POINT('',#602);
#182=VERTEX_POINT('',#604);
#183=VERTEX_POINT('',#606);
#184=VERTEX_POINT('',#608);
#185=VERTEX_POINT('',#621);
#186=EDGE_CURVE('',#154,#154,#138,.T.);
#187=EDGE_CURVE('',#155,#155,#139,.T.);
#188=EDGE_CURVE('',#156,#157,#22,.T.);
#189=EDGE_CURVE('',#157,#158,#23,.T.);
#190=EDGE_CURVE('',#158,#159,#24,.T.);
#191=EDGE_CURVE('',#159,#156,#25,.T.);
#192=EDGE_CURVE('',#157,#160,#26,.T.);
#193=EDGE_CURVE('',#161,#160,#27,.T.);
#194=EDGE_CURVE('',#161,#158,#28,.T.);
#195=EDGE_CURVE('',#162,#156,#29,.T.);
#196=EDGE_CURVE('',#162,#163,#30,.T.);
#197=EDGE_CURVE('',#164,#163,#31,.T.);
#198=EDGE_CURVE('',#160,#164,#32,.T.);
#199=EDGE_CURVE('',#165,#165,#140,.T.);
#200=EDGE_CURVE('',#166,#161,#33,.T.);
#201=EDGE_CURVE('',#164,#166,#34,.T.);
#202=EDGE_CURVE('',#163,#167,#141,.F.);
#203=EDGE_CURVE('',#168,#167,#35,.T.);
#204=EDGE_CURVE('',#169,#168,#142,.T.);
#205=EDGE_CURVE('',#169,#170,#36,.F.);
#206=EDGE_CURVE('',#171,#170,#143,.T.);
#207=EDGE_CURVE('',#171,#172,#37,.F.);
#208=EDGE_CURVE('',#172,#173,#144,.F.);
#209=EDGE_CURVE('',#173,#166,#38,.T.);
#210=EDGE_CURVE('',#174,#174,#145,.T.);
#211=EDGE_CURVE('',#159,#175,#39,.T.);
#212=EDGE_CURVE('',#175,#162,#146,.T.);
#213=EDGE_CURVE('',#176,#176,#147,.T.);
#214=EDGE_CURVE('',#176,#165,#40,.T.);
#215=EDGE_CURVE('',#176,#177,#41,.T.);
#216=EDGE_CURVE('',#177,#177,#148,.T.);
#217=EDGE_CURVE('',#173,#175,#42,.T.);
#218=EDGE_CURVE('',#155,#178,#43,.T.);
#219=EDGE_CURVE('',#178,#178,#149,.T.);
#220=EDGE_CURVE('',#154,#175,#44,.T.);
#221=EDGE_CURVE('',#179,#172,#45,.T.);
#222=EDGE_CURVE('',#180,#179,#150,.T.);
#223=EDGE_CURVE('',#167,#180,#46,.T.);
#224=EDGE_CURVE('',#179,#181,#47,.T.);
#225=EDGE_CURVE('',#182,#181,#151,.T.);
#226=EDGE_CURVE('',#182,#183,#48,.T.);
#227=EDGE_CURVE('',#184,#183,#152,.T.);
#228=EDGE_CURVE('',#184,#180,#49,.T.);
#229=EDGE_CURVE('',#170,#182,#50,.T.);
#230=EDGE_CURVE('',#181,#171,#51,.T.);
#231=EDGE_CURVE('',#183,#169,#52,.T.);
#232=EDGE_CURVE('',#168,#184,#53,.T.);
#233=EDGE_CURVE('',#185,#185,#153,.T.);
#234=EDGE_CURVE('',#185,#174,#54,.T.);
#235=ORIENTED_EDGE('',*,*,#186,.F.);
#236=ORIENTED_EDGE('',*,*,#187,.F.);
#237=ORIENTED_EDGE('',*,*,#188,.T.);
#238=ORIENTED_EDGE('',*,*,#189,.T.);
#239=ORIENTED_EDGE('',*,*,#190,.T.);
#240=ORIENTED_EDGE('',*,*,#191,.T.);
#241=ORIENTED_EDGE('',*,*,#189,.F.);
#242=ORIENTED_EDGE('',*,*,#192,.T.);
#243=ORIENTED_EDGE('',*,*,#193,.F.);
#244=ORIENTED_EDGE('',*,*,#194,.T.);
#245=ORIENTED_EDGE('',*,*,#188,.F.);
#246=ORIENTED_EDGE('',*,*,#195,.F.);
#247=ORIENTED_EDGE('',*,*,#196,.T.);
#248=ORIENTED_EDGE('',*,*,#197,.F.);
#249=ORIENTED_EDGE('',*,*,#198,.F.);
#250=ORIENTED_EDGE('',*,*,#192,.F.);
#251=ORIENTED_EDGE('',*,*,#199,.F.);
#252=ORIENTED_EDGE('',*,*,#200,.T.);
#253=ORIENTED_EDGE('',*,*,#193,.T.);
#254=ORIENTED_EDGE('',*,*,#198,.T.);
#255=ORIENTED_EDGE('',*,*,#201,.T.);
#256=ORIENTED_EDGE('',*,*,#201,.F.);
#257=ORIENTED_EDGE('',*,*,#197,.T.);
#258=ORIENTED_EDGE('',*,*,#202,.T.);
#259=ORIENTED_EDGE('',*,*,#203,.F.);
#260=ORIENTED_EDGE('',*,*,#204,.F.);
#261=ORIENTED_EDGE('',*,*,#205,.T.);
#262=ORIENTED_EDGE('',*,*,#206,.F.);
#263=ORIENTED_EDGE('',*,*,#207,.T.);
#264=ORIENTED_EDGE('',*,*,#208,.T.);
#265=ORIENTED_EDGE('',*,*,#209,.T.);
#266=ORIENTED_EDGE('',*,*,#210,.F.);
#267=ORIENTED_EDGE('',*,*,#191,.F.);
#268=ORIENTED_EDGE('',*,*,#211,.T.);
#269=ORIENTED_EDGE('',*,*,#212,.T.);
#270=ORIENTED_EDGE('',*,*,#195,.T.);
#271=ORIENTED_EDGE('',*,*,#213,.T.);
#272=ORIENTED_EDGE('',*,*,#214,.T.);
#273=ORIENTED_EDGE('',*,*,#199,.T.);
#274=ORIENTED_EDGE('',*,*,#214,.F.);
#275=ORIENTED_EDGE('',*,*,#213,.F.);
#276=ORIENTED_EDGE('',*,*,#215,.T.);
#277=ORIENTED_EDGE('',*,*,#216,.F.);
#278=ORIENTED_EDGE('',*,*,#215,.F.);
#279=ORIENTED_EDGE('',*,*,#190,.F.);
#280=ORIENTED_EDGE('',*,*,#194,.F.);
#281=ORIENTED_EDGE('',*,*,#200,.F.);
#282=ORIENTED_EDGE('',*,*,#209,.F.);
#283=ORIENTED_EDGE('',*,*,#217,.T.);
#284=ORIENTED_EDGE('',*,*,#211,.F.);
#285=ORIENTED_EDGE('',*,*,#216,.T.);
#286=ORIENTED_EDGE('',*,*,#187,.T.);
#287=ORIENTED_EDGE('',*,*,#218,.T.);
#288=ORIENTED_EDGE('',*,*,#219,.F.);
#289=ORIENTED_EDGE('',*,*,#218,.F.);
#290=ORIENTED_EDGE('',*,*,#186,.T.);
#291=ORIENTED_EDGE('',*,*,#220,.T.);
#292=ORIENTED_EDGE('',*,*,#217,.F.);
#293=ORIENTED_EDGE('',*,*,#208,.F.);
#294=ORIENTED_EDGE('',*,*,#221,.F.);
#295=ORIENTED_EDGE('',*,*,#222,.F.);
#296=ORIENTED_EDGE('',*,*,#223,.F.);
#297=ORIENTED_EDGE('',*,*,#202,.F.);
#298=ORIENTED_EDGE('',*,*,#196,.F.);
#299=ORIENTED_EDGE('',*,*,#212,.F.);
#300=ORIENTED_EDGE('',*,*,#220,.F.);
#301=ORIENTED_EDGE('',*,*,#222,.T.);
#302=ORIENTED_EDGE('',*,*,#224,.T.);
#303=ORIENTED_EDGE('',*,*,#225,.F.);
#304=ORIENTED_EDGE('',*,*,#226,.T.);
#305=ORIENTED_EDGE('',*,*,#227,.F.);
#306=ORIENTED_EDGE('',*,*,#228,.T.);
#307=ORIENTED_EDGE('',*,*,#206,.T.);
#308=ORIENTED_EDGE('',*,*,#229,.T.);
#309=ORIENTED_EDGE('',*,*,#225,.T.);
#310=ORIENTED_EDGE('',*,*,#230,.T.);
#311=ORIENTED_EDGE('',*,*,#229,.F.);
#312=ORIENTED_EDGE('',*,*,#205,.F.);
#313=ORIENTED_EDGE('',*,*,#231,.F.);
#314=ORIENTED_EDGE('',*,*,#226,.F.);
#315=ORIENTED_EDGE('',*,*,#227,.T.);
#316=ORIENTED_EDGE('',*,*,#231,.T.);
#317=ORIENTED_EDGE('',*,*,#204,.T.);
#318=ORIENTED_EDGE('',*,*,#232,.T.);
#319=ORIENTED_EDGE('',*,*,#223,.T.);
#320=ORIENTED_EDGE('',*,*,#228,.F.);
#321=ORIENTED_EDGE('',*,*,#232,.F.);
#322=ORIENTED_EDGE('',*,*,#203,.T.);
#323=ORIENTED_EDGE('',*,*,#221,.T.);
#324=ORIENTED_EDGE('',*,*,#207,.F.);
#325=ORIENTED_EDGE('',*,*,#230,.F.);
#326=ORIENTED_EDGE('',*,*,#224,.F.);
#327=ORIENTED_EDGE('',*,*,#233,.F.);
#328=ORIENTED_EDGE('',*,*,#234,.T.);
#329=ORIENTED_EDGE('',*,*,#210,.T.);
#330=ORIENTED_EDGE('',*,*,#234,.F.);
#331=ORIENTED_EDGE('',*,*,#219,.T.);
#332=ORIENTED_EDGE('',*,*,#233,.T.);
#333=PLANE('',#380);
#334=PLANE('',#383);
#335=PLANE('',#384);
#336=PLANE('',#385);
#337=PLANE('',#387);
#338=PLANE('',#388);
#339=PLANE('',#394);
#340=PLANE('',#400);
#341=PLANE('',#405);
#342=PLANE('',#409);
#343=PLANE('',#411);
#344=PLANE('',#412);
#345=PLANE('',#415);
#346=ADVANCED_FACE('',(#93,#88),#333,.T.);
#347=ADVANCED_FACE('',(#94),#334,.T.);
#348=ADVANCED_FACE('',(#95),#335,.T.);
#349=ADVANCED_FACE('',(#96,#89),#336,.F.);
#350=ADVANCED_FACE('',(#97),#337,.T.);
#351=ADVANCED_FACE('',(#98,#90),#338,.F.);
#352=ADVANCED_FACE('',(#99),#339,.F.);
#353=ADVANCED_FACE('',(#100),#21,.F.);
#354=ADVANCED_FACE('',(#101),#15,.F.);
#355=ADVANCED_FACE('',(#102,#91),#340,.F.);
#356=ADVANCED_FACE('',(#103),#16,.F.);
#357=ADVANCED_FACE('',(#104),#17,.T.);
#358=ADVANCED_FACE('',(#105),#341,.F.);
#359=ADVANCED_FACE('',(#106),#18,.T.);
#360=ADVANCED_FACE('',(#107),#342,.T.);
#361=ADVANCED_FACE('',(#108),#19,.T.);
#362=ADVANCED_FACE('',(#109),#343,.T.);
#363=ADVANCED_FACE('',(#110),#344,.T.);
#364=ADVANCED_FACE('',(#111),#20,.F.);
#365=ADVANCED_FACE('',(#112,#92),#345,.F.);
#366=CLOSED_SHELL('',(#346,#347,#348,#349,#350,#351,#352,#353,#354,#355,
#356,#357,#358,#359,#360,#361,#362,#363,#364,#365));
#367=DERIVED_UNIT_ELEMENT(#369,1.);
#368=DERIVED_UNIT_ELEMENT(#630,-3.);
#369=(
MASS_UNIT()
NAMED_UNIT(*)
SI_UNIT(.KILO.,.GRAM.)
);
#370=DERIVED_UNIT((#367,#368));
#371=MEASURE_REPRESENTATION_ITEM('density measure',
POSITIVE_RATIO_MEASURE(7850.),#370);
#372=PROPERTY_DEFINITION_REPRESENTATION(#377,#374);
#373=PROPERTY_DEFINITION_REPRESENTATION(#378,#375);
#374=REPRESENTATION('material name',(#376),#627);
#375=REPRESENTATION('density',(#371),#627);
#376=DESCRIPTIVE_REPRESENTATION_ITEM('Steel','Steel');
#377=PROPERTY_DEFINITION('material property','material name',#637);
#378=PROPERTY_DEFINITION('material property','density of part',#637);
#379=AXIS2_PLACEMENT_3D('',#523,#416,#417);
#380=AXIS2_PLACEMENT_3D('',#524,#418,#419);
#381=AXIS2_PLACEMENT_3D('',#526,#420,#421);
#382=AXIS2_PLACEMENT_3D('',#528,#422,#423);
#383=AXIS2_PLACEMENT_3D('',#529,#424,#425);
#384=AXIS2_PLACEMENT_3D('',#538,#430,#431);
#385=AXIS2_PLACEMENT_3D('',#544,#435,#436);
#386=AXIS2_PLACEMENT_3D('',#553,#441,#442);
#387=AXIS2_PLACEMENT_3D('',#554,#443,#444);
#388=AXIS2_PLACEMENT_3D('',#558,#447,#448);
#389=AXIS2_PLACEMENT_3D('',#560,#449,#450);
#390=AXIS2_PLACEMENT_3D('',#564,#452,#453);
#391=AXIS2_PLACEMENT_3D('',#568,#455,#456);
#392=AXIS2_PLACEMENT_3D('',#572,#458,#459);
#393=AXIS2_PLACEMENT_3D('',#575,#461,#462);
#394=AXIS2_PLACEMENT_3D('',#576,#463,#464);
#395=AXIS2_PLACEMENT_3D('',#579,#466,#467);
#396=AXIS2_PLACEMENT_3D('',#580,#468,#469);
#397=AXIS2_PLACEMENT_3D('',#582,#470,#471);
#398=AXIS2_PLACEMENT_3D('',#584,#473,#474);
#399=AXIS2_PLACEMENT_3D('',#587,#476,#477);
#400=AXIS2_PLACEMENT_3D('',#588,#478,#479);
#401=AXIS2_PLACEMENT_3D('',#590,#481,#482);
#402=AXIS2_PLACEMENT_3D('',#593,#484,#485);
#403=AXIS2_PLACEMENT_3D('',#594,#486,#487);
#404=AXIS2_PLACEMENT_3D('',#599,#490,#491);
#405=AXIS2_PLACEMENT_3D('',#601,#493,#494);
#406=AXIS2_PLACEMENT_3D('',#605,#496,#497);
#407=AXIS2_PLACEMENT_3D('',#609,#499,#500);
#408=AXIS2_PLACEMENT_3D('',#611,#502,#503);
#409=AXIS2_PLACEMENT_3D('',#614,#506,#507);
#410=AXIS2_PLACEMENT_3D('',#616,#509,#510);
#411=AXIS2_PLACEMENT_3D('',#618,#512,#513);
#412=AXIS2_PLACEMENT_3D('',#619,#514,#515);
#413=AXIS2_PLACEMENT_3D('',#620,#516,#517);
#414=AXIS2_PLACEMENT_3D('',#622,#518,#519);
#415=AXIS2_PLACEMENT_3D('',#624,#521,#522);
#416=DIRECTION('axis',(0.,0.,1.));
#417=DIRECTION('refdir',(1.,0.,0.));
#418=DIRECTION('center_axis',(-1.,-1.49529144205574E-30,6.6264316038565E-29));
#419=DIRECTION('ref_axis',(1.4875888558111E-30,-1.,-1.1675141397271E-28));
#420=DIRECTION('center_axis',(1.,1.49529144205574E-30,-6.6264316038565E-29));
#421=DIRECTION('ref_axis',(2.46740515150275E-47,-1.,-9.86076131526265E-32));
#422=DIRECTION('center_axis',(-1.,-1.49529144205574E-30,6.6264316038565E-29));
#423=DIRECTION('ref_axis',(2.46740515150275E-47,-1.,-9.86076131526265E-32));
#424=DIRECTION('center_axis',(-0.707106781186546,-1.57009245868378E-16,
0.707106781186549));
#425=DIRECTION('ref_axis',(0.707106781186549,0.,0.707106781186546));
#426=DIRECTION('',(0.707106781186549,-1.57009245868377E-16,0.707106781186546));
#427=DIRECTION('',(-2.07805191078644E-48,1.,2.22044604925031E-16));
#428=DIRECTION('',(-0.707106781186549,1.57009245868377E-16,-0.707106781186546));
#429=DIRECTION('',(2.07805191078644E-48,-1.,-2.22044604925031E-16));
#430=DIRECTION('center_axis',(2.07805191078644E-48,-2.22044604925031E-16,
1.));
#431=DIRECTION('ref_axis',(2.07805191078644E-48,-1.,-2.22044604925031E-16));
#432=DIRECTION('',(1.,2.07805191078644E-48,-2.07805191078644E-48));
#433=DIRECTION('',(2.07805191078644E-48,-1.,-2.22044604925031E-16));
#434=DIRECTION('',(-1.,-2.07805191078644E-48,2.07805191078644E-48));
#435=DIRECTION('center_axis',(-2.07805191078644E-48,1.,2.22044604925031E-16));
#436=DIRECTION('ref_axis',(-2.07805191078644E-48,-2.22044604925031E-16,
1.));
#437=DIRECTION('',(-2.07805191078644E-48,-2.22044604925031E-16,1.));
#438=DIRECTION('',(1.,2.46740515150275E-47,3.08148791101958E-32));
#439=DIRECTION('',(2.07805191078644E-48,2.22044604925031E-16,-1.));
#440=DIRECTION('',(0.707106781186549,1.57009245868377E-16,-0.707106781186546));
#441=DIRECTION('center_axis',(2.07805191078644E-48,-1.,-2.22044604925031E-16));
#442=DIRECTION('ref_axis',(-1.,-2.07805191078644E-48,2.07805191078644E-48));
#443=DIRECTION('center_axis',(0.707106781186546,-1.57009245868378E-16,0.707106781186549));
#444=DIRECTION('ref_axis',(0.707106781186549,0.,-0.707106781186546));
#445=DIRECTION('',(-0.707106781186549,-1.57009245868377E-16,0.707106781186546));
#446=DIRECTION('',(-2.07805191078644E-48,1.,2.22044604925031E-16));
#447=DIRECTION('center_axis',(-1.,-2.07805191078644E-48,-2.07805191078644E-48));
#448=DIRECTION('ref_axis',(2.07805191078644E-48,2.22044604925031E-16,-1.));
#449=DIRECTION('center_axis',(-1.,-2.07805191078644E-48,-2.07805191078644E-48));
#450=DIRECTION('ref_axis',(2.46740515150275E-47,-1.,-9.86076131526265E-32));
#451=DIRECTION('',(-2.07805191078644E-48,-2.22044604925031E-16,1.));
#452=DIRECTION('center_axis',(-1.,-2.07805191078644E-48,-2.07805191078644E-48));
#453=DIRECTION('ref_axis',(0.,-0.70710678118651,-0.707106781186585));
#454=DIRECTION('',(2.07805191078644E-48,-1.,-2.22044604925031E-16));
#455=DIRECTION('center_axis',(-1.,-2.07805191078644E-48,-2.07805191078644E-48));
#456=DIRECTION('ref_axis',(0.,0.707106781186522,-0.707106781186573));
#457=DIRECTION('',(2.07805191078644E-48,2.22044604925031E-16,-1.));
#458=DIRECTION('center_axis',(-1.,-2.07805191078644E-48,-2.07805191078644E-48));
#459=DIRECTION('ref_axis',(2.46740515150275E-47,-1.,-9.86076131526265E-32));
#460=DIRECTION('',(-2.07805191078644E-48,-2.22044604925031E-16,1.));
#461=DIRECTION('center_axis',(1.,2.07805191078644E-48,2.07805191078644E-48));
#462=DIRECTION('ref_axis',(2.07805191078644E-48,-2.2204461650556E-16,1.));
#463=DIRECTION('center_axis',(1.,2.07805191078644E-48,2.07805191078644E-48));
#464=DIRECTION('ref_axis',(-2.07805191078644E-48,-2.2204461650556E-16,1.));
#465=DIRECTION('',(2.07805191078644E-48,2.22044604925031E-16,-1.));
#466=DIRECTION('center_axis',(1.,2.07805191078644E-48,2.07805191078644E-48));
#467=DIRECTION('ref_axis',(2.46740515150275E-47,-1.,-9.86076131526265E-32));
#468=DIRECTION('center_axis',(0.,-1.,0.));
#469=DIRECTION('ref_axis',(-1.,-2.07805191078644E-48,2.07805191078644E-48));
#470=DIRECTION('center_axis',(-2.07805191078644E-48,1.,2.22044604925031E-16));
#471=DIRECTION('ref_axis',(-1.,-2.07805191078644E-48,2.07805191078644E-48));
#472=DIRECTION('',(0.707106781186547,-0.707106781186548,-8.65956056235492E-17));
#473=DIRECTION('center_axis',(-2.07805191078644E-48,1.,2.22044604925031E-16));
#474=DIRECTION('ref_axis',(-1.,-2.07805191078644E-48,2.07805191078644E-48));
#475=DIRECTION('',(-2.07805191078644E-48,1.,2.22044604925031E-16));
#476=DIRECTION('center_axis',(2.07805191078644E-48,-1.,-2.22044604925031E-16));
#477=DIRECTION('ref_axis',(-1.,-2.07805191078644E-48,2.07805191078644E-48));
#478=DIRECTION('center_axis',(2.07805191078644E-48,-1.,-2.22044604925031E-16));
#479=DIRECTION('ref_axis',(2.07805191078644E-48,2.22044604925031E-16,-1.));
#480=DIRECTION('',(-1.,-2.46740515150275E-47,-3.08148791101958E-32));
#481=DIRECTION('center_axis',(-1.,-2.46740515150275E-47,-3.08148791101958E-32));
#482=DIRECTION('ref_axis',(2.46740515150275E-47,-1.,-9.86076131526265E-32));
#483=DIRECTION('',(1.,2.46740515150275E-47,3.08148791101958E-32));
#484=DIRECTION('center_axis',(-1.,-2.07805191078644E-48,-2.07805191078644E-48));
#485=DIRECTION('ref_axis',(2.46740515150275E-47,-1.,-9.86076131526265E-32));
#486=DIRECTION('center_axis',(-1.,-2.46740515150275E-47,-3.08148791101958E-32));
#487=DIRECTION('ref_axis',(2.46740515150275E-47,-1.,-9.86076131526265E-32));
#488=DIRECTION('',(1.,2.46740515150275E-47,3.08148791101958E-32));
#489=DIRECTION('',(1.,2.46740515150275E-47,3.08148791101958E-32));
#490=DIRECTION('center_axis',(1.,4.62533517161554E-33,2.07805191078644E-48));
#491=DIRECTION('ref_axis',(4.62533517161556E-33,-1.,-9.86076131526265E-32));
#492=DIRECTION('',(-1.,-2.46740515150275E-47,-3.08148791101958E-32));
#493=DIRECTION('center_axis',(1.,4.62533517161554E-33,2.07805191078644E-48));
#494=DIRECTION('ref_axis',(-1.05102113639539E-48,-2.2204461650556E-16,1.));
#495=DIRECTION('',(1.05102118995921E-48,2.22044604925031E-16,-1.));
#496=DIRECTION('center_axis',(1.,4.62533517161554E-33,2.07805191078644E-48));
#497=DIRECTION('ref_axis',(-3.27060586510987E-33,0.707106781186522,-0.707106781186573));
#498=DIRECTION('',(4.62533517161554E-33,-1.,-2.22044604925031E-16));
#499=DIRECTION('center_axis',(1.,4.62533517161554E-33,2.07805191078644E-48));
#500=DIRECTION('ref_axis',(3.27060586510982E-33,-0.70710678118651,-0.707106781186585));
#501=DIRECTION('',(-1.05102118995921E-48,-2.22044604925031E-16,1.));
#502=DIRECTION('center_axis',(1.,2.07805191078644E-48,-2.07805191078644E-48));
#503=DIRECTION('ref_axis',(0.,0.707106781186522,-0.707106781186573));
#504=DIRECTION('',(-1.,-2.07805191078644E-48,2.07805191078644E-48));
#505=DIRECTION('',(1.,2.07805191078644E-48,-2.07805191078644E-48));
#506=DIRECTION('center_axis',(-2.07805191078644E-48,2.22044604925031E-16,
-1.));
#507=DIRECTION('ref_axis',(-2.07805191078644E-48,1.,2.22044604925031E-16));
#508=DIRECTION('',(1.,2.07805191078644E-48,-2.07805191078644E-48));
#509=DIRECTION('center_axis',(-1.,-2.07805191078644E-48,2.07805191078644E-48));
#510=DIRECTION('ref_axis',(0.,-0.70710678118651,-0.707106781186585));
#511=DIRECTION('',(-1.,-2.07805191078644E-48,2.07805191078644E-48));
#512=DIRECTION('center_axis',(2.07805191078644E-48,-1.,-2.22044604925031E-16));
#513=DIRECTION('ref_axis',(2.07805191078644E-48,2.22044604925031E-16,-1.));
#514=DIRECTION('center_axis',(-2.07805191078644E-48,1.,2.22044604925031E-16));
#515=DIRECTION('ref_axis',(-2.07805191078644E-48,-2.22044604925031E-16,
1.));
#516=DIRECTION('center_axis',(-1.,-2.07805191078644E-48,2.07805191078644E-48));
#517=DIRECTION('ref_axis',(2.07805191078644E-48,-2.2204461650556E-16,1.));
#518=DIRECTION('center_axis',(1.,2.07805191078644E-48,2.07805191078644E-48));
#519=DIRECTION('ref_axis',(2.07805191078644E-48,-2.2204461650556E-16,1.));
#520=DIRECTION('',(1.,2.07805191078644E-48,-2.07805191078644E-48));
#521=DIRECTION('center_axis',(1.,2.07805191078644E-48,2.07805191078644E-48));
#522=DIRECTION('ref_axis',(-2.07805191078644E-48,-2.2204461650556E-16,1.));
#523=CARTESIAN_POINT('',(0.,0.,0.));
#524=CARTESIAN_POINT('Origin',(-12.5002119725896,79.4880178124161,94.5826020829324));
#525=CARTESIAN_POINT('',(-12.5002119725896,83.7880178124159,92.7826020829324));
#526=CARTESIAN_POINT('Origin',(-12.5002119725896,79.488017812416,92.7826020829324));
#527=CARTESIAN_POINT('',(-12.5002119725896,82.2880178124161,92.7826020829323));
#528=CARTESIAN_POINT('Origin',(-12.5002119725896,79.488017812416,92.7826020829324));
#529=CARTESIAN_POINT('Origin',(-3.90021197258958,79.488017812416,103.532602082932));
#530=CARTESIAN_POINT('',(-5.15021197258959,79.488017812416,102.282602082932));
#531=CARTESIAN_POINT('',(-2.65021197258958,79.4880178124159,104.782602082932));
#532=CARTESIAN_POINT('',(-6.64123737637402,79.488017812416,100.791576679148));
#533=CARTESIAN_POINT('',(-2.65021197258958,83.7880178124159,104.782602082932));
#534=CARTESIAN_POINT('',(-2.65021197258958,79.488017812416,104.782602082932));
#535=CARTESIAN_POINT('',(-5.15021197258959,83.7880178124159,102.282602082932));
#536=CARTESIAN_POINT('',(-5.02521197258958,83.7880178124159,102.407602082932));
#537=CARTESIAN_POINT('',(-5.15021197258959,79.488017812416,102.282602082932));
#538=CARTESIAN_POINT('Origin',(-0.000144748926553667,79.4880178124159,104.782602082932));
#539=CARTESIAN_POINT('',(2.64992247473647,79.4880178124159,104.782602082932));
#540=CARTESIAN_POINT('',(-3.32517836075807,79.4880178124159,104.782602082932));
#541=CARTESIAN_POINT('',(2.64992247473647,83.7880178124159,104.782602082932));
#542=CARTESIAN_POINT('',(2.64992247473647,79.488017812416,104.782602082932));
#543=CARTESIAN_POINT('',(-3.32517836075807,83.7880178124159,104.782602082932));
#544=CARTESIAN_POINT('Origin',(-6.65021197258959,79.488017812416,95.3185004677946));
#545=CARTESIAN_POINT('',(-5.15021197258959,79.488017812416,97.0826020829324));
#546=CARTESIAN_POINT('',(-5.15021197258959,79.488017812416,89.8437439973906));
#547=CARTESIAN_POINT('',(5.14992247473648,79.488017812416,97.0826020829324));
#548=CARTESIAN_POINT('',(-6.65021197258959,79.488017812416,97.0826020829324));
#549=CARTESIAN_POINT('',(5.14992247473648,79.488017812416,102.282602082932));
#550=CARTESIAN_POINT('',(5.14992247473648,79.488017812416,94.0505512753635));
#551=CARTESIAN_POINT('',(3.31591426668938,79.488017812416,104.116610290979));
#552=CARTESIAN_POINT('',(2.49985525107345,79.488017812416,100.550551275363));
#553=CARTESIAN_POINT('Origin',(-0.000144748926553112,79.488017812416,100.550551275363));
#554=CARTESIAN_POINT('Origin',(3.89992247473648,79.488017812416,103.532602082932));
#555=CARTESIAN_POINT('',(5.14992247473648,83.7880178124159,102.282602082932));
#556=CARTESIAN_POINT('',(1.69988886290495,83.7880178124159,105.732635694764));
#557=CARTESIAN_POINT('',(5.14992247473648,79.488017812416,102.282602082932));
#558=CARTESIAN_POINT('Origin',(5.14992247473648,79.488017812416,92.7826020829324));
#559=CARTESIAN_POINT('',(5.14992247473648,75.988017812416,90.284602883573));
#560=CARTESIAN_POINT('Origin',(5.14992247473648,79.488017812416,92.7826020829324));
#561=CARTESIAN_POINT('',(5.14992247473648,75.988017812416,88.3826020829324));
#562=CARTESIAN_POINT('',(5.14992247473648,75.988017812416,95.2826020829324));
#563=CARTESIAN_POINT('',(5.14992247473648,76.488017812416,87.8826020829324));
#564=CARTESIAN_POINT('Origin',(5.14992247473648,76.488017812416,88.3826020829324));
#565=CARTESIAN_POINT('',(5.14992247473648,82.488017812416,87.8826020829324));
#566=CARTESIAN_POINT('',(5.14992247473648,77.9880178124159,87.8826020829324));
#567=CARTESIAN_POINT('',(5.14992247473648,82.988017812416,88.3826020829324));
#568=CARTESIAN_POINT('Origin',(5.14992247473648,82.488017812416,88.3826020829324));
#569=CARTESIAN_POINT('',(5.14992247473648,82.988017812416,90.284602883573));
#570=CARTESIAN_POINT('',(5.14992247473648,82.988017812416,90.2826020829324));
#571=CARTESIAN_POINT('',(5.14992247473648,83.7880178124159,92.7826020829324));
#572=CARTESIAN_POINT('Origin',(5.14992247473648,79.488017812416,92.7826020829324));
#573=CARTESIAN_POINT('',(5.14992247473648,83.7880178124159,97.2826020829324));
#574=CARTESIAN_POINT('',(5.14992247473648,79.488017812416,91.1326020829324));
#575=CARTESIAN_POINT('Origin',(5.14992247473648,79.488017812416,92.7826020829324));
#576=CARTESIAN_POINT('Origin',(-5.15021197258959,79.488017812416,84.3689875269866));
#577=CARTESIAN_POINT('',(-5.15021197258959,83.7880178124159,92.7826020829324));
#578=CARTESIAN_POINT('',(-5.15021197258959,83.7880178124159,93.0757948049595));
#579=CARTESIAN_POINT('Origin',(-5.15021197258959,79.488017812416,92.7826020829324));
#580=CARTESIAN_POINT('Origin',(-0.000144748926553112,80.2380178124159,100.550551275363));
#581=CARTESIAN_POINT('',(0.999855251073447,80.988017812416,100.550551275363));
#582=CARTESIAN_POINT('Origin',(-0.000144748926553112,80.988017812416,100.550551275363));
#583=CARTESIAN_POINT('',(1.74985525107345,80.2380178124159,100.550551275363));
#584=CARTESIAN_POINT('Origin',(-0.000144748926553112,77.4880178124159,100.550551275363));
#585=CARTESIAN_POINT('',(0.999855251073447,83.7880178124159,100.550551275363));
#586=CARTESIAN_POINT('',(0.999855251073447,77.4880178124159,100.550551275363));
#587=CARTESIAN_POINT('Origin',(-0.000144748926553251,83.7880178124159,100.550551275363));
#588=CARTESIAN_POINT('Origin',(-6.65021197258959,83.7880178124159,101.782602082932));
#589=CARTESIAN_POINT('',(-6.65021197258959,83.7880178124159,92.7826020829324));
#590=CARTESIAN_POINT('Origin',(-6.65021197258959,79.488017812416,92.7826020829324));
#591=CARTESIAN_POINT('',(-6.65021197258959,82.288017812416,92.7826020829324));
#592=CARTESIAN_POINT('',(-6.65021197258959,82.288017812416,92.7826020829324));
#593=CARTESIAN_POINT('Origin',(-6.65021197258959,79.488017812416,92.7826020829324));
#594=CARTESIAN_POINT('Origin',(-6.65021197258959,79.488017812416,92.7826020829324));
#595=CARTESIAN_POINT('',(-6.65021197258959,83.7880178124159,92.7826020829324));
#596=CARTESIAN_POINT('',(-5.15021197258971,82.988017812416,90.284602883573));
#597=CARTESIAN_POINT('',(-6.65021197258959,82.988017812416,90.284602883573));
#598=CARTESIAN_POINT('',(-5.15021197258971,75.988017812416,90.284602883573));
#599=CARTESIAN_POINT('Origin',(-5.15021197258971,79.488017812416,92.7826020829324));
#600=CARTESIAN_POINT('',(-6.65021197258959,75.988017812416,90.284602883573));
#601=CARTESIAN_POINT('Origin',(-5.15021197258971,79.488017812416,84.3689875269866));
#602=CARTESIAN_POINT('',(-5.15021197258971,82.988017812416,88.3826020829324));
#603=CARTESIAN_POINT('',(-5.15021197258971,82.988017812416,86.0757948049595));
#604=CARTESIAN_POINT('',(-5.15021197258971,82.488017812416,87.8826020829324));
#605=CARTESIAN_POINT('Origin',(-5.15021197258971,82.488017812416,88.3826020829324));
#606=CARTESIAN_POINT('',(-5.15021197258971,76.488017812416,87.8826020829324));
#607=CARTESIAN_POINT('',(-5.15021197258971,82.488017812416,87.8826020829324));
#608=CARTESIAN_POINT('',(-5.15021197258971,75.988017812416,88.3826020829324));
#609=CARTESIAN_POINT('Origin',(-5.15021197258971,76.488017812416,88.3826020829324));
#610=CARTESIAN_POINT('',(-5.15021197258971,75.988017812416,91.0757948049595));
#611=CARTESIAN_POINT('Origin',(-6.50021197258959,82.488017812416,88.3826020829324));
#612=CARTESIAN_POINT('',(-6.50021197258959,82.488017812416,87.8826020829324));
#613=CARTESIAN_POINT('',(-6.50021197258959,82.988017812416,88.3826020829324));
#614=CARTESIAN_POINT('Origin',(-6.50021197258959,76.488017812416,87.8826020829324));
#615=CARTESIAN_POINT('',(-6.50021197258959,76.488017812416,87.8826020829324));
#616=CARTESIAN_POINT('Origin',(-6.50021197258959,76.488017812416,88.3826020829324));
#617=CARTESIAN_POINT('',(-6.50021197258959,75.988017812416,88.3826020829324));
#618=CARTESIAN_POINT('Origin',(-6.50021197258959,75.988017812416,97.7826020829324));
#619=CARTESIAN_POINT('Origin',(-6.50021197258959,82.988017812416,87.7826020829324));
#620=CARTESIAN_POINT('Origin',(14.4997880274104,79.488017812416,92.7826020829324));
#621=CARTESIAN_POINT('',(-6.65021197258959,79.488017812416,91.1326020829324));
#622=CARTESIAN_POINT('Origin',(-6.65021197258959,79.488017812416,92.7826020829324));
#623=CARTESIAN_POINT('',(14.4997880274104,79.488017812416,91.1326020829324));
#624=CARTESIAN_POINT('Origin',(-6.65021197258959,79.488017812416,84.3689875269866));
#625=UNCERTAINTY_MEASURE_WITH_UNIT(LENGTH_MEASURE(0.01),#629,
'DISTANCE_ACCURACY_VALUE',
'Maximum model space distance between geometric entities at asserted c
onnectivities');
#626=UNCERTAINTY_MEASURE_WITH_UNIT(LENGTH_MEASURE(0.01),#629,
'DISTANCE_ACCURACY_VALUE',
'Maximum model space distance between geometric entities at asserted c
onnectivities');
#627=(
GEOMETRIC_REPRESENTATION_CONTEXT(3)
GLOBAL_UNCERTAINTY_ASSIGNED_CONTEXT((#625))
GLOBAL_UNIT_ASSIGNED_CONTEXT((#629,#631,#632))
REPRESENTATION_CONTEXT('','3D')
);
#628=(
GEOMETRIC_REPRESENTATION_CONTEXT(3)
GLOBAL_UNCERTAINTY_ASSIGNED_CONTEXT((#626))
GLOBAL_UNIT_ASSIGNED_CONTEXT((#629,#631,#632))
REPRESENTATION_CONTEXT('','3D')
);
#629=(
LENGTH_UNIT()
NAMED_UNIT(*)
SI_UNIT(.MILLI.,.METRE.)
);
#630=(
LENGTH_UNIT()
NAMED_UNIT(*)
SI_UNIT($,.METRE.)
);
#631=(
NAMED_UNIT(*)
PLANE_ANGLE_UNIT()
SI_UNIT($,.RADIAN.)
);
#632=(
NAMED_UNIT(*)
SI_UNIT($,.STERADIAN.)
SOLID_ANGLE_UNIT()
);
#633=SHAPE_DEFINITION_REPRESENTATION(#634,#635);
#634=PRODUCT_DEFINITION_SHAPE('',$,#637);
#635=SHAPE_REPRESENTATION('',(#379),#627);
#636=PRODUCT_DEFINITION_CONTEXT('part definition',#641,'design');
#637=PRODUCT_DEFINITION('46. Rear Sight Post','46. Rear Sight Post',#638,
#636);
#638=PRODUCT_DEFINITION_FORMATION('',$,#643);
#639=PRODUCT_RELATED_PRODUCT_CATEGORY('46. Rear Sight Post',
'46. Rear Sight Post',(#643));
#640=APPLICATION_PROTOCOL_DEFINITION('international standard',
'automotive_design',2009,#641);
#641=APPLICATION_CONTEXT(
'Core Data for Automotive Mechanical Design Process');
#642=PRODUCT_CONTEXT('part definition',#641,'mechanical');
#643=PRODUCT('46. Rear Sight Post','46. Rear Sight Post',$,(#642));
#644=PRESENTATION_STYLE_ASSIGNMENT((#646));
#645=PRESENTATION_STYLE_ASSIGNMENT((#647));
#646=SURFACE_STYLE_USAGE(.BOTH.,#648);
#647=SURFACE_STYLE_USAGE(.BOTH.,#649);
#648=SURFACE_SIDE_STYLE('',(#650));
#649=SURFACE_SIDE_STYLE('',(#651));
#650=SURFACE_STYLE_FILL_AREA(#652);
#651=SURFACE_STYLE_FILL_AREA(#653);
#652=FILL_AREA_STYLE('Steel - Satin',(#654));
#653=FILL_AREA_STYLE('Plastic - Matte (Black) (1)',(#655));
#654=FILL_AREA_STYLE_COLOUR('Steel - Satin',#656);
#655=FILL_AREA_STYLE_COLOUR('Plastic - Matte (Black) (1)',#657);
#656=COLOUR_RGB('Steel - Satin',0.627450980392157,0.627450980392157,0.627450980392157);
#657=COLOUR_RGB('Plastic - Matte (Black) (1)',0.0980392156862745,0.0980392156862745,
0.0980392156862745);
ENDSEC;
END-ISO-10303-21;
