ISO-10303-21;
HEADER;
/* Generated by software containing ST-Developer
 * from STEP Tools, Inc. (www.steptools.com) 
 */

FILE_DESCRIPTION(
/* description */ (''),
/* implementation_level */ '2;1');

FILE_NAME(
/* name */ '47. Sight Turret.step',
/* time_stamp */ '2025-10-08T23:28:18+01:00',
/* author */ (''),
/* organization */ (''),
/* preprocessor_version */ 'ST-DEVELOPER v20.1',
/* originating_system */ 'Autodesk Translation Framework v14.10.0.0',
/* authorisation */ '');

FILE_SCHEMA (('AUTOMOTIVE_DESIGN { 1 0 10303 214 3 1 1 }'));
ENDSEC;

DATA;
#10=MECHANICAL_DESIGN_GEOMETRIC_PRESENTATION_REPRESENTATION('',(#13),#718);
#11=SHAPE_REPRESENTATION_RELATIONSHIP('SRR','None',#725,#12);
#12=ADVANCED_BREP_SHAPE_REPRESENTATION('',(#14),#717);
#13=STYLED_ITEM('',(#735),#14);
#14=MANIFOLD_SOLID_BREP('47. Rear Sight Turret',#406);
#15=LINE('',#627,#46);
#16=LINE('',#630,#47);
#17=LINE('',#634,#48);
#18=LINE('',#638,#49);
#19=LINE('',#642,#50);
#20=LINE('',#646,#51);
#21=LINE('',#649,#52);
#22=LINE('',#653,#53);
#23=LINE('',#657,#54);
#24=LINE('',#661,#55);
#25=LINE('',#665,#56);
#26=LINE('',#669,#57);
#27=LINE('',#676,#58);
#28=LINE('',#678,#59);
#29=LINE('',#680,#60);
#30=LINE('',#682,#61);
#31=LINE('',#684,#62);
#32=LINE('',#685,#63);
#33=LINE('',#689,#64);
#34=LINE('',#691,#65);
#35=LINE('',#693,#66);
#36=LINE('',#695,#67);
#37=LINE('',#697,#68);
#38=LINE('',#698,#69);
#39=LINE('',#702,#70);
#40=LINE('',#704,#71);
#41=LINE('',#705,#72);
#42=LINE('',#707,#73);
#43=LINE('',#709,#74);
#44=LINE('',#711,#75);
#45=LINE('',#713,#76);
#46=VECTOR('',#500,8.75);
#47=VECTOR('',#503,8.75);
#48=VECTOR('',#508,8.75);
#49=VECTOR('',#513,8.75);
#50=VECTOR('',#518,8.75);
#51=VECTOR('',#523,8.75);
#52=VECTOR('',#526,8.75);
#53=VECTOR('',#531,8.75);
#54=VECTOR('',#536,8.75);
#55=VECTOR('',#541,8.75);
#56=VECTOR('',#546,8.75);
#57=VECTOR('',#551,8.75);
#58=VECTOR('',#560,10.);
#59=VECTOR('',#561,10.);
#60=VECTOR('',#562,10.);
#61=VECTOR('',#563,10.);
#62=VECTOR('',#564,10.);
#63=VECTOR('',#565,10.);
#64=VECTOR('',#568,10.);
#65=VECTOR('',#569,10.);
#66=VECTOR('',#570,10.);
#67=VECTOR('',#571,10.);
#68=VECTOR('',#572,10.);
#69=VECTOR('',#573,10.);
#70=VECTOR('',#578,1.5);
#71=VECTOR('',#581,10.);
#72=VECTOR('',#582,10.);
#73=VECTOR('',#585,10.);
#74=VECTOR('',#588,10.);
#75=VECTOR('',#591,10.);
#76=VECTOR('',#594,10.);
#77=CYLINDRICAL_SURFACE('',#434,3.675);
#78=CYLINDRICAL_SURFACE('',#436,7.);
#79=CYLINDRICAL_SURFACE('',#438,3.675);
#80=CYLINDRICAL_SURFACE('',#440,7.);
#81=CYLINDRICAL_SURFACE('',#442,3.675);
#82=CYLINDRICAL_SURFACE('',#444,7.);
#83=CYLINDRICAL_SURFACE('',#446,3.675);
#84=CYLINDRICAL_SURFACE('',#448,7.);
#85=CYLINDRICAL_SURFACE('',#450,3.675);
#86=CYLINDRICAL_SURFACE('',#452,7.);
#87=CYLINDRICAL_SURFACE('',#454,3.675);
#88=CYLINDRICAL_SURFACE('',#456,7.);
#89=CYLINDRICAL_SURFACE('',#461,1.65);
#90=FACE_BOUND('',#116,.T.);
#91=FACE_BOUND('',#130,.T.);
#92=FACE_BOUND('',#132,.T.);
#93=FACE_OUTER_BOUND('',#115,.T.);
#94=FACE_OUTER_BOUND('',#117,.T.);
#95=FACE_OUTER_BOUND('',#118,.T.);
#96=FACE_OUTER_BOUND('',#119,.T.);
#97=FACE_OUTER_BOUND('',#120,.T.);
#98=FACE_OUTER_BOUND('',#121,.T.);
#99=FACE_OUTER_BOUND('',#122,.T.);
#100=FACE_OUTER_BOUND('',#123,.T.);
#101=FACE_OUTER_BOUND('',#124,.T.);
#102=FACE_OUTER_BOUND('',#125,.T.);
#103=FACE_OUTER_BOUND('',#126,.T.);
#104=FACE_OUTER_BOUND('',#127,.T.);
#105=FACE_OUTER_BOUND('',#128,.T.);
#106=FACE_OUTER_BOUND('',#129,.T.);
#107=FACE_OUTER_BOUND('',#131,.T.);
#108=FACE_OUTER_BOUND('',#133,.T.);
#109=FACE_OUTER_BOUND('',#134,.T.);
#110=FACE_OUTER_BOUND('',#135,.T.);
#111=FACE_OUTER_BOUND('',#136,.T.);
#112=FACE_OUTER_BOUND('',#137,.T.);
#113=FACE_OUTER_BOUND('',#138,.T.);
#114=FACE_OUTER_BOUND('',#139,.T.);
#115=EDGE_LOOP('',(#261,#262,#263,#264,#265,#266,#267,#268,#269,#270,#271,
#272));
#116=EDGE_LOOP('',(#273));
#117=EDGE_LOOP('',(#274,#275,#276,#277));
#118=EDGE_LOOP('',(#278,#279,#280,#281));
#119=EDGE_LOOP('',(#282,#283,#284,#285));
#120=EDGE_LOOP('',(#286,#287,#288,#289));
#121=EDGE_LOOP('',(#290,#291,#292,#293));
#122=EDGE_LOOP('',(#294,#295,#296,#297));
#123=EDGE_LOOP('',(#298,#299,#300,#301));
#124=EDGE_LOOP('',(#302,#303,#304,#305));
#125=EDGE_LOOP('',(#306,#307,#308,#309));
#126=EDGE_LOOP('',(#310,#311,#312,#313));
#127=EDGE_LOOP('',(#314,#315,#316,#317));
#128=EDGE_LOOP('',(#318,#319,#320,#321));
#129=EDGE_LOOP('',(#322,#323,#324,#325,#326,#327,#328,#329,#330,#331,#332,
#333));
#130=EDGE_LOOP('',(#334,#335,#336,#337,#338,#339));
#131=EDGE_LOOP('',(#340,#341,#342,#343,#344,#345));
#132=EDGE_LOOP('',(#346));
#133=EDGE_LOOP('',(#347,#348,#349,#350));
#134=EDGE_LOOP('',(#351,#352,#353,#354));
#135=EDGE_LOOP('',(#355,#356,#357,#358));
#136=EDGE_LOOP('',(#359,#360,#361,#362));
#137=EDGE_LOOP('',(#363,#364,#365,#366));
#138=EDGE_LOOP('',(#367,#368,#369,#370));
#139=EDGE_LOOP('',(#371,#372,#373,#374));
#140=CIRCLE('',#421,7.);
#141=CIRCLE('',#422,3.675);
#142=CIRCLE('',#423,7.);
#143=CIRCLE('',#424,3.675);
#144=CIRCLE('',#425,7.);
#145=CIRCLE('',#426,3.675);
#146=CIRCLE('',#427,7.);
#147=CIRCLE('',#428,3.675);
#148=CIRCLE('',#429,7.);
#149=CIRCLE('',#430,3.675);
#150=CIRCLE('',#431,7.);
#151=CIRCLE('',#432,3.675);
#152=CIRCLE('',#433,1.65);
#153=CIRCLE('',#435,3.675);
#154=CIRCLE('',#437,7.);
#155=CIRCLE('',#439,3.675);
#156=CIRCLE('',#441,7.);
#157=CIRCLE('',#443,3.675);
#158=CIRCLE('',#445,7.);
#159=CIRCLE('',#447,3.675);
#160=CIRCLE('',#449,7.);
#161=CIRCLE('',#451,3.675);
#162=CIRCLE('',#453,7.);
#163=CIRCLE('',#455,3.675);
#164=CIRCLE('',#457,7.);
#165=CIRCLE('',#460,1.65);
#166=VERTEX_POINT('',#599);
#167=VERTEX_POINT('',#600);
#168=VERTEX_POINT('',#602);
#169=VERTEX_POINT('',#604);
#170=VERTEX_POINT('',#606);
#171=VERTEX_POINT('',#608);
#172=VERTEX_POINT('',#610);
#173=VERTEX_POINT('',#612);
#174=VERTEX_POINT('',#614);
#175=VERTEX_POINT('',#616);
#176=VERTEX_POINT('',#618);
#177=VERTEX_POINT('',#620);
#178=VERTEX_POINT('',#623);
#179=VERTEX_POINT('',#626);
#180=VERTEX_POINT('',#628);
#181=VERTEX_POINT('',#632);
#182=VERTEX_POINT('',#636);
#183=VERTEX_POINT('',#640);
#184=VERTEX_POINT('',#644);
#185=VERTEX_POINT('',#648);
#186=VERTEX_POINT('',#652);
#187=VERTEX_POINT('',#656);
#188=VERTEX_POINT('',#660);
#189=VERTEX_POINT('',#664);
#190=VERTEX_POINT('',#668);
#191=VERTEX_POINT('',#674);
#192=VERTEX_POINT('',#675);
#193=VERTEX_POINT('',#677);
#194=VERTEX_POINT('',#679);
#195=VERTEX_POINT('',#681);
#196=VERTEX_POINT('',#683);
#197=VERTEX_POINT('',#687);
#198=VERTEX_POINT('',#688);
#199=VERTEX_POINT('',#690);
#200=VERTEX_POINT('',#692);
#201=VERTEX_POINT('',#694);
#202=VERTEX_POINT('',#696);
#203=VERTEX_POINT('',#699);
#204=EDGE_CURVE('',#166,#167,#140,.T.);
#205=EDGE_CURVE('',#167,#168,#141,.T.);
#206=EDGE_CURVE('',#168,#169,#142,.T.);
#207=EDGE_CURVE('',#169,#170,#143,.T.);
#208=EDGE_CURVE('',#170,#171,#144,.T.);
#209=EDGE_CURVE('',#171,#172,#145,.T.);
#210=EDGE_CURVE('',#172,#173,#146,.T.);
#211=EDGE_CURVE('',#173,#174,#147,.T.);
#212=EDGE_CURVE('',#174,#175,#148,.T.);
#213=EDGE_CURVE('',#175,#176,#149,.T.);
#214=EDGE_CURVE('',#176,#177,#150,.T.);
#215=EDGE_CURVE('',#177,#166,#151,.T.);
#216=EDGE_CURVE('',#178,#178,#152,.T.);
#217=EDGE_CURVE('',#179,#167,#15,.T.);
#218=EDGE_CURVE('',#179,#180,#153,.F.);
#219=EDGE_CURVE('',#180,#168,#16,.F.);
#220=EDGE_CURVE('',#180,#181,#154,.F.);
#221=EDGE_CURVE('',#181,#169,#17,.T.);
#222=EDGE_CURVE('',#181,#182,#155,.F.);
#223=EDGE_CURVE('',#182,#170,#18,.F.);
#224=EDGE_CURVE('',#182,#183,#156,.F.);
#225=EDGE_CURVE('',#183,#171,#19,.T.);
#226=EDGE_CURVE('',#183,#184,#157,.F.);
#227=EDGE_CURVE('',#184,#172,#20,.F.);
#228=EDGE_CURVE('',#185,#166,#21,.F.);
#229=EDGE_CURVE('',#185,#179,#158,.F.);
#230=EDGE_CURVE('',#186,#177,#22,.T.);
#231=EDGE_CURVE('',#186,#185,#159,.F.);
#232=EDGE_CURVE('',#187,#176,#23,.F.);
#233=EDGE_CURVE('',#187,#186,#160,.F.);
#234=EDGE_CURVE('',#175,#188,#24,.F.);
#235=EDGE_CURVE('',#188,#187,#161,.F.);
#236=EDGE_CURVE('',#189,#174,#25,.F.);
#237=EDGE_CURVE('',#189,#188,#162,.F.);
#238=EDGE_CURVE('',#190,#173,#26,.T.);
#239=EDGE_CURVE('',#190,#189,#163,.F.);
#240=EDGE_CURVE('',#184,#190,#164,.F.);
#241=EDGE_CURVE('',#191,#192,#27,.T.);
#242=EDGE_CURVE('',#193,#191,#28,.T.);
#243=EDGE_CURVE('',#194,#193,#29,.T.);
#244=EDGE_CURVE('',#195,#194,#30,.T.);
#245=EDGE_CURVE('',#196,#195,#31,.T.);
#246=EDGE_CURVE('',#192,#196,#32,.T.);
#247=EDGE_CURVE('',#197,#198,#33,.F.);
#248=EDGE_CURVE('',#198,#199,#34,.F.);
#249=EDGE_CURVE('',#199,#200,#35,.F.);
#250=EDGE_CURVE('',#200,#201,#36,.F.);
#251=EDGE_CURVE('',#201,#202,#37,.F.);
#252=EDGE_CURVE('',#202,#197,#38,.F.);
#253=EDGE_CURVE('',#203,#203,#165,.T.);
#254=EDGE_CURVE('',#178,#203,#39,.T.);
#255=EDGE_CURVE('',#196,#197,#40,.T.);
#256=EDGE_CURVE('',#195,#198,#41,.F.);
#257=EDGE_CURVE('',#194,#199,#42,.T.);
#258=EDGE_CURVE('',#193,#200,#43,.T.);
#259=EDGE_CURVE('',#201,#191,#44,.F.);
#260=EDGE_CURVE('',#192,#202,#45,.T.);
#261=ORIENTED_EDGE('',*,*,#204,.T.);
#262=ORIENTED_EDGE('',*,*,#205,.T.);
#263=ORIENTED_EDGE('',*,*,#206,.T.);
#264=ORIENTED_EDGE('',*,*,#207,.T.);
#265=ORIENTED_EDGE('',*,*,#208,.T.);
#266=ORIENTED_EDGE('',*,*,#209,.T.);
#267=ORIENTED_EDGE('',*,*,#210,.T.);
#268=ORIENTED_EDGE('',*,*,#211,.T.);
#269=ORIENTED_EDGE('',*,*,#212,.T.);
#270=ORIENTED_EDGE('',*,*,#213,.T.);
#271=ORIENTED_EDGE('',*,*,#214,.T.);
#272=ORIENTED_EDGE('',*,*,#215,.T.);
#273=ORIENTED_EDGE('',*,*,#216,.T.);
#274=ORIENTED_EDGE('',*,*,#205,.F.);
#275=ORIENTED_EDGE('',*,*,#217,.F.);
#276=ORIENTED_EDGE('',*,*,#218,.T.);
#277=ORIENTED_EDGE('',*,*,#219,.T.);
#278=ORIENTED_EDGE('',*,*,#206,.F.);
#279=ORIENTED_EDGE('',*,*,#219,.F.);
#280=ORIENTED_EDGE('',*,*,#220,.T.);
#281=ORIENTED_EDGE('',*,*,#221,.T.);
#282=ORIENTED_EDGE('',*,*,#207,.F.);
#283=ORIENTED_EDGE('',*,*,#221,.F.);
#284=ORIENTED_EDGE('',*,*,#222,.T.);
#285=ORIENTED_EDGE('',*,*,#223,.T.);
#286=ORIENTED_EDGE('',*,*,#208,.F.);
#287=ORIENTED_EDGE('',*,*,#223,.F.);
#288=ORIENTED_EDGE('',*,*,#224,.T.);
#289=ORIENTED_EDGE('',*,*,#225,.T.);
#290=ORIENTED_EDGE('',*,*,#209,.F.);
#291=ORIENTED_EDGE('',*,*,#225,.F.);
#292=ORIENTED_EDGE('',*,*,#226,.T.);
#293=ORIENTED_EDGE('',*,*,#227,.T.);
#294=ORIENTED_EDGE('',*,*,#204,.F.);
#295=ORIENTED_EDGE('',*,*,#228,.F.);
#296=ORIENTED_EDGE('',*,*,#229,.T.);
#297=ORIENTED_EDGE('',*,*,#217,.T.);
#298=ORIENTED_EDGE('',*,*,#215,.F.);
#299=ORIENTED_EDGE('',*,*,#230,.F.);
#300=ORIENTED_EDGE('',*,*,#231,.T.);
#301=ORIENTED_EDGE('',*,*,#228,.T.);
#302=ORIENTED_EDGE('',*,*,#214,.F.);
#303=ORIENTED_EDGE('',*,*,#232,.F.);
#304=ORIENTED_EDGE('',*,*,#233,.T.);
#305=ORIENTED_EDGE('',*,*,#230,.T.);
#306=ORIENTED_EDGE('',*,*,#213,.F.);
#307=ORIENTED_EDGE('',*,*,#234,.T.);
#308=ORIENTED_EDGE('',*,*,#235,.T.);
#309=ORIENTED_EDGE('',*,*,#232,.T.);
#310=ORIENTED_EDGE('',*,*,#212,.F.);
#311=ORIENTED_EDGE('',*,*,#236,.F.);
#312=ORIENTED_EDGE('',*,*,#237,.T.);
#313=ORIENTED_EDGE('',*,*,#234,.F.);
#314=ORIENTED_EDGE('',*,*,#211,.F.);
#315=ORIENTED_EDGE('',*,*,#238,.F.);
#316=ORIENTED_EDGE('',*,*,#239,.T.);
#317=ORIENTED_EDGE('',*,*,#236,.T.);
#318=ORIENTED_EDGE('',*,*,#210,.F.);
#319=ORIENTED_EDGE('',*,*,#227,.F.);
#320=ORIENTED_EDGE('',*,*,#240,.T.);
#321=ORIENTED_EDGE('',*,*,#238,.T.);
#322=ORIENTED_EDGE('',*,*,#226,.F.);
#323=ORIENTED_EDGE('',*,*,#224,.F.);
#324=ORIENTED_EDGE('',*,*,#222,.F.);
#325=ORIENTED_EDGE('',*,*,#220,.F.);
#326=ORIENTED_EDGE('',*,*,#218,.F.);
#327=ORIENTED_EDGE('',*,*,#229,.F.);
#328=ORIENTED_EDGE('',*,*,#231,.F.);
#329=ORIENTED_EDGE('',*,*,#233,.F.);
#330=ORIENTED_EDGE('',*,*,#235,.F.);
#331=ORIENTED_EDGE('',*,*,#237,.F.);
#332=ORIENTED_EDGE('',*,*,#239,.F.);
#333=ORIENTED_EDGE('',*,*,#240,.F.);
#334=ORIENTED_EDGE('',*,*,#241,.F.);
#335=ORIENTED_EDGE('',*,*,#242,.F.);
#336=ORIENTED_EDGE('',*,*,#243,.F.);
#337=ORIENTED_EDGE('',*,*,#244,.F.);
#338=ORIENTED_EDGE('',*,*,#245,.F.);
#339=ORIENTED_EDGE('',*,*,#246,.F.);
#340=ORIENTED_EDGE('',*,*,#247,.T.);
#341=ORIENTED_EDGE('',*,*,#248,.T.);
#342=ORIENTED_EDGE('',*,*,#249,.T.);
#343=ORIENTED_EDGE('',*,*,#250,.T.);
#344=ORIENTED_EDGE('',*,*,#251,.T.);
#345=ORIENTED_EDGE('',*,*,#252,.T.);
#346=ORIENTED_EDGE('',*,*,#253,.F.);
#347=ORIENTED_EDGE('',*,*,#216,.F.);
#348=ORIENTED_EDGE('',*,*,#254,.T.);
#349=ORIENTED_EDGE('',*,*,#253,.T.);
#350=ORIENTED_EDGE('',*,*,#254,.F.);
#351=ORIENTED_EDGE('',*,*,#255,.F.);
#352=ORIENTED_EDGE('',*,*,#245,.T.);
#353=ORIENTED_EDGE('',*,*,#256,.T.);
#354=ORIENTED_EDGE('',*,*,#247,.F.);
#355=ORIENTED_EDGE('',*,*,#256,.F.);
#356=ORIENTED_EDGE('',*,*,#244,.T.);
#357=ORIENTED_EDGE('',*,*,#257,.T.);
#358=ORIENTED_EDGE('',*,*,#248,.F.);
#359=ORIENTED_EDGE('',*,*,#257,.F.);
#360=ORIENTED_EDGE('',*,*,#243,.T.);
#361=ORIENTED_EDGE('',*,*,#258,.T.);
#362=ORIENTED_EDGE('',*,*,#249,.F.);
#363=ORIENTED_EDGE('',*,*,#258,.F.);
#364=ORIENTED_EDGE('',*,*,#242,.T.);
#365=ORIENTED_EDGE('',*,*,#259,.F.);
#366=ORIENTED_EDGE('',*,*,#250,.F.);
#367=ORIENTED_EDGE('',*,*,#260,.T.);
#368=ORIENTED_EDGE('',*,*,#251,.F.);
#369=ORIENTED_EDGE('',*,*,#259,.T.);
#370=ORIENTED_EDGE('',*,*,#241,.T.);
#371=ORIENTED_EDGE('',*,*,#255,.T.);
#372=ORIENTED_EDGE('',*,*,#252,.F.);
#373=ORIENTED_EDGE('',*,*,#260,.F.);
#374=ORIENTED_EDGE('',*,*,#246,.T.);
#375=PLANE('',#420);
#376=PLANE('',#458);
#377=PLANE('',#459);
#378=PLANE('',#462);
#379=PLANE('',#463);
#380=PLANE('',#464);
#381=PLANE('',#465);
#382=PLANE('',#466);
#383=PLANE('',#467);
#384=ADVANCED_FACE('',(#93,#90),#375,.F.);
#385=ADVANCED_FACE('',(#94),#77,.F.);
#386=ADVANCED_FACE('',(#95),#78,.T.);
#387=ADVANCED_FACE('',(#96),#79,.F.);
#388=ADVANCED_FACE('',(#97),#80,.T.);
#389=ADVANCED_FACE('',(#98),#81,.F.);
#390=ADVANCED_FACE('',(#99),#82,.T.);
#391=ADVANCED_FACE('',(#100),#83,.F.);
#392=ADVANCED_FACE('',(#101),#84,.T.);
#393=ADVANCED_FACE('',(#102),#85,.F.);
#394=ADVANCED_FACE('',(#103),#86,.T.);
#395=ADVANCED_FACE('',(#104),#87,.F.);
#396=ADVANCED_FACE('',(#105),#88,.T.);
#397=ADVANCED_FACE('',(#106,#91),#376,.F.);
#398=ADVANCED_FACE('',(#107,#92),#377,.T.);
#399=ADVANCED_FACE('',(#108),#89,.F.);
#400=ADVANCED_FACE('',(#109),#378,.T.);
#401=ADVANCED_FACE('',(#110),#379,.T.);
#402=ADVANCED_FACE('',(#111),#380,.T.);
#403=ADVANCED_FACE('',(#112),#381,.T.);
#404=ADVANCED_FACE('',(#113),#382,.T.);
#405=ADVANCED_FACE('',(#114),#383,.T.);
#406=CLOSED_SHELL('',(#384,#385,#386,#387,#388,#389,#390,#391,#392,#393,
#394,#395,#396,#397,#398,#399,#400,#401,#402,#403,#404,#405));
#407=DERIVED_UNIT_ELEMENT(#409,1.);
#408=DERIVED_UNIT_ELEMENT(#720,-3.);
#409=(
MASS_UNIT()
NAMED_UNIT(*)
SI_UNIT(.KILO.,.GRAM.)
);
#410=DERIVED_UNIT((#407,#408));
#411=MEASURE_REPRESENTATION_ITEM('density measure',
POSITIVE_RATIO_MEASURE(7850.),#410);
#412=PROPERTY_DEFINITION_REPRESENTATION(#417,#414);
#413=PROPERTY_DEFINITION_REPRESENTATION(#418,#415);
#414=REPRESENTATION('material name',(#416),#717);
#415=REPRESENTATION('density',(#411),#717);
#416=DESCRIPTIVE_REPRESENTATION_ITEM('Steel','Steel');
#417=PROPERTY_DEFINITION('material property','material name',#727);
#418=PROPERTY_DEFINITION('material property','density of part',#727);
#419=AXIS2_PLACEMENT_3D('',#597,#468,#469);
#420=AXIS2_PLACEMENT_3D('',#598,#470,#471);
#421=AXIS2_PLACEMENT_3D('',#601,#472,#473);
#422=AXIS2_PLACEMENT_3D('',#603,#474,#475);
#423=AXIS2_PLACEMENT_3D('',#605,#476,#477);
#424=AXIS2_PLACEMENT_3D('',#607,#478,#479);
#425=AXIS2_PLACEMENT_3D('',#609,#480,#481);
#426=AXIS2_PLACEMENT_3D('',#611,#482,#483);
#427=AXIS2_PLACEMENT_3D('',#613,#484,#485);
#428=AXIS2_PLACEMENT_3D('',#615,#486,#487);
#429=AXIS2_PLACEMENT_3D('',#617,#488,#489);
#430=AXIS2_PLACEMENT_3D('',#619,#490,#491);
#431=AXIS2_PLACEMENT_3D('',#621,#492,#493);
#432=AXIS2_PLACEMENT_3D('',#622,#494,#495);
#433=AXIS2_PLACEMENT_3D('',#624,#496,#497);
#434=AXIS2_PLACEMENT_3D('',#625,#498,#499);
#435=AXIS2_PLACEMENT_3D('',#629,#501,#502);
#436=AXIS2_PLACEMENT_3D('',#631,#504,#505);
#437=AXIS2_PLACEMENT_3D('',#633,#506,#507);
#438=AXIS2_PLACEMENT_3D('',#635,#509,#510);
#439=AXIS2_PLACEMENT_3D('',#637,#511,#512);
#440=AXIS2_PLACEMENT_3D('',#639,#514,#515);
#441=AXIS2_PLACEMENT_3D('',#641,#516,#517);
#442=AXIS2_PLACEMENT_3D('',#643,#519,#520);
#443=AXIS2_PLACEMENT_3D('',#645,#521,#522);
#444=AXIS2_PLACEMENT_3D('',#647,#524,#525);
#445=AXIS2_PLACEMENT_3D('',#650,#527,#528);
#446=AXIS2_PLACEMENT_3D('',#651,#529,#530);
#447=AXIS2_PLACEMENT_3D('',#654,#532,#533);
#448=AXIS2_PLACEMENT_3D('',#655,#534,#535);
#449=AXIS2_PLACEMENT_3D('',#658,#537,#538);
#450=AXIS2_PLACEMENT_3D('',#659,#539,#540);
#451=AXIS2_PLACEMENT_3D('',#662,#542,#543);
#452=AXIS2_PLACEMENT_3D('',#663,#544,#545);
#453=AXIS2_PLACEMENT_3D('',#666,#547,#548);
#454=AXIS2_PLACEMENT_3D('',#667,#549,#550);
#455=AXIS2_PLACEMENT_3D('',#670,#552,#553);
#456=AXIS2_PLACEMENT_3D('',#671,#554,#555);
#457=AXIS2_PLACEMENT_3D('',#672,#556,#557);
#458=AXIS2_PLACEMENT_3D('',#673,#558,#559);
#459=AXIS2_PLACEMENT_3D('',#686,#566,#567);
#460=AXIS2_PLACEMENT_3D('',#700,#574,#575);
#461=AXIS2_PLACEMENT_3D('',#701,#576,#577);
#462=AXIS2_PLACEMENT_3D('',#703,#579,#580);
#463=AXIS2_PLACEMENT_3D('',#706,#583,#584);
#464=AXIS2_PLACEMENT_3D('',#708,#586,#587);
#465=AXIS2_PLACEMENT_3D('',#710,#589,#590);
#466=AXIS2_PLACEMENT_3D('',#712,#592,#593);
#467=AXIS2_PLACEMENT_3D('',#714,#595,#596);
#468=DIRECTION('axis',(0.,0.,1.));
#469=DIRECTION('refdir',(1.,0.,0.));
#470=DIRECTION('center_axis',(-1.,1.07216762984386E-30,6.35033028702915E-29));
#471=DIRECTION('ref_axis',(1.07739607780373E-30,1.,-1.20808412913846E-28));
#472=DIRECTION('center_axis',(1.,-1.07216762984386E-30,-6.35033028702915E-29));
#473=DIRECTION('ref_axis',(6.35033028702914E-29,2.22044616505682E-16,1.));
#474=DIRECTION('center_axis',(-1.,1.07216762984386E-30,6.35033028702915E-29));
#475=DIRECTION('ref_axis',(-3.26652763845357E-29,-0.866025403784439,-0.5));
#476=DIRECTION('center_axis',(1.,-1.07216762984386E-30,-6.35033028702915E-29));
#477=DIRECTION('ref_axis',(6.35033028702914E-29,2.22044616505682E-16,1.));
#478=DIRECTION('center_axis',(-1.,1.07216762984386E-30,6.35033028702915E-29));
#479=DIRECTION('ref_axis',(-6.3717958898923E-29,-3.44509284839888E-16,-1.));
#480=DIRECTION('center_axis',(1.,-1.07216762984386E-30,-6.35033028702915E-29));
#481=DIRECTION('ref_axis',(6.35033028702914E-29,2.22044616505682E-16,1.));
#482=DIRECTION('center_axis',(-1.,1.07216762984386E-30,6.35033028702915E-29));
#483=DIRECTION('ref_axis',(-3.07843624785979E-29,0.866025403784438,-0.500000000000001));
#484=DIRECTION('center_axis',(1.,-1.07216762984386E-30,-6.35033028702915E-29));
#485=DIRECTION('ref_axis',(6.35033028702914E-29,2.22044616505682E-16,1.));
#486=DIRECTION('center_axis',(-1.,1.07216762984386E-30,6.35033028702915E-29));
#487=DIRECTION('ref_axis',(3.26652763845357E-29,0.866025403784439,0.499999999999999));
#488=DIRECTION('center_axis',(1.,-1.07216762984386E-30,-6.35033028702915E-29));
#489=DIRECTION('ref_axis',(6.35033028702914E-29,2.22044616505682E-16,1.));
#490=DIRECTION('center_axis',(-1.,1.07216762984386E-30,6.35033028702915E-29));
#491=DIRECTION('ref_axis',(6.3717958898923E-29,2.22044604925152E-16,1.));
#492=DIRECTION('center_axis',(1.,-1.07216762984386E-30,-6.35033028702915E-29));
#493=DIRECTION('ref_axis',(6.35033028702914E-29,2.22044616505682E-16,1.));
#494=DIRECTION('center_axis',(-1.,1.07216762984386E-30,6.35033028702915E-29));
#495=DIRECTION('ref_axis',(3.07843624785979E-29,-0.866025403784438,0.5));
#496=DIRECTION('center_axis',(-1.,2.61955389597694E-32,2.07805191078644E-48));
#497=DIRECTION('ref_axis',(2.61955389597694E-32,1.,0.));
#498=DIRECTION('center_axis',(-1.,1.07062399417225E-30,6.31088724176809E-29));
#499=DIRECTION('ref_axis',(-3.24667243305246E-29,-0.866025403784439,-0.5));
#500=DIRECTION('',(1.,-1.07942824534659E-30,-6.31088724176809E-29));
#501=DIRECTION('center_axis',(1.,-1.07062399417225E-30,-6.31088724176809E-29));
#502=DIRECTION('ref_axis',(-3.24667243305246E-29,-0.866025403784439,-0.5));
#503=DIRECTION('',(-1.,1.07942824534659E-30,6.31088724176809E-29));
#504=DIRECTION('center_axis',(1.,-1.07062399417225E-30,-6.31088724176809E-29));
#505=DIRECTION('ref_axis',(6.31088724176809E-29,2.22044616505682E-16,1.));
#506=DIRECTION('center_axis',(-1.,1.07062399417225E-30,6.31088724176809E-29));
#507=DIRECTION('ref_axis',(6.31088724176809E-29,2.22044616505682E-16,1.));
#508=DIRECTION('',(1.,-1.07942824534659E-30,-6.31088724176809E-29));
#509=DIRECTION('center_axis',(-1.,1.07062399417225E-30,6.31088724176809E-29));
#510=DIRECTION('ref_axis',(-6.33235284463125E-29,-3.44509284839888E-16,
-1.));
#511=DIRECTION('center_axis',(1.,-1.07062399417225E-30,-6.31088724176809E-29));
#512=DIRECTION('ref_axis',(-6.33235284463125E-29,-3.44509284839888E-16,
-1.));
#513=DIRECTION('',(-1.,1.07942824534659E-30,6.31088724176809E-29));
#514=DIRECTION('center_axis',(1.,-1.07062399417225E-30,-6.31088724176809E-29));
#515=DIRECTION('ref_axis',(6.31088724176809E-29,2.22044616505682E-16,1.));
#516=DIRECTION('center_axis',(-1.,1.07062399417225E-30,6.31088724176809E-29));
#517=DIRECTION('ref_axis',(6.31088724176809E-29,2.22044616505682E-16,1.));
#518=DIRECTION('',(1.,-1.07942824534659E-30,-6.31088724176809E-29));
#519=DIRECTION('center_axis',(-1.,1.07062399417225E-30,6.31088724176809E-29));
#520=DIRECTION('ref_axis',(-3.05884840799984E-29,0.866025403784438,-0.500000000000001));
#521=DIRECTION('center_axis',(1.,-1.07062399417225E-30,-6.31088724176809E-29));
#522=DIRECTION('ref_axis',(-3.05884840799984E-29,0.866025403784438,-0.500000000000001));
#523=DIRECTION('',(-1.,1.07942824534659E-30,6.31088724176809E-29));
#524=DIRECTION('center_axis',(1.,-1.07062399417225E-30,-6.31088724176809E-29));
#525=DIRECTION('ref_axis',(-6.31088724176809E-29,-3.00904455552079E-15,
-1.));
#526=DIRECTION('',(-1.,1.07942824534659E-30,6.31088724176809E-29));
#527=DIRECTION('center_axis',(-1.,1.07062399417225E-30,6.31088724176809E-29));
#528=DIRECTION('ref_axis',(6.31088724176809E-29,2.22044616505682E-16,1.));
#529=DIRECTION('center_axis',(-1.,1.07062399417225E-30,6.31088724176809E-29));
#530=DIRECTION('ref_axis',(3.05884840799984E-29,-0.866025403784438,0.5));
#531=DIRECTION('',(1.,-1.07942824534659E-30,-6.31088724176809E-29));
#532=DIRECTION('center_axis',(1.,-1.07062399417225E-30,-6.31088724176809E-29));
#533=DIRECTION('ref_axis',(3.05884840799984E-29,-0.866025403784438,0.5));
#534=DIRECTION('center_axis',(1.,-1.07062399417225E-30,-6.31088724176809E-29));
#535=DIRECTION('ref_axis',(6.31088724176809E-29,2.22044616505682E-16,1.));
#536=DIRECTION('',(-1.,1.07942824534659E-30,6.31088724176809E-29));
#537=DIRECTION('center_axis',(-1.,1.07062399417225E-30,6.31088724176809E-29));
#538=DIRECTION('ref_axis',(6.31088724176809E-29,2.22044616505682E-16,1.));
#539=DIRECTION('center_axis',(-1.,1.07062399417225E-30,6.31088724176809E-29));
#540=DIRECTION('ref_axis',(6.33235284463125E-29,2.22044604925152E-16,1.));
#541=DIRECTION('',(1.,-1.07942824534659E-30,-6.31088724176809E-29));
#542=DIRECTION('center_axis',(1.,-1.07062399417225E-30,-6.31088724176809E-29));
#543=DIRECTION('ref_axis',(6.33235284463125E-29,2.22044604925152E-16,1.));
#544=DIRECTION('center_axis',(1.,-1.07062399417225E-30,-6.31088724176809E-29));
#545=DIRECTION('ref_axis',(6.31088724176809E-29,2.22044616505682E-16,1.));
#546=DIRECTION('',(-1.,1.07942824534659E-30,6.31088724176809E-29));
#547=DIRECTION('center_axis',(-1.,1.07062399417225E-30,6.31088724176809E-29));
#548=DIRECTION('ref_axis',(6.31088724176809E-29,2.22044616505682E-16,1.));
#549=DIRECTION('center_axis',(-1.,1.07062399417225E-30,6.31088724176809E-29));
#550=DIRECTION('ref_axis',(3.24667243305246E-29,0.866025403784439,0.499999999999999));
#551=DIRECTION('',(1.,-1.07942824534659E-30,-6.31088724176809E-29));
#552=DIRECTION('center_axis',(1.,-1.07062399417225E-30,-6.31088724176809E-29));
#553=DIRECTION('ref_axis',(3.24667243305246E-29,0.866025403784439,0.499999999999999));
#554=DIRECTION('center_axis',(1.,-1.07062399417225E-30,-6.31088724176809E-29));
#555=DIRECTION('ref_axis',(6.31088724176809E-29,2.22044616505682E-16,1.));
#556=DIRECTION('center_axis',(-1.,1.07062399417225E-30,6.31088724176809E-29));
#557=DIRECTION('ref_axis',(6.31088724176809E-29,2.22044616505682E-16,1.));
#558=DIRECTION('center_axis',(1.,-2.61955389597694E-32,4.93038065763132E-32));
#559=DIRECTION('ref_axis',(-4.93038065763132E-32,2.2204461650556E-16,1.));
#560=DIRECTION('',(4.93038065763132E-32,-2.22044604925031E-16,-1.));
#561=DIRECTION('',(4.73379054931419E-32,0.866025403784438,-0.5));
#562=DIRECTION('',(-1.96590108317135E-33,0.866025403784439,0.5));
#563=DIRECTION('',(-4.93038065763132E-32,2.22044604925031E-16,1.));
#564=DIRECTION('',(-4.73379054931419E-32,-0.866025403784438,0.5));
#565=DIRECTION('',(1.96590108317135E-33,-0.866025403784439,-0.5));
#566=DIRECTION('center_axis',(-1.,2.61955389597694E-32,2.07805191078644E-48));
#567=DIRECTION('ref_axis',(2.61955389597694E-32,1.,0.));
#568=DIRECTION('',(2.26860022049853E-32,0.866025403784438,-0.5));
#569=DIRECTION('',(-7.89463000990671E-48,-2.22044604925031E-16,-1.));
#570=DIRECTION('',(-2.26860022049853E-32,-0.866025403784439,-0.5));
#571=DIRECTION('',(-2.26860022049853E-32,-0.866025403784438,0.5));
#572=DIRECTION('',(7.89463000990671E-48,2.22044604925031E-16,1.));
#573=DIRECTION('',(2.26860022049853E-32,0.866025403784439,0.5));
#574=DIRECTION('center_axis',(-1.,2.61955389597694E-32,2.07805191078644E-48));
#575=DIRECTION('ref_axis',(2.61955389597694E-32,1.,0.));
#576=DIRECTION('center_axis',(-1.,2.61955389597694E-32,0.));
#577=DIRECTION('ref_axis',(2.61955389597694E-32,1.,0.));
#578=DIRECTION('',(-1.,2.61955389597694E-32,0.));
#579=DIRECTION('center_axis',(1.30977694798847E-32,0.5,0.866025403784438));
#580=DIRECTION('ref_axis',(-2.26860022049853E-32,-0.866025403784438,0.5));
#581=DIRECTION('',(1.,-2.61955389597694E-32,2.07805191078644E-48));
#582=DIRECTION('',(-1.,2.61955389597694E-32,-2.07805191078644E-48));
#583=DIRECTION('center_axis',(2.61955389597694E-32,1.,-2.22044604925031E-16));
#584=DIRECTION('ref_axis',(7.89463000990671E-48,2.22044604925031E-16,1.));
#585=DIRECTION('',(1.,-2.61955389597694E-32,2.07805191078644E-48));
#586=DIRECTION('center_axis',(1.30977694798847E-32,0.5,-0.866025403784439));
#587=DIRECTION('ref_axis',(2.26860022049853E-32,0.866025403784439,0.5));
#588=DIRECTION('',(1.,-2.61955389597694E-32,2.07805191078644E-48));
#589=DIRECTION('center_axis',(-1.30977694798847E-32,-0.5,-0.866025403784438));
#590=DIRECTION('ref_axis',(2.26860022049853E-32,0.866025403784438,-0.5));
#591=DIRECTION('',(1.,-2.61955389597694E-32,2.07805191078644E-48));
#592=DIRECTION('center_axis',(-2.61955389597694E-32,-1.,2.22044604925031E-16));
#593=DIRECTION('ref_axis',(-7.89463000990671E-48,-2.22044604925031E-16,
-1.));
#594=DIRECTION('',(1.,-2.61955389597694E-32,2.07805191078644E-48));
#595=DIRECTION('center_axis',(-1.30977694798847E-32,-0.5,0.866025403784439));
#596=DIRECTION('ref_axis',(-2.26860022049853E-32,-0.866025403784439,-0.5));
#597=CARTESIAN_POINT('',(0.,0.,0.));
#598=CARTESIAN_POINT('Origin',(-21.4743549965151,76.4880178177765,-92.7826020733916));
#599=CARTESIAN_POINT('',(-21.4743549965151,75.0562600923728,-99.6346141731874));
#600=CARTESIAN_POINT('',(-21.4743549965151,77.9197755431801,-99.6346141731874));
#601=CARTESIAN_POINT('Origin',(-21.4743549965151,76.4880178177765,-92.7826020733917));
#602=CARTESIAN_POINT('',(-21.4743549965151,81.7061555005361,-97.4485466855537));
#603=CARTESIAN_POINT('Origin',(-21.4743549965151,81.2900178177765,-101.099910051337));
#604=CARTESIAN_POINT('',(-21.4743549965151,83.1379132259397,-94.9686695610254));
#605=CARTESIAN_POINT('Origin',(-21.4743549965151,76.4880178177765,-92.7826020733917));
#606=CARTESIAN_POINT('',(-21.4743549965151,83.1379132259397,-90.596534585758));
#607=CARTESIAN_POINT('Origin',(-21.4743549965151,86.0920178177765,-92.7826020733917));
#608=CARTESIAN_POINT('',(-21.4743549965151,81.7061555005361,-88.1166574612297));
#609=CARTESIAN_POINT('Origin',(-21.4743549965151,76.4880178177765,-92.7826020733917));
#610=CARTESIAN_POINT('',(-21.4743549965151,77.9197755431801,-85.930589973596));
#611=CARTESIAN_POINT('Origin',(-21.4743549965151,81.2900178177765,-84.465294095446));
#612=CARTESIAN_POINT('',(-21.4743549965151,75.0562600923729,-85.930589973596));
#613=CARTESIAN_POINT('Origin',(-21.4743549965151,76.4880178177765,-92.7826020733917));
#614=CARTESIAN_POINT('',(-21.4743549965151,71.2698801350168,-88.1166574612297));
#615=CARTESIAN_POINT('Origin',(-21.4743549965151,71.6860178177765,-84.465294095446));
#616=CARTESIAN_POINT('',(-21.4743549965151,69.8381224096132,-90.596534585758));
#617=CARTESIAN_POINT('Origin',(-21.4743549965151,76.4880178177765,-92.7826020733917));
#618=CARTESIAN_POINT('',(-21.4743549965151,69.8381224096132,-94.9686695610254));
#619=CARTESIAN_POINT('Origin',(-21.4743549965151,66.8840178177765,-92.7826020733917));
#620=CARTESIAN_POINT('',(-21.4743549965151,71.2698801350168,-97.4485466855538));
#621=CARTESIAN_POINT('Origin',(-21.4743549965151,76.4880178177765,-92.7826020733917));
#622=CARTESIAN_POINT('Origin',(-21.4743549965151,71.6860178177764,-101.099910051337));
#623=CARTESIAN_POINT('',(-21.4743558458187,74.8380178124159,-92.7826020829324));
#624=CARTESIAN_POINT('Origin',(-21.4743558458187,76.4880178124159,-92.7826020829324));
#625=CARTESIAN_POINT('Origin',(-29.7751058458188,81.2900178177765,-101.099910051337));
#626=CARTESIAN_POINT('',(-27.9743558458188,77.9197755431801,-99.6346141731874));
#627=CARTESIAN_POINT('',(-29.7751058458188,77.9197755431801,-99.6346141731874));
#628=CARTESIAN_POINT('',(-27.9743558458188,81.7061555005361,-97.4485466855537));
#629=CARTESIAN_POINT('Origin',(-27.9743558458188,81.2900178177765,-101.099910051337));
#630=CARTESIAN_POINT('',(-29.7751058458188,81.7061555005361,-97.4485466855537));
#631=CARTESIAN_POINT('Origin',(-23.1723558458188,76.4880178177765,-92.7826020733917));
#632=CARTESIAN_POINT('',(-27.9743558458188,83.1379132259397,-94.9686695610254));
#633=CARTESIAN_POINT('Origin',(-27.9743558458188,76.4880178177765,-92.7826020733917));
#634=CARTESIAN_POINT('',(-29.7751058458188,83.1379132259397,-94.9686695610255));
#635=CARTESIAN_POINT('Origin',(-29.7751058458188,86.0920178177765,-92.7826020733917));
#636=CARTESIAN_POINT('',(-27.9743558458188,83.1379132259397,-90.596534585758));
#637=CARTESIAN_POINT('Origin',(-27.9743558458188,86.0920178177765,-92.7826020733917));
#638=CARTESIAN_POINT('',(-29.7751058458188,83.1379132259397,-90.596534585758));
#639=CARTESIAN_POINT('Origin',(-23.1723558458188,76.4880178177765,-92.7826020733917));
#640=CARTESIAN_POINT('',(-27.9743558458188,81.7061555005361,-88.1166574612297));
#641=CARTESIAN_POINT('Origin',(-27.9743558458188,76.4880178177765,-92.7826020733917));
#642=CARTESIAN_POINT('',(-29.7751058458188,81.7061555005361,-88.1166574612297));
#643=CARTESIAN_POINT('Origin',(-29.7751058458188,81.2900178177765,-84.465294095446));
#644=CARTESIAN_POINT('',(-27.9743558458188,77.9197755431801,-85.930589973596));
#645=CARTESIAN_POINT('Origin',(-27.9743558458188,81.2900178177765,-84.4652940954459));
#646=CARTESIAN_POINT('',(-29.7751058458188,77.9197755431801,-85.930589973596));
#647=CARTESIAN_POINT('Origin',(-23.1723558458188,76.4880178177765,-92.7826020733917));
#648=CARTESIAN_POINT('',(-27.9743558458188,75.0562600923728,-99.6346141731874));
#649=CARTESIAN_POINT('',(-29.7751058458188,75.0562600923728,-99.6346141731874));
#650=CARTESIAN_POINT('Origin',(-27.9743558458188,76.4880178177765,-92.7826020733917));
#651=CARTESIAN_POINT('Origin',(-29.7751058458188,71.6860178177764,-101.099910051337));
#652=CARTESIAN_POINT('',(-27.9743558458188,71.2698801350168,-97.4485466855538));
#653=CARTESIAN_POINT('',(-29.7751058458188,71.2698801350169,-97.4485466855537));
#654=CARTESIAN_POINT('Origin',(-27.9743558458188,71.6860178177764,-101.099910051337));
#655=CARTESIAN_POINT('Origin',(-23.1723558458188,76.4880178177765,-92.7826020733917));
#656=CARTESIAN_POINT('',(-27.9743558458188,69.8381224096132,-94.9686695610254));
#657=CARTESIAN_POINT('',(-29.7751058458188,69.8381224096132,-94.9686695610254));
#658=CARTESIAN_POINT('Origin',(-27.9743558458188,76.4880178177765,-92.7826020733917));
#659=CARTESIAN_POINT('Origin',(-29.7751058458188,66.8840178177765,-92.7826020733917));
#660=CARTESIAN_POINT('',(-27.9743558458188,69.8381224096132,-90.596534585758));
#661=CARTESIAN_POINT('',(-29.7751058458188,69.8381224096132,-90.596534585758));
#662=CARTESIAN_POINT('Origin',(-27.9743558458188,66.8840178177765,-92.7826020733917));
#663=CARTESIAN_POINT('Origin',(-23.1723558458188,76.4880178177765,-92.7826020733917));
#664=CARTESIAN_POINT('',(-27.9743558458188,71.2698801350168,-88.1166574612297));
#665=CARTESIAN_POINT('',(-29.7751058458188,71.2698801350168,-88.1166574612297));
#666=CARTESIAN_POINT('Origin',(-27.9743558458188,76.4880178177765,-92.7826020733917));
#667=CARTESIAN_POINT('Origin',(-29.7751058458188,71.6860178177765,-84.465294095446));
#668=CARTESIAN_POINT('',(-27.9743558458188,75.0562600923729,-85.9305899735959));
#669=CARTESIAN_POINT('',(-29.7751058458188,75.0562600923729,-85.930589973596));
#670=CARTESIAN_POINT('Origin',(-27.9743558458188,71.6860178177765,-84.465294095446));
#671=CARTESIAN_POINT('Origin',(-23.1723558458188,76.4880178177765,-92.7826020733917));
#672=CARTESIAN_POINT('Origin',(-27.9743558458188,76.4880178177765,-92.7826020733917));
#673=CARTESIAN_POINT('Origin',(-27.9743558458187,76.488017812416,-86.8689875269867));
#674=CARTESIAN_POINT('',(-27.9743558458187,79.3380178124159,-91.1371538157419));
#675=CARTESIAN_POINT('',(-27.9743558458187,79.3380178124159,-94.4280503501228));
#676=CARTESIAN_POINT('',(-27.9743558458187,79.3380178124159,-89.017504428094));
#677=CARTESIAN_POINT('',(-27.9743558458187,76.488017812416,-89.4917055485515));
#678=CARTESIAN_POINT('',(-27.9743558458187,75.9326827040063,-89.1710826742207));
#679=CARTESIAN_POINT('',(-27.9743558458187,73.6380178124159,-91.1371538157419));
#680=CARTESIAN_POINT('',(-27.9743558458187,75.6433529208255,-89.9793730510862));
#681=CARTESIAN_POINT('',(-27.9743558458187,73.6380178124159,-94.4280503501228));
#682=CARTESIAN_POINT('',(-27.9743558458187,73.6380178124159,-90.634085181825));
#683=CARTESIAN_POINT('',(-27.9743558458187,76.488017812416,-96.0734986173132));
#684=CARTESIAN_POINT('',(-27.9743558458187,74.4826827040063,-94.9157178526576));
#685=CARTESIAN_POINT('',(-27.9743558458187,79.8933529208255,-94.1074274757921));
#686=CARTESIAN_POINT('Origin',(-23.9743558458187,76.4880178124159,-92.7826020829324));
#687=CARTESIAN_POINT('',(-23.9743558458187,76.4880178124159,-96.0734986173132));
#688=CARTESIAN_POINT('',(-23.9743558458187,73.6380178124159,-94.4280503501228));
#689=CARTESIAN_POINT('',(-23.9743558458187,75.7630178124159,-95.6549196721508));
#690=CARTESIAN_POINT('',(-23.9743558458187,73.6380178124159,-91.1371538157419));
#691=CARTESIAN_POINT('',(-23.9743558458187,73.6380178124159,-93.5908924597979));
#692=CARTESIAN_POINT('',(-23.9743558458187,76.488017812416,-89.4917055485515));
#693=CARTESIAN_POINT('',(-23.9743558458187,74.3630178124159,-90.7185748705795));
#694=CARTESIAN_POINT('',(-23.9743558458187,79.3380178124159,-91.1371538157419));
#695=CARTESIAN_POINT('',(-23.9743558458187,77.2130178124159,-89.910284493714));
#696=CARTESIAN_POINT('',(-23.9743558458187,79.3380178124159,-94.4280503501228));
#697=CARTESIAN_POINT('',(-23.9743558458187,79.3380178124159,-91.9743117060669));
#698=CARTESIAN_POINT('',(-23.9743558458187,78.6130178124159,-94.8466292952853));
#699=CARTESIAN_POINT('',(-23.9743558458187,74.8380178124159,-92.7826020829324));
#700=CARTESIAN_POINT('Origin',(-23.9743558458187,76.4880178124159,-92.7826020829324));
#701=CARTESIAN_POINT('Origin',(-23.9743558458187,76.4880178124159,-92.7826020829324));
#702=CARTESIAN_POINT('',(-23.9743558458187,74.8380178124159,-92.7826020829324));
#703=CARTESIAN_POINT('Origin',(-29.9743558458187,76.4630178124159,-96.0590648605835));
#704=CARTESIAN_POINT('',(-29.9743558458187,76.4880178124159,-96.0734986173132));
#705=CARTESIAN_POINT('',(-29.9743558458187,73.6380178124159,-94.4280503501228));
#706=CARTESIAN_POINT('Origin',(-29.9743558458187,73.6380178124159,-94.3991828366633));
#707=CARTESIAN_POINT('',(-29.9743558458187,73.6380178124159,-91.1371538157419));
#708=CARTESIAN_POINT('Origin',(-29.9743558458187,73.6630178124159,-91.1227200590122));
#709=CARTESIAN_POINT('',(-29.9743558458187,76.488017812416,-89.4917055485515));
#710=CARTESIAN_POINT('Origin',(-29.9743558458187,76.5130178124159,-89.5061393052812));
#711=CARTESIAN_POINT('',(-29.9743558458187,79.3380178124159,-91.1371538157419));
#712=CARTESIAN_POINT('Origin',(-29.9743558458187,79.3380178124159,-91.1660213292014));
#713=CARTESIAN_POINT('',(-29.9743558458187,79.3380178124159,-94.4280503501228));
#714=CARTESIAN_POINT('Origin',(-29.9743558458187,79.3130178124159,-94.4424841068526));
#715=UNCERTAINTY_MEASURE_WITH_UNIT(LENGTH_MEASURE(0.01),#719,
'DISTANCE_ACCURACY_VALUE',
'Maximum model space distance between geometric entities at asserted c
onnectivities');
#716=UNCERTAINTY_MEASURE_WITH_UNIT(LENGTH_MEASURE(0.01),#719,
'DISTANCE_ACCURACY_VALUE',
'Maximum model space distance between geometric entities at asserted c
onnectivities');
#717=(
GEOMETRIC_REPRESENTATION_CONTEXT(3)
GLOBAL_UNCERTAINTY_ASSIGNED_CONTEXT((#715))
GLOBAL_UNIT_ASSIGNED_CONTEXT((#719,#721,#722))
REPRESENTATION_CONTEXT('','3D')
);
#718=(
GEOMETRIC_REPRESENTATION_CONTEXT(3)
GLOBAL_UNCERTAINTY_ASSIGNED_CONTEXT((#716))
GLOBAL_UNIT_ASSIGNED_CONTEXT((#719,#721,#722))
REPRESENTATION_CONTEXT('','3D')
);
#719=(
LENGTH_UNIT()
NAMED_UNIT(*)
SI_UNIT(.MILLI.,.METRE.)
);
#720=(
LENGTH_UNIT()
NAMED_UNIT(*)
SI_UNIT($,.METRE.)
);
#721=(
NAMED_UNIT(*)
PLANE_ANGLE_UNIT()
SI_UNIT($,.RADIAN.)
);
#722=(
NAMED_UNIT(*)
SI_UNIT($,.STERADIAN.)
SOLID_ANGLE_UNIT()
);
#723=SHAPE_DEFINITION_REPRESENTATION(#724,#725);
#724=PRODUCT_DEFINITION_SHAPE('',$,#727);
#725=SHAPE_REPRESENTATION('',(#419),#717);
#726=PRODUCT_DEFINITION_CONTEXT('part definition',#731,'design');
#727=PRODUCT_DEFINITION('47. Sight Turret','47. Sight Turret',#728,#726);
#728=PRODUCT_DEFINITION_FORMATION('',$,#733);
#729=PRODUCT_RELATED_PRODUCT_CATEGORY('47. Sight Turret',
'47. Sight Turret',(#733));
#730=APPLICATION_PROTOCOL_DEFINITION('international standard',
'automotive_design',2009,#731);
#731=APPLICATION_CONTEXT(
'Core Data for Automotive Mechanical Design Process');
#732=PRODUCT_CONTEXT('part definition',#731,'mechanical');
#733=PRODUCT('47. Sight Turret','47. Sight Turret',$,(#732));
#734=PRESENTATION_STYLE_ASSIGNMENT((#736));
#735=PRESENTATION_STYLE_ASSIGNMENT((#737));
#736=SURFACE_STYLE_USAGE(.BOTH.,#738);
#737=SURFACE_STYLE_USAGE(.BOTH.,#739);
#738=SURFACE_SIDE_STYLE('',(#740));
#739=SURFACE_SIDE_STYLE('',(#741));
#740=SURFACE_STYLE_FILL_AREA(#742);
#741=SURFACE_STYLE_FILL_AREA(#743);
#742=FILL_AREA_STYLE('Steel - Satin',(#744));
#743=FILL_AREA_STYLE('Plastic - Matte (Black) (1)',(#745));
#744=FILL_AREA_STYLE_COLOUR('Steel - Satin',#746);
#745=FILL_AREA_STYLE_COLOUR('Plastic - Matte (Black) (1)',#747);
#746=COLOUR_RGB('Steel - Satin',0.627450980392157,0.627450980392157,0.627450980392157);
#747=COLOUR_RGB('Plastic - Matte (Black) (1)',0.0980392156862745,0.0980392156862745,
0.0980392156862745);
ENDSEC;
END-ISO-10303-21;
