ISO-10303-21;
HEADER;
/* Generated by software containing ST-Developer
 * from STEP Tools, Inc. (www.steptools.com) 
 */

FILE_DESCRIPTION(
/* description */ (''),
/* implementation_level */ '2;1');

FILE_NAME(
/* name */ '49. Front Sight Right.step',
/* time_stamp */ '2025-10-08T23:28:33+01:00',
/* author */ (''),
/* organization */ (''),
/* preprocessor_version */ 'ST-DEVELOPER v20.1',
/* originating_system */ 'Autodesk Translation Framework v14.10.0.0',
/* authorisation */ '');

FILE_SCHEMA (('AUTOMOTIVE_DESIGN { 1 0 10303 214 3 1 1 }'));
ENDSEC;

DATA;
#10=MECHANICAL_DESIGN_GEOMETRIC_PRESENTATION_REPRESENTATION('',(#13),#1373);
#11=SHAPE_REPRESENTATION_RELATIONSHIP('SRR','None',#1380,#12);
#12=ADVANCED_BREP_SHAPE_REPRESENTATION('',(#14),#1372);
#13=STYLED_ITEM('',(#1390),#14);
#14=MANIFOLD_SOLID_BREP('49. Front Sight Right',#824);
#15=B_SPLINE_CURVE_WITH_KNOTS('',3,(#1231,#1232,#1233,#1234,#1235,#1236,
#1237,#1238,#1239,#1240),.UNSPECIFIED.,.F.,.F.,(4,2,2,2,4),(1.31238053788472,
1.36438256895906,1.48724816370279,1.59069270937597,1.61537593822596),
 .UNSPECIFIED.);
#16=B_SPLINE_CURVE_WITH_KNOTS('',3,(#1261,#1262,#1263,#1264,#1265,#1266,
#1267,#1268,#1269,#1270,#1271,#1272),.UNSPECIFIED.,.F.,.F.,(4,2,2,2,2,4),
(1.41556898959361,1.4286944064099,1.53731514552796,1.64390948630456,1.75050382708116,
1.86934055658107),.UNSPECIFIED.);
#17=CYLINDRICAL_SURFACE('',#859,1.65);
#18=CYLINDRICAL_SURFACE('',#864,4.);
#19=CYLINDRICAL_SURFACE('',#870,4.);
#20=CYLINDRICAL_SURFACE('',#871,3.);
#21=CYLINDRICAL_SURFACE('',#875,3.);
#22=CYLINDRICAL_SURFACE('',#878,7.);
#23=ELLIPSE('',#851,10.485528660052,4.);
#24=ELLIPSE('',#856,9.89949493661166,7.);
#25=ELLIPSE('',#858,9.89949493661169,7.);
#26=ELLIPSE('',#865,8.18598822027615,4.);
#27=ELLIPSE('',#866,8.18598822027613,4.);
#28=ELLIPSE('',#868,10.485528660052,4.);
#29=ELLIPSE('',#872,3.46410161513775,3.);
#30=ELLIPSE('',#874,3.46410161513775,3.);
#31=FACE_BOUND('',#96,.T.);
#32=FACE_BOUND('',#99,.T.);
#33=FACE_BOUND('',#105,.T.);
#34=CIRCLE('',#848,3.);
#35=CIRCLE('',#849,3.);
#36=CIRCLE('',#853,7.);
#37=CIRCLE('',#854,1.65);
#38=CIRCLE('',#860,1.65);
#39=CIRCLE('',#861,1.65);
#40=CIRCLE('',#862,1.65);
#41=CIRCLE('',#863,1.65);
#42=CIRCLE('',#869,7.);
#43=FACE_OUTER_BOUND('',#86,.T.);
#44=FACE_OUTER_BOUND('',#87,.T.);
#45=FACE_OUTER_BOUND('',#88,.T.);
#46=FACE_OUTER_BOUND('',#89,.T.);
#47=FACE_OUTER_BOUND('',#90,.T.);
#48=FACE_OUTER_BOUND('',#91,.T.);
#49=FACE_OUTER_BOUND('',#92,.T.);
#50=FACE_OUTER_BOUND('',#93,.T.);
#51=FACE_OUTER_BOUND('',#94,.T.);
#52=FACE_OUTER_BOUND('',#95,.T.);
#53=FACE_OUTER_BOUND('',#97,.T.);
#54=FACE_OUTER_BOUND('',#98,.T.);
#55=FACE_OUTER_BOUND('',#100,.T.);
#56=FACE_OUTER_BOUND('',#101,.T.);
#57=FACE_OUTER_BOUND('',#102,.T.);
#58=FACE_OUTER_BOUND('',#103,.T.);
#59=FACE_OUTER_BOUND('',#104,.T.);
#60=FACE_OUTER_BOUND('',#106,.T.);
#61=FACE_OUTER_BOUND('',#107,.T.);
#62=FACE_OUTER_BOUND('',#108,.T.);
#63=FACE_OUTER_BOUND('',#109,.T.);
#64=FACE_OUTER_BOUND('',#110,.T.);
#65=FACE_OUTER_BOUND('',#111,.T.);
#66=FACE_OUTER_BOUND('',#112,.T.);
#67=FACE_OUTER_BOUND('',#113,.T.);
#68=FACE_OUTER_BOUND('',#114,.T.);
#69=FACE_OUTER_BOUND('',#115,.T.);
#70=FACE_OUTER_BOUND('',#116,.T.);
#71=FACE_OUTER_BOUND('',#117,.T.);
#72=FACE_OUTER_BOUND('',#118,.T.);
#73=FACE_OUTER_BOUND('',#119,.T.);
#74=FACE_OUTER_BOUND('',#120,.T.);
#75=FACE_OUTER_BOUND('',#121,.T.);
#76=FACE_OUTER_BOUND('',#122,.T.);
#77=FACE_OUTER_BOUND('',#123,.T.);
#78=FACE_OUTER_BOUND('',#124,.T.);
#79=FACE_OUTER_BOUND('',#125,.T.);
#80=FACE_OUTER_BOUND('',#126,.T.);
#81=FACE_OUTER_BOUND('',#127,.T.);
#82=FACE_OUTER_BOUND('',#128,.T.);
#83=FACE_OUTER_BOUND('',#129,.T.);
#84=FACE_OUTER_BOUND('',#130,.T.);
#85=FACE_OUTER_BOUND('',#131,.T.);
#86=EDGE_LOOP('',(#514,#515,#516,#517));
#87=EDGE_LOOP('',(#518,#519,#520,#521));
#88=EDGE_LOOP('',(#522,#523,#524,#525));
#89=EDGE_LOOP('',(#526,#527,#528,#529));
#90=EDGE_LOOP('',(#530,#531,#532,#533));
#91=EDGE_LOOP('',(#534,#535,#536,#537));
#92=EDGE_LOOP('',(#538,#539,#540,#541));
#93=EDGE_LOOP('',(#542,#543,#544,#545));
#94=EDGE_LOOP('',(#546,#547,#548,#549));
#95=EDGE_LOOP('',(#550,#551,#552,#553,#554,#555,#556,#557,#558,#559));
#96=EDGE_LOOP('',(#560,#561,#562,#563));
#97=EDGE_LOOP('',(#564,#565,#566,#567,#568,#569,#570));
#98=EDGE_LOOP('',(#571,#572,#573,#574));
#99=EDGE_LOOP('',(#575));
#100=EDGE_LOOP('',(#576,#577,#578,#579));
#101=EDGE_LOOP('',(#580,#581,#582,#583));
#102=EDGE_LOOP('',(#584,#585,#586,#587,#588,#589,#590));
#103=EDGE_LOOP('',(#591,#592,#593,#594,#595));
#104=EDGE_LOOP('',(#596,#597,#598,#599,#600,#601));
#105=EDGE_LOOP('',(#602,#603,#604,#605,#606,#607));
#106=EDGE_LOOP('',(#608,#609,#610,#611,#612));
#107=EDGE_LOOP('',(#613,#614,#615,#616,#617));
#108=EDGE_LOOP('',(#618,#619,#620,#621,#622,#623));
#109=EDGE_LOOP('',(#624,#625,#626,#627,#628));
#110=EDGE_LOOP('',(#629,#630,#631,#632));
#111=EDGE_LOOP('',(#633,#634,#635,#636,#637,#638,#639));
#112=EDGE_LOOP('',(#640,#641,#642,#643,#644,#645));
#113=EDGE_LOOP('',(#646,#647,#648,#649,#650));
#114=EDGE_LOOP('',(#651,#652,#653));
#115=EDGE_LOOP('',(#654,#655,#656));
#116=EDGE_LOOP('',(#657,#658,#659));
#117=EDGE_LOOP('',(#660,#661,#662));
#118=EDGE_LOOP('',(#663,#664,#665,#666,#667));
#119=EDGE_LOOP('',(#668,#669,#670,#671,#672));
#120=EDGE_LOOP('',(#673,#674,#675,#676,#677,#678,#679,#680,#681));
#121=EDGE_LOOP('',(#682,#683,#684,#685,#686));
#122=EDGE_LOOP('',(#687,#688,#689,#690,#691,#692,#693,#694,#695));
#123=EDGE_LOOP('',(#696,#697,#698,#699));
#124=EDGE_LOOP('',(#700,#701,#702,#703,#704,#705,#706,#707));
#125=EDGE_LOOP('',(#708,#709,#710,#711,#712,#713));
#126=EDGE_LOOP('',(#714,#715,#716,#717,#718,#719));
#127=EDGE_LOOP('',(#720,#721,#722,#723));
#128=EDGE_LOOP('',(#724,#725,#726,#727,#728,#729));
#129=EDGE_LOOP('',(#730,#731,#732,#733,#734,#735));
#130=EDGE_LOOP('',(#736,#737,#738,#739));
#131=EDGE_LOOP('',(#740,#741,#742,#743));
#132=LINE('',#1120,#228);
#133=LINE('',#1122,#229);
#134=LINE('',#1124,#230);
#135=LINE('',#1125,#231);
#136=LINE('',#1129,#232);
#137=LINE('',#1131,#233);
#138=LINE('',#1133,#234);
#139=LINE('',#1134,#235);
#140=LINE('',#1136,#236);
#141=LINE('',#1137,#237);
#142=LINE('',#1141,#238);
#143=LINE('',#1143,#239);
#144=LINE('',#1145,#240);
#145=LINE('',#1146,#241);
#146=LINE('',#1149,#242);
#147=LINE('',#1151,#243);
#148=LINE('',#1152,#244);
#149=LINE('',#1156,#245);
#150=LINE('',#1157,#246);
#151=LINE('',#1158,#247);
#152=LINE('',#1160,#248);
#153=LINE('',#1162,#249);
#154=LINE('',#1164,#250);
#155=LINE('',#1168,#251);
#156=LINE('',#1172,#252);
#157=LINE('',#1176,#253);
#158=LINE('',#1177,#254);
#159=LINE('',#1178,#255);
#160=LINE('',#1181,#256);
#161=LINE('',#1183,#257);
#162=LINE('',#1185,#258);
#163=LINE('',#1187,#259);
#164=LINE('',#1190,#260);
#165=LINE('',#1193,#261);
#166=LINE('',#1195,#262);
#167=LINE('',#1202,#263);
#168=LINE('',#1206,#264);
#169=LINE('',#1207,#265);
#170=LINE('',#1212,#266);
#171=LINE('',#1213,#267);
#172=LINE('',#1216,#268);
#173=LINE('',#1227,#269);
#174=LINE('',#1243,#270);
#175=LINE('',#1248,#271);
#176=LINE('',#1250,#272);
#177=LINE('',#1252,#273);
#178=LINE('',#1254,#274);
#179=LINE('',#1256,#275);
#180=LINE('',#1257,#276);
#181=LINE('',#1260,#277);
#182=LINE('',#1276,#278);
#183=LINE('',#1280,#279);
#184=LINE('',#1282,#280);
#185=LINE('',#1283,#281);
#186=LINE('',#1286,#282);
#187=LINE('',#1287,#283);
#188=LINE('',#1291,#284);
#189=LINE('',#1293,#285);
#190=LINE('',#1295,#286);
#191=LINE('',#1297,#287);
#192=LINE('',#1298,#288);
#193=LINE('',#1301,#289);
#194=LINE('',#1302,#290);
#195=LINE('',#1305,#291);
#196=LINE('',#1306,#292);
#197=LINE('',#1308,#293);
#198=LINE('',#1310,#294);
#199=LINE('',#1313,#295);
#200=LINE('',#1315,#296);
#201=LINE('',#1316,#297);
#202=LINE('',#1319,#298);
#203=LINE('',#1321,#299);
#204=LINE('',#1323,#300);
#205=LINE('',#1324,#301);
#206=LINE('',#1328,#302);
#207=LINE('',#1330,#303);
#208=LINE('',#1331,#304);
#209=LINE('',#1332,#305);
#210=LINE('',#1335,#306);
#211=LINE('',#1337,#307);
#212=LINE('',#1338,#308);
#213=LINE('',#1342,#309);
#214=LINE('',#1343,#310);
#215=LINE('',#1344,#311);
#216=LINE('',#1347,#312);
#217=LINE('',#1349,#313);
#218=LINE('',#1350,#314);
#219=LINE('',#1353,#315);
#220=LINE('',#1355,#316);
#221=LINE('',#1356,#317);
#222=LINE('',#1358,#318);
#223=LINE('',#1360,#319);
#224=LINE('',#1362,#320);
#225=LINE('',#1365,#321);
#226=LINE('',#1366,#322);
#227=LINE('',#1368,#323);
#228=VECTOR('',#902,10.);
#229=VECTOR('',#903,10.);
#230=VECTOR('',#904,10.);
#231=VECTOR('',#905,10.);
#232=VECTOR('',#908,10.);
#233=VECTOR('',#909,10.);
#234=VECTOR('',#910,10.);
#235=VECTOR('',#911,10.);
#236=VECTOR('',#914,10.);
#237=VECTOR('',#915,10.);
#238=VECTOR('',#918,10.);
#239=VECTOR('',#919,10.);
#240=VECTOR('',#920,10.);
#241=VECTOR('',#921,10.);
#242=VECTOR('',#924,10.);
#243=VECTOR('',#925,10.);
#244=VECTOR('',#926,10.);
#245=VECTOR('',#929,10.);
#246=VECTOR('',#930,10.);
#247=VECTOR('',#931,10.);
#248=VECTOR('',#934,10.);
#249=VECTOR('',#937,10.);
#250=VECTOR('',#940,10.);
#251=VECTOR('',#943,10.);
#252=VECTOR('',#946,10.);
#253=VECTOR('',#949,10.);
#254=VECTOR('',#950,10.);
#255=VECTOR('',#951,10.);
#256=VECTOR('',#954,10.);
#257=VECTOR('',#955,10.);
#258=VECTOR('',#956,10.);
#259=VECTOR('',#957,10.);
#260=VECTOR('',#960,10.);
#261=VECTOR('',#963,10.);
#262=VECTOR('',#964,10.);
#263=VECTOR('',#971,10.);
#264=VECTOR('',#974,10.);
#265=VECTOR('',#975,10.);
#266=VECTOR('',#980,10.);
#267=VECTOR('',#981,10.);
#268=VECTOR('',#984,1.5);
#269=VECTOR('',#995,10.);
#270=VECTOR('',#1002,10.);
#271=VECTOR('',#1007,10.);
#272=VECTOR('',#1008,10.);
#273=VECTOR('',#1009,10.);
#274=VECTOR('',#1010,10.);
#275=VECTOR('',#1011,10.);
#276=VECTOR('',#1012,10.);
#277=VECTOR('',#1015,10.);
#278=VECTOR('',#1020,10.);
#279=VECTOR('',#1025,10.);
#280=VECTOR('',#1028,10.);
#281=VECTOR('',#1029,10.);
#282=VECTOR('',#1034,10.);
#283=VECTOR('',#1035,10.);
#284=VECTOR('',#1040,10.);
#285=VECTOR('',#1041,10.);
#286=VECTOR('',#1042,10.);
#287=VECTOR('',#1043,10.);
#288=VECTOR('',#1044,10.);
#289=VECTOR('',#1047,10.);
#290=VECTOR('',#1048,10.);
#291=VECTOR('',#1051,10.);
#292=VECTOR('',#1052,10.);
#293=VECTOR('',#1055,10.);
#294=VECTOR('',#1058,10.);
#295=VECTOR('',#1061,10.);
#296=VECTOR('',#1062,10.);
#297=VECTOR('',#1063,10.);
#298=VECTOR('',#1066,10.);
#299=VECTOR('',#1067,10.);
#300=VECTOR('',#1068,10.);
#301=VECTOR('',#1069,10.);
#302=VECTOR('',#1072,10.);
#303=VECTOR('',#1073,10.);
#304=VECTOR('',#1074,10.);
#305=VECTOR('',#1075,10.);
#306=VECTOR('',#1078,10.);
#307=VECTOR('',#1079,10.);
#308=VECTOR('',#1080,10.);
#309=VECTOR('',#1083,10.);
#310=VECTOR('',#1084,10.);
#311=VECTOR('',#1085,10.);
#312=VECTOR('',#1088,10.);
#313=VECTOR('',#1089,10.);
#314=VECTOR('',#1090,10.);
#315=VECTOR('',#1095,10.);
#316=VECTOR('',#1096,10.);
#317=VECTOR('',#1097,10.);
#318=VECTOR('',#1100,10.);
#319=VECTOR('',#1103,10.);
#320=VECTOR('',#1106,10.);
#321=VECTOR('',#1109,10.);
#322=VECTOR('',#1110,10.);
#323=VECTOR('',#1113,10.);
#324=VERTEX_POINT('',#1118);
#325=VERTEX_POINT('',#1119);
#326=VERTEX_POINT('',#1121);
#327=VERTEX_POINT('',#1123);
#328=VERTEX_POINT('',#1127);
#329=VERTEX_POINT('',#1128);
#330=VERTEX_POINT('',#1130);
#331=VERTEX_POINT('',#1132);
#332=VERTEX_POINT('',#1139);
#333=VERTEX_POINT('',#1140);
#334=VERTEX_POINT('',#1142);
#335=VERTEX_POINT('',#1144);
#336=VERTEX_POINT('',#1148);
#337=VERTEX_POINT('',#1150);
#338=VERTEX_POINT('',#1154);
#339=VERTEX_POINT('',#1155);
#340=VERTEX_POINT('',#1166);
#341=VERTEX_POINT('',#1167);
#342=VERTEX_POINT('',#1169);
#343=VERTEX_POINT('',#1171);
#344=VERTEX_POINT('',#1173);
#345=VERTEX_POINT('',#1175);
#346=VERTEX_POINT('',#1180);
#347=VERTEX_POINT('',#1182);
#348=VERTEX_POINT('',#1184);
#349=VERTEX_POINT('',#1186);
#350=VERTEX_POINT('',#1188);
#351=VERTEX_POINT('',#1192);
#352=VERTEX_POINT('',#1194);
#353=VERTEX_POINT('',#1197);
#354=VERTEX_POINT('',#1200);
#355=VERTEX_POINT('',#1201);
#356=VERTEX_POINT('',#1203);
#357=VERTEX_POINT('',#1205);
#358=VERTEX_POINT('',#1209);
#359=VERTEX_POINT('',#1211);
#360=VERTEX_POINT('',#1215);
#361=VERTEX_POINT('',#1217);
#362=VERTEX_POINT('',#1219);
#363=VERTEX_POINT('',#1221);
#364=VERTEX_POINT('',#1225);
#365=VERTEX_POINT('',#1226);
#366=VERTEX_POINT('',#1229);
#367=VERTEX_POINT('',#1242);
#368=VERTEX_POINT('',#1246);
#369=VERTEX_POINT('',#1247);
#370=VERTEX_POINT('',#1249);
#371=VERTEX_POINT('',#1251);
#372=VERTEX_POINT('',#1253);
#373=VERTEX_POINT('',#1255);
#374=VERTEX_POINT('',#1259);
#375=VERTEX_POINT('',#1274);
#376=VERTEX_POINT('',#1278);
#377=VERTEX_POINT('',#1290);
#378=VERTEX_POINT('',#1292);
#379=VERTEX_POINT('',#1294);
#380=VERTEX_POINT('',#1296);
#381=VERTEX_POINT('',#1300);
#382=VERTEX_POINT('',#1304);
#383=VERTEX_POINT('',#1312);
#384=VERTEX_POINT('',#1314);
#385=VERTEX_POINT('',#1318);
#386=VERTEX_POINT('',#1320);
#387=VERTEX_POINT('',#1322);
#388=VERTEX_POINT('',#1326);
#389=VERTEX_POINT('',#1327);
#390=VERTEX_POINT('',#1329);
#391=VERTEX_POINT('',#1334);
#392=VERTEX_POINT('',#1336);
#393=VERTEX_POINT('',#1340);
#394=VERTEX_POINT('',#1341);
#395=VERTEX_POINT('',#1346);
#396=VERTEX_POINT('',#1348);
#397=VERTEX_POINT('',#1354);
#398=VERTEX_POINT('',#1364);
#399=EDGE_CURVE('',#324,#325,#132,.T.);
#400=EDGE_CURVE('',#325,#326,#133,.F.);
#401=EDGE_CURVE('',#327,#326,#134,.F.);
#402=EDGE_CURVE('',#324,#327,#135,.T.);
#403=EDGE_CURVE('',#328,#329,#136,.F.);
#404=EDGE_CURVE('',#330,#328,#137,.T.);
#405=EDGE_CURVE('',#330,#331,#138,.F.);
#406=EDGE_CURVE('',#331,#329,#139,.F.);
#407=EDGE_CURVE('',#326,#331,#140,.T.);
#408=EDGE_CURVE('',#327,#330,#141,.F.);
#409=EDGE_CURVE('',#332,#333,#142,.F.);
#410=EDGE_CURVE('',#334,#332,#143,.T.);
#411=EDGE_CURVE('',#334,#335,#144,.T.);
#412=EDGE_CURVE('',#335,#333,#145,.F.);
#413=EDGE_CURVE('',#336,#334,#146,.T.);
#414=EDGE_CURVE('',#336,#337,#147,.F.);
#415=EDGE_CURVE('',#337,#335,#148,.F.);
#416=EDGE_CURVE('',#338,#339,#149,.F.);
#417=EDGE_CURVE('',#339,#337,#150,.T.);
#418=EDGE_CURVE('',#338,#336,#151,.F.);
#419=EDGE_CURVE('',#329,#325,#152,.T.);
#420=EDGE_CURVE('',#333,#339,#153,.F.);
#421=EDGE_CURVE('',#332,#338,#154,.T.);
#422=EDGE_CURVE('',#340,#341,#155,.T.);
#423=EDGE_CURVE('',#342,#340,#34,.T.);
#424=EDGE_CURVE('',#343,#342,#156,.T.);
#425=EDGE_CURVE('',#344,#343,#35,.T.);
#426=EDGE_CURVE('',#345,#344,#157,.T.);
#427=EDGE_CURVE('',#324,#345,#158,.F.);
#428=EDGE_CURVE('',#341,#328,#159,.F.);
#429=EDGE_CURVE('',#341,#346,#160,.F.);
#430=EDGE_CURVE('',#347,#346,#161,.T.);
#431=EDGE_CURVE('',#348,#347,#162,.T.);
#432=EDGE_CURVE('',#349,#348,#163,.T.);
#433=EDGE_CURVE('',#350,#349,#23,.T.);
#434=EDGE_CURVE('',#340,#350,#164,.T.);
#435=EDGE_CURVE('',#346,#351,#165,.T.);
#436=EDGE_CURVE('',#351,#352,#166,.T.);
#437=EDGE_CURVE('',#347,#352,#36,.F.);
#438=EDGE_CURVE('',#353,#353,#37,.F.);
#439=EDGE_CURVE('',#354,#355,#167,.T.);
#440=EDGE_CURVE('',#354,#356,#24,.T.);
#441=EDGE_CURVE('',#356,#357,#168,.T.);
#442=EDGE_CURVE('',#355,#357,#169,.T.);
#443=EDGE_CURVE('',#348,#358,#25,.T.);
#444=EDGE_CURVE('',#358,#359,#170,.T.);
#445=EDGE_CURVE('',#349,#359,#171,.T.);
#446=EDGE_CURVE('',#353,#360,#172,.T.);
#447=EDGE_CURVE('',#360,#361,#38,.T.);
#448=EDGE_CURVE('',#361,#362,#39,.T.);
#449=EDGE_CURVE('',#362,#363,#40,.T.);
#450=EDGE_CURVE('',#363,#360,#41,.T.);
#451=EDGE_CURVE('',#364,#365,#173,.T.);
#452=EDGE_CURVE('',#365,#355,#26,.T.);
#453=EDGE_CURVE('',#357,#366,#27,.T.);
#454=EDGE_CURVE('',#366,#364,#15,.T.);
#455=EDGE_CURVE('',#367,#365,#174,.T.);
#456=EDGE_CURVE('',#359,#367,#28,.T.);
#457=EDGE_CURVE('',#358,#354,#42,.T.);
#458=EDGE_CURVE('',#368,#369,#175,.T.);
#459=EDGE_CURVE('',#369,#370,#176,.T.);
#460=EDGE_CURVE('',#370,#371,#177,.T.);
#461=EDGE_CURVE('',#371,#372,#178,.T.);
#462=EDGE_CURVE('',#372,#373,#179,.T.);
#463=EDGE_CURVE('',#373,#368,#180,.T.);
#464=EDGE_CURVE('',#367,#374,#181,.T.);
#465=EDGE_CURVE('',#374,#350,#16,.T.);
#466=EDGE_CURVE('',#374,#375,#29,.T.);
#467=EDGE_CURVE('',#375,#342,#182,.T.);
#468=EDGE_CURVE('',#376,#364,#30,.T.);
#469=EDGE_CURVE('',#376,#375,#183,.T.);
#470=EDGE_CURVE('',#366,#344,#184,.T.);
#471=EDGE_CURVE('',#343,#376,#185,.T.);
#472=EDGE_CURVE('',#352,#356,#186,.T.);
#473=EDGE_CURVE('',#351,#345,#187,.F.);
#474=EDGE_CURVE('',#360,#377,#188,.T.);
#475=EDGE_CURVE('',#378,#377,#189,.T.);
#476=EDGE_CURVE('',#379,#378,#190,.T.);
#477=EDGE_CURVE('',#379,#380,#191,.T.);
#478=EDGE_CURVE('',#380,#360,#192,.T.);
#479=EDGE_CURVE('',#381,#361,#193,.T.);
#480=EDGE_CURVE('',#362,#381,#194,.T.);
#481=EDGE_CURVE('',#382,#362,#195,.T.);
#482=EDGE_CURVE('',#363,#382,#196,.T.);
#483=EDGE_CURVE('',#377,#363,#197,.T.);
#484=EDGE_CURVE('',#361,#380,#198,.T.);
#485=EDGE_CURVE('',#383,#381,#199,.T.);
#486=EDGE_CURVE('',#384,#383,#200,.T.);
#487=EDGE_CURVE('',#384,#382,#201,.T.);
#488=EDGE_CURVE('',#385,#378,#202,.T.);
#489=EDGE_CURVE('',#386,#385,#203,.T.);
#490=EDGE_CURVE('',#387,#386,#204,.T.);
#491=EDGE_CURVE('',#379,#387,#205,.T.);
#492=EDGE_CURVE('',#388,#389,#206,.T.);
#493=EDGE_CURVE('',#388,#390,#207,.T.);
#494=EDGE_CURVE('',#390,#383,#208,.T.);
#495=EDGE_CURVE('',#389,#387,#209,.F.);
#496=EDGE_CURVE('',#391,#390,#210,.T.);
#497=EDGE_CURVE('',#392,#391,#211,.T.);
#498=EDGE_CURVE('',#384,#392,#212,.T.);
#499=EDGE_CURVE('',#393,#394,#213,.T.);
#500=EDGE_CURVE('',#393,#385,#214,.T.);
#501=EDGE_CURVE('',#394,#392,#215,.F.);
#502=EDGE_CURVE('',#395,#389,#216,.T.);
#503=EDGE_CURVE('',#396,#395,#217,.T.);
#504=EDGE_CURVE('',#388,#396,#218,.T.);
#505=EDGE_CURVE('',#368,#386,#219,.T.);
#506=EDGE_CURVE('',#393,#397,#220,.T.);
#507=EDGE_CURVE('',#369,#397,#221,.F.);
#508=EDGE_CURVE('',#373,#395,#222,.T.);
#509=EDGE_CURVE('',#372,#396,#223,.T.);
#510=EDGE_CURVE('',#371,#391,#224,.T.);
#511=EDGE_CURVE('',#370,#398,#225,.T.);
#512=EDGE_CURVE('',#398,#394,#226,.T.);
#513=EDGE_CURVE('',#397,#398,#227,.T.);
#514=ORIENTED_EDGE('',*,*,#399,.T.);
#515=ORIENTED_EDGE('',*,*,#400,.T.);
#516=ORIENTED_EDGE('',*,*,#401,.F.);
#517=ORIENTED_EDGE('',*,*,#402,.F.);
#518=ORIENTED_EDGE('',*,*,#403,.F.);
#519=ORIENTED_EDGE('',*,*,#404,.F.);
#520=ORIENTED_EDGE('',*,*,#405,.T.);
#521=ORIENTED_EDGE('',*,*,#406,.T.);
#522=ORIENTED_EDGE('',*,*,#401,.T.);
#523=ORIENTED_EDGE('',*,*,#407,.T.);
#524=ORIENTED_EDGE('',*,*,#405,.F.);
#525=ORIENTED_EDGE('',*,*,#408,.F.);
#526=ORIENTED_EDGE('',*,*,#409,.F.);
#527=ORIENTED_EDGE('',*,*,#410,.F.);
#528=ORIENTED_EDGE('',*,*,#411,.T.);
#529=ORIENTED_EDGE('',*,*,#412,.T.);
#530=ORIENTED_EDGE('',*,*,#411,.F.);
#531=ORIENTED_EDGE('',*,*,#413,.F.);
#532=ORIENTED_EDGE('',*,*,#414,.T.);
#533=ORIENTED_EDGE('',*,*,#415,.T.);
#534=ORIENTED_EDGE('',*,*,#416,.T.);
#535=ORIENTED_EDGE('',*,*,#417,.T.);
#536=ORIENTED_EDGE('',*,*,#414,.F.);
#537=ORIENTED_EDGE('',*,*,#418,.F.);
#538=ORIENTED_EDGE('',*,*,#419,.F.);
#539=ORIENTED_EDGE('',*,*,#406,.F.);
#540=ORIENTED_EDGE('',*,*,#407,.F.);
#541=ORIENTED_EDGE('',*,*,#400,.F.);
#542=ORIENTED_EDGE('',*,*,#420,.F.);
#543=ORIENTED_EDGE('',*,*,#412,.F.);
#544=ORIENTED_EDGE('',*,*,#415,.F.);
#545=ORIENTED_EDGE('',*,*,#417,.F.);
#546=ORIENTED_EDGE('',*,*,#409,.T.);
#547=ORIENTED_EDGE('',*,*,#420,.T.);
#548=ORIENTED_EDGE('',*,*,#416,.F.);
#549=ORIENTED_EDGE('',*,*,#421,.F.);
#550=ORIENTED_EDGE('',*,*,#422,.F.);
#551=ORIENTED_EDGE('',*,*,#423,.F.);
#552=ORIENTED_EDGE('',*,*,#424,.F.);
#553=ORIENTED_EDGE('',*,*,#425,.F.);
#554=ORIENTED_EDGE('',*,*,#426,.F.);
#555=ORIENTED_EDGE('',*,*,#427,.F.);
#556=ORIENTED_EDGE('',*,*,#402,.T.);
#557=ORIENTED_EDGE('',*,*,#408,.T.);
#558=ORIENTED_EDGE('',*,*,#404,.T.);
#559=ORIENTED_EDGE('',*,*,#428,.F.);
#560=ORIENTED_EDGE('',*,*,#418,.T.);
#561=ORIENTED_EDGE('',*,*,#413,.T.);
#562=ORIENTED_EDGE('',*,*,#410,.T.);
#563=ORIENTED_EDGE('',*,*,#421,.T.);
#564=ORIENTED_EDGE('',*,*,#422,.T.);
#565=ORIENTED_EDGE('',*,*,#429,.T.);
#566=ORIENTED_EDGE('',*,*,#430,.F.);
#567=ORIENTED_EDGE('',*,*,#431,.F.);
#568=ORIENTED_EDGE('',*,*,#432,.F.);
#569=ORIENTED_EDGE('',*,*,#433,.F.);
#570=ORIENTED_EDGE('',*,*,#434,.F.);
#571=ORIENTED_EDGE('',*,*,#435,.T.);
#572=ORIENTED_EDGE('',*,*,#436,.T.);
#573=ORIENTED_EDGE('',*,*,#437,.F.);
#574=ORIENTED_EDGE('',*,*,#430,.T.);
#575=ORIENTED_EDGE('',*,*,#438,.F.);
#576=ORIENTED_EDGE('',*,*,#439,.F.);
#577=ORIENTED_EDGE('',*,*,#440,.T.);
#578=ORIENTED_EDGE('',*,*,#441,.T.);
#579=ORIENTED_EDGE('',*,*,#442,.F.);
#580=ORIENTED_EDGE('',*,*,#432,.T.);
#581=ORIENTED_EDGE('',*,*,#443,.T.);
#582=ORIENTED_EDGE('',*,*,#444,.T.);
#583=ORIENTED_EDGE('',*,*,#445,.F.);
#584=ORIENTED_EDGE('',*,*,#438,.T.);
#585=ORIENTED_EDGE('',*,*,#446,.T.);
#586=ORIENTED_EDGE('',*,*,#447,.T.);
#587=ORIENTED_EDGE('',*,*,#448,.T.);
#588=ORIENTED_EDGE('',*,*,#449,.T.);
#589=ORIENTED_EDGE('',*,*,#450,.T.);
#590=ORIENTED_EDGE('',*,*,#446,.F.);
#591=ORIENTED_EDGE('',*,*,#451,.T.);
#592=ORIENTED_EDGE('',*,*,#452,.T.);
#593=ORIENTED_EDGE('',*,*,#442,.T.);
#594=ORIENTED_EDGE('',*,*,#453,.T.);
#595=ORIENTED_EDGE('',*,*,#454,.T.);
#596=ORIENTED_EDGE('',*,*,#439,.T.);
#597=ORIENTED_EDGE('',*,*,#452,.F.);
#598=ORIENTED_EDGE('',*,*,#455,.F.);
#599=ORIENTED_EDGE('',*,*,#456,.F.);
#600=ORIENTED_EDGE('',*,*,#444,.F.);
#601=ORIENTED_EDGE('',*,*,#457,.T.);
#602=ORIENTED_EDGE('',*,*,#458,.T.);
#603=ORIENTED_EDGE('',*,*,#459,.T.);
#604=ORIENTED_EDGE('',*,*,#460,.T.);
#605=ORIENTED_EDGE('',*,*,#461,.T.);
#606=ORIENTED_EDGE('',*,*,#462,.T.);
#607=ORIENTED_EDGE('',*,*,#463,.T.);
#608=ORIENTED_EDGE('',*,*,#456,.T.);
#609=ORIENTED_EDGE('',*,*,#464,.T.);
#610=ORIENTED_EDGE('',*,*,#465,.T.);
#611=ORIENTED_EDGE('',*,*,#433,.T.);
#612=ORIENTED_EDGE('',*,*,#445,.T.);
#613=ORIENTED_EDGE('',*,*,#465,.F.);
#614=ORIENTED_EDGE('',*,*,#466,.T.);
#615=ORIENTED_EDGE('',*,*,#467,.T.);
#616=ORIENTED_EDGE('',*,*,#423,.T.);
#617=ORIENTED_EDGE('',*,*,#434,.T.);
#618=ORIENTED_EDGE('',*,*,#464,.F.);
#619=ORIENTED_EDGE('',*,*,#455,.T.);
#620=ORIENTED_EDGE('',*,*,#451,.F.);
#621=ORIENTED_EDGE('',*,*,#468,.F.);
#622=ORIENTED_EDGE('',*,*,#469,.T.);
#623=ORIENTED_EDGE('',*,*,#466,.F.);
#624=ORIENTED_EDGE('',*,*,#454,.F.);
#625=ORIENTED_EDGE('',*,*,#470,.T.);
#626=ORIENTED_EDGE('',*,*,#425,.T.);
#627=ORIENTED_EDGE('',*,*,#471,.T.);
#628=ORIENTED_EDGE('',*,*,#468,.T.);
#629=ORIENTED_EDGE('',*,*,#424,.T.);
#630=ORIENTED_EDGE('',*,*,#467,.F.);
#631=ORIENTED_EDGE('',*,*,#469,.F.);
#632=ORIENTED_EDGE('',*,*,#471,.F.);
#633=ORIENTED_EDGE('',*,*,#426,.T.);
#634=ORIENTED_EDGE('',*,*,#470,.F.);
#635=ORIENTED_EDGE('',*,*,#453,.F.);
#636=ORIENTED_EDGE('',*,*,#441,.F.);
#637=ORIENTED_EDGE('',*,*,#472,.F.);
#638=ORIENTED_EDGE('',*,*,#436,.F.);
#639=ORIENTED_EDGE('',*,*,#473,.T.);
#640=ORIENTED_EDGE('',*,*,#431,.T.);
#641=ORIENTED_EDGE('',*,*,#437,.T.);
#642=ORIENTED_EDGE('',*,*,#472,.T.);
#643=ORIENTED_EDGE('',*,*,#440,.F.);
#644=ORIENTED_EDGE('',*,*,#457,.F.);
#645=ORIENTED_EDGE('',*,*,#443,.F.);
#646=ORIENTED_EDGE('',*,*,#474,.T.);
#647=ORIENTED_EDGE('',*,*,#475,.F.);
#648=ORIENTED_EDGE('',*,*,#476,.F.);
#649=ORIENTED_EDGE('',*,*,#477,.T.);
#650=ORIENTED_EDGE('',*,*,#478,.T.);
#651=ORIENTED_EDGE('',*,*,#448,.F.);
#652=ORIENTED_EDGE('',*,*,#479,.F.);
#653=ORIENTED_EDGE('',*,*,#480,.F.);
#654=ORIENTED_EDGE('',*,*,#449,.F.);
#655=ORIENTED_EDGE('',*,*,#481,.F.);
#656=ORIENTED_EDGE('',*,*,#482,.F.);
#657=ORIENTED_EDGE('',*,*,#450,.F.);
#658=ORIENTED_EDGE('',*,*,#483,.F.);
#659=ORIENTED_EDGE('',*,*,#474,.F.);
#660=ORIENTED_EDGE('',*,*,#447,.F.);
#661=ORIENTED_EDGE('',*,*,#478,.F.);
#662=ORIENTED_EDGE('',*,*,#484,.F.);
#663=ORIENTED_EDGE('',*,*,#480,.T.);
#664=ORIENTED_EDGE('',*,*,#485,.F.);
#665=ORIENTED_EDGE('',*,*,#486,.F.);
#666=ORIENTED_EDGE('',*,*,#487,.T.);
#667=ORIENTED_EDGE('',*,*,#481,.T.);
#668=ORIENTED_EDGE('',*,*,#476,.T.);
#669=ORIENTED_EDGE('',*,*,#488,.F.);
#670=ORIENTED_EDGE('',*,*,#489,.F.);
#671=ORIENTED_EDGE('',*,*,#490,.F.);
#672=ORIENTED_EDGE('',*,*,#491,.F.);
#673=ORIENTED_EDGE('',*,*,#492,.F.);
#674=ORIENTED_EDGE('',*,*,#493,.T.);
#675=ORIENTED_EDGE('',*,*,#494,.T.);
#676=ORIENTED_EDGE('',*,*,#485,.T.);
#677=ORIENTED_EDGE('',*,*,#479,.T.);
#678=ORIENTED_EDGE('',*,*,#484,.T.);
#679=ORIENTED_EDGE('',*,*,#477,.F.);
#680=ORIENTED_EDGE('',*,*,#491,.T.);
#681=ORIENTED_EDGE('',*,*,#495,.F.);
#682=ORIENTED_EDGE('',*,*,#486,.T.);
#683=ORIENTED_EDGE('',*,*,#494,.F.);
#684=ORIENTED_EDGE('',*,*,#496,.F.);
#685=ORIENTED_EDGE('',*,*,#497,.F.);
#686=ORIENTED_EDGE('',*,*,#498,.F.);
#687=ORIENTED_EDGE('',*,*,#499,.F.);
#688=ORIENTED_EDGE('',*,*,#500,.T.);
#689=ORIENTED_EDGE('',*,*,#488,.T.);
#690=ORIENTED_EDGE('',*,*,#475,.T.);
#691=ORIENTED_EDGE('',*,*,#483,.T.);
#692=ORIENTED_EDGE('',*,*,#482,.T.);
#693=ORIENTED_EDGE('',*,*,#487,.F.);
#694=ORIENTED_EDGE('',*,*,#498,.T.);
#695=ORIENTED_EDGE('',*,*,#501,.F.);
#696=ORIENTED_EDGE('',*,*,#492,.T.);
#697=ORIENTED_EDGE('',*,*,#502,.F.);
#698=ORIENTED_EDGE('',*,*,#503,.F.);
#699=ORIENTED_EDGE('',*,*,#504,.F.);
#700=ORIENTED_EDGE('',*,*,#399,.F.);
#701=ORIENTED_EDGE('',*,*,#427,.T.);
#702=ORIENTED_EDGE('',*,*,#473,.F.);
#703=ORIENTED_EDGE('',*,*,#435,.F.);
#704=ORIENTED_EDGE('',*,*,#429,.F.);
#705=ORIENTED_EDGE('',*,*,#428,.T.);
#706=ORIENTED_EDGE('',*,*,#403,.T.);
#707=ORIENTED_EDGE('',*,*,#419,.T.);
#708=ORIENTED_EDGE('',*,*,#458,.F.);
#709=ORIENTED_EDGE('',*,*,#505,.T.);
#710=ORIENTED_EDGE('',*,*,#489,.T.);
#711=ORIENTED_EDGE('',*,*,#500,.F.);
#712=ORIENTED_EDGE('',*,*,#506,.T.);
#713=ORIENTED_EDGE('',*,*,#507,.F.);
#714=ORIENTED_EDGE('',*,*,#463,.F.);
#715=ORIENTED_EDGE('',*,*,#508,.T.);
#716=ORIENTED_EDGE('',*,*,#502,.T.);
#717=ORIENTED_EDGE('',*,*,#495,.T.);
#718=ORIENTED_EDGE('',*,*,#490,.T.);
#719=ORIENTED_EDGE('',*,*,#505,.F.);
#720=ORIENTED_EDGE('',*,*,#462,.F.);
#721=ORIENTED_EDGE('',*,*,#509,.T.);
#722=ORIENTED_EDGE('',*,*,#503,.T.);
#723=ORIENTED_EDGE('',*,*,#508,.F.);
#724=ORIENTED_EDGE('',*,*,#461,.F.);
#725=ORIENTED_EDGE('',*,*,#510,.T.);
#726=ORIENTED_EDGE('',*,*,#496,.T.);
#727=ORIENTED_EDGE('',*,*,#493,.F.);
#728=ORIENTED_EDGE('',*,*,#504,.T.);
#729=ORIENTED_EDGE('',*,*,#509,.F.);
#730=ORIENTED_EDGE('',*,*,#460,.F.);
#731=ORIENTED_EDGE('',*,*,#511,.T.);
#732=ORIENTED_EDGE('',*,*,#512,.T.);
#733=ORIENTED_EDGE('',*,*,#501,.T.);
#734=ORIENTED_EDGE('',*,*,#497,.T.);
#735=ORIENTED_EDGE('',*,*,#510,.F.);
#736=ORIENTED_EDGE('',*,*,#459,.F.);
#737=ORIENTED_EDGE('',*,*,#507,.T.);
#738=ORIENTED_EDGE('',*,*,#513,.T.);
#739=ORIENTED_EDGE('',*,*,#511,.F.);
#740=ORIENTED_EDGE('',*,*,#499,.T.);
#741=ORIENTED_EDGE('',*,*,#512,.F.);
#742=ORIENTED_EDGE('',*,*,#513,.F.);
#743=ORIENTED_EDGE('',*,*,#506,.F.);
#744=PLANE('',#838);
#745=PLANE('',#839);
#746=PLANE('',#840);
#747=PLANE('',#841);
#748=PLANE('',#842);
#749=PLANE('',#843);
#750=PLANE('',#844);
#751=PLANE('',#845);
#752=PLANE('',#846);
#753=PLANE('',#847);
#754=PLANE('',#850);
#755=PLANE('',#852);
#756=PLANE('',#855);
#757=PLANE('',#857);
#758=PLANE('',#867);
#759=PLANE('',#873);
#760=PLANE('',#876);
#761=PLANE('',#877);
#762=PLANE('',#879);
#763=PLANE('',#880);
#764=PLANE('',#881);
#765=PLANE('',#882);
#766=PLANE('',#883);
#767=PLANE('',#884);
#768=PLANE('',#885);
#769=PLANE('',#886);
#770=PLANE('',#887);
#771=PLANE('',#888);
#772=PLANE('',#889);
#773=PLANE('',#890);
#774=PLANE('',#891);
#775=PLANE('',#892);
#776=PLANE('',#893);
#777=PLANE('',#894);
#778=PLANE('',#895);
#779=PLANE('',#896);
#780=PLANE('',#897);
#781=ADVANCED_FACE('',(#43),#744,.F.);
#782=ADVANCED_FACE('',(#44),#745,.F.);
#783=ADVANCED_FACE('',(#45),#746,.T.);
#784=ADVANCED_FACE('',(#46),#747,.T.);
#785=ADVANCED_FACE('',(#47),#748,.F.);
#786=ADVANCED_FACE('',(#48),#749,.T.);
#787=ADVANCED_FACE('',(#49),#750,.F.);
#788=ADVANCED_FACE('',(#50),#751,.F.);
#789=ADVANCED_FACE('',(#51),#752,.F.);
#790=ADVANCED_FACE('',(#52,#31),#753,.T.);
#791=ADVANCED_FACE('',(#53),#754,.T.);
#792=ADVANCED_FACE('',(#54,#32),#755,.F.);
#793=ADVANCED_FACE('',(#55),#756,.T.);
#794=ADVANCED_FACE('',(#56),#757,.T.);
#795=ADVANCED_FACE('',(#57),#17,.F.);
#796=ADVANCED_FACE('',(#58),#18,.T.);
#797=ADVANCED_FACE('',(#59,#33),#758,.T.);
#798=ADVANCED_FACE('',(#60),#19,.T.);
#799=ADVANCED_FACE('',(#61),#20,.T.);
#800=ADVANCED_FACE('',(#62),#759,.T.);
#801=ADVANCED_FACE('',(#63),#21,.T.);
#802=ADVANCED_FACE('',(#64),#760,.T.);
#803=ADVANCED_FACE('',(#65),#761,.T.);
#804=ADVANCED_FACE('',(#66),#22,.T.);
#805=ADVANCED_FACE('',(#67),#762,.F.);
#806=ADVANCED_FACE('',(#68),#763,.F.);
#807=ADVANCED_FACE('',(#69),#764,.F.);
#808=ADVANCED_FACE('',(#70),#765,.F.);
#809=ADVANCED_FACE('',(#71),#766,.F.);
#810=ADVANCED_FACE('',(#72),#767,.F.);
#811=ADVANCED_FACE('',(#73),#768,.T.);
#812=ADVANCED_FACE('',(#74),#769,.F.);
#813=ADVANCED_FACE('',(#75),#770,.T.);
#814=ADVANCED_FACE('',(#76),#771,.F.);
#815=ADVANCED_FACE('',(#77),#772,.T.);
#816=ADVANCED_FACE('',(#78),#773,.T.);
#817=ADVANCED_FACE('',(#79),#774,.F.);
#818=ADVANCED_FACE('',(#80),#775,.F.);
#819=ADVANCED_FACE('',(#81),#776,.F.);
#820=ADVANCED_FACE('',(#82),#777,.F.);
#821=ADVANCED_FACE('',(#83),#778,.F.);
#822=ADVANCED_FACE('',(#84),#779,.F.);
#823=ADVANCED_FACE('',(#85),#780,.T.);
#824=CLOSED_SHELL('',(#781,#782,#783,#784,#785,#786,#787,#788,#789,#790,
#791,#792,#793,#794,#795,#796,#797,#798,#799,#800,#801,#802,#803,#804,#805,
#806,#807,#808,#809,#810,#811,#812,#813,#814,#815,#816,#817,#818,#819,#820,
#821,#822,#823));
#825=DERIVED_UNIT_ELEMENT(#827,1.);
#826=DERIVED_UNIT_ELEMENT(#1375,-3.);
#827=(
MASS_UNIT()
NAMED_UNIT(*)
SI_UNIT(.KILO.,.GRAM.)
);
#828=DERIVED_UNIT((#825,#826));
#829=MEASURE_REPRESENTATION_ITEM('density measure',
POSITIVE_RATIO_MEASURE(7850.),#828);
#830=PROPERTY_DEFINITION_REPRESENTATION(#835,#832);
#831=PROPERTY_DEFINITION_REPRESENTATION(#836,#833);
#832=REPRESENTATION('material name',(#834),#1372);
#833=REPRESENTATION('density',(#829),#1372);
#834=DESCRIPTIVE_REPRESENTATION_ITEM('Steel','Steel');
#835=PROPERTY_DEFINITION('material property','material name',#1382);
#836=PROPERTY_DEFINITION('material property','density of part',#1382);
#837=AXIS2_PLACEMENT_3D('',#1116,#898,#899);
#838=AXIS2_PLACEMENT_3D('',#1117,#900,#901);
#839=AXIS2_PLACEMENT_3D('',#1126,#906,#907);
#840=AXIS2_PLACEMENT_3D('',#1135,#912,#913);
#841=AXIS2_PLACEMENT_3D('',#1138,#916,#917);
#842=AXIS2_PLACEMENT_3D('',#1147,#922,#923);
#843=AXIS2_PLACEMENT_3D('',#1153,#927,#928);
#844=AXIS2_PLACEMENT_3D('',#1159,#932,#933);
#845=AXIS2_PLACEMENT_3D('',#1161,#935,#936);
#846=AXIS2_PLACEMENT_3D('',#1163,#938,#939);
#847=AXIS2_PLACEMENT_3D('',#1165,#941,#942);
#848=AXIS2_PLACEMENT_3D('',#1170,#944,#945);
#849=AXIS2_PLACEMENT_3D('',#1174,#947,#948);
#850=AXIS2_PLACEMENT_3D('',#1179,#952,#953);
#851=AXIS2_PLACEMENT_3D('',#1189,#958,#959);
#852=AXIS2_PLACEMENT_3D('',#1191,#961,#962);
#853=AXIS2_PLACEMENT_3D('',#1196,#965,#966);
#854=AXIS2_PLACEMENT_3D('',#1198,#967,#968);
#855=AXIS2_PLACEMENT_3D('',#1199,#969,#970);
#856=AXIS2_PLACEMENT_3D('',#1204,#972,#973);
#857=AXIS2_PLACEMENT_3D('',#1208,#976,#977);
#858=AXIS2_PLACEMENT_3D('',#1210,#978,#979);
#859=AXIS2_PLACEMENT_3D('',#1214,#982,#983);
#860=AXIS2_PLACEMENT_3D('',#1218,#985,#986);
#861=AXIS2_PLACEMENT_3D('',#1220,#987,#988);
#862=AXIS2_PLACEMENT_3D('',#1222,#989,#990);
#863=AXIS2_PLACEMENT_3D('',#1223,#991,#992);
#864=AXIS2_PLACEMENT_3D('',#1224,#993,#994);
#865=AXIS2_PLACEMENT_3D('',#1228,#996,#997);
#866=AXIS2_PLACEMENT_3D('',#1230,#998,#999);
#867=AXIS2_PLACEMENT_3D('',#1241,#1000,#1001);
#868=AXIS2_PLACEMENT_3D('',#1244,#1003,#1004);
#869=AXIS2_PLACEMENT_3D('',#1245,#1005,#1006);
#870=AXIS2_PLACEMENT_3D('',#1258,#1013,#1014);
#871=AXIS2_PLACEMENT_3D('',#1273,#1016,#1017);
#872=AXIS2_PLACEMENT_3D('',#1275,#1018,#1019);
#873=AXIS2_PLACEMENT_3D('',#1277,#1021,#1022);
#874=AXIS2_PLACEMENT_3D('',#1279,#1023,#1024);
#875=AXIS2_PLACEMENT_3D('',#1281,#1026,#1027);
#876=AXIS2_PLACEMENT_3D('',#1284,#1030,#1031);
#877=AXIS2_PLACEMENT_3D('',#1285,#1032,#1033);
#878=AXIS2_PLACEMENT_3D('',#1288,#1036,#1037);
#879=AXIS2_PLACEMENT_3D('',#1289,#1038,#1039);
#880=AXIS2_PLACEMENT_3D('',#1299,#1045,#1046);
#881=AXIS2_PLACEMENT_3D('',#1303,#1049,#1050);
#882=AXIS2_PLACEMENT_3D('',#1307,#1053,#1054);
#883=AXIS2_PLACEMENT_3D('',#1309,#1056,#1057);
#884=AXIS2_PLACEMENT_3D('',#1311,#1059,#1060);
#885=AXIS2_PLACEMENT_3D('',#1317,#1064,#1065);
#886=AXIS2_PLACEMENT_3D('',#1325,#1070,#1071);
#887=AXIS2_PLACEMENT_3D('',#1333,#1076,#1077);
#888=AXIS2_PLACEMENT_3D('',#1339,#1081,#1082);
#889=AXIS2_PLACEMENT_3D('',#1345,#1086,#1087);
#890=AXIS2_PLACEMENT_3D('',#1351,#1091,#1092);
#891=AXIS2_PLACEMENT_3D('',#1352,#1093,#1094);
#892=AXIS2_PLACEMENT_3D('',#1357,#1098,#1099);
#893=AXIS2_PLACEMENT_3D('',#1359,#1101,#1102);
#894=AXIS2_PLACEMENT_3D('',#1361,#1104,#1105);
#895=AXIS2_PLACEMENT_3D('',#1363,#1107,#1108);
#896=AXIS2_PLACEMENT_3D('',#1367,#1111,#1112);
#897=AXIS2_PLACEMENT_3D('',#1369,#1114,#1115);
#898=DIRECTION('axis',(0.,0.,1.));
#899=DIRECTION('refdir',(1.,0.,0.));
#900=DIRECTION('center_axis',(-8.32667351057659E-17,-1.,-1.48908663177847E-14));
#901=DIRECTION('ref_axis',(1.65502899586232E-23,-1.48908663177847E-14,1.));
#902=DIRECTION('',(-1.,8.32667351057659E-17,-8.4249557568626E-32));
#903=DIRECTION('',(3.66373597465195E-15,1.48908663177847E-14,-1.));
#904=DIRECTION('',(1.,-8.32667351057649E-17,-6.29270816236822E-17));
#905=DIRECTION('',(1.98523930769797E-23,-1.48908663177847E-14,1.));
#906=DIRECTION('center_axis',(8.32667351057659E-17,1.,1.48908663177847E-14));
#907=DIRECTION('ref_axis',(-1.65502386826644E-23,1.48908663177847E-14,-1.));
#908=DIRECTION('',(1.,-8.32667351057659E-17,8.4249557568626E-32));
#909=DIRECTION('',(-1.98523930769797E-23,1.48908663177847E-14,-1.));
#910=DIRECTION('',(1.,-8.32667351057649E-17,-6.29270816236822E-17));
#911=DIRECTION('',(-3.66373597465195E-15,-1.48908663177847E-14,1.));
#912=DIRECTION('center_axis',(-6.2927081623681E-17,1.48908663177847E-14,
-1.));
#913=DIRECTION('ref_axis',(1.71248418845405E-24,1.,1.48908663177847E-14));
#914=DIRECTION('',(8.32667351057659E-17,1.,1.48908663177847E-14));
#915=DIRECTION('',(1.609220068814E-24,-1.,-1.48908663177847E-14));
#916=DIRECTION('center_axis',(3.30858045524917E-24,-4.96101224967428E-17,
-1.));
#917=DIRECTION('ref_axis',(-1.,-1.87326390656681E-14,-3.30857808866646E-24));
#918=DIRECTION('',(1.,-8.32667351057659E-17,3.30858045938004E-24));
#919=DIRECTION('',(-1.6092200688143E-24,1.,-4.96101224967428E-17));
#920=DIRECTION('',(-1.,8.32667351057659E-17,-3.30858045938004E-24));
#921=DIRECTION('',(-8.32667351058206E-17,-1.,4.96101224967428E-17));
#922=DIRECTION('center_axis',(-8.32667351057659E-17,-1.,-1.48908663177847E-14));
#923=DIRECTION('ref_axis',(1.65502899586232E-23,-1.48908663177847E-14,1.));
#924=DIRECTION('',(1.98523930769797E-23,-1.48908663177847E-14,1.));
#925=DIRECTION('',(1.,-8.32667351057649E-17,-6.29270816236822E-17));
#926=DIRECTION('',(3.66373597465195E-15,1.48908663177847E-14,-1.));
#927=DIRECTION('center_axis',(6.2927081623681E-17,-1.48908663177847E-14,
1.));
#928=DIRECTION('ref_axis',(2.07117489863645E-16,-1.,-1.48908663177847E-14));
#929=DIRECTION('',(1.,-8.32667351057649E-17,-6.29270816236822E-17));
#930=DIRECTION('',(-8.32667351057659E-17,-1.,-1.48908663177847E-14));
#931=DIRECTION('',(-1.609220068814E-24,1.,1.48908663177847E-14));
#932=DIRECTION('center_axis',(-1.,8.32667351058204E-17,-3.66373597465195E-15));
#933=DIRECTION('ref_axis',(-3.66373597465195E-15,-1.48908663177846E-14,
1.));
#934=DIRECTION('',(-8.32667351058206E-17,-1.,4.96101109157598E-17));
#935=DIRECTION('center_axis',(-1.,8.32667351058204E-17,-3.66373597465195E-15));
#936=DIRECTION('ref_axis',(-3.66373597465195E-15,-1.48908663177846E-14,
1.));
#937=DIRECTION('',(-3.66373597465195E-15,-1.48908663177847E-14,1.));
#938=DIRECTION('center_axis',(8.32667351057659E-17,1.,1.48908663177847E-14));
#939=DIRECTION('ref_axis',(-1.65502386826644E-23,1.48908663177847E-14,-1.));
#940=DIRECTION('',(-1.98523930769797E-23,1.48908663177847E-14,-1.));
#941=DIRECTION('center_axis',(1.,1.6092200688143E-24,-1.98523930769797E-23));
#942=DIRECTION('ref_axis',(-1.60922006496382E-24,1.,-8.51402282009417E-15));
#943=DIRECTION('',(3.66373597465202E-15,-3.15544362694519E-30,-1.));
#944=DIRECTION('center_axis',(-1.,-1.6092200688143E-24,1.98523930769797E-23));
#945=DIRECTION('ref_axis',(9.4890326213076E-25,0.573576436351045,0.819152044288993));
#946=DIRECTION('',(3.81551034733728E-24,0.939692620785909,0.342020143325666));
#947=DIRECTION('center_axis',(-1.,-1.6092200688143E-24,1.98523930769797E-23));
#948=DIRECTION('ref_axis',(-1.35517292706611E-24,-0.819152044288987,0.573576436351053));
#949=DIRECTION('',(-3.66373597465202E-15,3.15544362694519E-30,1.));
#950=DIRECTION('',(-1.6092200688143E-24,1.,-4.96101109157598E-17));
#951=DIRECTION('',(-1.6092200688143E-24,1.,-4.96101109157598E-17));
#952=DIRECTION('center_axis',(1.65436121971355E-24,1.,-3.15544362088405E-30));
#953=DIRECTION('ref_axis',(-7.88358054172306E-31,-3.15544362088405E-30,
-1.));
#954=DIRECTION('',(-1.,1.65436121971355E-24,-8.01186856865088E-32));
#955=DIRECTION('',(7.88860905221012E-31,3.15544362088405E-30,1.));
#956=DIRECTION('',(1.,-1.65436121971355E-24,-7.88860905221012E-31));
#957=DIRECTION('',(-7.88860905221012E-31,-3.15544362088405E-30,-1.));
#958=DIRECTION('center_axis',(-1.65436121971355E-24,-1.,3.15544362088405E-30));
#959=DIRECTION('ref_axis',(-0.412686369605929,4.44430882909728E-18,-0.910873185652909));
#960=DIRECTION('',(-1.,1.65436121971355E-24,-9.29406027044393E-26));
#961=DIRECTION('center_axis',(-1.,1.65436121971355E-24,7.88860905221012E-31));
#962=DIRECTION('ref_axis',(7.88860905221012E-31,-1.15805254202988E-23,1.));
#963=DIRECTION('',(-1.65436121971355E-24,-1.,4.96101109157598E-17));
#964=DIRECTION('',(-7.88860905221012E-31,-3.15544362088405E-30,-1.));
#965=DIRECTION('center_axis',(1.,-1.65436121971355E-24,-7.88860905221012E-31));
#966=DIRECTION('ref_axis',(1.65436121971355E-24,1.,-1.6543643385202E-24));
#967=DIRECTION('center_axis',(-1.,1.65437858915512E-24,7.88860905221012E-31));
#968=DIRECTION('ref_axis',(1.65436121971355E-24,1.,-1.65436437158535E-24));
#969=DIRECTION('center_axis',(-0.707106781186548,-0.707106781186547,2.78904447747368E-30));
#970=DIRECTION('ref_axis',(7.88860905221012E-31,3.15544362088405E-30,1.));
#971=DIRECTION('',(7.88860905221012E-31,3.15544362088405E-30,1.));
#972=DIRECTION('center_axis',(0.707106781186548,0.707106781186547,-2.78904447747368E-30));
#973=DIRECTION('ref_axis',(0.707106781186547,-0.707106781186548,5.7455214487113E-15));
#974=DIRECTION('',(7.88860905221012E-31,3.15544362088405E-30,1.));
#975=DIRECTION('',(0.488639843152018,-0.488639843152019,0.722815472557652));
#976=DIRECTION('center_axis',(-0.707106781186546,0.707106781186549,-1.67342668648421E-30));
#977=DIRECTION('ref_axis',(7.88860905221012E-31,3.15544362088405E-30,1.));
#978=DIRECTION('center_axis',(0.707106781186546,-0.707106781186549,1.67342668648421E-30));
#979=DIRECTION('ref_axis',(-0.707106781186549,-0.707106781186546,6.2951250938199E-15));
#980=DIRECTION('',(7.88860905221012E-31,3.15544362088405E-30,1.));
#981=DIRECTION('',(-0.381478142846464,-0.381478142846463,-0.841991005332496));
#982=DIRECTION('center_axis',(1.,-1.65436121971355E-24,-7.88860905221012E-31));
#983=DIRECTION('ref_axis',(1.65436121971355E-24,1.,-1.65436437158535E-24));
#984=DIRECTION('',(-1.,1.65436121971355E-24,7.88860905221012E-31));
#985=DIRECTION('center_axis',(-1.,4.96308966842703E-24,-7.4940053831325E-16));
#986=DIRECTION('ref_axis',(1.65436121971355E-24,1.,-1.65436437158535E-24));
#987=DIRECTION('center_axis',(-1.,4.96308966842703E-24,-7.4940053831325E-16));
#988=DIRECTION('ref_axis',(1.65436121971355E-24,1.,-1.65436437158535E-24));
#989=DIRECTION('center_axis',(-1.,4.96308966842703E-24,-7.4940053831325E-16));
#990=DIRECTION('ref_axis',(1.65436121971355E-24,1.,-1.65436437158535E-24));
#991=DIRECTION('center_axis',(-1.,4.96308966842703E-24,-7.4940053831325E-16));
#992=DIRECTION('ref_axis',(1.65436121971355E-24,1.,-1.65436437158535E-24));
#993=DIRECTION('center_axis',(0.488639843152018,-0.488639843152019,0.722815472557652));
#994=DIRECTION('ref_axis',(-0.844916904846259,-0.471629644661118,0.252350752291024));
#995=DIRECTION('',(-0.488639843152017,0.488639843152019,-0.722815472557652));
#996=DIRECTION('center_axis',(1.,-1.65436121971355E-24,-7.88860905221012E-31));
#997=DIRECTION('ref_axis',(-9.26532482813459E-25,-0.560054915630745,0.82845548551376));
#998=DIRECTION('center_axis',(1.65436121971355E-24,1.,-3.15544362088405E-30));
#999=DIRECTION('ref_axis',(-0.560054915630744,9.26530522205025E-25,-0.82845548551376));
#1000=DIRECTION('center_axis',(-1.,1.65436121971355E-24,7.88860905221012E-31));
#1001=DIRECTION('ref_axis',(7.88860905221012E-31,3.15544362088405E-30,1.));
#1002=DIRECTION('',(-1.55459130008552E-24,-0.93969262078591,-0.342020143325665));
#1003=DIRECTION('center_axis',(1.,-1.65436121971355E-24,-7.88860905221012E-31));
#1004=DIRECTION('ref_axis',(6.8273304655812E-25,0.412686369605928,0.910873185652909));
#1005=DIRECTION('center_axis',(-1.,1.65436096438323E-24,1.98523946547015E-23));
#1006=DIRECTION('ref_axis',(-1.65436096438306E-24,-1.,8.51402282009417E-15));
#1007=DIRECTION('',(8.27179926683191E-25,0.5,-0.866025403784439));
#1008=DIRECTION('',(1.65436121971355E-24,1.,-2.71654715840788E-16));
#1009=DIRECTION('',(8.2718129303036E-25,0.5,0.866025403784438));
#1010=DIRECTION('',(-8.27179926683191E-25,-0.5,0.866025403784439));
#1011=DIRECTION('',(-1.65436121971355E-24,-1.,2.71654715840788E-16));
#1012=DIRECTION('',(-8.2718129303036E-25,-0.5,-0.866025403784438));
#1013=DIRECTION('center_axis',(-0.381478142846464,-0.381478142846463,-0.841991005332496));
#1014=DIRECTION('ref_axis',(-0.910847900185402,0.310401482361755,0.272042317435116));
#1015=DIRECTION('',(0.381478142846464,0.381478142846463,0.841991005332495));
#1016=DIRECTION('center_axis',(-1.,1.65436121971355E-24,-9.29406027044393E-26));
#1017=DIRECTION('ref_axis',(9.4890326213076E-25,0.573576436351045,0.819152044288993));
#1018=DIRECTION('center_axis',(0.866025403784441,0.171010071662831,-0.469846310392951));
#1019=DIRECTION('ref_axis',(0.499999999999996,-0.296198132726021,0.813797681349377));
#1020=DIRECTION('',(1.,-1.65436121971355E-24,9.29406027044393E-26));
#1021=DIRECTION('center_axis',(-0.866025403784441,-0.171010071662831,0.469846310392951));
#1022=DIRECTION('ref_axis',(0.484220415495543,-0.0526380228855517,0.873361224101474));
#1023=DIRECTION('center_axis',(0.866025403784441,0.171010071662831,-0.469846310392951));
#1024=DIRECTION('ref_axis',(0.499999999999996,-0.296198132726021,0.813797681349377));
#1025=DIRECTION('',(1.12172823527833E-15,0.939692620785909,0.342020143325666));
#1026=DIRECTION('center_axis',(1.,-1.65436121971355E-24,9.29406027044393E-26));
#1027=DIRECTION('ref_axis',(-1.35517292706611E-24,-0.819152044288987,0.573576436351053));
#1028=DIRECTION('',(1.,-1.65436121971355E-24,9.29406027044393E-26));
#1029=DIRECTION('',(-1.,1.65436121971355E-24,-9.29406027044393E-26));
#1030=DIRECTION('center_axis',(-6.53160460011609E-25,-0.342020143325666,
0.939692620785909));
#1031=DIRECTION('ref_axis',(1.82971834433841E-24,0.939692620785909,0.342020143325666));
#1032=DIRECTION('center_axis',(-1.65436121971355E-24,-1.,3.15544362088405E-30));
#1033=DIRECTION('ref_axis',(7.88358054172306E-31,3.15544362088405E-30,1.));
#1034=DIRECTION('',(-1.,1.65436121971355E-24,7.88860905221012E-31));
#1035=DIRECTION('',(1.,-1.65436121971355E-24,8.01186856865088E-32));
#1036=DIRECTION('center_axis',(1.,-1.65436121971355E-24,-7.88860905221012E-31));
#1037=DIRECTION('ref_axis',(-7.88860905168534E-31,6.12323383030033E-17,
-1.));
#1038=DIRECTION('center_axis',(-4.96308026680746E-24,-1.,-1.25455201782643E-14));
#1039=DIRECTION('ref_axis',(-1.98523400260838E-23,1.25455201782643E-14,
-1.));
#1040=DIRECTION('',(-1.98523400260838E-23,1.25455201782643E-14,-1.));
#1041=DIRECTION('',(1.,-4.96308966842703E-24,7.4940053831325E-16));
#1042=DIRECTION('',(-9.92617040747232E-24,1.25455201782643E-14,-1.));
#1043=DIRECTION('',(1.,-4.96308966842703E-24,7.4940053831325E-16));
#1044=DIRECTION('',(-1.98523400260838E-23,1.25455201782643E-14,-1.));
#1045=DIRECTION('center_axis',(1.,-4.96308966842703E-24,7.4940053831325E-16));
#1046=DIRECTION('ref_axis',(7.4940053831325E-16,1.25455201782643E-14,-1.));
#1047=DIRECTION('',(8.15800948336375E-13,-1.,-1.25455201782643E-14));
#1048=DIRECTION('',(-8.15800948318177E-13,-1.25455201782643E-14,1.));
#1049=DIRECTION('center_axis',(1.,-4.96308966842703E-24,7.4940053831325E-16));
#1050=DIRECTION('ref_axis',(7.4940053831325E-16,1.25455201782643E-14,-1.));
#1051=DIRECTION('',(-8.15800948318177E-13,-1.25455201782643E-14,1.));
#1052=DIRECTION('',(1.65436098605033E-24,1.,1.25455201782643E-14));
#1053=DIRECTION('center_axis',(1.,-4.96308966842703E-24,7.4940053831325E-16));
#1054=DIRECTION('ref_axis',(7.4940053831325E-16,1.25455201782643E-14,-1.));
#1055=DIRECTION('',(1.65436098605033E-24,1.,1.25455201782643E-14));
#1056=DIRECTION('center_axis',(1.,-4.96308966842703E-24,7.4940053831325E-16));
#1057=DIRECTION('ref_axis',(7.4940053831325E-16,1.25455201782643E-14,-1.));
#1058=DIRECTION('',(8.15800948336375E-13,-1.,-1.25455201782643E-14));
#1059=DIRECTION('center_axis',(4.96308026680746E-24,1.,1.25455201782643E-14));
#1060=DIRECTION('ref_axis',(-8.15800948318177E-13,-1.25455201782643E-14,
1.));
#1061=DIRECTION('',(1.,-4.96308966842703E-24,7.4940053831325E-16));
#1062=DIRECTION('',(9.92617040747232E-24,-1.25455201782643E-14,1.));
#1063=DIRECTION('',(1.,-4.96308966842703E-24,7.4940053831325E-16));
#1064=DIRECTION('center_axis',(-1.,1.65436110288181E-24,9.92617040747234E-24));
#1065=DIRECTION('ref_axis',(-1.65436110288194E-24,-1.,-1.25455201782643E-14));
#1066=DIRECTION('',(1.65436110288194E-24,1.,1.25455201782643E-14));
#1067=DIRECTION('',(-7.76913518372347E-24,0.5,-0.866025403784439));
#1068=DIRECTION('',(-9.42349628660528E-24,-0.5,-0.866025403784438));
#1069=DIRECTION('',(2.58022601569671E-14,-1.,-1.25455201782643E-14));
#1070=DIRECTION('center_axis',(-7.4940053831325E-16,-1.25455201782643E-14,
1.));
#1071=DIRECTION('ref_axis',(2.58022601569671E-14,-1.,-1.25455201782643E-14));
#1072=DIRECTION('',(-1.65436121971355E-24,-1.,-1.25455201782643E-14));
#1073=DIRECTION('',(1.,-4.32666604180364E-16,7.49400538313245E-16));
#1074=DIRECTION('',(2.58022601569671E-14,-1.,-1.25455201782643E-14));
#1075=DIRECTION('',(-1.,-4.32666600871648E-16,-7.49400538313255E-16));
#1076=DIRECTION('center_axis',(-1.,1.65436110288181E-24,9.92617040747234E-24));
#1077=DIRECTION('ref_axis',(-1.65436110288194E-24,-1.,-1.25455201782643E-14));
#1078=DIRECTION('',(7.76913518372347E-24,-0.5,0.866025403784439));
#1079=DIRECTION('',(9.42349628660528E-24,0.5,0.866025403784438));
#1080=DIRECTION('',(1.65436110288194E-24,1.,1.25455201782643E-14));
#1081=DIRECTION('center_axis',(7.4940053831325E-16,1.25455201782643E-14,
-1.));
#1082=DIRECTION('ref_axis',(1.65436110288194E-24,1.,1.25455201782643E-14));
#1083=DIRECTION('',(1.65436121971355E-24,1.,1.25455201782643E-14));
#1084=DIRECTION('',(1.,-4.32666604180364E-16,7.49400538313245E-16));
#1085=DIRECTION('',(-1.,-4.32666600871648E-16,-7.49400538313255E-16));
#1086=DIRECTION('center_axis',(-1.,1.65436121971355E-24,7.88860905221012E-31));
#1087=DIRECTION('ref_axis',(-1.65436121971355E-24,-1.,2.71654715840788E-16));
#1088=DIRECTION('',(-8.2718129303036E-25,-0.5,-0.866025403784438));
#1089=DIRECTION('',(-1.65436121971355E-24,-1.,2.71654715840788E-16));
#1090=DIRECTION('',(-8.27179926683191E-25,-0.5,0.866025403784439));
#1091=DIRECTION('center_axis',(-8.01186856044358E-32,4.96101109157598E-17,
1.));
#1092=DIRECTION('ref_axis',(-3.40665869941604E-15,1.,-4.96101109157598E-17));
#1093=DIRECTION('center_axis',(-1.4327192377382E-24,-0.866025403784439,
-0.5));
#1094=DIRECTION('ref_axis',(8.27179926683191E-25,0.5,-0.866025403784439));
#1095=DIRECTION('',(1.,-1.65436121971355E-24,-7.88860905221012E-31));
#1096=DIRECTION('',(8.27179926683191E-25,0.5,-0.866025403784439));
#1097=DIRECTION('',(-1.,1.65436121971355E-24,7.88860905221012E-31));
#1098=DIRECTION('center_axis',(-1.43271844887729E-24,-0.866025403784438,
0.5));
#1099=DIRECTION('ref_axis',(-8.2718129303036E-25,-0.5,-0.866025403784438));
#1100=DIRECTION('',(1.,-1.65436121971355E-24,-7.88860905221012E-31));
#1101=DIRECTION('center_axis',(7.88860905670427E-31,2.71654715840788E-16,
1.));
#1102=DIRECTION('ref_axis',(-1.65436121971355E-24,-1.,2.71654715840788E-16));
#1103=DIRECTION('',(1.,-1.65436121971355E-24,-7.88860905221012E-31));
#1104=DIRECTION('center_axis',(1.4327192377382E-24,0.866025403784439,0.5));
#1105=DIRECTION('ref_axis',(-8.27179926683191E-25,-0.5,0.866025403784439));
#1106=DIRECTION('',(1.,-1.65436121971355E-24,-7.88860905221012E-31));
#1107=DIRECTION('center_axis',(1.43271844887729E-24,0.866025403784438,-0.5));
#1108=DIRECTION('ref_axis',(8.2718129303036E-25,0.5,0.866025403784438));
#1109=DIRECTION('',(1.,-1.65436121971355E-24,-7.88860905221012E-31));
#1110=DIRECTION('',(8.2718129303036E-25,0.5,0.866025403784438));
#1111=DIRECTION('center_axis',(-7.88860905670427E-31,-2.71654715840788E-16,
-1.));
#1112=DIRECTION('ref_axis',(1.65436121971355E-24,1.,-2.71654715840788E-16));
#1113=DIRECTION('',(1.65436121971355E-24,1.,-2.71654715840788E-16));
#1114=DIRECTION('center_axis',(-1.,1.65436121971355E-24,7.88860905221012E-31));
#1115=DIRECTION('ref_axis',(-1.65436121971355E-24,-1.,2.71654715840788E-16));
#1116=CARTESIAN_POINT('',(0.,0.,0.));
#1117=CARTESIAN_POINT('Origin',(-7.64992134856503,163.430801050835,80.4695057386494));
#1118=CARTESIAN_POINT('',(-7.64992134856518,163.430801050835,80.3695057412944));
#1119=CARTESIAN_POINT('',(-9.14992134856503,163.430801050835,80.3695057412944));
#1120=CARTESIAN_POINT('',(1.50000138746487,163.430801050835,80.3695057412944));
#1121=CARTESIAN_POINT('',(-9.14992134856504,163.430801050835,83.5509046385747));
#1122=CARTESIAN_POINT('',(-9.14992134856503,163.430801050835,81.9602051886122));
#1123=CARTESIAN_POINT('',(-7.64992134856518,163.430801050835,83.5509046385747));
#1124=CARTESIAN_POINT('',(-7.14992130501622,163.430801050835,83.5509046385747));
#1125=CARTESIAN_POINT('',(-7.64992134856518,163.430801050835,83.9066471428377));
#1126=CARTESIAN_POINT('Origin',(-7.64992134856503,170.930801050835,83.4509046385752));
#1127=CARTESIAN_POINT('',(-7.64992134856518,170.930801050835,80.3695057412944));
#1128=CARTESIAN_POINT('',(-9.14992134856503,170.930801050835,80.3695057412944));
#1129=CARTESIAN_POINT('',(1.50000138746487,170.930801050835,80.3695057412944));
#1130=CARTESIAN_POINT('',(-7.64992134856518,170.930801050835,83.5509046385748));
#1131=CARTESIAN_POINT('',(-7.64992134856518,170.930801050835,85.3973465928007));
#1132=CARTESIAN_POINT('',(-9.14992134856504,170.930801050835,83.5509046385748));
#1133=CARTESIAN_POINT('',(-7.14992130501622,170.930801050835,83.5509046385749));
#1134=CARTESIAN_POINT('',(-9.14992134856504,170.930801050835,83.4509046385752));
#1135=CARTESIAN_POINT('Origin',(-6.64992126146742,160.180801050833,83.5509046385747));
#1136=CARTESIAN_POINT('',(-9.14992134856504,163.680801050834,83.5509046385747));
#1137=CARTESIAN_POINT('',(-7.64992134856518,163.68080105083,83.5509046385747));
#1138=CARTESIAN_POINT('Origin',(5.50000189641333,161.080801050836,95.3323035385005));
#1139=CARTESIAN_POINT('',(-7.64992134856518,170.930801050835,95.3323035385005));
#1140=CARTESIAN_POINT('',(-9.14992134856505,170.930801050835,95.3323035385005));
#1141=CARTESIAN_POINT('',(-1.07495972607585,170.930801050835,95.3323035385005));
#1142=CARTESIAN_POINT('',(-7.64992134856518,163.430801050835,95.3323035385005));
#1143=CARTESIAN_POINT('',(-7.64992134856518,164.130801050832,95.3323035385005));
#1144=CARTESIAN_POINT('',(-9.14992134856505,163.430801050835,95.3323035385005));
#1145=CARTESIAN_POINT('',(-1.07495972607585,163.430801050835,95.3323035385005));
#1146=CARTESIAN_POINT('',(-9.14992134856505,164.130801050835,95.3323035385005));
#1147=CARTESIAN_POINT('Origin',(-7.64992134856503,163.430801050835,90.2509046385748));
#1148=CARTESIAN_POINT('',(-7.64992134856518,163.430801050835,90.1509046385747));
#1149=CARTESIAN_POINT('',(-7.64992134856518,163.430801050835,88.7973465928004));
#1150=CARTESIAN_POINT('',(-9.14992134856503,163.430801050835,90.1509046385747));
#1151=CARTESIAN_POINT('',(-7.14992130501623,163.430801050835,90.1509046385747));
#1152=CARTESIAN_POINT('',(-9.14992134856502,163.430801050835,86.8509046385749));
#1153=CARTESIAN_POINT('Origin',(-6.64992126146742,174.180801050833,90.1509046385749));
#1154=CARTESIAN_POINT('',(-7.64992134856518,170.930801050835,90.1509046385749));
#1155=CARTESIAN_POINT('',(-9.14992134856503,170.930801050835,90.1509046385749));
#1156=CARTESIAN_POINT('',(-7.14992130501623,170.930801050835,90.1509046385749));
#1157=CARTESIAN_POINT('',(-9.14992134856503,170.680801050833,90.1509046385749));
#1158=CARTESIAN_POINT('',(-7.64992134856518,170.68080105083,90.1509046385749));
#1159=CARTESIAN_POINT('Origin',(-9.14992134856504,167.180801050835,83.4509046385751));
#1160=CARTESIAN_POINT('',(-9.14992134856503,164.130801050832,80.3695057412944));
#1161=CARTESIAN_POINT('Origin',(-9.14992134856501,167.180801050835,83.4509046385751));
#1162=CARTESIAN_POINT('',(-9.14992134856502,170.930801050835,89.3416040885378));
#1163=CARTESIAN_POINT('Origin',(-7.64992134856503,170.930801050835,95.2323035385005));
#1164=CARTESIAN_POINT('',(-7.64992134856518,170.930801050835,91.2880460427633));
#1165=CARTESIAN_POINT('Origin',(-7.64992134856518,167.180801050828,87.3437885470262));
#1166=CARTESIAN_POINT('',(-7.64992134856518,174.180801050829,105.163133373157));
#1167=CARTESIAN_POINT('',(-7.64992134856525,174.180801050829,80.3695057412944));
#1168=CARTESIAN_POINT('',(-7.64992134856528,174.180801050829,89.0849389923679));
#1169=CARTESIAN_POINT('',(-7.64992134856518,170.154740620852,107.982211235515));
#1170=CARTESIAN_POINT('Origin',(-7.64992134856518,171.180801050829,105.163133373157));
#1171=CARTESIAN_POINT('',(-7.64992134856518,162.154740620852,105.070449361385));
#1172=CARTESIAN_POINT('',(-7.64992134856518,163.146479446467,105.431412774075));
#1173=CARTESIAN_POINT('',(-7.64992134856518,160.180801050829,102.251371499027));
#1174=CARTESIAN_POINT('Origin',(-7.64992134856518,163.180801050829,102.251371499027));
#1175=CARTESIAN_POINT('',(-7.64992134856504,160.180801050829,80.3695057412944));
#1176=CARTESIAN_POINT('',(-7.64992134856502,160.180801050829,76.5849388998912));
#1177=CARTESIAN_POINT('',(-7.64992134856518,164.130801050828,80.3695057412944));
#1178=CARTESIAN_POINT('',(-7.64992134856518,164.130801050828,80.3695057412944));
#1179=CARTESIAN_POINT('Origin',(9.65960684561665,174.180801050829,98.369150809442));
#1180=CARTESIAN_POINT('',(-6.64992134856539,174.180801050829,80.3695057412944));
#1181=CARTESIAN_POINT('',(10.1547654845557,174.180801050829,80.3695057412944));
#1182=CARTESIAN_POINT('',(-6.64992134856539,174.180801050829,73.369150809442));
#1183=CARTESIAN_POINT('',(-6.64992134856539,174.180801050829,92.5887271739713));
#1184=CARTESIAN_POINT('',(-11.4997857091464,174.180801050829,73.369150809442));
#1185=CARTESIAN_POINT('',(-5.80960389649156,174.180801050829,73.369150809442));
#1186=CARTESIAN_POINT('',(-11.4997857091464,174.180801050829,105.118076300083));
#1187=CARTESIAN_POINT('',(-11.4997857091464,174.180801050829,92.494150809442));
#1188=CARTESIAN_POINT('',(-11.4996817864166,174.180801050829,105.163133373157));
#1189=CARTESIAN_POINT('Origin',(-5.84293145965404,174.180801050829,111.360924659637));
#1190=CARTESIAN_POINT('',(9.65960684561665,174.180801050829,105.163133373157));
#1191=CARTESIAN_POINT('Origin',(-6.64992134856539,161.080801050828,86.8083035385005));
#1192=CARTESIAN_POINT('',(-6.64992134856539,160.180801050829,80.3695057412944));
#1193=CARTESIAN_POINT('',(-6.64992134856539,161.080801050829,80.3695057412944));
#1194=CARTESIAN_POINT('',(-6.64992134856539,160.180801050829,73.369150809442));
#1195=CARTESIAN_POINT('',(-6.64992134856539,160.180801050829,80.0887270814946));
#1196=CARTESIAN_POINT('Origin',(-6.64992134856539,167.180801050829,73.369150809442));
#1197=CARTESIAN_POINT('',(-6.64992117436967,165.530801050829,73.369150809442));
#1198=CARTESIAN_POINT('Origin',(-6.64992117436967,167.180801050829,73.369150809442));
#1199=CARTESIAN_POINT('Origin',(-12.9997857091464,161.680801050829,79.9941507169654));
#1200=CARTESIAN_POINT('',(-14.4997857091462,163.180801050829,79.11371345598));
#1201=CARTESIAN_POINT('',(-14.4997857091464,163.180801050829,97.6437003789114));
#1202=CARTESIAN_POINT('',(-14.4997857091464,163.180801050829,83.3066507632037));
#1203=CARTESIAN_POINT('',(-11.4997857091464,160.180801050829,73.369150809442));
#1204=CARTESIAN_POINT('Origin',(-18.4997857091464,167.180801050829,73.369150809442));
#1205=CARTESIAN_POINT('',(-11.4997857091464,160.180801050829,102.081419586754));
#1206=CARTESIAN_POINT('',(-11.4997857091464,160.180801050829,79.9941507169654));
#1207=CARTESIAN_POINT('',(-15.9715465779437,164.652561919626,95.4666132199738));
#1208=CARTESIAN_POINT('Origin',(-12.9997857091464,172.680801050829,92.494150809442));
#1209=CARTESIAN_POINT('',(-14.4997857091462,171.180801050829,79.11371345598));
#1210=CARTESIAN_POINT('Origin',(-18.4997857091465,167.180801050829,73.369150809442));
#1211=CARTESIAN_POINT('',(-14.4997857091464,171.180801050829,98.4965356866435));
#1212=CARTESIAN_POINT('',(-14.4997857091464,171.180801050829,92.494150809442));
#1213=CARTESIAN_POINT('',(-14.9399137853176,170.740672974657,97.5250937094826));
#1214=CARTESIAN_POINT('Origin',(-5.80960389649156,167.180801050829,73.369150809442));
#1215=CARTESIAN_POINT('',(-11.3997857091449,165.530801050829,73.369150809442));
#1216=CARTESIAN_POINT('',(-5.80960389649156,165.530801050829,73.369150809442));
#1217=CARTESIAN_POINT('',(-11.3997857091463,167.180801050829,75.019150809442));
#1218=CARTESIAN_POINT('Origin',(-11.3997857091449,167.180801050829,73.369150809442));
#1219=CARTESIAN_POINT('',(-11.3997857091463,168.830801050829,73.369150809442));
#1220=CARTESIAN_POINT('Origin',(-11.3997857091449,167.180801050829,73.369150809442));
#1221=CARTESIAN_POINT('',(-11.3997857091449,167.180801050829,71.719150809442));
#1222=CARTESIAN_POINT('Origin',(-11.3997857091449,167.180801050829,73.369150809442));
#1223=CARTESIAN_POINT('Origin',(-11.3997857091449,167.180801050829,73.369150809442));
#1224=CARTESIAN_POINT('Origin',(-13.1431194531975,167.480989044372,95.4666132199738));
#1225=CARTESIAN_POINT('',(-11.522588064472,161.712315753857,104.867389643571));
#1226=CARTESIAN_POINT('',(-14.4997857091464,164.689513398532,100.463400585799));
#1227=CARTESIAN_POINT('',(-16.6072210683352,166.796948757721,97.3459984615456));
#1228=CARTESIAN_POINT('Origin',(-14.4997857091464,168.837655300321,93.4597785857549));
#1229=CARTESIAN_POINT('',(-11.4973973415001,160.180801050829,102.251371499027));
#1230=CARTESIAN_POINT('Origin',(-5.84293145965405,160.180801050829,106.265341379911));
#1231=CARTESIAN_POINT('Ctrl Pts',(-11.4973973415001,160.180801050829,102.251371499027));
#1232=CARTESIAN_POINT('Ctrl Pts',(-11.4923860685397,160.180801050829,102.431484011734));
#1233=CARTESIAN_POINT('Ctrl Pts',(-11.4951945392976,160.197285343407,102.610044715417));
#1234=CARTESIAN_POINT('Ctrl Pts',(-11.5148998119122,160.30004826912,103.183468352287));
#1235=CARTESIAN_POINT('Ctrl Pts',(-11.5491414792288,160.488236583362,103.63618011108));
#1236=CARTESIAN_POINT('Ctrl Pts',(-11.5705049491458,160.920619493866,104.253965182774));
#1237=CARTESIAN_POINT('Ctrl Pts',(-11.5661170474173,161.215632827862,104.544069066849));
#1238=CARTESIAN_POINT('Ctrl Pts',(-11.5370899385076,161.568641881004,104.782711285932));
#1239=CARTESIAN_POINT('Ctrl Pts',(-11.5304043067318,161.639322275124,104.826415214353));
#1240=CARTESIAN_POINT('Ctrl Pts',(-11.522588064472,161.712315753857,104.867389643571));
#1241=CARTESIAN_POINT('Origin',(-14.4997857091464,167.180801050829,86.619150809442));
#1242=CARTESIAN_POINT('',(-14.4997857091464,168.304008129823,101.7789690799));
#1243=CARTESIAN_POINT('',(-14.4997857091464,163.17439782029,99.9119436138457));
#1244=CARTESIAN_POINT('Origin',(-14.4997857091464,165.523946801336,92.2536873270896));
#1245=CARTESIAN_POINT('Origin',(-14.4997857091462,167.180801050829,73.369150809442));
#1246=CARTESIAN_POINT('',(-14.4997857091464,163.889904516448,73.369150809442));
#1247=CARTESIAN_POINT('',(-14.4997857091464,165.535352783638,70.519150809442));
#1248=CARTESIAN_POINT('',(-14.4997857091464,161.439774311574,77.612900809442));
#1249=CARTESIAN_POINT('',(-14.4997857091464,168.826249318019,70.519150809442));
#1250=CARTESIAN_POINT('',(-14.4997857091464,166.372510673963,70.519150809442));
#1251=CARTESIAN_POINT('',(-14.4997857091464,170.471697585209,73.369150809442));
#1252=CARTESIAN_POINT('',(-14.4997857091464,172.113537413217,76.212900809442));
#1253=CARTESIAN_POINT('',(-14.4997857091464,168.826249318019,76.219150809442));
#1254=CARTESIAN_POINT('',(-14.4997857091464,167.184409490011,79.062900809442));
#1255=CARTESIAN_POINT('',(-14.4997857091464,165.535352783638,76.219150809442));
#1256=CARTESIAN_POINT('',(-14.4997857091464,167.989091427694,76.219150809442));
#1257=CARTESIAN_POINT('',(-14.4997857091464,167.985482988512,80.462900809442));
#1258=CARTESIAN_POINT('Origin',(-12.1114866605714,167.912245849911,97.5250937094826));
#1259=CARTESIAN_POINT('',(-11.6073515050587,171.19644233391,108.163092597924));
#1260=CARTESIAN_POINT('',(-15.5755882757092,167.22820556326,99.4044789510544));
#1261=CARTESIAN_POINT('Ctrl Pts',(-11.6073515050587,171.19644233391,108.163092597924));
#1262=CARTESIAN_POINT('Ctrl Pts',(-11.6164935323231,171.242085354145,108.162854622889));
#1263=CARTESIAN_POINT('Ctrl Pts',(-11.6253576536851,171.287799007329,108.161573870596));
#1264=CARTESIAN_POINT('Ctrl Pts',(-11.7046535970677,171.711701133645,108.139969437453));
#1265=CARTESIAN_POINT('Ctrl Pts',(-11.7515588021699,172.089430041291,108.045006768876));
#1266=CARTESIAN_POINT('Ctrl Pts',(-11.7854822815853,172.742144521207,107.749283529518));
#1267=CARTESIAN_POINT('Ctrl Pts',(-11.7756533498276,173.059945668879,107.531810016716));
#1268=CARTESIAN_POINT('Ctrl Pts',(-11.7105560061082,173.587086167261,106.993872402142));
#1269=CARTESIAN_POINT('Ctrl Pts',(-11.656274456045,173.796648677749,106.673508038475));
#1270=CARTESIAN_POINT('Ctrl Pts',(-11.5535803415921,174.091208357148,105.9898809982));
#1271=CARTESIAN_POINT('Ctrl Pts',(-11.4977903972914,174.180801050829,105.574191652452));
#1272=CARTESIAN_POINT('Ctrl Pts',(-11.4996817864166,174.180801050829,105.163133373157));
#1273=CARTESIAN_POINT('Origin',(9.65960684561665,171.180801050829,105.163133373157));
#1274=CARTESIAN_POINT('',(-11.4997853257669,170.154740620852,107.982211235515));
#1275=CARTESIAN_POINT('Origin',(-13.2318361333357,171.180801050829,105.163133373157));
#1276=CARTESIAN_POINT('',(9.65960684561665,170.154740620852,107.982211235515));
#1277=CARTESIAN_POINT('Origin',(-12.560445466009,162.760018078123,103.335732993801));
#1278=CARTESIAN_POINT('',(-11.4997853257669,162.154740620852,105.070449361385));
#1279=CARTESIAN_POINT('Origin',(-13.2318361333358,163.180801050829,102.251371499027));
#1280=CARTESIAN_POINT('',(-11.4997853257669,162.866165147437,105.329386712989));
#1281=CARTESIAN_POINT('Origin',(9.65960684561665,163.180801050829,102.251371499027));
#1282=CARTESIAN_POINT('',(9.65960684561665,160.180801050829,102.251371499027));
#1283=CARTESIAN_POINT('',(9.65960684561665,162.154740620852,105.070449361385));
#1284=CARTESIAN_POINT('Origin',(9.65960684561665,163.600643322745,105.596714906519));
#1285=CARTESIAN_POINT('Origin',(9.65960684561665,160.180801050829,73.3691506244887));
#1286=CARTESIAN_POINT('',(-6.65960389649156,160.180801050829,73.369150809442));
#1287=CARTESIAN_POINT('',(10.1547654845557,160.180801050829,80.3695057412944));
#1288=CARTESIAN_POINT('Origin',(-5.80960389649156,167.180801050829,73.369150809442));
#1289=CARTESIAN_POINT('Origin',(-11.6997857091449,165.530801050829,75.019150809442));
#1290=CARTESIAN_POINT('',(-11.3997857091449,165.530801050829,71.719150809442));
#1291=CARTESIAN_POINT('',(-11.3997857091449,165.530801050829,75.019150809442));
#1292=CARTESIAN_POINT('',(-11.6997857091449,165.530801050829,71.719150809442));
#1293=CARTESIAN_POINT('',(-11.6997857091449,165.530801050829,71.719150809442));
#1294=CARTESIAN_POINT('',(-11.6997857091449,165.530801050829,75.019150809442));
#1295=CARTESIAN_POINT('',(-11.6997857091463,165.530801050829,74.194150809442));
#1296=CARTESIAN_POINT('',(-11.3997857091449,165.530801050829,75.019150809442));
#1297=CARTESIAN_POINT('',(-11.6997857091449,165.530801050829,75.019150809442));
#1298=CARTESIAN_POINT('',(-11.3997857091449,165.530801050829,75.019150809442));
#1299=CARTESIAN_POINT('Origin',(-11.3997857091449,166.389220297098,73.369150809442));
#1300=CARTESIAN_POINT('',(-11.3997857091476,168.830801050829,75.019150809442));
#1301=CARTESIAN_POINT('',(-11.3997857091476,168.830801050829,75.019150809442));
#1302=CARTESIAN_POINT('',(-11.3997857091449,168.830801050829,71.719150809442));
#1303=CARTESIAN_POINT('Origin',(-11.3997857091449,166.389220297098,73.369150809442));
#1304=CARTESIAN_POINT('',(-11.3997857091449,168.830801050829,71.719150809442));
#1305=CARTESIAN_POINT('',(-11.3997857091449,168.830801050829,71.719150809442));
#1306=CARTESIAN_POINT('',(-11.3997857091449,165.530801050829,71.719150809442));
#1307=CARTESIAN_POINT('Origin',(-11.3997857091449,166.389220297098,73.369150809442));
#1308=CARTESIAN_POINT('',(-11.3997857091449,165.530801050829,71.719150809442));
#1309=CARTESIAN_POINT('Origin',(-11.3997857091449,166.389220297098,73.369150809442));
#1310=CARTESIAN_POINT('',(-11.3997857091476,168.830801050829,75.019150809442));
#1311=CARTESIAN_POINT('Origin',(-11.6997857091449,168.830801050829,71.719150809442));
#1312=CARTESIAN_POINT('',(-11.6997857091476,168.830801050829,75.019150809442));
#1313=CARTESIAN_POINT('',(-11.6997857091476,168.830801050829,75.019150809442));
#1314=CARTESIAN_POINT('',(-11.6997857091449,168.830801050829,71.719150809442));
#1315=CARTESIAN_POINT('',(-11.6997857091463,168.830801050829,72.544150809442));
#1316=CARTESIAN_POINT('',(-11.6997857091449,168.830801050829,71.719150809442));
#1317=CARTESIAN_POINT('Origin',(-11.6997857091463,167.180801050829,73.369150809442));
#1318=CARTESIAN_POINT('',(-11.6997857091463,164.842532460611,71.719150809442));
#1319=CARTESIAN_POINT('',(-11.6997857091463,163.223877606617,71.719150809442));
#1320=CARTESIAN_POINT('',(-11.6997857091463,163.889904516448,73.369150809442));
#1321=CARTESIAN_POINT('',(-11.6997857091463,164.30848346161,72.644150809442));
#1322=CARTESIAN_POINT('',(-11.6997857091463,164.842532460611,75.019150809442));
#1323=CARTESIAN_POINT('',(-11.6997857091463,165.116773838476,75.494150809442));
#1324=CARTESIAN_POINT('',(-11.6997857091465,171.137724495041,75.0191508094421));
#1325=CARTESIAN_POINT('Origin',(-11.9997857091464,169.461334614128,75.0191508094421));
#1326=CARTESIAN_POINT('',(-11.9997857091464,169.519069641047,75.0191508094421));
#1327=CARTESIAN_POINT('',(-11.9997857091464,164.842532460611,75.019150809442));
#1328=CARTESIAN_POINT('',(-11.9997857091464,168.321067832478,75.019150809442));
#1329=CARTESIAN_POINT('',(-11.6997857091464,169.519069641047,75.0191508094421));
#1330=CARTESIAN_POINT('',(-13.2497857091464,169.519069641047,75.0191508094421));
#1331=CARTESIAN_POINT('',(-11.6997857091465,171.137724495041,75.0191508094421));
#1332=CARTESIAN_POINT('',(-13.2497857091464,164.842532460611,75.019150809442));
#1333=CARTESIAN_POINT('Origin',(-11.6997857091463,167.180801050829,73.369150809442));
#1334=CARTESIAN_POINT('',(-11.6997857091463,170.471697585209,73.369150809442));
#1335=CARTESIAN_POINT('',(-11.6997857091463,170.053118640047,74.094150809442));
#1336=CARTESIAN_POINT('',(-11.6997857091463,169.519069641047,71.7191508094421));
#1337=CARTESIAN_POINT('',(-11.6997857091463,169.244828263182,71.244150809442));
#1338=CARTESIAN_POINT('',(-11.6997857091463,163.223877606617,71.719150809442));
#1339=CARTESIAN_POINT('Origin',(-11.9997857091463,164.90026748753,71.719150809442));
#1340=CARTESIAN_POINT('',(-11.9997857091464,164.842532460611,71.719150809442));
#1341=CARTESIAN_POINT('',(-11.9997857091464,169.519069641047,71.7191508094421));
#1342=CARTESIAN_POINT('',(-11.9997857091464,166.040534269179,71.719150809442));
#1343=CARTESIAN_POINT('',(-13.2497857091463,164.842532460611,71.719150809442));
#1344=CARTESIAN_POINT('',(-13.2497857091463,169.519069641047,71.719150809442));
#1345=CARTESIAN_POINT('Origin',(-11.9997857091464,167.180801050829,78.5009580874149));
#1346=CARTESIAN_POINT('',(-11.9997857091464,165.535352783638,76.219150809442));
#1347=CARTESIAN_POINT('',(-11.9997857091464,166.227842705988,77.4185785386819));
#1348=CARTESIAN_POINT('',(-11.9997857091464,168.826249318019,76.219150809442));
#1349=CARTESIAN_POINT('',(-11.9997857091464,167.989091427694,76.219150809442));
#1350=CARTESIAN_POINT('',(-11.9997857091464,168.942049772534,76.0185785386819));
#1351=CARTESIAN_POINT('Origin',(10.6499241234948,161.080801050829,80.3695057412944));
#1352=CARTESIAN_POINT('Origin',(-14.4997857091464,163.904338273178,73.344150809442));
#1353=CARTESIAN_POINT('',(-14.4997857091464,163.889904516448,73.369150809442));
#1354=CARTESIAN_POINT('',(-11.9997857091464,165.535352783638,70.519150809442));
#1355=CARTESIAN_POINT('',(-11.9997857091464,163.197414594098,74.5685785386818));
#1356=CARTESIAN_POINT('',(-14.4997857091464,165.535352783638,70.519150809442));
#1357=CARTESIAN_POINT('Origin',(-14.4997857091464,165.520919026908,76.194150809442));
#1358=CARTESIAN_POINT('',(-14.4997857091464,165.535352783638,76.219150809442));
#1359=CARTESIAN_POINT('Origin',(-14.4997857091464,168.79738180456,76.219150809442));
#1360=CARTESIAN_POINT('',(-14.4997857091464,168.826249318019,76.219150809442));
#1361=CARTESIAN_POINT('Origin',(-14.4997857091464,170.45726382848,73.394150809442));
#1362=CARTESIAN_POINT('',(-14.4997857091464,170.471697585209,73.369150809442));
#1363=CARTESIAN_POINT('Origin',(-14.4997857091464,168.840683074749,70.544150809442));
#1364=CARTESIAN_POINT('',(-11.9997857091464,168.826249318019,70.519150809442));
#1365=CARTESIAN_POINT('',(-14.4997857091464,168.826249318019,70.519150809442));
#1366=CARTESIAN_POINT('',(-11.9997857091464,170.355897130694,73.1685785386818));
#1367=CARTESIAN_POINT('Origin',(-14.4997857091464,165.564220297098,70.519150809442));
#1368=CARTESIAN_POINT('',(-11.9997857091464,166.372510673963,70.519150809442));
#1369=CARTESIAN_POINT('Origin',(-11.9997857091464,167.180801050829,78.5009580874149));
#1370=UNCERTAINTY_MEASURE_WITH_UNIT(LENGTH_MEASURE(0.01),#1374,
'DISTANCE_ACCURACY_VALUE',
'Maximum model space distance between geometric entities at asserted c
onnectivities');
#1371=UNCERTAINTY_MEASURE_WITH_UNIT(LENGTH_MEASURE(0.01),#1374,
'DISTANCE_ACCURACY_VALUE',
'Maximum model space distance between geometric entities at asserted c
onnectivities');
#1372=(
GEOMETRIC_REPRESENTATION_CONTEXT(3)
GLOBAL_UNCERTAINTY_ASSIGNED_CONTEXT((#1370))
GLOBAL_UNIT_ASSIGNED_CONTEXT((#1374,#1376,#1377))
REPRESENTATION_CONTEXT('','3D')
);
#1373=(
GEOMETRIC_REPRESENTATION_CONTEXT(3)
GLOBAL_UNCERTAINTY_ASSIGNED_CONTEXT((#1371))
GLOBAL_UNIT_ASSIGNED_CONTEXT((#1374,#1376,#1377))
REPRESENTATION_CONTEXT('','3D')
);
#1374=(
LENGTH_UNIT()
NAMED_UNIT(*)
SI_UNIT(.MILLI.,.METRE.)
);
#1375=(
LENGTH_UNIT()
NAMED_UNIT(*)
SI_UNIT($,.METRE.)
);
#1376=(
NAMED_UNIT(*)
PLANE_ANGLE_UNIT()
SI_UNIT($,.RADIAN.)
);
#1377=(
NAMED_UNIT(*)
SI_UNIT($,.STERADIAN.)
SOLID_ANGLE_UNIT()
);
#1378=SHAPE_DEFINITION_REPRESENTATION(#1379,#1380);
#1379=PRODUCT_DEFINITION_SHAPE('',$,#1382);
#1380=SHAPE_REPRESENTATION('',(#837),#1372);
#1381=PRODUCT_DEFINITION_CONTEXT('part definition',#1386,'design');
#1382=PRODUCT_DEFINITION('49. Front Sight Right',
'49. Front Sight Right',#1383,#1381);
#1383=PRODUCT_DEFINITION_FORMATION('',$,#1388);
#1384=PRODUCT_RELATED_PRODUCT_CATEGORY('49. Front Sight Right',
'49. Front Sight Right',(#1388));
#1385=APPLICATION_PROTOCOL_DEFINITION('international standard',
'automotive_design',2009,#1386);
#1386=APPLICATION_CONTEXT(
'Core Data for Automotive Mechanical Design Process');
#1387=PRODUCT_CONTEXT('part definition',#1386,'mechanical');
#1388=PRODUCT('49. Front Sight Right','49. Front Sight Right',$,(#1387));
#1389=PRESENTATION_STYLE_ASSIGNMENT((#1391));
#1390=PRESENTATION_STYLE_ASSIGNMENT((#1392));
#1391=SURFACE_STYLE_USAGE(.BOTH.,#1393);
#1392=SURFACE_STYLE_USAGE(.BOTH.,#1394);
#1393=SURFACE_SIDE_STYLE('',(#1395));
#1394=SURFACE_SIDE_STYLE('',(#1396));
#1395=SURFACE_STYLE_FILL_AREA(#1397);
#1396=SURFACE_STYLE_FILL_AREA(#1398);
#1397=FILL_AREA_STYLE('Steel - Satin',(#1399));
#1398=FILL_AREA_STYLE('Plastic - Matte (Black) (1)',(#1400));
#1399=FILL_AREA_STYLE_COLOUR('Steel - Satin',#1401);
#1400=FILL_AREA_STYLE_COLOUR('Plastic - Matte (Black) (1)',#1402);
#1401=COLOUR_RGB('Steel - Satin',0.627450980392157,0.627450980392157,0.627450980392157);
#1402=COLOUR_RGB('Plastic - Matte (Black) (1)',0.0980392156862745,0.0980392156862745,
0.0980392156862745);
ENDSEC;
END-ISO-10303-21;
