ISO-10303-21;
HEADER;
/* Generated by software containing ST-Developer
 * from STEP Tools, Inc. (www.steptools.com) 
 */

FILE_DESCRIPTION(
/* description */ (''),
/* implementation_level */ '2;1');

FILE_NAME(
/* name */ '50. Front Sight Post.step',
/* time_stamp */ '2025-10-08T23:28:36+01:00',
/* author */ (''),
/* organization */ (''),
/* preprocessor_version */ 'ST-DEVELOPER v20.1',
/* originating_system */ 'Autodesk Translation Framework v14.10.0.0',
/* authorisation */ '');

FILE_SCHEMA (('AUTOMOTIVE_DESIGN { 1 0 10303 214 3 1 1 }'));
ENDSEC;

DATA;
#10=MECHANICAL_DESIGN_GEOMETRIC_PRESENTATION_REPRESENTATION('',(#13),#527);
#11=SHAPE_REPRESENTATION_RELATIONSHIP('SRR','None',#534,#12);
#12=ADVANCED_BREP_SHAPE_REPRESENTATION('',(#14),#526);
#13=STYLED_ITEM('',(#544),#14);
#14=MANIFOLD_SOLID_BREP('51. Front Sight Post',#319);
#15=CYLINDRICAL_SURFACE('',#343,1.45);
#16=FACE_BOUND('',#35,.T.);
#17=FACE_OUTER_BOUND('',#32,.T.);
#18=FACE_OUTER_BOUND('',#33,.T.);
#19=FACE_OUTER_BOUND('',#34,.T.);
#20=FACE_OUTER_BOUND('',#36,.T.);
#21=FACE_OUTER_BOUND('',#37,.T.);
#22=FACE_OUTER_BOUND('',#38,.T.);
#23=FACE_OUTER_BOUND('',#39,.T.);
#24=FACE_OUTER_BOUND('',#40,.T.);
#25=FACE_OUTER_BOUND('',#41,.T.);
#26=FACE_OUTER_BOUND('',#42,.T.);
#27=FACE_OUTER_BOUND('',#43,.T.);
#28=FACE_OUTER_BOUND('',#44,.T.);
#29=FACE_OUTER_BOUND('',#45,.T.);
#30=FACE_OUTER_BOUND('',#46,.T.);
#31=FACE_OUTER_BOUND('',#47,.T.);
#32=EDGE_LOOP('',(#202,#203,#204,#205,#206,#207,#208,#209));
#33=EDGE_LOOP('',(#210,#211,#212,#213));
#34=EDGE_LOOP('',(#214,#215,#216,#217,#218,#219));
#35=EDGE_LOOP('',(#220));
#36=EDGE_LOOP('',(#221,#222,#223,#224));
#37=EDGE_LOOP('',(#225,#226,#227,#228));
#38=EDGE_LOOP('',(#229,#230,#231,#232));
#39=EDGE_LOOP('',(#233,#234,#235,#236));
#40=EDGE_LOOP('',(#237,#238,#239,#240,#241,#242,#243,#244));
#41=EDGE_LOOP('',(#245,#246,#247,#248,#249,#250,#251,#252));
#42=EDGE_LOOP('',(#253,#254,#255,#256));
#43=EDGE_LOOP('',(#257,#258,#259,#260,#261,#262,#263));
#44=EDGE_LOOP('',(#264,#265,#266,#267,#268,#269,#270,#271));
#45=EDGE_LOOP('',(#272,#273,#274,#275,#276,#277,#278));
#46=EDGE_LOOP('',(#279,#280,#281,#282));
#47=EDGE_LOOP('',(#283,#284,#285,#286,#287,#288,#289));
#48=CIRCLE('',#334,1.45);
#49=CIRCLE('',#335,1.45);
#50=CIRCLE('',#338,1.45);
#51=CIRCLE('',#344,1.45);
#52=CIRCLE('',#345,1.45);
#53=CIRCLE('',#346,1.45);
#54=LINE('',#440,#92);
#55=LINE('',#442,#93);
#56=LINE('',#448,#94);
#57=LINE('',#450,#95);
#58=LINE('',#452,#96);
#59=LINE('',#453,#97);
#60=LINE('',#457,#98);
#61=LINE('',#459,#99);
#62=LINE('',#461,#100);
#63=LINE('',#462,#101);
#64=LINE('',#466,#102);
#65=LINE('',#468,#103);
#66=LINE('',#470,#104);
#67=LINE('',#472,#105);
#68=LINE('',#474,#106);
#69=LINE('',#475,#107);
#70=LINE('',#481,#108);
#71=LINE('',#482,#109);
#72=LINE('',#483,#110);
#73=LINE('',#486,#111);
#74=LINE('',#487,#112);
#75=LINE('',#489,#113);
#76=LINE('',#490,#114);
#77=LINE('',#492,#115);
#78=LINE('',#494,#116);
#79=LINE('',#503,#117);
#80=LINE('',#505,#118);
#81=LINE('',#506,#119);
#82=LINE('',#507,#120);
#83=LINE('',#509,#121);
#84=LINE('',#510,#122);
#85=LINE('',#512,#123);
#86=LINE('',#514,#124);
#87=LINE('',#515,#125);
#88=LINE('',#517,#126);
#89=LINE('',#518,#127);
#90=LINE('',#520,#128);
#91=LINE('',#522,#129);
#92=VECTOR('',#358,10.);
#93=VECTOR('',#359,10.);
#94=VECTOR('',#364,10.);
#95=VECTOR('',#365,10.);
#96=VECTOR('',#366,10.);
#97=VECTOR('',#367,10.);
#98=VECTOR('',#370,10.);
#99=VECTOR('',#371,10.);
#100=VECTOR('',#372,10.);
#101=VECTOR('',#373,10.);
#102=VECTOR('',#376,10.);
#103=VECTOR('',#377,10.);
#104=VECTOR('',#378,10.);
#105=VECTOR('',#379,10.);
#106=VECTOR('',#380,10.);
#107=VECTOR('',#381,10.);
#108=VECTOR('',#386,10.);
#109=VECTOR('',#387,10.);
#110=VECTOR('',#388,10.);
#111=VECTOR('',#391,10.);
#112=VECTOR('',#392,10.);
#113=VECTOR('',#395,10.);
#114=VECTOR('',#396,10.);
#115=VECTOR('',#399,10.);
#116=VECTOR('',#402,1.5);
#117=VECTOR('',#411,10.);
#118=VECTOR('',#412,10.);
#119=VECTOR('',#413,10.);
#120=VECTOR('',#414,10.);
#121=VECTOR('',#417,10.);
#122=VECTOR('',#418,10.);
#123=VECTOR('',#421,10.);
#124=VECTOR('',#422,10.);
#125=VECTOR('',#423,10.);
#126=VECTOR('',#426,10.);
#127=VECTOR('',#427,10.);
#128=VECTOR('',#430,10.);
#129=VECTOR('',#433,10.);
#130=VERTEX_POINT('',#438);
#131=VERTEX_POINT('',#439);
#132=VERTEX_POINT('',#441);
#133=VERTEX_POINT('',#443);
#134=VERTEX_POINT('',#445);
#135=VERTEX_POINT('',#447);
#136=VERTEX_POINT('',#449);
#137=VERTEX_POINT('',#451);
#138=VERTEX_POINT('',#455);
#139=VERTEX_POINT('',#456);
#140=VERTEX_POINT('',#458);
#141=VERTEX_POINT('',#460);
#142=VERTEX_POINT('',#464);
#143=VERTEX_POINT('',#465);
#144=VERTEX_POINT('',#467);
#145=VERTEX_POINT('',#469);
#146=VERTEX_POINT('',#471);
#147=VERTEX_POINT('',#473);
#148=VERTEX_POINT('',#476);
#149=VERTEX_POINT('',#479);
#150=VERTEX_POINT('',#480);
#151=VERTEX_POINT('',#485);
#152=VERTEX_POINT('',#495);
#153=VERTEX_POINT('',#497);
#154=VERTEX_POINT('',#501);
#155=VERTEX_POINT('',#502);
#156=VERTEX_POINT('',#504);
#157=VERTEX_POINT('',#513);
#158=EDGE_CURVE('',#130,#131,#54,.T.);
#159=EDGE_CURVE('',#130,#132,#55,.T.);
#160=EDGE_CURVE('',#132,#133,#48,.T.);
#161=EDGE_CURVE('',#133,#134,#49,.T.);
#162=EDGE_CURVE('',#134,#135,#56,.T.);
#163=EDGE_CURVE('',#136,#135,#57,.T.);
#164=EDGE_CURVE('',#137,#136,#58,.T.);
#165=EDGE_CURVE('',#131,#137,#59,.T.);
#166=EDGE_CURVE('',#138,#139,#60,.T.);
#167=EDGE_CURVE('',#139,#140,#61,.F.);
#168=EDGE_CURVE('',#140,#141,#62,.T.);
#169=EDGE_CURVE('',#141,#138,#63,.T.);
#170=EDGE_CURVE('',#142,#143,#64,.T.);
#171=EDGE_CURVE('',#143,#144,#65,.T.);
#172=EDGE_CURVE('',#144,#145,#66,.T.);
#173=EDGE_CURVE('',#145,#146,#67,.T.);
#174=EDGE_CURVE('',#146,#147,#68,.T.);
#175=EDGE_CURVE('',#147,#142,#69,.T.);
#176=EDGE_CURVE('',#148,#148,#50,.T.);
#177=EDGE_CURVE('',#149,#150,#70,.T.);
#178=EDGE_CURVE('',#150,#144,#71,.T.);
#179=EDGE_CURVE('',#149,#143,#72,.T.);
#180=EDGE_CURVE('',#150,#151,#73,.T.);
#181=EDGE_CURVE('',#151,#145,#74,.F.);
#182=EDGE_CURVE('',#137,#147,#75,.T.);
#183=EDGE_CURVE('',#131,#146,#76,.T.);
#184=EDGE_CURVE('',#136,#142,#77,.F.);
#185=EDGE_CURVE('',#148,#133,#78,.T.);
#186=EDGE_CURVE('',#132,#152,#51,.T.);
#187=EDGE_CURVE('',#153,#152,#52,.T.);
#188=EDGE_CURVE('',#153,#134,#53,.T.);
#189=EDGE_CURVE('',#154,#155,#79,.T.);
#190=EDGE_CURVE('',#156,#155,#80,.T.);
#191=EDGE_CURVE('',#130,#156,#81,.T.);
#192=EDGE_CURVE('',#151,#154,#82,.T.);
#193=EDGE_CURVE('',#132,#134,#83,.T.);
#194=EDGE_CURVE('',#153,#152,#84,.T.);
#195=EDGE_CURVE('',#152,#154,#85,.T.);
#196=EDGE_CURVE('',#157,#149,#86,.T.);
#197=EDGE_CURVE('',#157,#153,#87,.T.);
#198=EDGE_CURVE('',#157,#141,#88,.F.);
#199=EDGE_CURVE('',#135,#138,#89,.T.);
#200=EDGE_CURVE('',#155,#140,#90,.T.);
#201=EDGE_CURVE('',#139,#156,#91,.T.);
#202=ORIENTED_EDGE('',*,*,#158,.F.);
#203=ORIENTED_EDGE('',*,*,#159,.T.);
#204=ORIENTED_EDGE('',*,*,#160,.T.);
#205=ORIENTED_EDGE('',*,*,#161,.T.);
#206=ORIENTED_EDGE('',*,*,#162,.T.);
#207=ORIENTED_EDGE('',*,*,#163,.F.);
#208=ORIENTED_EDGE('',*,*,#164,.F.);
#209=ORIENTED_EDGE('',*,*,#165,.F.);
#210=ORIENTED_EDGE('',*,*,#166,.T.);
#211=ORIENTED_EDGE('',*,*,#167,.T.);
#212=ORIENTED_EDGE('',*,*,#168,.T.);
#213=ORIENTED_EDGE('',*,*,#169,.T.);
#214=ORIENTED_EDGE('',*,*,#170,.T.);
#215=ORIENTED_EDGE('',*,*,#171,.T.);
#216=ORIENTED_EDGE('',*,*,#172,.T.);
#217=ORIENTED_EDGE('',*,*,#173,.T.);
#218=ORIENTED_EDGE('',*,*,#174,.T.);
#219=ORIENTED_EDGE('',*,*,#175,.T.);
#220=ORIENTED_EDGE('',*,*,#176,.T.);
#221=ORIENTED_EDGE('',*,*,#177,.T.);
#222=ORIENTED_EDGE('',*,*,#178,.T.);
#223=ORIENTED_EDGE('',*,*,#171,.F.);
#224=ORIENTED_EDGE('',*,*,#179,.F.);
#225=ORIENTED_EDGE('',*,*,#180,.T.);
#226=ORIENTED_EDGE('',*,*,#181,.T.);
#227=ORIENTED_EDGE('',*,*,#172,.F.);
#228=ORIENTED_EDGE('',*,*,#178,.F.);
#229=ORIENTED_EDGE('',*,*,#165,.T.);
#230=ORIENTED_EDGE('',*,*,#182,.T.);
#231=ORIENTED_EDGE('',*,*,#174,.F.);
#232=ORIENTED_EDGE('',*,*,#183,.F.);
#233=ORIENTED_EDGE('',*,*,#164,.T.);
#234=ORIENTED_EDGE('',*,*,#184,.T.);
#235=ORIENTED_EDGE('',*,*,#175,.F.);
#236=ORIENTED_EDGE('',*,*,#182,.F.);
#237=ORIENTED_EDGE('',*,*,#176,.F.);
#238=ORIENTED_EDGE('',*,*,#185,.T.);
#239=ORIENTED_EDGE('',*,*,#160,.F.);
#240=ORIENTED_EDGE('',*,*,#186,.T.);
#241=ORIENTED_EDGE('',*,*,#187,.F.);
#242=ORIENTED_EDGE('',*,*,#188,.T.);
#243=ORIENTED_EDGE('',*,*,#161,.F.);
#244=ORIENTED_EDGE('',*,*,#185,.F.);
#245=ORIENTED_EDGE('',*,*,#189,.T.);
#246=ORIENTED_EDGE('',*,*,#190,.F.);
#247=ORIENTED_EDGE('',*,*,#191,.F.);
#248=ORIENTED_EDGE('',*,*,#158,.T.);
#249=ORIENTED_EDGE('',*,*,#183,.T.);
#250=ORIENTED_EDGE('',*,*,#173,.F.);
#251=ORIENTED_EDGE('',*,*,#181,.F.);
#252=ORIENTED_EDGE('',*,*,#192,.T.);
#253=ORIENTED_EDGE('',*,*,#193,.T.);
#254=ORIENTED_EDGE('',*,*,#188,.F.);
#255=ORIENTED_EDGE('',*,*,#194,.T.);
#256=ORIENTED_EDGE('',*,*,#186,.F.);
#257=ORIENTED_EDGE('',*,*,#195,.T.);
#258=ORIENTED_EDGE('',*,*,#192,.F.);
#259=ORIENTED_EDGE('',*,*,#180,.F.);
#260=ORIENTED_EDGE('',*,*,#177,.F.);
#261=ORIENTED_EDGE('',*,*,#196,.F.);
#262=ORIENTED_EDGE('',*,*,#197,.T.);
#263=ORIENTED_EDGE('',*,*,#187,.T.);
#264=ORIENTED_EDGE('',*,*,#169,.F.);
#265=ORIENTED_EDGE('',*,*,#198,.F.);
#266=ORIENTED_EDGE('',*,*,#196,.T.);
#267=ORIENTED_EDGE('',*,*,#179,.T.);
#268=ORIENTED_EDGE('',*,*,#170,.F.);
#269=ORIENTED_EDGE('',*,*,#184,.F.);
#270=ORIENTED_EDGE('',*,*,#163,.T.);
#271=ORIENTED_EDGE('',*,*,#199,.T.);
#272=ORIENTED_EDGE('',*,*,#168,.F.);
#273=ORIENTED_EDGE('',*,*,#200,.F.);
#274=ORIENTED_EDGE('',*,*,#189,.F.);
#275=ORIENTED_EDGE('',*,*,#195,.F.);
#276=ORIENTED_EDGE('',*,*,#194,.F.);
#277=ORIENTED_EDGE('',*,*,#197,.F.);
#278=ORIENTED_EDGE('',*,*,#198,.T.);
#279=ORIENTED_EDGE('',*,*,#167,.F.);
#280=ORIENTED_EDGE('',*,*,#201,.T.);
#281=ORIENTED_EDGE('',*,*,#190,.T.);
#282=ORIENTED_EDGE('',*,*,#200,.T.);
#283=ORIENTED_EDGE('',*,*,#166,.F.);
#284=ORIENTED_EDGE('',*,*,#199,.F.);
#285=ORIENTED_EDGE('',*,*,#162,.F.);
#286=ORIENTED_EDGE('',*,*,#193,.F.);
#287=ORIENTED_EDGE('',*,*,#159,.F.);
#288=ORIENTED_EDGE('',*,*,#191,.T.);
#289=ORIENTED_EDGE('',*,*,#201,.F.);
#290=PLANE('',#333);
#291=PLANE('',#336);
#292=PLANE('',#337);
#293=PLANE('',#339);
#294=PLANE('',#340);
#295=PLANE('',#341);
#296=PLANE('',#342);
#297=PLANE('',#347);
#298=PLANE('',#348);
#299=PLANE('',#349);
#300=PLANE('',#350);
#301=PLANE('',#351);
#302=PLANE('',#352);
#303=PLANE('',#353);
#304=ADVANCED_FACE('',(#17),#290,.T.);
#305=ADVANCED_FACE('',(#18),#291,.T.);
#306=ADVANCED_FACE('',(#19,#16),#292,.F.);
#307=ADVANCED_FACE('',(#20),#293,.T.);
#308=ADVANCED_FACE('',(#21),#294,.T.);
#309=ADVANCED_FACE('',(#22),#295,.T.);
#310=ADVANCED_FACE('',(#23),#296,.T.);
#311=ADVANCED_FACE('',(#24),#15,.F.);
#312=ADVANCED_FACE('',(#25),#297,.T.);
#313=ADVANCED_FACE('',(#26),#298,.F.);
#314=ADVANCED_FACE('',(#27),#299,.T.);
#315=ADVANCED_FACE('',(#28),#300,.T.);
#316=ADVANCED_FACE('',(#29),#301,.T.);
#317=ADVANCED_FACE('',(#30),#302,.T.);
#318=ADVANCED_FACE('',(#31),#303,.T.);
#319=CLOSED_SHELL('',(#304,#305,#306,#307,#308,#309,#310,#311,#312,#313,
#314,#315,#316,#317,#318));
#320=DERIVED_UNIT_ELEMENT(#322,1.);
#321=DERIVED_UNIT_ELEMENT(#529,-3.);
#322=(
MASS_UNIT()
NAMED_UNIT(*)
SI_UNIT(.KILO.,.GRAM.)
);
#323=DERIVED_UNIT((#320,#321));
#324=MEASURE_REPRESENTATION_ITEM('density measure',
POSITIVE_RATIO_MEASURE(7850.),#323);
#325=PROPERTY_DEFINITION_REPRESENTATION(#330,#327);
#326=PROPERTY_DEFINITION_REPRESENTATION(#331,#328);
#327=REPRESENTATION('material name',(#329),#526);
#328=REPRESENTATION('density',(#324),#526);
#329=DESCRIPTIVE_REPRESENTATION_ITEM('Steel','Steel');
#330=PROPERTY_DEFINITION('material property','material name',#536);
#331=PROPERTY_DEFINITION('material property','density of part',#536);
#332=AXIS2_PLACEMENT_3D('',#436,#354,#355);
#333=AXIS2_PLACEMENT_3D('',#437,#356,#357);
#334=AXIS2_PLACEMENT_3D('',#444,#360,#361);
#335=AXIS2_PLACEMENT_3D('',#446,#362,#363);
#336=AXIS2_PLACEMENT_3D('',#454,#368,#369);
#337=AXIS2_PLACEMENT_3D('',#463,#374,#375);
#338=AXIS2_PLACEMENT_3D('',#477,#382,#383);
#339=AXIS2_PLACEMENT_3D('',#478,#384,#385);
#340=AXIS2_PLACEMENT_3D('',#484,#389,#390);
#341=AXIS2_PLACEMENT_3D('',#488,#393,#394);
#342=AXIS2_PLACEMENT_3D('',#491,#397,#398);
#343=AXIS2_PLACEMENT_3D('',#493,#400,#401);
#344=AXIS2_PLACEMENT_3D('',#496,#403,#404);
#345=AXIS2_PLACEMENT_3D('',#498,#405,#406);
#346=AXIS2_PLACEMENT_3D('',#499,#407,#408);
#347=AXIS2_PLACEMENT_3D('',#500,#409,#410);
#348=AXIS2_PLACEMENT_3D('',#508,#415,#416);
#349=AXIS2_PLACEMENT_3D('',#511,#419,#420);
#350=AXIS2_PLACEMENT_3D('',#516,#424,#425);
#351=AXIS2_PLACEMENT_3D('',#519,#428,#429);
#352=AXIS2_PLACEMENT_3D('',#521,#431,#432);
#353=AXIS2_PLACEMENT_3D('',#523,#434,#435);
#354=DIRECTION('axis',(0.,0.,1.));
#355=DIRECTION('refdir',(1.,0.,0.));
#356=DIRECTION('center_axis',(3.66373599120231E-15,1.49265986524737E-14,
1.));
#357=DIRECTION('ref_axis',(-1.,1.6608256937056E-24,3.66373599120231E-15));
#358=DIRECTION('',(1.,-1.6608256937056E-24,-3.66373599120231E-15));
#359=DIRECTION('',(-1.65430653798935E-24,-1.,1.49265986524737E-14));
#360=DIRECTION('center_axis',(-3.66373599120231E-15,-1.49265986524737E-14,
-1.));
#361=DIRECTION('ref_axis',(-1.,1.66082588884734E-24,3.67741678467931E-15));
#362=DIRECTION('center_axis',(-3.66373599120231E-15,-1.49265986524737E-14,
-1.));
#363=DIRECTION('ref_axis',(-1.,1.66082588884734E-24,3.67741678467931E-15));
#364=DIRECTION('',(-1.65430653798935E-24,-1.,1.49265986524737E-14));
#365=DIRECTION('',(-1.,1.6608256937056E-24,3.66373599120231E-15));
#366=DIRECTION('',(-0.5,-0.866025403784438,1.4758681620738E-14));
#367=DIRECTION('',(0.499999999999999,-0.866025403784439,1.10949456295357E-14));
#368=DIRECTION('center_axis',(1.83880688310277E-15,-0.866025403784427,0.50000000000002));
#369=DIRECTION('ref_axis',(1.,-1.65436142232128E-24,-3.67761376907083E-15));
#370=DIRECTION('',(3.18490695014991E-15,0.50000000000002,0.866025403784427));
#371=DIRECTION('',(1.,-1.65436168055511E-24,-3.67761376907083E-15));
#372=DIRECTION('',(-3.18490695014991E-15,-0.50000000000002,-0.866025403784427));
#373=DIRECTION('',(1.,-1.65436147162491E-24,-3.67761376907083E-15));
#374=DIRECTION('center_axis',(3.66373599120231E-15,1.49265986524737E-14,
1.));
#375=DIRECTION('ref_axis',(-1.,1.6608256937056E-24,3.66373599120231E-15));
#376=DIRECTION('',(-1.,1.6608256937056E-24,3.66373599120231E-15));
#377=DIRECTION('',(-0.499999999999996,0.866025403784441,-1.10949456295357E-14));
#378=DIRECTION('',(0.499999999999997,0.86602540378444,-1.4758681620738E-14));
#379=DIRECTION('',(1.,-1.6608256937056E-24,-3.66373599120231E-15));
#380=DIRECTION('',(0.499999999999999,-0.866025403784439,1.10949456295357E-14));
#381=DIRECTION('',(-0.5,-0.866025403784438,1.4758681620738E-14));
#382=DIRECTION('center_axis',(3.66373599120231E-15,1.49265986524737E-14,
1.));
#383=DIRECTION('ref_axis',(-1.,1.66082588884734E-24,3.67741678467931E-15));
#384=DIRECTION('center_axis',(-0.866025403784441,-0.499999999999996,1.03166961806681E-14));
#385=DIRECTION('ref_axis',(-0.499999999999996,0.866025403784441,-1.10949456295357E-14));
#386=DIRECTION('',(-0.499999999999996,0.866025403784441,-1.10949456295357E-14));
#387=DIRECTION('',(-3.67741678467931E-15,-1.42639196496652E-14,-1.));
#388=DIRECTION('',(-3.67741678467931E-15,-1.42639196496652E-14,-1.));
#389=DIRECTION('center_axis',(-0.86602540378444,0.499999999999997,-3.94722346899698E-15));
#390=DIRECTION('ref_axis',(0.499999999999997,0.86602540378444,-1.4758681620738E-14));
#391=DIRECTION('',(0.499999999999997,0.86602540378444,-1.4758681620738E-14));
#392=DIRECTION('',(3.67741678467931E-15,1.42639196496652E-14,1.));
#393=DIRECTION('center_axis',(0.866025403784439,0.499999999999999,-1.03166961806681E-14));
#394=DIRECTION('ref_axis',(0.499999999999999,-0.866025403784439,1.10949456295357E-14));
#395=DIRECTION('',(-3.67741678467931E-15,-1.42639196496652E-14,-1.));
#396=DIRECTION('',(-3.67741678467931E-15,-1.42639196496652E-14,-1.));
#397=DIRECTION('center_axis',(0.866025403784438,-0.5,3.94722346899704E-15));
#398=DIRECTION('ref_axis',(-0.5,-0.866025403784438,1.4758681620738E-14));
#399=DIRECTION('',(3.67741678467931E-15,1.42639196496652E-14,1.));
#400=DIRECTION('center_axis',(-3.67741678467931E-15,-1.42639196496652E-14,
-1.));
#401=DIRECTION('ref_axis',(-1.,1.66082588884734E-24,3.67741678467931E-15));
#402=DIRECTION('',(3.67741678467931E-15,1.42639196496652E-14,1.));
#403=DIRECTION('center_axis',(3.66373599120231E-15,1.49265986524737E-14,
1.));
#404=DIRECTION('ref_axis',(-1.,1.66082588884734E-24,3.67741678467931E-15));
#405=DIRECTION('center_axis',(-3.66373599120231E-15,-1.49265986524737E-14,
-1.));
#406=DIRECTION('ref_axis',(-1.,1.66082588884734E-24,3.67741678467931E-15));
#407=DIRECTION('center_axis',(3.66373599120231E-15,1.49265986524737E-14,
1.));
#408=DIRECTION('ref_axis',(-1.,1.66082588884734E-24,3.67741678467931E-15));
#409=DIRECTION('center_axis',(1.6542961440812E-24,1.,-1.77635683940025E-14));
#410=DIRECTION('ref_axis',(-1.,1.65436122510606E-24,3.66373599120231E-15));
#411=DIRECTION('',(3.67761376907083E-15,1.77635683940025E-14,1.));
#412=DIRECTION('',(-1.,1.65436122510606E-24,3.66373599120231E-15));
#413=DIRECTION('',(3.67761376907083E-15,1.77635683940025E-14,1.));
#414=DIRECTION('',(1.,-1.6608256937056E-24,-3.66373599120231E-15));
#415=DIRECTION('center_axis',(3.66373599120231E-15,1.49265986524737E-14,
1.));
#416=DIRECTION('ref_axis',(-1.,1.65436122510606E-24,3.66373599120231E-15));
#417=DIRECTION('',(-1.65430653798935E-24,-1.,1.49265986524737E-14));
#418=DIRECTION('',(1.65430653798935E-24,1.,-1.49265986524737E-14));
#419=DIRECTION('center_axis',(3.66373599120231E-15,1.49265986524737E-14,
1.));
#420=DIRECTION('ref_axis',(-1.,1.6608256937056E-24,3.66373599120231E-15));
#421=DIRECTION('',(1.65430653798935E-24,1.,-1.49265986524737E-14));
#422=DIRECTION('',(-1.,1.6608256937056E-24,3.66373599120231E-15));
#423=DIRECTION('',(1.65430653798935E-24,1.,-1.49265986524737E-14));
#424=DIRECTION('center_axis',(-1.6542961440812E-24,-1.,1.77635683940025E-14));
#425=DIRECTION('ref_axis',(1.,-1.65436122510606E-24,-3.66373599120231E-15));
#426=DIRECTION('',(-3.67761376907083E-15,-1.77635683940025E-14,-1.));
#427=DIRECTION('',(3.67761376907083E-15,1.77635683940025E-14,1.));
#428=DIRECTION('center_axis',(-1.,1.65436143225408E-24,3.67761376907083E-15));
#429=DIRECTION('ref_axis',(-1.65430653798935E-24,-1.,1.49265986524737E-14));
#430=DIRECTION('',(-1.65430653798935E-24,-1.,1.49265986524737E-14));
#431=DIRECTION('center_axis',(3.67761376907083E-15,1.77635683940025E-14,
1.));
#432=DIRECTION('ref_axis',(1.,-1.65436122510606E-24,-3.67761376907083E-15));
#433=DIRECTION('',(1.65430653798935E-24,1.,-1.49265986524737E-14));
#434=DIRECTION('center_axis',(1.,-1.65436143225408E-24,-3.67761376907083E-15));
#435=DIRECTION('ref_axis',(1.65430653798935E-24,1.,-1.49265986524737E-14));
#436=CARTESIAN_POINT('',(0.,0.,0.));
#437=CARTESIAN_POINT('Origin',(1.30037191648872E-6,-158.133447903845,100.323488619393));
#438=CARTESIAN_POINT('',(1.25000130037197,-155.383447903845,100.323488619393));
#439=CARTESIAN_POINT('',(3.03109021361756,-155.383447903844,100.323488622039));
#440=CARTESIAN_POINT('',(-1.15469923800728,-155.383447903844,100.323488619393));
#441=CARTESIAN_POINT('',(1.25000130037197,-157.39860098101,100.32349012466));
#442=CARTESIAN_POINT('',(1.25000130037197,-158.758447903845,100.323488619393));
#443=CARTESIAN_POINT('',(1.45000130037196,-158.133447903845,100.32349012466));
#444=CARTESIAN_POINT('Origin',(1.3003719557769E-6,-158.133447903845,100.32349012466));
#445=CARTESIAN_POINT('',(1.25000130037197,-158.86829482668,100.32349012466));
#446=CARTESIAN_POINT('Origin',(1.3003719557769E-6,-158.133447903845,100.32349012466));
#447=CARTESIAN_POINT('',(1.25000130037197,-160.883447903845,100.323488619393));
#448=CARTESIAN_POINT('',(1.25000130037197,-158.758447903845,100.323488619393));
#449=CARTESIAN_POINT('',(3.03109021361755,-160.883447903844,100.323488622039));
#450=CARTESIAN_POINT('',(1.15470183875122,-160.883447903844,100.323488619393));
#451=CARTESIAN_POINT('',(4.61880345388901,-158.133447903844,100.323488622039));
#452=CARTESIAN_POINT('',(4.61880345388901,-158.133447903844,100.323488622039));
#453=CARTESIAN_POINT('',(2.30940237713053,-154.133447903844,100.323488622038));
#454=CARTESIAN_POINT('Origin',(-0.624998699627993,-159.526937958539,102.673048201397));
#455=CARTESIAN_POINT('',(1.25000130037197,-160.883447903845,100.323504055154));
#456=CARTESIAN_POINT('',(1.25000130037198,-158.574055738927,104.323488619393));
#457=CARTESIAN_POINT('',(1.25000130037197,-159.801189922186,102.198029866284));
#458=CARTESIAN_POINT('',(-1.24999869962802,-158.574055738927,104.323488619393));
#459=CARTESIAN_POINT('',(-0.312498699627971,-158.574055738927,104.323488619393));
#460=CARTESIAN_POINT('',(-1.24999869962803,-160.883447903845,100.323504055154));
#461=CARTESIAN_POINT('',(-1.24999869962803,-159.488689922186,102.73929574365));
#462=CARTESIAN_POINT('',(-0.937498699628018,-160.883447903845,100.323504055154));
#463=CARTESIAN_POINT('Origin',(1.30037190190317E-6,-158.133447903845,95.3420897247577));
#464=CARTESIAN_POINT('',(3.03109021361753,-160.883447903845,95.3420897274032));
#465=CARTESIAN_POINT('',(-3.03108761287352,-160.883447903845,95.3420897274032));
#466=CARTESIAN_POINT('',(1.1547018387512,-160.883447903845,95.3420897247577));
#467=CARTESIAN_POINT('',(-4.61880085314497,-158.133447903845,95.3420897274032));
#468=CARTESIAN_POINT('',(-2.3093997763865,-162.133447903845,95.3420897274032));
#469=CARTESIAN_POINT('',(-3.03108761287351,-155.383447903845,95.3420897274031));
#470=CARTESIAN_POINT('',(-4.61880085314496,-158.133447903845,95.3420897274032));
#471=CARTESIAN_POINT('',(3.03109021361754,-155.383447903845,95.3420897274031));
#472=CARTESIAN_POINT('',(-1.15469923800729,-155.383447903845,95.3420897247576));
#473=CARTESIAN_POINT('',(4.618803453889,-158.133447903845,95.3420897274032));
#474=CARTESIAN_POINT('',(2.30940237713051,-154.133447903845,95.3420897274031));
#475=CARTESIAN_POINT('',(4.618803453889,-158.133447903845,95.3420897274032));
#476=CARTESIAN_POINT('',(1.45000130037194,-158.133447903845,95.3420897247577));
#477=CARTESIAN_POINT('Origin',(1.30037193743031E-6,-158.133447903845,95.3420897247577));
#478=CARTESIAN_POINT('Origin',(-2.30939977638648,-162.133447903844,99.3234886220386));
#479=CARTESIAN_POINT('',(-3.03108761287351,-160.883447903844,100.323488622039));
#480=CARTESIAN_POINT('',(-4.61880085314495,-158.133447903844,100.323488622039));
#481=CARTESIAN_POINT('',(-2.30939977638648,-162.133447903844,100.323488622039));
#482=CARTESIAN_POINT('',(-4.61880085314495,-158.133447903844,99.3234886220386));
#483=CARTESIAN_POINT('',(-3.03108761287351,-160.883447903844,99.3234886220386));
#484=CARTESIAN_POINT('Origin',(-4.61880085314495,-158.133447903844,99.3234886220386));
#485=CARTESIAN_POINT('',(-3.0310876128735,-155.383447903844,100.323488622039));
#486=CARTESIAN_POINT('',(-4.61880085314495,-158.133447903844,100.323488622039));
#487=CARTESIAN_POINT('',(-3.0310876128735,-155.383447903844,99.3234886220385));
#488=CARTESIAN_POINT('Origin',(2.30940237713053,-154.133447903844,99.3234886220385));
#489=CARTESIAN_POINT('',(4.61880345388901,-158.133447903844,99.3234886220385));
#490=CARTESIAN_POINT('',(3.03109021361756,-155.383447903844,99.3234886220385));
#491=CARTESIAN_POINT('Origin',(4.61880345388901,-158.133447903844,99.3234886220385));
#492=CARTESIAN_POINT('',(3.03109021361755,-160.883447903844,99.3234886220386));
#493=CARTESIAN_POINT('Origin',(1.30037195214076E-6,-158.133447903845,99.323488619393));
#494=CARTESIAN_POINT('',(1.45000130037195,-158.133447903845,99.323488619393));
#495=CARTESIAN_POINT('',(-1.24999869962803,-157.39860098101,100.32349012466));
#496=CARTESIAN_POINT('Origin',(1.3003719557769E-6,-158.133447903845,100.32349012466));
#497=CARTESIAN_POINT('',(-1.24999869962803,-158.86829482668,100.32349012466));
#498=CARTESIAN_POINT('Origin',(1.3003719557769E-6,-158.133447903845,100.32349012466));
#499=CARTESIAN_POINT('Origin',(1.3003719557769E-6,-158.133447903845,100.32349012466));
#500=CARTESIAN_POINT('Origin',(1.25000130037197,-155.383447903845,101.323488619393));
#501=CARTESIAN_POINT('',(-1.24999869962803,-155.383447903845,100.323488619393));
#502=CARTESIAN_POINT('',(-1.24999869962802,-155.383447903845,104.323488619393));
#503=CARTESIAN_POINT('',(-1.24999869962803,-155.383447903845,101.323488619393));
#504=CARTESIAN_POINT('',(1.25000130037198,-155.383447903845,104.323488619393));
#505=CARTESIAN_POINT('',(-1.24999869962802,-155.383447903845,104.323488619393));
#506=CARTESIAN_POINT('',(1.25000130037197,-155.383447903845,101.323488619393));
#507=CARTESIAN_POINT('',(-1.15469923800728,-155.383447903844,100.323488619393));
#508=CARTESIAN_POINT('Origin',(1.30037203078366E-6,-158.133447903844,100.32349012466));
#509=CARTESIAN_POINT('',(1.25000130037197,-158.758447903845,100.323488619393));
#510=CARTESIAN_POINT('',(-1.24999869962803,-157.508447903845,100.323488619393));
#511=CARTESIAN_POINT('Origin',(1.30037191648872E-6,-158.133447903845,100.323488619393));
#512=CARTESIAN_POINT('',(-1.24999869962803,-157.508447903845,100.323488619393));
#513=CARTESIAN_POINT('',(-1.24999869962803,-160.883447903845,100.323488619393));
#514=CARTESIAN_POINT('',(1.15470183875122,-160.883447903844,100.323488619393));
#515=CARTESIAN_POINT('',(-1.24999869962803,-157.508447903845,100.323488619393));
#516=CARTESIAN_POINT('Origin',(-1.24999869962803,-160.883447903845,101.323488619393));
#517=CARTESIAN_POINT('',(-1.24999869962803,-160.883447903845,101.323488619393));
#518=CARTESIAN_POINT('',(1.25000130037197,-160.883447903845,101.323488619393));
#519=CARTESIAN_POINT('Origin',(-1.24999869962803,-156.883447903845,101.323488619393));
#520=CARTESIAN_POINT('',(-1.24999869962802,-159.383447903845,104.323488619393));
#521=CARTESIAN_POINT('Origin',(1.30037204539024E-6,-158.133447903844,104.323488619393));
#522=CARTESIAN_POINT('',(1.25000130037198,-156.883447903845,104.323488619393));
#523=CARTESIAN_POINT('Origin',(1.25000130037197,-159.383447903845,101.323488619393));
#524=UNCERTAINTY_MEASURE_WITH_UNIT(LENGTH_MEASURE(0.01),#528,
'DISTANCE_ACCURACY_VALUE',
'Maximum model space distance between geometric entities at asserted c
onnectivities');
#525=UNCERTAINTY_MEASURE_WITH_UNIT(LENGTH_MEASURE(0.01),#528,
'DISTANCE_ACCURACY_VALUE',
'Maximum model space distance between geometric entities at asserted c
onnectivities');
#526=(
GEOMETRIC_REPRESENTATION_CONTEXT(3)
GLOBAL_UNCERTAINTY_ASSIGNED_CONTEXT((#524))
GLOBAL_UNIT_ASSIGNED_CONTEXT((#528,#530,#531))
REPRESENTATION_CONTEXT('','3D')
);
#527=(
GEOMETRIC_REPRESENTATION_CONTEXT(3)
GLOBAL_UNCERTAINTY_ASSIGNED_CONTEXT((#525))
GLOBAL_UNIT_ASSIGNED_CONTEXT((#528,#530,#531))
REPRESENTATION_CONTEXT('','3D')
);
#528=(
LENGTH_UNIT()
NAMED_UNIT(*)
SI_UNIT(.MILLI.,.METRE.)
);
#529=(
LENGTH_UNIT()
NAMED_UNIT(*)
SI_UNIT($,.METRE.)
);
#530=(
NAMED_UNIT(*)
PLANE_ANGLE_UNIT()
SI_UNIT($,.RADIAN.)
);
#531=(
NAMED_UNIT(*)
SI_UNIT($,.STERADIAN.)
SOLID_ANGLE_UNIT()
);
#532=SHAPE_DEFINITION_REPRESENTATION(#533,#534);
#533=PRODUCT_DEFINITION_SHAPE('',$,#536);
#534=SHAPE_REPRESENTATION('',(#332),#526);
#535=PRODUCT_DEFINITION_CONTEXT('part definition',#540,'design');
#536=PRODUCT_DEFINITION('50. Front Sight Post','50. Front Sight Post',#537,
#535);
#537=PRODUCT_DEFINITION_FORMATION('',$,#542);
#538=PRODUCT_RELATED_PRODUCT_CATEGORY('50. Front Sight Post',
'50. Front Sight Post',(#542));
#539=APPLICATION_PROTOCOL_DEFINITION('international standard',
'automotive_design',2009,#540);
#540=APPLICATION_CONTEXT(
'Core Data for Automotive Mechanical Design Process');
#541=PRODUCT_CONTEXT('part definition',#540,'mechanical');
#542=PRODUCT('50. Front Sight Post','50. Front Sight Post',$,(#541));
#543=PRESENTATION_STYLE_ASSIGNMENT((#545));
#544=PRESENTATION_STYLE_ASSIGNMENT((#546));
#545=SURFACE_STYLE_USAGE(.BOTH.,#547);
#546=SURFACE_STYLE_USAGE(.BOTH.,#548);
#547=SURFACE_SIDE_STYLE('',(#549));
#548=SURFACE_SIDE_STYLE('',(#550));
#549=SURFACE_STYLE_FILL_AREA(#551);
#550=SURFACE_STYLE_FILL_AREA(#552);
#551=FILL_AREA_STYLE('Steel - Satin',(#553));
#552=FILL_AREA_STYLE('Plastic - Matte (Black) (1)',(#554));
#553=FILL_AREA_STYLE_COLOUR('Steel - Satin',#555);
#554=FILL_AREA_STYLE_COLOUR('Plastic - Matte (Black) (1)',#556);
#555=COLOUR_RGB('Steel - Satin',0.627450980392157,0.627450980392157,0.627450980392157);
#556=COLOUR_RGB('Plastic - Matte (Black) (1)',0.0980392156862745,0.0980392156862745,
0.0980392156862745);
ENDSEC;
END-ISO-10303-21;
