ISO-10303-21;
HEADER;
/* Generated by software containing ST-Developer
 * from STEP Tools, Inc. (www.steptools.com) 
 */

FILE_DESCRIPTION(
/* description */ (''),
/* implementation_level */ '2;1');

FILE_NAME(
/* name */ '53. Folding Stock Button.step',
/* time_stamp */ '2025-10-08T23:29:43+01:00',
/* author */ (''),
/* organization */ (''),
/* preprocessor_version */ 'ST-DEVELOPER v20.1',
/* originating_system */ 'Autodesk Translation Framework v14.10.0.0',
/* authorisation */ '');

FILE_SCHEMA (('AUTOMOTIVE_DESIGN { 1 0 10303 214 3 1 1 }'));
ENDSEC;

DATA;
#10=MECHANICAL_DESIGN_GEOMETRIC_PRESENTATION_REPRESENTATION('',(#13),#776);
#11=SHAPE_REPRESENTATION_RELATIONSHIP('SRR','None',#783,#12);
#12=ADVANCED_BREP_SHAPE_REPRESENTATION('',(#14),#775);
#13=STYLED_ITEM('',(#793),#14);
#14=MANIFOLD_SOLID_BREP('54. Folding Stock Button',#459);
#15=CYLINDRICAL_SURFACE('',#503,6.);
#16=CYLINDRICAL_SURFACE('',#505,5.);
#17=CYLINDRICAL_SURFACE('',#509,2.9);
#18=CYLINDRICAL_SURFACE('',#513,1.65);
#19=CONICAL_SURFACE('',#500,5.5,0.78539816339745);
#20=FACE_BOUND('',#67,.T.);
#21=FACE_BOUND('',#72,.T.);
#22=FACE_BOUND('',#76,.T.);
#23=FACE_OUTER_BOUND('',#49,.T.);
#24=FACE_OUTER_BOUND('',#50,.T.);
#25=FACE_OUTER_BOUND('',#51,.T.);
#26=FACE_OUTER_BOUND('',#52,.T.);
#27=FACE_OUTER_BOUND('',#53,.T.);
#28=FACE_OUTER_BOUND('',#54,.T.);
#29=FACE_OUTER_BOUND('',#55,.T.);
#30=FACE_OUTER_BOUND('',#56,.T.);
#31=FACE_OUTER_BOUND('',#57,.T.);
#32=FACE_OUTER_BOUND('',#58,.T.);
#33=FACE_OUTER_BOUND('',#59,.T.);
#34=FACE_OUTER_BOUND('',#60,.T.);
#35=FACE_OUTER_BOUND('',#61,.T.);
#36=FACE_OUTER_BOUND('',#62,.T.);
#37=FACE_OUTER_BOUND('',#63,.T.);
#38=FACE_OUTER_BOUND('',#64,.T.);
#39=FACE_OUTER_BOUND('',#65,.T.);
#40=FACE_OUTER_BOUND('',#66,.T.);
#41=FACE_OUTER_BOUND('',#68,.T.);
#42=FACE_OUTER_BOUND('',#69,.T.);
#43=FACE_OUTER_BOUND('',#70,.T.);
#44=FACE_OUTER_BOUND('',#71,.T.);
#45=FACE_OUTER_BOUND('',#73,.T.);
#46=FACE_OUTER_BOUND('',#74,.T.);
#47=FACE_OUTER_BOUND('',#75,.T.);
#48=FACE_OUTER_BOUND('',#77,.T.);
#49=EDGE_LOOP('',(#288,#289,#290));
#50=EDGE_LOOP('',(#291,#292,#293));
#51=EDGE_LOOP('',(#294,#295,#296));
#52=EDGE_LOOP('',(#297,#298,#299));
#53=EDGE_LOOP('',(#300,#301,#302,#303,#304));
#54=EDGE_LOOP('',(#305,#306,#307,#308,#309));
#55=EDGE_LOOP('',(#310,#311,#312,#313));
#56=EDGE_LOOP('',(#314,#315,#316,#317,#318,#319,#320,#321,#322));
#57=EDGE_LOOP('',(#323,#324,#325,#326));
#58=EDGE_LOOP('',(#327,#328,#329,#330,#331,#332,#333,#334,#335));
#59=EDGE_LOOP('',(#336,#337,#338));
#60=EDGE_LOOP('',(#339,#340,#341,#342));
#61=EDGE_LOOP('',(#343,#344,#345,#346));
#62=EDGE_LOOP('',(#347,#348,#349,#350));
#63=EDGE_LOOP('',(#351,#352,#353,#354));
#64=EDGE_LOOP('',(#355,#356,#357,#358));
#65=EDGE_LOOP('',(#359,#360,#361,#362));
#66=EDGE_LOOP('',(#363,#364,#365,#366,#367,#368));
#67=EDGE_LOOP('',(#369));
#68=EDGE_LOOP('',(#370,#371,#372,#373));
#69=EDGE_LOOP('',(#374,#375,#376,#377));
#70=EDGE_LOOP('',(#378,#379,#380,#381));
#71=EDGE_LOOP('',(#382));
#72=EDGE_LOOP('',(#383));
#73=EDGE_LOOP('',(#384,#385,#386,#387,#388,#389,#390,#391,#392,#393,#394,
#395));
#74=EDGE_LOOP('',(#396,#397));
#75=EDGE_LOOP('',(#398));
#76=EDGE_LOOP('',(#399,#400,#401,#402,#403,#404));
#77=EDGE_LOOP('',(#405,#406,#407,#408,#409,#410,#411));
#78=LINE('',#651,#125);
#79=LINE('',#652,#126);
#80=LINE('',#657,#127);
#81=LINE('',#658,#128);
#82=LINE('',#663,#129);
#83=LINE('',#664,#130);
#84=LINE('',#668,#131);
#85=LINE('',#669,#132);
#86=LINE('',#673,#133);
#87=LINE('',#674,#134);
#88=LINE('',#675,#135);
#89=LINE('',#679,#136);
#90=LINE('',#680,#137);
#91=LINE('',#681,#138);
#92=LINE('',#684,#139);
#93=LINE('',#687,#140);
#94=LINE('',#691,#141);
#95=LINE('',#693,#142);
#96=LINE('',#694,#143);
#97=LINE('',#695,#144);
#98=LINE('',#699,#145);
#99=LINE('',#703,#146);
#100=LINE('',#704,#147);
#101=LINE('',#705,#148);
#102=LINE('',#713,#149);
#103=LINE('',#715,#150);
#104=LINE('',#717,#151);
#105=LINE('',#718,#152);
#106=LINE('',#721,#153);
#107=LINE('',#723,#154);
#108=LINE('',#724,#155);
#109=LINE('',#727,#156);
#110=LINE('',#729,#157);
#111=LINE('',#730,#158);
#112=LINE('',#733,#159);
#113=LINE('',#735,#160);
#114=LINE('',#736,#161);
#115=LINE('',#739,#162);
#116=LINE('',#741,#163);
#117=LINE('',#742,#164);
#118=LINE('',#744,#165);
#119=LINE('',#745,#166);
#120=LINE('',#753,#167);
#121=LINE('',#757,#168);
#122=LINE('',#761,#169);
#123=LINE('',#767,#170);
#124=LINE('',#772,#171);
#125=VECTOR('',#520,10.);
#126=VECTOR('',#521,10.);
#127=VECTOR('',#526,10.);
#128=VECTOR('',#527,10.);
#129=VECTOR('',#532,10.);
#130=VECTOR('',#533,10.);
#131=VECTOR('',#538,10.);
#132=VECTOR('',#539,10.);
#133=VECTOR('',#542,10.);
#134=VECTOR('',#543,10.);
#135=VECTOR('',#544,10.);
#136=VECTOR('',#547,10.);
#137=VECTOR('',#548,10.);
#138=VECTOR('',#549,10.);
#139=VECTOR('',#552,10.);
#140=VECTOR('',#555,10.);
#141=VECTOR('',#558,10.);
#142=VECTOR('',#559,10.);
#143=VECTOR('',#560,10.);
#144=VECTOR('',#561,10.);
#145=VECTOR('',#566,10.);
#146=VECTOR('',#569,10.);
#147=VECTOR('',#570,10.);
#148=VECTOR('',#571,10.);
#149=VECTOR('',#580,10.);
#150=VECTOR('',#581,10.);
#151=VECTOR('',#582,10.);
#152=VECTOR('',#583,10.);
#153=VECTOR('',#586,10.);
#154=VECTOR('',#587,10.);
#155=VECTOR('',#588,10.);
#156=VECTOR('',#591,10.);
#157=VECTOR('',#592,10.);
#158=VECTOR('',#593,10.);
#159=VECTOR('',#596,10.);
#160=VECTOR('',#597,10.);
#161=VECTOR('',#598,10.);
#162=VECTOR('',#601,10.);
#163=VECTOR('',#602,10.);
#164=VECTOR('',#603,10.);
#165=VECTOR('',#606,10.);
#166=VECTOR('',#607,10.);
#167=VECTOR('',#616,5.5);
#168=VECTOR('',#621,6.5);
#169=VECTOR('',#626,4.);
#170=VECTOR('',#635,2.9);
#171=VECTOR('',#644,2.);
#172=CIRCLE('',#474,1.65);
#173=CIRCLE('',#476,1.65);
#174=CIRCLE('',#478,1.65);
#175=CIRCLE('',#480,1.65);
#176=CIRCLE('',#484,2.9);
#177=CIRCLE('',#487,2.9);
#178=CIRCLE('',#490,2.9);
#179=CIRCLE('',#491,2.9);
#180=CIRCLE('',#499,1.65);
#181=CIRCLE('',#501,5.);
#182=CIRCLE('',#502,6.);
#183=CIRCLE('',#504,6.);
#184=CIRCLE('',#506,5.);
#185=CIRCLE('',#508,2.9);
#186=CIRCLE('',#510,2.9);
#187=VERTEX_POINT('',#647);
#188=VERTEX_POINT('',#648);
#189=VERTEX_POINT('',#650);
#190=VERTEX_POINT('',#654);
#191=VERTEX_POINT('',#656);
#192=VERTEX_POINT('',#660);
#193=VERTEX_POINT('',#662);
#194=VERTEX_POINT('',#667);
#195=VERTEX_POINT('',#671);
#196=VERTEX_POINT('',#672);
#197=VERTEX_POINT('',#677);
#198=VERTEX_POINT('',#678);
#199=VERTEX_POINT('',#683);
#200=VERTEX_POINT('',#685);
#201=VERTEX_POINT('',#689);
#202=VERTEX_POINT('',#690);
#203=VERTEX_POINT('',#692);
#204=VERTEX_POINT('',#697);
#205=VERTEX_POINT('',#701);
#206=VERTEX_POINT('',#702);
#207=VERTEX_POINT('',#707);
#208=VERTEX_POINT('',#711);
#209=VERTEX_POINT('',#712);
#210=VERTEX_POINT('',#714);
#211=VERTEX_POINT('',#716);
#212=VERTEX_POINT('',#720);
#213=VERTEX_POINT('',#722);
#214=VERTEX_POINT('',#726);
#215=VERTEX_POINT('',#728);
#216=VERTEX_POINT('',#732);
#217=VERTEX_POINT('',#734);
#218=VERTEX_POINT('',#738);
#219=VERTEX_POINT('',#740);
#220=VERTEX_POINT('',#747);
#221=VERTEX_POINT('',#750);
#222=VERTEX_POINT('',#752);
#223=VERTEX_POINT('',#756);
#224=VERTEX_POINT('',#760);
#225=VERTEX_POINT('',#764);
#226=EDGE_CURVE('',#187,#188,#172,.T.);
#227=EDGE_CURVE('',#189,#187,#78,.T.);
#228=EDGE_CURVE('',#188,#189,#79,.T.);
#229=EDGE_CURVE('',#188,#190,#173,.T.);
#230=EDGE_CURVE('',#191,#188,#80,.T.);
#231=EDGE_CURVE('',#190,#191,#81,.T.);
#232=EDGE_CURVE('',#190,#192,#174,.T.);
#233=EDGE_CURVE('',#193,#190,#82,.T.);
#234=EDGE_CURVE('',#192,#193,#83,.T.);
#235=EDGE_CURVE('',#192,#187,#175,.T.);
#236=EDGE_CURVE('',#194,#192,#84,.T.);
#237=EDGE_CURVE('',#187,#194,#85,.T.);
#238=EDGE_CURVE('',#195,#196,#86,.T.);
#239=EDGE_CURVE('',#195,#189,#87,.T.);
#240=EDGE_CURVE('',#196,#194,#88,.T.);
#241=EDGE_CURVE('',#197,#198,#89,.T.);
#242=EDGE_CURVE('',#197,#193,#90,.T.);
#243=EDGE_CURVE('',#198,#191,#91,.T.);
#244=EDGE_CURVE('',#199,#198,#92,.T.);
#245=EDGE_CURVE('',#200,#199,#176,.T.);
#246=EDGE_CURVE('',#197,#200,#93,.T.);
#247=EDGE_CURVE('',#201,#202,#94,.T.);
#248=EDGE_CURVE('',#201,#203,#95,.T.);
#249=EDGE_CURVE('',#203,#196,#96,.T.);
#250=EDGE_CURVE('',#202,#200,#97,.T.);
#251=EDGE_CURVE('',#204,#203,#177,.T.);
#252=EDGE_CURVE('',#195,#204,#98,.T.);
#253=EDGE_CURVE('',#205,#206,#99,.T.);
#254=EDGE_CURVE('',#205,#199,#100,.T.);
#255=EDGE_CURVE('',#206,#204,#101,.T.);
#256=EDGE_CURVE('',#206,#207,#178,.T.);
#257=EDGE_CURVE('',#207,#205,#179,.T.);
#258=EDGE_CURVE('',#208,#209,#102,.T.);
#259=EDGE_CURVE('',#208,#210,#103,.T.);
#260=EDGE_CURVE('',#210,#211,#104,.T.);
#261=EDGE_CURVE('',#209,#211,#105,.T.);
#262=EDGE_CURVE('',#212,#208,#106,.T.);
#263=EDGE_CURVE('',#212,#213,#107,.T.);
#264=EDGE_CURVE('',#213,#210,#108,.T.);
#265=EDGE_CURVE('',#214,#212,#109,.T.);
#266=EDGE_CURVE('',#214,#215,#110,.T.);
#267=EDGE_CURVE('',#215,#213,#111,.T.);
#268=EDGE_CURVE('',#216,#214,#112,.T.);
#269=EDGE_CURVE('',#216,#217,#113,.T.);
#270=EDGE_CURVE('',#217,#215,#114,.T.);
#271=EDGE_CURVE('',#218,#216,#115,.T.);
#272=EDGE_CURVE('',#218,#219,#116,.T.);
#273=EDGE_CURVE('',#219,#217,#117,.T.);
#274=EDGE_CURVE('',#209,#218,#118,.T.);
#275=EDGE_CURVE('',#211,#219,#119,.T.);
#276=EDGE_CURVE('',#220,#220,#180,.T.);
#277=EDGE_CURVE('',#221,#221,#181,.T.);
#278=EDGE_CURVE('',#221,#222,#120,.T.);
#279=EDGE_CURVE('',#222,#222,#182,.T.);
#280=EDGE_CURVE('',#222,#223,#121,.T.);
#281=EDGE_CURVE('',#223,#223,#183,.F.);
#282=EDGE_CURVE('',#221,#224,#122,.T.);
#283=EDGE_CURVE('',#224,#224,#184,.F.);
#284=EDGE_CURVE('',#225,#225,#185,.T.);
#285=EDGE_CURVE('',#225,#207,#123,.T.);
#286=EDGE_CURVE('',#202,#201,#186,.T.);
#287=EDGE_CURVE('',#192,#220,#124,.T.);
#288=ORIENTED_EDGE('',*,*,#226,.F.);
#289=ORIENTED_EDGE('',*,*,#227,.F.);
#290=ORIENTED_EDGE('',*,*,#228,.F.);
#291=ORIENTED_EDGE('',*,*,#229,.F.);
#292=ORIENTED_EDGE('',*,*,#230,.F.);
#293=ORIENTED_EDGE('',*,*,#231,.F.);
#294=ORIENTED_EDGE('',*,*,#232,.F.);
#295=ORIENTED_EDGE('',*,*,#233,.F.);
#296=ORIENTED_EDGE('',*,*,#234,.F.);
#297=ORIENTED_EDGE('',*,*,#235,.F.);
#298=ORIENTED_EDGE('',*,*,#236,.F.);
#299=ORIENTED_EDGE('',*,*,#237,.F.);
#300=ORIENTED_EDGE('',*,*,#238,.F.);
#301=ORIENTED_EDGE('',*,*,#239,.T.);
#302=ORIENTED_EDGE('',*,*,#227,.T.);
#303=ORIENTED_EDGE('',*,*,#237,.T.);
#304=ORIENTED_EDGE('',*,*,#240,.F.);
#305=ORIENTED_EDGE('',*,*,#241,.F.);
#306=ORIENTED_EDGE('',*,*,#242,.T.);
#307=ORIENTED_EDGE('',*,*,#233,.T.);
#308=ORIENTED_EDGE('',*,*,#231,.T.);
#309=ORIENTED_EDGE('',*,*,#243,.F.);
#310=ORIENTED_EDGE('',*,*,#241,.T.);
#311=ORIENTED_EDGE('',*,*,#244,.F.);
#312=ORIENTED_EDGE('',*,*,#245,.F.);
#313=ORIENTED_EDGE('',*,*,#246,.F.);
#314=ORIENTED_EDGE('',*,*,#247,.F.);
#315=ORIENTED_EDGE('',*,*,#248,.T.);
#316=ORIENTED_EDGE('',*,*,#249,.T.);
#317=ORIENTED_EDGE('',*,*,#240,.T.);
#318=ORIENTED_EDGE('',*,*,#236,.T.);
#319=ORIENTED_EDGE('',*,*,#234,.T.);
#320=ORIENTED_EDGE('',*,*,#242,.F.);
#321=ORIENTED_EDGE('',*,*,#246,.T.);
#322=ORIENTED_EDGE('',*,*,#250,.F.);
#323=ORIENTED_EDGE('',*,*,#238,.T.);
#324=ORIENTED_EDGE('',*,*,#249,.F.);
#325=ORIENTED_EDGE('',*,*,#251,.F.);
#326=ORIENTED_EDGE('',*,*,#252,.F.);
#327=ORIENTED_EDGE('',*,*,#253,.F.);
#328=ORIENTED_EDGE('',*,*,#254,.T.);
#329=ORIENTED_EDGE('',*,*,#244,.T.);
#330=ORIENTED_EDGE('',*,*,#243,.T.);
#331=ORIENTED_EDGE('',*,*,#230,.T.);
#332=ORIENTED_EDGE('',*,*,#228,.T.);
#333=ORIENTED_EDGE('',*,*,#239,.F.);
#334=ORIENTED_EDGE('',*,*,#252,.T.);
#335=ORIENTED_EDGE('',*,*,#255,.F.);
#336=ORIENTED_EDGE('',*,*,#253,.T.);
#337=ORIENTED_EDGE('',*,*,#256,.T.);
#338=ORIENTED_EDGE('',*,*,#257,.T.);
#339=ORIENTED_EDGE('',*,*,#258,.F.);
#340=ORIENTED_EDGE('',*,*,#259,.T.);
#341=ORIENTED_EDGE('',*,*,#260,.T.);
#342=ORIENTED_EDGE('',*,*,#261,.F.);
#343=ORIENTED_EDGE('',*,*,#262,.F.);
#344=ORIENTED_EDGE('',*,*,#263,.T.);
#345=ORIENTED_EDGE('',*,*,#264,.T.);
#346=ORIENTED_EDGE('',*,*,#259,.F.);
#347=ORIENTED_EDGE('',*,*,#265,.F.);
#348=ORIENTED_EDGE('',*,*,#266,.T.);
#349=ORIENTED_EDGE('',*,*,#267,.T.);
#350=ORIENTED_EDGE('',*,*,#263,.F.);
#351=ORIENTED_EDGE('',*,*,#268,.F.);
#352=ORIENTED_EDGE('',*,*,#269,.T.);
#353=ORIENTED_EDGE('',*,*,#270,.T.);
#354=ORIENTED_EDGE('',*,*,#266,.F.);
#355=ORIENTED_EDGE('',*,*,#271,.F.);
#356=ORIENTED_EDGE('',*,*,#272,.T.);
#357=ORIENTED_EDGE('',*,*,#273,.T.);
#358=ORIENTED_EDGE('',*,*,#269,.F.);
#359=ORIENTED_EDGE('',*,*,#274,.F.);
#360=ORIENTED_EDGE('',*,*,#261,.T.);
#361=ORIENTED_EDGE('',*,*,#275,.T.);
#362=ORIENTED_EDGE('',*,*,#272,.F.);
#363=ORIENTED_EDGE('',*,*,#275,.F.);
#364=ORIENTED_EDGE('',*,*,#260,.F.);
#365=ORIENTED_EDGE('',*,*,#264,.F.);
#366=ORIENTED_EDGE('',*,*,#267,.F.);
#367=ORIENTED_EDGE('',*,*,#270,.F.);
#368=ORIENTED_EDGE('',*,*,#273,.F.);
#369=ORIENTED_EDGE('',*,*,#276,.F.);
#370=ORIENTED_EDGE('',*,*,#277,.F.);
#371=ORIENTED_EDGE('',*,*,#278,.T.);
#372=ORIENTED_EDGE('',*,*,#279,.T.);
#373=ORIENTED_EDGE('',*,*,#278,.F.);
#374=ORIENTED_EDGE('',*,*,#279,.F.);
#375=ORIENTED_EDGE('',*,*,#280,.T.);
#376=ORIENTED_EDGE('',*,*,#281,.F.);
#377=ORIENTED_EDGE('',*,*,#280,.F.);
#378=ORIENTED_EDGE('',*,*,#277,.T.);
#379=ORIENTED_EDGE('',*,*,#282,.T.);
#380=ORIENTED_EDGE('',*,*,#283,.T.);
#381=ORIENTED_EDGE('',*,*,#282,.F.);
#382=ORIENTED_EDGE('',*,*,#281,.T.);
#383=ORIENTED_EDGE('',*,*,#284,.T.);
#384=ORIENTED_EDGE('',*,*,#284,.F.);
#385=ORIENTED_EDGE('',*,*,#285,.T.);
#386=ORIENTED_EDGE('',*,*,#256,.F.);
#387=ORIENTED_EDGE('',*,*,#255,.T.);
#388=ORIENTED_EDGE('',*,*,#251,.T.);
#389=ORIENTED_EDGE('',*,*,#248,.F.);
#390=ORIENTED_EDGE('',*,*,#286,.F.);
#391=ORIENTED_EDGE('',*,*,#250,.T.);
#392=ORIENTED_EDGE('',*,*,#245,.T.);
#393=ORIENTED_EDGE('',*,*,#254,.F.);
#394=ORIENTED_EDGE('',*,*,#257,.F.);
#395=ORIENTED_EDGE('',*,*,#285,.F.);
#396=ORIENTED_EDGE('',*,*,#247,.T.);
#397=ORIENTED_EDGE('',*,*,#286,.T.);
#398=ORIENTED_EDGE('',*,*,#283,.F.);
#399=ORIENTED_EDGE('',*,*,#258,.T.);
#400=ORIENTED_EDGE('',*,*,#274,.T.);
#401=ORIENTED_EDGE('',*,*,#271,.T.);
#402=ORIENTED_EDGE('',*,*,#268,.T.);
#403=ORIENTED_EDGE('',*,*,#265,.T.);
#404=ORIENTED_EDGE('',*,*,#262,.T.);
#405=ORIENTED_EDGE('',*,*,#226,.T.);
#406=ORIENTED_EDGE('',*,*,#229,.T.);
#407=ORIENTED_EDGE('',*,*,#232,.T.);
#408=ORIENTED_EDGE('',*,*,#287,.T.);
#409=ORIENTED_EDGE('',*,*,#276,.T.);
#410=ORIENTED_EDGE('',*,*,#287,.F.);
#411=ORIENTED_EDGE('',*,*,#235,.T.);
#412=PLANE('',#473);
#413=PLANE('',#475);
#414=PLANE('',#477);
#415=PLANE('',#479);
#416=PLANE('',#481);
#417=PLANE('',#482);
#418=PLANE('',#483);
#419=PLANE('',#485);
#420=PLANE('',#486);
#421=PLANE('',#488);
#422=PLANE('',#489);
#423=PLANE('',#492);
#424=PLANE('',#493);
#425=PLANE('',#494);
#426=PLANE('',#495);
#427=PLANE('',#496);
#428=PLANE('',#497);
#429=PLANE('',#498);
#430=PLANE('',#507);
#431=PLANE('',#511);
#432=PLANE('',#512);
#433=ADVANCED_FACE('',(#23),#412,.F.);
#434=ADVANCED_FACE('',(#24),#413,.F.);
#435=ADVANCED_FACE('',(#25),#414,.F.);
#436=ADVANCED_FACE('',(#26),#415,.F.);
#437=ADVANCED_FACE('',(#27),#416,.F.);
#438=ADVANCED_FACE('',(#28),#417,.F.);
#439=ADVANCED_FACE('',(#29),#418,.T.);
#440=ADVANCED_FACE('',(#30),#419,.F.);
#441=ADVANCED_FACE('',(#31),#420,.T.);
#442=ADVANCED_FACE('',(#32),#421,.F.);
#443=ADVANCED_FACE('',(#33),#422,.T.);
#444=ADVANCED_FACE('',(#34),#423,.F.);
#445=ADVANCED_FACE('',(#35),#424,.F.);
#446=ADVANCED_FACE('',(#36),#425,.F.);
#447=ADVANCED_FACE('',(#37),#426,.F.);
#448=ADVANCED_FACE('',(#38),#427,.F.);
#449=ADVANCED_FACE('',(#39),#428,.F.);
#450=ADVANCED_FACE('',(#40,#20),#429,.T.);
#451=ADVANCED_FACE('',(#41),#19,.T.);
#452=ADVANCED_FACE('',(#42),#15,.T.);
#453=ADVANCED_FACE('',(#43),#16,.T.);
#454=ADVANCED_FACE('',(#44,#21),#430,.T.);
#455=ADVANCED_FACE('',(#45),#17,.F.);
#456=ADVANCED_FACE('',(#46),#431,.T.);
#457=ADVANCED_FACE('',(#47,#22),#432,.F.);
#458=ADVANCED_FACE('',(#48),#18,.F.);
#459=CLOSED_SHELL('',(#433,#434,#435,#436,#437,#438,#439,#440,#441,#442,
#443,#444,#445,#446,#447,#448,#449,#450,#451,#452,#453,#454,#455,#456,#457,
#458));
#460=DERIVED_UNIT_ELEMENT(#462,1.);
#461=DERIVED_UNIT_ELEMENT(#778,-3.);
#462=(
MASS_UNIT()
NAMED_UNIT(*)
SI_UNIT(.KILO.,.GRAM.)
);
#463=DERIVED_UNIT((#460,#461));
#464=MEASURE_REPRESENTATION_ITEM('density measure',
POSITIVE_RATIO_MEASURE(7850.),#463);
#465=PROPERTY_DEFINITION_REPRESENTATION(#470,#467);
#466=PROPERTY_DEFINITION_REPRESENTATION(#471,#468);
#467=REPRESENTATION('material name',(#469),#775);
#468=REPRESENTATION('density',(#464),#775);
#469=DESCRIPTIVE_REPRESENTATION_ITEM('Steel','Steel');
#470=PROPERTY_DEFINITION('material property','material name',#785);
#471=PROPERTY_DEFINITION('material property','density of part',#785);
#472=AXIS2_PLACEMENT_3D('',#645,#514,#515);
#473=AXIS2_PLACEMENT_3D('',#646,#516,#517);
#474=AXIS2_PLACEMENT_3D('',#649,#518,#519);
#475=AXIS2_PLACEMENT_3D('',#653,#522,#523);
#476=AXIS2_PLACEMENT_3D('',#655,#524,#525);
#477=AXIS2_PLACEMENT_3D('',#659,#528,#529);
#478=AXIS2_PLACEMENT_3D('',#661,#530,#531);
#479=AXIS2_PLACEMENT_3D('',#665,#534,#535);
#480=AXIS2_PLACEMENT_3D('',#666,#536,#537);
#481=AXIS2_PLACEMENT_3D('',#670,#540,#541);
#482=AXIS2_PLACEMENT_3D('',#676,#545,#546);
#483=AXIS2_PLACEMENT_3D('',#682,#550,#551);
#484=AXIS2_PLACEMENT_3D('',#686,#553,#554);
#485=AXIS2_PLACEMENT_3D('',#688,#556,#557);
#486=AXIS2_PLACEMENT_3D('',#696,#562,#563);
#487=AXIS2_PLACEMENT_3D('',#698,#564,#565);
#488=AXIS2_PLACEMENT_3D('',#700,#567,#568);
#489=AXIS2_PLACEMENT_3D('',#706,#572,#573);
#490=AXIS2_PLACEMENT_3D('',#708,#574,#575);
#491=AXIS2_PLACEMENT_3D('',#709,#576,#577);
#492=AXIS2_PLACEMENT_3D('',#710,#578,#579);
#493=AXIS2_PLACEMENT_3D('',#719,#584,#585);
#494=AXIS2_PLACEMENT_3D('',#725,#589,#590);
#495=AXIS2_PLACEMENT_3D('',#731,#594,#595);
#496=AXIS2_PLACEMENT_3D('',#737,#599,#600);
#497=AXIS2_PLACEMENT_3D('',#743,#604,#605);
#498=AXIS2_PLACEMENT_3D('',#746,#608,#609);
#499=AXIS2_PLACEMENT_3D('',#748,#610,#611);
#500=AXIS2_PLACEMENT_3D('',#749,#612,#613);
#501=AXIS2_PLACEMENT_3D('',#751,#614,#615);
#502=AXIS2_PLACEMENT_3D('',#754,#617,#618);
#503=AXIS2_PLACEMENT_3D('',#755,#619,#620);
#504=AXIS2_PLACEMENT_3D('',#758,#622,#623);
#505=AXIS2_PLACEMENT_3D('',#759,#624,#625);
#506=AXIS2_PLACEMENT_3D('',#762,#627,#628);
#507=AXIS2_PLACEMENT_3D('',#763,#629,#630);
#508=AXIS2_PLACEMENT_3D('',#765,#631,#632);
#509=AXIS2_PLACEMENT_3D('',#766,#633,#634);
#510=AXIS2_PLACEMENT_3D('',#768,#636,#637);
#511=AXIS2_PLACEMENT_3D('',#769,#638,#639);
#512=AXIS2_PLACEMENT_3D('',#770,#640,#641);
#513=AXIS2_PLACEMENT_3D('',#771,#642,#643);
#514=DIRECTION('axis',(0.,0.,1.));
#515=DIRECTION('refdir',(1.,0.,0.));
#516=DIRECTION('center_axis',(-6.6539550509179E-27,2.99221980526454E-8,
1.));
#517=DIRECTION('ref_axis',(1.,5.55112010617278E-17,-1.65436319725832E-24));
#518=DIRECTION('center_axis',(6.6539550509179E-27,-2.99221980526454E-8,
-1.));
#519=DIRECTION('ref_axis',(-0.999999999999999,4.73493124114555E-8,-4.89673843314352E-18));
#520=DIRECTION('',(0.999999999999999,-4.73493124667443E-8,-1.65436319725832E-24));
#521=DIRECTION('',(-4.73493124667443E-8,-0.999999999999998,2.99221971141739E-8));
#522=DIRECTION('center_axis',(-6.6539550509179E-27,2.99221980526454E-8,
1.));
#523=DIRECTION('ref_axis',(1.,5.55112010617278E-17,-1.65436319725832E-24));
#524=DIRECTION('center_axis',(6.6539550509179E-27,-2.99221980526454E-8,
-1.));
#525=DIRECTION('ref_axis',(-0.999999999999999,4.73493124114555E-8,-4.89673843314352E-18));
#526=DIRECTION('',(-4.73493124667443E-8,-0.999999999999998,2.99221971141739E-8));
#527=DIRECTION('',(-0.999999999999999,4.73493124667443E-8,1.65436319725832E-24));
#528=DIRECTION('center_axis',(-6.6539550509179E-27,2.99221980526454E-8,
1.));
#529=DIRECTION('ref_axis',(1.,5.55112010617278E-17,-1.65436319725832E-24));
#530=DIRECTION('center_axis',(6.6539550509179E-27,-2.99221980526454E-8,
-1.));
#531=DIRECTION('ref_axis',(-0.999999999999999,4.73493124114555E-8,-4.89673843314352E-18));
#532=DIRECTION('',(-0.999999999999999,4.73493124667443E-8,1.65436319725832E-24));
#533=DIRECTION('',(4.73493124667443E-8,0.999999999999998,-2.99221971141739E-8));
#534=DIRECTION('center_axis',(-6.6539550509179E-27,2.99221980526454E-8,
1.));
#535=DIRECTION('ref_axis',(1.,5.55112010617278E-17,-1.65436319725832E-24));
#536=DIRECTION('center_axis',(6.6539550509179E-27,-2.99221980526454E-8,
-1.));
#537=DIRECTION('ref_axis',(-0.999999999999999,4.73493124114555E-8,-4.89673843314352E-18));
#538=DIRECTION('',(4.73493124667443E-8,0.999999999999998,-2.99221971141739E-8));
#539=DIRECTION('',(0.999999999999999,-4.73493124667443E-8,-1.65436319725832E-24));
#540=DIRECTION('center_axis',(-4.73493124667443E-8,-0.999999999999999,2.99221980526453E-8));
#541=DIRECTION('ref_axis',(0.999999999999999,-4.73493124667443E-8,-1.65436319725832E-24));
#542=DIRECTION('',(0.999999999999999,-4.73493124667443E-8,-1.65436300004309E-24));
#543=DIRECTION('',(-6.65395505091789E-27,2.99221980526454E-8,0.999999999999999));
#544=DIRECTION('',(-6.65395505091789E-27,2.99221980526454E-8,0.999999999999999));
#545=DIRECTION('center_axis',(4.73493124667443E-8,0.999999999999999,-2.99221980526453E-8));
#546=DIRECTION('ref_axis',(-0.999999999999999,4.73493124667443E-8,1.65436319725832E-24));
#547=DIRECTION('',(-0.999999999999999,4.73493124667443E-8,1.65436300004309E-24));
#548=DIRECTION('',(-6.65395505091789E-27,2.99221980526454E-8,0.999999999999999));
#549=DIRECTION('',(-6.65395505091789E-27,2.99221980526454E-8,0.999999999999999));
#550=DIRECTION('center_axis',(-1.40546622995748E-15,-2.96829279050301E-8,
-1.));
#551=DIRECTION('ref_axis',(0.999999999999999,-4.73493124667443E-8,-1.65436300083318E-24));
#552=DIRECTION('',(-4.73493124667443E-8,-0.999999999999998,2.96829279050301E-8));
#553=DIRECTION('center_axis',(1.4167954625049E-15,2.99221971141739E-8,1.));
#554=DIRECTION('ref_axis',(-4.73493124114555E-8,-0.999999999999998,2.99221971141739E-8));
#555=DIRECTION('',(4.73493124667443E-8,0.999999999999998,-2.96829279050301E-8));
#556=DIRECTION('center_axis',(0.999999999999999,-4.73493124667443E-8,1.40546598593184E-15));
#557=DIRECTION('ref_axis',(4.73493124667443E-8,0.999999999999998,-2.96829279050301E-8));
#558=DIRECTION('',(4.73493124667443E-8,0.999999999999998,-2.99221971141739E-8));
#559=DIRECTION('',(6.62850236393988E-27,2.96829227863781E-8,0.999999999999999));
#560=DIRECTION('',(4.73493124667443E-8,0.999999999999998,-2.96829279050301E-8));
#561=DIRECTION('',(6.62850236393988E-27,2.96829227863781E-8,0.999999999999999));
#562=DIRECTION('center_axis',(-1.40546622995748E-15,-2.96829279050301E-8,
-1.));
#563=DIRECTION('ref_axis',(0.999999999999999,-4.73493124667443E-8,-1.65436300083318E-24));
#564=DIRECTION('center_axis',(1.4167954625049E-15,2.99221971141739E-8,1.));
#565=DIRECTION('ref_axis',(-4.73493124114555E-8,-0.999999999999998,2.99221971141739E-8));
#566=DIRECTION('',(-4.73493124667443E-8,-0.999999999999998,2.96829279050301E-8));
#567=DIRECTION('center_axis',(-0.999999999999999,4.73493124667443E-8,-1.40546598593184E-15));
#568=DIRECTION('ref_axis',(-4.73493124667443E-8,-0.999999999999998,2.96829279050301E-8));
#569=DIRECTION('',(-4.73493124667443E-8,-0.999999999999998,2.99221971141739E-8));
#570=DIRECTION('',(6.62850236393988E-27,2.96829227863781E-8,0.999999999999999));
#571=DIRECTION('',(6.62850236393988E-27,2.96829227863781E-8,0.999999999999999));
#572=DIRECTION('center_axis',(-1.4167954625049E-15,-2.99221971141739E-8,
-1.));
#573=DIRECTION('ref_axis',(0.999999999999999,-4.73493124114555E-8,-3.30872544678384E-24));
#574=DIRECTION('center_axis',(-1.4167954625049E-15,-2.99221971141739E-8,
-1.));
#575=DIRECTION('ref_axis',(-4.73493124114555E-8,-0.999999999999998,2.99221971141739E-8));
#576=DIRECTION('center_axis',(-1.4167954625049E-15,-2.99221971141739E-8,
-1.));
#577=DIRECTION('ref_axis',(-4.73493124114555E-8,-0.999999999999998,2.99221971141739E-8));
#578=DIRECTION('center_axis',(-0.866025380109781,0.500000041005707,-1.48414647086332E-8));
#579=DIRECTION('ref_axis',(0.500000041005707,0.866025380109781,-2.57061696244581E-8));
#580=DIRECTION('',(0.500000041005707,0.866025380109781,-2.591338283792E-8));
#581=DIRECTION('',(-1.85037170771522E-15,-2.9682930187865E-8,-0.999999999999999));
#582=DIRECTION('',(0.500000041005707,0.866025380109781,-2.57061696244581E-8));
#583=DIRECTION('',(-1.85037170771522E-15,-2.9682930187865E-8,-0.999999999999999));
#584=DIRECTION('center_axis',(-0.866025427459094,-0.499999958994292,1.48414654792319E-8));
#585=DIRECTION('ref_axis',(-0.499999958994292,0.866025427459094,-2.57061696244581E-8));
#586=DIRECTION('',(-0.499999958994292,0.866025427459094,-2.59133828379201E-8));
#587=DIRECTION('',(-1.85037170771522E-15,-2.9682930187865E-8,-0.999999999999999));
#588=DIRECTION('',(-0.499999958994292,0.866025427459094,-2.57061696244581E-8));
#589=DIRECTION('center_axis',(-4.73493124667443E-8,-0.999999999999999,2.96829301878651E-8));
#590=DIRECTION('ref_axis',(-0.999999999999999,4.73493124667443E-8,1.65436300083318E-24));
#591=DIRECTION('',(-0.999999999999999,4.73493124667443E-8,1.65436300004309E-24));
#592=DIRECTION('',(-1.85037170771522E-15,-2.9682930187865E-8,-0.999999999999999));
#593=DIRECTION('',(-0.999999999999999,4.73493124667443E-8,1.65436300083318E-24));
#594=DIRECTION('center_axis',(0.866025380109782,-0.500000041005706,1.48414647086332E-8));
#595=DIRECTION('ref_axis',(-0.500000041005707,-0.866025380109781,2.57061696244581E-8));
#596=DIRECTION('',(-0.500000041005707,-0.866025380109781,2.59133828379201E-8));
#597=DIRECTION('',(-1.85037170771522E-15,-2.9682930187865E-8,-0.999999999999999));
#598=DIRECTION('',(-0.500000041005707,-0.866025380109781,2.57061696244581E-8));
#599=DIRECTION('center_axis',(0.866025427459094,0.499999958994292,-1.48414654792319E-8));
#600=DIRECTION('ref_axis',(0.499999958994292,-0.866025427459094,2.57061696244581E-8));
#601=DIRECTION('',(0.499999958994292,-0.866025427459094,2.59133828379201E-8));
#602=DIRECTION('',(-1.85037170771522E-15,-2.9682930187865E-8,-0.999999999999999));
#603=DIRECTION('',(0.499999958994292,-0.866025427459094,2.57061696244581E-8));
#604=DIRECTION('center_axis',(4.73493124667443E-8,0.999999999999999,-2.96829301878651E-8));
#605=DIRECTION('ref_axis',(0.999999999999999,-4.73493124667443E-8,-1.65436300083318E-24));
#606=DIRECTION('',(0.999999999999999,-4.73493124667443E-8,-1.65436300004309E-24));
#607=DIRECTION('',(0.999999999999999,-4.73493124667443E-8,-1.65436300083318E-24));
#608=DIRECTION('center_axis',(1.40546622995748E-15,2.96829279050301E-8,
1.));
#609=DIRECTION('ref_axis',(-0.999999999999999,4.73493124667443E-8,1.65436300083318E-24));
#610=DIRECTION('center_axis',(1.40546622995748E-15,2.96829279050301E-8,
1.));
#611=DIRECTION('ref_axis',(-0.999999999999999,4.73493124114555E-8,3.29549716856228E-24));
#612=DIRECTION('center_axis',(-2.22044604924366E-15,-2.99221980526455E-8,
-1.));
#613=DIRECTION('ref_axis',(0.999999999999999,-4.734931246719E-8,-1.35566745278109E-16));
#614=DIRECTION('center_axis',(1.41679546251823E-15,2.99221971141739E-8,
1.));
#615=DIRECTION('ref_axis',(0.999999999999999,-4.73493124114555E-8,4.89673843314169E-18));
#616=DIRECTION('',(-0.707106781186549,1.23228306924427E-8,-0.707106781186546));
#617=DIRECTION('center_axis',(1.41679546251823E-15,2.99221971141739E-8,
1.));
#618=DIRECTION('ref_axis',(0.999999999999999,-4.734931246719E-8,-2.48539031631229E-16));
#619=DIRECTION('center_axis',(1.66533453693108E-15,2.99221980526454E-8,
1.));
#620=DIRECTION('ref_axis',(0.999999999999999,-4.734931246719E-8,-2.48539031631227E-16));
#621=DIRECTION('',(-1.66533453693108E-15,-2.99221980526454E-8,-1.));
#622=DIRECTION('center_axis',(1.40546622997071E-15,2.96829279050301E-8,
1.));
#623=DIRECTION('ref_axis',(4.734931246719E-8,0.999999999999999,-2.96829279050301E-8));
#624=DIRECTION('center_axis',(-1.41189871884799E-15,-2.9922197073729E-8,
-1.));
#625=DIRECTION('ref_axis',(0.999999999999999,-4.73493124114555E-8,4.89673843314326E-18));
#626=DIRECTION('',(1.41189871884799E-15,2.9922197073729E-8,1.));
#627=DIRECTION('center_axis',(1.4167954625049E-15,2.99221971141739E-8,1.));
#628=DIRECTION('ref_axis',(0.999999999999999,-4.73493124114555E-8,4.89673843314326E-18));
#629=DIRECTION('center_axis',(-1.40546622997071E-15,-2.96829279050301E-8,
-1.));
#630=DIRECTION('ref_axis',(0.999999999999999,-4.73493124114555E-8,-3.30872524956862E-24));
#631=DIRECTION('center_axis',(1.40546622997071E-15,2.96829279050301E-8,
1.));
#632=DIRECTION('ref_axis',(0.999999999999999,-4.73493124114555E-8,-3.30872524956862E-24));
#633=DIRECTION('center_axis',(-1.32408451434774E-15,-2.96829283207902E-8,
-1.));
#634=DIRECTION('ref_axis',(0.999999999999999,-4.73493124114555E-8,8.13817320001968E-17));
#635=DIRECTION('',(1.32408451434774E-15,2.96829283207902E-8,1.));
#636=DIRECTION('center_axis',(-1.4167954625049E-15,-2.99221971141739E-8,
-1.));
#637=DIRECTION('ref_axis',(-4.73493124114555E-8,-0.999999999999998,2.99221971141739E-8));
#638=DIRECTION('center_axis',(-1.4167954625049E-15,-2.99221971141739E-8,
-1.));
#639=DIRECTION('ref_axis',(0.999999999999999,-4.73493124114555E-8,-3.30872544678384E-24));
#640=DIRECTION('center_axis',(-1.4167954625049E-15,-2.99221971141739E-8,
-1.));
#641=DIRECTION('ref_axis',(0.999999999999999,-4.73493124114555E-8,-3.30872524956862E-24));
#642=DIRECTION('center_axis',(-1.41189871884799E-15,-2.9922197073729E-8,
-1.));
#643=DIRECTION('ref_axis',(-0.999999999999999,4.73493124114555E-8,-4.89673843314352E-18));
#644=DIRECTION('',(1.41189871884799E-15,2.9922197073729E-8,1.));
#645=CARTESIAN_POINT('',(0.,0.,0.));
#646=CARTESIAN_POINT('Origin',(14.7499989717747,129.649969103456,19.2455693346255));
#647=CARTESIAN_POINT('',(14.749998864055,127.374969103456,19.2455694026985));
#648=CARTESIAN_POINT('',(13.0999989421814,129.024969181654,19.2455693533269));
#649=CARTESIAN_POINT('Origin',(14.7499989421814,129.024969103528,19.2455693533269));
#650=CARTESIAN_POINT('',(13.099998864055,127.374969181582,19.2455694026985));
#651=CARTESIAN_POINT('',(13.099998864055,127.374969181582,19.2455694026985));
#652=CARTESIAN_POINT('',(13.0999990203078,130.674969181582,19.2455693039553));
#653=CARTESIAN_POINT('Origin',(14.7499989717747,129.649969103456,19.2455693346255));
#654=CARTESIAN_POINT('',(14.7499990203078,130.674969103456,19.2455693039553));
#655=CARTESIAN_POINT('Origin',(14.7499989421814,129.024969103528,19.2455693533269));
#656=CARTESIAN_POINT('',(13.0999990203078,130.674969181582,19.2455693039553));
#657=CARTESIAN_POINT('',(13.0999990203078,130.674969181582,19.2455693039553));
#658=CARTESIAN_POINT('',(16.3999990203078,130.67496902533,19.2455693039553));
#659=CARTESIAN_POINT('Origin',(14.7499989717747,129.649969103456,19.2455693346255));
#660=CARTESIAN_POINT('',(16.3999989421814,129.024969025401,19.2455693533269));
#661=CARTESIAN_POINT('Origin',(14.7499989421814,129.024969103528,19.2455693533269));
#662=CARTESIAN_POINT('',(16.3999990203078,130.67496902533,19.2455693039553));
#663=CARTESIAN_POINT('',(16.3999990203078,130.67496902533,19.2455693039553));
#664=CARTESIAN_POINT('',(16.399998864055,127.37496902533,19.2455694026985));
#665=CARTESIAN_POINT('Origin',(14.7499989717747,129.649969103456,19.2455693346255));
#666=CARTESIAN_POINT('Origin',(14.7499989421814,129.024969103528,19.2455693533269));
#667=CARTESIAN_POINT('',(16.399998864055,127.37496902533,19.2455694026985));
#668=CARTESIAN_POINT('',(16.399998864055,127.37496902533,19.2455694026985));
#669=CARTESIAN_POINT('',(13.099998864055,127.374969181582,19.2455694026985));
#670=CARTESIAN_POINT('Origin',(13.099998864055,127.374969172606,18.9455694026985));
#671=CARTESIAN_POINT('',(13.099998864055,127.374969172606,18.9455694026985));
#672=CARTESIAN_POINT('',(16.399998864055,127.374969016353,18.9455694026985));
#673=CARTESIAN_POINT('',(13.924998864055,127.374969133543,18.9455694331754));
#674=CARTESIAN_POINT('',(13.099998864055,127.374969172606,18.9455694026985));
#675=CARTESIAN_POINT('',(16.399998864055,127.374969016353,18.9455694026985));
#676=CARTESIAN_POINT('Origin',(16.3999990203078,130.674969016353,18.9455693039553));
#677=CARTESIAN_POINT('',(16.3999990203078,130.674969016353,18.9455693039553));
#678=CARTESIAN_POINT('',(13.0999990203078,130.674969172606,18.9455693039553));
#679=CARTESIAN_POINT('',(15.5749990203078,130.674969055416,18.9455693352218));
#680=CARTESIAN_POINT('',(16.3999990203078,130.674969016353,18.9455693039553));
#681=CARTESIAN_POINT('',(13.0999990203078,130.674969172606,18.9455693039553));
#682=CARTESIAN_POINT('Origin',(14.7499989421814,129.024969094479,18.9455693841986));
#683=CARTESIAN_POINT('',(13.0999990551023,131.409817176148,18.9455692825376));
#684=CARTESIAN_POINT('',(13.0999987905469,125.822504957034,18.9455694483854));
#685=CARTESIAN_POINT('',(16.3999990551023,131.409817019895,18.9455692825376));
#686=CARTESIAN_POINT('Origin',(14.7499989421814,129.024969094479,18.9455693533269));
#687=CARTESIAN_POINT('',(16.3999990938159,132.227433231925,18.9455692582684));
#688=CARTESIAN_POINT('Origin',(16.3999988292605,126.640121003906,18.6455694241162));
#689=CARTESIAN_POINT('',(16.3999988292605,126.640121003906,18.6455694241162));
#690=CARTESIAN_POINT('',(16.3999990551023,131.40981701099,18.6455692825376));
#691=CARTESIAN_POINT('',(16.3999988863127,127.845043465553,18.6455693886329));
#692=CARTESIAN_POINT('',(16.3999988292605,126.640121012811,18.9455694241162));
#693=CARTESIAN_POINT('',(16.3999988292605,126.640121003906,18.6455694241162));
#694=CARTESIAN_POINT('',(16.3999990938159,132.227433231925,18.9455692582684));
#695=CARTESIAN_POINT('',(16.3999990551023,131.40981701099,18.6455692825376));
#696=CARTESIAN_POINT('Origin',(14.7499989421814,129.024969094479,18.9455693841986));
#697=CARTESIAN_POINT('',(13.0999988292605,126.640121169063,18.9455694241162));
#698=CARTESIAN_POINT('Origin',(14.7499989421814,129.024969094479,18.9455693533269));
#699=CARTESIAN_POINT('',(13.0999987905469,125.822504957034,18.9455694483854));
#700=CARTESIAN_POINT('Origin',(13.0999990551023,131.409817167243,18.6455692825376));
#701=CARTESIAN_POINT('',(13.0999990551023,131.409817167243,18.6455692825376));
#702=CARTESIAN_POINT('',(13.0999988292605,126.640121160159,18.6455694241162));
#703=CARTESIAN_POINT('',(13.0999989427732,129.037467623577,18.6455693529529));
#704=CARTESIAN_POINT('',(13.0999990551023,131.409817167243,18.6455692825376));
#705=CARTESIAN_POINT('',(13.0999988292605,126.640121160159,18.6455694241162));
#706=CARTESIAN_POINT('Origin',(14.749998943365,129.049966005327,18.6455693525789));
#707=CARTESIAN_POINT('',(11.8499989421814,129.024969222959,18.6455693533269));
#708=CARTESIAN_POINT('Origin',(14.7499989421814,129.024969085574,18.6455693533269));
#709=CARTESIAN_POINT('Origin',(14.7499989421814,129.024969085574,18.6455693533269));
#710=CARTESIAN_POINT('Origin',(11.5168374347195,129.024969487017,26.9455693533269));
#711=CARTESIAN_POINT('',(11.5168374347195,129.024969487017,26.9455693533269));
#712=CARTESIAN_POINT('',(13.1334183210285,131.824969410473,26.9455692702147));
#713=CARTESIAN_POINT('',(11.9263946486212,129.734343312532,26.9455693321009));
#714=CARTESIAN_POINT('',(11.5168374347195,129.024969415778,24.5455693533269));
#715=CARTESIAN_POINT('',(11.5168374347195,129.024969487017,26.9455693533269));
#716=CARTESIAN_POINT('',(13.1334183210285,131.824969339234,24.5455692702147));
#717=CARTESIAN_POINT('',(13.1334183210285,131.824969339234,24.5455692702147));
#718=CARTESIAN_POINT('',(13.1334183210285,131.824969410473,26.9455692702147));
#719=CARTESIAN_POINT('Origin',(13.1334180558724,126.224969410473,26.9455694364391));
#720=CARTESIAN_POINT('',(13.1334180558724,126.224969410473,26.9455694364391));
#721=CARTESIAN_POINT('',(12.7238609091474,126.934343274772,26.945569415883));
#722=CARTESIAN_POINT('',(13.1334180558724,126.224969339234,24.5455694364391));
#723=CARTESIAN_POINT('',(13.1334180558724,126.224969410473,26.9455694364391));
#724=CARTESIAN_POINT('',(11.5168374347195,129.024969415778,24.5455693533269));
#725=CARTESIAN_POINT('Origin',(16.3665795633343,126.224969257385,26.9455694364391));
#726=CARTESIAN_POINT('',(16.3665795633343,126.224969257385,26.9455694364391));
#727=CARTESIAN_POINT('',(15.5582891864688,126.224969295657,26.945569437109));
#728=CARTESIAN_POINT('',(16.3665795633343,126.224969186146,24.5455694364391));
#729=CARTESIAN_POINT('',(16.3665795633343,126.224969257385,26.9455694364391));
#730=CARTESIAN_POINT('',(13.1334180558724,126.224969339234,24.5455694364391));
#731=CARTESIAN_POINT('Origin',(17.9831604496433,129.024969180841,26.9455693533269));
#732=CARTESIAN_POINT('',(17.9831604496433,129.024969180841,26.9455693533269));
#733=CARTESIAN_POINT('',(17.5844272203905,128.334343044628,26.9455693739919));
#734=CARTESIAN_POINT('',(17.9831604496433,129.024969109602,24.5455693533269));
#735=CARTESIAN_POINT('',(17.9831604496433,129.024969180841,26.9455693533269));
#736=CARTESIAN_POINT('',(16.3665795633343,126.224969186146,24.5455694364391));
#737=CARTESIAN_POINT('Origin',(16.3665798284904,131.824969257385,26.9455692702147));
#738=CARTESIAN_POINT('',(16.3665798284904,131.824969257385,26.9455692702147));
#739=CARTESIAN_POINT('',(16.7653129923419,131.134343083412,26.9455692902098));
#740=CARTESIAN_POINT('',(16.3665798284904,131.824969186146,24.5455692702147));
#741=CARTESIAN_POINT('',(16.3665798284904,131.824969257385,26.9455692702147));
#742=CARTESIAN_POINT('',(17.9831604496433,129.024969109602,24.5455693533269));
#743=CARTESIAN_POINT('Origin',(13.1334183210285,131.824969410473,26.9455692702147));
#744=CARTESIAN_POINT('',(13.941708697894,131.824969372201,26.9455692695447));
#745=CARTESIAN_POINT('',(16.3665798284904,131.824969186146,24.5455692702147));
#746=CARTESIAN_POINT('Origin',(14.7499989421814,129.02496926269,24.5455693841986));
#747=CARTESIAN_POINT('',(16.3999989421814,129.024969184563,24.5455693533269));
#748=CARTESIAN_POINT('Origin',(14.7499989421814,129.024969262115,24.5455693841986));
#749=CARTESIAN_POINT('Origin',(14.7499989421814,129.024968828697,10.0607341343998));
#750=CARTESIAN_POINT('',(9.74999894218139,129.024969080405,10.5607341343998));
#751=CARTESIAN_POINT('Origin',(14.7499989421814,129.024968843658,10.5607341343999));
#752=CARTESIAN_POINT('',(8.74999894218139,129.024969097832,9.56073413439985));
#753=CARTESIAN_POINT('',(9.24999894218139,129.024969089119,10.0607341343998));
#754=CARTESIAN_POINT('Origin',(14.7499989421814,129.024968813736,9.56073413439985));
#755=CARTESIAN_POINT('Origin',(14.7499989421814,129.024968694048,5.56073419614325));
#756=CARTESIAN_POINT('',(8.74999894218138,129.024968978143,5.56073419470763));
#757=CARTESIAN_POINT('',(8.74999894218138,129.024968978143,5.56073419614325));
#758=CARTESIAN_POINT('Origin',(14.7499989421814,129.024968694048,5.56073419614325));
#759=CARTESIAN_POINT('Origin',(14.7499989421814,129.024969603228,35.94556956516));
#760=CARTESIAN_POINT('',(9.74999894218141,129.024969570675,26.9455693533269));
#761=CARTESIAN_POINT('',(9.74999894218143,129.024969839975,35.94556956516));
#762=CARTESIAN_POINT('Origin',(14.7499989421814,129.024969333929,26.9455693533269));
#763=CARTESIAN_POINT('Origin',(14.7499989421814,129.02496869725,5.56073419614325));
#764=CARTESIAN_POINT('',(11.8499989421814,129.024968834563,5.56073416527155));
#765=CARTESIAN_POINT('Origin',(14.7499989421814,129.02496869725,5.56073416527155));
#766=CARTESIAN_POINT('Origin',(14.7499989421814,129.024969094551,18.9455693533269));
#767=CARTESIAN_POINT('',(11.8499989421814,129.024969231864,18.9455693533269));
#768=CARTESIAN_POINT('Origin',(14.7499989421814,129.024969085574,18.6455693533269));
#769=CARTESIAN_POINT('Origin',(14.749998943365,129.049966005327,18.6455693525789));
#770=CARTESIAN_POINT('Origin',(14.749998943365,129.049966253682,26.9455693525789));
#771=CARTESIAN_POINT('Origin',(14.7499989421814,129.024969603228,35.94556956516));
#772=CARTESIAN_POINT('',(16.3999989421814,129.024969525102,35.94556956516));
#773=UNCERTAINTY_MEASURE_WITH_UNIT(LENGTH_MEASURE(0.01),#777,
'DISTANCE_ACCURACY_VALUE',
'Maximum model space distance between geometric entities at asserted c
onnectivities');
#774=UNCERTAINTY_MEASURE_WITH_UNIT(LENGTH_MEASURE(0.01),#777,
'DISTANCE_ACCURACY_VALUE',
'Maximum model space distance between geometric entities at asserted c
onnectivities');
#775=(
GEOMETRIC_REPRESENTATION_CONTEXT(3)
GLOBAL_UNCERTAINTY_ASSIGNED_CONTEXT((#773))
GLOBAL_UNIT_ASSIGNED_CONTEXT((#777,#779,#780))
REPRESENTATION_CONTEXT('','3D')
);
#776=(
GEOMETRIC_REPRESENTATION_CONTEXT(3)
GLOBAL_UNCERTAINTY_ASSIGNED_CONTEXT((#774))
GLOBAL_UNIT_ASSIGNED_CONTEXT((#777,#779,#780))
REPRESENTATION_CONTEXT('','3D')
);
#777=(
LENGTH_UNIT()
NAMED_UNIT(*)
SI_UNIT(.MILLI.,.METRE.)
);
#778=(
LENGTH_UNIT()
NAMED_UNIT(*)
SI_UNIT($,.METRE.)
);
#779=(
NAMED_UNIT(*)
PLANE_ANGLE_UNIT()
SI_UNIT($,.RADIAN.)
);
#780=(
NAMED_UNIT(*)
SI_UNIT($,.STERADIAN.)
SOLID_ANGLE_UNIT()
);
#781=SHAPE_DEFINITION_REPRESENTATION(#782,#783);
#782=PRODUCT_DEFINITION_SHAPE('',$,#785);
#783=SHAPE_REPRESENTATION('',(#472),#775);
#784=PRODUCT_DEFINITION_CONTEXT('part definition',#789,'design');
#785=PRODUCT_DEFINITION('53. Folding Stock Button',
'53. Folding Stock Button',#786,#784);
#786=PRODUCT_DEFINITION_FORMATION('',$,#791);
#787=PRODUCT_RELATED_PRODUCT_CATEGORY('53. Folding Stock Button',
'53. Folding Stock Button',(#791));
#788=APPLICATION_PROTOCOL_DEFINITION('international standard',
'automotive_design',2009,#789);
#789=APPLICATION_CONTEXT(
'Core Data for Automotive Mechanical Design Process');
#790=PRODUCT_CONTEXT('part definition',#789,'mechanical');
#791=PRODUCT('53. Folding Stock Button','53. Folding Stock Button',$,(#790));
#792=PRESENTATION_STYLE_ASSIGNMENT((#794));
#793=PRESENTATION_STYLE_ASSIGNMENT((#795));
#794=SURFACE_STYLE_USAGE(.BOTH.,#796);
#795=SURFACE_STYLE_USAGE(.BOTH.,#797);
#796=SURFACE_SIDE_STYLE('',(#798));
#797=SURFACE_SIDE_STYLE('',(#799));
#798=SURFACE_STYLE_FILL_AREA(#800);
#799=SURFACE_STYLE_FILL_AREA(#801);
#800=FILL_AREA_STYLE('Steel - Satin',(#802));
#801=FILL_AREA_STYLE('Plastic - Matte (Black) (1)',(#803));
#802=FILL_AREA_STYLE_COLOUR('Steel - Satin',#804);
#803=FILL_AREA_STYLE_COLOUR('Plastic - Matte (Black) (1)',#805);
#804=COLOUR_RGB('Steel - Satin',0.627450980392157,0.627450980392157,0.627450980392157);
#805=COLOUR_RGB('Plastic - Matte (Black) (1)',0.0980392156862745,0.0980392156862745,
0.0980392156862745);
ENDSEC;
END-ISO-10303-21;
