ISO-10303-21;
HEADER;
/* Generated by software containing ST-Developer
 * from STEP Tools, Inc. (www.steptools.com) 
 */

FILE_DESCRIPTION(
/* description */ (''),
/* implementation_level */ '2;1');

FILE_NAME(
/* name */ '54. Folding Stock Lock.step',
/* time_stamp */ '2025-10-08T23:29:39+01:00',
/* author */ (''),
/* organization */ (''),
/* preprocessor_version */ 'ST-DEVELOPER v20.1',
/* originating_system */ 'Autodesk Translation Framework v14.10.0.0',
/* authorisation */ '');

FILE_SCHEMA (('AUTOMOTIVE_DESIGN { 1 0 10303 214 3 1 1 }'));
ENDSEC;

DATA;
#10=MECHANICAL_DESIGN_GEOMETRIC_PRESENTATION_REPRESENTATION('',(#13),#1290);
#11=SHAPE_REPRESENTATION_RELATIONSHIP('SRR','None',#1297,#12);
#12=ADVANCED_BREP_SHAPE_REPRESENTATION('',(#14),#1289);
#13=STYLED_ITEM('',(#1307),#14);
#14=MANIFOLD_SOLID_BREP('56. Folding Stock Lock',#801);
#15=CYLINDRICAL_SURFACE('',#839,1.65);
#16=CYLINDRICAL_SURFACE('',#847,1.65);
#17=FACE_BOUND('',#88,.T.);
#18=FACE_BOUND('',#91,.T.);
#19=FACE_BOUND('',#104,.T.);
#20=FACE_BOUND('',#106,.T.);
#21=CIRCLE('',#834,1.65);
#22=CIRCLE('',#837,1.65);
#23=CIRCLE('',#840,1.65);
#24=CIRCLE('',#842,1.65);
#25=CIRCLE('',#844,1.65);
#26=CIRCLE('',#846,1.65);
#27=CIRCLE('',#848,1.65);
#28=FACE_OUTER_BOUND('',#69,.T.);
#29=FACE_OUTER_BOUND('',#70,.T.);
#30=FACE_OUTER_BOUND('',#71,.T.);
#31=FACE_OUTER_BOUND('',#72,.T.);
#32=FACE_OUTER_BOUND('',#73,.T.);
#33=FACE_OUTER_BOUND('',#74,.T.);
#34=FACE_OUTER_BOUND('',#75,.T.);
#35=FACE_OUTER_BOUND('',#76,.T.);
#36=FACE_OUTER_BOUND('',#77,.T.);
#37=FACE_OUTER_BOUND('',#78,.T.);
#38=FACE_OUTER_BOUND('',#79,.T.);
#39=FACE_OUTER_BOUND('',#80,.T.);
#40=FACE_OUTER_BOUND('',#81,.T.);
#41=FACE_OUTER_BOUND('',#82,.T.);
#42=FACE_OUTER_BOUND('',#83,.T.);
#43=FACE_OUTER_BOUND('',#84,.T.);
#44=FACE_OUTER_BOUND('',#85,.T.);
#45=FACE_OUTER_BOUND('',#86,.T.);
#46=FACE_OUTER_BOUND('',#87,.T.);
#47=FACE_OUTER_BOUND('',#89,.T.);
#48=FACE_OUTER_BOUND('',#90,.T.);
#49=FACE_OUTER_BOUND('',#92,.T.);
#50=FACE_OUTER_BOUND('',#93,.T.);
#51=FACE_OUTER_BOUND('',#94,.T.);
#52=FACE_OUTER_BOUND('',#95,.T.);
#53=FACE_OUTER_BOUND('',#96,.T.);
#54=FACE_OUTER_BOUND('',#97,.T.);
#55=FACE_OUTER_BOUND('',#98,.T.);
#56=FACE_OUTER_BOUND('',#99,.T.);
#57=FACE_OUTER_BOUND('',#100,.T.);
#58=FACE_OUTER_BOUND('',#101,.T.);
#59=FACE_OUTER_BOUND('',#102,.T.);
#60=FACE_OUTER_BOUND('',#103,.T.);
#61=FACE_OUTER_BOUND('',#105,.T.);
#62=FACE_OUTER_BOUND('',#107,.T.);
#63=FACE_OUTER_BOUND('',#108,.T.);
#64=FACE_OUTER_BOUND('',#109,.T.);
#65=FACE_OUTER_BOUND('',#110,.T.);
#66=FACE_OUTER_BOUND('',#111,.T.);
#67=FACE_OUTER_BOUND('',#112,.T.);
#68=FACE_OUTER_BOUND('',#113,.T.);
#69=EDGE_LOOP('',(#501,#502,#503,#504,#505));
#70=EDGE_LOOP('',(#506,#507,#508,#509,#510,#511,#512,#513,#514,#515));
#71=EDGE_LOOP('',(#516,#517,#518,#519));
#72=EDGE_LOOP('',(#520,#521,#522,#523));
#73=EDGE_LOOP('',(#524,#525,#526,#527));
#74=EDGE_LOOP('',(#528,#529,#530,#531));
#75=EDGE_LOOP('',(#532,#533,#534,#535));
#76=EDGE_LOOP('',(#536,#537,#538,#539,#540));
#77=EDGE_LOOP('',(#541,#542,#543,#544));
#78=EDGE_LOOP('',(#545,#546,#547,#548));
#79=EDGE_LOOP('',(#549,#550,#551,#552));
#80=EDGE_LOOP('',(#553,#554,#555,#556,#557));
#81=EDGE_LOOP('',(#558,#559,#560,#561));
#82=EDGE_LOOP('',(#562,#563,#564,#565));
#83=EDGE_LOOP('',(#566,#567,#568,#569,#570,#571));
#84=EDGE_LOOP('',(#572,#573,#574,#575));
#85=EDGE_LOOP('',(#576,#577,#578,#579));
#86=EDGE_LOOP('',(#580,#581,#582,#583,#584,#585));
#87=EDGE_LOOP('',(#586,#587,#588,#589,#590,#591,#592,#593,#594,#595,#596,
#597));
#88=EDGE_LOOP('',(#598));
#89=EDGE_LOOP('',(#599,#600,#601,#602));
#90=EDGE_LOOP('',(#603,#604,#605,#606,#607,#608,#609,#610));
#91=EDGE_LOOP('',(#611));
#92=EDGE_LOOP('',(#612,#613,#614,#615));
#93=EDGE_LOOP('',(#616,#617,#618,#619));
#94=EDGE_LOOP('',(#620,#621,#622));
#95=EDGE_LOOP('',(#623,#624,#625));
#96=EDGE_LOOP('',(#626,#627,#628));
#97=EDGE_LOOP('',(#629,#630,#631,#632,#633,#634,#635,#636,#637));
#98=EDGE_LOOP('',(#638,#639,#640));
#99=EDGE_LOOP('',(#641,#642,#643,#644,#645,#646));
#100=EDGE_LOOP('',(#647,#648,#649,#650));
#101=EDGE_LOOP('',(#651,#652,#653,#654,#655,#656,#657,#658));
#102=EDGE_LOOP('',(#659,#660,#661,#662));
#103=EDGE_LOOP('',(#663,#664,#665,#666));
#104=EDGE_LOOP('',(#667,#668,#669,#670));
#105=EDGE_LOOP('',(#671,#672,#673,#674,#675));
#106=EDGE_LOOP('',(#676));
#107=EDGE_LOOP('',(#677,#678,#679,#680));
#108=EDGE_LOOP('',(#681,#682,#683,#684));
#109=EDGE_LOOP('',(#685,#686,#687,#688,#689,#690,#691,#692,#693));
#110=EDGE_LOOP('',(#694,#695,#696,#697,#698));
#111=EDGE_LOOP('',(#699,#700,#701,#702,#703,#704,#705,#706,#707,#708));
#112=EDGE_LOOP('',(#709,#710,#711,#712,#713,#714));
#113=EDGE_LOOP('',(#715,#716,#717,#718,#719,#720));
#114=LINE('',#1068,#217);
#115=LINE('',#1070,#218);
#116=LINE('',#1072,#219);
#117=LINE('',#1074,#220);
#118=LINE('',#1075,#221);
#119=LINE('',#1079,#222);
#120=LINE('',#1081,#223);
#121=LINE('',#1083,#224);
#122=LINE('',#1085,#225);
#123=LINE('',#1087,#226);
#124=LINE('',#1089,#227);
#125=LINE('',#1091,#228);
#126=LINE('',#1093,#229);
#127=LINE('',#1095,#230);
#128=LINE('',#1096,#231);
#129=LINE('',#1099,#232);
#130=LINE('',#1101,#233);
#131=LINE('',#1102,#234);
#132=LINE('',#1105,#235);
#133=LINE('',#1106,#236);
#134=LINE('',#1109,#237);
#135=LINE('',#1110,#238);
#136=LINE('',#1113,#239);
#137=LINE('',#1114,#240);
#138=LINE('',#1117,#241);
#139=LINE('',#1118,#242);
#140=LINE('',#1122,#243);
#141=LINE('',#1123,#244);
#142=LINE('',#1124,#245);
#143=LINE('',#1127,#246);
#144=LINE('',#1128,#247);
#145=LINE('',#1131,#248);
#146=LINE('',#1132,#249);
#147=LINE('',#1135,#250);
#148=LINE('',#1136,#251);
#149=LINE('',#1139,#252);
#150=LINE('',#1140,#253);
#151=LINE('',#1143,#254);
#152=LINE('',#1144,#255);
#153=LINE('',#1148,#256);
#154=LINE('',#1150,#257);
#155=LINE('',#1152,#258);
#156=LINE('',#1153,#259);
#157=LINE('',#1155,#260);
#158=LINE('',#1157,#261);
#159=LINE('',#1158,#262);
#160=LINE('',#1161,#263);
#161=LINE('',#1162,#264);
#162=LINE('',#1165,#265);
#163=LINE('',#1166,#266);
#164=LINE('',#1169,#267);
#165=LINE('',#1171,#268);
#166=LINE('',#1172,#269);
#167=LINE('',#1175,#270);
#168=LINE('',#1177,#271);
#169=LINE('',#1178,#272);
#170=LINE('',#1183,#273);
#171=LINE('',#1184,#274);
#172=LINE('',#1187,#275);
#173=LINE('',#1188,#276);
#174=LINE('',#1192,#277);
#175=LINE('',#1196,#278);
#176=LINE('',#1202,#279);
#177=LINE('',#1203,#280);
#178=LINE('',#1208,#281);
#179=LINE('',#1209,#282);
#180=LINE('',#1212,#283);
#181=LINE('',#1214,#284);
#182=LINE('',#1218,#285);
#183=LINE('',#1221,#286);
#184=LINE('',#1222,#287);
#185=LINE('',#1225,#288);
#186=LINE('',#1226,#289);
#187=LINE('',#1230,#290);
#188=LINE('',#1231,#291);
#189=LINE('',#1232,#292);
#190=LINE('',#1235,#293);
#191=LINE('',#1237,#294);
#192=LINE('',#1238,#295);
#193=LINE('',#1242,#296);
#194=LINE('',#1244,#297);
#195=LINE('',#1245,#298);
#196=LINE('',#1247,#299);
#197=LINE('',#1249,#300);
#198=LINE('',#1251,#301);
#199=LINE('',#1252,#302);
#200=LINE('',#1255,#303);
#201=LINE('',#1257,#304);
#202=LINE('',#1258,#305);
#203=LINE('',#1261,#306);
#204=LINE('',#1262,#307);
#205=LINE('',#1265,#308);
#206=LINE('',#1267,#309);
#207=LINE('',#1268,#310);
#208=LINE('',#1271,#311);
#209=LINE('',#1272,#312);
#210=LINE('',#1275,#313);
#211=LINE('',#1276,#314);
#212=LINE('',#1278,#315);
#213=LINE('',#1279,#316);
#214=LINE('',#1281,#317);
#215=LINE('',#1283,#318);
#216=LINE('',#1285,#319);
#217=VECTOR('',#867,10.);
#218=VECTOR('',#868,10.);
#219=VECTOR('',#869,10.);
#220=VECTOR('',#870,10.);
#221=VECTOR('',#871,10.);
#222=VECTOR('',#874,10.);
#223=VECTOR('',#875,10.);
#224=VECTOR('',#876,10.);
#225=VECTOR('',#877,10.);
#226=VECTOR('',#878,10.);
#227=VECTOR('',#879,10.);
#228=VECTOR('',#880,10.);
#229=VECTOR('',#881,10.);
#230=VECTOR('',#882,10.);
#231=VECTOR('',#883,10.);
#232=VECTOR('',#886,10.);
#233=VECTOR('',#887,10.);
#234=VECTOR('',#888,10.);
#235=VECTOR('',#891,10.);
#236=VECTOR('',#892,10.);
#237=VECTOR('',#895,10.);
#238=VECTOR('',#896,10.);
#239=VECTOR('',#899,10.);
#240=VECTOR('',#900,10.);
#241=VECTOR('',#903,10.);
#242=VECTOR('',#904,10.);
#243=VECTOR('',#907,10.);
#244=VECTOR('',#908,10.);
#245=VECTOR('',#909,10.);
#246=VECTOR('',#912,10.);
#247=VECTOR('',#913,10.);
#248=VECTOR('',#916,10.);
#249=VECTOR('',#917,10.);
#250=VECTOR('',#920,10.);
#251=VECTOR('',#921,10.);
#252=VECTOR('',#924,10.);
#253=VECTOR('',#925,10.);
#254=VECTOR('',#928,10.);
#255=VECTOR('',#929,10.);
#256=VECTOR('',#932,10.);
#257=VECTOR('',#933,10.);
#258=VECTOR('',#934,10.);
#259=VECTOR('',#935,10.);
#260=VECTOR('',#938,10.);
#261=VECTOR('',#939,10.);
#262=VECTOR('',#940,10.);
#263=VECTOR('',#943,10.);
#264=VECTOR('',#944,10.);
#265=VECTOR('',#947,10.);
#266=VECTOR('',#948,10.);
#267=VECTOR('',#951,10.);
#268=VECTOR('',#952,10.);
#269=VECTOR('',#953,10.);
#270=VECTOR('',#956,10.);
#271=VECTOR('',#957,10.);
#272=VECTOR('',#958,10.);
#273=VECTOR('',#963,10.);
#274=VECTOR('',#964,10.);
#275=VECTOR('',#967,10.);
#276=VECTOR('',#968,10.);
#277=VECTOR('',#973,10.);
#278=VECTOR('',#978,1.5);
#279=VECTOR('',#983,10.);
#280=VECTOR('',#984,10.);
#281=VECTOR('',#989,10.);
#282=VECTOR('',#990,10.);
#283=VECTOR('',#993,10.);
#284=VECTOR('',#994,10.);
#285=VECTOR('',#999,1.5);
#286=VECTOR('',#1002,10.);
#287=VECTOR('',#1003,10.);
#288=VECTOR('',#1006,10.);
#289=VECTOR('',#1007,10.);
#290=VECTOR('',#1010,10.);
#291=VECTOR('',#1011,10.);
#292=VECTOR('',#1012,10.);
#293=VECTOR('',#1015,10.);
#294=VECTOR('',#1016,10.);
#295=VECTOR('',#1017,10.);
#296=VECTOR('',#1020,10.);
#297=VECTOR('',#1021,10.);
#298=VECTOR('',#1022,10.);
#299=VECTOR('',#1023,10.);
#300=VECTOR('',#1024,10.);
#301=VECTOR('',#1025,10.);
#302=VECTOR('',#1026,10.);
#303=VECTOR('',#1029,10.);
#304=VECTOR('',#1030,10.);
#305=VECTOR('',#1031,10.);
#306=VECTOR('',#1034,10.);
#307=VECTOR('',#1035,10.);
#308=VECTOR('',#1038,10.);
#309=VECTOR('',#1039,10.);
#310=VECTOR('',#1040,10.);
#311=VECTOR('',#1043,10.);
#312=VECTOR('',#1044,10.);
#313=VECTOR('',#1047,10.);
#314=VECTOR('',#1048,10.);
#315=VECTOR('',#1051,10.);
#316=VECTOR('',#1052,10.);
#317=VECTOR('',#1055,10.);
#318=VECTOR('',#1058,10.);
#319=VECTOR('',#1061,10.);
#320=VERTEX_POINT('',#1066);
#321=VERTEX_POINT('',#1067);
#322=VERTEX_POINT('',#1069);
#323=VERTEX_POINT('',#1071);
#324=VERTEX_POINT('',#1073);
#325=VERTEX_POINT('',#1077);
#326=VERTEX_POINT('',#1078);
#327=VERTEX_POINT('',#1080);
#328=VERTEX_POINT('',#1082);
#329=VERTEX_POINT('',#1084);
#330=VERTEX_POINT('',#1086);
#331=VERTEX_POINT('',#1088);
#332=VERTEX_POINT('',#1090);
#333=VERTEX_POINT('',#1092);
#334=VERTEX_POINT('',#1094);
#335=VERTEX_POINT('',#1098);
#336=VERTEX_POINT('',#1100);
#337=VERTEX_POINT('',#1104);
#338=VERTEX_POINT('',#1108);
#339=VERTEX_POINT('',#1112);
#340=VERTEX_POINT('',#1116);
#341=VERTEX_POINT('',#1120);
#342=VERTEX_POINT('',#1121);
#343=VERTEX_POINT('',#1126);
#344=VERTEX_POINT('',#1130);
#345=VERTEX_POINT('',#1134);
#346=VERTEX_POINT('',#1138);
#347=VERTEX_POINT('',#1142);
#348=VERTEX_POINT('',#1146);
#349=VERTEX_POINT('',#1147);
#350=VERTEX_POINT('',#1149);
#351=VERTEX_POINT('',#1151);
#352=VERTEX_POINT('',#1156);
#353=VERTEX_POINT('',#1160);
#354=VERTEX_POINT('',#1164);
#355=VERTEX_POINT('',#1168);
#356=VERTEX_POINT('',#1170);
#357=VERTEX_POINT('',#1174);
#358=VERTEX_POINT('',#1176);
#359=VERTEX_POINT('',#1179);
#360=VERTEX_POINT('',#1182);
#361=VERTEX_POINT('',#1186);
#362=VERTEX_POINT('',#1189);
#363=VERTEX_POINT('',#1194);
#364=VERTEX_POINT('',#1198);
#365=VERTEX_POINT('',#1199);
#366=VERTEX_POINT('',#1201);
#367=VERTEX_POINT('',#1205);
#368=VERTEX_POINT('',#1207);
#369=VERTEX_POINT('',#1211);
#370=VERTEX_POINT('',#1213);
#371=VERTEX_POINT('',#1217);
#372=VERTEX_POINT('',#1219);
#373=VERTEX_POINT('',#1224);
#374=VERTEX_POINT('',#1228);
#375=VERTEX_POINT('',#1229);
#376=VERTEX_POINT('',#1234);
#377=VERTEX_POINT('',#1236);
#378=VERTEX_POINT('',#1240);
#379=VERTEX_POINT('',#1241);
#380=VERTEX_POINT('',#1243);
#381=VERTEX_POINT('',#1246);
#382=VERTEX_POINT('',#1248);
#383=VERTEX_POINT('',#1250);
#384=VERTEX_POINT('',#1254);
#385=VERTEX_POINT('',#1256);
#386=VERTEX_POINT('',#1260);
#387=VERTEX_POINT('',#1264);
#388=VERTEX_POINT('',#1266);
#389=VERTEX_POINT('',#1270);
#390=VERTEX_POINT('',#1274);
#391=EDGE_CURVE('',#320,#321,#114,.T.);
#392=EDGE_CURVE('',#322,#320,#115,.F.);
#393=EDGE_CURVE('',#323,#322,#116,.F.);
#394=EDGE_CURVE('',#323,#324,#117,.F.);
#395=EDGE_CURVE('',#321,#324,#118,.F.);
#396=EDGE_CURVE('',#325,#326,#119,.T.);
#397=EDGE_CURVE('',#325,#327,#120,.T.);
#398=EDGE_CURVE('',#327,#328,#121,.F.);
#399=EDGE_CURVE('',#328,#329,#122,.T.);
#400=EDGE_CURVE('',#329,#330,#123,.F.);
#401=EDGE_CURVE('',#330,#331,#124,.T.);
#402=EDGE_CURVE('',#332,#331,#125,.T.);
#403=EDGE_CURVE('',#333,#332,#126,.T.);
#404=EDGE_CURVE('',#334,#333,#127,.T.);
#405=EDGE_CURVE('',#326,#334,#128,.T.);
#406=EDGE_CURVE('',#331,#335,#129,.T.);
#407=EDGE_CURVE('',#335,#336,#130,.T.);
#408=EDGE_CURVE('',#332,#336,#131,.T.);
#409=EDGE_CURVE('',#336,#337,#132,.T.);
#410=EDGE_CURVE('',#337,#333,#133,.T.);
#411=EDGE_CURVE('',#337,#338,#134,.T.);
#412=EDGE_CURVE('',#338,#334,#135,.T.);
#413=EDGE_CURVE('',#326,#339,#136,.T.);
#414=EDGE_CURVE('',#338,#339,#137,.T.);
#415=EDGE_CURVE('',#340,#325,#138,.T.);
#416=EDGE_CURVE('',#339,#340,#139,.T.);
#417=EDGE_CURVE('',#341,#342,#140,.T.);
#418=EDGE_CURVE('',#342,#327,#141,.T.);
#419=EDGE_CURVE('',#341,#340,#142,.T.);
#420=EDGE_CURVE('',#342,#343,#143,.F.);
#421=EDGE_CURVE('',#343,#328,#144,.F.);
#422=EDGE_CURVE('',#344,#343,#145,.T.);
#423=EDGE_CURVE('',#344,#329,#146,.T.);
#424=EDGE_CURVE('',#345,#344,#147,.T.);
#425=EDGE_CURVE('',#330,#345,#148,.F.);
#426=EDGE_CURVE('',#345,#346,#149,.T.);
#427=EDGE_CURVE('',#346,#335,#150,.T.);
#428=EDGE_CURVE('',#346,#347,#151,.T.);
#429=EDGE_CURVE('',#347,#336,#152,.T.);
#430=EDGE_CURVE('',#348,#349,#153,.T.);
#431=EDGE_CURVE('',#350,#349,#154,.T.);
#432=EDGE_CURVE('',#351,#350,#155,.T.);
#433=EDGE_CURVE('',#351,#348,#156,.T.);
#434=EDGE_CURVE('',#349,#347,#157,.T.);
#435=EDGE_CURVE('',#352,#348,#158,.T.);
#436=EDGE_CURVE('',#337,#352,#159,.T.);
#437=EDGE_CURVE('',#352,#353,#160,.T.);
#438=EDGE_CURVE('',#353,#338,#161,.T.);
#439=EDGE_CURVE('',#339,#354,#162,.T.);
#440=EDGE_CURVE('',#354,#353,#163,.T.);
#441=EDGE_CURVE('',#354,#355,#164,.T.);
#442=EDGE_CURVE('',#356,#355,#165,.T.);
#443=EDGE_CURVE('',#341,#356,#166,.T.);
#444=EDGE_CURVE('',#357,#356,#167,.T.);
#445=EDGE_CURVE('',#357,#358,#168,.T.);
#446=EDGE_CURVE('',#350,#358,#169,.T.);
#447=EDGE_CURVE('',#359,#359,#21,.F.);
#448=EDGE_CURVE('',#358,#360,#170,.T.);
#449=EDGE_CURVE('',#360,#351,#171,.T.);
#450=EDGE_CURVE('',#360,#361,#172,.T.);
#451=EDGE_CURVE('',#355,#361,#173,.T.);
#452=EDGE_CURVE('',#362,#362,#22,.T.);
#453=EDGE_CURVE('',#361,#357,#174,.T.);
#454=EDGE_CURVE('',#363,#363,#23,.T.);
#455=EDGE_CURVE('',#363,#362,#175,.T.);
#456=EDGE_CURVE('',#364,#365,#24,.F.);
#457=EDGE_CURVE('',#366,#364,#176,.T.);
#458=EDGE_CURVE('',#365,#366,#177,.T.);
#459=EDGE_CURVE('',#365,#367,#25,.F.);
#460=EDGE_CURVE('',#368,#365,#178,.T.);
#461=EDGE_CURVE('',#367,#368,#179,.T.);
#462=EDGE_CURVE('',#369,#367,#180,.T.);
#463=EDGE_CURVE('',#370,#369,#181,.T.);
#464=EDGE_CURVE('',#367,#370,#26,.F.);
#465=EDGE_CURVE('',#359,#371,#182,.T.);
#466=EDGE_CURVE('',#371,#372,#27,.F.);
#467=EDGE_CURVE('',#364,#372,#183,.T.);
#468=EDGE_CURVE('',#370,#371,#184,.T.);
#469=EDGE_CURVE('',#373,#371,#185,.T.);
#470=EDGE_CURVE('',#372,#373,#186,.T.);
#471=EDGE_CURVE('',#374,#375,#187,.F.);
#472=EDGE_CURVE('',#374,#366,#188,.T.);
#473=EDGE_CURVE('',#375,#373,#189,.F.);
#474=EDGE_CURVE('',#376,#375,#190,.F.);
#475=EDGE_CURVE('',#377,#376,#191,.F.);
#476=EDGE_CURVE('',#374,#377,#192,.F.);
#477=EDGE_CURVE('',#378,#379,#193,.F.);
#478=EDGE_CURVE('',#378,#380,#194,.F.);
#479=EDGE_CURVE('',#380,#377,#195,.T.);
#480=EDGE_CURVE('',#381,#376,#196,.F.);
#481=EDGE_CURVE('',#381,#382,#197,.F.);
#482=EDGE_CURVE('',#383,#382,#198,.T.);
#483=EDGE_CURVE('',#383,#379,#199,.T.);
#484=EDGE_CURVE('',#381,#384,#200,.F.);
#485=EDGE_CURVE('',#385,#384,#201,.F.);
#486=EDGE_CURVE('',#385,#382,#202,.T.);
#487=EDGE_CURVE('',#386,#385,#203,.F.);
#488=EDGE_CURVE('',#383,#386,#204,.F.);
#489=EDGE_CURVE('',#387,#379,#205,.T.);
#490=EDGE_CURVE('',#388,#386,#206,.T.);
#491=EDGE_CURVE('',#388,#387,#207,.T.);
#492=EDGE_CURVE('',#389,#387,#208,.T.);
#493=EDGE_CURVE('',#378,#389,#209,.F.);
#494=EDGE_CURVE('',#390,#380,#210,.F.);
#495=EDGE_CURVE('',#389,#390,#211,.F.);
#496=EDGE_CURVE('',#321,#390,#212,.T.);
#497=EDGE_CURVE('',#324,#368,#213,.T.);
#498=EDGE_CURVE('',#323,#369,#214,.F.);
#499=EDGE_CURVE('',#384,#322,#215,.T.);
#500=EDGE_CURVE('',#320,#388,#216,.T.);
#501=ORIENTED_EDGE('',*,*,#391,.F.);
#502=ORIENTED_EDGE('',*,*,#392,.F.);
#503=ORIENTED_EDGE('',*,*,#393,.F.);
#504=ORIENTED_EDGE('',*,*,#394,.T.);
#505=ORIENTED_EDGE('',*,*,#395,.F.);
#506=ORIENTED_EDGE('',*,*,#396,.F.);
#507=ORIENTED_EDGE('',*,*,#397,.T.);
#508=ORIENTED_EDGE('',*,*,#398,.T.);
#509=ORIENTED_EDGE('',*,*,#399,.T.);
#510=ORIENTED_EDGE('',*,*,#400,.T.);
#511=ORIENTED_EDGE('',*,*,#401,.T.);
#512=ORIENTED_EDGE('',*,*,#402,.F.);
#513=ORIENTED_EDGE('',*,*,#403,.F.);
#514=ORIENTED_EDGE('',*,*,#404,.F.);
#515=ORIENTED_EDGE('',*,*,#405,.F.);
#516=ORIENTED_EDGE('',*,*,#402,.T.);
#517=ORIENTED_EDGE('',*,*,#406,.T.);
#518=ORIENTED_EDGE('',*,*,#407,.T.);
#519=ORIENTED_EDGE('',*,*,#408,.F.);
#520=ORIENTED_EDGE('',*,*,#403,.T.);
#521=ORIENTED_EDGE('',*,*,#408,.T.);
#522=ORIENTED_EDGE('',*,*,#409,.T.);
#523=ORIENTED_EDGE('',*,*,#410,.T.);
#524=ORIENTED_EDGE('',*,*,#404,.T.);
#525=ORIENTED_EDGE('',*,*,#410,.F.);
#526=ORIENTED_EDGE('',*,*,#411,.T.);
#527=ORIENTED_EDGE('',*,*,#412,.T.);
#528=ORIENTED_EDGE('',*,*,#413,.F.);
#529=ORIENTED_EDGE('',*,*,#405,.T.);
#530=ORIENTED_EDGE('',*,*,#412,.F.);
#531=ORIENTED_EDGE('',*,*,#414,.T.);
#532=ORIENTED_EDGE('',*,*,#415,.T.);
#533=ORIENTED_EDGE('',*,*,#396,.T.);
#534=ORIENTED_EDGE('',*,*,#413,.T.);
#535=ORIENTED_EDGE('',*,*,#416,.T.);
#536=ORIENTED_EDGE('',*,*,#417,.T.);
#537=ORIENTED_EDGE('',*,*,#418,.T.);
#538=ORIENTED_EDGE('',*,*,#397,.F.);
#539=ORIENTED_EDGE('',*,*,#415,.F.);
#540=ORIENTED_EDGE('',*,*,#419,.F.);
#541=ORIENTED_EDGE('',*,*,#420,.T.);
#542=ORIENTED_EDGE('',*,*,#421,.T.);
#543=ORIENTED_EDGE('',*,*,#398,.F.);
#544=ORIENTED_EDGE('',*,*,#418,.F.);
#545=ORIENTED_EDGE('',*,*,#421,.F.);
#546=ORIENTED_EDGE('',*,*,#422,.F.);
#547=ORIENTED_EDGE('',*,*,#423,.T.);
#548=ORIENTED_EDGE('',*,*,#399,.F.);
#549=ORIENTED_EDGE('',*,*,#424,.F.);
#550=ORIENTED_EDGE('',*,*,#425,.F.);
#551=ORIENTED_EDGE('',*,*,#400,.F.);
#552=ORIENTED_EDGE('',*,*,#423,.F.);
#553=ORIENTED_EDGE('',*,*,#406,.F.);
#554=ORIENTED_EDGE('',*,*,#401,.F.);
#555=ORIENTED_EDGE('',*,*,#425,.T.);
#556=ORIENTED_EDGE('',*,*,#426,.T.);
#557=ORIENTED_EDGE('',*,*,#427,.T.);
#558=ORIENTED_EDGE('',*,*,#407,.F.);
#559=ORIENTED_EDGE('',*,*,#427,.F.);
#560=ORIENTED_EDGE('',*,*,#428,.T.);
#561=ORIENTED_EDGE('',*,*,#429,.T.);
#562=ORIENTED_EDGE('',*,*,#430,.T.);
#563=ORIENTED_EDGE('',*,*,#431,.F.);
#564=ORIENTED_EDGE('',*,*,#432,.F.);
#565=ORIENTED_EDGE('',*,*,#433,.T.);
#566=ORIENTED_EDGE('',*,*,#409,.F.);
#567=ORIENTED_EDGE('',*,*,#429,.F.);
#568=ORIENTED_EDGE('',*,*,#434,.F.);
#569=ORIENTED_EDGE('',*,*,#430,.F.);
#570=ORIENTED_EDGE('',*,*,#435,.F.);
#571=ORIENTED_EDGE('',*,*,#436,.F.);
#572=ORIENTED_EDGE('',*,*,#411,.F.);
#573=ORIENTED_EDGE('',*,*,#436,.T.);
#574=ORIENTED_EDGE('',*,*,#437,.T.);
#575=ORIENTED_EDGE('',*,*,#438,.T.);
#576=ORIENTED_EDGE('',*,*,#439,.F.);
#577=ORIENTED_EDGE('',*,*,#414,.F.);
#578=ORIENTED_EDGE('',*,*,#438,.F.);
#579=ORIENTED_EDGE('',*,*,#440,.F.);
#580=ORIENTED_EDGE('',*,*,#439,.T.);
#581=ORIENTED_EDGE('',*,*,#441,.T.);
#582=ORIENTED_EDGE('',*,*,#442,.F.);
#583=ORIENTED_EDGE('',*,*,#443,.F.);
#584=ORIENTED_EDGE('',*,*,#419,.T.);
#585=ORIENTED_EDGE('',*,*,#416,.F.);
#586=ORIENTED_EDGE('',*,*,#443,.T.);
#587=ORIENTED_EDGE('',*,*,#444,.F.);
#588=ORIENTED_EDGE('',*,*,#445,.T.);
#589=ORIENTED_EDGE('',*,*,#446,.F.);
#590=ORIENTED_EDGE('',*,*,#431,.T.);
#591=ORIENTED_EDGE('',*,*,#434,.T.);
#592=ORIENTED_EDGE('',*,*,#428,.F.);
#593=ORIENTED_EDGE('',*,*,#426,.F.);
#594=ORIENTED_EDGE('',*,*,#424,.T.);
#595=ORIENTED_EDGE('',*,*,#422,.T.);
#596=ORIENTED_EDGE('',*,*,#420,.F.);
#597=ORIENTED_EDGE('',*,*,#417,.F.);
#598=ORIENTED_EDGE('',*,*,#447,.T.);
#599=ORIENTED_EDGE('',*,*,#446,.T.);
#600=ORIENTED_EDGE('',*,*,#448,.T.);
#601=ORIENTED_EDGE('',*,*,#449,.T.);
#602=ORIENTED_EDGE('',*,*,#432,.T.);
#603=ORIENTED_EDGE('',*,*,#440,.T.);
#604=ORIENTED_EDGE('',*,*,#437,.F.);
#605=ORIENTED_EDGE('',*,*,#435,.T.);
#606=ORIENTED_EDGE('',*,*,#433,.F.);
#607=ORIENTED_EDGE('',*,*,#449,.F.);
#608=ORIENTED_EDGE('',*,*,#450,.T.);
#609=ORIENTED_EDGE('',*,*,#451,.F.);
#610=ORIENTED_EDGE('',*,*,#441,.F.);
#611=ORIENTED_EDGE('',*,*,#452,.T.);
#612=ORIENTED_EDGE('',*,*,#451,.T.);
#613=ORIENTED_EDGE('',*,*,#453,.T.);
#614=ORIENTED_EDGE('',*,*,#444,.T.);
#615=ORIENTED_EDGE('',*,*,#442,.T.);
#616=ORIENTED_EDGE('',*,*,#454,.F.);
#617=ORIENTED_EDGE('',*,*,#455,.T.);
#618=ORIENTED_EDGE('',*,*,#452,.F.);
#619=ORIENTED_EDGE('',*,*,#455,.F.);
#620=ORIENTED_EDGE('',*,*,#456,.F.);
#621=ORIENTED_EDGE('',*,*,#457,.F.);
#622=ORIENTED_EDGE('',*,*,#458,.F.);
#623=ORIENTED_EDGE('',*,*,#459,.F.);
#624=ORIENTED_EDGE('',*,*,#460,.F.);
#625=ORIENTED_EDGE('',*,*,#461,.F.);
#626=ORIENTED_EDGE('',*,*,#462,.F.);
#627=ORIENTED_EDGE('',*,*,#463,.F.);
#628=ORIENTED_EDGE('',*,*,#464,.F.);
#629=ORIENTED_EDGE('',*,*,#447,.F.);
#630=ORIENTED_EDGE('',*,*,#465,.T.);
#631=ORIENTED_EDGE('',*,*,#466,.T.);
#632=ORIENTED_EDGE('',*,*,#467,.F.);
#633=ORIENTED_EDGE('',*,*,#456,.T.);
#634=ORIENTED_EDGE('',*,*,#459,.T.);
#635=ORIENTED_EDGE('',*,*,#464,.T.);
#636=ORIENTED_EDGE('',*,*,#468,.T.);
#637=ORIENTED_EDGE('',*,*,#465,.F.);
#638=ORIENTED_EDGE('',*,*,#466,.F.);
#639=ORIENTED_EDGE('',*,*,#469,.F.);
#640=ORIENTED_EDGE('',*,*,#470,.F.);
#641=ORIENTED_EDGE('',*,*,#471,.F.);
#642=ORIENTED_EDGE('',*,*,#472,.T.);
#643=ORIENTED_EDGE('',*,*,#457,.T.);
#644=ORIENTED_EDGE('',*,*,#467,.T.);
#645=ORIENTED_EDGE('',*,*,#470,.T.);
#646=ORIENTED_EDGE('',*,*,#473,.F.);
#647=ORIENTED_EDGE('',*,*,#471,.T.);
#648=ORIENTED_EDGE('',*,*,#474,.F.);
#649=ORIENTED_EDGE('',*,*,#475,.F.);
#650=ORIENTED_EDGE('',*,*,#476,.F.);
#651=ORIENTED_EDGE('',*,*,#477,.F.);
#652=ORIENTED_EDGE('',*,*,#478,.T.);
#653=ORIENTED_EDGE('',*,*,#479,.T.);
#654=ORIENTED_EDGE('',*,*,#475,.T.);
#655=ORIENTED_EDGE('',*,*,#480,.F.);
#656=ORIENTED_EDGE('',*,*,#481,.T.);
#657=ORIENTED_EDGE('',*,*,#482,.F.);
#658=ORIENTED_EDGE('',*,*,#483,.T.);
#659=ORIENTED_EDGE('',*,*,#484,.T.);
#660=ORIENTED_EDGE('',*,*,#485,.F.);
#661=ORIENTED_EDGE('',*,*,#486,.T.);
#662=ORIENTED_EDGE('',*,*,#481,.F.);
#663=ORIENTED_EDGE('',*,*,#453,.F.);
#664=ORIENTED_EDGE('',*,*,#450,.F.);
#665=ORIENTED_EDGE('',*,*,#448,.F.);
#666=ORIENTED_EDGE('',*,*,#445,.F.);
#667=ORIENTED_EDGE('',*,*,#486,.F.);
#668=ORIENTED_EDGE('',*,*,#487,.F.);
#669=ORIENTED_EDGE('',*,*,#488,.F.);
#670=ORIENTED_EDGE('',*,*,#482,.T.);
#671=ORIENTED_EDGE('',*,*,#489,.T.);
#672=ORIENTED_EDGE('',*,*,#483,.F.);
#673=ORIENTED_EDGE('',*,*,#488,.T.);
#674=ORIENTED_EDGE('',*,*,#490,.F.);
#675=ORIENTED_EDGE('',*,*,#491,.T.);
#676=ORIENTED_EDGE('',*,*,#454,.T.);
#677=ORIENTED_EDGE('',*,*,#489,.F.);
#678=ORIENTED_EDGE('',*,*,#492,.F.);
#679=ORIENTED_EDGE('',*,*,#493,.F.);
#680=ORIENTED_EDGE('',*,*,#477,.T.);
#681=ORIENTED_EDGE('',*,*,#494,.T.);
#682=ORIENTED_EDGE('',*,*,#478,.F.);
#683=ORIENTED_EDGE('',*,*,#493,.T.);
#684=ORIENTED_EDGE('',*,*,#495,.T.);
#685=ORIENTED_EDGE('',*,*,#496,.F.);
#686=ORIENTED_EDGE('',*,*,#395,.T.);
#687=ORIENTED_EDGE('',*,*,#497,.T.);
#688=ORIENTED_EDGE('',*,*,#460,.T.);
#689=ORIENTED_EDGE('',*,*,#458,.T.);
#690=ORIENTED_EDGE('',*,*,#472,.F.);
#691=ORIENTED_EDGE('',*,*,#476,.T.);
#692=ORIENTED_EDGE('',*,*,#479,.F.);
#693=ORIENTED_EDGE('',*,*,#494,.F.);
#694=ORIENTED_EDGE('',*,*,#394,.F.);
#695=ORIENTED_EDGE('',*,*,#498,.T.);
#696=ORIENTED_EDGE('',*,*,#462,.T.);
#697=ORIENTED_EDGE('',*,*,#461,.T.);
#698=ORIENTED_EDGE('',*,*,#497,.F.);
#699=ORIENTED_EDGE('',*,*,#484,.F.);
#700=ORIENTED_EDGE('',*,*,#480,.T.);
#701=ORIENTED_EDGE('',*,*,#474,.T.);
#702=ORIENTED_EDGE('',*,*,#473,.T.);
#703=ORIENTED_EDGE('',*,*,#469,.T.);
#704=ORIENTED_EDGE('',*,*,#468,.F.);
#705=ORIENTED_EDGE('',*,*,#463,.T.);
#706=ORIENTED_EDGE('',*,*,#498,.F.);
#707=ORIENTED_EDGE('',*,*,#393,.T.);
#708=ORIENTED_EDGE('',*,*,#499,.F.);
#709=ORIENTED_EDGE('',*,*,#392,.T.);
#710=ORIENTED_EDGE('',*,*,#500,.T.);
#711=ORIENTED_EDGE('',*,*,#490,.T.);
#712=ORIENTED_EDGE('',*,*,#487,.T.);
#713=ORIENTED_EDGE('',*,*,#485,.T.);
#714=ORIENTED_EDGE('',*,*,#499,.T.);
#715=ORIENTED_EDGE('',*,*,#391,.T.);
#716=ORIENTED_EDGE('',*,*,#496,.T.);
#717=ORIENTED_EDGE('',*,*,#495,.F.);
#718=ORIENTED_EDGE('',*,*,#492,.T.);
#719=ORIENTED_EDGE('',*,*,#491,.F.);
#720=ORIENTED_EDGE('',*,*,#500,.F.);
#721=PLANE('',#815);
#722=PLANE('',#816);
#723=PLANE('',#817);
#724=PLANE('',#818);
#725=PLANE('',#819);
#726=PLANE('',#820);
#727=PLANE('',#821);
#728=PLANE('',#822);
#729=PLANE('',#823);
#730=PLANE('',#824);
#731=PLANE('',#825);
#732=PLANE('',#826);
#733=PLANE('',#827);
#734=PLANE('',#828);
#735=PLANE('',#829);
#736=PLANE('',#830);
#737=PLANE('',#831);
#738=PLANE('',#832);
#739=PLANE('',#833);
#740=PLANE('',#835);
#741=PLANE('',#836);
#742=PLANE('',#838);
#743=PLANE('',#841);
#744=PLANE('',#843);
#745=PLANE('',#845);
#746=PLANE('',#849);
#747=PLANE('',#850);
#748=PLANE('',#851);
#749=PLANE('',#852);
#750=PLANE('',#853);
#751=PLANE('',#854);
#752=PLANE('',#855);
#753=PLANE('',#856);
#754=PLANE('',#857);
#755=PLANE('',#858);
#756=PLANE('',#859);
#757=PLANE('',#860);
#758=PLANE('',#861);
#759=PLANE('',#862);
#760=ADVANCED_FACE('',(#28),#721,.T.);
#761=ADVANCED_FACE('',(#29),#722,.T.);
#762=ADVANCED_FACE('',(#30),#723,.T.);
#763=ADVANCED_FACE('',(#31),#724,.T.);
#764=ADVANCED_FACE('',(#32),#725,.T.);
#765=ADVANCED_FACE('',(#33),#726,.T.);
#766=ADVANCED_FACE('',(#34),#727,.T.);
#767=ADVANCED_FACE('',(#35),#728,.T.);
#768=ADVANCED_FACE('',(#36),#729,.F.);
#769=ADVANCED_FACE('',(#37),#730,.T.);
#770=ADVANCED_FACE('',(#38),#731,.F.);
#771=ADVANCED_FACE('',(#39),#732,.T.);
#772=ADVANCED_FACE('',(#40),#733,.F.);
#773=ADVANCED_FACE('',(#41),#734,.T.);
#774=ADVANCED_FACE('',(#42),#735,.F.);
#775=ADVANCED_FACE('',(#43),#736,.T.);
#776=ADVANCED_FACE('',(#44),#737,.F.);
#777=ADVANCED_FACE('',(#45),#738,.T.);
#778=ADVANCED_FACE('',(#46,#17),#739,.F.);
#779=ADVANCED_FACE('',(#47),#740,.T.);
#780=ADVANCED_FACE('',(#48,#18),#741,.T.);
#781=ADVANCED_FACE('',(#49),#742,.T.);
#782=ADVANCED_FACE('',(#50),#15,.F.);
#783=ADVANCED_FACE('',(#51),#743,.F.);
#784=ADVANCED_FACE('',(#52),#744,.F.);
#785=ADVANCED_FACE('',(#53),#745,.F.);
#786=ADVANCED_FACE('',(#54),#16,.F.);
#787=ADVANCED_FACE('',(#55),#746,.F.);
#788=ADVANCED_FACE('',(#56),#747,.F.);
#789=ADVANCED_FACE('',(#57),#748,.T.);
#790=ADVANCED_FACE('',(#58),#749,.F.);
#791=ADVANCED_FACE('',(#59),#750,.T.);
#792=ADVANCED_FACE('',(#60,#19),#751,.T.);
#793=ADVANCED_FACE('',(#61,#20),#752,.F.);
#794=ADVANCED_FACE('',(#62),#753,.T.);
#795=ADVANCED_FACE('',(#63),#754,.T.);
#796=ADVANCED_FACE('',(#64),#755,.F.);
#797=ADVANCED_FACE('',(#65),#756,.F.);
#798=ADVANCED_FACE('',(#66),#757,.F.);
#799=ADVANCED_FACE('',(#67),#758,.F.);
#800=ADVANCED_FACE('',(#68),#759,.T.);
#801=CLOSED_SHELL('',(#760,#761,#762,#763,#764,#765,#766,#767,#768,#769,
#770,#771,#772,#773,#774,#775,#776,#777,#778,#779,#780,#781,#782,#783,#784,
#785,#786,#787,#788,#789,#790,#791,#792,#793,#794,#795,#796,#797,#798,#799,
#800));
#802=DERIVED_UNIT_ELEMENT(#804,1.);
#803=DERIVED_UNIT_ELEMENT(#1292,-3.);
#804=(
MASS_UNIT()
NAMED_UNIT(*)
SI_UNIT(.KILO.,.GRAM.)
);
#805=DERIVED_UNIT((#802,#803));
#806=MEASURE_REPRESENTATION_ITEM('density measure',
POSITIVE_RATIO_MEASURE(7850.),#805);
#807=PROPERTY_DEFINITION_REPRESENTATION(#812,#809);
#808=PROPERTY_DEFINITION_REPRESENTATION(#813,#810);
#809=REPRESENTATION('material name',(#811),#1289);
#810=REPRESENTATION('density',(#806),#1289);
#811=DESCRIPTIVE_REPRESENTATION_ITEM('Steel','Steel');
#812=PROPERTY_DEFINITION('material property','material name',#1299);
#813=PROPERTY_DEFINITION('material property','density of part',#1299);
#814=AXIS2_PLACEMENT_3D('',#1064,#863,#864);
#815=AXIS2_PLACEMENT_3D('',#1065,#865,#866);
#816=AXIS2_PLACEMENT_3D('',#1076,#872,#873);
#817=AXIS2_PLACEMENT_3D('',#1097,#884,#885);
#818=AXIS2_PLACEMENT_3D('',#1103,#889,#890);
#819=AXIS2_PLACEMENT_3D('',#1107,#893,#894);
#820=AXIS2_PLACEMENT_3D('',#1111,#897,#898);
#821=AXIS2_PLACEMENT_3D('',#1115,#901,#902);
#822=AXIS2_PLACEMENT_3D('',#1119,#905,#906);
#823=AXIS2_PLACEMENT_3D('',#1125,#910,#911);
#824=AXIS2_PLACEMENT_3D('',#1129,#914,#915);
#825=AXIS2_PLACEMENT_3D('',#1133,#918,#919);
#826=AXIS2_PLACEMENT_3D('',#1137,#922,#923);
#827=AXIS2_PLACEMENT_3D('',#1141,#926,#927);
#828=AXIS2_PLACEMENT_3D('',#1145,#930,#931);
#829=AXIS2_PLACEMENT_3D('',#1154,#936,#937);
#830=AXIS2_PLACEMENT_3D('',#1159,#941,#942);
#831=AXIS2_PLACEMENT_3D('',#1163,#945,#946);
#832=AXIS2_PLACEMENT_3D('',#1167,#949,#950);
#833=AXIS2_PLACEMENT_3D('',#1173,#954,#955);
#834=AXIS2_PLACEMENT_3D('',#1180,#959,#960);
#835=AXIS2_PLACEMENT_3D('',#1181,#961,#962);
#836=AXIS2_PLACEMENT_3D('',#1185,#965,#966);
#837=AXIS2_PLACEMENT_3D('',#1190,#969,#970);
#838=AXIS2_PLACEMENT_3D('',#1191,#971,#972);
#839=AXIS2_PLACEMENT_3D('',#1193,#974,#975);
#840=AXIS2_PLACEMENT_3D('',#1195,#976,#977);
#841=AXIS2_PLACEMENT_3D('',#1197,#979,#980);
#842=AXIS2_PLACEMENT_3D('',#1200,#981,#982);
#843=AXIS2_PLACEMENT_3D('',#1204,#985,#986);
#844=AXIS2_PLACEMENT_3D('',#1206,#987,#988);
#845=AXIS2_PLACEMENT_3D('',#1210,#991,#992);
#846=AXIS2_PLACEMENT_3D('',#1215,#995,#996);
#847=AXIS2_PLACEMENT_3D('',#1216,#997,#998);
#848=AXIS2_PLACEMENT_3D('',#1220,#1000,#1001);
#849=AXIS2_PLACEMENT_3D('',#1223,#1004,#1005);
#850=AXIS2_PLACEMENT_3D('',#1227,#1008,#1009);
#851=AXIS2_PLACEMENT_3D('',#1233,#1013,#1014);
#852=AXIS2_PLACEMENT_3D('',#1239,#1018,#1019);
#853=AXIS2_PLACEMENT_3D('',#1253,#1027,#1028);
#854=AXIS2_PLACEMENT_3D('',#1259,#1032,#1033);
#855=AXIS2_PLACEMENT_3D('',#1263,#1036,#1037);
#856=AXIS2_PLACEMENT_3D('',#1269,#1041,#1042);
#857=AXIS2_PLACEMENT_3D('',#1273,#1045,#1046);
#858=AXIS2_PLACEMENT_3D('',#1277,#1049,#1050);
#859=AXIS2_PLACEMENT_3D('',#1280,#1053,#1054);
#860=AXIS2_PLACEMENT_3D('',#1282,#1056,#1057);
#861=AXIS2_PLACEMENT_3D('',#1284,#1059,#1060);
#862=AXIS2_PLACEMENT_3D('',#1286,#1062,#1063);
#863=DIRECTION('axis',(0.,0.,1.));
#864=DIRECTION('refdir',(1.,0.,0.));
#865=DIRECTION('center_axis',(1.41679546252489E-15,2.99221971141739E-8,
1.));
#866=DIRECTION('ref_axis',(-0.999999999999999,4.73493125227011E-8,0.));
#867=DIRECTION('',(-0.506878195980724,0.862017688008388,-2.57934624583487E-8));
#868=DIRECTION('',(0.999999999999999,-4.73493124669667E-8,-1.66769770756972E-24));
#869=DIRECTION('',(4.73493125227011E-8,0.999999999999998,-2.99221971141739E-8));
#870=DIRECTION('',(0.999999999999999,-4.73493125227011E-8,-1.97215226305253E-31));
#871=DIRECTION('',(-4.73493125227011E-8,-0.999999999999998,2.99221971141739E-8));
#872=DIRECTION('center_axis',(-1.40990140918546E-15,-2.96829306734282E-8,
-1.));
#873=DIRECTION('ref_axis',(-1.,-5.19822685693725E-23,1.40990140918547E-15));
#874=DIRECTION('',(-1.,-3.77502957645229E-11,1.41102194859754E-15));
#875=DIRECTION('',(-5.47887739197079E-16,-0.999999999999999,2.96829306734282E-8));
#876=DIRECTION('',(-0.999999999999999,4.89401423048392E-8,-4.27854419967898E-17));
#877=DIRECTION('',(-4.73493124669666E-8,-0.999999999999998,2.96829306734282E-8));
#878=DIRECTION('',(0.999999999999999,-4.57584832275959E-8,-5.16555238195057E-17));
#879=DIRECTION('',(-5.47887739197079E-16,-1.,2.96829306734282E-8));
#880=DIRECTION('',(1.,-1.31004584764068E-32,-1.40990140918546E-15));
#881=DIRECTION('',(0.707106747705526,-0.707106814667567,2.09890015615352E-8));
#882=DIRECTION('',(-4.73493121961805E-8,-0.999999999999998,2.96829306734282E-8));
#883=DIRECTION('',(-0.707106814667567,-0.707106747705527,2.09890015678073E-8));
#884=DIRECTION('center_axis',(-9.96950817647075E-16,-0.707106802175558,
-0.707106760197536));
#885=DIRECTION('ref_axis',(-1.,0.,1.40990140918546E-15));
#886=DIRECTION('',(-4.19813296791752E-9,-0.707106760197536,0.707106802175558));
#887=DIRECTION('',(-1.,1.31004584764068E-32,1.40990140918546E-15));
#888=DIRECTION('',(-0.281084632656277,-0.678598335522122,0.678598355664889));
#889=DIRECTION('center_axis',(-0.500000023674656,-0.499999997314343,-0.707106766345084));
#890=DIRECTION('ref_axis',(-0.816496562328393,0.,0.577350295493054));
#891=DIRECTION('',(-0.707106747705526,0.707106814667567,-2.09890015615352E-8));
#892=DIRECTION('',(0.678598357855042,0.281084585440864,-0.678598352889231));
#893=DIRECTION('center_axis',(-0.707106781186539,1.24920181737663E-8,-0.707106781186556));
#894=DIRECTION('ref_axis',(-0.707106781186556,0.,0.707106781186539));
#895=DIRECTION('',(4.73493121961805E-8,0.999999999999998,-2.96829306734282E-8));
#896=DIRECTION('',(0.678598331236678,-0.281084689988824,-0.678598336202413));
#897=DIRECTION('center_axis',(-0.499999976325351,0.50000000268566,-0.707106796028004));
#898=DIRECTION('ref_axis',(-0.816496599527052,0.,0.577350242886206));
#899=DIRECTION('',(-0.281084620391654,0.678598368271091,0.678598327996093));
#900=DIRECTION('',(0.707106814667567,0.707106747705527,-2.09890015678073E-8));
#901=DIRECTION('center_axis',(-2.66944870777681E-11,0.707106760197528,-0.707106802175567));
#902=DIRECTION('ref_axis',(-1.,0.,3.77517045453908E-11));
#903=DIRECTION('',(4.19813219308709E-9,-0.707106802175567,-0.707106760197528));
#904=DIRECTION('',(1.,3.77502957645229E-11,-1.41102194859754E-15));
#905=DIRECTION('center_axis',(1.,-3.71658516595357E-16,5.93705603198677E-9));
#906=DIRECTION('ref_axis',(-3.71658513444512E-16,-1.,-5.75582233925993E-16));
#907=DIRECTION('',(-5.49308277462361E-16,-1.,2.99221971141739E-8));
#908=DIRECTION('',(5.73475565722901E-9,-0.258819045102522,-0.965925826289068));
#909=DIRECTION('',(5.93705603198676E-9,-2.99221962760644E-8,-0.999999999999999));
#910=DIRECTION('center_axis',(-4.727254740558E-8,-0.965925826289067,0.258819045102522));
#911=DIRECTION('ref_axis',(-6.5201483550698E-9,-0.258819045102522,-0.965925826289068));
#912=DIRECTION('',(-0.999999999999999,4.89401423035488E-8,-4.76011222909585E-17));
#913=DIRECTION('',(1.22549038432452E-8,0.258819045102521,0.965925826289068));
#914=DIRECTION('center_axis',(0.999999999999999,-4.73493124669667E-8,-4.43504979400147E-18));
#915=DIRECTION('ref_axis',(-4.73493124669666E-8,-0.999999999999998,2.96829279050301E-8));
#916=DIRECTION('',(4.73493124669666E-8,0.999999999999998,-2.99221971141739E-8));
#917=DIRECTION('',(-4.43500905357137E-18,8.60422844287436E-16,-1.));
#918=DIRECTION('center_axis',(4.57584832275959E-8,0.999999999999999,8.60422844084496E-16));
#919=DIRECTION('ref_axis',(-6.14649262271235E-9,-4.44089209850062E-16,1.));
#920=DIRECTION('',(0.999999999999999,-4.57584832275959E-8,-4.76011077298051E-17));
#921=DIRECTION('',(5.93705603198677E-9,5.88752163016976E-16,-1.));
#922=DIRECTION('center_axis',(1.,-3.71658516595357E-16,5.93705603198677E-9));
#923=DIRECTION('ref_axis',(-3.71658513444512E-16,-1.,-5.75582233925993E-16));
#924=DIRECTION('',(-5.49308277462361E-16,-1.,2.99221971141739E-8));
#925=DIRECTION('',(5.93705603198677E-9,-2.20655743768908E-24,-1.));
#926=DIRECTION('center_axis',(1.31004553653783E-32,1.,-2.20655743768908E-24));
#927=DIRECTION('ref_axis',(5.93705603198677E-9,-2.20655743768908E-24,-1.));
#928=DIRECTION('',(-1.,0.,-5.93705613169915E-9));
#929=DIRECTION('',(-2.96829266722488E-8,-2.20655743768908E-24,-1.));
#930=DIRECTION('center_axis',(-4.73493124669666E-8,-0.999999999999999,2.99221962762886E-8));
#931=DIRECTION('ref_axis',(-0.999999999999999,4.73493124669667E-8,-3.70066990793027E-16));
#932=DIRECTION('',(2.39266781778169E-10,-2.99221962876177E-8,-1.));
#933=DIRECTION('',(-0.999999999999999,4.73493122893169E-8,-5.93705754849449E-9));
#934=DIRECTION('',(-1.33226763120455E-15,-2.99221962762886E-8,-1.));
#935=DIRECTION('',(-0.999999999999999,4.73493124669667E-8,1.65436224952553E-24));
#936=DIRECTION('center_axis',(0.707106814667568,0.707106747705526,-2.09889997292248E-8));
#937=DIRECTION('ref_axis',(0.707106747705526,-0.707106814667567,2.09889996071182E-8));
#938=DIRECTION('',(-0.707106747705526,0.707106814667567,-2.535632025874E-8));
#939=DIRECTION('',(0.707106747705526,-0.707106814667567,2.1158188487433E-8));
#940=DIRECTION('',(1.320938450574E-15,2.96829281622428E-8,1.));
#941=DIRECTION('center_axis',(-0.999999999999999,4.73493121961806E-8,-8.45277818768319E-17));
#942=DIRECTION('ref_axis',(4.73493121961805E-8,0.999999999999998,-2.96829283467732E-8));
#943=DIRECTION('',(4.73493121961805E-8,0.999999999999998,-2.96829283467732E-8));
#944=DIRECTION('',(-1.32093844192041E-15,-2.9682927979482E-8,-1.));
#945=DIRECTION('center_axis',(0.707106747705527,-0.707106814667566,2.09889997195338E-8));
#946=DIRECTION('ref_axis',(-0.707106814667567,-0.707106747705527,2.09889996071182E-8));
#947=DIRECTION('',(2.39269640412406E-10,2.99221962762976E-8,1.));
#948=DIRECTION('',(-0.707106814667567,-0.707106747705527,2.11581884874329E-8));
#949=DIRECTION('center_axis',(-3.77502957645651E-11,1.,-2.99221962762886E-8));
#950=DIRECTION('ref_axis',(1.,3.77502957645339E-11,-1.04474829747074E-15));
#951=DIRECTION('',(1.,3.77502957645227E-11,-1.41792503430254E-15));
#952=DIRECTION('',(1.33226763120455E-15,2.99221962762886E-8,1.));
#953=DIRECTION('',(1.,3.77502957645227E-11,-1.41792503430254E-15));
#954=DIRECTION('center_axis',(-5.93705613169915E-9,2.99221947344068E-8,
1.));
#955=DIRECTION('ref_axis',(1.14961315118117E-15,1.,-2.99221947344068E-8));
#956=DIRECTION('',(-0.707106775628619,0.707106786744475,-2.11581876519127E-8));
#957=DIRECTION('',(-4.73493135771893E-8,-0.999999999999998,2.99221971141739E-8));
#958=DIRECTION('',(0.707106814667567,0.707106747705526,-2.11581884874329E-8));
#959=DIRECTION('center_axis',(5.93705613169915E-9,-2.99221947344068E-8,
-1.));
#960=DIRECTION('ref_axis',(-4.73493124669667E-8,-0.999999999999999,2.99221944532913E-8));
#961=DIRECTION('center_axis',(0.707106747705526,-0.707106814667567,2.11581879547287E-8));
#962=DIRECTION('ref_axis',(2.9922197777612E-8,-6.61744340919368E-24,-1.));
#963=DIRECTION('',(1.33226763120455E-15,2.99221962762886E-8,1.));
#964=DIRECTION('',(-0.707106814667567,-0.707106747705526,2.11581884874329E-8));
#965=DIRECTION('center_axis',(1.41679546251155E-15,2.99221971141739E-8,
1.));
#966=DIRECTION('ref_axis',(-0.999999999999999,4.73493124669667E-8,1.6543620523103E-24));
#967=DIRECTION('',(4.73493135771893E-8,0.999999999999998,-2.99221971141739E-8));
#968=DIRECTION('',(0.707106775628619,-0.707106786744475,2.11581876519127E-8));
#969=DIRECTION('center_axis',(-1.41679546251155E-15,-2.99221971141739E-8,
-1.));
#970=DIRECTION('ref_axis',(-4.73493124669667E-8,-0.999999999999998,2.99221971141739E-8));
#971=DIRECTION('center_axis',(0.707106786744476,0.707106775628619,-2.11581886707086E-8));
#972=DIRECTION('ref_axis',(-2.99221971381734E-8,-6.61744639165473E-24,-1.));
#973=DIRECTION('',(-1.33226763120455E-15,-2.99221962762886E-8,-1.));
#974=DIRECTION('center_axis',(1.40810719316981E-15,2.96829277592894E-8,
1.));
#975=DIRECTION('ref_axis',(-0.999999999999999,4.73493124669667E-8,2.64097176080852E-18));
#976=DIRECTION('center_axis',(1.40546622996408E-15,2.96829279050301E-8,
1.));
#977=DIRECTION('ref_axis',(-0.999999999999999,4.73493124669667E-8,2.64097176080852E-18));
#978=DIRECTION('',(1.40810719316981E-15,2.96829277592894E-8,1.));
#979=DIRECTION('center_axis',(0.,-2.96829227863779E-8,-1.));
#980=DIRECTION('ref_axis',(-1.,0.,0.));
#981=DIRECTION('center_axis',(0.,-2.96829227863779E-8,-1.));
#982=DIRECTION('ref_axis',(-0.999999999999999,4.73493124669668E-8,2.64097176080852E-18));
#983=DIRECTION('',(0.999999999999999,-4.73493125227011E-8,1.40546598759941E-15));
#984=DIRECTION('',(4.73493125227011E-8,0.999999999999998,-2.96829227863779E-8));
#985=DIRECTION('center_axis',(0.,-2.96829227863779E-8,-1.));
#986=DIRECTION('ref_axis',(-1.,0.,0.));
#987=DIRECTION('center_axis',(0.,-2.96829227863779E-8,-1.));
#988=DIRECTION('ref_axis',(-0.999999999999999,4.73493124669668E-8,2.64097176080852E-18));
#989=DIRECTION('',(4.73493125227011E-8,0.999999999999998,-2.96829227863779E-8));
#990=DIRECTION('',(-0.999999999999999,4.73493125227011E-8,-1.40546598759941E-15));
#991=DIRECTION('center_axis',(0.,-2.96829227863779E-8,-1.));
#992=DIRECTION('ref_axis',(-1.,0.,0.));
#993=DIRECTION('',(-0.999999999999999,4.73493125227011E-8,-1.40546598759941E-15));
#994=DIRECTION('',(-4.73493125227011E-8,-0.999999999999998,2.96829227863779E-8));
#995=DIRECTION('center_axis',(0.,-2.96829227863779E-8,-1.));
#996=DIRECTION('ref_axis',(-0.999999999999999,4.73493124669668E-8,2.64097176080852E-18));
#997=DIRECTION('center_axis',(1.40810719316981E-15,2.96829277592894E-8,
1.));
#998=DIRECTION('ref_axis',(-0.999999999999999,4.73493124669668E-8,2.64097176080852E-18));
#999=DIRECTION('',(1.40810719316981E-15,2.96829277592894E-8,1.));
#1000=DIRECTION('center_axis',(0.,-2.96829227863779E-8,-1.));
#1001=DIRECTION('ref_axis',(-0.999999999999999,4.73493124669668E-8,2.64097176080852E-18));
#1002=DIRECTION('',(-1.40810719316981E-15,-2.96829277592894E-8,-0.999999999999999));
#1003=DIRECTION('',(-1.40810719316981E-15,-2.96829277592894E-8,-0.999999999999999));
#1004=DIRECTION('center_axis',(0.,-2.96829227863779E-8,-1.));
#1005=DIRECTION('ref_axis',(-1.,0.,0.));
#1006=DIRECTION('',(-4.73493125227011E-8,-0.999999999999998,2.96829227863779E-8));
#1007=DIRECTION('',(0.999999999999999,-4.73493125227011E-8,1.40546598759941E-15));
#1008=DIRECTION('center_axis',(4.73493125227011E-8,0.999999999999999,-2.96829227863779E-8));
#1009=DIRECTION('ref_axis',(0.999999999999999,-4.73493125227011E-8,0.));
#1010=DIRECTION('',(-0.999999999999999,4.73493125227011E-8,1.97215226305253E-31));
#1011=DIRECTION('',(1.13295193614388E-17,-2.96829227863779E-8,-0.999999999999999));
#1012=DIRECTION('',(-1.13295193614388E-17,2.96829227863779E-8,0.999999999999999));
#1013=DIRECTION('center_axis',(1.41679546252489E-15,2.99221971141739E-8,
1.));
#1014=DIRECTION('ref_axis',(-0.999999999999999,4.73493125227011E-8,0.));
#1015=DIRECTION('',(4.73493125227011E-8,0.999999999999998,-2.99221971141739E-8));
#1016=DIRECTION('',(-0.999999999999999,4.73493124669667E-8,1.66769770756972E-24));
#1017=DIRECTION('',(-4.73493125227011E-8,-0.999999999999998,2.99221971141739E-8));
#1018=DIRECTION('center_axis',(4.73493124669667E-8,0.999999999999999,-2.99221980526454E-8));
#1019=DIRECTION('ref_axis',(-0.999999999999999,4.73493124669667E-8,1.6543620523103E-24));
#1020=DIRECTION('',(-1.6653740584545E-15,-2.99221980526454E-8,-1.));
#1021=DIRECTION('',(-0.999999999999999,4.73493124669667E-8,1.65436181675173E-24));
#1022=DIRECTION('',(-1.59744333307255E-29,-2.99221980526455E-8,-1.));
#1023=DIRECTION('',(1.59744333307255E-29,2.99221980526455E-8,1.));
#1024=DIRECTION('',(-0.999999999999999,4.73493124669667E-8,1.65436181675173E-24));
#1025=DIRECTION('',(-1.33226771531383E-15,-2.99221980526454E-8,-1.));
#1026=DIRECTION('',(-0.999999999999999,4.73493124669667E-8,1.65436161953651E-24));
#1027=DIRECTION('center_axis',(1.40546622996408E-15,2.96829279050301E-8,
1.));
#1028=DIRECTION('ref_axis',(-0.999999999999999,4.73493124669667E-8,1.65436165787985E-24));
#1029=DIRECTION('',(4.73493125227011E-8,0.999999999999998,-2.96829279050301E-8));
#1030=DIRECTION('',(0.999999999999999,-4.73493124669667E-8,-1.65436181675173E-24));
#1031=DIRECTION('',(4.73493135771893E-8,0.999999999999998,-2.96829279050301E-8));
#1032=DIRECTION('center_axis',(0.999999999999999,-4.73493135771894E-8,8.45278231996484E-17));
#1033=DIRECTION('ref_axis',(-4.73493135771893E-8,-0.999999999999998,2.99221971141739E-8));
#1034=DIRECTION('',(1.33226771531383E-15,2.99221980526454E-8,1.));
#1035=DIRECTION('',(4.73493135771893E-8,0.999999999999998,-2.96829279050301E-8));
#1036=DIRECTION('center_axis',(1.40546622996408E-15,2.96829279050301E-8,
1.));
#1037=DIRECTION('ref_axis',(-0.999999999999999,4.73493124669667E-8,1.65436224952553E-24));
#1038=DIRECTION('',(0.49309011833643,0.869978238347928,-2.58235020208482E-8));
#1039=DIRECTION('',(0.999999999999999,-4.73493124669667E-8,-1.65436161953651E-24));
#1040=DIRECTION('',(-0.506878195980724,0.862017688008388,-2.55872081736135E-8));
#1041=DIRECTION('center_axis',(0.869978238347929,-0.493090118336429,1.47543387298258E-8));
#1042=DIRECTION('ref_axis',(0.49309011833643,0.869978238347928,-2.60316610314963E-8));
#1043=DIRECTION('',(1.66533453926695E-15,2.99221980525757E-8,0.999999999999999));
#1044=DIRECTION('',(0.49309011833643,0.869978238347928,-2.58235020208482E-8));
#1045=DIRECTION('center_axis',(1.40546622996408E-15,2.96829279050301E-8,
1.));
#1046=DIRECTION('ref_axis',(-0.999999999999999,4.73493124669667E-8,1.65436165787985E-24));
#1047=DIRECTION('',(-4.73493125227011E-8,-0.999999999999998,2.96829279050301E-8));
#1048=DIRECTION('',(-0.506878195980724,0.862017688008388,-2.55872081736135E-8));
#1049=DIRECTION('center_axis',(-0.999999999999999,4.73493125227011E-8,-1.41679550696085E-15));
#1050=DIRECTION('ref_axis',(4.73493125227011E-8,0.999999999999998,-2.99221971141739E-8));
#1051=DIRECTION('',(1.34096377721839E-22,2.99222008847111E-8,0.999999999999999));
#1052=DIRECTION('',(1.13295193614388E-17,-2.96829227863779E-8,-0.999999999999999));
#1053=DIRECTION('center_axis',(-4.73493125227011E-8,-0.999999999999999,
2.96829227863779E-8));
#1054=DIRECTION('ref_axis',(-0.999999999999999,4.73493125227011E-8,0.));
#1055=DIRECTION('',(-1.13295193614388E-17,2.96829227863779E-8,0.999999999999999));
#1056=DIRECTION('center_axis',(0.999999999999999,-4.73493125227011E-8,1.41679550696085E-15));
#1057=DIRECTION('ref_axis',(-4.73493125227011E-8,-0.999999999999998,2.99221971141739E-8));
#1058=DIRECTION('',(-1.59744333307255E-29,-2.99221980526455E-8,-1.));
#1059=DIRECTION('center_axis',(-4.73493124669667E-8,-0.999999999999999,
2.99221980526454E-8));
#1060=DIRECTION('ref_axis',(0.999999999999999,-4.73493124669667E-8,-1.6543620523103E-24));
#1061=DIRECTION('',(1.66529353604576E-15,2.99221980526454E-8,1.));
#1062=DIRECTION('center_axis',(0.862017688008388,0.506878195980724,-1.51669112042153E-8));
#1063=DIRECTION('ref_axis',(-0.506878195980724,0.862017688008388,-2.57934624583487E-8));
#1064=CARTESIAN_POINT('',(0.,0.,0.));
#1065=CARTESIAN_POINT('Origin',(14.8905518038807,129.024969792454,42.6181725646091));
#1066=CARTESIAN_POINT('',(13.1195389587421,126.17496950539,42.6181726498874));
#1067=CARTESIAN_POINT('',(13.0999988088093,126.208200279572,42.6181726488931));
#1068=CARTESIAN_POINT('',(12.717162414405,126.859267431813,42.6181726294117));
#1069=CARTESIAN_POINT('',(16.3999988072359,126.174969350063,42.6181726498874));
#1070=CARTESIAN_POINT('',(12.5119848612201,126.174969534157,42.6181726498874));
#1071=CARTESIAN_POINT('',(16.3999988640551,127.374969720875,42.6181726139808));
#1072=CARTESIAN_POINT('',(16.3999990096542,130.449969535522,42.61817252197));
#1073=CARTESIAN_POINT('',(13.0999988640551,127.374969877127,42.6181726139808));
#1074=CARTESIAN_POINT('',(15.5702752949047,127.374969760161,42.6181726139808));
#1075=CARTESIAN_POINT('',(13.0999988747087,127.599969691775,42.6181726072483));
#1076=CARTESIAN_POINT('Origin',(2.74976064105882,129.124968668791,35.9183833566621));
#1077=CARTESIAN_POINT('',(-6.450477782047,133.324969283781,35.9183832319938));
#1078=CARTESIAN_POINT('',(-8.43159570104294,133.324969283706,35.9183832319938));
#1079=CARTESIAN_POINT('',(-3.75035841488497,133.324969283883,35.9183832319938));
#1080=CARTESIAN_POINT('',(-6.450477782047,131.073570953992,35.9183832988219));
#1081=CARTESIAN_POINT('',(-6.450477782047,131.174969128625,35.9183832958121));
#1082=CARTESIAN_POINT('',(5.75280168590201,131.073570404111,35.9183832988219));
#1083=CARTESIAN_POINT('',(-3.75035838401613,131.073570869197,35.9183832988219));
#1084=CARTESIAN_POINT('',(5.75280148707421,126.874400531519,35.9183834234655));
#1085=CARTESIAN_POINT('',(5.75280169070314,131.174968526599,35.9183832958121));
#1086=CARTESIAN_POINT('',(-6.45047778204701,126.874401044164,35.9183834234655));
#1087=CARTESIAN_POINT('',(-3.75035857295221,126.874400966369,35.9183834234655));
#1088=CARTESIAN_POINT('',(-6.45047778204701,125.881388163285,35.9183834529411));
#1089=CARTESIAN_POINT('',(-6.450477782047,131.174969128625,35.9183832958121));
#1090=CARTESIAN_POINT('',(-9.58801504450049,125.881388163285,35.9183834529411));
#1091=CARTESIAN_POINT('',(-1.35035857776636,125.881388163285,35.9183834529411));
#1092=CARTESIAN_POINT('',(-10.9504777538683,127.243851001676,35.9183834124992));
#1093=CARTESIAN_POINT('',(-8.0249872167581,124.318360187526,35.9183834993363));
#1094=CARTESIAN_POINT('',(-10.9504775851988,130.806087638085,35.9183833067616));
#1095=CARTESIAN_POINT('',(-10.9504777618647,127.074969318684,35.9183834175121));
#1096=CARTESIAN_POINT('',(-6.65696718167699,135.099597635017,35.9183831793176));
#1097=CARTESIAN_POINT('Origin',(-1.35035857776636,125.781388163285,36.0183834588776));
#1098=CARTESIAN_POINT('',(-6.45047778323442,125.681388163285,36.1183834648142));
#1099=CARTESIAN_POINT('',(-6.45047777559998,126.967283722163,34.8324878295976));
#1100=CARTESIAN_POINT('',(-9.67085775658584,125.681388163285,36.1183834588776));
#1101=CARTESIAN_POINT('',(-1.35035857776636,125.681388163285,36.1183834648142));
#1102=CARTESIAN_POINT('',(-9.58801504450049,125.881388163285,35.9183834529411));
#1103=CARTESIAN_POINT('Origin',(-8.09569789822485,124.247649515724,36.0183835014352));
#1104=CARTESIAN_POINT('',(-11.1504777577908,127.161008304608,36.1183834149582));
#1105=CARTESIAN_POINT('',(-8.16640857969161,124.176938843921,36.1183835035341));
#1106=CARTESIAN_POINT('',(-11.1504777577908,127.161008304608,36.1183834149582));
#1107=CARTESIAN_POINT('Origin',(-11.0504777618647,127.074969326387,36.0183834175121));
#1108=CARTESIAN_POINT('',(-11.1504775812763,130.888930365966,36.1183833043025));
#1109=CARTESIAN_POINT('',(-11.1504777618647,127.07496933409,36.1183834175121));
#1110=CARTESIAN_POINT('',(-11.1504775812763,130.888930365966,36.1183833043025));
#1111=CARTESIAN_POINT('Origin',(-6.72767785644754,135.170308319452,36.0183831772187));
#1112=CARTESIAN_POINT('',(-8.51443840792551,133.524969289687,36.1183832260572));
#1113=CARTESIAN_POINT('',(-8.38395953401299,133.209965392094,35.8033793472076));
#1114=CARTESIAN_POINT('',(-6.79838853121809,135.241019003887,36.1183831751198));
#1115=CARTESIAN_POINT('Origin',(-3.75035841488875,133.424969286875,36.0183832290494));
#1116=CARTESIAN_POINT('',(-6.45047778323441,133.524969289765,36.118383226105));
#1117=CARTESIAN_POINT('',(-6.45047778635137,134.049969148769,36.6433830539417));
#1118=CARTESIAN_POINT('',(-3.75035841489252,133.524969289867,36.118383226105));
#1119=CARTESIAN_POINT('Origin',(-6.45047779867075,133.224969671572,38.7183823200365));
#1120=CARTESIAN_POINT('',(-6.45047779956007,133.524969372045,38.8681724240222));
#1121=CARTESIAN_POINT('',(-6.45047779956007,131.863964581248,38.8681724737231));
#1122=CARTESIAN_POINT('',(-6.45047779956007,128.103851305547,38.868172586234));
#1123=CARTESIAN_POINT('',(-6.4504777955068,131.681033921112,38.1854659558309));
#1124=CARTESIAN_POINT('',(-6.45047782880069,133.524969519415,43.7932773344078));
#1125=CARTESIAN_POINT('Origin',(-10.2504774863085,131.444380957737,37.3022642019859));
#1126=CARTESIAN_POINT('',(5.75280172332661,131.863964032958,38.8681724796602));
#1127=CARTESIAN_POINT('',(-6.25023949719922,131.863964620389,38.8681724796602));
#1128=CARTESIAN_POINT('',(5.75280171555152,131.699757105431,38.2553438831742));
#1129=CARTESIAN_POINT('Origin',(5.75280178776924,133.224968614157,38.8681724078905));
#1130=CARTESIAN_POINT('',(5.75280148707421,126.874400531519,38.8681726289589));
#1131=CARTESIAN_POINT('',(5.75280154528782,128.103850585135,38.868172592171));
#1132=CARTESIAN_POINT('',(5.75280148707421,126.874400531519,36.5478940032251));
#1133=CARTESIAN_POINT('Origin',(-10.2504776839807,126.874401263805,34.2276155985597));
#1134=CARTESIAN_POINT('',(-6.45047779956007,126.874401044164,38.8681726230218));
#1135=CARTESIAN_POINT('',(-6.25023973458853,126.87440108076,38.8681726289589));
#1136=CARTESIAN_POINT('',(-6.45047778533979,126.874401044164,36.4729989705785));
#1137=CARTESIAN_POINT('Origin',(-6.45047779867075,133.224969671572,38.7183823200365));
#1138=CARTESIAN_POINT('',(-6.45047779659154,125.681388163285,38.8681726587194));
#1139=CARTESIAN_POINT('',(-6.45047779956007,128.103851305547,38.868172586234));
#1140=CARTESIAN_POINT('',(-6.45047779911541,125.681388163285,38.7932774893779));
#1141=CARTESIAN_POINT('Origin',(-5.45047779659154,125.681388163285,38.8681726646564));
#1142=CARTESIAN_POINT('',(-9.67085767496404,125.681388163285,38.8681726395998));
#1143=CARTESIAN_POINT('',(-5.45047779659154,125.681388163285,38.8681726646564));
#1144=CARTESIAN_POINT('',(-9.67085752654941,125.681388163285,43.8681726984095));
#1145=CARTESIAN_POINT('Origin',(13.7499987291094,124.524968534718,48.8681726025327));
#1146=CARTESIAN_POINT('',(-8.51443891328437,124.524969588923,48.868172729054));
#1147=CARTESIAN_POINT('',(-8.51443891328439,124.524969292094,38.8681726810681));
#1148=CARTESIAN_POINT('',(-8.51443891328439,124.524969588923,48.8681726637605));
#1149=CARTESIAN_POINT('',(16.821998719632,124.524968090038,38.868172699259));
#1150=CARTESIAN_POINT('',(4.14976048262264,124.52496869006,38.8681727562562));
#1151=CARTESIAN_POINT('',(16.821998719632,124.52496838926,48.868172699259));
#1152=CARTESIAN_POINT('',(16.821998719632,124.52496838926,48.8681726508959));
#1153=CARTESIAN_POINT('',(5.74999841943003,124.524968913512,48.868172699259));
#1154=CARTESIAN_POINT('Origin',(-11.1504777577908,127.161008683059,48.8681726508087));
#1155=CARTESIAN_POINT('',(-9.19146807085722,125.201998513781,38.8681726567904));
#1156=CARTESIAN_POINT('',(-11.1504777577908,127.161008683059,48.8681726508087));
#1157=CARTESIAN_POINT('',(-7.88079015767765,123.891320773311,48.8681727182192));
#1158=CARTESIAN_POINT('',(-11.1504777577908,127.161008683059,48.8681725874882));
#1159=CARTESIAN_POINT('Origin',(-11.1504778589308,125.024969713738,48.8681725875716));
#1160=CARTESIAN_POINT('',(-11.1504775812763,130.888930744417,48.8681725401531));
#1161=CARTESIAN_POINT('',(-11.1504778589308,125.024969713738,48.8681725875716));
#1162=CARTESIAN_POINT('',(-11.1504775812763,130.888930744417,48.8681724768326));
#1163=CARTESIAN_POINT('Origin',(-8.51443840487489,133.524969671189,48.8681724619077));
#1164=CARTESIAN_POINT('',(-8.51443840487489,133.524969671189,48.8681724619077));
#1165=CARTESIAN_POINT('',(-8.51443840487488,133.524969671189,48.8681723983436));
#1166=CARTESIAN_POINT('',(-9.58388825539804,132.455519921941,48.8681724619596));
#1167=CARTESIAN_POINT('Origin',(-10.2504774706777,133.524969671123,48.8681723351949));
#1168=CARTESIAN_POINT('',(16.8219991457759,133.524969672145,48.8681724299592));
#1169=CARTESIAN_POINT('',(-6.25023971717446,133.524969671274,48.8681724299593));
#1170=CARTESIAN_POINT('',(16.8219991457759,133.524969372923,38.8681724299592));
#1171=CARTESIAN_POINT('',(16.8219991457759,133.524969672145,48.8681723825771));
#1172=CARTESIAN_POINT('',(-6.25023971717447,133.524969372052,38.8681724299593));
#1173=CARTESIAN_POINT('Origin',(-5.45047779956007,125.024969118707,38.8681726842979));
#1174=CARTESIAN_POINT('',(18.3219990842293,132.02496941089,38.8681724748425));
#1175=CARTESIAN_POINT('',(15.0645580375519,135.282410508775,38.8681723773727));
#1176=CARTESIAN_POINT('',(18.3219988001334,126.024968028492,38.8681726543758));
#1177=CARTESIAN_POINT('',(18.3219988474827,127.024968019014,38.8681726244536));
#1178=CARTESIAN_POINT('',(12.0434393287582,119.746409151688,38.868172842244));
#1179=CARTESIAN_POINT('',(16.3999989421814,129.024969609564,38.8681726745376));
#1180=CARTESIAN_POINT('Origin',(14.7499989421814,129.02496968769,38.8681726845405));
#1181=CARTESIAN_POINT('Origin',(17.5719987598827,125.274968358487,48.8681726284542));
#1182=CARTESIAN_POINT('',(18.3219988001334,126.024968327714,48.8681726543758));
#1183=CARTESIAN_POINT('',(18.3219988001334,126.024968327714,48.8681726060126));
#1184=CARTESIAN_POINT('',(12.0434393287582,119.74640945091,48.868172842244));
#1185=CARTESIAN_POINT('Origin',(-2.2500019632732,122.982733234261,48.8681727454061));
#1186=CARTESIAN_POINT('',(18.3219990842294,132.024969710112,48.8681724748425));
#1187=CARTESIAN_POINT('',(18.3219988474827,127.024968318236,48.8681726244536));
#1188=CARTESIAN_POINT('',(15.064558037552,135.282410807997,48.8681723773727));
#1189=CARTESIAN_POINT('',(16.3999989421814,129.024969906393,48.8681725650039));
#1190=CARTESIAN_POINT('Origin',(14.7499989421814,129.024969984519,48.8681725646091));
#1191=CARTESIAN_POINT('Origin',(17.5719991150026,132.774969691129,48.8681724050187));
#1192=CARTESIAN_POINT('',(18.3219990842294,132.024969710112,48.8681724274603));
#1193=CARTESIAN_POINT('Origin',(14.7499989421814,129.024969420544,29.8681735521581));
#1194=CARTESIAN_POINT('',(16.3999989421814,129.024969803987,45.4181725954808));
#1195=CARTESIAN_POINT('Origin',(14.7499989421814,129.024969882113,45.4181725954808));
#1196=CARTESIAN_POINT('',(16.3999989421814,129.024969342417,29.8681735521581));
#1197=CARTESIAN_POINT('Origin',(14.7499989102206,128.349969604565,42.3181725846451));
#1198=CARTESIAN_POINT('',(14.7499990203078,130.674969790096,42.3181725156323));
#1199=CARTESIAN_POINT('',(13.0999989421814,129.024969868222,42.3181725646091));
#1200=CARTESIAN_POINT('Origin',(14.7499989421814,129.024969790096,42.3181725646091));
#1201=CARTESIAN_POINT('',(13.0999990203078,130.674969868222,42.3181725156323));
#1202=CARTESIAN_POINT('',(13.9999990203078,130.674969825608,42.3181725156323));
#1203=CARTESIAN_POINT('',(13.0999988587283,127.262469589961,42.3181726169253));
#1204=CARTESIAN_POINT('Origin',(14.7499989102206,128.349969604565,42.3181725846451));
#1205=CARTESIAN_POINT('',(14.7499988640551,127.374969790096,42.318172613586));
#1206=CARTESIAN_POINT('Origin',(14.7499989421814,129.024969790096,42.3181725646091));
#1207=CARTESIAN_POINT('',(13.0999988640551,127.374969868222,42.3181726135859));
#1208=CARTESIAN_POINT('',(13.0999988587283,127.262469589961,42.3181726169253));
#1209=CARTESIAN_POINT('',(15.4999988640551,127.374969754584,42.318172613586));
#1210=CARTESIAN_POINT('Origin',(14.7499989102206,128.349969604565,42.3181725846451));
#1211=CARTESIAN_POINT('',(16.3999988640551,127.37496971197,42.318172613586));
#1212=CARTESIAN_POINT('',(15.4999988640551,127.374969754584,42.318172613586));
#1213=CARTESIAN_POINT('',(16.3999989421815,129.02496971197,42.3181725646091));
#1214=CARTESIAN_POINT('',(16.3999989936738,130.112469433708,42.318172532329));
#1215=CARTESIAN_POINT('Origin',(14.7499989421814,129.024969790096,42.3181725646091));
#1216=CARTESIAN_POINT('Origin',(14.7499989421814,129.024969420544,29.8681735521581));
#1217=CARTESIAN_POINT('',(16.3999989421815,129.024969703065,42.0181725646091));
#1218=CARTESIAN_POINT('',(16.3999989421814,129.024969342417,29.8681735521581));
#1219=CARTESIAN_POINT('',(14.7499990203078,130.674969781191,42.0181725156323));
#1220=CARTESIAN_POINT('Origin',(14.7499989421814,129.024969781191,42.0181725646091));
#1221=CARTESIAN_POINT('',(14.7499990203078,130.674969420544,29.8681735031813));
#1222=CARTESIAN_POINT('',(16.3999989421814,129.024969342417,29.8681735521581));
#1223=CARTESIAN_POINT('Origin',(14.7499989102206,128.34996959566,42.0181725846451));
#1224=CARTESIAN_POINT('',(16.3999990203078,130.674969703065,42.0181725156323));
#1225=CARTESIAN_POINT('',(16.3999989936738,130.112469424803,42.018172532329));
#1226=CARTESIAN_POINT('',(13.9999990203078,130.674969816703,42.0181725156323));
#1227=CARTESIAN_POINT('Origin',(13.2499990203078,130.674969838858,41.5681725156323));
#1228=CARTESIAN_POINT('',(13.0999990203078,130.674969877127,42.6181725152375));
#1229=CARTESIAN_POINT('',(16.3999990203078,130.674969720875,42.6181725152375));
#1230=CARTESIAN_POINT('',(14.0702754511575,130.674969831185,42.6181725152375));
#1231=CARTESIAN_POINT('',(13.0999990203078,130.674969850413,41.7181725314091));
#1232=CARTESIAN_POINT('',(16.3999990203078,130.67496969416,41.7181725307272));
#1233=CARTESIAN_POINT('Origin',(14.8905518038807,129.024969792454,42.6181725646091));
#1234=CARTESIAN_POINT('',(16.399999077127,131.874969350063,42.6181724793309));
#1235=CARTESIAN_POINT('',(16.3999990096542,130.449969535522,42.61817252197));
#1236=CARTESIAN_POINT('',(13.099999077127,131.874969506315,42.6181724793309));
#1237=CARTESIAN_POINT('',(14.1285658848421,131.874969457613,42.6181724793309));
#1238=CARTESIAN_POINT('',(13.0999988747087,127.599969691775,42.6181726072483));
#1239=CARTESIAN_POINT('Origin',(13.3665798308579,131.874969493693,42.6181725102026));
#1240=CARTESIAN_POINT('',(13.0892888278468,131.874969515799,42.9181725108845));
#1241=CARTESIAN_POINT('',(13.0892888278468,131.874969590605,45.4181725108845));
#1242=CARTESIAN_POINT('',(13.0892888278467,131.874969495602,42.2431725102026));
#1243=CARTESIAN_POINT('',(13.099999077127,131.874969515292,42.9181725108845));
#1244=CARTESIAN_POINT('',(8.05817030106369,131.874969754019,42.9181725108845));
#1245=CARTESIAN_POINT('',(13.099999077127,131.874969495095,42.2431725102026));
#1246=CARTESIAN_POINT('',(16.399999077127,131.874969359039,42.9181725108845));
#1247=CARTESIAN_POINT('',(16.399999077127,131.874969338842,42.2431725102026));
#1248=CARTESIAN_POINT('',(18.3219990771269,131.874969268034,42.9181725108845));
#1249=CARTESIAN_POINT('',(8.05817030106369,131.874969754019,42.9181725108845));
#1250=CARTESIAN_POINT('',(18.3219990771269,131.874969342839,45.4181725108845));
#1251=CARTESIAN_POINT('',(18.3219990771269,131.874969352564,45.7431724947667));
#1252=CARTESIAN_POINT('',(8.0581703010637,131.874969828825,45.4181725108845));
#1253=CARTESIAN_POINT('Origin',(2.74976064105883,129.124968878958,42.9181725925126));
#1254=CARTESIAN_POINT('',(16.3999988072359,126.174969359039,42.9181726800772));
#1255=CARTESIAN_POINT('',(16.3999990120216,130.499968795708,42.9181725516985));
#1256=CARTESIAN_POINT('',(18.3219988072358,126.174969268034,42.9181726800772));
#1257=CARTESIAN_POINT('',(6.44158927744166,126.174969830563,42.9181726800772));
#1258=CARTESIAN_POINT('',(18.3219989918981,130.07496870554,42.9181725643138));
#1259=CARTESIAN_POINT('Origin',(18.32199903688,131.024969446071,48.8681725047648));
#1260=CARTESIAN_POINT('',(18.3219988072359,126.174969342839,45.4181726800772));
#1261=CARTESIAN_POINT('',(18.3219988072359,126.174969352564,45.7431726653233));
#1262=CARTESIAN_POINT('',(18.3219989918981,130.074968779747,45.4181725643138));
#1263=CARTESIAN_POINT('Origin',(2.74976064105883,129.124968953165,45.4181725925126));
#1264=CARTESIAN_POINT('',(11.4591046643396,128.998771723295,45.4181725962585));
#1265=CARTESIAN_POINT('',(10.4345040491248,127.191028665612,45.4181726499176));
#1266=CARTESIAN_POINT('',(13.1195389587421,126.174969589172,45.4181726800772));
#1267=CARTESIAN_POINT('',(6.44158927744167,126.174969905369,45.4181726800772));
#1268=CARTESIAN_POINT('',(11.1356762640155,129.548807223134,45.4181725799318));
#1269=CARTESIAN_POINT('Origin',(11.4733389499674,129.023885725576,41.8681725955133));
#1270=CARTESIAN_POINT('',(11.4591046643396,128.99877164849,42.9181725962585));
#1271=CARTESIAN_POINT('',(11.4591046643396,128.998771617071,41.8681725962647));
#1272=CARTESIAN_POINT('',(10.4345040493814,127.191028591259,42.9181726499176));
#1273=CARTESIAN_POINT('Origin',(2.74976064105883,129.124968878958,42.9181725925126));
#1274=CARTESIAN_POINT('',(13.0999988088093,126.208200288549,42.9181726790908));
#1275=CARTESIAN_POINT('',(13.0999988770761,127.649968951961,42.9181726362949));
#1276=CARTESIAN_POINT('',(11.1356762637541,129.548807148773,42.9181725799318));
#1277=CARTESIAN_POINT('Origin',(13.0999988072359,126.174969483874,41.8681726807591));
#1278=CARTESIAN_POINT('',(13.0999988088093,126.20820025713,41.8681726797648));
#1279=CARTESIAN_POINT('',(13.0999988640551,127.374969850413,41.7181726293628));
#1280=CARTESIAN_POINT('Origin',(16.2499988640551,127.37496969681,41.568172613586));
#1281=CARTESIAN_POINT('',(16.3999988640551,127.37496969416,41.7181726286808));
#1282=CARTESIAN_POINT('Origin',(16.399999077127,131.874969327621,41.8681725102026));
#1283=CARTESIAN_POINT('',(16.3999988072359,126.174969338842,42.2431726807591));
#1284=CARTESIAN_POINT('Origin',(10.1334180535049,126.174969646781,42.6181726807591));
#1285=CARTESIAN_POINT('',(13.1195389587421,126.174969494169,42.2431726807591));
#1286=CARTESIAN_POINT('Origin',(13.1050408411183,126.199625571795,41.8681726800213));
#1287=UNCERTAINTY_MEASURE_WITH_UNIT(LENGTH_MEASURE(0.01),#1291,
'DISTANCE_ACCURACY_VALUE',
'Maximum model space distance between geometric entities at asserted c
onnectivities');
#1288=UNCERTAINTY_MEASURE_WITH_UNIT(LENGTH_MEASURE(0.01),#1291,
'DISTANCE_ACCURACY_VALUE',
'Maximum model space distance between geometric entities at asserted c
onnectivities');
#1289=(
GEOMETRIC_REPRESENTATION_CONTEXT(3)
GLOBAL_UNCERTAINTY_ASSIGNED_CONTEXT((#1287))
GLOBAL_UNIT_ASSIGNED_CONTEXT((#1291,#1293,#1294))
REPRESENTATION_CONTEXT('','3D')
);
#1290=(
GEOMETRIC_REPRESENTATION_CONTEXT(3)
GLOBAL_UNCERTAINTY_ASSIGNED_CONTEXT((#1288))
GLOBAL_UNIT_ASSIGNED_CONTEXT((#1291,#1293,#1294))
REPRESENTATION_CONTEXT('','3D')
);
#1291=(
LENGTH_UNIT()
NAMED_UNIT(*)
SI_UNIT(.MILLI.,.METRE.)
);
#1292=(
LENGTH_UNIT()
NAMED_UNIT(*)
SI_UNIT($,.METRE.)
);
#1293=(
NAMED_UNIT(*)
PLANE_ANGLE_UNIT()
SI_UNIT($,.RADIAN.)
);
#1294=(
NAMED_UNIT(*)
SI_UNIT($,.STERADIAN.)
SOLID_ANGLE_UNIT()
);
#1295=SHAPE_DEFINITION_REPRESENTATION(#1296,#1297);
#1296=PRODUCT_DEFINITION_SHAPE('',$,#1299);
#1297=SHAPE_REPRESENTATION('',(#814),#1289);
#1298=PRODUCT_DEFINITION_CONTEXT('part definition',#1303,'design');
#1299=PRODUCT_DEFINITION('54. Folding Stock Lock',
'54. Folding Stock Lock',#1300,#1298);
#1300=PRODUCT_DEFINITION_FORMATION('',$,#1305);
#1301=PRODUCT_RELATED_PRODUCT_CATEGORY('54. Folding Stock Lock',
'54. Folding Stock Lock',(#1305));
#1302=APPLICATION_PROTOCOL_DEFINITION('international standard',
'automotive_design',2009,#1303);
#1303=APPLICATION_CONTEXT(
'Core Data for Automotive Mechanical Design Process');
#1304=PRODUCT_CONTEXT('part definition',#1303,'mechanical');
#1305=PRODUCT('54. Folding Stock Lock','54. Folding Stock Lock',$,(#1304));
#1306=PRESENTATION_STYLE_ASSIGNMENT((#1308));
#1307=PRESENTATION_STYLE_ASSIGNMENT((#1309));
#1308=SURFACE_STYLE_USAGE(.BOTH.,#1310);
#1309=SURFACE_STYLE_USAGE(.BOTH.,#1311);
#1310=SURFACE_SIDE_STYLE('',(#1312));
#1311=SURFACE_SIDE_STYLE('',(#1313));
#1312=SURFACE_STYLE_FILL_AREA(#1314);
#1313=SURFACE_STYLE_FILL_AREA(#1315);
#1314=FILL_AREA_STYLE('Steel - Satin',(#1316));
#1315=FILL_AREA_STYLE('Plastic - Matte (Black) (1)',(#1317));
#1316=FILL_AREA_STYLE_COLOUR('Steel - Satin',#1318);
#1317=FILL_AREA_STYLE_COLOUR('Plastic - Matte (Black) (1)',#1319);
#1318=COLOUR_RGB('Steel - Satin',0.627450980392157,0.627450980392157,0.627450980392157);
#1319=COLOUR_RGB('Plastic - Matte (Black) (1)',0.0980392156862745,0.0980392156862745,
0.0980392156862745);
ENDSEC;
END-ISO-10303-21;
