ISO-10303-21;
HEADER;
/* Generated by software containing ST-Developer
 * from STEP Tools, Inc. (www.steptools.com) 
 */

FILE_DESCRIPTION(
/* description */ (''),
/* implementation_level */ '2;1');

FILE_NAME(
/* name */ '56. Battery Stock End.step',
/* time_stamp */ '2025-10-08T23:30:31+01:00',
/* author */ (''),
/* organization */ (''),
/* preprocessor_version */ 'ST-DEVELOPER v20.1',
/* originating_system */ 'Autodesk Translation Framework v14.10.0.0',
/* authorisation */ '');

FILE_SCHEMA (('AUTOMOTIVE_DESIGN { 1 0 10303 214 3 1 1 }'));
ENDSEC;

DATA;
#10=MECHANICAL_DESIGN_GEOMETRIC_PRESENTATION_REPRESENTATION('',(#13),#1713);
#11=SHAPE_REPRESENTATION_RELATIONSHIP('SRR','None',#1720,#12);
#12=ADVANCED_BREP_SHAPE_REPRESENTATION('',(#14),#1712);
#13=STYLED_ITEM('',(#1730),#14);
#14=MANIFOLD_SOLID_BREP('57. Battery Stock End',#1003);
#15=FACE_BOUND('',#152,.T.);
#16=FACE_BOUND('',#153,.T.);
#17=FACE_BOUND('',#170,.T.);
#18=FACE_BOUND('',#178,.T.);
#19=FACE_BOUND('',#190,.T.);
#20=FACE_BOUND('',#196,.T.);
#21=FACE_BOUND('',#199,.T.);
#22=FACE_BOUND('',#204,.T.);
#23=ELLIPSE('',#1032,7.07106765063076,5.);
#24=ELLIPSE('',#1035,1.50572975631502,1.5);
#25=ELLIPSE('',#1036,1.50572975631502,1.5);
#26=ELLIPSE('',#1038,4.24264078386012,3.);
#27=ELLIPSE('',#1039,4.24264078386012,3.);
#28=ELLIPSE('',#1040,7.07106765063076,5.);
#29=ELLIPSE('',#1042,4.24264068711929,3.);
#30=ELLIPSE('',#1066,4.24264058441493,3.);
#31=ELLIPSE('',#1076,19.7453792062851,17.1);
#32=B_SPLINE_CURVE_WITH_KNOTS('',3,(#1455,#1456,#1457,#1458,#1459,#1460),
 .UNSPECIFIED.,.F.,.F.,(4,2,4),(1.76741043909991,1.85233284098964,1.85961666395868),
 .UNSPECIFIED.);
#33=B_SPLINE_CURVE_WITH_KNOTS('',3,(#1491,#1492,#1493,#1494,#1495,#1496),
 .UNSPECIFIED.,.F.,.F.,(4,2,4),(2.59264685155289,2.59993067157906,2.68485306648814),
 .UNSPECIFIED.);
#34=B_SPLINE_CURVE_WITH_KNOTS('',3,(#1692,#1693,#1694,#1695,#1696,#1697),
 .UNSPECIFIED.,.F.,.F.,(4,2,4),(0.376516764480718,0.434419891697874,0.582047650028314),
 .UNSPECIFIED.);
#35=CYLINDRICAL_SURFACE('',#1030,5.);
#36=CYLINDRICAL_SURFACE('',#1041,3.);
#37=CYLINDRICAL_SURFACE('',#1043,5.);
#38=CYLINDRICAL_SURFACE('',#1048,3.);
#39=CYLINDRICAL_SURFACE('',#1050,1.5);
#40=CYLINDRICAL_SURFACE('',#1053,1.5);
#41=CYLINDRICAL_SURFACE('',#1056,5.);
#42=CYLINDRICAL_SURFACE('',#1060,5.);
#43=CYLINDRICAL_SURFACE('',#1070,5.00000000000068);
#44=CYLINDRICAL_SURFACE('',#1075,17.1);
#45=CYLINDRICAL_SURFACE('',#1079,2.80000000000001);
#46=CYLINDRICAL_SURFACE('',#1093,1.49999999999999);
#47=CYLINDRICAL_SURFACE('',#1096,1.49999999999999);
#48=CYLINDRICAL_SURFACE('',#1105,3.);
#49=CYLINDRICAL_SURFACE('',#1110,5.);
#50=CYLINDRICAL_SURFACE('',#1112,15.1);
#51=PLANE('',#1020);
#52=PLANE('',#1024);
#53=PLANE('',#1028);
#54=PLANE('',#1029);
#55=PLANE('',#1033);
#56=PLANE('',#1034);
#57=PLANE('',#1037);
#58=PLANE('',#1045);
#59=PLANE('',#1046);
#60=PLANE('',#1052);
#61=PLANE('',#1055);
#62=PLANE('',#1059);
#63=PLANE('',#1063);
#64=PLANE('',#1065);
#65=PLANE('',#1067);
#66=PLANE('',#1072);
#67=PLANE('',#1081);
#68=PLANE('',#1083);
#69=PLANE('',#1084);
#70=PLANE('',#1085);
#71=PLANE('',#1086);
#72=PLANE('',#1087);
#73=PLANE('',#1088);
#74=PLANE('',#1089);
#75=PLANE('',#1090);
#76=PLANE('',#1091);
#77=PLANE('',#1092);
#78=PLANE('',#1099);
#79=PLANE('',#1100);
#80=PLANE('',#1101);
#81=PLANE('',#1104);
#82=PLANE('',#1106);
#83=PLANE('',#1108);
#84=PLANE('',#1109);
#85=PLANE('',#1111);
#86=PLANE('',#1113);
#87=FACE_OUTER_BOUND('',#142,.T.);
#88=FACE_OUTER_BOUND('',#143,.T.);
#89=FACE_OUTER_BOUND('',#144,.T.);
#90=FACE_OUTER_BOUND('',#145,.T.);
#91=FACE_OUTER_BOUND('',#146,.T.);
#92=FACE_OUTER_BOUND('',#147,.T.);
#93=FACE_OUTER_BOUND('',#148,.T.);
#94=FACE_OUTER_BOUND('',#149,.T.);
#95=FACE_OUTER_BOUND('',#150,.T.);
#96=FACE_OUTER_BOUND('',#151,.T.);
#97=FACE_OUTER_BOUND('',#154,.T.);
#98=FACE_OUTER_BOUND('',#155,.T.);
#99=FACE_OUTER_BOUND('',#156,.T.);
#100=FACE_OUTER_BOUND('',#157,.T.);
#101=FACE_OUTER_BOUND('',#158,.T.);
#102=FACE_OUTER_BOUND('',#159,.T.);
#103=FACE_OUTER_BOUND('',#160,.T.);
#104=FACE_OUTER_BOUND('',#161,.T.);
#105=FACE_OUTER_BOUND('',#162,.T.);
#106=FACE_OUTER_BOUND('',#163,.T.);
#107=FACE_OUTER_BOUND('',#164,.T.);
#108=FACE_OUTER_BOUND('',#165,.T.);
#109=FACE_OUTER_BOUND('',#166,.T.);
#110=FACE_OUTER_BOUND('',#167,.T.);
#111=FACE_OUTER_BOUND('',#168,.T.);
#112=FACE_OUTER_BOUND('',#169,.T.);
#113=FACE_OUTER_BOUND('',#171,.T.);
#114=FACE_OUTER_BOUND('',#172,.T.);
#115=FACE_OUTER_BOUND('',#173,.T.);
#116=FACE_OUTER_BOUND('',#174,.T.);
#117=FACE_OUTER_BOUND('',#175,.T.);
#118=FACE_OUTER_BOUND('',#176,.T.);
#119=FACE_OUTER_BOUND('',#177,.T.);
#120=FACE_OUTER_BOUND('',#179,.T.);
#121=FACE_OUTER_BOUND('',#180,.T.);
#122=FACE_OUTER_BOUND('',#181,.T.);
#123=FACE_OUTER_BOUND('',#182,.T.);
#124=FACE_OUTER_BOUND('',#183,.T.);
#125=FACE_OUTER_BOUND('',#184,.T.);
#126=FACE_OUTER_BOUND('',#185,.T.);
#127=FACE_OUTER_BOUND('',#186,.T.);
#128=FACE_OUTER_BOUND('',#187,.T.);
#129=FACE_OUTER_BOUND('',#188,.T.);
#130=FACE_OUTER_BOUND('',#189,.T.);
#131=FACE_OUTER_BOUND('',#191,.T.);
#132=FACE_OUTER_BOUND('',#192,.T.);
#133=FACE_OUTER_BOUND('',#193,.T.);
#134=FACE_OUTER_BOUND('',#194,.T.);
#135=FACE_OUTER_BOUND('',#195,.T.);
#136=FACE_OUTER_BOUND('',#197,.T.);
#137=FACE_OUTER_BOUND('',#198,.T.);
#138=FACE_OUTER_BOUND('',#200,.T.);
#139=FACE_OUTER_BOUND('',#201,.T.);
#140=FACE_OUTER_BOUND('',#202,.T.);
#141=FACE_OUTER_BOUND('',#203,.T.);
#142=EDGE_LOOP('',(#663,#664,#665,#666));
#143=EDGE_LOOP('',(#667,#668,#669,#670));
#144=EDGE_LOOP('',(#671,#672,#673,#674));
#145=EDGE_LOOP('',(#675,#676,#677,#678));
#146=EDGE_LOOP('',(#679,#680,#681,#682));
#147=EDGE_LOOP('',(#683,#684,#685,#686));
#148=EDGE_LOOP('',(#687,#688,#689,#690));
#149=EDGE_LOOP('',(#691,#692,#693,#694,#695,#696));
#150=EDGE_LOOP('',(#697,#698,#699,#700));
#151=EDGE_LOOP('',(#701,#702,#703,#704,#705,#706));
#152=EDGE_LOOP('',(#707));
#153=EDGE_LOOP('',(#708));
#154=EDGE_LOOP('',(#709,#710,#711,#712,#713,#714,#715,#716));
#155=EDGE_LOOP('',(#717,#718,#719,#720,#721));
#156=EDGE_LOOP('',(#722,#723,#724,#725,#726,#727));
#157=EDGE_LOOP('',(#728,#729,#730,#731));
#158=EDGE_LOOP('',(#732,#733,#734,#735,#736,#737));
#159=EDGE_LOOP('',(#738,#739,#740,#741,#742));
#160=EDGE_LOOP('',(#743,#744,#745,#746));
#161=EDGE_LOOP('',(#747));
#162=EDGE_LOOP('',(#748,#749,#750,#751));
#163=EDGE_LOOP('',(#752));
#164=EDGE_LOOP('',(#753,#754,#755,#756));
#165=EDGE_LOOP('',(#757,#758,#759,#760));
#166=EDGE_LOOP('',(#761,#762,#763,#764));
#167=EDGE_LOOP('',(#765,#766,#767,#768,#769,#770,#771,#772,#773,#774,#775,
#776));
#168=EDGE_LOOP('',(#777,#778,#779,#780,#781,#782));
#169=EDGE_LOOP('',(#783,#784,#785,#786,#787));
#170=EDGE_LOOP('',(#788));
#171=EDGE_LOOP('',(#789,#790,#791,#792));
#172=EDGE_LOOP('',(#793,#794,#795,#796,#797,#798));
#173=EDGE_LOOP('',(#799,#800,#801,#802,#803,#804,#805,#806,#807,#808,#809,
#810));
#174=EDGE_LOOP('',(#811,#812,#813,#814));
#175=EDGE_LOOP('',(#815,#816,#817,#818,#819,#820,#821,#822));
#176=EDGE_LOOP('',(#823,#824,#825,#826,#827));
#177=EDGE_LOOP('',(#828,#829,#830,#831,#832));
#178=EDGE_LOOP('',(#833,#834,#835,#836,#837,#838));
#179=EDGE_LOOP('',(#839,#840,#841,#842));
#180=EDGE_LOOP('',(#843,#844,#845,#846));
#181=EDGE_LOOP('',(#847,#848,#849,#850));
#182=EDGE_LOOP('',(#851,#852,#853,#854));
#183=EDGE_LOOP('',(#855,#856,#857,#858));
#184=EDGE_LOOP('',(#859,#860,#861,#862));
#185=EDGE_LOOP('',(#863,#864,#865,#866));
#186=EDGE_LOOP('',(#867,#868,#869,#870));
#187=EDGE_LOOP('',(#871,#872,#873,#874));
#188=EDGE_LOOP('',(#875,#876,#877,#878));
#189=EDGE_LOOP('',(#879,#880,#881,#882,#883,#884));
#190=EDGE_LOOP('',(#885));
#191=EDGE_LOOP('',(#886,#887,#888,#889,#890,#891,#892));
#192=EDGE_LOOP('',(#893,#894,#895,#896,#897,#898,#899,#900,#901));
#193=EDGE_LOOP('',(#902,#903,#904,#905,#906));
#194=EDGE_LOOP('',(#907,#908,#909,#910,#911));
#195=EDGE_LOOP('',(#912,#913,#914,#915,#916));
#196=EDGE_LOOP('',(#917));
#197=EDGE_LOOP('',(#918,#919,#920,#921));
#198=EDGE_LOOP('',(#922,#923,#924,#925,#926));
#199=EDGE_LOOP('',(#927));
#200=EDGE_LOOP('',(#928,#929,#930,#931,#932));
#201=EDGE_LOOP('',(#933,#934,#935,#936));
#202=EDGE_LOOP('',(#937,#938,#939,#940,#941,#942));
#203=EDGE_LOOP('',(#943));
#204=EDGE_LOOP('',(#944));
#205=CIRCLE('',#1018,16.6);
#206=CIRCLE('',#1019,17.1);
#207=CIRCLE('',#1022,5.);
#208=CIRCLE('',#1023,4.5);
#209=CIRCLE('',#1026,5.);
#210=CIRCLE('',#1027,4.5);
#211=CIRCLE('',#1031,5.);
#212=CIRCLE('',#1044,5.);
#213=CIRCLE('',#1047,17.1);
#214=CIRCLE('',#1049,3.);
#215=CIRCLE('',#1051,1.5);
#216=CIRCLE('',#1054,1.5);
#217=CIRCLE('',#1057,5.);
#218=CIRCLE('',#1058,5.);
#219=CIRCLE('',#1061,5.);
#220=CIRCLE('',#1062,5.);
#221=CIRCLE('',#1064,5.);
#222=CIRCLE('',#1068,5.00000000000064);
#223=CIRCLE('',#1069,2.80000000000001);
#224=CIRCLE('',#1071,5.00000000000068);
#225=CIRCLE('',#1073,15.1);
#226=CIRCLE('',#1074,17.1);
#227=CIRCLE('',#1077,17.1);
#228=CIRCLE('',#1078,17.1);
#229=CIRCLE('',#1080,2.80000000000001);
#230=CIRCLE('',#1082,15.1);
#231=CIRCLE('',#1094,1.49999999999999);
#232=CIRCLE('',#1095,1.49999999999999);
#233=CIRCLE('',#1097,1.49999999999999);
#234=CIRCLE('',#1098,1.49999999999999);
#235=CIRCLE('',#1102,15.1);
#236=CIRCLE('',#1103,3.);
#237=CIRCLE('',#1107,5.);
#238=LINE('',#1410,#334);
#239=LINE('',#1414,#335);
#240=LINE('',#1419,#336);
#241=LINE('',#1420,#337);
#242=LINE('',#1421,#338);
#243=LINE('',#1426,#339);
#244=LINE('',#1430,#340);
#245=LINE('',#1432,#341);
#246=LINE('',#1433,#342);
#247=LINE('',#1438,#343);
#248=LINE('',#1441,#344);
#249=LINE('',#1442,#345);
#250=LINE('',#1445,#346);
#251=LINE('',#1447,#347);
#252=LINE('',#1448,#348);
#253=LINE('',#1451,#349);
#254=LINE('',#1464,#350);
#255=LINE('',#1465,#351);
#256=LINE('',#1475,#352);
#257=LINE('',#1477,#353);
#258=LINE('',#1479,#354);
#259=LINE('',#1485,#355);
#260=LINE('',#1488,#356);
#261=LINE('',#1499,#357);
#262=LINE('',#1502,#358);
#263=LINE('',#1503,#359);
#264=LINE('',#1506,#360);
#265=LINE('',#1508,#361);
#266=LINE('',#1510,#362);
#267=LINE('',#1514,#363);
#268=LINE('',#1518,#364);
#269=LINE('',#1523,#365);
#270=LINE('',#1531,#366);
#271=LINE('',#1534,#367);
#272=LINE('',#1537,#368);
#273=LINE('',#1539,#369);
#274=LINE('',#1540,#370);
#275=LINE('',#1546,#371);
#276=LINE('',#1550,#372);
#277=LINE('',#1552,#373);
#278=LINE('',#1554,#374);
#279=LINE('',#1556,#375);
#280=LINE('',#1557,#376);
#281=LINE('',#1560,#377);
#282=LINE('',#1562,#378);
#283=LINE('',#1565,#379);
#284=LINE('',#1571,#380);
#285=LINE('',#1573,#381);
#286=LINE('',#1575,#382);
#287=LINE('',#1576,#383);
#288=LINE('',#1581,#384);
#289=LINE('',#1583,#385);
#290=LINE('',#1587,#386);
#291=LINE('',#1589,#387);
#292=LINE('',#1593,#388);
#293=LINE('',#1597,#389);
#294=LINE('',#1601,#390);
#295=LINE('',#1605,#391);
#296=LINE('',#1609,#392);
#297=LINE('',#1611,#393);
#298=LINE('',#1614,#394);
#299=LINE('',#1617,#395);
#300=LINE('',#1618,#396);
#301=LINE('',#1621,#397);
#302=LINE('',#1622,#398);
#303=LINE('',#1625,#399);
#304=LINE('',#1627,#400);
#305=LINE('',#1629,#401);
#306=LINE('',#1631,#402);
#307=LINE('',#1633,#403);
#308=LINE('',#1634,#404);
#309=LINE('',#1636,#405);
#310=LINE('',#1640,#406);
#311=LINE('',#1641,#407);
#312=LINE('',#1642,#408);
#313=LINE('',#1645,#409);
#314=LINE('',#1646,#410);
#315=LINE('',#1649,#411);
#316=LINE('',#1650,#412);
#317=LINE('',#1653,#413);
#318=LINE('',#1654,#414);
#319=LINE('',#1657,#415);
#320=LINE('',#1658,#416);
#321=LINE('',#1660,#417);
#322=LINE('',#1666,#418);
#323=LINE('',#1672,#419);
#324=LINE('',#1676,#420);
#325=LINE('',#1679,#421);
#326=LINE('',#1683,#422);
#327=LINE('',#1686,#423);
#328=LINE('',#1688,#424);
#329=LINE('',#1691,#425);
#330=LINE('',#1700,#426);
#331=LINE('',#1702,#427);
#332=LINE('',#1704,#428);
#333=LINE('',#1707,#429);
#334=VECTOR('',#1118,10.);
#335=VECTOR('',#1121,10.);
#336=VECTOR('',#1126,10.);
#337=VECTOR('',#1127,10.);
#338=VECTOR('',#1128,10.);
#339=VECTOR('',#1133,10.);
#340=VECTOR('',#1138,10.);
#341=VECTOR('',#1139,10.);
#342=VECTOR('',#1140,10.);
#343=VECTOR('',#1145,10.);
#344=VECTOR('',#1150,10.);
#345=VECTOR('',#1151,10.);
#346=VECTOR('',#1154,10.);
#347=VECTOR('',#1155,10.);
#348=VECTOR('',#1156,10.);
#349=VECTOR('',#1159,10.);
#350=VECTOR('',#1166,10.);
#351=VECTOR('',#1167,10.);
#352=VECTOR('',#1178,10.);
#353=VECTOR('',#1179,10.);
#354=VECTOR('',#1180,10.);
#355=VECTOR('',#1187,10.);
#356=VECTOR('',#1190,10.);
#357=VECTOR('',#1195,10.);
#358=VECTOR('',#1198,10.);
#359=VECTOR('',#1199,10.);
#360=VECTOR('',#1202,10.);
#361=VECTOR('',#1203,10.);
#362=VECTOR('',#1204,10.);
#363=VECTOR('',#1209,10.);
#364=VECTOR('',#1214,1.5);
#365=VECTOR('',#1221,1.5);
#366=VECTOR('',#1230,10.);
#367=VECTOR('',#1233,10.);
#368=VECTOR('',#1236,10.);
#369=VECTOR('',#1237,10.);
#370=VECTOR('',#1238,10.);
#371=VECTOR('',#1247,10.);
#372=VECTOR('',#1250,10.);
#373=VECTOR('',#1251,10.);
#374=VECTOR('',#1252,10.);
#375=VECTOR('',#1253,10.);
#376=VECTOR('',#1254,10.);
#377=VECTOR('',#1257,10.);
#378=VECTOR('',#1258,10.);
#379=VECTOR('',#1261,10.);
#380=VECTOR('',#1266,10.);
#381=VECTOR('',#1267,10.);
#382=VECTOR('',#1268,10.);
#383=VECTOR('',#1269,10.);
#384=VECTOR('',#1274,10.);
#385=VECTOR('',#1275,10.);
#386=VECTOR('',#1280,10.);
#387=VECTOR('',#1281,10.);
#388=VECTOR('',#1284,10.);
#389=VECTOR('',#1289,10.);
#390=VECTOR('',#1294,10.);
#391=VECTOR('',#1299,2.80000000000001);
#392=VECTOR('',#1304,10.);
#393=VECTOR('',#1305,10.);
#394=VECTOR('',#1308,10.);
#395=VECTOR('',#1311,10.);
#396=VECTOR('',#1312,10.);
#397=VECTOR('',#1315,10.);
#398=VECTOR('',#1316,10.);
#399=VECTOR('',#1317,10.);
#400=VECTOR('',#1318,10.);
#401=VECTOR('',#1319,10.);
#402=VECTOR('',#1320,10.);
#403=VECTOR('',#1321,10.);
#404=VECTOR('',#1322,10.);
#405=VECTOR('',#1325,10.);
#406=VECTOR('',#1328,10.);
#407=VECTOR('',#1329,10.);
#408=VECTOR('',#1330,10.);
#409=VECTOR('',#1333,10.);
#410=VECTOR('',#1334,10.);
#411=VECTOR('',#1337,10.);
#412=VECTOR('',#1338,10.);
#413=VECTOR('',#1341,10.);
#414=VECTOR('',#1342,10.);
#415=VECTOR('',#1345,10.);
#416=VECTOR('',#1346,10.);
#417=VECTOR('',#1349,10.);
#418=VECTOR('',#1356,1.49999999999999);
#419=VECTOR('',#1363,1.49999999999999);
#420=VECTOR('',#1370,10.);
#421=VECTOR('',#1373,10.);
#422=VECTOR('',#1376,10.);
#423=VECTOR('',#1379,10.);
#424=VECTOR('',#1382,10.);
#425=VECTOR('',#1385,10.);
#426=VECTOR('',#1390,10.);
#427=VECTOR('',#1393,10.);
#428=VECTOR('',#1396,10.);
#429=VECTOR('',#1401,10.);
#430=VERTEX_POINT('',#1408);
#431=VERTEX_POINT('',#1409);
#432=VERTEX_POINT('',#1411);
#433=VERTEX_POINT('',#1413);
#434=VERTEX_POINT('',#1417);
#435=VERTEX_POINT('',#1418);
#436=VERTEX_POINT('',#1423);
#437=VERTEX_POINT('',#1425);
#438=VERTEX_POINT('',#1429);
#439=VERTEX_POINT('',#1431);
#440=VERTEX_POINT('',#1435);
#441=VERTEX_POINT('',#1437);
#442=VERTEX_POINT('',#1444);
#443=VERTEX_POINT('',#1446);
#444=VERTEX_POINT('',#1450);
#445=VERTEX_POINT('',#1452);
#446=VERTEX_POINT('',#1454);
#447=VERTEX_POINT('',#1463);
#448=VERTEX_POINT('',#1467);
#449=VERTEX_POINT('',#1469);
#450=VERTEX_POINT('',#1472);
#451=VERTEX_POINT('',#1474);
#452=VERTEX_POINT('',#1476);
#453=VERTEX_POINT('',#1478);
#454=VERTEX_POINT('',#1480);
#455=VERTEX_POINT('',#1484);
#456=VERTEX_POINT('',#1486);
#457=VERTEX_POINT('',#1490);
#458=VERTEX_POINT('',#1497);
#459=VERTEX_POINT('',#1501);
#460=VERTEX_POINT('',#1505);
#461=VERTEX_POINT('',#1507);
#462=VERTEX_POINT('',#1509);
#463=VERTEX_POINT('',#1513);
#464=VERTEX_POINT('',#1517);
#465=VERTEX_POINT('',#1522);
#466=VERTEX_POINT('',#1527);
#467=VERTEX_POINT('',#1528);
#468=VERTEX_POINT('',#1530);
#469=VERTEX_POINT('',#1532);
#470=VERTEX_POINT('',#1536);
#471=VERTEX_POINT('',#1538);
#472=VERTEX_POINT('',#1545);
#473=VERTEX_POINT('',#1547);
#474=VERTEX_POINT('',#1549);
#475=VERTEX_POINT('',#1551);
#476=VERTEX_POINT('',#1553);
#477=VERTEX_POINT('',#1555);
#478=VERTEX_POINT('',#1559);
#479=VERTEX_POINT('',#1561);
#480=VERTEX_POINT('',#1563);
#481=VERTEX_POINT('',#1567);
#482=VERTEX_POINT('',#1568);
#483=VERTEX_POINT('',#1570);
#484=VERTEX_POINT('',#1572);
#485=VERTEX_POINT('',#1574);
#486=VERTEX_POINT('',#1577);
#487=VERTEX_POINT('',#1580);
#488=VERTEX_POINT('',#1582);
#489=VERTEX_POINT('',#1586);
#490=VERTEX_POINT('',#1588);
#491=VERTEX_POINT('',#1590);
#492=VERTEX_POINT('',#1592);
#493=VERTEX_POINT('',#1596);
#494=VERTEX_POINT('',#1600);
#495=VERTEX_POINT('',#1604);
#496=VERTEX_POINT('',#1608);
#497=VERTEX_POINT('',#1610);
#498=VERTEX_POINT('',#1612);
#499=VERTEX_POINT('',#1616);
#500=VERTEX_POINT('',#1620);
#501=VERTEX_POINT('',#1623);
#502=VERTEX_POINT('',#1624);
#503=VERTEX_POINT('',#1626);
#504=VERTEX_POINT('',#1628);
#505=VERTEX_POINT('',#1630);
#506=VERTEX_POINT('',#1632);
#507=VERTEX_POINT('',#1638);
#508=VERTEX_POINT('',#1639);
#509=VERTEX_POINT('',#1644);
#510=VERTEX_POINT('',#1648);
#511=VERTEX_POINT('',#1652);
#512=VERTEX_POINT('',#1656);
#513=VERTEX_POINT('',#1663);
#514=VERTEX_POINT('',#1665);
#515=VERTEX_POINT('',#1669);
#516=VERTEX_POINT('',#1671);
#517=VERTEX_POINT('',#1678);
#518=VERTEX_POINT('',#1680);
#519=VERTEX_POINT('',#1682);
#520=VERTEX_POINT('',#1684);
#521=VERTEX_POINT('',#1690);
#522=EDGE_CURVE('',#430,#431,#238,.T.);
#523=EDGE_CURVE('',#431,#432,#205,.T.);
#524=EDGE_CURVE('',#432,#433,#239,.T.);
#525=EDGE_CURVE('',#433,#430,#206,.T.);
#526=EDGE_CURVE('',#434,#435,#240,.T.);
#527=EDGE_CURVE('',#435,#431,#241,.T.);
#528=EDGE_CURVE('',#430,#434,#242,.T.);
#529=EDGE_CURVE('',#434,#436,#207,.T.);
#530=EDGE_CURVE('',#436,#437,#243,.T.);
#531=EDGE_CURVE('',#437,#435,#208,.T.);
#532=EDGE_CURVE('',#436,#438,#244,.T.);
#533=EDGE_CURVE('',#438,#439,#245,.T.);
#534=EDGE_CURVE('',#439,#437,#246,.T.);
#535=EDGE_CURVE('',#438,#440,#209,.T.);
#536=EDGE_CURVE('',#440,#441,#247,.T.);
#537=EDGE_CURVE('',#441,#439,#210,.T.);
#538=EDGE_CURVE('',#432,#441,#248,.T.);
#539=EDGE_CURVE('',#440,#433,#249,.T.);
#540=EDGE_CURVE('',#442,#436,#250,.T.);
#541=EDGE_CURVE('',#442,#443,#251,.T.);
#542=EDGE_CURVE('',#438,#443,#252,.T.);
#543=EDGE_CURVE('',#434,#444,#253,.T.);
#544=EDGE_CURVE('',#444,#445,#211,.T.);
#545=EDGE_CURVE('',#445,#446,#32,.T.);
#546=EDGE_CURVE('',#446,#442,#23,.T.);
#547=EDGE_CURVE('',#430,#447,#254,.T.);
#548=EDGE_CURVE('',#444,#447,#255,.F.);
#549=EDGE_CURVE('',#448,#448,#24,.T.);
#550=EDGE_CURVE('',#449,#449,#25,.T.);
#551=EDGE_CURVE('',#450,#446,#26,.T.);
#552=EDGE_CURVE('',#450,#451,#256,.F.);
#553=EDGE_CURVE('',#452,#451,#257,.T.);
#554=EDGE_CURVE('',#452,#453,#258,.T.);
#555=EDGE_CURVE('',#453,#454,#27,.F.);
#556=EDGE_CURVE('',#443,#454,#28,.T.);
#557=EDGE_CURVE('',#445,#455,#259,.T.);
#558=EDGE_CURVE('',#455,#456,#29,.T.);
#559=EDGE_CURVE('',#456,#450,#260,.T.);
#560=EDGE_CURVE('',#454,#457,#33,.T.);
#561=EDGE_CURVE('',#457,#458,#212,.T.);
#562=EDGE_CURVE('',#458,#440,#261,.T.);
#563=EDGE_CURVE('',#459,#458,#262,.T.);
#564=EDGE_CURVE('',#433,#459,#263,.T.);
#565=EDGE_CURVE('',#460,#457,#264,.T.);
#566=EDGE_CURVE('',#461,#460,#265,.T.);
#567=EDGE_CURVE('',#461,#462,#266,.T.);
#568=EDGE_CURVE('',#459,#462,#213,.F.);
#569=EDGE_CURVE('',#453,#463,#267,.T.);
#570=EDGE_CURVE('',#463,#460,#214,.T.);
#571=EDGE_CURVE('',#449,#464,#268,.T.);
#572=EDGE_CURVE('',#464,#464,#215,.T.);
#573=EDGE_CURVE('',#448,#465,#269,.T.);
#574=EDGE_CURVE('',#465,#465,#216,.T.);
#575=EDGE_CURVE('',#466,#467,#217,.T.);
#576=EDGE_CURVE('',#467,#468,#270,.T.);
#577=EDGE_CURVE('',#468,#469,#218,.T.);
#578=EDGE_CURVE('',#469,#466,#271,.T.);
#579=EDGE_CURVE('',#467,#470,#272,.T.);
#580=EDGE_CURVE('',#471,#470,#273,.T.);
#581=EDGE_CURVE('',#468,#471,#274,.T.);
#582=EDGE_CURVE('',#451,#471,#219,.T.);
#583=EDGE_CURVE('',#470,#452,#220,.T.);
#584=EDGE_CURVE('',#472,#466,#275,.T.);
#585=EDGE_CURVE('',#473,#472,#221,.T.);
#586=EDGE_CURVE('',#474,#473,#276,.T.);
#587=EDGE_CURVE('',#475,#474,#277,.F.);
#588=EDGE_CURVE('',#475,#476,#278,.T.);
#589=EDGE_CURVE('',#476,#477,#279,.T.);
#590=EDGE_CURVE('',#477,#463,#280,.T.);
#591=EDGE_CURVE('',#469,#478,#281,.F.);
#592=EDGE_CURVE('',#479,#478,#282,.T.);
#593=EDGE_CURVE('',#479,#480,#30,.F.);
#594=EDGE_CURVE('',#472,#480,#283,.T.);
#595=EDGE_CURVE('',#481,#482,#222,.T.);
#596=EDGE_CURVE('',#483,#482,#284,.T.);
#597=EDGE_CURVE('',#483,#484,#285,.T.);
#598=EDGE_CURVE('',#484,#485,#286,.F.);
#599=EDGE_CURVE('',#485,#481,#287,.T.);
#600=EDGE_CURVE('',#486,#486,#223,.T.);
#601=EDGE_CURVE('',#482,#487,#288,.T.);
#602=EDGE_CURVE('',#488,#481,#289,.T.);
#603=EDGE_CURVE('',#487,#488,#224,.T.);
#604=EDGE_CURVE('',#489,#483,#290,.T.);
#605=EDGE_CURVE('',#490,#489,#291,.T.);
#606=EDGE_CURVE('',#491,#490,#225,.T.);
#607=EDGE_CURVE('',#492,#491,#292,.T.);
#608=EDGE_CURVE('',#484,#492,#226,.F.);
#609=EDGE_CURVE('',#493,#462,#293,.F.);
#610=EDGE_CURVE('',#493,#475,#31,.F.);
#611=EDGE_CURVE('',#474,#485,#227,.F.);
#612=EDGE_CURVE('',#492,#494,#294,.F.);
#613=EDGE_CURVE('',#447,#494,#228,.T.);
#614=EDGE_CURVE('',#486,#495,#295,.T.);
#615=EDGE_CURVE('',#495,#495,#229,.T.);
#616=EDGE_CURVE('',#496,#473,#296,.T.);
#617=EDGE_CURVE('',#496,#497,#297,.T.);
#618=EDGE_CURVE('',#497,#498,#230,.F.);
#619=EDGE_CURVE('',#498,#488,#298,.T.);
#620=EDGE_CURVE('',#477,#499,#299,.T.);
#621=EDGE_CURVE('',#461,#499,#300,.T.);
#622=EDGE_CURVE('',#499,#500,#301,.T.);
#623=EDGE_CURVE('',#500,#493,#302,.T.);
#624=EDGE_CURVE('',#501,#502,#303,.T.);
#625=EDGE_CURVE('',#502,#503,#304,.T.);
#626=EDGE_CURVE('',#503,#504,#305,.T.);
#627=EDGE_CURVE('',#504,#505,#306,.T.);
#628=EDGE_CURVE('',#505,#506,#307,.T.);
#629=EDGE_CURVE('',#506,#501,#308,.T.);
#630=EDGE_CURVE('',#476,#500,#309,.T.);
#631=EDGE_CURVE('',#507,#508,#310,.T.);
#632=EDGE_CURVE('',#507,#501,#311,.T.);
#633=EDGE_CURVE('',#508,#506,#312,.T.);
#634=EDGE_CURVE('',#508,#509,#313,.T.);
#635=EDGE_CURVE('',#509,#505,#314,.T.);
#636=EDGE_CURVE('',#509,#510,#315,.T.);
#637=EDGE_CURVE('',#510,#504,#316,.T.);
#638=EDGE_CURVE('',#510,#511,#317,.T.);
#639=EDGE_CURVE('',#511,#503,#318,.T.);
#640=EDGE_CURVE('',#511,#512,#319,.T.);
#641=EDGE_CURVE('',#512,#502,#320,.T.);
#642=EDGE_CURVE('',#512,#507,#321,.T.);
#643=EDGE_CURVE('',#513,#513,#231,.T.);
#644=EDGE_CURVE('',#513,#514,#322,.T.);
#645=EDGE_CURVE('',#514,#514,#232,.T.);
#646=EDGE_CURVE('',#515,#515,#233,.T.);
#647=EDGE_CURVE('',#515,#516,#323,.T.);
#648=EDGE_CURVE('',#516,#516,#234,.T.);
#649=EDGE_CURVE('',#456,#478,#324,.T.);
#650=EDGE_CURVE('',#494,#517,#325,.F.);
#651=EDGE_CURVE('',#518,#517,#235,.T.);
#652=EDGE_CURVE('',#519,#518,#326,.T.);
#653=EDGE_CURVE('',#519,#520,#236,.T.);
#654=EDGE_CURVE('',#455,#520,#327,.F.);
#655=EDGE_CURVE('',#479,#520,#328,.T.);
#656=EDGE_CURVE('',#519,#521,#329,.T.);
#657=EDGE_CURVE('',#521,#480,#34,.F.);
#658=EDGE_CURVE('',#521,#496,#237,.T.);
#659=EDGE_CURVE('',#518,#497,#330,.F.);
#660=EDGE_CURVE('',#489,#487,#331,.T.);
#661=EDGE_CURVE('',#498,#490,#332,.T.);
#662=EDGE_CURVE('',#517,#491,#333,.T.);
#663=ORIENTED_EDGE('',*,*,#522,.T.);
#664=ORIENTED_EDGE('',*,*,#523,.T.);
#665=ORIENTED_EDGE('',*,*,#524,.T.);
#666=ORIENTED_EDGE('',*,*,#525,.T.);
#667=ORIENTED_EDGE('',*,*,#526,.T.);
#668=ORIENTED_EDGE('',*,*,#527,.T.);
#669=ORIENTED_EDGE('',*,*,#522,.F.);
#670=ORIENTED_EDGE('',*,*,#528,.T.);
#671=ORIENTED_EDGE('',*,*,#526,.F.);
#672=ORIENTED_EDGE('',*,*,#529,.T.);
#673=ORIENTED_EDGE('',*,*,#530,.T.);
#674=ORIENTED_EDGE('',*,*,#531,.T.);
#675=ORIENTED_EDGE('',*,*,#530,.F.);
#676=ORIENTED_EDGE('',*,*,#532,.T.);
#677=ORIENTED_EDGE('',*,*,#533,.T.);
#678=ORIENTED_EDGE('',*,*,#534,.T.);
#679=ORIENTED_EDGE('',*,*,#533,.F.);
#680=ORIENTED_EDGE('',*,*,#535,.T.);
#681=ORIENTED_EDGE('',*,*,#536,.T.);
#682=ORIENTED_EDGE('',*,*,#537,.T.);
#683=ORIENTED_EDGE('',*,*,#524,.F.);
#684=ORIENTED_EDGE('',*,*,#538,.T.);
#685=ORIENTED_EDGE('',*,*,#536,.F.);
#686=ORIENTED_EDGE('',*,*,#539,.T.);
#687=ORIENTED_EDGE('',*,*,#532,.F.);
#688=ORIENTED_EDGE('',*,*,#540,.F.);
#689=ORIENTED_EDGE('',*,*,#541,.T.);
#690=ORIENTED_EDGE('',*,*,#542,.F.);
#691=ORIENTED_EDGE('',*,*,#529,.F.);
#692=ORIENTED_EDGE('',*,*,#543,.T.);
#693=ORIENTED_EDGE('',*,*,#544,.T.);
#694=ORIENTED_EDGE('',*,*,#545,.T.);
#695=ORIENTED_EDGE('',*,*,#546,.T.);
#696=ORIENTED_EDGE('',*,*,#540,.T.);
#697=ORIENTED_EDGE('',*,*,#528,.F.);
#698=ORIENTED_EDGE('',*,*,#547,.T.);
#699=ORIENTED_EDGE('',*,*,#548,.F.);
#700=ORIENTED_EDGE('',*,*,#543,.F.);
#701=ORIENTED_EDGE('',*,*,#523,.F.);
#702=ORIENTED_EDGE('',*,*,#527,.F.);
#703=ORIENTED_EDGE('',*,*,#531,.F.);
#704=ORIENTED_EDGE('',*,*,#534,.F.);
#705=ORIENTED_EDGE('',*,*,#537,.F.);
#706=ORIENTED_EDGE('',*,*,#538,.F.);
#707=ORIENTED_EDGE('',*,*,#549,.T.);
#708=ORIENTED_EDGE('',*,*,#550,.T.);
#709=ORIENTED_EDGE('',*,*,#546,.F.);
#710=ORIENTED_EDGE('',*,*,#551,.F.);
#711=ORIENTED_EDGE('',*,*,#552,.T.);
#712=ORIENTED_EDGE('',*,*,#553,.F.);
#713=ORIENTED_EDGE('',*,*,#554,.T.);
#714=ORIENTED_EDGE('',*,*,#555,.T.);
#715=ORIENTED_EDGE('',*,*,#556,.F.);
#716=ORIENTED_EDGE('',*,*,#541,.F.);
#717=ORIENTED_EDGE('',*,*,#545,.F.);
#718=ORIENTED_EDGE('',*,*,#557,.T.);
#719=ORIENTED_EDGE('',*,*,#558,.T.);
#720=ORIENTED_EDGE('',*,*,#559,.T.);
#721=ORIENTED_EDGE('',*,*,#551,.T.);
#722=ORIENTED_EDGE('',*,*,#535,.F.);
#723=ORIENTED_EDGE('',*,*,#542,.T.);
#724=ORIENTED_EDGE('',*,*,#556,.T.);
#725=ORIENTED_EDGE('',*,*,#560,.T.);
#726=ORIENTED_EDGE('',*,*,#561,.T.);
#727=ORIENTED_EDGE('',*,*,#562,.T.);
#728=ORIENTED_EDGE('',*,*,#539,.F.);
#729=ORIENTED_EDGE('',*,*,#562,.F.);
#730=ORIENTED_EDGE('',*,*,#563,.F.);
#731=ORIENTED_EDGE('',*,*,#564,.F.);
#732=ORIENTED_EDGE('',*,*,#561,.F.);
#733=ORIENTED_EDGE('',*,*,#565,.F.);
#734=ORIENTED_EDGE('',*,*,#566,.F.);
#735=ORIENTED_EDGE('',*,*,#567,.T.);
#736=ORIENTED_EDGE('',*,*,#568,.F.);
#737=ORIENTED_EDGE('',*,*,#563,.T.);
#738=ORIENTED_EDGE('',*,*,#560,.F.);
#739=ORIENTED_EDGE('',*,*,#555,.F.);
#740=ORIENTED_EDGE('',*,*,#569,.T.);
#741=ORIENTED_EDGE('',*,*,#570,.T.);
#742=ORIENTED_EDGE('',*,*,#565,.T.);
#743=ORIENTED_EDGE('',*,*,#550,.F.);
#744=ORIENTED_EDGE('',*,*,#571,.T.);
#745=ORIENTED_EDGE('',*,*,#572,.T.);
#746=ORIENTED_EDGE('',*,*,#571,.F.);
#747=ORIENTED_EDGE('',*,*,#572,.F.);
#748=ORIENTED_EDGE('',*,*,#549,.F.);
#749=ORIENTED_EDGE('',*,*,#573,.T.);
#750=ORIENTED_EDGE('',*,*,#574,.T.);
#751=ORIENTED_EDGE('',*,*,#573,.F.);
#752=ORIENTED_EDGE('',*,*,#574,.F.);
#753=ORIENTED_EDGE('',*,*,#575,.T.);
#754=ORIENTED_EDGE('',*,*,#576,.T.);
#755=ORIENTED_EDGE('',*,*,#577,.T.);
#756=ORIENTED_EDGE('',*,*,#578,.T.);
#757=ORIENTED_EDGE('',*,*,#576,.F.);
#758=ORIENTED_EDGE('',*,*,#579,.T.);
#759=ORIENTED_EDGE('',*,*,#580,.F.);
#760=ORIENTED_EDGE('',*,*,#581,.F.);
#761=ORIENTED_EDGE('',*,*,#582,.T.);
#762=ORIENTED_EDGE('',*,*,#580,.T.);
#763=ORIENTED_EDGE('',*,*,#583,.T.);
#764=ORIENTED_EDGE('',*,*,#553,.T.);
#765=ORIENTED_EDGE('',*,*,#583,.F.);
#766=ORIENTED_EDGE('',*,*,#579,.F.);
#767=ORIENTED_EDGE('',*,*,#575,.F.);
#768=ORIENTED_EDGE('',*,*,#584,.F.);
#769=ORIENTED_EDGE('',*,*,#585,.F.);
#770=ORIENTED_EDGE('',*,*,#586,.F.);
#771=ORIENTED_EDGE('',*,*,#587,.F.);
#772=ORIENTED_EDGE('',*,*,#588,.T.);
#773=ORIENTED_EDGE('',*,*,#589,.T.);
#774=ORIENTED_EDGE('',*,*,#590,.T.);
#775=ORIENTED_EDGE('',*,*,#569,.F.);
#776=ORIENTED_EDGE('',*,*,#554,.F.);
#777=ORIENTED_EDGE('',*,*,#578,.F.);
#778=ORIENTED_EDGE('',*,*,#591,.T.);
#779=ORIENTED_EDGE('',*,*,#592,.F.);
#780=ORIENTED_EDGE('',*,*,#593,.T.);
#781=ORIENTED_EDGE('',*,*,#594,.F.);
#782=ORIENTED_EDGE('',*,*,#584,.T.);
#783=ORIENTED_EDGE('',*,*,#595,.T.);
#784=ORIENTED_EDGE('',*,*,#596,.F.);
#785=ORIENTED_EDGE('',*,*,#597,.T.);
#786=ORIENTED_EDGE('',*,*,#598,.T.);
#787=ORIENTED_EDGE('',*,*,#599,.T.);
#788=ORIENTED_EDGE('',*,*,#600,.T.);
#789=ORIENTED_EDGE('',*,*,#601,.F.);
#790=ORIENTED_EDGE('',*,*,#595,.F.);
#791=ORIENTED_EDGE('',*,*,#602,.F.);
#792=ORIENTED_EDGE('',*,*,#603,.F.);
#793=ORIENTED_EDGE('',*,*,#604,.F.);
#794=ORIENTED_EDGE('',*,*,#605,.F.);
#795=ORIENTED_EDGE('',*,*,#606,.F.);
#796=ORIENTED_EDGE('',*,*,#607,.F.);
#797=ORIENTED_EDGE('',*,*,#608,.F.);
#798=ORIENTED_EDGE('',*,*,#597,.F.);
#799=ORIENTED_EDGE('',*,*,#525,.F.);
#800=ORIENTED_EDGE('',*,*,#564,.T.);
#801=ORIENTED_EDGE('',*,*,#568,.T.);
#802=ORIENTED_EDGE('',*,*,#609,.F.);
#803=ORIENTED_EDGE('',*,*,#610,.T.);
#804=ORIENTED_EDGE('',*,*,#587,.T.);
#805=ORIENTED_EDGE('',*,*,#611,.T.);
#806=ORIENTED_EDGE('',*,*,#598,.F.);
#807=ORIENTED_EDGE('',*,*,#608,.T.);
#808=ORIENTED_EDGE('',*,*,#612,.T.);
#809=ORIENTED_EDGE('',*,*,#613,.F.);
#810=ORIENTED_EDGE('',*,*,#547,.F.);
#811=ORIENTED_EDGE('',*,*,#600,.F.);
#812=ORIENTED_EDGE('',*,*,#614,.T.);
#813=ORIENTED_EDGE('',*,*,#615,.F.);
#814=ORIENTED_EDGE('',*,*,#614,.F.);
#815=ORIENTED_EDGE('',*,*,#602,.T.);
#816=ORIENTED_EDGE('',*,*,#599,.F.);
#817=ORIENTED_EDGE('',*,*,#611,.F.);
#818=ORIENTED_EDGE('',*,*,#586,.T.);
#819=ORIENTED_EDGE('',*,*,#616,.F.);
#820=ORIENTED_EDGE('',*,*,#617,.T.);
#821=ORIENTED_EDGE('',*,*,#618,.T.);
#822=ORIENTED_EDGE('',*,*,#619,.T.);
#823=ORIENTED_EDGE('',*,*,#590,.F.);
#824=ORIENTED_EDGE('',*,*,#620,.T.);
#825=ORIENTED_EDGE('',*,*,#621,.F.);
#826=ORIENTED_EDGE('',*,*,#566,.T.);
#827=ORIENTED_EDGE('',*,*,#570,.F.);
#828=ORIENTED_EDGE('',*,*,#622,.T.);
#829=ORIENTED_EDGE('',*,*,#623,.T.);
#830=ORIENTED_EDGE('',*,*,#609,.T.);
#831=ORIENTED_EDGE('',*,*,#567,.F.);
#832=ORIENTED_EDGE('',*,*,#621,.T.);
#833=ORIENTED_EDGE('',*,*,#624,.T.);
#834=ORIENTED_EDGE('',*,*,#625,.T.);
#835=ORIENTED_EDGE('',*,*,#626,.T.);
#836=ORIENTED_EDGE('',*,*,#627,.T.);
#837=ORIENTED_EDGE('',*,*,#628,.T.);
#838=ORIENTED_EDGE('',*,*,#629,.T.);
#839=ORIENTED_EDGE('',*,*,#623,.F.);
#840=ORIENTED_EDGE('',*,*,#630,.F.);
#841=ORIENTED_EDGE('',*,*,#588,.F.);
#842=ORIENTED_EDGE('',*,*,#610,.F.);
#843=ORIENTED_EDGE('',*,*,#631,.F.);
#844=ORIENTED_EDGE('',*,*,#632,.T.);
#845=ORIENTED_EDGE('',*,*,#629,.F.);
#846=ORIENTED_EDGE('',*,*,#633,.F.);
#847=ORIENTED_EDGE('',*,*,#634,.F.);
#848=ORIENTED_EDGE('',*,*,#633,.T.);
#849=ORIENTED_EDGE('',*,*,#628,.F.);
#850=ORIENTED_EDGE('',*,*,#635,.F.);
#851=ORIENTED_EDGE('',*,*,#636,.F.);
#852=ORIENTED_EDGE('',*,*,#635,.T.);
#853=ORIENTED_EDGE('',*,*,#627,.F.);
#854=ORIENTED_EDGE('',*,*,#637,.F.);
#855=ORIENTED_EDGE('',*,*,#638,.F.);
#856=ORIENTED_EDGE('',*,*,#637,.T.);
#857=ORIENTED_EDGE('',*,*,#626,.F.);
#858=ORIENTED_EDGE('',*,*,#639,.F.);
#859=ORIENTED_EDGE('',*,*,#640,.F.);
#860=ORIENTED_EDGE('',*,*,#639,.T.);
#861=ORIENTED_EDGE('',*,*,#625,.F.);
#862=ORIENTED_EDGE('',*,*,#641,.F.);
#863=ORIENTED_EDGE('',*,*,#642,.F.);
#864=ORIENTED_EDGE('',*,*,#641,.T.);
#865=ORIENTED_EDGE('',*,*,#624,.F.);
#866=ORIENTED_EDGE('',*,*,#632,.F.);
#867=ORIENTED_EDGE('',*,*,#589,.F.);
#868=ORIENTED_EDGE('',*,*,#630,.T.);
#869=ORIENTED_EDGE('',*,*,#622,.F.);
#870=ORIENTED_EDGE('',*,*,#620,.F.);
#871=ORIENTED_EDGE('',*,*,#643,.F.);
#872=ORIENTED_EDGE('',*,*,#644,.T.);
#873=ORIENTED_EDGE('',*,*,#645,.F.);
#874=ORIENTED_EDGE('',*,*,#644,.F.);
#875=ORIENTED_EDGE('',*,*,#646,.F.);
#876=ORIENTED_EDGE('',*,*,#647,.T.);
#877=ORIENTED_EDGE('',*,*,#648,.F.);
#878=ORIENTED_EDGE('',*,*,#647,.F.);
#879=ORIENTED_EDGE('',*,*,#631,.T.);
#880=ORIENTED_EDGE('',*,*,#634,.T.);
#881=ORIENTED_EDGE('',*,*,#636,.T.);
#882=ORIENTED_EDGE('',*,*,#638,.T.);
#883=ORIENTED_EDGE('',*,*,#640,.T.);
#884=ORIENTED_EDGE('',*,*,#642,.T.);
#885=ORIENTED_EDGE('',*,*,#648,.T.);
#886=ORIENTED_EDGE('',*,*,#582,.F.);
#887=ORIENTED_EDGE('',*,*,#552,.F.);
#888=ORIENTED_EDGE('',*,*,#559,.F.);
#889=ORIENTED_EDGE('',*,*,#649,.T.);
#890=ORIENTED_EDGE('',*,*,#591,.F.);
#891=ORIENTED_EDGE('',*,*,#577,.F.);
#892=ORIENTED_EDGE('',*,*,#581,.T.);
#893=ORIENTED_EDGE('',*,*,#544,.F.);
#894=ORIENTED_EDGE('',*,*,#548,.T.);
#895=ORIENTED_EDGE('',*,*,#613,.T.);
#896=ORIENTED_EDGE('',*,*,#650,.T.);
#897=ORIENTED_EDGE('',*,*,#651,.F.);
#898=ORIENTED_EDGE('',*,*,#652,.F.);
#899=ORIENTED_EDGE('',*,*,#653,.T.);
#900=ORIENTED_EDGE('',*,*,#654,.F.);
#901=ORIENTED_EDGE('',*,*,#557,.F.);
#902=ORIENTED_EDGE('',*,*,#654,.T.);
#903=ORIENTED_EDGE('',*,*,#655,.F.);
#904=ORIENTED_EDGE('',*,*,#592,.T.);
#905=ORIENTED_EDGE('',*,*,#649,.F.);
#906=ORIENTED_EDGE('',*,*,#558,.F.);
#907=ORIENTED_EDGE('',*,*,#653,.F.);
#908=ORIENTED_EDGE('',*,*,#656,.T.);
#909=ORIENTED_EDGE('',*,*,#657,.T.);
#910=ORIENTED_EDGE('',*,*,#593,.F.);
#911=ORIENTED_EDGE('',*,*,#655,.T.);
#912=ORIENTED_EDGE('',*,*,#617,.F.);
#913=ORIENTED_EDGE('',*,*,#658,.F.);
#914=ORIENTED_EDGE('',*,*,#656,.F.);
#915=ORIENTED_EDGE('',*,*,#652,.T.);
#916=ORIENTED_EDGE('',*,*,#659,.T.);
#917=ORIENTED_EDGE('',*,*,#646,.T.);
#918=ORIENTED_EDGE('',*,*,#601,.T.);
#919=ORIENTED_EDGE('',*,*,#660,.F.);
#920=ORIENTED_EDGE('',*,*,#604,.T.);
#921=ORIENTED_EDGE('',*,*,#596,.T.);
#922=ORIENTED_EDGE('',*,*,#605,.T.);
#923=ORIENTED_EDGE('',*,*,#660,.T.);
#924=ORIENTED_EDGE('',*,*,#603,.T.);
#925=ORIENTED_EDGE('',*,*,#619,.F.);
#926=ORIENTED_EDGE('',*,*,#661,.T.);
#927=ORIENTED_EDGE('',*,*,#645,.T.);
#928=ORIENTED_EDGE('',*,*,#585,.T.);
#929=ORIENTED_EDGE('',*,*,#594,.T.);
#930=ORIENTED_EDGE('',*,*,#657,.F.);
#931=ORIENTED_EDGE('',*,*,#658,.T.);
#932=ORIENTED_EDGE('',*,*,#616,.T.);
#933=ORIENTED_EDGE('',*,*,#662,.F.);
#934=ORIENTED_EDGE('',*,*,#650,.F.);
#935=ORIENTED_EDGE('',*,*,#612,.F.);
#936=ORIENTED_EDGE('',*,*,#607,.T.);
#937=ORIENTED_EDGE('',*,*,#662,.T.);
#938=ORIENTED_EDGE('',*,*,#606,.T.);
#939=ORIENTED_EDGE('',*,*,#661,.F.);
#940=ORIENTED_EDGE('',*,*,#618,.F.);
#941=ORIENTED_EDGE('',*,*,#659,.F.);
#942=ORIENTED_EDGE('',*,*,#651,.T.);
#943=ORIENTED_EDGE('',*,*,#615,.T.);
#944=ORIENTED_EDGE('',*,*,#643,.T.);
#945=CONICAL_SURFACE('',#1017,16.85,0.785398163397465);
#946=CONICAL_SURFACE('',#1021,4.75,0.78539816339739);
#947=CONICAL_SURFACE('',#1025,4.75,0.785398163397329);
#948=ADVANCED_FACE('',(#87),#945,.T.);
#949=ADVANCED_FACE('',(#88),#51,.T.);
#950=ADVANCED_FACE('',(#89),#946,.T.);
#951=ADVANCED_FACE('',(#90),#52,.T.);
#952=ADVANCED_FACE('',(#91),#947,.T.);
#953=ADVANCED_FACE('',(#92),#53,.T.);
#954=ADVANCED_FACE('',(#93),#54,.T.);
#955=ADVANCED_FACE('',(#94),#35,.T.);
#956=ADVANCED_FACE('',(#95),#55,.F.);
#957=ADVANCED_FACE('',(#96,#15,#16),#56,.T.);
#958=ADVANCED_FACE('',(#97),#57,.T.);
#959=ADVANCED_FACE('',(#98),#36,.F.);
#960=ADVANCED_FACE('',(#99),#37,.T.);
#961=ADVANCED_FACE('',(#100),#58,.F.);
#962=ADVANCED_FACE('',(#101),#59,.T.);
#963=ADVANCED_FACE('',(#102),#38,.F.);
#964=ADVANCED_FACE('',(#103),#39,.F.);
#965=ADVANCED_FACE('',(#104),#60,.T.);
#966=ADVANCED_FACE('',(#105),#40,.F.);
#967=ADVANCED_FACE('',(#106),#61,.T.);
#968=ADVANCED_FACE('',(#107),#41,.F.);
#969=ADVANCED_FACE('',(#108),#62,.T.);
#970=ADVANCED_FACE('',(#109),#42,.T.);
#971=ADVANCED_FACE('',(#110),#63,.T.);
#972=ADVANCED_FACE('',(#111),#64,.T.);
#973=ADVANCED_FACE('',(#112,#17),#65,.T.);
#974=ADVANCED_FACE('',(#113),#43,.T.);
#975=ADVANCED_FACE('',(#114),#66,.F.);
#976=ADVANCED_FACE('',(#115),#44,.T.);
#977=ADVANCED_FACE('',(#116),#45,.F.);
#978=ADVANCED_FACE('',(#117),#67,.T.);
#979=ADVANCED_FACE('',(#118),#68,.T.);
#980=ADVANCED_FACE('',(#119,#18),#69,.T.);
#981=ADVANCED_FACE('',(#120),#70,.T.);
#982=ADVANCED_FACE('',(#121),#71,.T.);
#983=ADVANCED_FACE('',(#122),#72,.T.);
#984=ADVANCED_FACE('',(#123),#73,.T.);
#985=ADVANCED_FACE('',(#124),#74,.T.);
#986=ADVANCED_FACE('',(#125),#75,.T.);
#987=ADVANCED_FACE('',(#126),#76,.T.);
#988=ADVANCED_FACE('',(#127),#77,.T.);
#989=ADVANCED_FACE('',(#128),#46,.F.);
#990=ADVANCED_FACE('',(#129),#47,.F.);
#991=ADVANCED_FACE('',(#130,#19),#78,.T.);
#992=ADVANCED_FACE('',(#131),#79,.T.);
#993=ADVANCED_FACE('',(#132),#80,.T.);
#994=ADVANCED_FACE('',(#133),#81,.T.);
#995=ADVANCED_FACE('',(#134),#48,.F.);
#996=ADVANCED_FACE('',(#135,#20),#82,.F.);
#997=ADVANCED_FACE('',(#136),#83,.F.);
#998=ADVANCED_FACE('',(#137,#21),#84,.F.);
#999=ADVANCED_FACE('',(#138),#49,.T.);
#1000=ADVANCED_FACE('',(#139),#85,.F.);
#1001=ADVANCED_FACE('',(#140),#50,.F.);
#1002=ADVANCED_FACE('',(#141,#22),#86,.T.);
#1003=CLOSED_SHELL('',(#948,#949,#950,#951,#952,#953,#954,#955,#956,#957,
#958,#959,#960,#961,#962,#963,#964,#965,#966,#967,#968,#969,#970,#971,#972,
#973,#974,#975,#976,#977,#978,#979,#980,#981,#982,#983,#984,#985,#986,#987,
#988,#989,#990,#991,#992,#993,#994,#995,#996,#997,#998,#999,#1000,#1001,
#1002));
#1004=DERIVED_UNIT_ELEMENT(#1006,1.);
#1005=DERIVED_UNIT_ELEMENT(#1715,-3.);
#1006=(
MASS_UNIT()
NAMED_UNIT(*)
SI_UNIT(.KILO.,.GRAM.)
);
#1007=DERIVED_UNIT((#1004,#1005));
#1008=MEASURE_REPRESENTATION_ITEM('density measure',
POSITIVE_RATIO_MEASURE(7850.),#1007);
#1009=PROPERTY_DEFINITION_REPRESENTATION(#1014,#1011);
#1010=PROPERTY_DEFINITION_REPRESENTATION(#1015,#1012);
#1011=REPRESENTATION('material name',(#1013),#1712);
#1012=REPRESENTATION('density',(#1008),#1712);
#1013=DESCRIPTIVE_REPRESENTATION_ITEM('Steel','Steel');
#1014=PROPERTY_DEFINITION('material property','material name',#1722);
#1015=PROPERTY_DEFINITION('material property','density of part',#1722);
#1016=AXIS2_PLACEMENT_3D('',#1406,#1114,#1115);
#1017=AXIS2_PLACEMENT_3D('',#1407,#1116,#1117);
#1018=AXIS2_PLACEMENT_3D('',#1412,#1119,#1120);
#1019=AXIS2_PLACEMENT_3D('',#1415,#1122,#1123);
#1020=AXIS2_PLACEMENT_3D('',#1416,#1124,#1125);
#1021=AXIS2_PLACEMENT_3D('',#1422,#1129,#1130);
#1022=AXIS2_PLACEMENT_3D('',#1424,#1131,#1132);
#1023=AXIS2_PLACEMENT_3D('',#1427,#1134,#1135);
#1024=AXIS2_PLACEMENT_3D('',#1428,#1136,#1137);
#1025=AXIS2_PLACEMENT_3D('',#1434,#1141,#1142);
#1026=AXIS2_PLACEMENT_3D('',#1436,#1143,#1144);
#1027=AXIS2_PLACEMENT_3D('',#1439,#1146,#1147);
#1028=AXIS2_PLACEMENT_3D('',#1440,#1148,#1149);
#1029=AXIS2_PLACEMENT_3D('',#1443,#1152,#1153);
#1030=AXIS2_PLACEMENT_3D('',#1449,#1157,#1158);
#1031=AXIS2_PLACEMENT_3D('',#1453,#1160,#1161);
#1032=AXIS2_PLACEMENT_3D('',#1461,#1162,#1163);
#1033=AXIS2_PLACEMENT_3D('',#1462,#1164,#1165);
#1034=AXIS2_PLACEMENT_3D('',#1466,#1168,#1169);
#1035=AXIS2_PLACEMENT_3D('',#1468,#1170,#1171);
#1036=AXIS2_PLACEMENT_3D('',#1470,#1172,#1173);
#1037=AXIS2_PLACEMENT_3D('',#1471,#1174,#1175);
#1038=AXIS2_PLACEMENT_3D('',#1473,#1176,#1177);
#1039=AXIS2_PLACEMENT_3D('',#1481,#1181,#1182);
#1040=AXIS2_PLACEMENT_3D('',#1482,#1183,#1184);
#1041=AXIS2_PLACEMENT_3D('',#1483,#1185,#1186);
#1042=AXIS2_PLACEMENT_3D('',#1487,#1188,#1189);
#1043=AXIS2_PLACEMENT_3D('',#1489,#1191,#1192);
#1044=AXIS2_PLACEMENT_3D('',#1498,#1193,#1194);
#1045=AXIS2_PLACEMENT_3D('',#1500,#1196,#1197);
#1046=AXIS2_PLACEMENT_3D('',#1504,#1200,#1201);
#1047=AXIS2_PLACEMENT_3D('',#1511,#1205,#1206);
#1048=AXIS2_PLACEMENT_3D('',#1512,#1207,#1208);
#1049=AXIS2_PLACEMENT_3D('',#1515,#1210,#1211);
#1050=AXIS2_PLACEMENT_3D('',#1516,#1212,#1213);
#1051=AXIS2_PLACEMENT_3D('',#1519,#1215,#1216);
#1052=AXIS2_PLACEMENT_3D('',#1520,#1217,#1218);
#1053=AXIS2_PLACEMENT_3D('',#1521,#1219,#1220);
#1054=AXIS2_PLACEMENT_3D('',#1524,#1222,#1223);
#1055=AXIS2_PLACEMENT_3D('',#1525,#1224,#1225);
#1056=AXIS2_PLACEMENT_3D('',#1526,#1226,#1227);
#1057=AXIS2_PLACEMENT_3D('',#1529,#1228,#1229);
#1058=AXIS2_PLACEMENT_3D('',#1533,#1231,#1232);
#1059=AXIS2_PLACEMENT_3D('',#1535,#1234,#1235);
#1060=AXIS2_PLACEMENT_3D('',#1541,#1239,#1240);
#1061=AXIS2_PLACEMENT_3D('',#1542,#1241,#1242);
#1062=AXIS2_PLACEMENT_3D('',#1543,#1243,#1244);
#1063=AXIS2_PLACEMENT_3D('',#1544,#1245,#1246);
#1064=AXIS2_PLACEMENT_3D('',#1548,#1248,#1249);
#1065=AXIS2_PLACEMENT_3D('',#1558,#1255,#1256);
#1066=AXIS2_PLACEMENT_3D('',#1564,#1259,#1260);
#1067=AXIS2_PLACEMENT_3D('',#1566,#1262,#1263);
#1068=AXIS2_PLACEMENT_3D('',#1569,#1264,#1265);
#1069=AXIS2_PLACEMENT_3D('',#1578,#1270,#1271);
#1070=AXIS2_PLACEMENT_3D('',#1579,#1272,#1273);
#1071=AXIS2_PLACEMENT_3D('',#1584,#1276,#1277);
#1072=AXIS2_PLACEMENT_3D('',#1585,#1278,#1279);
#1073=AXIS2_PLACEMENT_3D('',#1591,#1282,#1283);
#1074=AXIS2_PLACEMENT_3D('',#1594,#1285,#1286);
#1075=AXIS2_PLACEMENT_3D('',#1595,#1287,#1288);
#1076=AXIS2_PLACEMENT_3D('',#1598,#1290,#1291);
#1077=AXIS2_PLACEMENT_3D('',#1599,#1292,#1293);
#1078=AXIS2_PLACEMENT_3D('',#1602,#1295,#1296);
#1079=AXIS2_PLACEMENT_3D('',#1603,#1297,#1298);
#1080=AXIS2_PLACEMENT_3D('',#1606,#1300,#1301);
#1081=AXIS2_PLACEMENT_3D('',#1607,#1302,#1303);
#1082=AXIS2_PLACEMENT_3D('',#1613,#1306,#1307);
#1083=AXIS2_PLACEMENT_3D('',#1615,#1309,#1310);
#1084=AXIS2_PLACEMENT_3D('',#1619,#1313,#1314);
#1085=AXIS2_PLACEMENT_3D('',#1635,#1323,#1324);
#1086=AXIS2_PLACEMENT_3D('',#1637,#1326,#1327);
#1087=AXIS2_PLACEMENT_3D('',#1643,#1331,#1332);
#1088=AXIS2_PLACEMENT_3D('',#1647,#1335,#1336);
#1089=AXIS2_PLACEMENT_3D('',#1651,#1339,#1340);
#1090=AXIS2_PLACEMENT_3D('',#1655,#1343,#1344);
#1091=AXIS2_PLACEMENT_3D('',#1659,#1347,#1348);
#1092=AXIS2_PLACEMENT_3D('',#1661,#1350,#1351);
#1093=AXIS2_PLACEMENT_3D('',#1662,#1352,#1353);
#1094=AXIS2_PLACEMENT_3D('',#1664,#1354,#1355);
#1095=AXIS2_PLACEMENT_3D('',#1667,#1357,#1358);
#1096=AXIS2_PLACEMENT_3D('',#1668,#1359,#1360);
#1097=AXIS2_PLACEMENT_3D('',#1670,#1361,#1362);
#1098=AXIS2_PLACEMENT_3D('',#1673,#1364,#1365);
#1099=AXIS2_PLACEMENT_3D('',#1674,#1366,#1367);
#1100=AXIS2_PLACEMENT_3D('',#1675,#1368,#1369);
#1101=AXIS2_PLACEMENT_3D('',#1677,#1371,#1372);
#1102=AXIS2_PLACEMENT_3D('',#1681,#1374,#1375);
#1103=AXIS2_PLACEMENT_3D('',#1685,#1377,#1378);
#1104=AXIS2_PLACEMENT_3D('',#1687,#1380,#1381);
#1105=AXIS2_PLACEMENT_3D('',#1689,#1383,#1384);
#1106=AXIS2_PLACEMENT_3D('',#1698,#1386,#1387);
#1107=AXIS2_PLACEMENT_3D('',#1699,#1388,#1389);
#1108=AXIS2_PLACEMENT_3D('',#1701,#1391,#1392);
#1109=AXIS2_PLACEMENT_3D('',#1703,#1394,#1395);
#1110=AXIS2_PLACEMENT_3D('',#1705,#1397,#1398);
#1111=AXIS2_PLACEMENT_3D('',#1706,#1399,#1400);
#1112=AXIS2_PLACEMENT_3D('',#1708,#1402,#1403);
#1113=AXIS2_PLACEMENT_3D('',#1709,#1404,#1405);
#1114=DIRECTION('axis',(0.,0.,1.));
#1115=DIRECTION('refdir',(1.,0.,0.));
#1116=DIRECTION('center_axis',(-1.10217123413713E-8,-0.999999999999997,
-8.30242008476079E-8));
#1117=DIRECTION('ref_axis',(-7.31371838377867E-16,-8.30242008018174E-8,
0.999999999999997));
#1118=DIRECTION('',(-0.702792622435171,0.707106782457421,0.0779905638741523));
#1119=DIRECTION('center_axis',(-1.10217123413711E-8,-0.999999999999997,
-8.30242047153492E-8));
#1120=DIRECTION('ref_axis',(-1.,1.10217123413711E-8,3.59893163472737E-25));
#1121=DIRECTION('',(-0.702792638022253,-0.707106766965437,-0.0779905638741619));
#1122=DIRECTION('center_axis',(1.10217123413711E-8,0.999999999999997,8.30242047153492E-8));
#1123=DIRECTION('ref_axis',(-1.,1.10217124316136E-8,7.85220865859232E-24));
#1124=DIRECTION('center_axis',(0.702792638022336,0.707106779915553,-0.0779904464602164));
#1125=DIRECTION('ref_axis',(-0.11029514692132,0.,-0.993898878440661));
#1126=DIRECTION('',(-0.702792622435058,0.707106782457537,0.0779905638741178));
#1127=DIRECTION('',(0.110295230143757,-8.37333054825231E-8,0.993898869205277));
#1128=DIRECTION('',(-0.110295230143757,8.37333054825231E-8,-0.993898869205277));
#1129=DIRECTION('center_axis',(-1.10217124316127E-8,-0.999999999999997,
-8.30242008475961E-8));
#1130=DIRECTION('ref_axis',(0.666972551855113,5.45086861424012E-8,-0.745082287450102));
#1131=DIRECTION('center_axis',(1.10217123413711E-8,0.999999999999997,8.30242047153492E-8));
#1132=DIRECTION('ref_axis',(0.666972551855113,5.45086873893515E-8,-0.745082287450102));
#1133=DIRECTION('',(7.79352603058935E-9,0.707106722479595,0.707106839893495));
#1134=DIRECTION('center_axis',(-1.10217123413711E-8,-0.999999999999997,
-8.30242047153492E-8));
#1135=DIRECTION('ref_axis',(0.666972551855113,5.45086847569008E-8,-0.745082287450102));
#1136=DIRECTION('center_axis',(7.79352818392088E-9,0.707106839893389,-0.707106722479702));
#1137=DIRECTION('ref_axis',(-1.,0.,-1.10217141715049E-8));
#1138=DIRECTION('',(-1.,1.10217123413711E-8,3.59893333319026E-25));
#1139=DIRECTION('',(7.793528385727E-9,0.707106722479702,0.707106839893389));
#1140=DIRECTION('',(1.,-1.10217123413711E-8,-3.59893333319022E-25));
#1141=DIRECTION('center_axis',(-1.10217124316111E-8,-0.999999999999997,
-8.30242008475843E-8));
#1142=DIRECTION('ref_axis',(-0.666972551855112,6.92110441864036E-8,-0.745082287450101));
#1143=DIRECTION('center_axis',(1.10217123413711E-8,0.999999999999997,8.30242047153492E-8));
#1144=DIRECTION('ref_axis',(-0.666972551855112,6.92110443819092E-8,-0.745082287450101));
#1145=DIRECTION('',(0.70279263802214,0.707106766965551,0.077990563874146));
#1146=DIRECTION('center_axis',(-1.10217123413711E-8,-0.999999999999997,
-8.30242047153492E-8));
#1147=DIRECTION('ref_axis',(-0.666972551855112,6.92110439691753E-8,-0.745082287450101));
#1148=DIRECTION('center_axis',(-0.702792622435154,0.707106795407637,-0.0779904464602021));
#1149=DIRECTION('ref_axis',(-0.110295149337769,0.,0.993898878172503));
#1150=DIRECTION('',(0.110295230143759,8.13020208839834E-8,-0.993898869205277));
#1151=DIRECTION('',(-0.110295230143759,-8.13020208839834E-8,0.993898869205277));
#1152=DIRECTION('center_axis',(9.15068897911602E-16,8.30242044003174E-8,
-0.999999999999997));
#1153=DIRECTION('ref_axis',(1.,-1.10217123413711E-8,-3.59893273736183E-25));
#1154=DIRECTION('',(1.10217123600029E-8,0.999999999999996,8.30242044003174E-8));
#1155=DIRECTION('',(-1.,1.10217125517941E-8,1.78300931747415E-23));
#1156=DIRECTION('',(-1.10217123816605E-8,-0.999999999999996,-8.30242044003174E-8));
#1157=DIRECTION('center_axis',(-1.10217123600029E-8,-0.999999999999997,
-8.30242044003174E-8));
#1158=DIRECTION('ref_axis',(0.666972551855113,5.45086873893515E-8,-0.745082287450102));
#1159=DIRECTION('',(-1.10217123600029E-8,-0.999999999999996,-8.30242044003174E-8));
#1160=DIRECTION('center_axis',(1.1021712551794E-8,0.999999999999997,8.30242030909897E-8));
#1161=DIRECTION('ref_axis',(0.666972551855113,5.45086873893515E-8,-0.745082287450102));
#1162=DIRECTION('center_axis',(7.54720913669311E-9,0.70710673860304,0.707106823770052));
#1163=DIRECTION('ref_axis',(8.03984593004542E-9,0.707106823770052,-0.707106738603041));
#1164=DIRECTION('center_axis',(-0.993898869205281,1.79729371947737E-9,0.110295230143758));
#1165=DIRECTION('ref_axis',(-0.110295230143757,8.37333054825232E-8,-0.993898869205277));
#1166=DIRECTION('',(-1.10217123886314E-8,-0.999999999999996,-8.30242046582965E-8));
#1167=DIRECTION('',(-0.110295230143757,8.37333038912827E-8,-0.993898869205277));
#1168=DIRECTION('center_axis',(1.10217123413711E-8,0.999999999999997,8.30242047153492E-8));
#1169=DIRECTION('ref_axis',(-1.,1.10217123413711E-8,8.14544447401108E-25));
#1170=DIRECTION('center_axis',(-1.10217123413711E-8,-0.999999999999997,
-8.30242047153492E-8));
#1171=DIRECTION('ref_axis',(4.36259905036947E-16,8.30242047132008E-8,-0.999999999999997));
#1172=DIRECTION('center_axis',(-1.10217123413711E-8,-0.999999999999997,
-8.30242047153492E-8));
#1173=DIRECTION('ref_axis',(4.36259905157371E-16,8.30242047132008E-8,-0.999999999999997));
#1174=DIRECTION('center_axis',(-7.54720913669311E-9,-0.70710673860304,-0.707106823770052));
#1175=DIRECTION('ref_axis',(-1.,-1.860219423044E-24,1.06733648764043E-8));
#1176=DIRECTION('center_axis',(-7.54720913669311E-9,-0.70710673860304,-0.707106823770052));
#1177=DIRECTION('ref_axis',(7.54720975357959E-9,0.707106823770052,-0.707106738603041));
#1178=DIRECTION('',(7.79352782281977E-9,0.707106823770052,-0.70710673860304));
#1179=DIRECTION('',(1.,-1.0673366190872E-8,2.89211605074926E-17));
#1180=DIRECTION('',(7.79352782281977E-9,0.707106823770052,-0.70710673860304));
#1181=DIRECTION('center_axis',(-7.54720913669311E-9,-0.70710673860304,-0.707106823770052));
#1182=DIRECTION('ref_axis',(7.54720909937441E-9,0.707106823770052,-0.707106738603041));
#1183=DIRECTION('center_axis',(7.54720913669311E-9,0.70710673860304,0.707106823770052));
#1184=DIRECTION('ref_axis',(8.03984628331623E-9,0.707106823770052,-0.707106738603041));
#1185=DIRECTION('center_axis',(4.3625260509466E-16,8.30242030909897E-8,
-0.999999999999997));
#1186=DIRECTION('ref_axis',(-0.707106773393026,0.707106788980067,5.87069775153913E-8));
#1187=DIRECTION('',(-4.3625260509466E-16,-8.30242030909897E-8,0.999999999999996));
#1188=DIRECTION('center_axis',(0.707106781186547,-6.65005047002986E-8,0.707106781186545));
#1189=DIRECTION('ref_axis',(-0.707106781186548,-5.09134493913446E-8,0.707106781186546));
#1190=DIRECTION('',(4.3625260509466E-16,8.30242030909897E-8,-0.999999999999996));
#1191=DIRECTION('center_axis',(1.10217123816605E-8,0.999999999999997,8.30242044003174E-8));
#1192=DIRECTION('ref_axis',(-0.666972551855112,6.92110443819091E-8,-0.745082287450101));
#1193=DIRECTION('center_axis',(1.1021712551794E-8,0.999999999999997,8.30242030909897E-8));
#1194=DIRECTION('ref_axis',(-0.666972551855112,6.92110443819091E-8,-0.745082287450101));
#1195=DIRECTION('',(1.10217123816605E-8,0.999999999999996,8.30242044003174E-8));
#1196=DIRECTION('center_axis',(0.993898869205281,-2.01116412046737E-8,0.110295230143758));
#1197=DIRECTION('ref_axis',(-0.110295230143759,-8.13020208839836E-8,0.993898869205277));
#1198=DIRECTION('',(0.110295230143759,8.13020192463258E-8,-0.993898869205277));
#1199=DIRECTION('',(-1.10217123246164E-8,-0.999999999999996,-8.30242049143566E-8));
#1200=DIRECTION('center_axis',(-1.1021712551794E-8,-0.999999999999997,-8.30242030909897E-8));
#1201=DIRECTION('ref_axis',(1.,-1.1021712551794E-8,-4.78816296260838E-16));
#1202=DIRECTION('',(4.36252605068812E-16,8.30242030909897E-8,-0.999999999999996));
#1203=DIRECTION('',(1.,-1.1021712551794E-8,-4.78809014298706E-16));
#1204=DIRECTION('',(-4.36259887011963E-16,-8.30242030909896E-8,0.999999999999996));
#1205=DIRECTION('center_axis',(1.1021712551794E-8,0.999999999999997,8.30242030909897E-8));
#1206=DIRECTION('ref_axis',(-1.,1.10217124316136E-8,7.85220865859232E-24));
#1207=DIRECTION('center_axis',(-4.36252605068812E-16,-8.30242030909897E-8,
0.999999999999997));
#1208=DIRECTION('ref_axis',(0.707106788980074,0.707106773393019,5.87069764686624E-8));
#1209=DIRECTION('',(-4.36252605068812E-16,-8.30242030909897E-8,0.999999999999996));
#1210=DIRECTION('center_axis',(-4.36259923911166E-16,-8.30242064388553E-8,
0.999999999999997));
#1211=DIRECTION('ref_axis',(0.707106788980074,0.707106773393019,5.87069764686624E-8));
#1212=DIRECTION('center_axis',(-1.20194976325378E-8,-0.996194705327778,
0.0871556600393891));
#1213=DIRECTION('ref_axis',(-1.,1.20654101226789E-8,5.65461175084723E-16));
#1214=DIRECTION('',(-1.20194976325378E-8,-0.996194705327778,0.0871556600393891));
#1215=DIRECTION('center_axis',(-1.20194976325378E-8,-0.996194705327778,
0.0871556600393892));
#1216=DIRECTION('ref_axis',(-1.,1.20654101226789E-8,5.65461175099743E-16));
#1217=DIRECTION('center_axis',(1.20194976325378E-8,0.996194705327778,-0.0871556600393892));
#1218=DIRECTION('ref_axis',(-1.,1.20654101226789E-8,5.65461175099743E-16));
#1219=DIRECTION('center_axis',(-1.20194976325378E-8,-0.996194705327778,
0.0871556600393891));
#1220=DIRECTION('ref_axis',(-1.,1.20654101226789E-8,5.65461175065405E-16));
#1221=DIRECTION('',(-1.20194976325378E-8,-0.996194705327778,0.0871556600393891));
#1222=DIRECTION('center_axis',(-1.20194976325378E-8,-0.996194705327778,
0.0871556600393892));
#1223=DIRECTION('ref_axis',(-1.,1.20654101226789E-8,5.65461175080424E-16));
#1224=DIRECTION('center_axis',(1.20194976325378E-8,0.996194705327778,-0.0871556600393892));
#1225=DIRECTION('ref_axis',(-1.,1.20654101226789E-8,5.65461175080424E-16));
#1226=DIRECTION('center_axis',(1.,-1.06733661619508E-8,-3.483466172595E-10));
#1227=DIRECTION('ref_axis',(9.99421079181188E-9,0.923879505371229,0.382683497886978));
#1228=DIRECTION('center_axis',(-1.,1.10217125608286E-8,4.78816296991936E-16));
#1229=DIRECTION('ref_axis',(-4.21782707311417E-9,-0.382683497886978,0.923879505371229));
#1230=DIRECTION('',(1.,-1.06733661619508E-8,-3.483466172595E-10));
#1231=DIRECTION('center_axis',(1.,-1.10217125608286E-8,-4.78816296966088E-16));
#1232=DIRECTION('ref_axis',(-4.21782707311417E-9,-0.382683497886978,0.923879505371229));
#1233=DIRECTION('',(-1.,1.06733661619508E-8,3.483466172595E-10));
#1234=DIRECTION('center_axis',(-1.0673366190872E-8,-0.999999999999997,-8.30242017545723E-8));
#1235=DIRECTION('ref_axis',(-1.,1.0673366190872E-8,4.4786442826614E-16));
#1236=DIRECTION('',(4.36252585670202E-16,8.30242017545722E-8,-0.999999999999996));
#1237=DIRECTION('',(-1.,1.0673366190872E-8,-2.89211605382607E-17));
#1238=DIRECTION('',(4.36252590365051E-16,8.30242017545723E-8,-0.999999999999996));
#1239=DIRECTION('center_axis',(1.,-1.0673366190872E-8,2.89211605382607E-17));
#1240=DIRECTION('ref_axis',(-9.86090426313063E-9,-0.923879505102277,-0.382683498536286));
#1241=DIRECTION('center_axis',(-1.,1.10217125608286E-8,4.78816296966088E-16));
#1242=DIRECTION('ref_axis',(4.21782708027065E-9,0.382683498536286,-0.923879505102277));
#1243=DIRECTION('center_axis',(1.,-1.10217125608286E-8,-4.78816296991936E-16));
#1244=DIRECTION('ref_axis',(4.21782708027065E-9,0.382683498536286,-0.923879505102277));
#1245=DIRECTION('center_axis',(-1.,1.10217125608286E-8,4.78816296991936E-16));
#1246=DIRECTION('ref_axis',(4.36252040501832E-16,8.30241518678266E-8,-0.999999999999996));
#1247=DIRECTION('',(7.79352781186505E-9,0.707106822776131,-0.707106739596962));
#1248=DIRECTION('center_axis',(1.,-1.10217125608286E-8,-4.78816296991936E-16));
#1249=DIRECTION('ref_axis',(-1.01827343277294E-8,-0.92387950537123,-0.382683497886977));
#1250=DIRECTION('',(4.36252040501831E-16,8.30241518678265E-8,-0.999999999999996));
#1251=DIRECTION('',(1.10217124316136E-8,0.999999999999996,8.3024204844406E-8));
#1252=DIRECTION('',(-5.51085590260839E-9,-0.499999928098923,-0.866025445296541));
#1253=DIRECTION('',(5.51085665822021E-9,0.500000071901074,-0.866025362272331));
#1254=DIRECTION('',(1.10217125608286E-8,0.999999999999996,8.30242064388553E-8));
#1255=DIRECTION('center_axis',(-7.79352741705675E-9,-0.707106739596962,
-0.707106822776131));
#1256=DIRECTION('ref_axis',(-1.,4.97404342955034E-25,1.10217115236691E-8));
#1257=DIRECTION('',(7.79352781186505E-9,0.707106822776131,-0.707106739596962));
#1258=DIRECTION('',(0.577350284870543,0.577350292125225,-0.577350230573108));
#1259=DIRECTION('center_axis',(-7.79352741705675E-9,-0.707106739596962,
-0.707106822776131));
#1260=DIRECTION('ref_axis',(7.79352788747584E-9,0.707106822776131,-0.707106739596962));
#1261=DIRECTION('',(1.,-1.10217123413711E-8,-4.78816281236935E-16));
#1262=DIRECTION('center_axis',(1.,-1.10217127712518E-8,-4.7881627336468E-16));
#1263=DIRECTION('ref_axis',(1.10217127712518E-8,0.999999999999996,8.30242044003167E-8));
#1264=DIRECTION('center_axis',(1.,-1.102171027325E-8,-4.78816065969968E-16));
#1265=DIRECTION('ref_axis',(-1.102171027325E-8,-0.999999999999996,-8.30242443683456E-8));
#1266=DIRECTION('',(-1.10217127712518E-8,-0.999999999999996,-8.30242044058823E-8));
#1267=DIRECTION('',(-5.98026963547785E-16,-8.30242126831563E-8,0.999999999999996));
#1268=DIRECTION('',(1.10217124316136E-8,0.999999999999996,8.3024204844406E-8));
#1269=DIRECTION('',(7.96919994764598E-15,1.20225388933388E-7,-0.999999999999993));
#1270=DIRECTION('center_axis',(-1.,1.10217127712518E-8,4.7881627336468E-16));
#1271=DIRECTION('ref_axis',(1.10217127712518E-8,0.999999999999997,8.30242044003167E-8));
#1272=DIRECTION('center_axis',(-1.,1.10217102801425E-8,4.78808825696643E-16));
#1273=DIRECTION('ref_axis',(-1.10217102801425E-8,-0.999999999999996,-8.30242443683457E-8));
#1274=DIRECTION('',(-1.,1.10217102801425E-8,4.78808825696643E-16));
#1275=DIRECTION('',(1.,-1.10217095566552E-8,-4.78808765629685E-16));
#1276=DIRECTION('center_axis',(-1.,1.10217125531593E-8,4.7881629637419E-16));
#1277=DIRECTION('ref_axis',(-1.10217102801425E-8,-0.999999999999996,-8.30242443683456E-8));
#1278=DIRECTION('center_axis',(-1.10217125261811E-8,-0.999999999999997,
-8.30242042671043E-8));
#1279=DIRECTION('ref_axis',(-8.53836608634656E-16,-8.30242042671043E-8,
0.999999999999996));
#1280=DIRECTION('',(1.,-1.10217125261811E-8,-4.78809014533814E-16));
#1281=DIRECTION('',(4.36252618012618E-16,8.30242042671042E-8,-0.999999999999996));
#1282=DIRECTION('center_axis',(1.10217125261811E-8,0.999999999999997,8.30242042671043E-8));
#1283=DIRECTION('ref_axis',(1.,-1.10217125542575E-8,-4.78816296465366E-16));
#1284=DIRECTION('',(-1.,1.10217125261812E-8,6.39818887177748E-17));
#1285=DIRECTION('center_axis',(1.10217125261811E-8,0.999999999999997,8.30242042671043E-8));
#1286=DIRECTION('ref_axis',(-1.,1.10217124316136E-8,7.85220865859232E-24));
#1287=DIRECTION('center_axis',(1.10217124316136E-8,0.999999999999997,8.3024204844406E-8));
#1288=DIRECTION('ref_axis',(-0.0871986745466885,-8.17468820439065E-8,0.996190941113848));
#1289=DIRECTION('',(-1.10217124316136E-8,-0.999999999999996,-8.3024204844406E-8));
#1290=DIRECTION('center_axis',(9.54508068732715E-9,0.866025445296541,-0.499999928098923));
#1291=DIRECTION('ref_axis',(5.51085542333383E-9,0.499999928098923,0.866025445296541));
#1292=DIRECTION('center_axis',(-1.10217095566552E-8,-0.999999999999993,
-1.20225388933388E-7));
#1293=DIRECTION('ref_axis',(-1.3250896559505E-15,-1.20225388933388E-7,0.999999999999993));
#1294=DIRECTION('',(-1.10217124316136E-8,-0.999999999999996,-8.3024204844406E-8));
#1295=DIRECTION('center_axis',(-1.1021712551794E-8,-0.999999999999997,-8.30242030909897E-8));
#1296=DIRECTION('ref_axis',(-1.,1.10217124316136E-8,7.85220865859232E-24));
#1297=DIRECTION('center_axis',(1.,-1.10217095566552E-8,-4.78808765629685E-16));
#1298=DIRECTION('ref_axis',(1.10217095566552E-8,0.999999999999997,8.30242044003168E-8));
#1299=DIRECTION('',(-1.,1.10217095566552E-8,4.78808765629685E-16));
#1300=DIRECTION('center_axis',(1.,-1.10217125608286E-8,-4.78816297010925E-16));
#1301=DIRECTION('ref_axis',(1.10217095566552E-8,0.999999999999997,8.30242044003167E-8));
#1302=DIRECTION('center_axis',(-1.10217095566552E-8,-0.999999999999993,
-1.20225388933388E-7));
#1303=DIRECTION('ref_axis',(7.96919994764598E-15,1.20225388933388E-7,-0.999999999999993));
#1304=DIRECTION('',(-1.,1.10217123413711E-8,4.78816281226834E-16));
#1305=DIRECTION('',(-4.36252622953046E-16,-8.30242047153492E-8,0.999999999999996));
#1306=DIRECTION('center_axis',(-1.10217095566552E-8,-0.999999999999993,
-1.20225388933388E-7));
#1307=DIRECTION('ref_axis',(8.46273382082252E-16,1.20225388933388E-7,-0.999999999999993));
#1308=DIRECTION('',(4.36252622953046E-16,8.30242047153492E-8,-0.999999999999996));
#1309=DIRECTION('center_axis',(4.36259923911166E-16,8.30242064388553E-8,
-0.999999999999997));
#1310=DIRECTION('ref_axis',(-1.10217125608286E-8,-0.999999999999996,-8.30242064388553E-8));
#1311=DIRECTION('',(-1.,1.10217095566552E-8,4.78808765629685E-16));
#1312=DIRECTION('',(-1.10217125608286E-8,-0.999999999999996,-8.30242064388552E-8));
#1313=DIRECTION('center_axis',(-1.,1.10217095566552E-8,4.78808765629685E-16));
#1314=DIRECTION('ref_axis',(-4.36259904869379E-16,-8.30242047111934E-8,
0.999999999999996));
#1315=DIRECTION('',(-5.51085665822021E-9,-0.500000071901073,0.866025362272331));
#1316=DIRECTION('',(5.51085590260839E-9,0.499999928098923,0.866025445296541));
#1317=DIRECTION('',(5.51085590260839E-9,0.499999928098922,0.866025445296541));
#1318=DIRECTION('',(-5.51085665822022E-9,-0.500000071901074,0.86602536227233));
#1319=DIRECTION('',(-1.10217125608286E-8,-0.999999999999996,-8.30242105487587E-8));
#1320=DIRECTION('',(-5.51085590260839E-9,-0.499999928098923,-0.866025445296541));
#1321=DIRECTION('',(5.51085665822023E-9,0.500000071901075,-0.86602536227233));
#1322=DIRECTION('',(1.10217125608286E-8,0.999999999999996,8.30242069432037E-8));
#1323=DIRECTION('center_axis',(-9.54508068732715E-9,-0.866025445296541,
0.499999928098923));
#1324=DIRECTION('ref_axis',(5.51085590260839E-9,0.499999928098923,0.866025445296541));
#1325=DIRECTION('',(-1.,1.10217095566552E-8,4.78808765629685E-16));
#1326=DIRECTION('center_axis',(-4.36259929469948E-16,-8.30242069432038E-8,
0.999999999999997));
#1327=DIRECTION('ref_axis',(1.10217125608286E-8,0.999999999999996,8.30242069432038E-8));
#1328=DIRECTION('',(-1.10217125608286E-8,-0.999999999999996,-8.30242069432038E-8));
#1329=DIRECTION('',(-1.,1.10217095566552E-8,4.78808765629685E-16));
#1330=DIRECTION('',(-1.,1.10217095566552E-8,4.78808765629685E-16));
#1331=DIRECTION('center_axis',(9.54508025106717E-9,0.86602536227233,0.500000071901075));
#1332=DIRECTION('ref_axis',(5.51085665822023E-9,0.500000071901075,-0.86602536227233));
#1333=DIRECTION('',(-5.51085665822023E-9,-0.500000071901075,0.866025362272329));
#1334=DIRECTION('',(-1.,1.10217095566552E-8,4.78808765629685E-16));
#1335=DIRECTION('center_axis',(9.54508068732715E-9,0.866025445296541,-0.499999928098923));
#1336=DIRECTION('ref_axis',(-5.51085590260839E-9,-0.499999928098923,-0.866025445296541));
#1337=DIRECTION('',(5.51085590260839E-9,0.499999928098923,0.866025445296541));
#1338=DIRECTION('',(-1.,1.10217095566552E-8,4.78808765629685E-16));
#1339=DIRECTION('center_axis',(4.36259969209329E-16,8.30242105487588E-8,
-0.999999999999997));
#1340=DIRECTION('ref_axis',(-1.10217125608286E-8,-0.999999999999996,-8.30242105487588E-8));
#1341=DIRECTION('',(1.10217125608286E-8,0.999999999999996,8.30242105487588E-8));
#1342=DIRECTION('',(-1.,1.10217095566552E-8,4.78808765629685E-16));
#1343=DIRECTION('center_axis',(-9.54508025106718E-9,-0.86602536227233,-0.500000071901074));
#1344=DIRECTION('ref_axis',(-5.51085665822022E-9,-0.500000071901074,0.86602536227233));
#1345=DIRECTION('',(5.51085665822021E-9,0.500000071901074,-0.86602536227233));
#1346=DIRECTION('',(-1.,1.10217095566552E-8,4.78808765629685E-16));
#1347=DIRECTION('center_axis',(-9.54508068732715E-9,-0.866025445296541,
0.499999928098922));
#1348=DIRECTION('ref_axis',(5.51085590260839E-9,0.499999928098922,0.866025445296541));
#1349=DIRECTION('',(-5.51085590260839E-9,-0.499999928098922,-0.866025445296541));
#1350=DIRECTION('center_axis',(-9.54508025106718E-9,-0.866025362272331,
-0.500000071901074));
#1351=DIRECTION('ref_axis',(-5.51085665822021E-9,-0.500000071901073,0.866025362272331));
#1352=DIRECTION('center_axis',(-1.,1.1021713370796E-8,4.78809082295687E-16));
#1353=DIRECTION('ref_axis',(1.1021713370796E-8,0.999999999999996,8.30242044003168E-8));
#1354=DIRECTION('center_axis',(-1.,1.10217125608286E-8,4.78816297010925E-16));
#1355=DIRECTION('ref_axis',(1.1021713370796E-8,0.999999999999996,8.30242044003167E-8));
#1356=DIRECTION('',(-1.,1.1021713370796E-8,4.78809082295687E-16));
#1357=DIRECTION('center_axis',(1.,-1.10217125531593E-8,-4.7881629637419E-16));
#1358=DIRECTION('ref_axis',(1.1021713370796E-8,0.999999999999996,8.30242044003168E-8));
#1359=DIRECTION('center_axis',(-1.,1.1021713370796E-8,4.78809082295687E-16));
#1360=DIRECTION('ref_axis',(1.1021713370796E-8,0.999999999999996,8.30242044003168E-8));
#1361=DIRECTION('center_axis',(-1.,1.10217125531593E-8,4.78816296374191E-16));
#1362=DIRECTION('ref_axis',(1.1021713370796E-8,0.999999999999996,8.30242044003168E-8));
#1363=DIRECTION('',(-1.,1.1021713370796E-8,4.78809082295687E-16));
#1364=DIRECTION('center_axis',(1.,-1.10217125608286E-8,-4.78816296991936E-16));
#1365=DIRECTION('ref_axis',(1.1021713370796E-8,0.999999999999996,8.30242044003168E-8));
#1366=DIRECTION('center_axis',(-1.,1.10217125608286E-8,4.78816296991936E-16));
#1367=DIRECTION('ref_axis',(4.36252040501831E-16,8.30241518678266E-8,-0.999999999999996));
#1368=DIRECTION('center_axis',(1.,-1.10217125608286E-8,-4.78816296966088E-16));
#1369=DIRECTION('ref_axis',(-4.3625260509466E-16,-8.30242030909897E-8,0.999999999999996));
#1370=DIRECTION('',(-1.10217125608286E-8,-0.999999999999996,-8.30242030909894E-8));
#1371=DIRECTION('center_axis',(-1.1021712551794E-8,-0.999999999999997,-8.30242030909897E-8));
#1372=DIRECTION('ref_axis',(1.,-1.1021712551794E-8,-4.78816296260838E-16));
#1373=DIRECTION('',(1.,-1.10217125517941E-8,-6.39818908442651E-17));
#1374=DIRECTION('center_axis',(1.1021712551794E-8,0.999999999999997,8.30242030909897E-8));
#1375=DIRECTION('ref_axis',(1.,-1.10217125542575E-8,-4.78816296465366E-16));
#1376=DIRECTION('',(-4.36252605049822E-16,-8.30242030909898E-8,0.999999999999996));
#1377=DIRECTION('center_axis',(-1.1021712551794E-8,-0.999999999999997,-8.30242030909897E-8));
#1378=DIRECTION('ref_axis',(-0.923879532511287,4.1954713392322E-8,-0.382683432365088));
#1379=DIRECTION('',(0.707106781186548,5.09134493225855E-8,-0.707106781186545));
#1380=DIRECTION('center_axis',(0.707106781186547,-6.65005047002986E-8,0.707106781186545));
#1381=DIRECTION('ref_axis',(0.707106781186546,-9.08816968221552E-24,-0.707106781186549));
#1382=DIRECTION('',(1.10217125531593E-8,0.999999999999996,8.30242030986587E-8));
#1383=DIRECTION('center_axis',(1.10217125531593E-8,0.999999999999997,8.30242030986587E-8));
#1384=DIRECTION('ref_axis',(-0.923879532511287,4.1954713392322E-8,-0.382683432365088));
#1385=DIRECTION('',(-1.10217125531593E-8,-0.999999999999996,-8.30242030986587E-8));
#1386=DIRECTION('center_axis',(-1.,1.10217125531593E-8,4.78816296374191E-16));
#1387=DIRECTION('ref_axis',(-4.36252605049822E-16,-8.30242030909898E-8,
0.999999999999996));
#1388=DIRECTION('center_axis',(-1.,1.10217125531593E-8,4.7881629637419E-16));
#1389=DIRECTION('ref_axis',(-1.01827343277294E-8,-0.92387950537123,-0.382683497886977));
#1390=DIRECTION('',(1.10217125542575E-8,0.999999999999996,8.30242029160521E-8));
#1391=DIRECTION('center_axis',(-4.36259899142725E-16,-8.30242044058824E-8,
0.999999999999997));
#1392=DIRECTION('ref_axis',(1.,-1.10217125517943E-8,-4.78809016660323E-16));
#1393=DIRECTION('',(-1.10217125531593E-8,-0.999999999999996,-8.30242044058823E-8));
#1394=DIRECTION('center_axis',(1.,-1.10217125531593E-8,-4.7881629637419E-16));
#1395=DIRECTION('ref_axis',(4.36252605049822E-16,8.30242030909897E-8,-0.999999999999996));
#1396=DIRECTION('',(1.10217125542575E-8,0.999999999999996,8.30242029160522E-8));
#1397=DIRECTION('center_axis',(-1.,1.10217123413711E-8,4.78816281226834E-16));
#1398=DIRECTION('ref_axis',(-1.01827343277294E-8,-0.92387950537123,-0.382683497886977));
#1399=DIRECTION('center_axis',(-8.51087023429193E-16,-8.30242042671043E-8,
0.999999999999997));
#1400=DIRECTION('ref_axis',(1.10217126652797E-8,0.999999999999996,8.30242042671043E-8));
#1401=DIRECTION('',(-1.10217125542575E-8,-0.999999999999996,-8.30242029160521E-8));
#1402=DIRECTION('center_axis',(1.10217125542575E-8,0.999999999999997,8.30242029160522E-8));
#1403=DIRECTION('ref_axis',(-0.0165766696565162,-8.28300919009141E-8,0.999862597571832));
#1404=DIRECTION('center_axis',(1.,-1.10217125608286E-8,-4.78816297010925E-16));
#1405=DIRECTION('ref_axis',(-4.36252605049821E-16,-8.30242030909896E-8,
0.999999999999996));
#1406=CARTESIAN_POINT('',(0.,0.,0.));
#1407=CARTESIAN_POINT('Origin',(6.02849483173762E-6,431.668537604163,29.983310798816));
#1408=CARTESIAN_POINT('',(16.9956766891497,431.418537573429,28.0972623426017));
#1409=CARTESIAN_POINT('',(16.4987272600579,431.918537574328,28.1524099991856));
#1410=CARTESIAN_POINT('',(16.9956766891497,431.418537573429,28.0972623426017));
#1411=CARTESIAN_POINT('',(-16.4987151975574,431.918537938016,28.1524099991856));
#1412=CARTESIAN_POINT('Origin',(6.03125025982297E-6,431.918537604163,29.983310819572));
#1413=CARTESIAN_POINT('',(-16.9956646376709,431.418537948072,28.0972623426017));
#1414=CARTESIAN_POINT('',(-16.4987151975574,431.918537938016,28.1524099991856));
#1415=CARTESIAN_POINT('Origin',(6.02573940365228E-6,431.418537604163,29.9833107780599));
#1416=CARTESIAN_POINT('Origin',(16.7472019746038,431.668537573878,28.1248361708937));
#1417=CARTESIAN_POINT('',(9.051698480796,431.418543604293,-43.4879816247326));
#1418=CARTESIAN_POINT('',(8.55474905170422,431.918543605192,-43.4328339681486));
#1419=CARTESIAN_POINT('',(9.051698480796,431.418543604293,-43.4879816247326));
#1420=CARTESIAN_POINT('',(16.498727260058,431.918537574328,28.1524099991856));
#1421=CARTESIAN_POINT('',(16.9956766891497,431.418537573429,28.0972623426017));
#1422=CARTESIAN_POINT('Origin',(4.08220413752503,431.66854361328,-42.9365054532578));
#1423=CARTESIAN_POINT('',(4.08220413476961,431.418544028401,-47.9365054740138));
#1424=CARTESIAN_POINT('Origin',(4.0822041347696,431.41854361328,-42.9365054740138));
#1425=CARTESIAN_POINT('',(4.08220414028046,431.918543986889,-47.4365054325017));
#1426=CARTESIAN_POINT('',(4.08220413476961,431.418544028401,-47.9365054740138));
#1427=CARTESIAN_POINT('Origin',(4.08220414028046,431.91854361328,-42.9365054325017));
#1428=CARTESIAN_POINT('Origin',(-7.4999939715051,431.6685441353,-47.6865054532577));
#1429=CARTESIAN_POINT('',(-4.08219208329067,431.418544118386,-47.9365054740138));
#1430=CARTESIAN_POINT('',(-7.49999397426053,431.418544156056,-47.9365054740138));
#1431=CARTESIAN_POINT('',(-4.08219207777981,431.918544076874,-47.4365054325017));
#1432=CARTESIAN_POINT('',(-4.08219208329067,431.418544118386,-47.9365054740138));
#1433=CARTESIAN_POINT('',(-7.49999396874967,431.918544114544,-47.4365054325017));
#1434=CARTESIAN_POINT('Origin',(-4.08219208053524,431.668543703265,-42.9365054532577));
#1435=CARTESIAN_POINT('',(-9.05168642931708,431.418543803823,-43.4879816247326));
#1436=CARTESIAN_POINT('Origin',(-4.08219208329067,431.418543703265,-42.9365054740138));
#1437=CARTESIAN_POINT('',(-8.55473698920358,431.918543793768,-43.4328339681486));
#1438=CARTESIAN_POINT('',(-9.05168642931708,431.418543803823,-43.4879816247326));
#1439=CARTESIAN_POINT('Origin',(-4.08219207777981,431.918543703265,-42.9365054325017));
#1440=CARTESIAN_POINT('Origin',(-12.7929483985745,431.668540857837,-7.50785772906502));
#1441=CARTESIAN_POINT('',(-12.5444736785178,431.918540852809,-7.48028390077303));
#1442=CARTESIAN_POINT('',(-13.0414231186313,431.418540862865,-7.53543155735701));
#1443=CARTESIAN_POINT('Origin',(-14.9999939026194,437.918544238719,-47.9365049343564));
#1444=CARTESIAN_POINT('',(4.08220403006333,421.918543117342,-47.9365062627438));
#1445=CARTESIAN_POINT('',(4.08220419538902,436.9185440284,-47.9365050173807));
#1446=CARTESIAN_POINT('',(-4.08219218799694,421.918543207328,-47.9365062627438));
#1447=CARTESIAN_POINT('',(-7.49999407896681,421.918543244998,-47.9365062627438));
#1448=CARTESIAN_POINT('',(-4.08219202267125,436.918544118386,-47.9365050173807));
#1449=CARTESIAN_POINT('Origin',(4.08220419538902,436.918543613279,-42.9365050173807));
#1450=CARTESIAN_POINT('',(9.05169837608973,421.918542693235,-43.4879824134626));
#1451=CARTESIAN_POINT('',(9.05169854141542,436.918543604293,-43.4879811680995));
#1452=CARTESIAN_POINT('',(6.12637258247288,421.918543058534,-47.4995507430595));
#1453=CARTESIAN_POINT('Origin',(4.08220403006332,421.918542702221,-42.9365062627438));
#1454=CARTESIAN_POINT('',(5.23642055552652,421.783501276765,-47.8014609714745));
#1455=CARTESIAN_POINT('Ctrl Pts',(6.12637258247287,421.918543058534,-47.4995507430595));
#1456=CARTESIAN_POINT('Ctrl Pts',(5.85200261826033,421.918543071763,-47.6224639548392));
#1457=CARTESIAN_POINT('Ctrl Pts',(5.56969459616646,421.879250213148,-47.7179110514292));
#1458=CARTESIAN_POINT('Ctrl Pts',(5.28241501145901,421.797482539579,-47.7903749736365));
#1459=CARTESIAN_POINT('Ctrl Pts',(5.25950339498974,421.790671579547,-47.7959845386485));
#1460=CARTESIAN_POINT('Ctrl Pts',(5.23642055552652,421.783501276765,-47.8014609714745));
#1461=CARTESIAN_POINT('Origin',(4.0822039749548,416.918546409519,-42.9365066778645));
#1462=CARTESIAN_POINT('Origin',(16.9956767387474,435.918537573429,28.0972627162106));
#1463=CARTESIAN_POINT('',(16.9956765844435,421.918536662371,28.0972615538716));
#1464=CARTESIAN_POINT('',(16.9956767387474,435.918537573429,28.0972627162106));
#1465=CARTESIAN_POINT('',(16.7149711125093,421.918536875475,25.5677518844915));
#1466=CARTESIAN_POINT('Origin',(6.03125026014616E-6,431.918537604163,29.983310819572));
#1467=CARTESIAN_POINT('',(1.50000602621352,431.918542745567,-32.1423886128568));
#1468=CARTESIAN_POINT('Origin',(6.02621351913E-6,431.918542762099,-32.1423886127199));
#1469=CARTESIAN_POINT('',(1.50000600312277,431.918537987786,25.1635607008682));
#1470=CARTESIAN_POINT('Origin',(6.00312276927947E-6,431.918538004319,25.1635607010052));
#1471=CARTESIAN_POINT('Origin',(-4.99999411616426,418.259169511623,-44.2771295215608));
#1472=CARTESIAN_POINT('',(3.12637254940774,418.918542878804,-44.9365028960598));
#1473=CARTESIAN_POINT('Origin',(6.12637254940774,418.918542845739,-44.9365028950148));
#1474=CARTESIAN_POINT('',(3.12637250692692,415.064258250875,-41.0822187323577));
#1475=CARTESIAN_POINT('',(3.12637243853327,408.858902377798,-34.8768636066807));
#1476=CARTESIAN_POINT('',(-3.12636060344637,415.064258317464,-41.0822187325067));
#1477=CARTESIAN_POINT('',(5.84700783587823E-6,415.064258284244,-41.0822187323577));
#1478=CARTESIAN_POINT('',(-3.12636056096555,418.91854294772,-44.9365028985359));
#1479=CARTESIAN_POINT('',(-3.12636071799873,404.670921300091,-30.6888829669517));
#1480=CARTESIAN_POINT('',(-5.23640858919861,421.783501418733,-47.8014610016619));
#1481=CARTESIAN_POINT('Origin',(-6.12636056079716,418.918542980785,-44.9365028992829));
#1482=CARTESIAN_POINT('Origin',(-4.08219224310547,416.91854649666,-42.9365066778645));
#1483=CARTESIAN_POINT('Origin',(6.12637254940771,418.918538208077,10.9226495428015));
#1484=CARTESIAN_POINT('',(6.12637258247286,421.918539291459,-2.12633233660017));
#1485=CARTESIAN_POINT('',(6.12637258247285,421.918538208077,10.9226497918741));
#1486=CARTESIAN_POINT('',(3.12637254940771,418.918539075451,0.873667414327215));
#1487=CARTESIAN_POINT('Origin',(6.12637254940772,418.918539291459,-2.12633258567278));
#1488=CARTESIAN_POINT('',(3.12637254940771,418.918538241143,10.9226495428015));
#1489=CARTESIAN_POINT('Origin',(-4.08219202267125,436.918543703265,-42.9365050173807));
#1490=CARTESIAN_POINT('',(-6.12636052773202,421.91854319358,-47.4995508383342));
#1491=CARTESIAN_POINT('Ctrl Pts',(-5.23640858919861,421.783501418733,-47.8014610016619));
#1492=CARTESIAN_POINT('Ctrl Pts',(-5.25949141932376,421.790671718417,-47.7959845716516));
#1493=CARTESIAN_POINT('Ctrl Pts',(-5.28240302658584,421.797482675644,-47.790375009563));
#1494=CARTESIAN_POINT('Ctrl Pts',(-5.56968258227762,421.879250341523,-47.7179111039482));
#1495=CARTESIAN_POINT('Ctrl Pts',(-5.85199058170563,421.918543200761,-47.6224640266125));
#1496=CARTESIAN_POINT('Ctrl Pts',(-6.12636052773201,421.91854319358,-47.4995508383342));
#1497=CARTESIAN_POINT('',(-9.05168653402335,421.918542892765,-43.4879824134626));
#1498=CARTESIAN_POINT('Origin',(-4.08219218799695,421.918542792207,-42.9365062627438));
#1499=CARTESIAN_POINT('',(-9.05168636869766,436.918543803823,-43.4879811680995));
#1500=CARTESIAN_POINT('Origin',(-9.08718154999394,435.918543777659,-43.1681250837068));
#1501=CARTESIAN_POINT('',(-16.9956647423772,421.918537037013,28.0972615538716));
#1502=CARTESIAN_POINT('',(-12.7607177514034,421.918540158724,-10.0649420154672));
#1503=CARTESIAN_POINT('',(-16.9956645880732,435.918537948072,28.0972627162106));
#1504=CARTESIAN_POINT('Origin',(5.92103312990469E-6,421.918537118298,24.8619895944182));
#1505=CARTESIAN_POINT('',(-6.12636052773204,421.918538837837,4.96397819680324));
#1506=CARTESIAN_POINT('',(-6.12636052773205,421.918537647716,19.2986113872382));
#1507=CARTESIAN_POINT('',(-6.52636052773211,421.918538842246,4.96397819680326));
#1508=CARTESIAN_POINT('',(-1.56317730334949,421.918538787543,4.96397819680327));
#1509=CARTESIAN_POINT('',(-6.52636052773214,421.918538077282,14.1777242369312));
#1510=CARTESIAN_POINT('',(-6.52636052773214,421.918538852717,4.83786368404379));
#1511=CARTESIAN_POINT('Origin',(5.92103312551053E-6,421.918536693104,29.9833099893299));
#1512=CARTESIAN_POINT('Origin',(-6.12636056079719,418.918537647716,19.2986111381655));
#1513=CARTESIAN_POINT('',(-3.12636056079718,418.918538804772,4.96397794773064));
#1514=CARTESIAN_POINT('',(-3.12636056079719,418.918537614651,19.2986111381655));
#1515=CARTESIAN_POINT('Origin',(-6.12636056079718,418.918538837837,4.96397794773062));
#1516=CARTESIAN_POINT('Origin',(6.19687279351733E-6,447.976842120156,23.7586424788504));
#1517=CARTESIAN_POINT('',(1.5000059144146,424.566266526855,25.8068004897761));
#1518=CARTESIAN_POINT('',(1.50000619687279,447.976842102058,23.7586424788504));
#1519=CARTESIAN_POINT('Origin',(5.9144145991527E-6,424.566266544954,25.8068004897761));
#1520=CARTESIAN_POINT('Origin',(5.90773563708436E-6,423.255101903195,10.8201057261475));
#1521=CARTESIAN_POINT('Origin',(6.15993165069644E-6,443.001310007895,-33.1120041800426));
#1522=CARTESIAN_POINT('',(1.50000587747346,419.590734414595,-31.0638461691169));
#1523=CARTESIAN_POINT('',(1.50000615993165,443.001309989797,-33.1120041800426));
#1524=CARTESIAN_POINT('Origin',(5.8774734563318E-6,419.590734432693,-31.0638461691169));
#1525=CARTESIAN_POINT('Origin',(5.89511681144717E-6,422.209233982722,-1.13423073778608));
#1526=CARTESIAN_POINT('Origin',(1.25000576964783,408.599789614796,-9.25226869485842));
#1527=CARTESIAN_POINT('',(-3.12636063555984,412.135323359492,-5.71673457945323));
#1528=CARTESIAN_POINT('',(-3.12636062011561,413.599789660854,-9.25226827821292));
#1529=CARTESIAN_POINT('Origin',(-3.12636067452748,408.599789661507,-9.25226869333392));
#1530=CARTESIAN_POINT('',(3.1263724893926,413.599789594769,-9.25226828039103));
#1531=CARTESIAN_POINT('',(1.25000582301466,413.599789614796,-9.25226827973741));
#1532=CARTESIAN_POINT('',(3.12637247464506,412.135323292754,-5.71673458163138));
#1533=CARTESIAN_POINT('Origin',(3.12637243567742,408.599789594769,-9.25226869551204));
#1534=CARTESIAN_POINT('',(1.25000580861546,412.135323312781,-5.71673458097774));
#1535=CARTESIAN_POINT('Origin',(5.00000582864957,413.599788641946,1.98330929867243));
#1536=CARTESIAN_POINT('',(-3.1263606201156,413.599792009975,-37.5466850286284));
#1537=CARTESIAN_POINT('',(-3.12636062011561,413.599788728029,1.98330929867245));
#1538=CARTESIAN_POINT('',(3.12637248939261,413.599791943891,-37.5466850286284));
#1539=CARTESIAN_POINT('',(5.83137705060733E-6,413.599791977259,-37.5466850286284));
#1540=CARTESIAN_POINT('',(3.12637248939259,413.599788869505,-0.516690701327525));
#1541=CARTESIAN_POINT('Origin',(5.88474388156169E-6,418.599791977259,-37.5466846135074));
#1542=CARTESIAN_POINT('Origin',(3.12637254589456,418.59979194389,-37.5466846135074));
#1543=CARTESIAN_POINT('Origin',(-3.12636056431034,418.599792010628,-37.5466846135074));
#1544=CARTESIAN_POINT('Origin',(-3.12636052773204,421.918538987604,13.7352331800582));
#1545=CARTESIAN_POINT('',(-3.12636074304707,402.38300580139,4.03558183145316));
#1546=CARTESIAN_POINT('',(-3.12636072865357,403.688928623605,2.72965916285751));
#1547=CARTESIAN_POINT('',(-3.126360759188,400.918539257299,7.57111553021273));
#1548=CARTESIAN_POINT('Origin',(-3.12636070407943,405.918539499375,7.57111594533378));
#1549=CARTESIAN_POINT('',(-3.126360759188,400.918538792329,13.1715316345282));
#1550=CARTESIAN_POINT('',(-3.126360759188,400.918540136342,-3.01669175417811));
#1551=CARTESIAN_POINT('',(-3.12636071923657,404.543332008595,13.171531960381));
#1552=CARTESIAN_POINT('',(-3.12636068203601,407.918539034405,13.1715322156977));
#1553=CARTESIAN_POINT('',(-3.12636074092025,402.575979390342,9.76397661580986));
#1554=CARTESIAN_POINT('',(-3.12636070520848,405.816100840378,15.3760326660004));
#1555=CARTESIAN_POINT('',(-3.12636071037598,405.347261080968,4.96397684589334));
#1556=CARTESIAN_POINT('',(-3.12636070888932,405.482138520079,4.73036231335057));
#1557=CARTESIAN_POINT('',(-3.12636058685645,416.554181690509,4.96397775143177));
#1558=CARTESIAN_POINT('Origin',(-2.49999428663389,403.076909474927,3.34167823263887));
#1559=CARTESIAN_POINT('',(3.12637240200755,405.54492163188,0.873666303993283));
#1560=CARTESIAN_POINT('',(3.12637242771005,407.876909700075,-1.45832148988287));
#1561=CARTESIAN_POINT('',(0.378684048713878,402.79723324406,3.62135439887809));
#1562=CARTESIAN_POINT('',(1.30718212826177,403.725731335275,2.69285640665164));
#1563=CARTESIAN_POINT('',(0.0330560885572241,402.383005766568,4.03558183145313));
#1564=CARTESIAN_POINT('Origin',(2.50000436889294,400.675912803703,5.7426745663168));
#1565=CARTESIAN_POINT('',(-1.24999429428189,402.383005780709,4.03558183145313));
#1566=CARTESIAN_POINT('Origin',(5.99959026915735,408.418543871717,9.78928128031935));
#1567=CARTESIAN_POINT('',(5.99959018649437,400.918539398799,7.57111553021283));
#1568=CARTESIAN_POINT('',(5.99959019144427,401.367644016935,5.50004104969963));
#1569=CARTESIAN_POINT('Origin',(5.99959024160292,405.9185393988,7.57111594533405));
#1570=CARTESIAN_POINT('',(5.99959035182012,415.918549126991,5.500035902213));
#1571=CARTESIAN_POINT('',(5.99959026089104,407.668541959807,5.50003521726269));
#1572=CARTESIAN_POINT('',(5.99959035182012,415.91854842375,13.9703464342011));
#1573=CARTESIAN_POINT('',(5.99959035182012,415.918549126991,5.500035902213));
#1574=CARTESIAN_POINT('',(5.99959018649445,400.918538629449,13.9703451888372));
#1575=CARTESIAN_POINT('',(5.99959026364644,407.9185388675,13.9703457700067));
#1576=CARTESIAN_POINT('',(5.99959018649432,400.918538616443,14.0785266584257));
#1577=CARTESIAN_POINT('',(5.99959023829639,405.618541873972,9.76397684350887));
#1578=CARTESIAN_POINT('Origin',(5.99959026915719,408.418541873972,9.76397707597665));
#1579=CARTESIAN_POINT('Origin',(2.49959024160302,405.918539437375,7.57111594533404));
#1580=CARTESIAN_POINT('',(1.00000437651701,401.367644072038,5.50004104969962));
#1581=CARTESIAN_POINT('',(2.49959019144441,401.36764694788,5.5000346941359));
#1582=CARTESIAN_POINT('',(1.00000437156711,400.918539453902,7.57111553021282));
#1583=CARTESIAN_POINT('',(2.49959018649437,400.918539437375,7.57111553021283));
#1584=CARTESIAN_POINT('Origin',(1.00000442667567,405.918539453903,7.57111594533404));
#1585=CARTESIAN_POINT('Origin',(16.8962866313932,415.91854900689,5.500035902213));
#1586=CARTESIAN_POINT('',(1.0000045368929,415.918549182094,5.500035902213));
#1587=CARTESIAN_POINT('',(8.69814558414303,415.918549097247,5.50003590221298));
#1588=CARTESIAN_POINT('',(1.0000045368929,415.918548400303,14.9164583723879));
#1589=CARTESIAN_POINT('',(1.00000453689289,415.918548600925,12.500035902213));
#1590=CARTESIAN_POINT('',(14.9831398420893,415.918547150944,28.1082905787422));
#1591=CARTESIAN_POINT('Origin',(5.85490296724242E-6,415.918547160411,29.9833094911856));
#1592=CARTESIAN_POINT('',(16.9968968670575,415.918547128749,28.1082905787456));
#1593=CARTESIAN_POINT('',(16.8962866313931,415.918547129857,28.1082905787422));
#1594=CARTESIAN_POINT('Origin',(5.8549029662885E-6,415.918547160411,29.9833094911855));
#1595=CARTESIAN_POINT('Origin',(5.76672916150936E-6,407.918537604162,29.9833088269911));
#1596=CARTESIAN_POINT('',(-6.52636071283384,405.12425652577,14.1777228675066));
#1597=CARTESIAN_POINT('',(-6.52636068203607,407.91853898834,14.1777230745924));
#1598=CARTESIAN_POINT('Origin',(5.83650847049788E-6,414.249614330439,29.983309377531));
#1599=CARTESIAN_POINT('Origin',(5.68957716529869E-6,400.91853677041,29.9833082458216));
#1600=CARTESIAN_POINT('',(16.996896933198,421.918536661441,28.1082910768888));
#1601=CARTESIAN_POINT('',(16.9968967788519,407.9185375725,28.1082899145478));
#1602=CARTESIAN_POINT('Origin',(5.92103312551053E-6,421.918536693104,29.9833099893299));
#1603=CARTESIAN_POINT('Origin',(2.69959026915718,408.418541910344,9.76397707597665));
#1604=CARTESIAN_POINT('',(3.99959023829639,405.618541896016,9.76397684350887));
#1605=CARTESIAN_POINT('',(2.6995902382964,405.618541910344,9.76397684350888));
#1606=CARTESIAN_POINT('Origin',(3.99959026915718,408.418541896016,9.76397707597665));
#1607=CARTESIAN_POINT('Origin',(2.49959018649432,400.918538655019,14.0785266584257));
#1608=CARTESIAN_POINT('',(-0.499995628432897,400.918539470428,7.57111553021275));
#1609=CARTESIAN_POINT('',(-1.24999431042282,400.918539478694,7.57111553021275));
#1610=CARTESIAN_POINT('',(-0.499995628432899,400.918538862651,14.8915887055577));
#1611=CARTESIAN_POINT('',(-0.499995628432901,400.918538667538,17.2416714513354));
#1612=CARTESIAN_POINT('',(1.0000043715671,400.918538570806,14.916457127024));
#1613=CARTESIAN_POINT('Origin',(5.68957716441295E-6,400.91853677041,29.9833082458217));
#1614=CARTESIAN_POINT('',(1.0000043715671,400.918538028323,24.7416714513354));
#1615=CARTESIAN_POINT('Origin',(-3.12636064598094,411.189823665188,4.9639773060602));
#1616=CARTESIAN_POINT('',(-6.52636071037596,405.347261118442,4.96397684589334));
#1617=CARTESIAN_POINT('',(-3.12636071037598,405.347261080968,4.96397684589334));
#1618=CARTESIAN_POINT('',(-6.52636064598092,411.189823702662,4.9639773060602));
#1619=CARTESIAN_POINT('Origin',(-6.52636065999264,409.918540849702,-15.186263222621));
#1620=CARTESIAN_POINT('',(-6.52636074092023,402.575979427815,9.76397661580986));
#1621=CARTESIAN_POINT('',(-6.52636071037596,405.347261118442,4.96397684589334));
#1622=CARTESIAN_POINT('',(-6.52636074092023,402.575979427815,9.76397661580986));
#1623=CARTESIAN_POINT('',(-6.5263606587077,410.035122998234,6.9639772101921));
#1624=CARTESIAN_POINT('',(-6.52636064089021,411.651703519498,9.76397734440743));
#1625=CARTESIAN_POINT('',(-6.52636064089021,411.651703519498,9.76397734440743));
#1626=CARTESIAN_POINT('',(-6.5263606587077,410.035122533299,12.5639772101921));
#1627=CARTESIAN_POINT('',(-6.5263606587077,410.035122533299,12.5639772101921));
#1628=CARTESIAN_POINT('',(-6.52636069764919,406.501961025837,12.5639769417614));
#1629=CARTESIAN_POINT('',(-6.52636069434268,406.801961025837,12.5639769417614));
#1630=CARTESIAN_POINT('',(-6.52636071546668,404.885380504574,9.76397680754608));
#1631=CARTESIAN_POINT('',(-6.52636071546668,404.885380504574,9.76397680754608));
#1632=CARTESIAN_POINT('',(-6.52636069764919,406.501961490773,6.96397694176143));
#1633=CARTESIAN_POINT('',(-6.52636069764919,406.501961490773,6.96397694176143));
#1634=CARTESIAN_POINT('',(-6.5263606587077,410.035122998234,6.9639772101921));
#1635=CARTESIAN_POINT('Origin',(-3.12636074092025,402.575979390342,9.76397661580986));
#1636=CARTESIAN_POINT('',(-3.12636074092025,402.575979390342,9.76397661580986));
#1637=CARTESIAN_POINT('Origin',(-3.12636069434269,406.801961453299,6.96397694176143));
#1638=CARTESIAN_POINT('',(-4.12636065870772,410.035122971782,6.9639772101921));
#1639=CARTESIAN_POINT('',(-4.12636069764921,406.501961464321,6.96397694176143));
#1640=CARTESIAN_POINT('',(-4.12636061103733,414.360250512562,6.96397756928238));
#1641=CARTESIAN_POINT('',(-3.12636065870772,410.035122960761,6.9639772101921));
#1642=CARTESIAN_POINT('',(-3.12636069764921,406.501961453299,6.96397694176143));
#1643=CARTESIAN_POINT('Origin',(-3.1263607154667,404.8853804671,9.76397680754608));
#1644=CARTESIAN_POINT('',(-4.1263607154667,404.885380478122,9.76397680754608));
#1645=CARTESIAN_POINT('',(-4.1263607018896,406.117223586439,7.63036236607799));
#1646=CARTESIAN_POINT('',(-3.1263607154667,404.8853804671,9.76397680754608));
#1647=CARTESIAN_POINT('Origin',(-3.12636069764921,406.501960988363,12.5639769417614));
#1648=CARTESIAN_POINT('',(-4.12636069764921,406.501960999385,12.5639769417614));
#1649=CARTESIAN_POINT('',(-4.12636067402788,408.645117095707,16.2760329008773));
#1650=CARTESIAN_POINT('',(-3.12636069764921,406.501960988363,12.5639769417614));
#1651=CARTESIAN_POINT('Origin',(-3.12636065870772,410.035122495825,12.5639772101921));
#1652=CARTESIAN_POINT('',(-4.12636065870772,410.035122506847,12.5639772101921));
#1653=CARTESIAN_POINT('',(-4.12636059321984,415.976830801357,12.5639777034977));
#1654=CARTESIAN_POINT('',(-3.12636065870772,410.035122495825,12.5639772101921));
#1655=CARTESIAN_POINT('Origin',(-3.12636064089023,411.651703482024,9.76397734440743));
#1656=CARTESIAN_POINT('',(-4.12636064089023,411.651703493046,9.76397734440743));
#1657=CARTESIAN_POINT('',(-4.12636063622188,412.075256108264,9.03036283583169));
#1658=CARTESIAN_POINT('',(-3.12636064089023,411.651703482024,9.76397734440743));
#1659=CARTESIAN_POINT('Origin',(-3.12636065870772,410.035122960761,6.9639772101921));
#1660=CARTESIAN_POINT('',(-4.12636062617764,412.986569328736,12.0760332364156));
#1661=CARTESIAN_POINT('Origin',(-3.12636071037598,405.347261080968,4.96397684589334));
#1662=CARTESIAN_POINT('Origin',(2.4995902691572,408.418541912547,9.76397707597663));
#1663=CARTESIAN_POINT('',(3.99959025262456,406.918541896015,9.76397695144032));
#1664=CARTESIAN_POINT('Origin',(3.99959026915713,408.418541896015,9.76397707597663));
#1665=CARTESIAN_POINT('',(1.00000443769741,406.918541929075,9.76397695144033));
#1666=CARTESIAN_POINT('',(2.49959025262463,406.918541912547,9.76397695144032));
#1667=CARTESIAN_POINT('Origin',(1.00000445422998,408.418541929075,9.76397707597663));
#1668=CARTESIAN_POINT('Origin',(2.4995902691572,408.418541912547,9.76397707597663));
#1669=CARTESIAN_POINT('',(-0.499995562302594,406.918541945608,9.76397695144033));
#1670=CARTESIAN_POINT('Origin',(-0.499995545770024,408.418541945608,9.76397707597663));
#1671=CARTESIAN_POINT('',(-4.12636069305771,406.918541985577,9.76397695144033));
#1672=CARTESIAN_POINT('',(2.49959025262463,406.918541912547,9.76397695144032));
#1673=CARTESIAN_POINT('Origin',(-4.12636067652514,408.418541985577,9.76397707597663));
#1674=CARTESIAN_POINT('Origin',(-4.12636052773204,421.918538998625,13.7352331800582));
#1675=CARTESIAN_POINT('Origin',(3.12637258247286,421.918540309502,-3.01669001066979));
#1676=CARTESIAN_POINT('',(3.12637254334578,418.368540016768,0.873667368663981));
#1677=CARTESIAN_POINT('Origin',(5.92103312990469E-6,421.918537118298,24.8619895944182));
#1678=CARTESIAN_POINT('',(14.9831399082195,421.918536683636,28.1082910768865));
#1679=CARTESIAN_POINT('',(8.44814630927821,421.918536755663,28.1082910768865));
#1680=CARTESIAN_POINT('',(-0.499995396976937,421.918538741613,14.891590449066));
#1681=CARTESIAN_POINT('Origin',(5.92103312720031E-6,421.918536693104,29.98330998933));
#1682=CARTESIAN_POINT('',(-0.499995396976934,421.918539501195,5.74267632996896));
#1683=CARTESIAN_POINT('',(-0.49999539697694,421.918538359001,19.5000364003573));
#1684=CARTESIAN_POINT('',(0.378684259463415,421.918538877611,3.62135598640925));
#1685=CARTESIAN_POINT('Origin',(2.50000460302306,421.918538678109,5.74267632996889));
#1686=CARTESIAN_POINT('',(-4.55889174988106,421.918538522093,8.55893199575371));
#1687=CARTESIAN_POINT('Origin',(1.31318813573995,414.818539916474,2.68685144240681));
#1688=CARTESIAN_POINT('',(0.378684142082188,411.268539879447,3.62135510220157));
#1689=CARTESIAN_POINT('Origin',(2.50000448564183,411.268539679945,5.74267544576121));
#1690=CARTESIAN_POINT('',(-0.499995624615936,401.264852512509,5.74267461521305));
#1691=CARTESIAN_POINT('',(-0.499995514358171,411.26853971301,5.74267544576121));
#1692=CARTESIAN_POINT('Ctrl Pts',(0.0330560885570027,402.383005766567,4.03558183145345));
#1693=CARTESIAN_POINT('Ctrl Pts',(-0.05681914059743,402.253125577159,4.16546200657398));
#1694=CARTESIAN_POINT('Ctrl Pts',(-0.138968858897911,402.126805409701,4.3062223967094));
#1695=CARTESIAN_POINT('Ctrl Pts',(-0.391723129867436,401.702734051387,4.83870822024596));
#1696=CARTESIAN_POINT('Ctrl Pts',(-0.499995622632552,401.444804975712,5.28466569950025));
#1697=CARTESIAN_POINT('Ctrl Pts',(-0.499995624615937,401.264852512509,5.74267461521305));
#1698=CARTESIAN_POINT('Origin',(-0.499995553485249,407.718539846439,4.50003522141372));
#1699=CARTESIAN_POINT('Origin',(-0.499995573324335,405.918539470428,7.57111594533378));
#1700=CARTESIAN_POINT('',(-0.499995553485255,407.718538862651,14.8915892701223));
#1701=CARTESIAN_POINT('Origin',(0.500004437697379,406.9185397524,5.50003515499436));
#1702=CARTESIAN_POINT('',(1.00000444210607,407.318539746886,5.50003518820404));
#1703=CARTESIAN_POINT('Origin',(1.00000444651475,407.718538584543,19.5000352214137));
#1704=CARTESIAN_POINT('',(1.00000444651475,407.718538844054,14.9164576915886));
#1705=CARTESIAN_POINT('Origin',(-1.24999425531426,405.918539478694,7.57111594533378));
#1706=CARTESIAN_POINT('Origin',(16.8962866865017,420.918547129858,28.1082909938632));
#1707=CARTESIAN_POINT('',(14.9831397517112,407.718537594694,28.1082898979429));
#1708=CARTESIAN_POINT('Origin',(5.76452481897127E-6,407.718537604162,29.9833088103863));
#1709=CARTESIAN_POINT('Origin',(3.99959041795024,421.918540299878,-3.01669001066984));
#1710=UNCERTAINTY_MEASURE_WITH_UNIT(LENGTH_MEASURE(0.01),#1714,
'DISTANCE_ACCURACY_VALUE',
'Maximum model space distance between geometric entities at asserted c
onnectivities');
#1711=UNCERTAINTY_MEASURE_WITH_UNIT(LENGTH_MEASURE(0.01),#1714,
'DISTANCE_ACCURACY_VALUE',
'Maximum model space distance between geometric entities at asserted c
onnectivities');
#1712=(
GEOMETRIC_REPRESENTATION_CONTEXT(3)
GLOBAL_UNCERTAINTY_ASSIGNED_CONTEXT((#1710))
GLOBAL_UNIT_ASSIGNED_CONTEXT((#1714,#1716,#1717))
REPRESENTATION_CONTEXT('','3D')
);
#1713=(
GEOMETRIC_REPRESENTATION_CONTEXT(3)
GLOBAL_UNCERTAINTY_ASSIGNED_CONTEXT((#1711))
GLOBAL_UNIT_ASSIGNED_CONTEXT((#1714,#1716,#1717))
REPRESENTATION_CONTEXT('','3D')
);
#1714=(
LENGTH_UNIT()
NAMED_UNIT(*)
SI_UNIT(.MILLI.,.METRE.)
);
#1715=(
LENGTH_UNIT()
NAMED_UNIT(*)
SI_UNIT($,.METRE.)
);
#1716=(
NAMED_UNIT(*)
PLANE_ANGLE_UNIT()
SI_UNIT($,.RADIAN.)
);
#1717=(
NAMED_UNIT(*)
SI_UNIT($,.STERADIAN.)
SOLID_ANGLE_UNIT()
);
#1718=SHAPE_DEFINITION_REPRESENTATION(#1719,#1720);
#1719=PRODUCT_DEFINITION_SHAPE('',$,#1722);
#1720=SHAPE_REPRESENTATION('',(#1016),#1712);
#1721=PRODUCT_DEFINITION_CONTEXT('part definition',#1726,'design');
#1722=PRODUCT_DEFINITION('56. Battery Stock End',
'56. Battery Stock End',#1723,#1721);
#1723=PRODUCT_DEFINITION_FORMATION('',$,#1728);
#1724=PRODUCT_RELATED_PRODUCT_CATEGORY('56. Battery Stock End',
'56. Battery Stock End',(#1728));
#1725=APPLICATION_PROTOCOL_DEFINITION('international standard',
'automotive_design',2009,#1726);
#1726=APPLICATION_CONTEXT(
'Core Data for Automotive Mechanical Design Process');
#1727=PRODUCT_CONTEXT('part definition',#1726,'mechanical');
#1728=PRODUCT('56. Battery Stock End','56. Battery Stock End',$,(#1727));
#1729=PRESENTATION_STYLE_ASSIGNMENT((#1731));
#1730=PRESENTATION_STYLE_ASSIGNMENT((#1732));
#1731=SURFACE_STYLE_USAGE(.BOTH.,#1733);
#1732=SURFACE_STYLE_USAGE(.BOTH.,#1734);
#1733=SURFACE_SIDE_STYLE('',(#1735));
#1734=SURFACE_SIDE_STYLE('',(#1736));
#1735=SURFACE_STYLE_FILL_AREA(#1737);
#1736=SURFACE_STYLE_FILL_AREA(#1738);
#1737=FILL_AREA_STYLE('Steel - Satin',(#1739));
#1738=FILL_AREA_STYLE('Plastic - Matte (Black) (1)',(#1740));
#1739=FILL_AREA_STYLE_COLOUR('Steel - Satin',#1741);
#1740=FILL_AREA_STYLE_COLOUR('Plastic - Matte (Black) (1)',#1742);
#1741=COLOUR_RGB('Steel - Satin',0.627450980392157,0.627450980392157,0.627450980392157);
#1742=COLOUR_RGB('Plastic - Matte (Black) (1)',0.0980392156862745,0.0980392156862745,
0.0980392156862745);
ENDSEC;
END-ISO-10303-21;
