ISO-10303-21;
HEADER;
/* Generated by software containing ST-Developer
 * from STEP Tools, Inc. (www.steptools.com) 
 */

FILE_DESCRIPTION(
/* description */ (''),
/* implementation_level */ '2;1');

FILE_NAME(
/* name */ '58. Battery Stock Tube.step',
/* time_stamp */ '2025-10-08T23:29:59+01:00',
/* author */ (''),
/* organization */ (''),
/* preprocessor_version */ 'ST-DEVELOPER v20.1',
/* originating_system */ 'Autodesk Translation Framework v14.10.0.0',
/* authorisation */ '');

FILE_SCHEMA (('AUTOMOTIVE_DESIGN { 1 0 10303 214 3 1 1 }'));
ENDSEC;

DATA;
#10=MECHANICAL_DESIGN_GEOMETRIC_PRESENTATION_REPRESENTATION('',(#13),#554);
#11=SHAPE_REPRESENTATION_RELATIONSHIP('SRR','None',#561,#12);
#12=ADVANCED_BREP_SHAPE_REPRESENTATION('',(#14),#553);
#13=STYLED_ITEM('',(#571),#14);
#14=MANIFOLD_SOLID_BREP('59. Battery Stock Tube',#311);
#15=(
BOUNDED_CURVE()
B_SPLINE_CURVE(2,(#516,#517,#518),.UNSPECIFIED.,.F.,.F.)
B_SPLINE_CURVE_WITH_KNOTS((3,3),(57.3354354519606,57.7882591820305),
 .UNSPECIFIED.)
CURVE()
GEOMETRIC_REPRESENTATION_ITEM()
RATIONAL_B_SPLINE_CURVE((12.8156606233851,12.150306958976,11.4737066314076))
REPRESENTATION_ITEM('')
);
#16=(
BOUNDED_CURVE()
B_SPLINE_CURVE(2,(#524,#525,#526),.UNSPECIFIED.,.F.,.F.)
B_SPLINE_CURVE_WITH_KNOTS((3,3),(3.30470094671323,3.75755979236232),
 .UNSPECIFIED.)
CURVE()
GEOMETRIC_REPRESENTATION_ITEM()
RATIONAL_B_SPLINE_CURVE((11.4745921108893,12.1512446548622,12.8166496677184))
REPRESENTATION_ITEM('')
);
#17=(
BOUNDED_CURVE()
B_SPLINE_CURVE(2,(#530,#531,#532),.UNSPECIFIED.,.F.,.F.)
B_SPLINE_CURVE_WITH_KNOTS((3,3),(57.300266249018,57.752813651169),
 .UNSPECIFIED.)
CURVE()
GEOMETRIC_REPRESENTATION_ITEM()
RATIONAL_B_SPLINE_CURVE((12.8078777370648,12.1429281385939,11.4667387070056))
REPRESENTATION_ITEM('')
);
#18=(
BOUNDED_CURVE()
B_SPLINE_CURVE(2,(#544,#545,#546),.UNSPECIFIED.,.F.,.F.)
B_SPLINE_CURVE_WITH_KNOTS((3,3),(3.30222396101782,3.75477136316883),
 .UNSPECIFIED.)
CURVE()
GEOMETRIC_REPRESENTATION_ITEM()
RATIONAL_B_SPLINE_CURVE((11.4667387070054,12.1429281385938,12.8078777370649))
REPRESENTATION_ITEM('')
);
#19=CYLINDRICAL_SURFACE('',#329,15.);
#20=CYLINDRICAL_SURFACE('',#337,17.);
#21=CYLINDRICAL_SURFACE('',#340,17.);
#22=CYLINDRICAL_SURFACE('',#358,13.);
#23=PLANE('',#328);
#24=PLANE('',#335);
#25=PLANE('',#343);
#26=PLANE('',#345);
#27=PLANE('',#347);
#28=PLANE('',#348);
#29=PLANE('',#349);
#30=PLANE('',#350);
#31=PLANE('',#352);
#32=PLANE('',#355);
#33=FACE_OUTER_BOUND('',#50,.T.);
#34=FACE_OUTER_BOUND('',#51,.T.);
#35=FACE_OUTER_BOUND('',#52,.T.);
#36=FACE_OUTER_BOUND('',#53,.T.);
#37=FACE_OUTER_BOUND('',#54,.T.);
#38=FACE_OUTER_BOUND('',#55,.T.);
#39=FACE_OUTER_BOUND('',#56,.T.);
#40=FACE_OUTER_BOUND('',#57,.T.);
#41=FACE_OUTER_BOUND('',#58,.T.);
#42=FACE_OUTER_BOUND('',#59,.T.);
#43=FACE_OUTER_BOUND('',#60,.T.);
#44=FACE_OUTER_BOUND('',#61,.T.);
#45=FACE_OUTER_BOUND('',#62,.T.);
#46=FACE_OUTER_BOUND('',#63,.T.);
#47=FACE_OUTER_BOUND('',#64,.T.);
#48=FACE_OUTER_BOUND('',#65,.T.);
#49=FACE_OUTER_BOUND('',#66,.T.);
#50=EDGE_LOOP('',(#203,#204,#205,#206));
#51=EDGE_LOOP('',(#207));
#52=EDGE_LOOP('',(#208,#209,#210,#211,#212,#213,#214,#215,#216,#217,#218,
#219));
#53=EDGE_LOOP('',(#220));
#54=EDGE_LOOP('',(#221,#222,#223,#224));
#55=EDGE_LOOP('',(#225,#226,#227,#228));
#56=EDGE_LOOP('',(#229,#230,#231,#232));
#57=EDGE_LOOP('',(#233,#234,#235,#236));
#58=EDGE_LOOP('',(#237,#238,#239,#240,#241,#242));
#59=EDGE_LOOP('',(#243,#244,#245,#246,#247,#248));
#60=EDGE_LOOP('',(#249,#250,#251,#252,#253,#254));
#61=EDGE_LOOP('',(#255,#256,#257,#258));
#62=EDGE_LOOP('',(#259,#260,#261,#262,#263,#264));
#63=EDGE_LOOP('',(#265,#266,#267,#268,#269,#270));
#64=EDGE_LOOP('',(#271,#272,#273,#274));
#65=EDGE_LOOP('',(#275,#276,#277,#278));
#66=EDGE_LOOP('',(#279,#280,#281,#282,#283,#284,#285,#286,#287,#288,#289,
#290));
#67=LINE('',#457,#90);
#68=LINE('',#462,#91);
#69=LINE('',#466,#92);
#70=LINE('',#470,#93);
#71=LINE('',#474,#94);
#72=LINE('',#478,#95);
#73=LINE('',#486,#96);
#74=LINE('',#490,#97);
#75=LINE('',#495,#98);
#76=LINE('',#499,#99);
#77=LINE('',#503,#100);
#78=LINE('',#506,#101);
#79=LINE('',#509,#102);
#80=LINE('',#511,#103);
#81=LINE('',#515,#104);
#82=LINE('',#519,#105);
#83=LINE('',#522,#106);
#84=LINE('',#523,#107);
#85=LINE('',#529,#108);
#86=LINE('',#533,#109);
#87=LINE('',#540,#110);
#88=LINE('',#543,#111);
#89=LINE('',#550,#112);
#90=VECTOR('',#365,14.25);
#91=VECTOR('',#372,14.5);
#92=VECTOR('',#375,10.);
#93=VECTOR('',#378,10.);
#94=VECTOR('',#381,10.);
#95=VECTOR('',#384,10.);
#96=VECTOR('',#393,10.);
#97=VECTOR('',#396,10.);
#98=VECTOR('',#401,10.);
#99=VECTOR('',#404,10.);
#100=VECTOR('',#409,10.);
#101=VECTOR('',#412,10.);
#102=VECTOR('',#415,10.);
#103=VECTOR('',#416,10.);
#104=VECTOR('',#421,10.);
#105=VECTOR('',#422,10.);
#106=VECTOR('',#425,10.);
#107=VECTOR('',#426,10.);
#108=VECTOR('',#429,10.);
#109=VECTOR('',#430,10.);
#110=VECTOR('',#439,10.);
#111=VECTOR('',#444,10.);
#112=VECTOR('',#451,12.5);
#113=CIRCLE('',#326,15.);
#114=CIRCLE('',#327,13.4999999999999);
#115=CIRCLE('',#330,15.);
#116=CIRCLE('',#331,15.);
#117=CIRCLE('',#332,15.);
#118=CIRCLE('',#333,15.);
#119=CIRCLE('',#334,15.);
#120=CIRCLE('',#336,13.);
#121=CIRCLE('',#338,17.);
#122=CIRCLE('',#339,17.);
#123=CIRCLE('',#341,17.);
#124=CIRCLE('',#342,17.);
#125=CIRCLE('',#344,13.);
#126=CIRCLE('',#346,13.);
#127=CIRCLE('',#351,13.);
#128=CIRCLE('',#353,13.);
#129=CIRCLE('',#354,13.);
#130=VERTEX_POINT('',#454);
#131=VERTEX_POINT('',#456);
#132=VERTEX_POINT('',#461);
#133=VERTEX_POINT('',#463);
#134=VERTEX_POINT('',#465);
#135=VERTEX_POINT('',#467);
#136=VERTEX_POINT('',#469);
#137=VERTEX_POINT('',#471);
#138=VERTEX_POINT('',#473);
#139=VERTEX_POINT('',#475);
#140=VERTEX_POINT('',#477);
#141=VERTEX_POINT('',#481);
#142=VERTEX_POINT('',#484);
#143=VERTEX_POINT('',#485);
#144=VERTEX_POINT('',#487);
#145=VERTEX_POINT('',#489);
#146=VERTEX_POINT('',#493);
#147=VERTEX_POINT('',#494);
#148=VERTEX_POINT('',#496);
#149=VERTEX_POINT('',#498);
#150=VERTEX_POINT('',#502);
#151=VERTEX_POINT('',#504);
#152=VERTEX_POINT('',#508);
#153=VERTEX_POINT('',#510);
#154=VERTEX_POINT('',#514);
#155=VERTEX_POINT('',#521);
#156=VERTEX_POINT('',#528);
#157=VERTEX_POINT('',#537);
#158=VERTEX_POINT('',#539);
#159=EDGE_CURVE('',#130,#130,#113,.T.);
#160=EDGE_CURVE('',#130,#131,#67,.T.);
#161=EDGE_CURVE('',#131,#131,#114,.T.);
#162=EDGE_CURVE('',#130,#132,#68,.T.);
#163=EDGE_CURVE('',#132,#133,#115,.T.);
#164=EDGE_CURVE('',#133,#134,#69,.F.);
#165=EDGE_CURVE('',#135,#134,#116,.T.);
#166=EDGE_CURVE('',#135,#136,#70,.F.);
#167=EDGE_CURVE('',#136,#137,#117,.T.);
#168=EDGE_CURVE('',#137,#138,#71,.F.);
#169=EDGE_CURVE('',#139,#138,#118,.T.);
#170=EDGE_CURVE('',#139,#140,#72,.F.);
#171=EDGE_CURVE('',#140,#132,#119,.T.);
#172=EDGE_CURVE('',#141,#141,#120,.T.);
#173=EDGE_CURVE('',#142,#143,#73,.T.);
#174=EDGE_CURVE('',#144,#143,#121,.F.);
#175=EDGE_CURVE('',#144,#145,#74,.T.);
#176=EDGE_CURVE('',#142,#145,#122,.T.);
#177=EDGE_CURVE('',#146,#147,#75,.T.);
#178=EDGE_CURVE('',#148,#147,#123,.T.);
#179=EDGE_CURVE('',#148,#149,#76,.T.);
#180=EDGE_CURVE('',#146,#149,#124,.F.);
#181=EDGE_CURVE('',#143,#150,#77,.T.);
#182=EDGE_CURVE('',#150,#151,#125,.F.);
#183=EDGE_CURVE('',#151,#144,#78,.T.);
#184=EDGE_CURVE('',#152,#146,#79,.T.);
#185=EDGE_CURVE('',#149,#153,#80,.T.);
#186=EDGE_CURVE('',#153,#152,#126,.F.);
#187=EDGE_CURVE('',#150,#154,#81,.F.);
#188=EDGE_CURVE('',#138,#142,#15,.T.);
#189=EDGE_CURVE('',#137,#154,#82,.T.);
#190=EDGE_CURVE('',#155,#152,#83,.F.);
#191=EDGE_CURVE('',#155,#136,#84,.T.);
#192=EDGE_CURVE('',#135,#147,#16,.F.);
#193=EDGE_CURVE('',#153,#156,#85,.T.);
#194=EDGE_CURVE('',#134,#148,#17,.T.);
#195=EDGE_CURVE('',#133,#156,#86,.F.);
#196=EDGE_CURVE('',#154,#155,#127,.T.);
#197=EDGE_CURVE('',#156,#157,#128,.T.);
#198=EDGE_CURVE('',#158,#140,#87,.F.);
#199=EDGE_CURVE('',#157,#158,#129,.T.);
#200=EDGE_CURVE('',#158,#151,#88,.T.);
#201=EDGE_CURVE('',#139,#145,#18,.F.);
#202=EDGE_CURVE('',#141,#157,#89,.T.);
#203=ORIENTED_EDGE('',*,*,#159,.T.);
#204=ORIENTED_EDGE('',*,*,#160,.T.);
#205=ORIENTED_EDGE('',*,*,#161,.T.);
#206=ORIENTED_EDGE('',*,*,#160,.F.);
#207=ORIENTED_EDGE('',*,*,#161,.F.);
#208=ORIENTED_EDGE('',*,*,#159,.F.);
#209=ORIENTED_EDGE('',*,*,#162,.T.);
#210=ORIENTED_EDGE('',*,*,#163,.T.);
#211=ORIENTED_EDGE('',*,*,#164,.T.);
#212=ORIENTED_EDGE('',*,*,#165,.F.);
#213=ORIENTED_EDGE('',*,*,#166,.T.);
#214=ORIENTED_EDGE('',*,*,#167,.T.);
#215=ORIENTED_EDGE('',*,*,#168,.T.);
#216=ORIENTED_EDGE('',*,*,#169,.F.);
#217=ORIENTED_EDGE('',*,*,#170,.T.);
#218=ORIENTED_EDGE('',*,*,#171,.T.);
#219=ORIENTED_EDGE('',*,*,#162,.F.);
#220=ORIENTED_EDGE('',*,*,#172,.F.);
#221=ORIENTED_EDGE('',*,*,#173,.T.);
#222=ORIENTED_EDGE('',*,*,#174,.F.);
#223=ORIENTED_EDGE('',*,*,#175,.T.);
#224=ORIENTED_EDGE('',*,*,#176,.F.);
#225=ORIENTED_EDGE('',*,*,#177,.T.);
#226=ORIENTED_EDGE('',*,*,#178,.F.);
#227=ORIENTED_EDGE('',*,*,#179,.T.);
#228=ORIENTED_EDGE('',*,*,#180,.F.);
#229=ORIENTED_EDGE('',*,*,#181,.T.);
#230=ORIENTED_EDGE('',*,*,#182,.T.);
#231=ORIENTED_EDGE('',*,*,#183,.T.);
#232=ORIENTED_EDGE('',*,*,#174,.T.);
#233=ORIENTED_EDGE('',*,*,#184,.T.);
#234=ORIENTED_EDGE('',*,*,#180,.T.);
#235=ORIENTED_EDGE('',*,*,#185,.T.);
#236=ORIENTED_EDGE('',*,*,#186,.T.);
#237=ORIENTED_EDGE('',*,*,#187,.F.);
#238=ORIENTED_EDGE('',*,*,#181,.F.);
#239=ORIENTED_EDGE('',*,*,#173,.F.);
#240=ORIENTED_EDGE('',*,*,#188,.F.);
#241=ORIENTED_EDGE('',*,*,#168,.F.);
#242=ORIENTED_EDGE('',*,*,#189,.T.);
#243=ORIENTED_EDGE('',*,*,#190,.F.);
#244=ORIENTED_EDGE('',*,*,#191,.T.);
#245=ORIENTED_EDGE('',*,*,#166,.F.);
#246=ORIENTED_EDGE('',*,*,#192,.T.);
#247=ORIENTED_EDGE('',*,*,#177,.F.);
#248=ORIENTED_EDGE('',*,*,#184,.F.);
#249=ORIENTED_EDGE('',*,*,#193,.F.);
#250=ORIENTED_EDGE('',*,*,#185,.F.);
#251=ORIENTED_EDGE('',*,*,#179,.F.);
#252=ORIENTED_EDGE('',*,*,#194,.F.);
#253=ORIENTED_EDGE('',*,*,#164,.F.);
#254=ORIENTED_EDGE('',*,*,#195,.T.);
#255=ORIENTED_EDGE('',*,*,#196,.F.);
#256=ORIENTED_EDGE('',*,*,#189,.F.);
#257=ORIENTED_EDGE('',*,*,#167,.F.);
#258=ORIENTED_EDGE('',*,*,#191,.F.);
#259=ORIENTED_EDGE('',*,*,#197,.F.);
#260=ORIENTED_EDGE('',*,*,#195,.F.);
#261=ORIENTED_EDGE('',*,*,#163,.F.);
#262=ORIENTED_EDGE('',*,*,#171,.F.);
#263=ORIENTED_EDGE('',*,*,#198,.F.);
#264=ORIENTED_EDGE('',*,*,#199,.F.);
#265=ORIENTED_EDGE('',*,*,#200,.F.);
#266=ORIENTED_EDGE('',*,*,#198,.T.);
#267=ORIENTED_EDGE('',*,*,#170,.F.);
#268=ORIENTED_EDGE('',*,*,#201,.T.);
#269=ORIENTED_EDGE('',*,*,#175,.F.);
#270=ORIENTED_EDGE('',*,*,#183,.F.);
#271=ORIENTED_EDGE('',*,*,#201,.F.);
#272=ORIENTED_EDGE('',*,*,#169,.T.);
#273=ORIENTED_EDGE('',*,*,#188,.T.);
#274=ORIENTED_EDGE('',*,*,#176,.T.);
#275=ORIENTED_EDGE('',*,*,#192,.F.);
#276=ORIENTED_EDGE('',*,*,#165,.T.);
#277=ORIENTED_EDGE('',*,*,#194,.T.);
#278=ORIENTED_EDGE('',*,*,#178,.T.);
#279=ORIENTED_EDGE('',*,*,#172,.T.);
#280=ORIENTED_EDGE('',*,*,#202,.T.);
#281=ORIENTED_EDGE('',*,*,#199,.T.);
#282=ORIENTED_EDGE('',*,*,#200,.T.);
#283=ORIENTED_EDGE('',*,*,#182,.F.);
#284=ORIENTED_EDGE('',*,*,#187,.T.);
#285=ORIENTED_EDGE('',*,*,#196,.T.);
#286=ORIENTED_EDGE('',*,*,#190,.T.);
#287=ORIENTED_EDGE('',*,*,#186,.F.);
#288=ORIENTED_EDGE('',*,*,#193,.T.);
#289=ORIENTED_EDGE('',*,*,#197,.T.);
#290=ORIENTED_EDGE('',*,*,#202,.F.);
#291=CONICAL_SURFACE('',#325,14.25,0.78539816339751);
#292=CONICAL_SURFACE('',#356,16.,0.785398163397446);
#293=CONICAL_SURFACE('',#357,16.,0.785398163397455);
#294=ADVANCED_FACE('',(#33),#291,.T.);
#295=ADVANCED_FACE('',(#34),#23,.F.);
#296=ADVANCED_FACE('',(#35),#19,.T.);
#297=ADVANCED_FACE('',(#36),#24,.T.);
#298=ADVANCED_FACE('',(#37),#20,.T.);
#299=ADVANCED_FACE('',(#38),#21,.T.);
#300=ADVANCED_FACE('',(#39),#25,.T.);
#301=ADVANCED_FACE('',(#40),#26,.T.);
#302=ADVANCED_FACE('',(#41),#27,.F.);
#303=ADVANCED_FACE('',(#42),#28,.F.);
#304=ADVANCED_FACE('',(#43),#29,.F.);
#305=ADVANCED_FACE('',(#44),#30,.F.);
#306=ADVANCED_FACE('',(#45),#31,.F.);
#307=ADVANCED_FACE('',(#46),#32,.F.);
#308=ADVANCED_FACE('',(#47),#292,.T.);
#309=ADVANCED_FACE('',(#48),#293,.T.);
#310=ADVANCED_FACE('',(#49),#22,.F.);
#311=CLOSED_SHELL('',(#294,#295,#296,#297,#298,#299,#300,#301,#302,#303,
#304,#305,#306,#307,#308,#309,#310));
#312=DERIVED_UNIT_ELEMENT(#314,1.);
#313=DERIVED_UNIT_ELEMENT(#556,-3.);
#314=(
MASS_UNIT()
NAMED_UNIT(*)
SI_UNIT(.KILO.,.GRAM.)
);
#315=DERIVED_UNIT((#312,#313));
#316=MEASURE_REPRESENTATION_ITEM('density measure',
POSITIVE_RATIO_MEASURE(7850.),#315);
#317=PROPERTY_DEFINITION_REPRESENTATION(#322,#319);
#318=PROPERTY_DEFINITION_REPRESENTATION(#323,#320);
#319=REPRESENTATION('material name',(#321),#553);
#320=REPRESENTATION('density',(#316),#553);
#321=DESCRIPTIVE_REPRESENTATION_ITEM('Steel','Steel');
#322=PROPERTY_DEFINITION('material property','material name',#563);
#323=PROPERTY_DEFINITION('material property','density of part',#563);
#324=AXIS2_PLACEMENT_3D('',#452,#359,#360);
#325=AXIS2_PLACEMENT_3D('',#453,#361,#362);
#326=AXIS2_PLACEMENT_3D('',#455,#363,#364);
#327=AXIS2_PLACEMENT_3D('',#458,#366,#367);
#328=AXIS2_PLACEMENT_3D('',#459,#368,#369);
#329=AXIS2_PLACEMENT_3D('',#460,#370,#371);
#330=AXIS2_PLACEMENT_3D('',#464,#373,#374);
#331=AXIS2_PLACEMENT_3D('',#468,#376,#377);
#332=AXIS2_PLACEMENT_3D('',#472,#379,#380);
#333=AXIS2_PLACEMENT_3D('',#476,#382,#383);
#334=AXIS2_PLACEMENT_3D('',#479,#385,#386);
#335=AXIS2_PLACEMENT_3D('',#480,#387,#388);
#336=AXIS2_PLACEMENT_3D('',#482,#389,#390);
#337=AXIS2_PLACEMENT_3D('',#483,#391,#392);
#338=AXIS2_PLACEMENT_3D('',#488,#394,#395);
#339=AXIS2_PLACEMENT_3D('',#491,#397,#398);
#340=AXIS2_PLACEMENT_3D('',#492,#399,#400);
#341=AXIS2_PLACEMENT_3D('',#497,#402,#403);
#342=AXIS2_PLACEMENT_3D('',#500,#405,#406);
#343=AXIS2_PLACEMENT_3D('',#501,#407,#408);
#344=AXIS2_PLACEMENT_3D('',#505,#410,#411);
#345=AXIS2_PLACEMENT_3D('',#507,#413,#414);
#346=AXIS2_PLACEMENT_3D('',#512,#417,#418);
#347=AXIS2_PLACEMENT_3D('',#513,#419,#420);
#348=AXIS2_PLACEMENT_3D('',#520,#423,#424);
#349=AXIS2_PLACEMENT_3D('',#527,#427,#428);
#350=AXIS2_PLACEMENT_3D('',#534,#431,#432);
#351=AXIS2_PLACEMENT_3D('',#535,#433,#434);
#352=AXIS2_PLACEMENT_3D('',#536,#435,#436);
#353=AXIS2_PLACEMENT_3D('',#538,#437,#438);
#354=AXIS2_PLACEMENT_3D('',#541,#440,#441);
#355=AXIS2_PLACEMENT_3D('',#542,#442,#443);
#356=AXIS2_PLACEMENT_3D('',#547,#445,#446);
#357=AXIS2_PLACEMENT_3D('',#548,#447,#448);
#358=AXIS2_PLACEMENT_3D('',#549,#449,#450);
#359=DIRECTION('axis',(0.,0.,1.));
#360=DIRECTION('refdir',(1.,0.,0.));
#361=DIRECTION('center_axis',(-1.10217124316134E-8,-0.999999999999997,-8.30242067687993E-8));
#362=DIRECTION('ref_axis',(-1.,1.10217123795314E-8,1.06778189513274E-18));
#363=DIRECTION('center_axis',(1.10217124316136E-8,0.999999999999997,8.30242053406826E-8));
#364=DIRECTION('ref_axis',(-1.,1.10217123326574E-8,1.06777800345591E-18));
#365=DIRECTION('',(-0.707106773393063,0.707106788980029,5.87069795230079E-8));
#366=DIRECTION('center_axis',(-1.10217124316136E-8,-0.999999999999997,-8.30242053406826E-8));
#367=DIRECTION('ref_axis',(-1.,1.10217124316137E-8,1.06778621921811E-18));
#368=DIRECTION('center_axis',(-1.10217124316136E-8,-0.999999999999997,-8.30242053406826E-8));
#369=DIRECTION('ref_axis',(1.,-1.10217124316139E-8,3.1896468308657E-15));
#370=DIRECTION('center_axis',(1.10217123326574E-8,0.999999999999997,8.30242046821518E-8));
#371=DIRECTION('ref_axis',(-1.,1.10217123326574E-8,1.06777800345591E-18));
#372=DIRECTION('',(-1.10217123326574E-8,-0.999999999999996,-8.30242046821518E-8));
#373=DIRECTION('center_axis',(1.10217123413711E-8,0.999999999999997,8.30242047153493E-8));
#374=DIRECTION('ref_axis',(-1.,1.10217123326574E-8,1.06777800345591E-18));
#375=DIRECTION('',(-1.10217123326574E-8,-0.999999999999996,-8.30242046821518E-8));
#376=DIRECTION('center_axis',(-1.10217123413711E-8,-0.999999999999997,-8.30242047153493E-8));
#377=DIRECTION('ref_axis',(-1.,1.10217123326574E-8,1.06777800345591E-18));
#378=DIRECTION('',(1.10217123326574E-8,0.999999999999996,8.30242046821518E-8));
#379=DIRECTION('center_axis',(1.10217123413711E-8,0.999999999999997,8.30242047153493E-8));
#380=DIRECTION('ref_axis',(-1.,1.10217123326574E-8,1.06777800345591E-18));
#381=DIRECTION('',(-1.10217123326574E-8,-0.999999999999996,-8.30242046821518E-8));
#382=DIRECTION('center_axis',(-1.10217123413711E-8,-0.999999999999997,-8.30242047153493E-8));
#383=DIRECTION('ref_axis',(-1.,1.10217123326574E-8,1.06777800345591E-18));
#384=DIRECTION('',(1.10217123326574E-8,0.999999999999996,8.30242046821518E-8));
#385=DIRECTION('center_axis',(1.10217123413711E-8,0.999999999999997,8.30242047153493E-8));
#386=DIRECTION('ref_axis',(-1.,1.10217123326574E-8,1.06777800345591E-18));
#387=DIRECTION('center_axis',(-1.1021712341371E-8,-0.999999999999997,-8.30242047153495E-8));
#388=DIRECTION('ref_axis',(1.,-1.10217123413711E-8,-6.33477280172517E-17));
#389=DIRECTION('center_axis',(1.10217123413711E-8,0.999999999999997,8.30242047153495E-8));
#390=DIRECTION('ref_axis',(-1.,1.10217123326574E-8,1.06777800345591E-18));
#391=DIRECTION('center_axis',(1.10217124316137E-8,0.999999999999997,8.30242048444063E-8));
#392=DIRECTION('ref_axis',(1.,-1.10217124316137E-8,-6.33477354980091E-17));
#393=DIRECTION('',(-1.10217124316137E-8,-0.999999999999996,-8.30242048444063E-8));
#394=DIRECTION('center_axis',(1.10217123413711E-8,0.999999999999997,8.30242047153493E-8));
#395=DIRECTION('ref_axis',(1.,-1.10217124316137E-8,-6.33477354980091E-17));
#396=DIRECTION('',(1.10217124316137E-8,0.999999999999996,8.30242048444063E-8));
#397=DIRECTION('center_axis',(1.10217123413711E-8,0.999999999999997,8.30242047153493E-8));
#398=DIRECTION('ref_axis',(1.,-1.10217124316137E-8,-6.33477354980091E-17));
#399=DIRECTION('center_axis',(1.10217124316137E-8,0.999999999999997,8.30242048444063E-8));
#400=DIRECTION('ref_axis',(1.,-1.10217124316137E-8,-6.33477354980091E-17));
#401=DIRECTION('',(1.10217124316137E-8,0.999999999999996,8.30242048444063E-8));
#402=DIRECTION('center_axis',(1.10217123413711E-8,0.999999999999997,8.30242047153493E-8));
#403=DIRECTION('ref_axis',(1.,-1.10217124316137E-8,-6.33477354980091E-17));
#404=DIRECTION('',(-1.10217124316137E-8,-0.999999999999996,-8.30242048444063E-8));
#405=DIRECTION('center_axis',(1.10217123413711E-8,0.999999999999997,8.30242047153493E-8));
#406=DIRECTION('ref_axis',(1.,-1.10217124316137E-8,-6.33477354980091E-17));
#407=DIRECTION('center_axis',(-1.10217123413711E-8,-0.999999999999997,-8.30242047153493E-8));
#408=DIRECTION('ref_axis',(1.,-1.10217123413711E-8,-6.33477280056871E-17));
#409=DIRECTION('',(1.,-1.10217123413711E-8,-6.33477280056899E-17));
#410=DIRECTION('center_axis',(-1.10217123413711E-8,-0.999999999999997,-8.30242047153493E-8));
#411=DIRECTION('ref_axis',(-1.,1.10217123326574E-8,1.06777800345591E-18));
#412=DIRECTION('',(1.,-1.10217123413711E-8,-6.33477280056897E-17));
#413=DIRECTION('center_axis',(-1.10217123413711E-8,-0.999999999999997,-8.30242047153493E-8));
#414=DIRECTION('ref_axis',(1.,-1.10217123413711E-8,-6.33477280056871E-17));
#415=DIRECTION('',(-1.,1.10217123413711E-8,6.33477280056899E-17));
#416=DIRECTION('',(-1.,1.10217123413711E-8,6.33477280056897E-17));
#417=DIRECTION('center_axis',(-1.10217123413711E-8,-0.999999999999997,-8.30242047153493E-8));
#418=DIRECTION('ref_axis',(-1.,1.10217123326574E-8,1.06777800345591E-18));
#419=DIRECTION('center_axis',(-8.51721170265804E-16,-8.30242044003171E-8,
0.999999999999997));
#420=DIRECTION('ref_axis',(1.,-1.10217123413711E-8,-6.33477280056874E-17));
#421=DIRECTION('',(-1.10217123326574E-8,-0.999999999999996,-8.30242046821518E-8));
#422=DIRECTION('',(1.,-1.10217123413711E-8,-6.33477280056873E-17));
#423=DIRECTION('center_axis',(8.51721170265804E-16,8.30242044003171E-8,
-0.999999999999997));
#424=DIRECTION('ref_axis',(-1.,1.10217123413711E-8,6.33477280056874E-17));
#425=DIRECTION('',(1.10217123326574E-8,0.999999999999996,8.30242046821518E-8));
#426=DIRECTION('',(-1.,1.10217123413711E-8,6.33477280056873E-17));
#427=DIRECTION('center_axis',(8.51721170265805E-16,8.30242044003171E-8,
-0.999999999999997));
#428=DIRECTION('ref_axis',(-1.,1.10217123413711E-8,6.33477280056872E-17));
#429=DIRECTION('',(1.10217123326574E-8,0.999999999999996,8.30242046821518E-8));
#430=DIRECTION('',(1.,-1.10217124316137E-8,-6.3347735498009E-17));
#431=DIRECTION('center_axis',(1.10217124316137E-8,0.999999999999997,8.30242044003171E-8));
#432=DIRECTION('ref_axis',(6.3347729511827E-17,-8.30242044003171E-8,0.999999999999996));
#433=DIRECTION('center_axis',(-1.10217124316137E-8,-0.999999999999997,-8.30242044003171E-8));
#434=DIRECTION('ref_axis',(-1.,1.10217123326574E-8,1.06777800345591E-18));
#435=DIRECTION('center_axis',(1.10217124316137E-8,0.999999999999997,8.30242044003171E-8));
#436=DIRECTION('ref_axis',(6.3347729511827E-17,-8.30242044003171E-8,0.999999999999996));
#437=DIRECTION('center_axis',(-1.10217124316137E-8,-0.999999999999997,-8.30242044003171E-8));
#438=DIRECTION('ref_axis',(-1.,1.10217123326574E-8,1.06777800345591E-18));
#439=DIRECTION('',(-1.,1.10217124316137E-8,6.3347735498009E-17));
#440=DIRECTION('center_axis',(-1.10217124316137E-8,-0.999999999999997,-8.30242044003171E-8));
#441=DIRECTION('ref_axis',(-1.,1.10217123326574E-8,1.06777800345591E-18));
#442=DIRECTION('center_axis',(-8.51721170265805E-16,-8.30242044003171E-8,
0.999999999999997));
#443=DIRECTION('ref_axis',(1.,-1.10217123413711E-8,-6.33477280056872E-17));
#444=DIRECTION('',(-1.10217123326574E-8,-0.999999999999996,-8.30242046821518E-8));
#445=DIRECTION('center_axis',(-1.10217123413712E-8,-0.999999999999997,-8.30242052884948E-8));
#446=DIRECTION('ref_axis',(-1.,1.10217123372866E-8,1.06777838778601E-18));
#447=DIRECTION('center_axis',(-1.10217123413711E-8,-0.999999999999997,-8.30242052884963E-8));
#448=DIRECTION('ref_axis',(-1.,1.10217123372866E-8,1.06777838778601E-18));
#449=DIRECTION('center_axis',(1.10217123326574E-8,0.999999999999997,8.30242046821518E-8));
#450=DIRECTION('ref_axis',(-1.,1.10217123326574E-8,1.06777800345591E-18));
#451=DIRECTION('',(-1.10217123326574E-8,-0.999999999999996,-8.30242046821518E-8));
#452=CARTESIAN_POINT('',(0.,0.,0.));
#453=CARTESIAN_POINT('Origin',(4.71614551459412E-6,306.599081800933,40.8613009131692));
#454=CARTESIAN_POINT('',(15.0000047078792,305.849081635607,40.8613008509011));
#455=CARTESIAN_POINT('Origin',(4.70787923027041E-6,305.849081800933,40.8613008509011));
#456=CARTESIAN_POINT('',(13.5000047244117,307.349081652139,40.8613009754374));
#457=CARTESIAN_POINT('',(14.2500047161455,306.599081643873,40.8613009131692));
#458=CARTESIAN_POINT('Origin',(4.72441179891783E-6,307.349081800933,40.8613009754374));
#459=CARTESIAN_POINT('Origin',(-5.99999527558819,307.349083112426,25.8613009754375));
#460=CARTESIAN_POINT('Origin',(2.78955268339426E-6,131.799307230775,40.861286400557));
#461=CARTESIAN_POINT('',(15.0000028788507,139.901320235186,40.8612870732202));
#462=CARTESIAN_POINT('',(15.0000027895527,131.79930706545,40.861286400557));
#463=CARTESIAN_POINT('',(14.8522754322372,139.901320411165,38.7612870732205));
#464=CARTESIAN_POINT('Origin',(2.87885074186649E-6,139.901320400511,40.8612870732202));
#465=CARTESIAN_POINT('',(14.8522754542806,141.901320411165,38.7612872392689));
#466=CARTESIAN_POINT('',(14.8522753429366,131.799307241429,38.761286400557));
#467=CARTESIAN_POINT('',(-14.8522696524897,141.90132073856,38.7612872392686));
#468=CARTESIAN_POINT('Origin',(2.90089416653181E-6,141.901320400511,40.8612872392686));
#469=CARTESIAN_POINT('',(-14.8522696745331,139.90132073856,38.7612870732202));
#470=CARTESIAN_POINT('',(-14.8522697638312,131.799307568824,38.761286400557));
#471=CARTESIAN_POINT('',(-14.8522696745331,139.901320389858,42.9612870732201));
#472=CARTESIAN_POINT('Origin',(2.87885074186649E-6,139.901320400511,40.8612870732202));
#473=CARTESIAN_POINT('',(-14.8522696524897,141.901320389858,42.9612872392685));
#474=CARTESIAN_POINT('',(-14.8522697638312,131.799307220122,42.9612864005569));
#475=CARTESIAN_POINT('',(14.8522754542806,141.901320062463,42.9612872392682));
#476=CARTESIAN_POINT('Origin',(2.90089416653181E-6,141.901320400511,40.8612872392686));
#477=CARTESIAN_POINT('',(14.8522754322372,139.901320062463,42.9612870732198));
#478=CARTESIAN_POINT('',(14.8522753429366,131.799306892727,42.9612864005569));
#479=CARTESIAN_POINT('Origin',(2.87885074186649E-6,139.901320400511,40.8612870732202));
#480=CARTESIAN_POINT('Origin',(4.68032491199233E-6,303.349078535288,40.8613006433403));
#481=CARTESIAN_POINT('',(13.000004680325,303.34908165765,40.8613006433406));
#482=CARTESIAN_POINT('Origin',(4.68032494972175E-6,303.349081800932,40.8613006433406));
#483=CARTESIAN_POINT('Origin',(2.82374217954626E-6,134.901320340907,40.8612866580991));
#484=CARTESIAN_POINT('',(-16.8697926148712,139.901320412095,42.9612870732201));
#485=CARTESIAN_POINT('',(-16.8697926699797,134.90132035249,42.9612866580991));
#486=CARTESIAN_POINT('',(-16.8697926699797,134.90132035249,42.9612866580991));
#487=CARTESIAN_POINT('',(16.8697983174654,134.901319980622,42.9612866580989));
#488=CARTESIAN_POINT('Origin',(2.82374217954626E-6,134.901320340907,40.8612866580991));
#489=CARTESIAN_POINT('',(16.869798372574,139.901320040226,42.96128707322));
#490=CARTESIAN_POINT('',(16.8697983174641,134.901319980622,42.9612866580991));
#491=CARTESIAN_POINT('Origin',(2.87885074236127E-6,139.901320400511,40.8612870732202));
#492=CARTESIAN_POINT('Origin',(2.82374217954626E-6,134.901320340907,40.8612866580991));
#493=CARTESIAN_POINT('',(-16.8697926699797,134.901320701191,38.7612866580991));
#494=CARTESIAN_POINT('',(-16.8697926148712,139.901320760797,38.7612870732201));
#495=CARTESIAN_POINT('',(-16.8697926699797,134.901320701191,38.7612866580991));
#496=CARTESIAN_POINT('',(16.869798372574,139.901320388928,38.7612870732203));
#497=CARTESIAN_POINT('Origin',(2.87885074236127E-6,139.901320400511,40.8612870732202));
#498=CARTESIAN_POINT('',(16.8697983174654,134.901320329323,38.7612866580993));
#499=CARTESIAN_POINT('',(16.8697983174641,134.901320329323,38.7612866580991));
#500=CARTESIAN_POINT('Origin',(2.82374217954626E-6,134.901320340907,40.8612866580991));
#501=CARTESIAN_POINT('Origin',(3.5169545845997E-6,134.901320169785,42.9223866149789));
#502=CARTESIAN_POINT('',(-12.8292606001649,134.901320307956,42.9612866580991));
#503=CARTESIAN_POINT('',(-13.666341576501,134.901320317182,42.9612866580991));
#504=CARTESIAN_POINT('',(12.8292662476547,134.901320025155,42.9612866580983));
#505=CARTESIAN_POINT('Origin',(2.82374217954626E-6,134.901320340907,40.8612866580991));
#506=CARTESIAN_POINT('',(-13.666341576501,134.901320317182,42.9612866580991));
#507=CARTESIAN_POINT('Origin',(3.5169545845997E-6,134.901320169785,42.9223866149789));
#508=CARTESIAN_POINT('',(-12.8292606001649,134.901320656658,38.7612866580991));
#509=CARTESIAN_POINT('',(13.6663479171978,134.901320364631,38.7612866580991));
#510=CARTESIAN_POINT('',(12.8292662476547,134.901320373857,38.7612866581));
#511=CARTESIAN_POINT('',(13.6663479171978,134.901320364631,38.7612866580991));
#512=CARTESIAN_POINT('Origin',(2.82374217954626E-6,134.901320340907,40.8612866580991));
#513=CARTESIAN_POINT('Origin',(-27.3326866699566,134.901320527413,42.9612866580991));
#514=CARTESIAN_POINT('',(-12.8292605450564,139.901320367561,42.9612870732201));
#515=CARTESIAN_POINT('',(-12.8292606343544,131.799307197825,42.9612864005569));
#516=CARTESIAN_POINT('Ctrl Pts',(-14.8522696524897,141.901320389858,42.9612872392685));
#517=CARTESIAN_POINT('Ctrl Pts',(-15.7979835410939,140.964920381762,42.9612871615247));
#518=CARTESIAN_POINT('Ctrl Pts',(-16.8697926148712,139.901320412095,42.9612870732201));
#519=CARTESIAN_POINT('',(27.3326923725496,139.901319924907,42.9612870732201));
#520=CARTESIAN_POINT('Origin',(27.332692317441,134.901320273609,38.7612866580991));
#521=CARTESIAN_POINT('',(-12.8292605450563,139.901320716262,38.7612870732201));
#522=CARTESIAN_POINT('',(-12.8292606343544,131.799307546526,38.761286400557));
#523=CARTESIAN_POINT('',(-27.3326866148481,139.901320876115,38.7612870732201));
#524=CARTESIAN_POINT('Ctrl Pts',(-16.8697926148712,139.901320760797,38.7612870732201));
#525=CARTESIAN_POINT('Ctrl Pts',(-15.7979835410939,140.964920730464,38.7612871615247));
#526=CARTESIAN_POINT('Ctrl Pts',(-14.8522696524897,141.90132073856,38.7612872392685));
#527=CARTESIAN_POINT('Origin',(27.332692317441,134.901320273609,38.7612866580991));
#528=CARTESIAN_POINT('',(12.8292663027632,139.901320433462,38.761287073221));
#529=CARTESIAN_POINT('',(12.8292662134598,131.799307263726,38.761286400557));
#530=CARTESIAN_POINT('Ctrl Pts',(14.852275454278,141.901320411165,38.7612872392685));
#531=CARTESIAN_POINT('Ctrl Pts',(15.7979893222408,140.964920382222,38.7612871615247));
#532=CARTESIAN_POINT('Ctrl Pts',(16.8697983725728,139.901320388928,38.7612870732201));
#533=CARTESIAN_POINT('',(13.6663476257002,139.901320424236,38.7612870732202));
#534=CARTESIAN_POINT('Origin',(2.87885074383792E-6,139.901320400511,40.8612870732202));
#535=CARTESIAN_POINT('Origin',(2.87885074186649E-6,139.901320400511,40.8612870732202));
#536=CARTESIAN_POINT('Origin',(2.87885074383792E-6,139.901320400511,40.8612870732202));
#537=CARTESIAN_POINT('',(13.0000028788507,139.901320257229,40.8612870732202));
#538=CARTESIAN_POINT('Origin',(2.87885074186649E-6,139.901320400511,40.8612870732202));
#539=CARTESIAN_POINT('',(12.8292663027632,139.90132008476,42.9612870732193));
#540=CARTESIAN_POINT('',(-13.6663418679987,139.901320376787,42.9612870732201));
#541=CARTESIAN_POINT('Origin',(2.87885074186649E-6,139.901320400511,40.8612870732202));
#542=CARTESIAN_POINT('Origin',(-27.3326866699566,134.901320527413,42.9612866580991));
#543=CARTESIAN_POINT('',(12.8292662134598,131.799306915024,42.9612864005569));
#544=CARTESIAN_POINT('Ctrl Pts',(16.8697983725733,139.901320040226,42.9612870732201));
#545=CARTESIAN_POINT('Ctrl Pts',(15.797989322241,140.96492003352,42.9612871615247));
#546=CARTESIAN_POINT('Ctrl Pts',(14.852275454278,141.901320062463,42.9612872392685));
#547=CARTESIAN_POINT('Origin',(2.88987245419044E-6,140.901320400511,40.8612871562444));
#548=CARTESIAN_POINT('Origin',(2.88987245419044E-6,140.901320400511,40.8612871562444));
#549=CARTESIAN_POINT('Origin',(2.78955268339426E-6,131.799307230775,40.861286400557));
#550=CARTESIAN_POINT('',(13.0000027895527,131.799307087493,40.861286400557));
#551=UNCERTAINTY_MEASURE_WITH_UNIT(LENGTH_MEASURE(0.01),#555,
'DISTANCE_ACCURACY_VALUE',
'Maximum model space distance between geometric entities at asserted c
onnectivities');
#552=UNCERTAINTY_MEASURE_WITH_UNIT(LENGTH_MEASURE(0.01),#555,
'DISTANCE_ACCURACY_VALUE',
'Maximum model space distance between geometric entities at asserted c
onnectivities');
#553=(
GEOMETRIC_REPRESENTATION_CONTEXT(3)
GLOBAL_UNCERTAINTY_ASSIGNED_CONTEXT((#551))
GLOBAL_UNIT_ASSIGNED_CONTEXT((#555,#557,#558))
REPRESENTATION_CONTEXT('','3D')
);
#554=(
GEOMETRIC_REPRESENTATION_CONTEXT(3)
GLOBAL_UNCERTAINTY_ASSIGNED_CONTEXT((#552))
GLOBAL_UNIT_ASSIGNED_CONTEXT((#555,#557,#558))
REPRESENTATION_CONTEXT('','3D')
);
#555=(
LENGTH_UNIT()
NAMED_UNIT(*)
SI_UNIT(.MILLI.,.METRE.)
);
#556=(
LENGTH_UNIT()
NAMED_UNIT(*)
SI_UNIT($,.METRE.)
);
#557=(
NAMED_UNIT(*)
PLANE_ANGLE_UNIT()
SI_UNIT($,.RADIAN.)
);
#558=(
NAMED_UNIT(*)
SI_UNIT($,.STERADIAN.)
SOLID_ANGLE_UNIT()
);
#559=SHAPE_DEFINITION_REPRESENTATION(#560,#561);
#560=PRODUCT_DEFINITION_SHAPE('',$,#563);
#561=SHAPE_REPRESENTATION('',(#324),#553);
#562=PRODUCT_DEFINITION_CONTEXT('part definition',#567,'design');
#563=PRODUCT_DEFINITION('58. Battery Stock Tube',
'58. Battery Stock Tube',#564,#562);
#564=PRODUCT_DEFINITION_FORMATION('',$,#569);
#565=PRODUCT_RELATED_PRODUCT_CATEGORY('58. Battery Stock Tube',
'58. Battery Stock Tube',(#569));
#566=APPLICATION_PROTOCOL_DEFINITION('international standard',
'automotive_design',2009,#567);
#567=APPLICATION_CONTEXT(
'Core Data for Automotive Mechanical Design Process');
#568=PRODUCT_CONTEXT('part definition',#567,'mechanical');
#569=PRODUCT('58. Battery Stock Tube','58. Battery Stock Tube',$,(#568));
#570=PRESENTATION_STYLE_ASSIGNMENT((#572));
#571=PRESENTATION_STYLE_ASSIGNMENT((#573));
#572=SURFACE_STYLE_USAGE(.BOTH.,#574);
#573=SURFACE_STYLE_USAGE(.BOTH.,#575);
#574=SURFACE_SIDE_STYLE('',(#576));
#575=SURFACE_SIDE_STYLE('',(#577));
#576=SURFACE_STYLE_FILL_AREA(#578);
#577=SURFACE_STYLE_FILL_AREA(#579);
#578=FILL_AREA_STYLE('Steel - Satin',(#580));
#579=FILL_AREA_STYLE('Plastic - Matte (Red)',(#581));
#580=FILL_AREA_STYLE_COLOUR('Steel - Satin',#582);
#581=FILL_AREA_STYLE_COLOUR('Plastic - Matte (Red)',#583);
#582=COLOUR_RGB('Steel - Satin',0.627450980392157,0.627450980392157,0.627450980392157);
#583=COLOUR_RGB('Plastic - Matte (Red)',0.768627450980392,0.207843137254902,
0.152941176470588);
ENDSEC;
END-ISO-10303-21;
